<?xml version="1.0" encoding="UTF-8" standalone="no"?>
<svg
   xmlns:dc="http://purl.org/dc/elements/1.1/"
   xmlns:cc="http://creativecommons.org/ns#"
   xmlns:rdf="http://www.w3.org/1999/02/22-rdf-syntax-ns#"
   xmlns:svg="http://www.w3.org/2000/svg"
   xmlns="http://www.w3.org/2000/svg"
   id="svg47"
   version="1.1"
   viewBox="0 0 52.758294 52.758296"
   height="199.40143"
   width="199.40143">
  <defs
     id="defs42">
    <pattern
       id="EMFhbasepattern"
       patternUnits="userSpaceOnUse"
       width="6"
       height="6"
       x="0"
       y="0" />
  </defs>
  <metadata
     id="metadata45">
    <rdf:RDF>
      <cc:Work
         rdf:about="">
        <dc:format>image/svg+xml</dc:format>
        <dc:type
           rdf:resource="http://purl.org/dc/dcmitype/StillImage" />
        <dc:title></dc:title>
      </cc:Work>
    </rdf:RDF>
  </metadata>
  <g
     id="g7121"
     transform="translate(-224.30466,-67.931197)">
    <rect
       style="fill:#ffffff;stroke:#000000;stroke-width:0.49999899;stroke-linecap:round;stroke-miterlimit:4;stroke-dasharray:none;stroke-opacity:1;paint-order:fill markers stroke"
       id="rect833-1-5-3-8"
       width="52.258293"
       x="224.55829"
       y="68.328804"
       height="52.258293" />
    <text
       xml:space="preserve"
       style="font-size:6.3499999px;line-height:0.94999999;font-family:voestalpine;-inkscape-font-specification:voestalpine;text-align:center;letter-spacing:0px;word-spacing:0px;text-anchor:middle;stroke-width:0.26458299"
       x="250.94838"
       y="118.017"
       id="text898-7-3-6-9"><tspan
         x="250.94838"
         y="118.017"
         style="font-size:6.3499999px;text-align:center;text-anchor:middle;stroke-width:0.26458299"
         id="tspan900-6-1-6-2">Add</tspan></text>
    <g
       style="fill:#000000"
       id="g1488"
       transform="matrix(0.46708817,0,0,0.46708817,235.74062,72.25286)">
      <path
         d="M 32,3.56 A 28.44,28.44 0 1 0 60.44,32 28.47,28.47 0 0 0 32,3.56 Z m 0,53.88 A 25.44,25.44 0 1 1 57.44,32 25.47,25.47 0 0 1 32,57.44 Z M 45.84,32 a 1.5,1.5 0 0 1 -1.5,1.5 H 33.5 v 10.84 a 1.5,1.5 0 0 1 -3,0 V 33.5 H 19.66 a 1.5,1.5 0 1 1 0,-3 H 30.5 V 19.66 a 1.5,1.5 0 1 1 3,0 V 30.5 h 10.84 a 1.5,1.5 0 0 1 1.5,1.5 z"
         id="path1474" />
    </g>
  </g>
</svg>
