<svg id="SVGRoot" width="205" height="203" version="1.1" viewBox="0 0 205 203" xmlns="http://www.w3.org/2000/svg">
 <g transform="translate(0,2)">
  <g transform="matrix(3.7795 0 0 3.7795 10.171 -6.7758)">
   <g transform="translate(-1.0884 -121.69)">
    <g transform="translate(1.6608 -59.209)">
     <g transform="translate(-.6443 -59.335)">
      <rect x="-1.7025" y="241.91" width="52.917" height="52.917" fill="#0082b4" stroke="#000" stroke-linecap="round" stroke-width=".5" style="paint-order:fill markers stroke"/>
      <text transform="scale(1.0125 .98768)" x="24.481644" y="294.60306" font-family="sans-serif" font-size="4.9389px" letter-spacing="0px" stroke-width=".26132" text-align="center" text-anchor="middle" word-spacing="0px" style="line-height:1.04999995" xml:space="preserve"><tspan x="24.481644" y="294.60306" fill="#ffffff" font-family="sans-serif" font-size="5.2px" stroke-width=".26132" class="svgT" letter-spacing=".5px" text-align="center" text-anchor="middle">AKAPITY</tspan></text>
      <g transform="matrix(1.3029 0 0 1.3029 9.1212 247.63)" fill="#fff">
       <path d="m19 0h-8c-3.584 0-6.5 2.916-6.5 6.5s2.916 6.5 6.5 6.5h1.5v10h-1.5c-.276 0-.5.224-.5.5s.224.5.5.5h7c.276 0 .5-.224.5-.5s-.224-.5-.5-.5h-1.5v-22h2.5c.276 0 .5-.224.5-.5s-.224-.5-.5-.5zm-3.5 23h-2v-22h2z" fill="#fff"/>
      </g>
     </g>
    </g>
   </g>
  </g>
 </g>
</svg>
