<svg id="SVGRoot" width="208" height="208" version="1.1" viewBox="0 0 208 208" xmlns="http://www.w3.org/2000/svg">
 <g transform="translate(0,7)">
  <g transform="matrix(3.7795 0 0 3.7795 10.171 -6.7758)">
   <g transform="translate(-1.0884 -121.69)">
    <g transform="translate(1.6608 -59.209)">
     <g transform="translate(-.6443 -59.335)">
      <g transform="translate(-1396.8 269.89)">
       <g transform="translate(-57.972 -.024822)">
        <g transform="translate(1658.1 73.867)">
         <g transform="translate(-203.03 -103.33)">
          <flowRoot transform="matrix(.26458 0 0 .26458 -2.875 1.091)" fill="#000000" font-family="sans-serif" font-size="40px" letter-spacing="0px" word-spacing="0px" style="line-height:1.25" xml:space="preserve"><flowRegion><rect x="-85.582" y="-60.812" width="342.33" height="293.65"/></flowRegion><flowPara/></flowRoot>
          <g transform="translate(-1039.4 318.88)">
           <flowRoot transform="matrix(.26458 0 0 .26458 1036.5 -317.79)" fill="#000000" font-family="sans-serif" font-size="40px" letter-spacing="0px" word-spacing="0px" style="line-height:1.25" xml:space="preserve"><flowRegion><rect x="-105.21" y="-13.703" width="562.17" height="513.49"/></flowRegion><flowPara/></flowRoot>
           <g transform="translate(-66.134 .039287)">
            <g transform="translate(-66.173 .043409)">
             <flowRoot transform="matrix(.26458 0 0 .26458 1168.8 -317.87)" fill="#000000" font-family="sans-serif" font-size="40px" letter-spacing="0px" word-spacing="0px" style="line-height:1.25" xml:space="preserve"><flowRegion><rect x="-114.63" y="-91.434" width="675.23" height="522.91"/></flowRegion><flowPara/></flowRoot>
             <g transform="translate(-66.2 -.040316)">
              <g transform="translate(-65.918 -.60254)">
               <g transform="translate(-66.6 .14883)">
                <flowRoot fill="black" font-family="sans-serif" font-size="40px" letter-spacing="0px" word-spacing="0px" style="line-height:1.25" xml:space="preserve"><flowRegion><rect x="-24.34" y="-19.695" width="252.04" height="245.75"/></flowRegion><flowPara/></flowRoot>
                <g transform="translate(-68.678 -.48293)">
                 <flowRoot fill="black" font-family="sans-serif" font-size="40px" letter-spacing="0px" word-spacing="0px" style="line-height:1.25" xml:space="preserve"><flowRegion><rect x="-65.168" y="-26.762" width="382.37" height="335.26"/></flowRegion><flowPara/></flowRoot>
                 <g transform="translate(-63.347 .4912)">
                  <g transform="translate(529.82 -.18087)">
                   <g transform="translate(794.67 .06923)">
                    <g transform="translate(-198.36 .17569)">
                     <g transform="translate(-530.68 .043413)">
                      <g transform="translate(912.04 -.041317)">
                       <g transform="translate(132.58 -.39794)">
                        <rect x="-138.98" y="-317.37" width="52.917" height="52.917" fill="#ffec8e" stroke="#000" stroke-linecap="round" stroke-width=".5" style="paint-order:fill markers stroke"/>
                        <text x="-112.68694" y="-275.57675" fill="#000000" font-family="sans-serif" font-size="5.2px" letter-spacing="0px" stroke-width=".26458" text-align="center" text-anchor="middle" word-spacing="0px" style="line-height:1.25" xml:space="preserve"><tspan class="svgT" letter-spacing=".5px" x="-112.68694" y="-275.57675" text-align="center">Bezpieczeństwo</tspan><tspan class="svgT" letter-spacing=".5px" x="-112.68694" y="-267.63925" text-align="center">ms</tspan></text>
                        <g transform="matrix(.49397 0 0 .43826 -137.22 -319.14)">
                         <path d="m50 62.316c-1.884 0-3.413 1.527-3.413 3.412s1.528 3.412 3.413 3.412 3.413-1.527 3.413-3.412-1.528-3.412-3.413-3.412zm-1.137-2.406h2.275c.387 0 .699-.314.699-.701l1.4-19.25c0-.387-.313-.7-.7-.7h-5.075c-.387 0-.7.313-.7.7l1.4 19.25c.001.387.314.701.701.701zm30.492 7.473-23.905-41.404c-1.122-1.943-3.213-3.15-5.456-3.15-2.244 0-4.334 1.207-5.457 3.15l-24.1 41.743c-1.122 1.942-1.122 4.356 0 6.3s3.212 3.15 5.456 3.15h48.174.036.022c3.466-.01 6.282-2.832 6.282-6.301.001-1.248-.363-2.453-1.052-3.488zm-5.247 6.988h-48.214c-1.247 0-2.408-.67-3.031-1.75-.624-1.078-.624-2.42 0-3.5l24.101-41.743c.624-1.08 1.785-1.75 3.032-1.75 1.246 0 2.407.67 3.031 1.75l23.929 41.446c.017.029.036.059.054.086.395.578.601 1.258.601 1.961-.003 1.932-1.574 3.5-3.503 3.5z"/>
                        </g>
                       </g>
                      </g>
                     </g>
                    </g>
                   </g>
                  </g>
                 </g>
                </g>
               </g>
              </g>
             </g>
            </g>
           </g>
          </g>
         </g>
        </g>
       </g>
      </g>
     </g>
    </g>
   </g>
  </g>
 </g>
</svg>
