<?xml version="1.0" encoding="UTF-8" standalone="no"?>
<svg
   xmlns:dc="http://purl.org/dc/elements/1.1/"
   xmlns:cc="http://creativecommons.org/ns#"
   xmlns:rdf="http://www.w3.org/1999/02/22-rdf-syntax-ns#"
   xmlns:svg="http://www.w3.org/2000/svg"
   xmlns="http://www.w3.org/2000/svg"
   id="SVGRoot"
   version="1.1"
   viewBox="0 0 200 200"
   height="200px"
   width="200px">
  <defs
     id="defs827" />
  <metadata
     id="metadata830">
    <rdf:RDF>
      <cc:Work
         rdf:about="">
        <dc:format>image/svg+xml</dc:format>
        <dc:type
           rdf:resource="http://purl.org/dc/dcmitype/StillImage" />
        <dc:title></dc:title>
      </cc:Work>
    </rdf:RDF>
  </metadata>
  <g
     id="layer1">
    <g
       id="g1437"
       transform="matrix(3.7795276,0,0,3.7795276,-2932.8486,120.49995)">
      <g
         id="g1429">
        <rect
           style="fill:#db3b3b;fill-opacity:1;stroke:#000000;stroke-width:0.49999899;stroke-linecap:round;stroke-miterlimit:4;stroke-dasharray:none;stroke-opacity:1;paint-order:fill markers stroke"
           id="rect833-4-4-4-3-1-1-8"
           width="52.916668"
           height="52.916668"
           x="776.35492"
           y="-31.749987" />
        <text
           xml:space="preserve"
           style="font-size:6.3499999px;line-height:1.25;font-family:voestalpine;-inkscape-font-specification:voestalpine;letter-spacing:0px;word-spacing:0px;fill:#ffffff;fill-opacity:1;stroke-width:0.26458299"
           x="802.67267"
           y="19.00617"
           id="text983-1-5-6-98-51-0-2"><tspan
             id="tspan1898"
             x="802.67267"
             y="19.00617"
             style="font-size:6.3499999px;text-align:center;text-anchor:middle;fill:#ffffff;fill-opacity:1;stroke-width:0.26458299">Blank page (EN)</tspan></text>
        <g
           transform="matrix(0.29671131,0,0,0.29671131,787.97784,-27.025298)"
           id="g1911"
           style="fill:#ffffff;fill-opacity:1">
          <path
             style="fill:#ffffff;fill-opacity:1"
             d="M 80.303,0 H 19.697 c -2.789,0 -5.051,2.261 -5.051,5.05 v 89.9 c 0,2.789 2.262,5.05 5.051,5.05 h 60.605 c 2.789,0 5.051,-2.261 5.051,-5.05 V 5.05 C 85.354,2.261 83.092,0 80.303,0 Z m 1.683,94.95 c 0,0.928 -0.755,1.684 -1.684,1.684 H 19.697 c -0.929,0 -1.684,-0.756 -1.684,-1.684 V 5.05 c 0,-0.928 0.755,-1.684 1.684,-1.684 h 60.605 c 0.929,0 1.684,0.756 1.684,1.684 z M 77.507,8.737 20.268,89.689 c -0.435,0.615 -0.289,1.465 0.326,1.9 0.239,0.169 0.514,0.25 0.785,0.25 0.428,0 0.849,-0.201 1.114,-0.576 L 79.732,10.31 C 80.167,9.695 80.02,8.845 79.406,8.411 78.792,7.977 77.941,8.123 77.507,8.737 Z"
             id="path1900" />
        </g>
      </g>
    </g>
  </g>
</svg>
