<?xml version="1.0" encoding="UTF-8" standalone="no"?>
<svg
   xmlns:dc="http://purl.org/dc/elements/1.1/"
   xmlns:cc="http://creativecommons.org/ns#"
   xmlns:rdf="http://www.w3.org/1999/02/22-rdf-syntax-ns#"
   xmlns:svg="http://www.w3.org/2000/svg"
   xmlns="http://www.w3.org/2000/svg"
   id="SVGRoot"
   version="1.1"
   viewBox="0 0 200 200"
   height="200px"
   width="200px">
  <defs
     id="defs271" />
  <metadata
     id="metadata274">
    <rdf:RDF>
      <cc:Work
         rdf:about="">
        <dc:format>image/svg+xml</dc:format>
        <dc:type
           rdf:resource="http://purl.org/dc/dcmitype/StillImage" />
        <dc:title></dc:title>
      </cc:Work>
    </rdf:RDF>
  </metadata>
  <g
     id="layer1">
    <g
       id="g609"
       style="display:inline"
       transform="matrix(3.7795276,0,0,3.7795276,-5044.6981,105.6779)">
      <rect
         style="fill:#db3b3b;fill-opacity:1;stroke:#000000;stroke-width:0.520679;stroke-linecap:round;stroke-miterlimit:4;stroke-dasharray:none;paint-order:fill markers stroke"
         id="rect835-2-0-2-8-1-5-6-8-9-7-3-0-5-5-1-5-4-5-2-4-0-7-9-0"
         width="52.395985"
         height="52.395985"
         x="1335.2101"
         y="-27.584515" />
      <text
         id="text858-5-83-73-7-0-7-0-7-9-81-0-2"
         y="7.5445485"
         x="1361.2643"
         style="font-size:6.3499999px;line-height:1.25;font-family:voestalpine;-inkscape-font-specification:voestalpine;text-align:center;letter-spacing:0px;word-spacing:0px;text-anchor:middle;stroke-width:0.26458299"
         xml:space="preserve"><tspan
           style="font-size:6.3499999px;text-align:center;text-anchor:middle;fill:#ffffff;fill-opacity:1;stroke-width:0.26458299"
           y="7.5445485"
           x="1361.2643"
           id="tspan2108-0-1-3">BLOKI</tspan><tspan
           id="tspan2645"
           style="font-size:6.3499999px;text-align:center;text-anchor:middle;fill:#ffffff;fill-opacity:1;stroke-width:0.26458299"
           y="15.482048"
           x="1361.2643">KONSTRUKCYJNE</tspan><tspan
           id="tspan566"
           style="font-size:6.3499999px;text-align:center;text-anchor:middle;fill:#ffffff;fill-opacity:1;stroke-width:0.26458299"
           y="23.419548"
           x="1361.2643"> 1</tspan><tspan
           id="tspan564"
           y="31.357048"
           x="1361.2643" /></text>
      <g
         transform="matrix(0.26458333,0,0,0.26458333,1348.1789,-25.076824)"
         id="g2699"
         style="fill:#ffffff;fill-opacity:1">
        <path
           id="path2685"
           overflow="visible"
           display="inline"
           visibility="visible"
           marker="none"
           style="color:#000000;text-indent:0;text-transform:none;direction:ltr;baseline-shift:baseline;display:inline;overflow:visible;visibility:visible;fill:#ffffff;fill-opacity:1;stroke:none;enable-background:accumulate"
           d="m 23.629007,2.71157 c -3.47744,1.0673 -8.37386,2.37141 -10.12492,5.2955 -0.62489,1.06654 0.0759,2.65264 1.28473,2.90793 2.54474,0.51976 7.8472,2.17211 11.99084,4.43843 2.07182,1.13315 3.86838,2.44284 4.89422,3.67317 1.00573,1.20622 1.26143,2.09448 0.97885,3.15281 l -5.20011,8.96868 c -1.96039,3.39782 -6.51035,7.23402 -10.12492,13.49892 -4.21762,7.31011 -11.88443,20.74981 -16.08975,28.03861 -0.50657004,0.8831 -0.17295,2.1459 0.70354,2.6631 l 11.04259,6.3668 c 0.88246,0.5069 2.1444,0.1731 2.66123,-0.704 l 16.18152,-28.0692 c 3.61799,-6.27088 4.66591,-12.00968 6.63778,-15.42739 1.83533,-3.19593 3.66739,-7.98848 6.17896,-10.07063 0.49858,-0.13157 1.93218,-0.12102 4.83304,1.5611 0.71939,0.40929 1.73884,2.11689 3.24242,3.82623 0.81592,0.91942 2.52671,0.75321 3.15065,-0.3061 l 8.10606,-14.08052 c 0.62488,-1.06654 -0.0759,-2.65264 -1.28474,-2.90793 -2.23443,-0.45999 -4.15091,-0.43833 -5.01657,-0.9183 C 51.959697,11.35002 46.250357,8.0309 40.544697,4.73182 34.820857,1.86684 29.450807,1.36723 23.629007,2.71157 Z m 14.95796,5.38737 14.31559,8.29527 -4.46597,7.77489 c -1.91421,-0.71665 -3.48679,-0.83696 -4.80246,-0.48976 -1.33818,0.35314 -2.16814,1.22237 -2.66123,1.8672 l -4.46598,-2.60183 c 0.53174,-2.36934 -0.37074,-4.67152 -1.83533,-6.42807 -1.53947,-1.84635 -3.66817,-3.3186 -5.99542,-4.59147 -3.02163,-1.65264 -6.13265,-2.77763 -8.93195,-3.64257 1.33164,-0.63645 2.88611,-1.30472 4.77186,-1.74475 4.75957,-1.0782 9.99519,-0.74699 14.07089,1.56109 z m 17.74155,10.22369 c 0.95827,0.44085 1.9006,0.65037 2.78359,0.76524 l -5.13894,8.87684 c -0.53586,-0.70583 -1.18431,-1.42555 -2.04945,-2.02024 z m -21.62634,8.08098 4.25185,2.44879 -3.85419,6.70356 c -2.53837,4.39956 -3.42264,9.80169 -6.66838,15.42736 l -15.20267,26.355 -7.61663,-4.4078 c 4.33126,-7.5242 11.16236,-19.4807 15.1109,-26.32443 3.22593,-5.5913 7.57509,-9.07947 10.12492,-13.49892 z m 5.38364,14.78455 c -0.96237,0.0908 -1.77832,0.99174 -1.77415,1.95903 v 13.71323 c 1e-4,1.0257 0.93267,1.9589 1.95769,1.959 h 25.44994 c 1.02502,-1e-4 1.95759,-0.9333 1.95769,-1.959 V 43.14719 c -1e-4,-1.02572 -0.93267,-1.95893 -1.95769,-1.95903 -8.53953,0 -17.10734,0 -25.63348,0 z m 31.32301,0 c -0.96237,0.0908 -1.77832,0.99174 -1.77415,1.95903 v 13.71323 c 1e-4,1.0257 0.93267,1.9589 1.95769,1.959 h 25.44994 c 1.02502,-1e-4 1.95759,-0.9333 1.95769,-1.959 V 43.14719 c -10e-5,-1.02572 -0.93267,-1.95893 -1.95769,-1.95903 -8.53953,0 -17.10734,0 -25.63348,0 z m -29.18179,3.91806 h 21.53457 v 9.7952 h -21.53457 z m 31.32302,0 h 21.53457 v 9.7952 h -21.53457 z m -41.29499,15.6722 c -0.96237,0.091 -1.77832,0.9918 -1.77416,1.9591 v 13.7132 c 1e-4,1.0257 0.93268,1.9589 1.95769,1.959 h 25.44995 c 1.02502,-10e-5 1.95759,-0.9333 1.95769,-1.959 v -13.7132 c -1e-4,-1.0258 -0.93267,-1.959 -1.95769,-1.9591 -8.53954,0 -17.10732,0 -25.63348,0 z m 31.32301,0 c -0.96237,0.091 -1.77832,0.9918 -1.77415,1.9591 v 13.7132 c 9e-5,1.0257 0.93267,1.9589 1.95768,1.959 h 25.44995 c 1.02502,-10e-5 1.95759,-0.9333 1.95769,-1.959 v -13.7132 c -1e-4,-1.0258 -0.93267,-1.959 -1.95769,-1.9591 -8.53954,0 -17.10732,0 -25.63348,0 z m -29.18179,3.9181 h 21.53457 v 9.7951 h -21.53457 z m 31.32301,0 h 21.53457 v 9.7951 h -21.53457 z m -25.63348,15.6722 c -0.96237,0.091 -1.77832,0.9918 -1.77415,1.959 v 13.7132 c 1e-4,1.0258 0.93267,1.959 1.95769,1.9591 h 25.44994 c 1.02502,-1e-4 1.95759,-0.9333 1.95769,-1.9591 v -13.7132 c -1e-4,-1.0257 -0.93267,-1.9589 -1.95769,-1.959 -8.53954,0 -17.10731,0 -25.63348,0 z m 31.32301,0 c -0.96237,0.091 -1.77832,0.9918 -1.77415,1.959 v 13.7132 c 1e-4,1.0258 0.93267,1.959 1.95769,1.9591 h 25.44994 c 1.02502,-1e-4 1.95759,-0.9333 1.95769,-1.9591 v -13.7132 c -10e-5,-1.0257 -0.93267,-1.9589 -1.95769,-1.959 -8.53954,0 -17.10731,0 -25.63348,0 z m -29.18179,3.9181 h 21.53457 v 9.7951 h -21.53457 z m 31.32302,0 h 21.53457 v 9.7951 h -21.53457 z" />
      </g>
    </g>
  </g>
</svg>
