<svg id="SVGRoot" width="203" height="204" version="1.1" viewBox="0 0 203 204" xmlns="http://www.w3.org/2000/svg">
 <g transform="translate(0,3)">
  <g transform="matrix(3.7795 0 0 3.7795 10.171 -6.7758)">
   <rect x="-2.1433" y="1.6036" width="52.917" height="52.917" fill="#0082b4" stroke="#000" stroke-linecap="round" stroke-width=".5" style="paint-order:fill markers stroke"/>
   <text transform="scale(1.0125 .98768)" x="23.873405" y="41.001873" fill="#ffffff" font-family="sans-serif" font-size="5.2px" letter-spacing="0px" stroke-width=".26132" text-align="center" text-anchor="middle" word-spacing="0px" style="line-height:1.04999995" xml:space="preserve"><tspan x="23.873405" y="41.001873" text-align="center">BLOKI</tspan><tspan x="23.873405" y="46.187706" text-align="center">KONSTRUKCYJNE</tspan><tspan x="23.873405" y="51.373539" text-align="center"> 2</tspan></text>
   <g transform="matrix(.2633 0 0 .2633 11.15 4.906)" fill="#fff">
    <path d="m23.629 2.7116c-3.4774 1.0673-8.3739 2.3714-10.125 5.2955-.62489 1.0665.0759 2.6526 1.2847 2.9079 2.5447.51976 7.8472 2.1721 11.991 4.4384 2.0718 1.1332 3.8684 2.4428 4.8942 3.6732 1.0057 1.2062 1.2614 2.0945.97885 3.1528l-5.2001 8.9687c-1.9604 3.3978-6.5104 7.234-10.125 13.499-4.2176 7.3101-11.884 20.75-16.09 28.039-.50657.8831-.17295 2.1459.70354 2.6631l11.043 6.3668c.88246.5069 2.1444.1731 2.6612-.704l16.182-28.069c3.618-6.2709 4.6659-12.01 6.6378-15.427 1.8353-3.1959 3.6674-7.9885 6.179-10.071.49858-.13157 1.9322-.12102 4.833 1.5611.71939.40929 1.7388 2.1169 3.2424 3.8262.81592.91942 2.5267.75321 3.1506-.3061l8.1061-14.081c.62488-1.0665-.0759-2.6526-1.2847-2.9079-2.2344-.45999-4.1509-.43833-5.0166-.9183-5.7147-3.2688-11.424-6.5879-17.13-9.887-5.7238-2.865-11.094-3.3646-16.916-2.0202zm14.958 5.3874 14.316 8.2953-4.466 7.7749c-1.9142-.71665-3.4868-.83696-4.8025-.48976-1.3382.35314-2.1681 1.2224-2.6612 1.8672l-4.466-2.6018c.53174-2.3693-.37074-4.6715-1.8353-6.4281-1.5395-1.8464-3.6682-3.3186-5.9954-4.5915-3.0216-1.6526-6.1326-2.7776-8.932-3.6426 1.3316-.63645 2.8861-1.3047 4.7719-1.7448 4.7596-1.0782 9.9952-.74699 14.071 1.5611zm17.742 10.224c.95827.44085 1.9006.65037 2.7836.76524l-5.1389 8.8768c-.53586-.70583-1.1843-1.4256-2.0494-2.0202zm-21.626 8.081 4.2518 2.4488-3.8542 6.7036c-2.5384 4.3996-3.4226 9.8017-6.6684 15.427l-15.203 26.355-7.6166-4.4078c4.3313-7.5242 11.162-19.481 15.111-26.324 3.2259-5.5913 7.5751-9.0795 10.125-13.499zm5.3836 14.785c-.96237.0908-1.7783.99174-1.7742 1.959v13.713c1e-4 1.0257.93267 1.9589 1.9577 1.959h25.45c1.025-1e-4 1.9576-.9333 1.9577-1.959v-13.713c-1e-4-1.0257-.93267-1.9589-1.9577-1.959h-25.633zm31.323 0c-.96237.0908-1.7783.99174-1.7742 1.959v13.713c1e-4 1.0257.93267 1.9589 1.9577 1.959h25.45c1.025-1e-4 1.9576-.9333 1.9577-1.959v-13.713c-1e-4-1.0257-.93267-1.9589-1.9577-1.959h-25.633zm-29.182 3.9181h21.535v9.7952h-21.535zm31.323 0h21.535v9.7952h-21.535zm-41.295 15.672c-.96237.091-1.7783.9918-1.7742 1.9591v13.713c1e-4 1.0257.93268 1.9589 1.9577 1.959h25.45c1.025-1e-4 1.9576-.9333 1.9577-1.959v-13.713c-1e-4-1.0258-.93267-1.959-1.9577-1.9591h-25.633zm31.323 0c-.96237.091-1.7783.9918-1.7742 1.9591v13.713c9e-5 1.0257.93267 1.9589 1.9577 1.959h25.45c1.025-1e-4 1.9576-.9333 1.9577-1.959v-13.713c-1e-4-1.0258-.93267-1.959-1.9577-1.9591h-25.633zm-29.182 3.9181h21.535v9.7951h-21.535zm31.323 0h21.535v9.7951h-21.535zm-25.633 15.672c-.96237.091-1.7783.9918-1.7742 1.959v13.713c1e-4 1.0258.93267 1.959 1.9577 1.9591h25.45c1.025-1e-4 1.9576-.9333 1.9577-1.9591v-13.713c-1e-4-1.0257-.93267-1.9589-1.9577-1.959h-25.633zm31.323 0c-.96237.091-1.7783.9918-1.7742 1.959v13.713c1e-4 1.0258.93267 1.959 1.9577 1.9591h25.45c1.025-1e-4 1.9576-.9333 1.9577-1.9591v-13.713c-1e-4-1.0257-.93267-1.9589-1.9577-1.959h-25.633zm-29.182 3.9181h21.535v9.7951h-21.535zm31.323 0h21.535v9.7951h-21.535z" color="#000000" fill="#fff" overflow="visible" style="text-indent:0;text-transform:none"/>
   </g>
  </g>
 </g>
</svg>
