<svg id="SVGRoot" width="206px" height="206px" version="1.1" viewBox="0 0 206 206" xmlns="http://www.w3.org/2000/svg">
 <g transform="matrix(3.7795 0 0 3.7795 -623.63 -253.6)">
  <rect x="166.23" y="68.329" width="52.258" height="52.258" fill="#fff" stroke="#000" stroke-linecap="round" stroke-width=".5" style="paint-order:fill markers stroke"/>
  <text x="192.19753" y="117.29549" font-family="sans-serif" font-size="6.35px" letter-spacing="0px" stroke-width=".26458" text-align="center" text-anchor="middle" word-spacing="0px" style="line-height:0.94999999" xml:space="preserve"><tspan x="192.19753" y="117.29549" font-family="sans-serif"  class="svgT" letter-spacing=".5px" font-size="5.2px"  stroke-width=".26458" text-align="center" text-anchor="middle">Check Lock</tspan></text>
  <g transform="matrix(.58462 0 0 .58462 170.92 73)">
   <g data-name="Key Lock">
    <path d="m36.29 48h-26.58a3.71 3.71 0 01-3.71-3.71v-20.58a3.71 3.71 0 013.71-3.71h26.58a3.71 3.71 0 013.71 3.71v20.58a3.71 3.71 0 01-3.71 3.71zm-26.58-26a1.72 1.72 0 00-1.71 1.71v20.58a1.72 1.72 0 001.71 1.71h26.58a1.72 1.72 0 001.71-1.71v-20.58a1.72 1.72 0 00-1.71-1.71z"/>
    <path d="m25.19 39.6h-4.38a2.42 2.42 0 01-2.34-3l1-4.06a5 5 0 118.53-3.54 4.94 4.94 0 01-1.48 3.54l1 4.06a2.42 2.42 0 01-2.34 3zm-2.19-13.6a3 3 0 00-1.8 5.39l.52.4-1.32 5.29a.41.41 0 00.08.36.39.39 0 00.32.16h4.38a.39.39 0 00.32-.16.41.41 0 00.08-.36l-1.32-5.29.52-.4a3 3 0 00-1.78-5.39z"/>
    <rect x="7" y="42" width="32" height="2"/>
    <path d="m36 22h-6.25v-10a6.13 6.13 0 00-6.25-6 6.13 6.13 0 00-6.25 6v10h-6.25v-10a12.27 12.27 0 0112.5-12 12.27 12.27 0 0112.5 12zm-4.17-2h2.09v-8a10.23 10.23 0 00-10.42-10 10.23 10.23 0 00-10.42 10v8h2.09v-8a8.18 8.18 0 018.33-8 8.18 8.18 0 018.33 8z"/>
   </g>
  </g>
  <text x="192.90828" y="99.681824" font-family="voestalpine" font-size="35.55px" letter-spacing="0px" stroke-width="1.6664" word-spacing="0px" style="line-height:1.25" xml:space="preserve"><tspan x="192.90828" y="99.681824" stroke-width="1.6664">?</tspan></text>
 </g>
</svg>
