<svg id="SVGRoot" width="206px" height="206px" version="1.1" viewBox="0 0 206 206" xmlns="http://www.w3.org/2000/svg">
 <g transform="matrix(3.7795 0 0 3.7795 -407.77 -254.41)">
  <rect x="109.22" y="68.329" width="52.258" height="52.258" fill="#fff" stroke="#000" stroke-linecap="round" stroke-width=".5" style="paint-order:fill markers stroke"/>
  <text x="135.34152" y="116.58959" font-family="sans-serif" font-size="6.35px" letter-spacing="0px" stroke-width=".26458" text-align="center" text-anchor="middle" word-spacing="0px" style="line-height:0.94999999" xml:space="preserve"><tspan x="135.34152" y="116.58959" font-family="sans-serif" font-size="4.9389px" stroke-width=".26458" text-align="center" text-anchor="middle">Clean up</tspan></text>
  <g transform="matrix(.36243 0 0 .36243 117.24 69.217)">
   <path d="m43.1 86.7 11.5-19.4c1-1.8 1.8-3.7 2.1-5.7.6-3.5.1-7.1-1.5-10.1l31.4-31.4c2-2 2.1-5 .3-6.9s-4.9-1.8-6.9.2l-31.4 31.4c-3.1-1.6-6.6-2.2-10.1-1.5-2 .4-4 1.1-5.7 2.1l-19.5 11.5c-.8.5-1.4 1.3-1.5 2.3s.2 1.9.9 2.6l25.6 25.6c.7.7 1.6 1 2.6.9.9-.3 1.7-.8 2.2-1.6zm39-71.2c.8-.8 2-.9 2.6-.3.7.7.5 1.8-.3 2.6l-31 31c-.3-.4-.7-.9-1.1-1.3s-.8-.8-1.3-1.1zm-42.9 31.7c3.8-.7 7.6.5 10.4 3.2 2.8 2.8 3.9 6.6 3.2 10.4-.3 1.6-.8 3-1.7 4.4l-.3.6-16.6-16.6.6-.3c1.3-.9 2.8-1.4 4.4-1.7zm-4.1 31.2 4.4-7c.4-.7.2-1.6-.5-2.1-.7-.4-1.6-.2-2.1.5l-3.9 6.5-9.3-9.3 6.4-4.1c.7-.4.9-1.4.5-2.1s-1.4-.9-2.1-.5l-7 4.4-5.2-5.2 15.1-9 17.7 17.7-9 15.1zm29.8 2.2 1.5-2.7c.1-.2.3-.2.4 0l1.5 2.7.1.1 2.7 1.5c.2.1.2.3 0 .4l-2.7 1.5-.1.1-1.5 2.7c-.1.2-.3.2-.4 0l-1.5-2.7-.1-.1-2.7-1.5c-.2-.1-.2-.3 0-.4l2.8-1.6zm3.4-23.4 1.5-2.7c.1-.2.3-.2.4 0l1.5 2.7.1.1 2.7 1.5c.2.1.2.3 0 .4l-2.7 1.5-.1.1-1.5 2.7c-.1.2-.3.2-.4 0l-1.5-2.7-.1-.1-2.7-1.5c-.2-.1-.2-.3 0-.4l2.8-1.6c-.1.1 0 0 0 0zm-40.4-35.6 1.5-2.7c.1-.2.3-.2.4 0l1.5 2.7.1.1 2.7 1.5c.2.1.2.3 0 .4l-2.7 1.5-.1.1-1.5 2.7c-.1.2-.3.2-.4 0l-1.5-2.7-.1-.1-2.7-1.5c-.2-.1-.2-.3 0-.4l2.8-1.6c-.1 0-.1 0 0 0zm51 51.9 1.1-2c.1-.1.3-.1.4 0l1.1 2s0 .1.1.1l2 1.1c.1.1.1.3 0 .4l-2 1.1s-.1 0-.1.1l-1.1 2c-.1.1-.3.1-.4 0l-1.1-2s0-.1-.1-.1l-2-1.1c-.1-.1-.1-.3 0-.4l2.1-1.2zm-60.7-36.3 1.1-2c.1-.1.3-.1.4 0l1.1 2s0 .1.1.1l2 1.1c.1.1.1.3 0 .4l-2 1.1s-.1 0-.1.1l-1.1 2c-.1.1-.3.1-.4 0l-1.1-2s0-.1-.1-.1l-2-1.1c-.1-.1-.1-.3 0-.4l2.1-1.2c-.1 0 0 0 0 0z"/>
  </g>
 </g>
</svg>
