<svg id="SVGRoot" width="206px" height="206px" version="1.1" viewBox="0 0 206 206" xmlns="http://www.w3.org/2000/svg">
 <g transform="matrix(3.7795 0 0 3.7795 -201.51 -254.81)">
  <rect x="54.438" y="68.329" width="52.258" height="52.258" fill="#fff" stroke="#000" stroke-linecap="round" stroke-width=".5" style="paint-order:fill markers stroke"/>
  <text x="80.365517" y="117.61485" font-family="sans-serif" font-size="6.35px" letter-spacing="0px" stroke-width=".26458" text-align="center" text-anchor="middle" word-spacing="0px" style="line-height:0.94999999" xml:space="preserve"><tspan x="80.365517" y="117.61485" font-family="sans-serif" font-size="4.9389px" stroke-width=".26458" text-align="center" text-anchor="middle">Commit</tspan></text>
  <g transform="matrix(.090284 0 0 .090284 57.455 65.055)">
   <circle cx="256" cy="256" r="154.22" clip-rule="evenodd" fill="none" stroke="#000" stroke-miterlimit="10" stroke-width="10"/>
   <path d="m326.46 240.71c2.056-1.826 2.056-4.814 0-6.641l-44.656-39.664c-2.056-1.826-3.738-1.07-3.738 1.68v15.959c0 2.75-2.25 4.999-5 4.998 0 0-7.739-.004-13.854.002-11.93.027-23.774.929-35.343 4.024-13.301 3.555-25.144 9.477-33.171 21.294-6.29 9.264-8.141 19.81-8.789 30.67-1.043 17.659 5.955 33.191 13.193 48.611.02.041.047.087.087.133.121.148.328.308.595.469.087.054.173.101.267.146.1.053.214.1.321.147.074.034.147.06.221.088.734.273 1.597.407 2.259.126l.207-.088c.191-.172.519-.652.728-1.068.209-.415.546-1.694.575-1.918v-.135c.174-7.979-.548-16.034.234-23.94.174-1.777.441-3.488.789-5.127l.107-.493c.128-.533.233-.972.233-.973 0-.002.056-.219.124-.482s.264-.948.264-.951c0-.004.363-1.158.806-2.564l.488-1.21c2.042-5.066 5.07-9.34 8.979-12.771 5.358-4.703 12.372-7.827 20.772-9.249 14.597-2.472 29.268-1.917 43.945-1.924h.28c.375.018.682 2.282.682 5.032v13.803c0 2.75 1.683 3.506 3.738 1.68z" clip-rule="evenodd" fill-rule="evenodd"/>
  </g>
 </g>
</svg>
