<?xml version="1.0" encoding="UTF-8" standalone="no"?>
<svg
   xmlns:dc="http://purl.org/dc/elements/1.1/"
   xmlns:cc="http://creativecommons.org/ns#"
   xmlns:rdf="http://www.w3.org/1999/02/22-rdf-syntax-ns#"
   xmlns:svg="http://www.w3.org/2000/svg"
   xmlns="http://www.w3.org/2000/svg"
   id="svg47"
   version="1.1"
   viewBox="0 0 52.758294 52.758296"
   height="199.40143"
   width="199.40143">
  <defs
     id="defs42">
    <pattern
       id="EMFhbasepattern"
       patternUnits="userSpaceOnUse"
       width="6"
       height="6"
       x="0"
       y="0" />
  </defs>
  <metadata
     id="metadata45">
    <rdf:RDF>
      <cc:Work
         rdf:about="">
        <dc:format>image/svg+xml</dc:format>
        <dc:type
           rdf:resource="http://purl.org/dc/dcmitype/StillImage" />
        <dc:title></dc:title>
      </cc:Work>
    </rdf:RDF>
  </metadata>
  <g
     id="g401">
    <path
       id="path358"
       d="M 0.47946721,0.20770221 H 52.739583 V 52.467819 H 0.47946721 Z"
       style="fill:#ffffff;fill-opacity:1;fill-rule:nonzero;stroke:#000000;stroke-width:0.50799626px;stroke-linecap:round;stroke-linejoin:miter;stroke-miterlimit:4;stroke-dasharray:none;stroke-opacity:1" />
    <path
       id="path360"
       d="m 17.539676,49.949004 c -0.317497,0 -0.634995,-0.0635 -0.91016,-0.169331 -0.275164,-0.127 -0.529162,-0.296333 -0.740828,-0.507997 -0.190498,-0.1905 -0.35983,-0.444498 -0.486829,-0.719662 -0.105833,-0.275164 -0.169332,-0.592661 -0.169332,-0.910161 0,-0.338664 0.0635,-0.634995 0.169332,-0.910159 0.126999,-0.296331 0.296331,-0.529161 0.486829,-0.740828 0.211666,-0.190497 0.465664,-0.359831 0.740828,-0.486831 0.275165,-0.10583 0.592663,-0.16933 0.91016,-0.16933 0.275165,0 0.55033,0.04233 0.783161,0.127 0.253998,0.08466 0.48683,0.23283 0.677328,0.402161 l -0.338664,0.444497 c -0.148165,-0.126997 -0.317497,-0.23283 -0.507996,-0.29633 -0.190499,-0.08467 -0.380997,-0.127 -0.613829,-0.127 -0.253998,0 -0.486829,0.04233 -0.698495,0.127 -0.190498,0.08467 -0.380997,0.211664 -0.529162,0.380997 -0.148166,0.148167 -0.275165,0.338664 -0.359831,0.550328 -0.08467,0.211667 -0.126999,0.444498 -0.126999,0.698495 0,0.254 0.04233,0.465664 0.126999,0.677331 0.08467,0.211664 0.211665,0.402161 0.359831,0.571494 0.148165,0.148167 0.338664,0.275164 0.529162,0.359831 0.211666,0.08467 0.444497,0.148167 0.698495,0.148167 0.232832,0 0.42333,-0.04233 0.613829,-0.127 0.190499,-0.08467 0.359831,-0.169334 0.507996,-0.296331 l 0.338664,0.423331 c -0.190498,0.190497 -0.42333,0.317497 -0.677328,0.402161 -0.232831,0.105833 -0.507996,0.148167 -0.783161,0.148167 z"
       style="fill:#000000;fill-opacity:1;fill-rule:nonzero;stroke:none;stroke-width:0.26458335" />
    <path
       id="path362"
       d="m 20.989817,49.419842 c 0.169332,0 0.317498,-0.02117 0.444497,-0.08467 0.126999,-0.04233 0.253998,-0.127 0.338664,-0.232834 0.105833,-0.10583 0.169332,-0.211664 0.232832,-0.35983 0.04233,-0.126998 0.0635,-0.275164 0.0635,-0.444495 0,-0.148167 -0.02117,-0.296333 -0.0635,-0.423331 -0.0635,-0.148166 -0.126999,-0.275164 -0.232832,-0.380997 -0.08467,-0.08467 -0.211665,-0.169333 -0.338664,-0.232831 -0.126999,-0.04233 -0.275165,-0.08467 -0.444497,-0.08467 -0.148165,0 -0.296331,0.04233 -0.444496,0.08467 -0.126999,0.0635 -0.232832,0.148164 -0.338664,0.232831 -0.08467,0.105833 -0.169333,0.232831 -0.211665,0.380997 -0.0635,0.126998 -0.08467,0.275164 -0.08467,0.423331 0,0.169331 0.02117,0.317497 0.08467,0.444495 0.04233,0.148166 0.126998,0.254 0.211665,0.35983 0.105832,0.105834 0.211665,0.1905 0.338664,0.232834 0.148165,0.0635 0.296331,0.08467 0.444496,0.08467 z m 0,0.529162 c -0.232831,0 -0.465663,-0.04233 -0.656161,-0.127 -0.211666,-0.08466 -0.380998,-0.211664 -0.529163,-0.359831 -0.148166,-0.148164 -0.253998,-0.317497 -0.338664,-0.507995 -0.08467,-0.211666 -0.126999,-0.42333 -0.126999,-0.656161 0,-0.232833 0.04233,-0.444497 0.126999,-0.634997 0.08467,-0.190498 0.190498,-0.380998 0.338664,-0.529162 0.148165,-0.148167 0.317497,-0.253997 0.529163,-0.338664 0.190498,-0.08467 0.42333,-0.127 0.656161,-0.127 0.232832,0 0.465664,0.04233 0.656162,0.127 0.211665,0.08467 0.380997,0.190497 0.529163,0.338664 0.148165,0.148164 0.253998,0.338664 0.338664,0.529162 0.08467,0.1905 0.126999,0.402164 0.126999,0.634997 0,0.232831 -0.04233,0.444495 -0.126999,0.656161 -0.08467,0.190498 -0.190499,0.359831 -0.338664,0.507995 -0.148166,0.148167 -0.317498,0.275167 -0.529163,0.359831 -0.190498,0.08467 -0.42333,0.127 -0.656162,0.127 z"
       style="fill:#000000;fill-opacity:1;fill-rule:nonzero;stroke:none;stroke-width:0.26458335" />
    <path
       id="path364"
       d="m 27.487937,47.98052 c 0,-0.232834 -0.0635,-0.423331 -0.1905,-0.571498 -0.126998,-0.148164 -0.317498,-0.232831 -0.529162,-0.232831 -0.211665,0 -0.380997,0.0635 -0.507997,0.169331 -0.126999,0.127 -0.232831,0.275167 -0.275164,0.486831 0,0.02117 0,0.04233 0,0.0635 v 0.0635 1.926151 h -0.55033 V 47.98052 c 0,-0.232834 -0.0635,-0.423331 -0.190498,-0.571498 -0.126999,-0.148164 -0.317498,-0.232831 -0.529163,-0.232831 -0.190498,0 -0.359831,0.0635 -0.48683,0.169331 -0.126999,0.08467 -0.232831,0.232834 -0.296331,0.423331 v 2.116651 h -0.550329 v -3.174977 h 0.550329 v 0.359831 c 0.126999,-0.148164 0.253998,-0.253997 0.42333,-0.317497 0.148166,-0.0635 0.317498,-0.08467 0.465664,-0.08467 0.211665,0 0.402163,0.04233 0.571495,0.127 0.169333,0.105833 0.296332,0.232831 0.402164,0.380997 0.0635,-0.08467 0.148166,-0.169333 0.232832,-0.253997 0.105832,-0.0635 0.190498,-0.105833 0.275164,-0.148167 0.105833,-0.04233 0.190499,-0.0635 0.275165,-0.08467 0.105833,-0.02117 0.190499,-0.02117 0.275163,-0.02117 0.169334,0 0.338667,0.02117 0.486831,0.08467 0.148167,0.0635 0.275164,0.148166 0.380998,0.253997 0.08467,0.127 0.169333,0.254 0.23283,0.423331 0.04233,0.148167 0.08467,0.338664 0.08467,0.529164 v 1.926151 H 27.48794 Z"
       style="fill:#000000;fill-opacity:1;fill-rule:nonzero;stroke:none;stroke-width:0.26458335" />
    <path
       id="path366"
       d="m 33.054728,47.98052 c 0,-0.232834 -0.0635,-0.423331 -0.190497,-0.571498 -0.127,-0.148164 -0.317498,-0.232831 -0.529165,-0.232831 -0.211664,0 -0.380997,0.0635 -0.507994,0.169331 -0.127,0.127 -0.211667,0.275167 -0.275167,0.486831 0,0.02117 0,0.04233 0,0.0635 v 0.0635 1.926151 H 31.001577 V 47.98052 c 0,-0.232834 -0.0635,-0.423331 -0.1905,-0.571498 -0.126997,-0.148164 -0.296331,-0.232831 -0.529161,-0.232831 -0.1905,0 -0.359831,0.0635 -0.486831,0.169331 -0.126997,0.08467 -0.232831,0.232834 -0.296331,0.423331 v 2.116651 h -0.550328 v -3.174977 h 0.550328 v 0.359831 c 0.127,-0.148164 0.253998,-0.253997 0.423331,-0.317497 0.148164,-0.0635 0.317497,-0.08467 0.465664,-0.08467 0.211664,0 0.402161,0.04233 0.571495,0.127 0.16933,0.105833 0.29633,0.232831 0.402164,0.380997 0.0635,-0.08467 0.148164,-0.169333 0.23283,-0.253997 0.105834,-0.0635 0.1905,-0.105833 0.275164,-0.148167 0.105834,-0.04233 0.1905,-0.0635 0.296334,-0.08467 0.08466,-0.02117 0.16933,-0.02117 0.253997,-0.02117 0.169331,0 0.338664,0.02117 0.486831,0.08467 0.148164,0.0635 0.275164,0.148166 0.380995,0.253997 0.08467,0.127 0.169333,0.254 0.232833,0.423331 0.04233,0.148167 0.08467,0.338664 0.08467,0.529164 v 1.926151 h -0.550331 z"
       style="fill:#000000;fill-opacity:1;fill-rule:nonzero;stroke:none;stroke-width:0.26458335" />
    <path
       id="path368"
       d="m 34.515217,46.033199 c -0.0635,-0.08467 -0.105833,-0.169333 -0.105833,-0.29633 0,-0.105834 0.04233,-0.211667 0.105833,-0.275164 0.08467,-0.08467 0.169334,-0.127 0.275164,-0.127 0.127,0 0.211667,0.04233 0.296331,0.127 0.0635,0.0635 0.105833,0.16933 0.105833,0.275164 0,0.126997 -0.04233,0.211664 -0.127,0.29633 z m 0,0.677328 h 0.550328 v 3.174977 h -0.550328 z"
       style="fill:#000000;fill-opacity:1;fill-rule:nonzero;stroke:none;stroke-width:0.26458335" />
    <path
       id="path370"
       d="m 35.615876,46.710527 h 0.613828 v -0.677328 l 0.550331,-0.275164 v 0.952492 h 0.952492 l -0.105833,0.507998 h -0.846659 v 1.672153 c 0,0.148167 0.04233,0.275164 0.10583,0.380998 0.0635,0.08467 0.1905,0.127 0.359831,0.127 h 0.423331 v 0.486828 h -0.465664 c -0.317498,0 -0.550328,-0.0635 -0.719662,-0.232831 -0.16933,-0.148167 -0.253997,-0.380997 -0.253997,-0.677328 v -1.75682 h -0.507995 z"
       style="fill:#000000;fill-opacity:1;fill-rule:nonzero;stroke:none;stroke-width:0.26458335" />
    <path
       id="path372"
       d="m 40.526506,20.040725 c 0,7.683443 -6.222953,13.927564 -13.927563,13.927564 -7.683444,0 -13.927564,-6.244121 -13.927564,-13.927564 0,-7.683445 6.24412,-13.9275663 13.927564,-13.9275663 7.70461,0 13.927563,6.2441213 13.927563,13.9275663 z"
       style="fill:none;stroke:#000000;stroke-width:0.91015995px;stroke-linecap:butt;stroke-linejoin:miter;stroke-miterlimit:10;stroke-dasharray:none;stroke-opacity:1" />
    <path
       id="path374"
       d="m 32.970061,18.664902 c 0.1905,-0.169332 0.1905,-0.444497 0,-0.592662 L 28.92726,14.473933 c -0.169334,-0.148166 -0.338664,-0.08467 -0.338664,0.169332 v 1.439323 c 0,0.232831 -0.1905,0.444496 -0.444498,0.444496 0,0 -0.698495,0 -1.248825,0 -1.079491,0 -2.137817,0.08467 -3.196142,0.359831 -1.206491,0.317498 -2.264817,0.867827 -2.984478,1.926152 -0.571496,0.825494 -0.740828,1.777987 -0.804328,2.772813 -0.08467,1.587489 0.550329,2.984478 1.185325,4.381468 0.02117,0 0.02117,0 0.02117,0.02117 0,0 0.02117,0.02117 0.04233,0.04233 0.02117,0 0.02117,0 0.04233,0 0,0.02117 0,0.02117 0.02117,0.02117 0,0 0.02117,0 0.02117,0 0.0635,0.02117 0.148165,0.04233 0.190498,0.02117 l 0.02117,-0.02117 c 0.02117,0 0.0635,-0.04233 0.0635,-0.08467 0.02117,-0.04233 0.0635,-0.148166 0.0635,-0.169332 v -0.02117 c 0.02117,-0.719661 -0.04233,-1.439323 0.02117,-2.158984 0.02117,-0.169332 0.04233,-0.317498 0.0635,-0.465663 l 0.02117,-0.04233 c 0,-0.04233 0.02117,-0.08467 0.02117,-0.08467 0,0 0,-0.02117 0,-0.04233 0.02117,-0.02117 0.02117,-0.08467 0.02117,-0.08467 0,0 0.04233,-0.105833 0.08467,-0.232832 l 0.04233,-0.105832 c 0.190499,-0.465664 0.465663,-0.846661 0.804328,-1.164158 0.486829,-0.42333 1.121825,-0.698495 1.883819,-0.825494 1.312324,-0.232832 2.645815,-0.169332 3.958138,-0.169332 h 0.02117 c 0.04233,0 0.0635,0.190498 0.0635,0.444496 v 1.248824 c 0,0.253999 0.16933,0.317498 0.338664,0.148166 z"
       style="fill:#000000;fill-opacity:1;fill-rule:evenodd;stroke:none;stroke-width:0.26458335" />
  </g>
</svg>
