<svg id="SVGRoot" width="208" height="208" version="1.1" viewBox="0 0 208 208" xmlns="http://www.w3.org/2000/svg">
 <g transform="translate(0,7)">
  <g transform="matrix(3.7795 0 0 3.7795 10.171 -6.7758)">
   <g transform="translate(-1.0884 -121.69)">
    <g transform="translate(1.6608 -59.209)">
     <g transform="translate(-.6443 -59.335)">
      <g transform="translate(-1396.8 269.89)">
       <g transform="translate(-57.972 -.024822)">
        <g transform="translate(1658.1 73.867)">
         <g transform="translate(-203.03 -103.33)">
          <flowRoot transform="matrix(.26458 0 0 .26458 -2.875 1.091)" fill="#000000" font-family="sans-serif" font-size="40px" letter-spacing="0px" word-spacing="0px" style="line-height:1.25" xml:space="preserve"><flowRegion><rect x="-85.582" y="-60.812" width="342.33" height="293.65"/></flowRegion><flowPara/></flowRoot>
          <g transform="translate(-1039.4 318.88)">
           <flowRoot transform="matrix(.26458 0 0 .26458 1036.5 -317.79)" fill="#000000" font-family="sans-serif" font-size="40px" letter-spacing="0px" word-spacing="0px" style="line-height:1.25" xml:space="preserve"><flowRegion><rect x="-105.21" y="-13.703" width="562.17" height="513.49"/></flowRegion><flowPara/></flowRoot>
           <g transform="translate(-66.134 .039287)">
            <g transform="translate(-66.173 .043409)">
             <flowRoot transform="matrix(.26458 0 0 .26458 1168.8 -317.87)" fill="#000000" font-family="sans-serif" font-size="40px" letter-spacing="0px" word-spacing="0px" style="line-height:1.25" xml:space="preserve"><flowRegion><rect x="-114.63" y="-91.434" width="675.23" height="522.91"/></flowRegion><flowPara/></flowRoot>
             <g transform="translate(-66.2 -.040316)">
              <g transform="translate(-65.918 -.60254)">
               <g transform="translate(-66.6 .14883)">
                <flowRoot fill="black" font-family="sans-serif" font-size="40px" letter-spacing="0px" word-spacing="0px" style="line-height:1.25" xml:space="preserve"><flowRegion><rect x="-24.34" y="-19.695" width="252.04" height="245.75"/></flowRegion><flowPara/></flowRoot>
                <g transform="translate(-68.678 -.48293)">
                 <flowRoot fill="black" font-family="sans-serif" font-size="40px" letter-spacing="0px" word-spacing="0px" style="line-height:1.25" xml:space="preserve"><flowRegion><rect x="-65.168" y="-26.762" width="382.37" height="335.26"/></flowRegion><flowPara/></flowRoot>
                 <g transform="translate(-63.347 .4912)">
                  <g transform="translate(529.82 -.18087)">
                   <g transform="translate(794.67 .06923)">
                    <g transform="translate(-198.36 .17569)">
                     <g transform="translate(-530.68 .043413)">
                      <g transform="translate(912.04 -.041317)">
                       <g transform="translate(132.58 -.39794)">
                        <g transform="translate(-580.62 .35866)">
                         <g transform="translate(-264.6 -.1571)">
                          <g transform="translate(463.55 .097138)">
                           <g transform="translate(-397.36 .059959)">
                            <g transform="translate(66.026 -.30592)">
                             <g transform="translate(-264.69 -.093008)">
                              <g transform="translate(734.89 179.33)">
                               <g transform="translate(-205.07 -178.97)">
                                <g transform="translate(-1081.1 -686.85)">
                                 <flowRoot fill="black" font-family="sans-serif" font-size="40px" letter-spacing="0px" word-spacing="0px" style="line-height:1.25" xml:space="preserve"><flowRegion><rect x="21" y="-71" width="223" height="308"/></flowRegion><flowPara/></flowRoot>
                                 <g transform="translate(-112.28 .55746)">
                                  <flowRoot transform="matrix(.26458 0 0 .26458 1500.7 367.6)" fill="#000000" font-family="sans-serif" font-size="40px" letter-spacing="0px" word-spacing="0px" style="line-height:1.25" xml:space="preserve"><flowRegion><rect x="-6.364" y="-2.0107" width="231.22" height="230.87"/></flowRegion><flowPara/></flowRoot>
                                  <g transform="translate(1386.8 133.57)">
                                   <g transform="translate(-1180.5 267.04)">
                                    <g transform="translate(753.05 -.28062)">
                                     <g transform="translate(747.14 .093556)">
                                      <g transform="translate(-805.88 1.4967)">
                                       <g transform="translate(-866.69 -1.7773)">
                                        <rect x="1467.8" y="-31.75" width="52.951" height="52.917" fill="#db3b3b" stroke="#000" stroke-linecap="round" stroke-width=".50016" style="paint-order:fill markers stroke"/>
                                        <text transform="scale(1.0003 .99968)" x="1493.7278" y="17.26997" fill="#ffffff" font-family="sans-serif" font-size="6.352px" letter-spacing="0px" stroke-width=".26467" word-spacing="0px" style="line-height:1.25" xml:space="preserve"><tspan x="1493.7278" y="17.26997" fill="#ffffff" font-family="sans-serif" class="svgT" letter-spacing=".5px" font-size="5.2px" stroke-width=".26467" text-align="center" text-anchor="middle">Dane producenta</tspan></text>
                                        <g transform="matrix(.31461 0 0 .31461 1777.1 -327.3)" fill="#fff">
                                         <g fill="#fff">
                                          <path d="m-854.2 975.5c-2.2-1.9-5-4.2-7.3-5.6-10.1-6-23.5-9.2-37.5-9.2-14.1 0-27.4 3.3-37.5 9.2-2.3 1.3-5.1 3.7-7.3 5.6s-3.1 4.8-2.5 7.6l2.6 11.9c.7 3 3.8 4.8 6.7 3.9l17.1-5.4c2.4-.8 3.9-3.1 3.6-5.7l-1.2-9.4c6.2-1.8 11.3-2.8 18.4-2.8 7.6 0 12.7 1.1 18.7 2.9l-1.2 9.3c-.3 2.5 1.2 4.9 3.6 5.7l17 5.4c3 1 6.1-.9 6.8-4l2.4-12c.7-2.7-.3-5.5-2.4-7.4z"/>
                                          <path d="m-907.4 1013.1c0-1.7-1.4-3-3-3-1.7 0-3 1.3-3 3s1.3 3 3 3c1.7.1 3-1.3 3-3z"/>
                                          <path d="m-909.2 1019c-1.2 1.2-1.2 3.1 0 4.3s3.1 1.2 4.3 0 1.2-3.1 0-4.3c-1.2-1.1-3.1-1.1-4.3 0z"/>
                                          <path d="m-909.2 1003c-1.2 1.2-1.2 3.1 0 4.3s3.1 1.2 4.3 0 1.2-3.1 0-4.3-3.1-1.2-4.3 0z"/>
                                          <path d="m-899 1021.5c-1.7 0-3 1.3-3 3s1.3 3 3 3 3-1.4 3-3c0-1.7-1.3-3-3-3z"/>
                                          <path d="m-899 998.7c-1.7 0-3 1.3-3 3s1.3 3 3 3 3-1.4 3-3-1.3-3-3-3z"/>
                                          <path d="m-893.1 1019c-1.2 1.2-1.2 3.1 0 4.3s3.1 1.2 4.3 0 1.2-3.1 0-4.3c-1.2-1.1-3.1-1.1-4.3 0z"/>
                                          <path d="m-888.8 1007.2c1.2-1.2 1.2-3.1 0-4.3s-3.1-1.2-4.3 0-1.2 3.1 0 4.3 3.1 1.2 4.3 0z"/>
                                          <path d="m-890.6 1013.1c0 1.7 1.3 3 3 3s3-1.4 3-3c0-1.7-1.4-3-3-3-1.7 0-3 1.4-3 3z"/>
                                          <path d="m-862.6 1002.3-16.4-5.2c-4.1-1.3-6.7-5.4-6.2-9.6l.8-6.2c-4.5-1.2-8.7-1.9-14.6-1.9-5.7 0-9.9.7-14.4 1.8l.8 6.3c.5 4.3-2.1 8.3-6.2 9.7l-16.7 5.3-6.2 19.8c-2.4 7.7 3.3 15.5 11.4 15.5h1.2v2.4c0 .6.5 1.2 1.2 1.2h7c.6 0 1.2-.5 1.2-1.2v-2.4h41.6v2.4c0 .6.5 1.2 1.2 1.2h7c.6 0 1.2-.5 1.2-1.2v-2.4h1.2c8.1 0 13.8-7.8 11.4-15.5zm-36.4 28.2c-9.6 0-17.3-7.8-17.3-17.3 0-9.6 7.8-17.3 17.3-17.3 9.6 0 17.3 7.8 17.3 17.3s-7.7 17.3-17.3 17.3z"/>
                                         </g>
                                        </g>
                                       </g>
                                      </g>
                                     </g>
                                    </g>
                                   </g>
                                  </g>
                                 </g>
                                </g>
                               </g>
                              </g>
                             </g>
                            </g>
                           </g>
                          </g>
                         </g>
                        </g>
                       </g>
                      </g>
                     </g>
                    </g>
                   </g>
                  </g>
                 </g>
                </g>
               </g>
              </g>
             </g>
            </g>
           </g>
          </g>
         </g>
        </g>
       </g>
      </g>
     </g>
    </g>
   </g>
  </g>
 </g>
</svg>
