<?xml version="1.0" encoding="UTF-8" standalone="no"?>
<svg
   xmlns:osb="http://www.openswatchbook.org/uri/2009/osb"
   xmlns:dc="http://purl.org/dc/elements/1.1/"
   xmlns:cc="http://creativecommons.org/ns#"
   xmlns:rdf="http://www.w3.org/1999/02/22-rdf-syntax-ns#"
   xmlns:svg="http://www.w3.org/2000/svg"
   xmlns="http://www.w3.org/2000/svg"
   id="svg47"
   version="1.1"
   viewBox="0 0 52.758294 52.758296"
   height="199.40143"
   width="199.40143">
  <defs
     id="defs42">
    <pattern
       id="EMFhbasepattern"
       patternUnits="userSpaceOnUse"
       width="6"
       height="6"
       x="0"
       y="0" />
    <marker
       style="overflow:visible"
       id="Arrow1Mend-5-0"
       refX="0"
       refY="0"
       orient="auto">
      <path
         transform="matrix(-0.4,0,0,-0.4,-4,0)"
         style="fill:#000000;fill-opacity:1;fill-rule:evenodd;stroke:#000000;stroke-width:1.00000003pt;stroke-opacity:1"
         d="M 0,0 5,-5 -12.5,0 5,5 Z"
         id="path1146-3-3" />
    </marker>
    <marker
       style="overflow:visible"
       id="Arrow1Mend-5-3"
       refX="0"
       refY="0"
       orient="auto">
      <path
         transform="matrix(-0.4,0,0,-0.4,-4,0)"
         style="fill:#000000;fill-opacity:1;fill-rule:evenodd;stroke:#000000;stroke-width:1.00000003pt;stroke-opacity:1"
         d="M 0,0 5,-5 -12.5,0 5,5 Z"
         id="path1146-3-9" />
    </marker>
    <marker
       orient="auto"
       refY="0"
       refX="0"
       id="Arrow1Mend-5-0-4"
       style="overflow:visible">
      <path
         id="path1146-3-3-8"
         d="M 0,0 5,-5 -12.5,0 5,5 Z"
         style="fill:#ffffff;fill-opacity:1;fill-rule:evenodd;stroke:#ffffff;stroke-width:1.00000003pt;stroke-opacity:1"
         transform="matrix(-0.4,0,0,-0.4,-4,0)" />
    </marker>
    <marker
       orient="auto"
       refY="0"
       refX="0"
       id="Arrow1Mend-5-3-8"
       style="overflow:visible">
      <path
         id="path1146-3-9-5"
         d="M 0,0 5,-5 -12.5,0 5,5 Z"
         style="fill:#ffffff;fill-opacity:1;fill-rule:evenodd;stroke:#ffffff;stroke-width:1.00000003pt;stroke-opacity:1"
         transform="matrix(-0.4,0,0,-0.4,-4,0)" />
    </marker>
    <marker
       style="overflow:visible"
       id="Arrow1Mend"
       refX="0"
       refY="0"
       orient="auto">
      <path
         transform="matrix(-0.4,0,0,-0.4,-4,0)"
         style="fill:#000000;fill-opacity:1;fill-rule:evenodd;stroke:#000000;stroke-width:1.00000003pt;stroke-opacity:1"
         d="M 0,0 5,-5 -12.5,0 5,5 Z"
         id="path1146" />
    </marker>
    <marker
       orient="auto"
       refY="0"
       refX="0"
       id="Arrow1Mend-5"
       style="overflow:visible">
      <path
         id="path1146-3"
         d="M 0,0 5,-5 -12.5,0 5,5 Z"
         style="fill:#ffffff;fill-opacity:1;fill-rule:evenodd;stroke:#ffffff;stroke-width:1.00000003pt;stroke-opacity:1"
         transform="matrix(-0.4,0,0,-0.4,-4,0)" />
    </marker>
    <marker
       style="overflow:visible"
       id="Arrow1Mstart"
       refX="0"
       refY="0"
       orient="auto">
      <path
         transform="matrix(0.4,0,0,0.4,4,0)"
         style="fill:#000000;fill-opacity:1;fill-rule:evenodd;stroke:#000000;stroke-width:1.00000003pt;stroke-opacity:1"
         d="M 0,0 5,-5 -12.5,0 5,5 Z"
         id="path1143" />
    </marker>
    <marker
       orient="auto"
       refY="0"
       refX="0"
       id="Arrow1Mstart-1"
       style="overflow:visible">
      <path
         id="path1143-7"
         d="M 0,0 5,-5 -12.5,0 5,5 Z"
         style="fill:#ffffff;fill-opacity:1;fill-rule:evenodd;stroke:#ffffff;stroke-width:1.00000003pt;stroke-opacity:1"
         transform="matrix(0.4,0,0,0.4,4,0)" />
    </marker>
    <marker
       style="overflow:visible"
       id="Arrow1Lend"
       refX="0"
       refY="0"
       orient="auto">
      <path
         transform="matrix(-0.8,0,0,-0.8,-10,0)"
         style="fill:#000000;fill-opacity:1;fill-rule:evenodd;stroke:#000000;stroke-width:1.00000003pt;stroke-opacity:1"
         d="M 0,0 5,-5 -12.5,0 5,5 Z"
         id="path1140" />
    </marker>
    <marker
       style="overflow:visible"
       id="Arrow1Lstart"
       refX="0"
       refY="0"
       orient="auto">
      <path
         transform="matrix(0.8,0,0,0.8,10,0)"
         style="fill:#000000;fill-opacity:1;fill-rule:evenodd;stroke:#000000;stroke-width:1.00000003pt;stroke-opacity:1"
         d="M 0,0 5,-5 -12.5,0 5,5 Z"
         id="path1137" />
    </marker>
    <marker
       orient="auto"
       refY="0"
       refX="0"
       id="Arrow1Lend-5"
       style="overflow:visible">
      <path
         id="path1140-4"
         d="M 0,0 5,-5 -12.5,0 5,5 Z"
         style="fill:#ffffff;fill-opacity:1;fill-rule:evenodd;stroke:#ffffff;stroke-width:1.00000003pt;stroke-opacity:1"
         transform="matrix(-0.8,0,0,-0.8,-10,0)" />
    </marker>
    <marker
       orient="auto"
       refY="0"
       refX="0"
       id="Arrow1Lstart-93"
       style="overflow:visible">
      <path
         id="path1137-7"
         d="M 0,0 5,-5 -12.5,0 5,5 Z"
         style="fill:#ffffff;fill-opacity:1;fill-rule:evenodd;stroke:#ffffff;stroke-width:1.00000003pt;stroke-opacity:1"
         transform="matrix(0.8,0,0,0.8,10,0)" />
    </marker>
    <linearGradient
       id="linearGradient4460"
       osb:paint="solid">
      <stop
         style="stop-color:#db3b3b;stop-opacity:1;"
         offset="0"
         id="stop4458" />
    </linearGradient>
  </defs>
  <metadata
     id="metadata45">
    <rdf:RDF>
      <cc:Work
         rdf:about="">
        <dc:format>image/svg+xml</dc:format>
        <dc:type
           rdf:resource="http://purl.org/dc/dcmitype/StillImage" />
        <dc:title></dc:title>
      </cc:Work>
    </rdf:RDF>
  </metadata>
  <g
     id="g8556"
     transform="translate(49.836509,-375.23204)">
    <g
       id="g5305">
      <g
         id="g5378"
         transform="translate(-1517.5167,407.08826)">
        <rect
           y="-31.749987"
           x="1467.7954"
           height="52.916668"
           width="52.950603"
           id="rect833-4-4-4-3-7-6-0-7-8-8"
           style="fill:#db3b3b;fill-opacity:1;stroke:#000000;stroke-width:0.50015801;stroke-linecap:round;stroke-miterlimit:4;stroke-dasharray:none;stroke-opacity:1;paint-order:fill markers stroke" />
        <text
           id="text983-1-5-6-98-2-6-5-2-3-0"
           y="19.152004"
           x="1493.7278"
           style="font-size:6.35203981px;line-height:1.25;font-family:voestalpine;-inkscape-font-specification:voestalpine;letter-spacing:0px;word-spacing:0px;fill:#ffffff;fill-opacity:1;stroke-width:0.26466799"
           xml:space="preserve"
           transform="scale(1.0003206,0.9996795)"><tspan
             style="font-size:6.35203981px;text-align:center;text-anchor:middle;fill:#ffffff;fill-opacity:1;stroke-width:0.26466799"
             y="19.152004"
             x="1493.7278"
             id="tspan2495-3-9-6">Dane producenta</tspan></text>
        <g
           style="fill:#ffffff;fill-opacity:1"
           id="g2916"
           transform="matrix(0.31461197,0,0,0.31461197,1777.1163,-327.29649)">
          <g
             id="g2868"
             style="fill:#ffffff;fill-opacity:1">
            <path
               id="path2848"
               d="m -854.2,975.5 c -2.2,-1.9 -5,-4.2 -7.3,-5.6 -10.1,-6 -23.5,-9.2 -37.5,-9.2 -14.1,0 -27.4,3.3 -37.5,9.2 -2.3,1.3 -5.1,3.7 -7.3,5.6 -2.2,1.9 -3.1,4.8 -2.5,7.6 l 2.6,11.9 c 0.7,3 3.8,4.8 6.7,3.9 l 17.1,-5.4 c 2.4,-0.8 3.9,-3.1 3.6,-5.7 l -1.2,-9.4 c 6.2,-1.8 11.3,-2.8 18.4,-2.8 7.6,0 12.7,1.1 18.7,2.9 l -1.2,9.3 c -0.3,2.5 1.2,4.9 3.6,5.7 l 17,5.4 c 3,1 6.1,-0.9 6.8,-4 l 2.4,-12 c 0.7,-2.7 -0.3,-5.5 -2.4,-7.4 z"
               style="fill:#ffffff;fill-opacity:1" />
            <path
               id="path2850"
               d="m -907.4,1013.1 c 0,-1.7 -1.4,-3 -3,-3 -1.7,0 -3,1.3 -3,3 0,1.7 1.3,3 3,3 1.7,0.1 3,-1.3 3,-3 z"
               style="fill:#ffffff;fill-opacity:1" />
            <path
               id="path2852"
               d="m -909.2,1019 c -1.2,1.2 -1.2,3.1 0,4.3 1.2,1.2 3.1,1.2 4.3,0 1.2,-1.2 1.2,-3.1 0,-4.3 -1.2,-1.1 -3.1,-1.1 -4.3,0 z"
               style="fill:#ffffff;fill-opacity:1" />
            <path
               id="path2854"
               d="m -909.2,1003 c -1.2,1.2 -1.2,3.1 0,4.3 1.2,1.2 3.1,1.2 4.3,0 1.2,-1.2 1.2,-3.1 0,-4.3 -1.2,-1.2 -3.1,-1.2 -4.3,0 z"
               style="fill:#ffffff;fill-opacity:1" />
            <path
               id="path2856"
               d="m -899,1021.5 c -1.7,0 -3,1.3 -3,3 0,1.7 1.3,3 3,3 1.7,0 3,-1.4 3,-3 0,-1.7 -1.3,-3 -3,-3 z"
               style="fill:#ffffff;fill-opacity:1" />
            <path
               id="path2858"
               d="m -899,998.7 c -1.7,0 -3,1.3 -3,3 0,1.7 1.3,3 3,3 1.7,0 3,-1.4 3,-3 0,-1.6 -1.3,-3 -3,-3 z"
               style="fill:#ffffff;fill-opacity:1" />
            <path
               id="path2860"
               d="m -893.1,1019 c -1.2,1.2 -1.2,3.1 0,4.3 1.2,1.2 3.1,1.2 4.3,0 1.2,-1.2 1.2,-3.1 0,-4.3 -1.2,-1.1 -3.1,-1.1 -4.3,0 z"
               style="fill:#ffffff;fill-opacity:1" />
            <path
               id="path2862"
               d="m -888.8,1007.2 c 1.2,-1.2 1.2,-3.1 0,-4.3 -1.2,-1.2 -3.1,-1.2 -4.3,0 -1.2,1.2 -1.2,3.1 0,4.3 1.2,1.2 3.1,1.2 4.3,0 z"
               style="fill:#ffffff;fill-opacity:1" />
            <path
               id="path2864"
               d="m -890.6,1013.1 c 0,1.7 1.3,3 3,3 1.7,0 3,-1.4 3,-3 0,-1.7 -1.4,-3 -3,-3 -1.7,0 -3,1.4 -3,3 z"
               style="fill:#ffffff;fill-opacity:1" />
            <path
               id="path2866"
               d="m -862.6,1002.3 -16.4,-5.2 c -4.1,-1.3 -6.7,-5.4 -6.2,-9.6 l 0.8,-6.2 c -4.5,-1.2 -8.7,-1.9 -14.6,-1.9 -5.7,0 -9.9,0.7 -14.4,1.8 l 0.8,6.3 c 0.5,4.3 -2.1,8.3 -6.2,9.7 l -16.7,5.3 -6.2,19.8 c -2.4,7.7 3.3,15.5 11.4,15.5 h 1.2 v 2.4 c 0,0.6 0.5,1.2 1.2,1.2 h 7 c 0.6,0 1.2,-0.5 1.2,-1.2 v -2.4 h 41.6 v 2.4 c 0,0.6 0.5,1.2 1.2,1.2 h 7 c 0.6,0 1.2,-0.5 1.2,-1.2 v -2.4 h 1.2 c 8.1,0 13.8,-7.8 11.4,-15.5 z m -36.4,28.2 c -9.6,0 -17.3,-7.8 -17.3,-17.3 0,-9.6 7.8,-17.3 17.3,-17.3 9.6,0 17.3,7.8 17.3,17.3 0,9.5 -7.7,17.3 -17.3,17.3 z"
               style="fill:#ffffff;fill-opacity:1" />
          </g>
        </g>
      </g>
    </g>
  </g>
</svg>
