<?xml version="1.0" encoding="UTF-8" standalone="no"?>
<svg
   xmlns:dc="http://purl.org/dc/elements/1.1/"
   xmlns:cc="http://creativecommons.org/ns#"
   xmlns:rdf="http://www.w3.org/1999/02/22-rdf-syntax-ns#"
   xmlns:svg="http://www.w3.org/2000/svg"
   xmlns="http://www.w3.org/2000/svg"
   id="svg47"
   version="1.1"
   viewBox="0 0 52.758294 52.758296"
   height="199.40143"
   width="199.40143">
  <defs
     id="defs42">
    <pattern
       id="EMFhbasepattern"
       patternUnits="userSpaceOnUse"
       width="6"
       height="6"
       x="0"
       y="0" />
  </defs>
  <metadata
     id="metadata45">
    <rdf:RDF>
      <cc:Work
         rdf:about="">
        <dc:format>image/svg+xml</dc:format>
        <dc:type
           rdf:resource="http://purl.org/dc/dcmitype/StillImage" />
        <dc:title></dc:title>
      </cc:Work>
    </rdf:RDF>
  </metadata>
  <g
     id="g7574"
     transform="translate(-58.407834,-235.05835)">
    <rect
       style="fill:#ffffff;stroke:#000000;stroke-width:0.49999899;stroke-linecap:round;stroke-miterlimit:4;stroke-dasharray:none;stroke-opacity:1;paint-order:fill markers stroke"
       id="rect833-1-5-3-0-1-7"
       width="52.258293"
       x="58.907116"
       y="235.24811"
       height="52.258293" />
    <text
       xml:space="preserve"
       style="font-size:6.3499999px;line-height:0.94999999;font-family:voestalpine;-inkscape-font-specification:voestalpine;text-align:center;letter-spacing:0px;word-spacing:0px;text-anchor:middle;stroke-width:0.26458299"
       x="84.784195"
       y="279.37292"
       id="text898-7-3-6-3-6-3"><tspan
         id="tspan1736-6"
         x="84.784195"
         y="279.37292"
         style="font-size:6.3499999px;text-align:center;text-anchor:middle;stroke-width:0.26458299">Dodaj numer</tspan><tspan
         x="84.784195"
         y="285.40543"
         style="font-size:6.3499999px;text-align:center;text-anchor:middle;stroke-width:0.26458299"
         id="tspan2154">rewizji SVN</tspan></text>
    <text
       id="text1732-8"
       y="286.57382"
       x="85.036263"
       style="font-size:5.64444017px;line-height:1.25;font-family:voestalpine;-inkscape-font-specification:voestalpine;letter-spacing:0px;word-spacing:0px;stroke-width:0.26458299"
       xml:space="preserve"><tspan
         style="stroke-width:0.26458299"
         y="286.57382"
         x="85.036263"
         id="tspan1730-6"> </tspan></text>
    <g
       style="fill:#000000"
       id="g2150"
       transform="matrix(0.20670573,0,0,0.20670573,71.807096,241.04007)">
      <circle
         id="circle2055"
         r="2"
         cy="8"
         cx="112" />
      <circle
         id="circle2057"
         r="2"
         cy="8"
         cx="104" />
      <path
         id="path2059"
         d="m 96,106 c -1.102516,0 -2,0.7524 -2,1.6777 v 4.6446 c 0,0.9253 0.897484,1.6777 2,1.6777 1.102486,0 2,-0.7524 2,-1.6777 v -4.6446 C 98,106.7524 97.102486,106 96,106 Z" />
      <path
         id="path2061"
         d="m 32,66 c -1.102512,0 -2,0.752403 -2,1.677696 v 4.644608 C 30,73.247597 30.897488,74 32,74 c 1.102489,0 2,-0.752403 2,-1.677696 V 67.677696 C 34,66.752403 33.102489,66 32,66 Z" />
      <path
         id="path2063"
         d="m 80,26 c -1.102516,0 -2,0.752399 -2,1.6777 v 4.6446 C 78,33.247601 78.897484,34 80,34 c 1.102486,0 2,-0.752399 2,-1.6777 V 27.6777 C 82,26.752399 81.102486,26 80,26 Z" />
      <path
         id="path2065"
         d="m 64,66 c -1.102512,0 -2,0.752403 -2,1.677696 v 4.644608 C 62,73.247597 62.897488,74 64,74 c 1.102486,0 2,-0.752403 2,-1.677696 V 67.677696 C 66,66.752403 65.102486,66 64,66 Z" />
      <path
         id="path2067"
         d="m 48,86 c -1.102512,0 -2,0.752403 -2,1.677696 v 4.644608 C 46,93.247597 46.897488,94 48,94 c 1.102486,0 2,-0.752403 2,-1.677696 V 87.677696 C 50,86.752403 49.102486,86 48,86 Z" />
      <path
         id="path2069"
         d="m 64,106 c -1.102512,0 -2,0.7524 -2,1.6777 v 4.6446 c 0,0.9253 0.897488,1.6777 2,1.6777 1.102486,0 2,-0.7524 2,-1.6777 v -4.6446 C 66,106.7524 65.102486,106 64,106 Z" />
      <path
         id="path2071"
         d="m 80,66 c -1.102516,0 -2,0.752403 -2,1.677696 v 4.644608 C 78,73.247597 78.897484,74 80,74 c 1.102486,0 2,-0.752403 2,-1.677696 V 67.677696 C 82,66.752403 81.102486,66 80,66 Z" />
      <path
         id="path2073"
         d="m 80,86 c -1.102516,0 -2,0.752403 -2,1.677696 v 4.644608 C 78,93.247597 78.897484,94 80,94 c 1.102486,0 2,-0.752403 2,-1.677696 V 87.677696 C 82,86.752403 81.102486,86 80,86 Z" />
      <path
         id="path2075"
         d="m 80,46 c -1.102516,0 -2,0.752399 -2,1.6777 v 4.6446 C 78,53.247601 78.897484,54 80,54 c 1.102486,0 2,-0.752399 2,-1.6777 V 47.6777 C 82,46.752399 81.102486,46 80,46 Z" />
      <path
         id="path2077"
         d="m 64,26 c -1.102512,0 -2,0.752399 -2,1.6777 v 4.6446 C 62,33.247601 62.897488,34 64,34 c 1.102486,0 2,-0.752399 2,-1.6777 V 27.6777 C 66,26.752399 65.102486,26 64,26 Z" />
      <path
         id="path2079"
         d="m 16,26 c -1.102511,0 -2,0.752399 -2,1.6777 v 4.6446 C 14,33.247601 14.897489,34 16,34 c 1.102488,0 2,-0.752399 2,-1.6777 V 27.6777 C 18,26.752399 17.102488,26 16,26 Z" />
      <path
         id="path2081"
         d="m 96,66 c -1.102516,0 -2,0.752403 -2,1.677696 v 4.644608 C 94,73.247597 94.897484,74 96,74 c 1.102486,0 2,-0.752403 2,-1.677696 V 67.677696 C 98,66.752403 97.102486,66 96,66 Z" />
      <path
         id="path2083"
         d="m 80,106 c -1.102516,0 -2,0.7524 -2,1.6777 v 4.6446 c 0,0.9253 0.897484,1.6777 2,1.6777 1.102486,0 2,-0.7524 2,-1.6777 v -4.6446 C 82,106.7524 81.102486,106 80,106 Z" />
      <path
         id="path2085"
         d="m 16,66 c -1.102511,0 -2,0.752403 -2,1.677696 v 4.644608 C 14,73.247597 14.897489,74 16,74 c 1.102488,0 2,-0.752403 2,-1.677696 V 67.677696 C 18,66.752403 17.102488,66 16,66 Z" />
      <path
         id="path2087"
         d="m 48,46 c -1.102512,0 -2,0.752399 -2,1.6777 v 4.6446 C 46,53.247601 46.897488,54 48,54 c 1.102486,0 2,-0.752399 2,-1.6777 V 47.6777 C 50,46.752399 49.102486,46 48,46 Z" />
      <path
         id="path2089"
         d="m 16,106 c -1.102511,0 -2,0.7524 -2,1.6777 v 4.6446 c 0,0.9253 0.897489,1.6777 2,1.6777 1.102488,0 2,-0.7524 2,-1.6777 v -4.6446 C 18,106.7524 17.102488,106 16,106 Z" />
      <path
         id="path2091"
         d="m 32,46 c -1.102512,0 -2,0.752399 -2,1.6777 v 4.6446 C 30,53.247601 30.897488,54 32,54 c 1.102489,0 2,-0.752399 2,-1.6777 V 47.6777 C 34,46.752399 33.102489,46 32,46 Z" />
      <path
         id="path2093"
         d="m 112,66 c -1.10252,0 -2,0.752403 -2,1.677696 v 4.644608 C 110,73.247597 110.89748,74 112,74 c 1.10249,0 2,-0.752403 2,-1.677696 V 67.677696 C 114,66.752403 113.10249,66 112,66 Z" />
      <path
         id="path2095"
         d="M 120,0 H 8 C 3.5995886,0 0,3.6001 0,8 v 112 c 0,4.3999 3.5995886,8 8,8 h 112 c 4.40038,0 8,-3.6001 8,-8 V 8 c 0,-4.3999 -3.59962,-8 -8,-8 z M 22,112.3223 C 22,115.4531 19.308588,118 16,118 c -3.308612,0 -6,-2.5469 -6,-5.6777 v -4.6446 C 10,104.5469 12.691388,102 16,102 c 3.308588,0 6,2.5469 6,5.6777 z M 14,96 V 84 c 0,-1.1045 0.895489,-2 2,-2 1.104488,0 2,0.8955 2,2 v 12 c 0,1.1045 -0.895512,2 -2,2 -1.104511,0 -2,-0.8955 -2,-2 z M 22,72.322304 C 22,75.453102 19.308588,78 16,78 12.691388,78 10,75.453102 10,72.322304 V 67.677696 C 10,64.546898 12.691388,62 16,62 c 3.308588,0 6,2.546898 6,5.677696 z M 14,56 V 44 c 0,-1.1045 0.895489,-2 2,-2 1.104488,0 2,0.8955 2,2 v 12 c 0,1.1045 -0.895512,2 -2,2 -1.104511,0 -2,-0.8955 -2,-2 z M 22,32.3223 C 22,35.453098 19.308588,38 16,38 12.691388,38 10,35.453098 10,32.3223 V 27.6777 C 10,24.5469 12.691388,22 16,22 c 3.308588,0 6,2.5469 6,5.6777 z m 16,80 C 38,115.4531 35.308586,118 32,118 c -3.308613,0 -6,-2.5469 -6,-5.6777 v -4.6446 C 26,104.5469 28.691387,102 32,102 c 3.308586,0 6,2.5469 6,5.6777 z M 30,96 V 84 c 0,-1.1045 0.895489,-2 2,-2 1.104488,0 2,0.8955 2,2 v 12 c 0,1.1045 -0.895512,2 -2,2 -1.104511,0 -2,-0.8955 -2,-2 z M 38,72.322304 C 38,75.453102 35.308586,78 32,78 28.691387,78 26,75.453102 26,72.322304 V 67.677696 C 26,64.546898 28.691387,62 32,62 c 3.308586,0 6,2.546898 6,5.677696 z M 38,52.3223 C 38,55.453098 35.308586,58 32,58 28.691387,58 26,55.453098 26,52.3223 V 47.6777 C 26,44.546902 28.691387,42 32,42 c 3.308586,0 6,2.546902 6,5.6777 z m 0,-20 C 38,35.453098 35.308586,38 32,38 28.691387,38 26,35.453098 26,32.3223 V 27.6777 C 26,24.5469 28.691387,22 32,22 c 3.308586,0 6,2.5469 6,5.6777 z M 50,116 c 0,1.1045 -0.895512,2 -2,2 -1.104511,0 -2,-0.8955 -2,-2 v -12 c 0,-1.1045 0.895489,-2 2,-2 1.104488,0 2,0.8955 2,2 z M 54,92.322304 C 54,95.453102 51.308586,98 48,98 44.691387,98 42,95.453102 42,92.322304 V 87.677696 C 42,84.546898 44.691387,82 48,82 c 3.308586,0 6,2.546898 6,5.677696 z m 0,-20 C 54,75.453102 51.308586,78 48,78 44.691387,78 42,75.453102 42,72.322304 V 67.677696 C 42,64.546898 44.691387,62 48,62 c 3.308586,0 6,2.546898 6,5.677696 z M 54,52.3223 C 54,55.453098 51.308586,58 48,58 44.691387,58 42,55.453098 42,52.3223 V 47.6777 C 42,44.546902 44.691387,42 48,42 c 3.308586,0 6,2.546902 6,5.6777 z m 0,-20 C 54,35.453098 51.308586,38 48,38 44.691387,38 42,35.453098 42,32.3223 V 27.6777 C 42,24.5469 44.691387,22 48,22 c 3.308586,0 6,2.5469 6,5.6777 z m 16,80 C 70,115.4531 67.308586,118 64,118 c -3.308613,0 -6,-2.5469 -6,-5.6777 v -4.6446 C 58,104.5469 60.691387,102 64,102 c 3.308586,0 6,2.5469 6,5.6777 z M 62,96 V 84 c 0,-1.1045 0.895489,-2 2,-2 1.104485,0 2,0.8955 2,2 v 12 c 0,1.1045 -0.895515,2 -2,2 -1.104511,0 -2,-0.8955 -2,-2 z M 70,72.322304 C 70,75.453102 67.308586,78 64,78 60.691387,78 58,75.453102 58,72.322304 V 67.677696 C 58,64.546898 60.691387,62 64,62 c 3.308586,0 6,2.546898 6,5.677696 z M 62,56 V 44 c 0,-1.1045 0.895489,-2 2,-2 1.104485,0 2,0.8955 2,2 v 12 c 0,1.1045 -0.895515,2 -2,2 -1.104511,0 -2,-0.8955 -2,-2 z M 70,32.3223 C 70,35.453098 67.308586,38 64,38 60.691387,38 58,35.453098 58,32.3223 V 27.6777 C 58,24.5469 60.691387,22 64,22 c 3.308586,0 6,2.5469 6,5.6777 z m 16,80 C 86,115.4531 83.308586,118 80,118 c -3.308617,0 -6,-2.5469 -6,-5.6777 v -4.6446 C 74,104.5469 76.691383,102 80,102 c 3.308586,0 6,2.5469 6,5.6777 z M 86,92.322304 C 86,95.453102 83.308586,98 80,98 76.691383,98 74,95.453102 74,92.322304 V 87.677696 C 74,84.546898 76.691383,82 80,82 c 3.308586,0 6,2.546898 6,5.677696 z m 0,-20 C 86,75.453102 83.308586,78 80,78 76.691383,78 74,75.453102 74,72.322304 V 67.677696 C 74,64.546898 76.691383,62 80,62 c 3.308586,0 6,2.546898 6,5.677696 z M 86,52.3223 C 86,55.453098 83.308586,58 80,58 76.691383,58 74,55.453098 74,52.3223 V 47.6777 C 74,44.546902 76.691383,42 80,42 c 3.308586,0 6,2.546902 6,5.6777 z m 0,-20 C 86,35.453098 83.308586,38 80,38 76.691383,38 74,35.453098 74,32.3223 V 27.6777 C 74,24.5469 76.691383,22 80,22 c 3.308586,0 6,2.5469 6,5.6777 z m 16,80 c 0,3.1308 -2.691414,5.6777 -6,5.6777 -3.308617,0 -6,-2.5469 -6,-5.6777 v -4.6446 C 90,104.5469 92.691383,102 96,102 c 3.308586,0 6,2.5469 6,5.6777 z M 94,96 V 84 c 0,-1.1045 0.895485,-2 2,-2 1.104485,0 2,0.8955 2,2 v 12 c 0,1.1045 -0.895515,2 -2,2 -1.104515,0 -2,-0.8955 -2,-2 z m 8,-23.677696 C 102,75.453102 99.308586,78 96,78 92.691383,78 90,75.453102 90,72.322304 V 67.677696 C 90,64.546898 92.691383,62 96,62 c 3.308586,0 6,2.546898 6,5.677696 z M 102,52.3223 C 102,55.453098 99.308586,58 96,58 92.691383,58 90,55.453098 90,52.3223 V 47.6777 C 90,44.546902 92.691383,42 96,42 c 3.308586,0 6,2.546902 6,5.6777 z m 0,-20 C 102,35.453098 99.308586,38 96,38 92.691383,38 90,35.453098 90,32.3223 V 27.6777 C 90,24.5469 92.691383,22 96,22 c 3.308586,0 6,2.5469 6,5.6777 z m 16,80 c 0,3.1308 -2.69141,5.6777 -6,5.6777 -3.30862,0 -6,-2.5469 -6,-5.6777 v -4.6446 c 0,-3.1308 2.69138,-5.6777 6,-5.6777 3.30859,0 6,2.5469 6,5.6777 z M 110,96 V 84 c 0,-1.1045 0.89548,-2 2,-2 1.10448,0 2,0.8955 2,2 v 12 c 0,1.1045 -0.89552,2 -2,2 -1.10452,0 -2,-0.8955 -2,-2 z m 8,-23.677696 C 118,75.453102 115.30859,78 112,78 c -3.30862,0 -6,-2.546898 -6,-5.677696 V 67.677696 C 106,64.546898 108.69138,62 112,62 c 3.30859,0 6,2.546898 6,5.677696 z M 110,56 V 44 c 0,-1.1045 0.89548,-2 2,-2 1.10448,0 2,0.8955 2,2 v 12 c 0,1.1045 -0.89552,2 -2,2 -1.10452,0 -2,-0.8955 -2,-2 z m 8,-23.6777 C 118,35.453098 115.30859,38 112,38 c -3.30862,0 -6,-2.546902 -6,-5.6777 V 27.6777 C 106,24.5469 108.69138,22 112,22 c 3.30859,0 6,2.5469 6,5.6777 z M 124,12 H 4 V 8 C 4,5.7944298 5.7938886,4 8,4 h 112 c 2.20609,0 4,1.7944298 4,4 z" />
      <path
         id="path2097"
         d="m 112,26 c -1.10252,0 -2,0.752399 -2,1.6777 v 4.6446 c 0,0.925301 0.89748,1.6777 2,1.6777 1.10249,0 2,-0.752399 2,-1.6777 V 27.6777 C 114,26.752399 113.10249,26 112,26 Z" />
      <path
         id="path2099"
         d="m 48,66 c -1.102512,0 -2,0.752403 -2,1.677696 v 4.644608 C 46,73.247597 46.897488,74 48,74 c 1.102486,0 2,-0.752403 2,-1.677696 V 67.677696 C 50,66.752403 49.102486,66 48,66 Z" />
      <path
         id="path2101"
         d="m 32,26 c -1.102512,0 -2,0.752399 -2,1.6777 v 4.6446 C 30,33.247601 30.897488,34 32,34 c 1.102489,0 2,-0.752399 2,-1.6777 V 27.6777 C 34,26.752399 33.102489,26 32,26 Z" />
      <path
         id="path2103"
         d="m 96,26 c -1.102516,0 -2,0.752399 -2,1.6777 v 4.6446 C 94,33.247601 94.897484,34 96,34 c 1.102486,0 2,-0.752399 2,-1.6777 V 27.6777 C 98,26.752399 97.102486,26 96,26 Z" />
      <path
         id="path2105"
         d="m 96,46 c -1.102516,0 -2,0.752399 -2,1.6777 v 4.6446 C 94,53.247601 94.897484,54 96,54 c 1.102486,0 2,-0.752399 2,-1.6777 V 47.6777 C 98,46.752399 97.102486,46 96,46 Z" />
      <path
         id="path2107"
         d="m 32,106 c -1.102512,0 -2,0.7524 -2,1.6777 v 4.6446 c 0,0.9253 0.897488,1.6777 2,1.6777 1.102489,0 2,-0.7524 2,-1.6777 v -4.6446 C 34,106.7524 33.102489,106 32,106 Z" />
      <path
         id="path2109"
         d="m 48,26 c -1.102512,0 -2,0.752399 -2,1.6777 v 4.6446 C 46,33.247601 46.897488,34 48,34 c 1.102486,0 2,-0.752399 2,-1.6777 V 27.6777 C 50,26.752399 49.102486,26 48,26 Z" />
      <path
         id="path2111"
         d="m 112,106 c -1.10252,0 -2,0.7524 -2,1.6777 v 4.6446 c 0,0.9253 0.89748,1.6777 2,1.6777 1.10249,0 2,-0.7524 2,-1.6777 v -4.6446 C 114,106.7524 113.10249,106 112,106 Z" />
    </g>
  </g>
</svg>
