<svg id="SVGRoot" width="206px" height="206px" version="1.1" viewBox="0 0 206 206" xmlns="http://www.w3.org/2000/svg">
 <g transform="matrix(3.7795 0 0 3.7795 -5465.1 -1392.5)">
  <g transform="translate(1157.8 134.19)">
   <rect x="289.32" y="235.25" width="52.258" height="52.258" fill="#fff" stroke="#000" stroke-linecap="round" stroke-width=".5" style="paint-order:fill markers stroke"/>
   <text x="315.57571" y="277.79947" font-family="sans-serif" font-size="4.9389px" letter-spacing="0px" stroke-width=".26458" text-align="center" text-anchor="middle" word-spacing="0px" style="line-height:0.94999999" xml:space="preserve"><tspan x="315.57571" y="277.79947" text-align="center">Dodaj pustą</tspan><tspan x="315.57571" y="283.49683" text-align="center">stronę nieparzystą</tspan></text>
   <text x="315.4473" y="286.57382" font-family="sans-serif" font-size="5.6444px" letter-spacing="0px" stroke-width=".26458" word-spacing="0px" style="line-height:1.25" xml:space="preserve"><tspan x="315.4473" y="286.57382" font-family="sans-serif" stroke-width=".26458"> </tspan></text>
   <g transform="translate(.24763)">
    <g transform="matrix(.43421 0 0 .43421 287.41 226.05)">
     <path d="m99.188 36.018c-11.571-2.206-23.612-2.214-35.188-.032-11.575-2.182-23.618-2.175-35.188.031-.471.09-.812.503-.812.983v52c0 .298.133.58.363.771s.531.268.825.212c11.385-2.172 23.24-2.172 34.625 0 .062.011.125.017.187.017.039 0 .076-.016.114-.02.024-.003.049.007.073.002 11.385-2.172 23.24-2.172 34.625 0 .063.012.126.018.188.018.23 0 .457-.08.638-.229.229-.191.362-.473.362-.771v-52c0-.48-.341-.893-.812-.982zm-69.188 51.781v-49.968c10.867-1.971 22.133-1.971 33 0v49.968c-5.437-.965-10.981-1.453-16.5-1.453s-11.063.488-16.5 1.453zm68 0c-5.438-.965-10.981-1.453-16.5-1.453s-11.062.488-16.5 1.453v-49.968c10.867-1.971 22.133-1.971 33 0z"/>
     <path d="m99.188 92.018c-11.674-2.227-23.512-2.235-35.188-.032-11.676-2.203-23.514-2.195-35.188.031-.542.104-.898.627-.795 1.17.104.543.624.895 1.17.795 11.487-2.191 23.138-2.191 34.625 0 .064.012.127.018.189.018.037 0 .07-.015.107-.019.027-.003.052.006.08.001 11.488-2.191 23.137-2.191 34.625 0 .063.012.125.018.188.018.471 0 .89-.333.981-.813.104-.542-.253-1.066-.794-1.169z"/>
     <path d="m93.001 45c-.063 0-.125-.006-.188-.018-7.506-1.432-15.119-1.432-22.625 0-.548.103-1.066-.253-1.17-.795s.253-1.066.795-1.17c7.756-1.479 15.619-1.479 23.375 0 .542.104.898.627.795 1.17-.092.48-.511.813-.982.813z"/>
     <path d="m93.001 50c-.063 0-.125-.006-.188-.018-7.506-1.432-15.119-1.432-22.625 0-.548.104-1.066-.253-1.17-.795s.253-1.066.795-1.17c7.756-1.479 15.619-1.479 23.375 0 .542.104.898.627.795 1.17-.092.48-.511.813-.982.813z"/>
     <path d="m93.001 55c-.063 0-.125-.006-.188-.018-7.506-1.432-15.119-1.432-22.625 0-.548.101-1.066-.253-1.17-.795s.253-1.066.795-1.17c7.756-1.479 15.619-1.479 23.375 0 .542.104.898.627.795 1.17-.092.48-.511.813-.982.813z"/>
     <path d="m93.001 60c-.063 0-.125-.006-.188-.018-7.506-1.432-15.119-1.432-22.625 0-.548.103-1.066-.253-1.17-.795s.253-1.066.795-1.17c7.756-1.479 15.619-1.479 23.375 0 .542.104.898.627.795 1.17-.092.48-.511.813-.982.813z"/>
     <path d="m93.001 65c-.063 0-.125-.006-.188-.018-7.506-1.432-15.119-1.432-22.625 0-.548.104-1.066-.253-1.17-.795s.253-1.066.795-1.17c7.756-1.479 15.619-1.479 23.375 0 .542.104.898.627.795 1.17-.092.48-.511.813-.982.813z"/>
     <path d="m93.001 70c-.063 0-.125-.006-.188-.018-7.506-1.432-15.119-1.432-22.625 0-.548.104-1.066-.253-1.17-.795-.104-.543.253-1.066.795-1.17 7.756-1.479 15.619-1.479 23.375 0 .542.104.898.627.795 1.17-.092.48-.511.813-.982.813z"/>
     <path d="m93.001 75c-.063 0-.125-.006-.188-.018-7.506-1.432-15.119-1.432-22.625 0-.548.102-1.066-.253-1.17-.795-.104-.543.253-1.066.795-1.17 7.756-1.479 15.619-1.479 23.375 0 .542.104.898.627.795 1.17-.092.48-.511.813-.982.813z"/>
     <path d="m93.001 80c-.063 0-.125-.006-.188-.018-7.506-1.432-15.119-1.432-22.625 0-.548.104-1.066-.252-1.17-.795s.253-1.066.795-1.17c7.756-1.479 15.619-1.479 23.375 0 .542.104.898.627.795 1.17-.092.48-.511.813-.982.813z"/>
     <path d="m58.001 45c-.062 0-.125-.006-.188-.018-7.506-1.432-15.119-1.432-22.625 0-.543.102-1.067-.252-1.17-.795-.104-.542.252-1.066.795-1.17 7.756-1.479 15.619-1.479 23.375 0 .542.104.898.627.795 1.17-.092.48-.511.813-.982.813z"/>
     <path d="m58.001 50c-.062 0-.125-.006-.188-.018-7.506-1.432-15.119-1.432-22.625 0-.543.102-1.067-.252-1.17-.795-.104-.542.252-1.066.795-1.17 7.756-1.479 15.619-1.479 23.375 0 .542.104.898.627.795 1.17-.092.48-.511.813-.982.813z"/>
     <path d="m58.001 55c-.062 0-.125-.006-.188-.018-7.506-1.432-15.119-1.432-22.625 0-.543.102-1.067-.252-1.17-.795-.104-.542.252-1.066.795-1.17 7.756-1.479 15.619-1.479 23.375 0 .542.104.898.627.795 1.17-.092.48-.511.813-.982.813z"/>
     <path d="m58.001 60c-.062 0-.125-.006-.188-.018-7.506-1.432-15.119-1.432-22.625 0-.543.102-1.067-.252-1.17-.795-.104-.542.252-1.066.795-1.17 7.756-1.479 15.619-1.479 23.375 0 .542.104.898.627.795 1.17-.092.48-.511.813-.982.813z"/>
     <path d="m58.001 65c-.062 0-.125-.006-.188-.018-7.506-1.432-15.119-1.432-22.625 0-.543.102-1.067-.252-1.17-.795-.104-.542.252-1.066.795-1.17 7.756-1.479 15.619-1.479 23.375 0 .542.104.898.627.795 1.17-.092.48-.511.813-.982.813z"/>
     <path d="m58.001 70c-.062 0-.125-.006-.188-.018-7.506-1.432-15.119-1.432-22.625 0-.543.102-1.067-.252-1.17-.795-.104-.543.252-1.066.795-1.17 7.756-1.479 15.619-1.479 23.375 0 .542.104.898.627.795 1.17-.092.48-.511.813-.982.813z"/>
     <path d="m58.001 75c-.062 0-.125-.006-.188-.018-7.506-1.432-15.119-1.432-22.625 0-.543.102-1.067-.252-1.17-.795-.104-.543.252-1.066.795-1.17 7.756-1.479 15.619-1.479 23.375 0 .542.104.898.627.795 1.17-.092.48-.511.813-.982.813z"/>
     <path d="m58.001 80c-.062 0-.125-.006-.188-.018-7.506-1.432-15.119-1.432-22.625 0-.543.102-1.067-.252-1.17-.795-.104-.543.252-1.066.795-1.17 7.756-1.479 15.619-1.479 23.375 0 .542.104.898.627.795 1.17-.092.48-.511.813-.982.813z"/>
    </g>
    <rect x="316.85" y="243.94" width="12.303" height="17.64" fill="#fffffe" style="paint-order:fill markers stroke"/>
   </g>
  </g>
 </g>
</svg>
