<svg id="SVGRoot" width="206px" height="206px" version="1.1" viewBox="0 0 206 206" xmlns="http://www.w3.org/2000/svg">
 <g transform="matrix(3.7795 0 0 3.7795 -5465.1 -1392.5)">
  <g transform="translate(1388.4 134.4)">
   <rect x="58.907" y="235.25" width="52.258" height="52.258" fill="#fff" stroke="#000" stroke-linecap="round" stroke-width=".5" style="paint-order:fill markers stroke"/>
   <text x="84.784195" y="277.23694" font-family="sans-serif" font-size="4.9389px" letter-spacing="0px" stroke-width=".26458" text-align="center" text-anchor="middle" word-spacing="0px" style="line-height:0.94999999" xml:space="preserve"><tspan x="84.784195" y="277.23694" text-align="center">Dodaj numer</tspan><tspan x="84.784195" y="283.26944" text-align="center">rewizji SVN</tspan></text>
   <text x="85.036263" y="286.57382" font-family="sans-serif" font-size="5.6444px" letter-spacing="0px" stroke-width=".26458" word-spacing="0px" style="line-height:1.25" xml:space="preserve"><tspan x="85.036263" y="286.57382" font-family="sans-serif" stroke-width=".26458"> </tspan></text>
   <g transform="matrix(.20671 0 0 .20671 71.807 241.04)">
    <circle cx="112" cy="8" r="2"/>
    <circle cx="104" cy="8" r="2"/>
    <path d="m96 106c-1.1025 0-2 .7524-2 1.6777v4.6446c0 .9253.89748 1.6777 2 1.6777 1.1025 0 2-.7524 2-1.6777v-4.6446c0-.9253-.89751-1.6777-2-1.6777z"/>
    <path d="m32 66c-1.1025 0-2 .7524-2 1.6777v4.6446c0 .92529.89749 1.6777 2 1.6777 1.1025 0 2-.7524 2-1.6777v-4.6446c0-.92529-.89751-1.6777-2-1.6777z"/>
    <path d="m80 26c-1.1025 0-2 .7524-2 1.6777v4.6446c0 .9253.89748 1.6777 2 1.6777 1.1025 0 2-.7524 2-1.6777v-4.6446c0-.9253-.89751-1.6777-2-1.6777z"/>
    <path d="m64 66c-1.1025 0-2 .7524-2 1.6777v4.6446c0 .92529.89749 1.6777 2 1.6777 1.1025 0 2-.7524 2-1.6777v-4.6446c0-.92529-.89751-1.6777-2-1.6777z"/>
    <path d="m48 86c-1.1025 0-2 .7524-2 1.6777v4.6446c0 .92529.89749 1.6777 2 1.6777 1.1025 0 2-.7524 2-1.6777v-4.6446c0-.92529-.89751-1.6777-2-1.6777z"/>
    <path d="m64 106c-1.1025 0-2 .7524-2 1.6777v4.6446c0 .9253.89749 1.6777 2 1.6777 1.1025 0 2-.7524 2-1.6777v-4.6446c0-.9253-.89751-1.6777-2-1.6777z"/>
    <path d="m80 66c-1.1025 0-2 .7524-2 1.6777v4.6446c0 .92529.89748 1.6777 2 1.6777 1.1025 0 2-.7524 2-1.6777v-4.6446c0-.92529-.89751-1.6777-2-1.6777z"/>
    <path d="m80 86c-1.1025 0-2 .7524-2 1.6777v4.6446c0 .92529.89748 1.6777 2 1.6777 1.1025 0 2-.7524 2-1.6777v-4.6446c0-.92529-.89751-1.6777-2-1.6777z"/>
    <path d="m80 46c-1.1025 0-2 .7524-2 1.6777v4.6446c0 .9253.89748 1.6777 2 1.6777 1.1025 0 2-.7524 2-1.6777v-4.6446c0-.9253-.89751-1.6777-2-1.6777z"/>
    <path d="m64 26c-1.1025 0-2 .7524-2 1.6777v4.6446c0 .9253.89749 1.6777 2 1.6777 1.1025 0 2-.7524 2-1.6777v-4.6446c0-.9253-.89751-1.6777-2-1.6777z"/>
    <path d="m16 26c-1.1025 0-2 .7524-2 1.6777v4.6446c0 .9253.89749 1.6777 2 1.6777 1.1025 0 2-.7524 2-1.6777v-4.6446c0-.9253-.89751-1.6777-2-1.6777z"/>
    <path d="m96 66c-1.1025 0-2 .7524-2 1.6777v4.6446c0 .92529.89748 1.6777 2 1.6777 1.1025 0 2-.7524 2-1.6777v-4.6446c0-.92529-.89751-1.6777-2-1.6777z"/>
    <path d="m80 106c-1.1025 0-2 .7524-2 1.6777v4.6446c0 .9253.89748 1.6777 2 1.6777 1.1025 0 2-.7524 2-1.6777v-4.6446c0-.9253-.89751-1.6777-2-1.6777z"/>
    <path d="m16 66c-1.1025 0-2 .7524-2 1.6777v4.6446c0 .92529.89749 1.6777 2 1.6777 1.1025 0 2-.7524 2-1.6777v-4.6446c0-.92529-.89751-1.6777-2-1.6777z"/>
    <path d="m48 46c-1.1025 0-2 .7524-2 1.6777v4.6446c0 .9253.89749 1.6777 2 1.6777 1.1025 0 2-.7524 2-1.6777v-4.6446c0-.9253-.89751-1.6777-2-1.6777z"/>
    <path d="m16 106c-1.1025 0-2 .7524-2 1.6777v4.6446c0 .9253.89749 1.6777 2 1.6777 1.1025 0 2-.7524 2-1.6777v-4.6446c0-.9253-.89751-1.6777-2-1.6777z"/>
    <path d="m32 46c-1.1025 0-2 .7524-2 1.6777v4.6446c0 .9253.89749 1.6777 2 1.6777 1.1025 0 2-.7524 2-1.6777v-4.6446c0-.9253-.89751-1.6777-2-1.6777z"/>
    <path d="m112 66c-1.1025 0-2 .7524-2 1.6777v4.6446c0 .92529.89748 1.6777 2 1.6777 1.1025 0 2-.7524 2-1.6777v-4.6446c0-.92529-.89751-1.6777-2-1.6777z"/>
    <path d="m120 0h-112c-4.4004 0-8 3.6001-8 8v112c0 4.3999 3.5996 8 8 8h112c4.4004 0 8-3.6001 8-8v-112c0-4.3999-3.5996-8-8-8zm-98 112.32c0 3.1308-2.6914 5.6777-6 5.6777-3.3086 0-6-2.5469-6-5.6777v-4.6446c0-3.1308 2.6914-5.6777 6-5.6777 3.3086 0 6 2.5469 6 5.6777zm-8-16.322v-12c0-1.1045.89549-2 2-2 1.1045 0 2 .8955 2 2v12c0 1.1045-.89551 2-2 2-1.1045 0-2-.8955-2-2zm8-23.678c0 3.1308-2.6914 5.6777-6 5.6777-3.3086 0-6-2.5469-6-5.6777v-4.6446c0-3.1308 2.6914-5.6777 6-5.6777 3.3086 0 6 2.5469 6 5.6777zm-8-16.322v-12c0-1.1045.89549-2 2-2 1.1045 0 2 .8955 2 2v12c0 1.1045-.89551 2-2 2-1.1045 0-2-.8955-2-2zm8-23.678c0 3.1308-2.6914 5.6777-6 5.6777-3.3086 0-6-2.5469-6-5.6777v-4.6446c0-3.1308 2.6914-5.6777 6-5.6777 3.3086 0 6 2.5469 6 5.6777zm16 80c0 3.1308-2.6914 5.6777-6 5.6777-3.3086 0-6-2.5469-6-5.6777v-4.6446c0-3.1308 2.6914-5.6777 6-5.6777 3.3086 0 6 2.5469 6 5.6777zm-8-16.322v-12c0-1.1045.89549-2 2-2 1.1045 0 2 .8955 2 2v12c0 1.1045-.89551 2-2 2-1.1045 0-2-.8955-2-2zm8-23.678c0 3.1308-2.6914 5.6777-6 5.6777-3.3086 0-6-2.5469-6-5.6777v-4.6446c0-3.1308 2.6914-5.6777 6-5.6777 3.3086 0 6 2.5469 6 5.6777zm0-20c0 3.1308-2.6914 5.6777-6 5.6777-3.3086 0-6-2.5469-6-5.6777v-4.6446c0-3.1308 2.6914-5.6777 6-5.6777 3.3086 0 6 2.5469 6 5.6777zm0-20c0 3.1308-2.6914 5.6777-6 5.6777-3.3086 0-6-2.5469-6-5.6777v-4.6446c0-3.1308 2.6914-5.6777 6-5.6777 3.3086 0 6 2.5469 6 5.6777zm12 83.678c0 1.1045-.89551 2-2 2-1.1045 0-2-.8955-2-2v-12c0-1.1045.89549-2 2-2 1.1045 0 2 .8955 2 2zm4-23.678c0 3.1308-2.6914 5.6777-6 5.6777-3.3086 0-6-2.5469-6-5.6777v-4.6446c0-3.1308 2.6914-5.6777 6-5.6777 3.3086 0 6 2.5469 6 5.6777zm0-20c0 3.1308-2.6914 5.6777-6 5.6777-3.3086 0-6-2.5469-6-5.6777v-4.6446c0-3.1308 2.6914-5.6777 6-5.6777 3.3086 0 6 2.5469 6 5.6777zm0-20c0 3.1308-2.6914 5.6777-6 5.6777-3.3086 0-6-2.5469-6-5.6777v-4.6446c0-3.1308 2.6914-5.6777 6-5.6777 3.3086 0 6 2.5469 6 5.6777zm0-20c0 3.1308-2.6914 5.6777-6 5.6777-3.3086 0-6-2.5469-6-5.6777v-4.6446c0-3.1308 2.6914-5.6777 6-5.6777 3.3086 0 6 2.5469 6 5.6777zm16 80c0 3.1308-2.6914 5.6777-6 5.6777-3.3086 0-6-2.5469-6-5.6777v-4.6446c0-3.1308 2.6914-5.6777 6-5.6777 3.3086 0 6 2.5469 6 5.6777zm-8-16.322v-12c0-1.1045.89549-2 2-2 1.1045 0 2 .8955 2 2v12c0 1.1045-.89552 2-2 2-1.1045 0-2-.8955-2-2zm8-23.678c0 3.1308-2.6914 5.6777-6 5.6777-3.3086 0-6-2.5469-6-5.6777v-4.6446c0-3.1308 2.6914-5.6777 6-5.6777 3.3086 0 6 2.5469 6 5.6777zm-8-16.322v-12c0-1.1045.89549-2 2-2 1.1045 0 2 .8955 2 2v12c0 1.1045-.89552 2-2 2-1.1045 0-2-.8955-2-2zm8-23.678c0 3.1308-2.6914 5.6777-6 5.6777-3.3086 0-6-2.5469-6-5.6777v-4.6446c0-3.1308 2.6914-5.6777 6-5.6777 3.3086 0 6 2.5469 6 5.6777zm16 80c0 3.1308-2.6914 5.6777-6 5.6777-3.3086 0-6-2.5469-6-5.6777v-4.6446c0-3.1308 2.6914-5.6777 6-5.6777 3.3086 0 6 2.5469 6 5.6777zm0-20c0 3.1308-2.6914 5.6777-6 5.6777-3.3086 0-6-2.5469-6-5.6777v-4.6446c0-3.1308 2.6914-5.6777 6-5.6777 3.3086 0 6 2.5469 6 5.6777zm0-20c0 3.1308-2.6914 5.6777-6 5.6777-3.3086 0-6-2.5469-6-5.6777v-4.6446c0-3.1308 2.6914-5.6777 6-5.6777 3.3086 0 6 2.5469 6 5.6777zm0-20c0 3.1308-2.6914 5.6777-6 5.6777-3.3086 0-6-2.5469-6-5.6777v-4.6446c0-3.1308 2.6914-5.6777 6-5.6777 3.3086 0 6 2.5469 6 5.6777zm0-20c0 3.1308-2.6914 5.6777-6 5.6777-3.3086 0-6-2.5469-6-5.6777v-4.6446c0-3.1308 2.6914-5.6777 6-5.6777 3.3086 0 6 2.5469 6 5.6777zm16 80c0 3.1308-2.6914 5.6777-6 5.6777-3.3086 0-6-2.5469-6-5.6777v-4.6446c0-3.1308 2.6914-5.6777 6-5.6777 3.3086 0 6 2.5469 6 5.6777zm-8-16.322v-12c0-1.1045.89548-2 2-2 1.1045 0 2 .8955 2 2v12c0 1.1045-.89552 2-2 2-1.1045 0-2-.8955-2-2zm8-23.678c0 3.1308-2.6914 5.6777-6 5.6777-3.3086 0-6-2.5469-6-5.6777v-4.6446c0-3.1308 2.6914-5.6777 6-5.6777 3.3086 0 6 2.5469 6 5.6777zm0-20c0 3.1308-2.6914 5.6777-6 5.6777-3.3086 0-6-2.5469-6-5.6777v-4.6446c0-3.1308 2.6914-5.6777 6-5.6777 3.3086 0 6 2.5469 6 5.6777zm0-20c0 3.1308-2.6914 5.6777-6 5.6777-3.3086 0-6-2.5469-6-5.6777v-4.6446c0-3.1308 2.6914-5.6777 6-5.6777 3.3086 0 6 2.5469 6 5.6777zm16 80c0 3.1308-2.6914 5.6777-6 5.6777-3.3086 0-6-2.5469-6-5.6777v-4.6446c0-3.1308 2.6914-5.6777 6-5.6777 3.3086 0 6 2.5469 6 5.6777zm-8-16.322v-12c0-1.1045.89548-2 2-2 1.1045 0 2 .8955 2 2v12c0 1.1045-.89552 2-2 2-1.1045 0-2-.8955-2-2zm8-23.678c0 3.1308-2.6914 5.6777-6 5.6777-3.3086 0-6-2.5469-6-5.6777v-4.6446c0-3.1308 2.6914-5.6777 6-5.6777 3.3086 0 6 2.5469 6 5.6777zm-8-16.322v-12c0-1.1045.89548-2 2-2 1.1045 0 2 .8955 2 2v12c0 1.1045-.89552 2-2 2-1.1045 0-2-.8955-2-2zm8-23.678c0 3.1308-2.6914 5.6777-6 5.6777-3.3086 0-6-2.5469-6-5.6777v-4.6446c0-3.1308 2.6914-5.6777 6-5.6777 3.3086 0 6 2.5469 6 5.6777zm6-20.322h-120v-4c0-2.2056 1.7939-4 4-4h112c2.2061 0 4 1.7944 4 4z"/>
    <path d="m112 26c-1.1025 0-2 .7524-2 1.6777v4.6446c0 .9253.89748 1.6777 2 1.6777 1.1025 0 2-.7524 2-1.6777v-4.6446c0-.9253-.89751-1.6777-2-1.6777z"/>
    <path d="m48 66c-1.1025 0-2 .7524-2 1.6777v4.6446c0 .92529.89749 1.6777 2 1.6777 1.1025 0 2-.7524 2-1.6777v-4.6446c0-.92529-.89751-1.6777-2-1.6777z"/>
    <path d="m32 26c-1.1025 0-2 .7524-2 1.6777v4.6446c0 .9253.89749 1.6777 2 1.6777 1.1025 0 2-.7524 2-1.6777v-4.6446c0-.9253-.89751-1.6777-2-1.6777z"/>
    <path d="m96 26c-1.1025 0-2 .7524-2 1.6777v4.6446c0 .9253.89748 1.6777 2 1.6777 1.1025 0 2-.7524 2-1.6777v-4.6446c0-.9253-.89751-1.6777-2-1.6777z"/>
    <path d="m96 46c-1.1025 0-2 .7524-2 1.6777v4.6446c0 .9253.89748 1.6777 2 1.6777 1.1025 0 2-.7524 2-1.6777v-4.6446c0-.9253-.89751-1.6777-2-1.6777z"/>
    <path d="m32 106c-1.1025 0-2 .7524-2 1.6777v4.6446c0 .9253.89749 1.6777 2 1.6777 1.1025 0 2-.7524 2-1.6777v-4.6446c0-.9253-.89751-1.6777-2-1.6777z"/>
    <path d="m48 26c-1.1025 0-2 .7524-2 1.6777v4.6446c0 .9253.89749 1.6777 2 1.6777 1.1025 0 2-.7524 2-1.6777v-4.6446c0-.9253-.89751-1.6777-2-1.6777z"/>
    <path d="m112 106c-1.1025 0-2 .7524-2 1.6777v4.6446c0 .9253.89748 1.6777 2 1.6777 1.1025 0 2-.7524 2-1.6777v-4.6446c0-.9253-.89751-1.6777-2-1.6777z"/>
   </g>
  </g>
 </g>
</svg>
