<?xml version="1.0" encoding="UTF-8" standalone="no"?>
<svg
   xmlns:osb="http://www.openswatchbook.org/uri/2009/osb"
   xmlns:dc="http://purl.org/dc/elements/1.1/"
   xmlns:cc="http://creativecommons.org/ns#"
   xmlns:rdf="http://www.w3.org/1999/02/22-rdf-syntax-ns#"
   xmlns:svg="http://www.w3.org/2000/svg"
   xmlns="http://www.w3.org/2000/svg"
   id="svg47"
   version="1.1"
   viewBox="0 0 52.758294 52.758296"
   height="199.40143"
   width="199.40143">
  <defs
     id="defs42">
    <pattern
       id="EMFhbasepattern"
       patternUnits="userSpaceOnUse"
       width="6"
       height="6"
       x="0"
       y="0" />
    <marker
       style="overflow:visible"
       id="Arrow1Mend-5-0"
       refX="0"
       refY="0"
       orient="auto">
      <path
         transform="matrix(-0.4,0,0,-0.4,-4,0)"
         style="fill:#000000;fill-opacity:1;fill-rule:evenodd;stroke:#000000;stroke-width:1.00000003pt;stroke-opacity:1"
         d="M 0,0 5,-5 -12.5,0 5,5 Z"
         id="path1146-3-3" />
    </marker>
    <marker
       style="overflow:visible"
       id="Arrow1Mend-5-3"
       refX="0"
       refY="0"
       orient="auto">
      <path
         transform="matrix(-0.4,0,0,-0.4,-4,0)"
         style="fill:#000000;fill-opacity:1;fill-rule:evenodd;stroke:#000000;stroke-width:1.00000003pt;stroke-opacity:1"
         d="M 0,0 5,-5 -12.5,0 5,5 Z"
         id="path1146-3-9" />
    </marker>
    <marker
       orient="auto"
       refY="0"
       refX="0"
       id="Arrow1Mend-5-0-4"
       style="overflow:visible">
      <path
         id="path1146-3-3-8"
         d="M 0,0 5,-5 -12.5,0 5,5 Z"
         style="fill:#ffffff;fill-opacity:1;fill-rule:evenodd;stroke:#ffffff;stroke-width:1.00000003pt;stroke-opacity:1"
         transform="matrix(-0.4,0,0,-0.4,-4,0)" />
    </marker>
    <marker
       orient="auto"
       refY="0"
       refX="0"
       id="Arrow1Mend-5-3-8"
       style="overflow:visible">
      <path
         id="path1146-3-9-5"
         d="M 0,0 5,-5 -12.5,0 5,5 Z"
         style="fill:#ffffff;fill-opacity:1;fill-rule:evenodd;stroke:#ffffff;stroke-width:1.00000003pt;stroke-opacity:1"
         transform="matrix(-0.4,0,0,-0.4,-4,0)" />
    </marker>
    <marker
       style="overflow:visible"
       id="Arrow1Mend"
       refX="0"
       refY="0"
       orient="auto">
      <path
         transform="matrix(-0.4,0,0,-0.4,-4,0)"
         style="fill:#000000;fill-opacity:1;fill-rule:evenodd;stroke:#000000;stroke-width:1.00000003pt;stroke-opacity:1"
         d="M 0,0 5,-5 -12.5,0 5,5 Z"
         id="path1146" />
    </marker>
    <marker
       orient="auto"
       refY="0"
       refX="0"
       id="Arrow1Mend-5"
       style="overflow:visible">
      <path
         id="path1146-3"
         d="M 0,0 5,-5 -12.5,0 5,5 Z"
         style="fill:#ffffff;fill-opacity:1;fill-rule:evenodd;stroke:#ffffff;stroke-width:1.00000003pt;stroke-opacity:1"
         transform="matrix(-0.4,0,0,-0.4,-4,0)" />
    </marker>
    <marker
       style="overflow:visible"
       id="Arrow1Mstart"
       refX="0"
       refY="0"
       orient="auto">
      <path
         transform="matrix(0.4,0,0,0.4,4,0)"
         style="fill:#000000;fill-opacity:1;fill-rule:evenodd;stroke:#000000;stroke-width:1.00000003pt;stroke-opacity:1"
         d="M 0,0 5,-5 -12.5,0 5,5 Z"
         id="path1143" />
    </marker>
    <marker
       orient="auto"
       refY="0"
       refX="0"
       id="Arrow1Mstart-1"
       style="overflow:visible">
      <path
         id="path1143-7"
         d="M 0,0 5,-5 -12.5,0 5,5 Z"
         style="fill:#ffffff;fill-opacity:1;fill-rule:evenodd;stroke:#ffffff;stroke-width:1.00000003pt;stroke-opacity:1"
         transform="matrix(0.4,0,0,0.4,4,0)" />
    </marker>
    <marker
       style="overflow:visible"
       id="Arrow1Lend"
       refX="0"
       refY="0"
       orient="auto">
      <path
         transform="matrix(-0.8,0,0,-0.8,-10,0)"
         style="fill:#000000;fill-opacity:1;fill-rule:evenodd;stroke:#000000;stroke-width:1.00000003pt;stroke-opacity:1"
         d="M 0,0 5,-5 -12.5,0 5,5 Z"
         id="path1140" />
    </marker>
    <marker
       style="overflow:visible"
       id="Arrow1Lstart"
       refX="0"
       refY="0"
       orient="auto">
      <path
         transform="matrix(0.8,0,0,0.8,10,0)"
         style="fill:#000000;fill-opacity:1;fill-rule:evenodd;stroke:#000000;stroke-width:1.00000003pt;stroke-opacity:1"
         d="M 0,0 5,-5 -12.5,0 5,5 Z"
         id="path1137" />
    </marker>
    <marker
       orient="auto"
       refY="0"
       refX="0"
       id="Arrow1Lend-5"
       style="overflow:visible">
      <path
         id="path1140-4"
         d="M 0,0 5,-5 -12.5,0 5,5 Z"
         style="fill:#ffffff;fill-opacity:1;fill-rule:evenodd;stroke:#ffffff;stroke-width:1.00000003pt;stroke-opacity:1"
         transform="matrix(-0.8,0,0,-0.8,-10,0)" />
    </marker>
    <marker
       orient="auto"
       refY="0"
       refX="0"
       id="Arrow1Lstart-93"
       style="overflow:visible">
      <path
         id="path1137-7"
         d="M 0,0 5,-5 -12.5,0 5,5 Z"
         style="fill:#ffffff;fill-opacity:1;fill-rule:evenodd;stroke:#ffffff;stroke-width:1.00000003pt;stroke-opacity:1"
         transform="matrix(0.8,0,0,0.8,10,0)" />
    </marker>
    <linearGradient
       id="linearGradient4460"
       osb:paint="solid">
      <stop
         style="stop-color:#db3b3b;stop-opacity:1;"
         offset="0"
         id="stop4458" />
    </linearGradient>
  </defs>
  <metadata
     id="metadata45">
    <rdf:RDF>
      <cc:Work
         rdf:about="">
        <dc:format>image/svg+xml</dc:format>
        <dc:type
           rdf:resource="http://purl.org/dc/dcmitype/StillImage" />
        <dc:title></dc:title>
      </cc:Work>
    </rdf:RDF>
  </metadata>
  <g
     id="g8556"
     transform="translate(49.836509,-375.23204)">
    <g
       id="g5305">
      <g
         id="g4722"
         transform="translate(-999.58915,406.95598)">
        <rect
           y="-31.749987"
           x="949.62024"
           height="52.916668"
           width="52.916668"
           id="rect833-4-4-4-3-1-1-6"
           style="fill:#db3b3b;fill-opacity:1;stroke:#000000;stroke-width:0.49999899;stroke-linecap:round;stroke-miterlimit:4;stroke-dasharray:none;stroke-opacity:1;paint-order:fill markers stroke" />
        <text
           id="text983-1-5-6-98-51-0-81"
           y="11.094067"
           x="975.78589"
           style="font-size:6.3499999px;line-height:1.25;font-family:voestalpine;-inkscape-font-specification:voestalpine;letter-spacing:0px;word-spacing:0px;fill:#ffffff;fill-opacity:1;stroke-width:0.26458299"
           xml:space="preserve"><tspan
             style="font-size:6.3499999px;text-align:center;text-anchor:middle;fill:#ffffff;fill-opacity:1;stroke-width:0.26458299"
             y="11.094067"
             x="975.78589"
             id="tspan1598-7-34">Dokumenty</tspan><tspan
             style="font-size:6.3499999px;text-align:center;text-anchor:middle;fill:#ffffff;fill-opacity:1;stroke-width:0.26458299"
             y="19.031567"
             x="975.78589"
             id="tspan2071">związane</tspan></text>
        <g
           transform="matrix(0.67661425,0,0,0.67661425,959.74631,-28.517887)"
           id="g1665"
           style="fill:#ffffff;fill-opacity:1;stroke:#ffffff;stroke-width:0.40939131;stroke-miterlimit:4;stroke-dasharray:none;stroke-opacity:1">
          <path
             style="fill:#ffffff;fill-opacity:1;stroke:#ffffff;stroke-width:0.40939131;stroke-miterlimit:4;stroke-dasharray:none;stroke-opacity:1"
             d="m 9.47,38.5 c 1.38,0 2.5,-1.12 2.5,-2.5 0,-1.38 -1.12,-2.5 -2.5,-2.5 -1.38,0 -2.5,1.12 -2.5,2.5 0,1.38 1.12,2.5 2.5,2.5 z m 0,-4 c 0.83,0 1.5,0.67 1.5,1.5 0,0.83 -0.67,1.5 -1.5,1.5 -0.83,0 -1.5,-0.67 -1.5,-1.5 0,-0.83 0.67,-1.5 1.5,-1.5 z"
             id="path1636" />
          <path
             style="fill:#ffffff;fill-opacity:1;stroke:#ffffff;stroke-width:0.40939131;stroke-miterlimit:4;stroke-dasharray:none;stroke-opacity:1"
             d="m 9.47,29.5 c 0.28,0 0.5,-0.22 0.5,-0.5 V 10 C 9.97,9.72 9.75,9.5 9.47,9.5 9.19,9.5 8.97,9.72 8.97,10 v 19 c 0,0.28 0.22,0.5 0.5,0.5 z"
             id="path1638" />
          <path
             style="fill:#ffffff;fill-opacity:1;stroke:#ffffff;stroke-width:0.40939131;stroke-miterlimit:4;stroke-dasharray:none;stroke-opacity:1"
             d="m 17.47,38.5 c 1.38,0 2.5,-1.12 2.5,-2.5 0,-1.38 -1.12,-2.5 -2.5,-2.5 -1.38,0 -2.5,1.12 -2.5,2.5 0,1.38 1.12,2.5 2.5,2.5 z m 0,-4 c 0.83,0 1.5,0.67 1.5,1.5 0,0.83 -0.67,1.5 -1.5,1.5 -0.83,0 -1.5,-0.67 -1.5,-1.5 0,-0.83 0.67,-1.5 1.5,-1.5 z"
             id="path1640" />
          <path
             style="fill:#ffffff;fill-opacity:1;stroke:#ffffff;stroke-width:0.40939131;stroke-miterlimit:4;stroke-dasharray:none;stroke-opacity:1"
             d="m 17.47,29.5 c 0.28,0 0.5,-0.22 0.5,-0.5 V 10 c 0,-0.28 -0.22,-0.5 -0.5,-0.5 -0.28,0 -0.5,0.22 -0.5,0.5 v 19 c 0,0.28 0.22,0.5 0.5,0.5 z"
             id="path1642" />
          <path
             style="fill:#ffffff;fill-opacity:1;stroke:#ffffff;stroke-width:0.40939131;stroke-miterlimit:4;stroke-dasharray:none;stroke-opacity:1"
             d="M 43.01,41.58 30.47,3.6 C 30.38,3.34 30.1,3.19 29.84,3.28 l -7.6,2.51 C 22.12,5.83 22.03,5.91 21.97,6.02 V 4 c 0,-0.28 -0.22,-0.5 -0.5,-0.5 h -8 -8 C 5.19,3.5 4.97,3.72 4.97,4 v 40 c 0,0.28 0.22,0.5 0.5,0.5 h 8 8 c 0.28,0 0.5,-0.22 0.5,-0.5 V 6.55 l 12.5,37.85 c 0.04,0.13 0.13,0.23 0.25,0.29 0.07,0.04 0.15,0.05 0.22,0.05 0.05,0 0.11,-0.01 0.16,-0.03 l 7.6,-2.51 c 0.25,-0.07 0.4,-0.36 0.31,-0.62 z M 12.97,43.5 h -7 v -39 h 7 z m 8,0 h -7 v -39 h 7 z M 35.26,43.61 23.03,6.58 29.68,4.39 41.9,41.42 Z"
             id="path1644" />
          <path
             style="fill:#ffffff;fill-opacity:1;stroke:#ffffff;stroke-width:0.40939131;stroke-miterlimit:4;stroke-dasharray:none;stroke-opacity:1"
             d="m 33.85,36.18 c 0.21,0.63 0.65,1.15 1.25,1.45 0.35,0.18 0.74,0.27 1.12,0.27 0.26,0 0.53,-0.04 0.79,-0.13 0.63,-0.21 1.15,-0.65 1.45,-1.25 0.3,-0.6 0.35,-1.27 0.14,-1.91 -0.21,-0.63 -0.65,-1.15 -1.25,-1.45 -0.6,-0.3 -1.27,-0.35 -1.91,-0.14 -0.63,0.21 -1.15,0.65 -1.45,1.25 -0.3,0.6 -0.35,1.27 -0.14,1.91 z m 1.04,-1.46 c 0.18,-0.36 0.49,-0.62 0.87,-0.75 0.16,-0.05 0.31,-0.08 0.47,-0.08 0.63,0 1.22,0.4 1.43,1.03 0.13,0.38 0.1,0.79 -0.08,1.14 -0.18,0.36 -0.49,0.62 -0.87,0.75 -0.38,0.13 -0.79,0.1 -1.14,-0.08 -0.36,-0.18 -0.62,-0.49 -0.75,-0.87 -0.14,-0.37 -0.11,-0.78 0.07,-1.14 z"
             id="path1646" />
          <path
             style="fill:#ffffff;fill-opacity:1;stroke:#ffffff;stroke-width:0.40939131;stroke-miterlimit:4;stroke-dasharray:none;stroke-opacity:1"
             d="m 27.92,10.23 c -0.26,0.09 -0.4,0.37 -0.32,0.63 l 5.96,18.04 c 0.07,0.21 0.26,0.34 0.47,0.34 0.05,0 0.1,-0.01 0.16,-0.03 0.26,-0.09 0.41,-0.37 0.32,-0.63 L 28.55,10.54 c -0.09,-0.25 -0.37,-0.4 -0.63,-0.31 z"
             id="path1648" />
        </g>
      </g>
    </g>
  </g>
</svg>
