<?xml version="1.0" encoding="UTF-8" standalone="no"?>
<svg
   xmlns:dc="http://purl.org/dc/elements/1.1/"
   xmlns:cc="http://creativecommons.org/ns#"
   xmlns:rdf="http://www.w3.org/1999/02/22-rdf-syntax-ns#"
   xmlns:svg="http://www.w3.org/2000/svg"
   xmlns="http://www.w3.org/2000/svg"
   id="svg47"
   version="1.1"
   viewBox="0 0 52.758294 52.758296"
   height="199.40143"
   width="199.40143">
  <defs
     id="defs42">
    <pattern
       id="EMFhbasepattern"
       patternUnits="userSpaceOnUse"
       width="6"
       height="6"
       x="0"
       y="0" />
  </defs>
  <metadata
     id="metadata45">
    <rdf:RDF>
      <cc:Work
         rdf:about="">
        <dc:format>image/svg+xml</dc:format>
        <dc:type
           rdf:resource="http://purl.org/dc/dcmitype/StillImage" />
        <dc:title></dc:title>
      </cc:Work>
    </rdf:RDF>
  </metadata>
  <g
     id="g7957"
     transform="translate(-288.98894,-234.86937)">
    <rect
       style="fill:#ffffff;stroke:#000000;stroke-width:0.49999899;stroke-linecap:round;stroke-miterlimit:4;stroke-dasharray:none;stroke-opacity:1;paint-order:fill markers stroke"
       id="rect833-1-5-3-0-1-8-8-7"
       width="52.258293"
       x="289.31815"
       y="235.24811"
       height="52.258293" />
    <text
       xml:space="preserve"
       style="font-size:5.99722004px;line-height:0.94999999;font-family:voestalpine;-inkscape-font-specification:voestalpine;text-align:center;letter-spacing:0px;word-spacing:0px;text-anchor:middle;stroke-width:0.26458299"
       x="315.57571"
       y="279.737"
       id="text898-7-3-6-3-6-38-1-8"><tspan
         x="315.57571"
         y="279.737"
         style="font-size:5.99722004px;text-align:center;text-anchor:middle;stroke-width:0.26458299"
         id="tspan1143-5">Dodaj pustą</tspan><tspan
         id="tspan1386"
         x="315.57571"
         y="285.43436"
         style="font-size:5.99722004px;text-align:center;text-anchor:middle;stroke-width:0.26458299">stronę nieparzystą</tspan></text>
    <text
       id="text1732-9-9-3"
       y="286.57382"
       x="315.4473"
       style="font-size:5.64444017px;line-height:1.25;font-family:voestalpine;-inkscape-font-specification:voestalpine;letter-spacing:0px;word-spacing:0px;stroke-width:0.26458299"
       xml:space="preserve"><tspan
         style="stroke-width:0.26458299"
         y="286.57382"
         x="315.4473"
         id="tspan1730-7-6-4"> </tspan></text>
    <g
       transform="translate(0.24763063)"
       id="g1382">
      <g
         style="fill:#000000"
         id="g1358"
         transform="matrix(0.43421336,0,0,0.43421336,287.41016,226.05181)">
        <path
           id="path1296"
           d="M 99.188,36.018 C 87.617,33.812 75.576,33.804 64,35.986 52.425,33.804 40.382,33.811 28.812,36.017 28.341,36.107 28,36.52 28,37 v 52 c 0,0.298 0.133,0.58 0.363,0.771 0.23,0.191 0.531,0.268 0.825,0.212 11.385,-2.172 23.24,-2.172 34.625,0 C 63.875,89.994 63.938,90 64,90 c 0.039,0 0.076,-0.016 0.114,-0.02 0.024,-0.003 0.049,0.007 0.073,0.002 11.385,-2.172 23.24,-2.172 34.625,0 C 98.875,89.994 98.938,90 99,90 99.23,90 99.457,89.92 99.638,89.771 99.867,89.58 100,89.298 100,89 V 37 c 0,-0.48 -0.341,-0.893 -0.812,-0.982 z M 30,87.799 V 37.831 c 10.867,-1.971 22.133,-1.971 33,0 v 49.968 c -5.437,-0.965 -10.981,-1.453 -16.5,-1.453 -5.519,0 -11.063,0.488 -16.5,1.453 z m 68,0 c -5.438,-0.965 -10.981,-1.453 -16.5,-1.453 -5.519,0 -11.062,0.488 -16.5,1.453 V 37.831 c 10.867,-1.971 22.133,-1.971 33,0 z"
           style="fill:#000000" />
        <path
           id="path1298"
           d="M 99.188,92.018 C 87.514,89.791 75.676,89.783 64,91.986 52.324,89.783 40.486,89.791 28.812,92.017 c -0.542,0.104 -0.898,0.627 -0.795,1.17 0.104,0.543 0.624,0.895 1.17,0.795 11.487,-2.191 23.138,-2.191 34.625,0 0.064,0.012 0.127,0.018 0.189,0.018 0.037,0 0.07,-0.015 0.107,-0.019 0.027,-0.003 0.052,0.006 0.08,0.001 11.488,-2.191 23.137,-2.191 34.625,0 0.063,0.012 0.125,0.018 0.188,0.018 0.471,0 0.89,-0.333 0.981,-0.813 0.104,-0.542 -0.253,-1.066 -0.794,-1.169 z"
           style="fill:#000000" />
        <path
           id="path1300"
           d="m 93.001,45 c -0.063,0 -0.125,-0.006 -0.188,-0.018 -7.506,-1.432 -15.119,-1.432 -22.625,0 -0.548,0.103 -1.066,-0.253 -1.17,-0.795 -0.104,-0.542 0.253,-1.066 0.795,-1.17 7.756,-1.479 15.619,-1.479 23.375,0 0.542,0.104 0.898,0.627 0.795,1.17 C 93.891,44.667 93.472,45 93.001,45 Z"
           style="fill:#000000" />
        <path
           id="path1302"
           d="m 93.001,50 c -0.063,0 -0.125,-0.006 -0.188,-0.018 -7.506,-1.432 -15.119,-1.432 -22.625,0 -0.548,0.104 -1.066,-0.253 -1.17,-0.795 -0.104,-0.542 0.253,-1.066 0.795,-1.17 7.756,-1.479 15.619,-1.479 23.375,0 0.542,0.104 0.898,0.627 0.795,1.17 C 93.891,49.667 93.472,50 93.001,50 Z"
           style="fill:#000000" />
        <path
           id="path1304"
           d="m 93.001,55 c -0.063,0 -0.125,-0.006 -0.188,-0.018 -7.506,-1.432 -15.119,-1.432 -22.625,0 -0.548,0.101 -1.066,-0.253 -1.17,-0.795 -0.104,-0.542 0.253,-1.066 0.795,-1.17 7.756,-1.479 15.619,-1.479 23.375,0 0.542,0.104 0.898,0.627 0.795,1.17 C 93.891,54.667 93.472,55 93.001,55 Z"
           style="fill:#000000" />
        <path
           id="path1306"
           d="m 93.001,60 c -0.063,0 -0.125,-0.006 -0.188,-0.018 -7.506,-1.432 -15.119,-1.432 -22.625,0 -0.548,0.103 -1.066,-0.253 -1.17,-0.795 -0.104,-0.542 0.253,-1.066 0.795,-1.17 7.756,-1.479 15.619,-1.479 23.375,0 0.542,0.104 0.898,0.627 0.795,1.17 C 93.891,59.667 93.472,60 93.001,60 Z"
           style="fill:#000000" />
        <path
           id="path1308"
           d="m 93.001,65 c -0.063,0 -0.125,-0.006 -0.188,-0.018 -7.506,-1.432 -15.119,-1.432 -22.625,0 -0.548,0.104 -1.066,-0.253 -1.17,-0.795 -0.104,-0.542 0.253,-1.066 0.795,-1.17 7.756,-1.479 15.619,-1.479 23.375,0 0.542,0.104 0.898,0.627 0.795,1.17 C 93.891,64.667 93.472,65 93.001,65 Z"
           style="fill:#000000" />
        <path
           id="path1310"
           d="m 93.001,70 c -0.063,0 -0.125,-0.006 -0.188,-0.018 -7.506,-1.432 -15.119,-1.432 -22.625,0 -0.548,0.104 -1.066,-0.253 -1.17,-0.795 -0.104,-0.543 0.253,-1.066 0.795,-1.17 7.756,-1.479 15.619,-1.479 23.375,0 0.542,0.104 0.898,0.627 0.795,1.17 C 93.891,69.667 93.472,70 93.001,70 Z"
           style="fill:#000000" />
        <path
           id="path1312"
           d="m 93.001,75 c -0.063,0 -0.125,-0.006 -0.188,-0.018 -7.506,-1.432 -15.119,-1.432 -22.625,0 -0.548,0.102 -1.066,-0.253 -1.17,-0.795 -0.104,-0.543 0.253,-1.066 0.795,-1.17 7.756,-1.479 15.619,-1.479 23.375,0 0.542,0.104 0.898,0.627 0.795,1.17 C 93.891,74.667 93.472,75 93.001,75 Z"
           style="fill:#000000" />
        <path
           id="path1314"
           d="m 93.001,80 c -0.063,0 -0.125,-0.006 -0.188,-0.018 -7.506,-1.432 -15.119,-1.432 -22.625,0 -0.548,0.104 -1.066,-0.252 -1.17,-0.795 -0.104,-0.543 0.253,-1.066 0.795,-1.17 7.756,-1.479 15.619,-1.479 23.375,0 0.542,0.104 0.898,0.627 0.795,1.17 C 93.891,79.667 93.472,80 93.001,80 Z"
           style="fill:#000000" />
        <path
           id="path1316"
           d="m 58.001,45 c -0.062,0 -0.125,-0.006 -0.188,-0.018 -7.506,-1.432 -15.119,-1.432 -22.625,0 -0.543,0.102 -1.067,-0.252 -1.17,-0.795 -0.104,-0.542 0.252,-1.066 0.795,-1.17 7.756,-1.479 15.619,-1.479 23.375,0 0.542,0.104 0.898,0.627 0.795,1.17 C 58.891,44.667 58.472,45 58.001,45 Z"
           style="fill:#000000" />
        <path
           id="path1318-6"
           d="m 58.001,50 c -0.062,0 -0.125,-0.006 -0.188,-0.018 -7.506,-1.432 -15.119,-1.432 -22.625,0 -0.543,0.102 -1.067,-0.252 -1.17,-0.795 -0.104,-0.542 0.252,-1.066 0.795,-1.17 7.756,-1.479 15.619,-1.479 23.375,0 0.542,0.104 0.898,0.627 0.795,1.17 C 58.891,49.667 58.472,50 58.001,50 Z"
           style="fill:#000000" />
        <path
           id="path1320"
           d="m 58.001,55 c -0.062,0 -0.125,-0.006 -0.188,-0.018 -7.506,-1.432 -15.119,-1.432 -22.625,0 -0.543,0.102 -1.067,-0.252 -1.17,-0.795 -0.104,-0.542 0.252,-1.066 0.795,-1.17 7.756,-1.479 15.619,-1.479 23.375,0 0.542,0.104 0.898,0.627 0.795,1.17 C 58.891,54.667 58.472,55 58.001,55 Z"
           style="fill:#000000" />
        <path
           id="path1322"
           d="m 58.001,60 c -0.062,0 -0.125,-0.006 -0.188,-0.018 -7.506,-1.432 -15.119,-1.432 -22.625,0 -0.543,0.102 -1.067,-0.252 -1.17,-0.795 -0.104,-0.542 0.252,-1.066 0.795,-1.17 7.756,-1.479 15.619,-1.479 23.375,0 0.542,0.104 0.898,0.627 0.795,1.17 C 58.891,59.667 58.472,60 58.001,60 Z"
           style="fill:#000000" />
        <path
           id="path1324"
           d="m 58.001,65 c -0.062,0 -0.125,-0.006 -0.188,-0.018 -7.506,-1.432 -15.119,-1.432 -22.625,0 -0.543,0.102 -1.067,-0.252 -1.17,-0.795 -0.104,-0.542 0.252,-1.066 0.795,-1.17 7.756,-1.479 15.619,-1.479 23.375,0 0.542,0.104 0.898,0.627 0.795,1.17 C 58.891,64.667 58.472,65 58.001,65 Z"
           style="fill:#000000" />
        <path
           id="path1326"
           d="m 58.001,70 c -0.062,0 -0.125,-0.006 -0.188,-0.018 -7.506,-1.432 -15.119,-1.432 -22.625,0 -0.543,0.102 -1.067,-0.252 -1.17,-0.795 -0.104,-0.543 0.252,-1.066 0.795,-1.17 7.756,-1.479 15.619,-1.479 23.375,0 0.542,0.104 0.898,0.627 0.795,1.17 C 58.891,69.667 58.472,70 58.001,70 Z"
           style="fill:#000000" />
        <path
           id="path1328"
           d="m 58.001,75 c -0.062,0 -0.125,-0.006 -0.188,-0.018 -7.506,-1.432 -15.119,-1.432 -22.625,0 -0.543,0.102 -1.067,-0.252 -1.17,-0.795 -0.104,-0.543 0.252,-1.066 0.795,-1.17 7.756,-1.479 15.619,-1.479 23.375,0 0.542,0.104 0.898,0.627 0.795,1.17 C 58.891,74.667 58.472,75 58.001,75 Z"
           style="fill:#000000" />
        <path
           id="path1330"
           d="m 58.001,80 c -0.062,0 -0.125,-0.006 -0.188,-0.018 -7.506,-1.432 -15.119,-1.432 -22.625,0 -0.543,0.102 -1.067,-0.252 -1.17,-0.795 -0.104,-0.543 0.252,-1.066 0.795,-1.17 7.756,-1.479 15.619,-1.479 23.375,0 0.542,0.104 0.898,0.627 0.795,1.17 C 58.891,79.667 58.472,80 58.001,80 Z"
           style="fill:#000000" />
      </g>
      <rect
         style="fill:#fffffe;fill-opacity:1;stroke:none;stroke-width:0.46384501;stroke-linecap:round;paint-order:fill markers stroke"
         id="rect1360"
         width="12.302634"
         height="17.640312"
         x="316.84714"
         y="243.94131" />
    </g>
  </g>
</svg>
