<svg id="SVGRoot" width="206px" height="206px" version="1.1" viewBox="0 0 206 206" xmlns="http://www.w3.org/2000/svg">
 <g transform="matrix(3.7795 0 0 3.7795 -1795.2 2502.6)">
  <flowRoot fill="black" font-family="sans-serif" font-size="40px" letter-spacing="0px" word-spacing="0px" style="line-height:1.25" xml:space="preserve"><flowRegion><rect x="-392.69" y="-63.57" width="758.02" height="397.52"/></flowRegion><flowPara/></flowRoot>
  <flowRoot fill="black" font-family="sans-serif" font-size="40px" letter-spacing="0px" word-spacing="0px" style="line-height:1.25" xml:space="preserve"><flowRegion><rect x="-251.87" y="-84.492" width="624.44" height="455.45"/></flowRegion><flowPara/></flowRoot>
  <flowRoot fill="black" font-family="sans-serif" font-size="40px" letter-spacing="0px" word-spacing="0px" style="line-height:1.25" xml:space="preserve"><flowRegion><rect x="-202.78" y="-50.695" width="473.96" height="281.64"/></flowRegion><flowPara/></flowRoot>
  <flowRoot fill="black" font-family="sans-serif" font-size="40px" letter-spacing="0px" word-spacing="0px" style="line-height:1.25" xml:space="preserve"><flowRegion><rect x="-86.906" y="-78.859" width="516.61" height="410.39"/></flowRegion><flowPara/></flowRoot>
  <flowRoot fill="black" font-family="sans-serif" font-size="40px" letter-spacing="0px" word-spacing="0px" style="line-height:1.25" xml:space="preserve"><flowRegion><rect x="-81.273" y="-32.188" width="309" height="322.68"/></flowRegion><flowPara/></flowRoot>
  <flowRoot fill="black" font-family="sans-serif" font-size="40px" letter-spacing="0px" word-spacing="0px" style="line-height:1.25" xml:space="preserve"><flowRegion><rect x="-90.93" y="-68.398" width="392.69" height="252.67"/></flowRegion><flowPara/></flowRoot>
  <g transform="translate(675.17 -.21291)">
   <flowRoot fill="black" font-family="sans-serif" font-size="40px" letter-spacing="0px" word-spacing="0px" style="line-height:1.25" xml:space="preserve"><flowRegion><rect x="-100.59" y="-53.109" width="462.7" height="369.35"/></flowRegion><flowPara/></flowRoot>
   <g transform="translate(57.194 .21291)">
    <flowRoot fill="black" font-family="sans-serif" font-size="40px" letter-spacing="0px" word-spacing="0px" style="line-height:1.25" xml:space="preserve"><flowRegion><rect x="-329.12" y="-12.07" width="696.05" height="259.91"/></flowRegion><flowPara/></flowRoot>
    <g transform="translate(-1495.1 -629.38)">
     <flowRoot fill="black" font-family="sans-serif" font-size="40px" letter-spacing="0px" word-spacing="0px" style="line-height:1.25" xml:space="preserve"><flowRegion><rect x="-306.59" y="-111.05" width="206" height="51.5"/></flowRegion><flowPara/></flowRoot>
     <flowRoot fill="black" font-family="sans-serif" font-size="40px" letter-spacing="0px" word-spacing="0px" style="line-height:1.25" xml:space="preserve"><flowRegion><rect x="-70.812" y="-36.211" width="362.91" height="283.25"/></flowRegion><flowPara/></flowRoot>
     <g transform="translate(766.88 -400.75)">
      <g transform="translate(240.93 134.08)">
       <rect x="230.99" y="235.25" width="52.258" height="52.258" fill="#fff" stroke="#000" stroke-linecap="round" stroke-width=".5" style="paint-order:fill markers stroke"/>
       <text x="256.92014" y="278.07584" font-family="sans-serif" font-size="4.9389px" letter-spacing="0px" stroke-width=".26458" text-align="center" text-anchor="middle" word-spacing="0px" style="line-height:0.94999999" xml:space="preserve"><tspan x="256.92014" y="278.07584" text-align="center">Dopasuj tabele</tspan><tspan x="256.92014" y="284.10834" text-align="center">do okna</tspan></text>
       <text x="257.12219" y="286.57382" font-family="sans-serif" font-size="5.6444px" letter-spacing="0px" stroke-width=".26458" word-spacing="0px" style="line-height:1.25" xml:space="preserve"><tspan x="257.12219" y="286.57382" font-family="sans-serif" stroke-width=".26458"> </tspan></text>
       <g transform="translate(-1.5e-5)">
        <g transform="matrix(.15895 0 0 .29398 249.68 242.22)">
         <path d="m87.059 13.325h-84.118c-1.624 0-2.941 1.317-2.941 2.941v57.468c0 1.625 1.317 2.941 2.941 2.941h84.119c1.624 0 2.941-1.316 2.941-2.941v-57.468c-.001-1.624-1.318-2.941-2.942-2.941zm-42.942 17.162v13.63h-20.293v-13.63zm-20.293-1.766v-13.63h20.293v13.63zm20.293 17.162v13.631h-20.293v-13.631zm0 15.395v13.631h-20.293v-13.631zm22.059-15.395v13.631h-20.293v-13.631zm-20.293-1.766v-13.63h20.293v13.63zm20.293 17.161v13.631h-20.293v-13.631zm0-32.557h-20.293v-13.63h20.293zm-64.411-12.455c0-.647.525-1.172 1.172-1.175h19.122v13.63h-20.294zm0 14.221h20.294v13.63h-20.294zm0 15.396h20.294v13.631h-20.294zm0 27.85v-12.455h20.294v13.631h-19.122c-.647-.003-1.172-.528-1.172-1.176zm86.469 0c0 .647-.524 1.173-1.172 1.176h-19.121v-13.631h20.293zm0-14.219h-20.293v-13.631h20.293zm0-15.397h-20.293v-13.63h20.293zm0-15.396h-20.293v-13.63h19.121c.647.003 1.172.528 1.172 1.175z"/>
         <path d="m17.813 18.121h-11.801c-.487 0-.883.396-.883.883v5.805c0 .487.396.883.883.883h11.801c.487 0 .883-.396.883-.883v-5.805c-.001-.488-.396-.883-.883-.883z"/>
         <path d="m17.813 33.517h-11.801c-.487 0-.883.394-.883.882v5.805c0 .487.396.882.883.882h11.801c.487 0 .883-.395.883-.882v-5.805c-.001-.488-.396-.882-.883-.882z"/>
         <path d="m17.813 48.913h-11.801c-.487 0-.883.395-.883.883v5.805c0 .487.396.883.883.883h11.801c.487 0 .883-.396.883-.883v-5.805c-.001-.488-.396-.883-.883-.883z"/>
         <path d="m17.813 64.309h-11.801c-.487 0-.883.395-.883.883v5.805c0 .487.396.883.883.883h11.801c.487 0 .883-.396.883-.883v-5.805c-.001-.489-.396-.883-.883-.883z"/>
         <path d="m39.871 18.121h-11.801c-.487 0-.883.396-.883.883v5.805c0 .487.396.883.883.883h11.801c.487 0 .883-.396.883-.883v-5.805c0-.488-.396-.883-.883-.883z"/>
         <path d="m50.129 25.691h11.801c.487 0 .883-.396.883-.883v-5.805c0-.487-.396-.883-.883-.883h-11.801c-.487 0-.883.396-.883.883v5.805c0 .487.396.883.883.883z"/>
         <path d="m83.988 18.121h-11.8c-.487 0-.883.396-.883.883v5.805c0 .487.396.883.883.883h11.801c.487 0 .883-.396.883-.883v-5.805c-.001-.488-.396-.883-.884-.883z"/>
        </g>
        <g transform="matrix(0 37.86 -37.86 0 277.35 251.38)" clip-rule="evenodd" fill-rule="evenodd" image-rendering="optimizeQuality" shape-rendering="geometricPrecision">
         <polygon class="fil0" points=".24843 .12591 .12381 0 0 .12381 .033614 .15742 .10044 .090594 .10044 .30646 .14798 .30646 .14798 .092689 .21482 .15953"/>
        </g>
        <g transform="matrix(0 37.86 37.86 0 236.9 251.38)" clip-rule="evenodd" fill-rule="evenodd" image-rendering="optimizeQuality" shape-rendering="geometricPrecision">
         <polygon class="fil0" points=".14798 .092689 .21482 .15953 .24843 .12591 .12381 0 0 .12381 .033614 .15742 .10044 .090594 .10044 .30646 .14798 .30646"/>
        </g>
       </g>
      </g>
     </g>
    </g>
   </g>
  </g>
 </g>
</svg>
