<svg id="SVGRoot" width="208" height="208" version="1.1" viewBox="0 0 208 208" xmlns="http://www.w3.org/2000/svg">
 <g transform="translate(0,7)">
  <g transform="matrix(3.7795 0 0 3.7795 10.171 -6.7758)">
   <g transform="translate(-1.0884 -121.69)">
    <g transform="translate(1.6608 -59.209)">
     <g transform="translate(-.6443 -59.335)">
      <g transform="translate(-1396.8 269.89)">
       <g transform="translate(-57.972 -.024822)">
        <g transform="translate(1658.1 73.867)">
         <g transform="translate(-203.03 -103.33)">
          <flowRoot transform="matrix(.26458 0 0 .26458 -2.875 1.091)" fill="#000000" font-family="sans-serif" font-size="40px" letter-spacing="0px" word-spacing="0px" style="line-height:1.25" xml:space="preserve"><flowRegion><rect x="-85.582" y="-60.812" width="342.33" height="293.65"/></flowRegion><flowPara/></flowRoot>
          <g transform="translate(-1039.4 318.88)">
           <flowRoot transform="matrix(.26458 0 0 .26458 1036.5 -317.79)" fill="#000000" font-family="sans-serif" font-size="40px" letter-spacing="0px" word-spacing="0px" style="line-height:1.25" xml:space="preserve"><flowRegion><rect x="-105.21" y="-13.703" width="562.17" height="513.49"/></flowRegion><flowPara/></flowRoot>
           <g transform="translate(-66.134 .039287)">
            <g transform="translate(-66.173 .043409)">
             <flowRoot transform="matrix(.26458 0 0 .26458 1168.8 -317.87)" fill="#000000" font-family="sans-serif" font-size="40px" letter-spacing="0px" word-spacing="0px" style="line-height:1.25" xml:space="preserve"><flowRegion><rect x="-114.63" y="-91.434" width="675.23" height="522.91"/></flowRegion><flowPara/></flowRoot>
             <g transform="translate(-66.2 -.040316)">
              <g transform="translate(-65.918 -.60254)">
               <g transform="translate(-66.6 .14883)">
                <flowRoot fill="black" font-family="sans-serif" font-size="40px" letter-spacing="0px" word-spacing="0px" style="line-height:1.25" xml:space="preserve"><flowRegion><rect x="-24.34" y="-19.695" width="252.04" height="245.75"/></flowRegion><flowPara/></flowRoot>
                <g transform="translate(-68.678 -.48293)">
                 <flowRoot fill="black" font-family="sans-serif" font-size="40px" letter-spacing="0px" word-spacing="0px" style="line-height:1.25" xml:space="preserve"><flowRegion><rect x="-65.168" y="-26.762" width="382.37" height="335.26"/></flowRegion><flowPara/></flowRoot>
                 <g transform="translate(-63.347 .4912)">
                  <g transform="translate(529.82 -.18087)">
                   <g transform="translate(794.67 .06923)">
                    <g transform="translate(-198.36 .17569)">
                     <g transform="translate(-530.68 .043413)">
                      <g transform="translate(912.04 -.041317)">
                       <g transform="translate(132.58 -.39794)">
                        <g transform="translate(-580.62 .35866)">
                         <g transform="translate(-264.6 -.1571)">
                          <g transform="translate(463.55 .097138)">
                           <g transform="translate(-397.36 .059959)">
                            <g transform="translate(66.026 -.30592)">
                             <g transform="translate(-264.69 -.093008)">
                              <g transform="translate(734.89 179.33)">
                               <g transform="translate(-205.07 -178.97)">
                                <g transform="translate(-1081.1 -686.85)">
                                 <flowRoot fill="black" font-family="sans-serif" font-size="40px" letter-spacing="0px" word-spacing="0px" style="line-height:1.25" xml:space="preserve"><flowRegion><rect x="21" y="-71" width="223" height="308"/></flowRegion><flowPara/></flowRoot>
                                 <g transform="translate(-112.28 .55746)">
                                  <flowRoot transform="matrix(.26458 0 0 .26458 1500.7 367.6)" fill="#000000" font-family="sans-serif" font-size="40px" letter-spacing="0px" word-spacing="0px" style="line-height:1.25" xml:space="preserve"><flowRegion><rect x="-6.364" y="-2.0107" width="231.22" height="230.87"/></flowRegion><flowPara/></flowRoot>
                                  <g transform="translate(1386.8 133.57)">
                                   <g transform="translate(-1180.5 267.04)">
                                    <g transform="translate(753.05 -.28062)">
                                     <g transform="translate(747.14 .093556)">
                                      <g transform="translate(-805.88 1.4967)">
                                       <g transform="translate(-866.69 -1.7773)">
                                        <flowRoot fill="black" font-family="sans-serif" font-size="40px" letter-spacing="0px" word-spacing="0px" style="line-height:1.25" xml:space="preserve"><flowRegion><rect x="-103.94" y="-20.042" width="370.17" height="251.38"/></flowRegion><flowPara/></flowRoot>
                                        <g transform="translate(-56.372 .37418)">
                                         <rect x="1524.1" y="-31.75" width="52.951" height="52.917" fill="#db3b3b" stroke="#000" stroke-linecap="round" stroke-width=".50016" style="paint-order:fill markers stroke"/>
                                         <text transform="scale(1.0003 .99968)" x="1550.0516" y="16.869144" fill="#ffffff" font-family="sans-serif" font-size="6.352px" letter-spacing="0px" stroke-width=".26467" word-spacing="0px" style="line-height:1.25" xml:space="preserve"><tspan x="1550.0516" y="16.869144" fill="#ffffff" font-family="sans-serif" class="svgT" letter-spacing=".5px" font-size="5.2px" stroke-width=".26467" text-align="center" text-anchor="middle">Druga strona</tspan></text>
                                         <g transform="matrix(.22437 0 0 .22437 1536.3 -26.472)" fill="#fff">
                                          <path d="m105.2 16h-26.3l3.1 2.8v1.2h20v14.9c0 2.8 2.3 5.1 5.1 5.1h16.9v84h-70v-8h-4v8.5c0 1.9 1.6 3.5 3.5 3.5h71c1.9 0 3.5-1.6 3.5-3.5v-87.9zm.8 18.9v-12.8l15.4 13.9h-14.3c-.6 0-1.1-.5-1.1-1.1z"/>
                                          <path d="m78 108.5v-87.9l-22.8-20.6h-51.7c-1.9 0-3.5 1.6-3.5 3.5v105c0 1.9 1.6 3.5 3.5 3.5h71c1.9 0 3.5-1.6 3.5-3.5zm-22-102.4 15.4 13.9h-14.3c-.6 0-1.1-.5-1.1-1.1zm-52 101.9v-104h48v14.9c0 2.8 2.3 5.1 5.1 5.1h16.9v84z"/>
                                          <path d="m62 30h-46c-1.1 0-2 .9-2 2s.9 2 2 2h46c1.1 0 2-.9 2-2s-.9-2-2-2z"/>
                                          <path d="m62 40h-46c-1.1 0-2 .9-2 2s.9 2 2 2h46c1.1 0 2-.9 2-2s-.9-2-2-2z"/>
                                          <path d="m62 50h-46c-1.1 0-2 .9-2 2s.9 2 2 2h46c1.1 0 2-.9 2-2s-.9-2-2-2z"/>
                                          <path d="m62 60h-46c-1.1 0-2 .9-2 2s.9 2 2 2h46c1.1 0 2-.9 2-2s-.9-2-2-2z"/>
                                          <path d="m114 48c0-1.1-.9-2-2-2h-30v4h30c1.1 0 2-.9 2-2z"/>
                                          <path d="m82 60h30c1.1 0 2-.9 2-2s-.9-2-2-2h-30z"/>
                                          <path d="m82 70h30c1.1 0 2-.9 2-2s-.9-2-2-2h-30z"/>
                                          <path d="m82 80h30c1.1 0 2-.9 2-2s-.9-2-2-2h-30z"/>
                                         </g>
                                        </g>
                                       </g>
                                      </g>
                                     </g>
                                    </g>
                                   </g>
                                  </g>
                                 </g>
                                </g>
                               </g>
                              </g>
                             </g>
                            </g>
                           </g>
                          </g>
                         </g>
                        </g>
                       </g>
                      </g>
                     </g>
                    </g>
                   </g>
                  </g>
                 </g>
                </g>
               </g>
              </g>
             </g>
            </g>
           </g>
          </g>
         </g>
        </g>
       </g>
      </g>
     </g>
    </g>
   </g>
  </g>
 </g>
</svg>
