<?xml version="1.0" encoding="UTF-8" standalone="no"?>
<svg
   xmlns:dc="http://purl.org/dc/elements/1.1/"
   xmlns:cc="http://creativecommons.org/ns#"
   xmlns:rdf="http://www.w3.org/1999/02/22-rdf-syntax-ns#"
   xmlns:svg="http://www.w3.org/2000/svg"
   xmlns="http://www.w3.org/2000/svg"
   id="svg47"
   version="1.1"
   viewBox="0 0 52.758294 52.758296"
   height="199.40143"
   width="199.40143">
  <defs
     id="defs42">
    <pattern
       id="EMFhbasepattern"
       patternUnits="userSpaceOnUse"
       width="6"
       height="6"
       x="0"
       y="0" />
  </defs>
  <metadata
     id="metadata45">
    <rdf:RDF>
      <cc:Work
         rdf:about="">
        <dc:format>image/svg+xml</dc:format>
        <dc:type
           rdf:resource="http://purl.org/dc/dcmitype/StillImage" />
        <dc:title></dc:title>
      </cc:Work>
    </rdf:RDF>
  </metadata>
  <g
     id="g8556"
     transform="translate(49.836509,-375.23204)">
    <g
       id="g5305">
      <g
         id="g10003"
         transform="translate(-1323.4565,5.8775339)">
        <path
           d="m 1304.4236,397.59416 h -9.3925 a 0.67913706,0.67913706 0 0 0 0,1.35827 h 9.3925 a 0.67913706,0.67913706 0 0 0 0,-1.35827 z"
           id="path2742-8"
           style="fill:#000000;stroke-width:0.339569" />
        <rect
           style="fill:#ffffff;stroke:#000000;stroke-width:0.49999899;stroke-linecap:round;stroke-miterlimit:4;stroke-dasharray:none;stroke-opacity:1;paint-order:fill markers stroke"
           id="rect833-1-5-3-7-4-8-5-1-4-2-8-1-5-8-6-0-5-29"
           width="52.258293"
           x="1273.8553"
           y="369.54422"
           height="52.258293" />
        <text
           xml:space="preserve"
           style="font-size:6.3499999px;line-height:0.94999999;font-family:voestalpine;-inkscape-font-specification:voestalpine;text-align:center;letter-spacing:0px;word-spacing:0px;text-anchor:middle;stroke-width:0.26458299"
           x="1300.3376"
           y="419.54312"
           id="text898-7-3-6-8-3-3-0-66-7-8-8-0-8-3-4-2-6-0"><tspan
             x="1300.3376"
             y="419.54312"
             style="font-size:6.3499999px;text-align:center;text-anchor:middle;stroke-width:0.26458299"
             id="tspan2353-81">Drukuj do PDF</tspan></text>
        <path
           d="m 1307.2284,374.6631 h -15.0021 a 1.6978426,1.6978426 0 0 0 -1.6979,1.69784 v 4.50268 h -2.5739 a 3.3956853,3.3956853 0 0 0 -3.3957,3.39568 v 9.38568 a 3.3956853,3.3956853 0 0 0 3.3957,3.39568 h 2.9033 v 4.12915 a 1.6978426,1.6978426 0 0 0 1.6978,1.69785 h 14.3468 a 1.6978426,1.6978426 0 0 0 1.6979,-1.69785 v -4.12915 h 2.9033 a 3.3956853,3.3956853 0 0 0 3.3956,-3.39568 v -9.38568 a 3.3956853,3.3956853 0 0 0 -3.3956,-3.39568 h -2.5774 v -4.50268 a 1.6978426,1.6978426 0 0 0 -1.6978,-1.69784 z m -15.3451,1.69784 a 0.33956853,0.33956853 0 0 1 0.3396,-0.33957 h 15.0055 a 0.33956853,0.33956853 0 0 1 0.3396,0.33957 v 4.50268 h -15.6813 z m 15.3587,24.80887 a 0.33956853,0.33956853 0 0 1 -0.3396,0.33957 h -14.3502 a 0.33956853,0.33956853 0 0 1 -0.3395,-0.33957 v -9.54187 h 15.0293 z m 6.299,-16.91051 v 9.38568 a 2.0374112,2.0374112 0 0 1 -2.0374,2.03741 h -2.9033 v -4.73359 a 0.67913706,0.67913706 0 0 0 -0.6792,-0.67913 h -16.3876 a 0.67913706,0.67913706 0 0 0 -0.6791,0.67913 v 4.73359 h -2.8999 a 2.0374112,2.0374112 0 0 1 -2.0374,-2.03741 v -9.38568 a 2.0374112,2.0374112 0 0 1 2.0374,-2.03741 h 23.5491 a 2.0374112,2.0374112 0 0 1 2.0374,2.03741 z"
           id="path2736-3"
           style="fill:#000000;stroke-width:0.339569" />
        <path
           d="m 1307.2284,386.21861 a 2.3226487,2.3226487 0 1 0 2.3226,-2.32265 2.3260444,2.3260444 0 0 0 -2.3226,2.32265 z m 2.3226,-0.96437 a 0.96437463,0.96437463 0 1 1 -0.9643,0.96437 0.96437463,0.96437463 0 0 1 0.9643,-0.96437 z"
           id="path2738-9"
           style="fill:#000000;stroke-width:0.339569" />
        <text
           id="text2868"
           y="399.24042"
           x="1292.5479"
           style="font-size:7.73642015px;line-height:1.25;font-family:voestalpine;-inkscape-font-specification:voestalpine;letter-spacing:0px;word-spacing:0px;stroke-width:0.36264399"
           xml:space="preserve"><tspan
             style="stroke-width:0.36264399"
             y="399.24042"
             x="1292.5479"
             id="tspan2866">PDF</tspan></text>
      </g>
    </g>
  </g>
</svg>
