<svg id="SVGRoot" width="205" height="203" version="1.1" viewBox="0 0 205 203" xmlns="http://www.w3.org/2000/svg">
 <g transform="translate(0,2)">
  <g transform="matrix(3.7795 0 0 3.7795 10.171 -6.7758)">
   <g transform="translate(-1.0884 -121.69)">
    <g transform="translate(1.6608 -59.209)">
     <g transform="translate(-.6443 -59.335)">
      <g transform="translate(-1396.8 269.89)">
       <g transform="translate(-57.972 -.024822)">
        <rect x="1453.3" y="-27.585" width="52.396" height="52.396" fill="#0082b4" stroke="#000" stroke-linecap="round" stroke-width=".52068" style="paint-order:fill markers stroke"/>
        <text x="1479.1703" y="12.144518" fill="#ffffff" font-family="sans-serif" font-size="4.9389px" letter-spacing="0px" stroke-width=".26458" text-align="center" text-anchor="middle" word-spacing="0px" style="line-height:1.04999995" xml:space="preserve"><tspan x="1479.1703" y="12.144518" text-align="center">EDYCJA</tspan><tspan x="1479.1703" y="21.034521" text-align="center">RYSUNKÓW</tspan></text>
        <g transform="matrix(.40705 0 0 .40705 1466.3 -23.76)" fill="#fff">
         <path d="m56.807 30.456v-20.165c0-3.653-2.972-6.625-6.625-6.625h-43.051c-3.653 0-6.625 2.972-6.625 6.625v35.192c0 3.653 2.972 6.625 6.625 6.625h25.604c2.772 5.464 8.434 9.226 14.969 9.226 9.258 0 16.79-7.532 16.79-16.79 0-5.902-3.068-11.093-7.687-14.088zm-49.676 18.652c-1.999 0-3.625-1.626-3.625-3.625v-35.192c0-1.999 1.626-3.625 3.625-3.625h43.051c1.999 0 3.625 1.626 3.625 3.625v18.628c-1.895-.743-3.948-1.165-6.103-1.165-.989 0-1.953.103-2.896.268l-4.89-3.975c-.007-.005-.014-.008-.021-.014-.042-.033-.087-.059-.132-.087-.041-.026-.08-.054-.123-.075-.032-.016-.066-.026-.1-.04-.058-.024-.115-.049-.175-.066-.022-.006-.046-.007-.069-.013-.07-.016-.142-.031-.213-.036-.028-.002-.058.001-.086 0-.066-.001-.133-.003-.199.005-.036.004-.071.015-.107.021-.06.011-.119.021-.177.04-.033.011-.065.027-.099.041-.06.023-.118.047-.175.078-.006.004-.013.005-.019.009l-6.792 3.903-8.074-7.523c-.008-.008-.02-.01-.028-.017-.136-.122-.288-.213-.451-.277-.02-.008-.039-.016-.059-.023-.163-.056-.331-.082-.502-.08-.022 0-.044 0-.066.001-.167.009-.332.048-.49.114-.023.009-.045.018-.068.029-.116.055-.228.121-.331.208l-15.289 13.001c-.631.536-.708 1.483-.171 2.114.296.349.719.528 1.143.528.344 0 .689-.117.971-.357l14.275-12.137 11.96 11.146c-2.086 2.798-3.338 6.254-3.338 10.004 0 1.584.235 3.11.647 4.564zm29.119-16.806-2.521-2.349 5.097-2.928 2.469 2.006c-1.881.781-3.58 1.9-5.045 3.271zm11.454 26.032c-7.604 0-13.79-6.187-13.79-13.79s6.187-13.79 13.79-13.79 13.79 6.187 13.79 13.79-6.186 13.79-13.79 13.79z"/>
         <path d="m11.871 20.932c3.488 0 6.326-2.838 6.326-6.326s-2.838-6.326-6.326-6.326-6.326 2.838-6.326 6.326 2.838 6.326 6.326 6.326zm0-9.653c1.834 0 3.326 1.492 3.326 3.326s-1.492 3.326-3.326 3.326-3.326-1.492-3.326-3.326 1.492-3.326 3.326-3.326z"/>
         <path d="m57.783 38.437-3.972-3.973c-.281-.281-.662-.439-1.061-.439-.397 0-.779.158-1.061.439l-9.598 9.598c-.586.586-.586 1.535 0 2.121l3.972 3.973c.281.281.662.439 1.061.439.397 0 .779-.158 1.061-.439l9.598-9.598c.586-.586.586-1.536 0-2.121zm-10.658 8.537-1.851-1.852 7.477-7.477 1.851 1.852z"/>
         <path d="m44.643 49.784-2.813.636.636-2.815c.183-.808-.324-1.611-1.133-1.793-.81-.186-1.611.324-1.793 1.133l-1.158 5.131c-.002.01-.002.02-.004.028-.011.056-.016.112-.021.169-.004.045-.01.089-.011.133.001.044.007.088.011.132.005.058.01.114.021.17.002.01.002.019.004.028.003.013.011.021.014.034.04.156.099.306.184.44.002.003.005.006.007.009.082.127.186.236.303.334.016.013.028.027.045.039.113.087.24.156.379.209.027.011.056.019.084.028.04.012.077.029.118.039.109.025.218.036.325.036.001 0 .003.001.004.001h.002c.001 0 .003-.001.004-.001.107 0 .216-.011.325-.036l5.129-1.158c.809-.183 1.315-.985 1.133-1.793-.185-.809-.986-1.315-1.795-1.133z"/>
        </g>
       </g>
      </g>
     </g>
    </g>
   </g>
  </g>
 </g>
</svg>
