<?xml version="1.0" encoding="UTF-8" standalone="no"?>
<svg
   xmlns:dc="http://purl.org/dc/elements/1.1/"
   xmlns:cc="http://creativecommons.org/ns#"
   xmlns:rdf="http://www.w3.org/1999/02/22-rdf-syntax-ns#"
   xmlns:svg="http://www.w3.org/2000/svg"
   xmlns="http://www.w3.org/2000/svg"
   id="SVGRoot"
   version="1.1"
   viewBox="0 0 200 200"
   height="200px"
   width="200px">
  <defs
     id="defs271" />
  <metadata
     id="metadata274">
    <rdf:RDF>
      <cc:Work
         rdf:about="">
        <dc:format>image/svg+xml</dc:format>
        <dc:type
           rdf:resource="http://purl.org/dc/dcmitype/StillImage" />
        <dc:title></dc:title>
      </cc:Work>
    </rdf:RDF>
  </metadata>
  <g
     id="layer1">
    <g
       id="g798"
       style="display:inline"
       transform="matrix(3.7795276,0,0,3.7795276,-5492.4992,105.89665)">
      <rect
         style="fill:#0082b4;fill-opacity:1;stroke:#000000;stroke-width:0.520679;stroke-linecap:round;stroke-miterlimit:4;stroke-dasharray:none;paint-order:fill markers stroke"
         id="rect835-2-0-2-8-1-5-6-8-9-7-3-0-5-5-1-5-4-5-2-4-0-7-9-0-2-0"
         width="52.395985"
         height="52.395985"
         x="1453.3435"
         y="-27.584515" />
      <text
         id="text858-5-83-73-7-0-7-0-7-9-81-0-29"
         y="14.330747"
         x="1479.1703"
         style="font-size:8.46667004px;line-height:1.04999995;font-family:voestalpine;-inkscape-font-specification:voestalpine;text-align:center;letter-spacing:0px;word-spacing:0px;text-anchor:middle;stroke-width:0.26458299"
         xml:space="preserve"><tspan
           style="font-size:8.46667004px;text-align:center;text-anchor:middle;fill:#ffffff;fill-opacity:1;stroke-width:0.26458299"
           y="14.330747"
           x="1479.1703"
           id="tspan2108-0-1-7">EDYCJA</tspan><tspan
           id="tspan2779"
           style="font-size:8.46667004px;text-align:center;text-anchor:middle;fill:#ffffff;fill-opacity:1;stroke-width:0.26458299"
           y="23.220749"
           x="1479.1703">RYSUNKÓW</tspan></text>
      <g
         transform="matrix(0.40705127,0,0,0.40705127,1466.3123,-23.760216)"
         id="g2777"
         style="fill:#ffffff;fill-opacity:1">
        <path
           style="fill:#ffffff;fill-opacity:1"
           d="M 56.807,30.456 V 10.291 c 0,-3.653 -2.972,-6.625 -6.625,-6.625 H 7.131 c -3.653,0 -6.625,2.972 -6.625,6.625 v 35.192 c 0,3.653 2.972,6.625 6.625,6.625 h 25.604 c 2.772,5.464 8.434,9.226 14.969,9.226 9.258,0 16.79,-7.532 16.79,-16.79 0,-5.902 -3.068,-11.093 -7.687,-14.088 z M 7.131,49.108 c -1.999,0 -3.625,-1.626 -3.625,-3.625 V 10.291 c 0,-1.999 1.626,-3.625 3.625,-3.625 h 43.051 c 1.999,0 3.625,1.626 3.625,3.625 v 18.628 c -1.895,-0.743 -3.948,-1.165 -6.103,-1.165 -0.989,0 -1.953,0.103 -2.896,0.268 l -4.89,-3.975 C 39.911,24.042 39.904,24.039 39.897,24.033 39.855,24 39.81,23.974 39.765,23.946 c -0.041,-0.026 -0.08,-0.054 -0.123,-0.075 -0.032,-0.016 -0.066,-0.026 -0.1,-0.04 -0.058,-0.024 -0.115,-0.049 -0.175,-0.066 -0.022,-0.006 -0.046,-0.007 -0.069,-0.013 -0.07,-0.016 -0.142,-0.031 -0.213,-0.036 -0.028,-0.002 -0.058,10e-4 -0.086,0 -0.066,-0.001 -0.133,-0.003 -0.199,0.005 -0.036,0.004 -0.071,0.015 -0.107,0.021 -0.06,0.011 -0.119,0.021 -0.177,0.04 -0.033,0.011 -0.065,0.027 -0.099,0.041 -0.06,0.023 -0.118,0.047 -0.175,0.078 -0.006,0.004 -0.013,0.005 -0.019,0.009 l -6.792,3.903 -8.074,-7.523 c -0.008,-0.008 -0.02,-0.01 -0.028,-0.017 -0.136,-0.122 -0.288,-0.213 -0.451,-0.277 -0.02,-0.008 -0.039,-0.016 -0.059,-0.023 -0.163,-0.056 -0.331,-0.082 -0.502,-0.08 -0.022,0 -0.044,0 -0.066,10e-4 -0.167,0.009 -0.332,0.048 -0.49,0.114 -0.023,0.009 -0.045,0.018 -0.068,0.029 -0.116,0.055 -0.228,0.121 -0.331,0.208 L 6.073,33.246 c -0.631,0.536 -0.708,1.483 -0.171,2.114 0.296,0.349 0.719,0.528 1.143,0.528 0.344,0 0.689,-0.117 0.971,-0.357 L 22.291,23.394 34.251,34.54 c -2.086,2.798 -3.338,6.254 -3.338,10.004 0,1.584 0.235,3.11 0.647,4.564 z m 29.119,-16.806 -2.521,-2.349 5.097,-2.928 2.469,2.006 c -1.881,0.781 -3.58,1.9 -5.045,3.271 z m 11.454,26.032 c -7.604,0 -13.79,-6.187 -13.79,-13.79 0,-7.603 6.187,-13.79 13.79,-13.79 7.603,0 13.79,6.187 13.79,13.79 0,7.603 -6.186,13.79 -13.79,13.79 z"
           id="path2757" />
        <path
           style="fill:#ffffff;fill-opacity:1"
           d="m 11.871,20.932 c 3.488,0 6.326,-2.838 6.326,-6.326 0,-3.488 -2.838,-6.326 -6.326,-6.326 -3.488,0 -6.326,2.838 -6.326,6.326 0,3.488 2.838,6.326 6.326,6.326 z m 0,-9.653 c 1.834,0 3.326,1.492 3.326,3.326 0,1.834 -1.492,3.326 -3.326,3.326 -1.834,0 -3.326,-1.492 -3.326,-3.326 0,-1.834 1.492,-3.326 3.326,-3.326 z"
           id="path2759" />
        <path
           style="fill:#ffffff;fill-opacity:1"
           d="m 57.783,38.437 -3.972,-3.973 c -0.281,-0.281 -0.662,-0.439 -1.061,-0.439 -0.397,0 -0.779,0.158 -1.061,0.439 l -9.598,9.598 c -0.586,0.586 -0.586,1.535 0,2.121 l 3.972,3.973 c 0.281,0.281 0.662,0.439 1.061,0.439 0.397,0 0.779,-0.158 1.061,-0.439 l 9.598,-9.598 c 0.586,-0.586 0.586,-1.536 0,-2.121 z m -10.658,8.537 -1.851,-1.852 7.477,-7.477 1.851,1.852 z"
           id="path2761" />
        <path
           style="fill:#ffffff;fill-opacity:1"
           d="m 44.643,49.784 -2.813,0.636 0.636,-2.815 c 0.183,-0.808 -0.324,-1.611 -1.133,-1.793 -0.81,-0.186 -1.611,0.324 -1.793,1.133 l -1.158,5.131 c -0.002,0.01 -0.002,0.02 -0.004,0.028 -0.011,0.056 -0.016,0.112 -0.021,0.169 -0.004,0.045 -0.01,0.089 -0.011,0.133 0.001,0.044 0.007,0.088 0.011,0.132 0.005,0.058 0.01,0.114 0.021,0.17 0.002,0.01 0.002,0.019 0.004,0.028 0.003,0.013 0.011,0.021 0.014,0.034 0.04,0.156 0.099,0.306 0.184,0.44 0.002,0.003 0.005,0.006 0.007,0.009 0.082,0.127 0.186,0.236 0.303,0.334 0.016,0.013 0.028,0.027 0.045,0.039 0.113,0.087 0.24,0.156 0.379,0.209 0.027,0.011 0.056,0.019 0.084,0.028 0.04,0.012 0.077,0.029 0.118,0.039 0.109,0.025 0.218,0.036 0.325,0.036 10e-4,0 0.003,10e-4 0.004,10e-4 h 10e-4 0.001 c 10e-4,0 0.003,-10e-4 0.004,-10e-4 0.107,0 0.216,-0.011 0.325,-0.036 l 5.129,-1.158 c 0.809,-0.183 1.315,-0.985 1.133,-1.793 -0.185,-0.809 -0.986,-1.315 -1.795,-1.133 z"
           id="path2763" />
      </g>
    </g>
  </g>
</svg>
