<svg id="SVGRoot" width="205" height="203" version="1.1" viewBox="0 0 205 203" xmlns="http://www.w3.org/2000/svg">
 <g transform="translate(0,2)">
  <g transform="matrix(3.7795 0 0 3.7795 10.171 -6.7758)">
   <g transform="translate(-1.0884 -121.69)">
    <g transform="translate(1.6608 -59.209)">
     <g transform="translate(-.6443 -59.335)">
      <g transform="translate(-1396.8 269.89)">
       <rect x="1395.2" y="-27.585" width="52.396" height="52.396" fill="#0082b4" stroke="#000" stroke-linecap="round" stroke-width=".52068" style="paint-order:fill markers stroke"/>
       <text x="1421.5212" y="12.194454" fill="#ffffff" font-family="sans-serif" font-size="4.9389px" letter-spacing="0px" stroke-width=".26458" text-align="center" text-anchor="middle" word-spacing="0px" style="line-height:1.04999995" xml:space="preserve"><tspan x="1421.5212" y="12.194454" text-align="center">EDYCJA</tspan><tspan x="1421.5212" y="21.084457" text-align="center">TABEL</tspan></text>
       <text x="1417.636" y="-8.5272741" fill="#0082b4" font-family="voestalpine" font-size="5.6444px" letter-spacing="0px" stroke-width=".26458" word-spacing="0px" style="line-height:1.25" xml:space="preserve"><tspan x="1417.636" y="-8.5272741" fill="#0082b4" stroke-width=".26458">EN</tspan></text>
       <g transform="matrix(1.7999 0 0 1.7999 1406.2 -25.77)" fill="#fff" stroke="#fff" stroke-width=".16668">
        <path d="m13.73 2.2734c-.43656 0-.79637.35781-.79637.79437v1.5377a.25664.25664 0 000 .16467v8.0142a.25631.25631 0 00.05106.15317l1.2143 1.6193a.25631.25631 0 00.41095 0l1.2143-1.6193a.25631.25631 0 00.05106-.15317v-9.7166c0-.43656-.35981-.79437-.79637-.79437zm0 .51056h1.349c.16145 0 .28381.12236.28381.28381v1.365a.25634.25634 0 00-.01501-.00096h-1.9016v-1.364c0-.16145.12235-.2838.28381-.2838zm-12.221.56762c-.24434 0-.44999.20415-.44999.44848v2.8927c0 .0369.0057.0722.01451.10661a.25631.25631 0 00-.01451.0861v7.5182a.25631.25631 0 00.25728.25527h3.639a.25634.25634 0 00.04304 0h3.4267a.25634.25634 0 00.04304 0h3.643a.25631.25631 0 00.25528-.25527v-2.292a.25634.25634 0 000-.043v-2.6554a.25634.25634 0 000-.0425v-2.4852a.25631.25631 0 00-.0145-.0856c.0088-.0347.0145-.07.0145-.10712v-2.8927c0-.24433-.20416-.44849-.44849-.44849zm.06256.51256h10.282v2.764h-3.3652a.25631.25631 0 00-.04404-.004.25631.25631 0 00-.03854.004h-3.3872a.25631.25631 0 00-.04404-.004.25631.25631 0 00-.03804.004h-3.3652zm13.792 1.0797v7.7554l-.95904 1.2769-.95754-1.2769v-7.7544h1.9016a.25634.25634 0 00.01502-.00097zm-13.792 2.1974h3.1499v1.9937h-3.1499zm3.6625 0h2.9572v1.9937h-2.9572zm3.4698 0h3.1499v1.9937h-3.1499zm-7.1323 2.5062h3.1499v2.1854h-3.1499zm3.6625 0h2.9572v2.1854h-2.9572zm3.4698 0h3.1499v2.1854h-3.1499zm-7.1323 2.6979h3.1499v1.801h-3.1499zm3.6625 0h2.9572v1.801h-2.9572zm3.4698 0h3.1499v1.801h-3.1499z" color="#000000" color-rendering="auto" dominant-baseline="auto" fill="#fff" image-rendering="auto" shape-rendering="auto" solid-color="#000000" stroke="#fff" stroke-linecap="round" stroke-linejoin="round" stroke-width=".16668" style="font-feature-settings:normal;font-variant-alternates:normal;font-variant-caps:normal;font-variant-ligatures:normal;font-variant-numeric:normal;font-variant-position:normal;isolation:auto;mix-blend-mode:normal;paint-order:normal;shape-padding:0;text-decoration-color:#000000;text-decoration-line:none;text-decoration-style:solid;text-indent:0;text-orientation:mixed;text-transform:none;white-space:normal"/>
       </g>
      </g>
     </g>
    </g>
   </g>
  </g>
 </g>
</svg>
