<?xml version="1.0" encoding="UTF-8" standalone="no"?>
<svg
   xmlns:dc="http://purl.org/dc/elements/1.1/"
   xmlns:cc="http://creativecommons.org/ns#"
   xmlns:rdf="http://www.w3.org/1999/02/22-rdf-syntax-ns#"
   xmlns:svg="http://www.w3.org/2000/svg"
   xmlns="http://www.w3.org/2000/svg"
   id="svg47"
   version="1.1"
   viewBox="0 0 52.758294 52.758296"
   height="199.40143"
   width="199.40143">
  <defs
     id="defs42">
    <pattern
       id="EMFhbasepattern"
       patternUnits="userSpaceOnUse"
       width="6"
       height="6"
       x="0"
       y="0" />
  </defs>
  <metadata
     id="metadata45">
    <rdf:RDF>
      <cc:Work
         rdf:about="">
        <dc:format>image/svg+xml</dc:format>
        <dc:type
           rdf:resource="http://purl.org/dc/dcmitype/StillImage" />
        <dc:title></dc:title>
      </cc:Work>
    </rdf:RDF>
  </metadata>
  <g
     id="g8556"
     transform="translate(49.836509,-375.23204)">
    <g
       id="g5305">
      <g
         id="g9711"
         transform="translate(-1040.2347,6.2177125)">
        <rect
           style="fill:#ffffff;stroke:#000000;stroke-width:0.49999899;stroke-linecap:round;stroke-miterlimit:4;stroke-dasharray:none;stroke-opacity:1;paint-order:fill markers stroke"
           id="rect833-1-5-3-7-4-8-5-1-4-2-8-1-5-8-6-0-5-6"
           width="52.258293"
           x="990.80359"
           y="369.54422"
           height="52.258293" />
        <text
           xml:space="preserve"
           style="font-size:6.3499999px;line-height:0.94999999;font-family:voestalpine;-inkscape-font-specification:voestalpine;text-align:center;letter-spacing:0px;word-spacing:0px;text-anchor:middle;stroke-width:0.26458299"
           x="1016.7179"
           y="418.78381"
           id="text898-7-3-6-8-3-3-0-66-7-8-8-0-8-3-4-2-6-3"><tspan
             x="1016.7179"
             y="418.78381"
             style="font-size:6.3499999px;text-align:center;text-anchor:middle;stroke-width:0.26458299"
             id="tspan2353-9">Edytuj komentarz</tspan></text>
        <path
           style="fill:#000000;stroke:none;stroke-width:0.59953898;stroke-miterlimit:4;stroke-dasharray:none"
           id="path2246-0"
           d="m 1006.0628,394.92843 h 10.0696 l 8.5744,7.03545 v -7.03545 h 3.0961 c 1.562,0 2.833,-1.29319 2.833,-2.88269 v -14.61388 c 0,-1.58951 -1.2701,-2.8827 -2.833,-2.8827 h -21.7401 c -1.5622,0 -2.8332,1.29319 -2.8332,2.8827 v 14.61301 c 0,1.59037 1.271,2.88356 2.8332,2.88356 z m -1.1202,-17.49657 c 0,-0.64488 0.5017,-1.16988 1.1202,-1.16988 h 21.7401 c 0.6165,0 1.1192,0.525 1.1192,1.16988 v 14.61301 c 0,0.64489 -0.5027,1.16986 -1.1202,1.16986 h -4.8087 v 5.12652 l -6.2485,-5.12652 h -10.6819 c -0.6185,8.6e-4 -1.1202,-0.52411 -1.1202,-1.16899 z" />
        <g
           transform="matrix(0.15169413,0,0,0.15169413,1009.3101,376.72367)"
           id="g2447"
           style="fill:#000000">
          <g
             id="g2434">
            <path
               d="M 52.5,86.2 C 41.9,86.2 31.8,81.9 24.4,74.6 l 11.1,2 L 7.8,46 6.1,87.3 14.6,77.2 c 9.3,11.3 23.2,18 37.9,18 10.7,0 20.9,-3.4 29.5,-9.8 l -5.4,-7.1 c -7,5.1 -15.3,7.9 -24.1,7.9 z"
               id="path2430"
               style="fill:#000000" />
            <path
               d="M 85.9,23.8 C 76.6,12.5 62.7,5.8 48,5.8 37.3,5.8 27.1,9.2 18.5,15.6 l 5.4,7.1 c 7,-5.3 15.3,-8 24.1,-8 10.6,0 20.7,4.3 28.1,11.6 L 65,24.3 92.7,55 94.4,13.7 Z"
               id="path2432"
               style="fill:#000000" />
          </g>
        </g>
      </g>
    </g>
  </g>
</svg>
