<?xml version="1.0" encoding="UTF-8" standalone="no"?>
<svg
   xmlns:dc="http://purl.org/dc/elements/1.1/"
   xmlns:cc="http://creativecommons.org/ns#"
   xmlns:rdf="http://www.w3.org/1999/02/22-rdf-syntax-ns#"
   xmlns:svg="http://www.w3.org/2000/svg"
   xmlns="http://www.w3.org/2000/svg"
   id="SVGRoot"
   version="1.1"
   viewBox="0 0 200 200"
   height="200px"
   width="200px">
  <defs
     id="defs271" />
  <metadata
     id="metadata274">
    <rdf:RDF>
      <cc:Work
         rdf:about="">
        <dc:format>image/svg+xml</dc:format>
        <dc:type
           rdf:resource="http://purl.org/dc/dcmitype/StillImage" />
        <dc:title></dc:title>
      </cc:Work>
    </rdf:RDF>
  </metadata>
  <g
     id="layer1">
    <g
       id="g707"
       style="display:inline"
       transform="matrix(3.7795276,0,0,3.7795276,-5271.1805,105.6779)">
      <rect
         y="-27.584515"
         x="1395.2245"
         height="52.395985"
         width="52.395985"
         id="rect835-2-0-2-8-1-5-6-8-9-7-3-0-5-5-1-5-4-5-2-4-0-7-9-0-2"
         style="fill:#0082b4;fill-opacity:1;stroke:#000000;stroke-width:0.520679;stroke-linecap:round;stroke-miterlimit:4;stroke-dasharray:none;paint-order:fill markers stroke" />
      <text
         id="text858-5-83-73-7-0-7-0-7-9-81-0-7"
         y="14.330747"
         x="1420.9921"
         style="font-size:8.46667004px;line-height:1.04999995;font-family:voestalpine;-inkscape-font-specification:voestalpine;text-align:center;letter-spacing:0px;word-spacing:0px;text-anchor:middle;stroke-width:0.26458299"
         xml:space="preserve"><tspan
           style="font-size:8.46667004px;text-align:center;text-anchor:middle;fill:#ffffff;fill-opacity:1;stroke-width:0.26458299"
           y="14.330747"
           x="1420.9921"
           id="tspan2108-0-1-5">EDYCJA</tspan><tspan
           id="tspan2701"
           style="font-size:8.46667004px;text-align:center;text-anchor:middle;fill:#ffffff;fill-opacity:1;stroke-width:0.26458299"
           y="23.220749"
           x="1420.9921">TABEL</tspan></text>
      <text
         id="text2048-4-8-8-7"
         y="-8.5272741"
         x="1417.636"
         style="font-size:5.64444017px;line-height:1.25;font-family:voestalpine;-inkscape-font-specification:voestalpine;letter-spacing:0px;word-spacing:0px;fill:#0082b4;fill-opacity:1;stroke-width:0.26458299"
         xml:space="preserve"><tspan
           style="fill:#0082b4;fill-opacity:1;stroke-width:0.26458299"
           y="-8.5272741"
           x="1417.636"
           id="tspan2046-6-3-5-9">EN</tspan></text>
      <g
         transform="matrix(1.7998527,0,0,1.7998527,1406.1838,-25.769723)"
         id="g2717"
         style="fill:#ffffff;fill-opacity:1;stroke:#ffffff;stroke-width:0.16667999;stroke-miterlimit:4;stroke-dasharray:none;stroke-opacity:1">
        <path
           id="path2703"
           d="m 13.729651,2.27342 c -0.436563,0 -0.796366,0.35781 -0.796366,0.79437 v 1.53768 a 0.25663901,0.25663901 0 0 0 0,0.16467 v 8.01423 a 0.25630505,0.25630505 0 0 0 0.05106,0.15317 l 1.214324,1.61927 a 0.25630505,0.25630505 0 0 0 0.410947,0 l 1.214323,-1.61927 a 0.25630505,0.25630505 0 0 0 0.05106,-0.15317 V 3.06779 c 0,-0.43656 -0.359814,-0.79437 -0.796369,-0.79437 z m 0,0.51056 h 1.34897 c 0.161449,0 0.28381,0.12236 0.28381,0.28381 v 1.36498 a 0.25634399,0.25634399 0 0 0 -0.01501,-9.6e-4 H 13.445849 V 3.06782 c 0,-0.16145 0.122349,-0.2838 0.283807,-0.2838 z M 1.508328,3.3516 c -0.244336,0 -0.449992,0.20415 -0.449992,0.44848 v 2.89266 c 0,0.0369 0.0057,0.0722 0.01451,0.10661 a 0.25630505,0.25630505 0 0 0 -0.01451,0.0861 v 7.5182 a 0.25630505,0.25630505 0 0 0 0.257282,0.25527 h 3.638968 a 0.25634399,0.25634399 0 0 0 0.04304,0 h 3.426738 a 0.25634399,0.25634399 0 0 0 0.04304,0 h 3.64297 a 0.25630505,0.25630505 0 0 0 0.255277,-0.25527 v -2.29201 a 0.25634399,0.25634399 0 0 0 0,-0.043 V 9.41325 a 0.25634399,0.25634399 0 0 0 0,-0.0425 V 6.88554 a 0.25630505,0.25630505 0 0 0 -0.0145,-0.0856 c 0.0088,-0.0347 0.0145,-0.07 0.0145,-0.10712 V 3.80016 c 0,-0.24433 -0.204155,-0.44849 -0.448489,-0.44849 z m 0.06256,0.51256 h 10.28221 v 2.76401 h -3.36517 a 0.25630505,0.25630505 0 0 0 -0.04404,-0.004 0.25630505,0.25630505 0 0 0 -0.03854,0.004 H 5.018154 a 0.25630505,0.25630505 0 0 0 -0.04404,-0.004 0.25630505,0.25630505 0 0 0 -0.03804,0.004 h -3.36517 z m 13.791535,1.07968 v 7.75544 l -0.959043,1.2769 -0.957545,-1.2769 V 4.94483 h 1.901572 a 0.25634399,0.25634399 0 0 0 0.01502,-9.7e-4 z M 1.570888,7.14123 H 4.720823 V 9.13491 H 1.570888 Z m 3.662494,0 H 8.190606 V 9.13491 H 5.233382 Z m 3.469781,0 h 3.149935 V 9.13491 H 8.703163 Z M 1.570888,9.64746 h 3.149935 v 2.18537 H 1.570888 Z m 3.662494,0 h 2.957224 v 2.18537 H 5.233382 Z m 3.469781,0 h 3.149935 v 2.18537 H 8.703163 Z M 1.570888,12.3454 h 3.149935 v 1.80096 H 1.570888 Z m 3.662494,0 h 2.957224 v 1.80096 H 5.233382 Z m 3.469781,0 h 3.149935 v 1.80096 H 8.703163 Z"
           style="color:#000000;font-style:normal;font-variant:normal;font-weight:normal;font-stretch:normal;font-size:medium;line-height:normal;font-family:sans-serif;font-variant-ligatures:normal;font-variant-position:normal;font-variant-caps:normal;font-variant-numeric:normal;font-variant-alternates:normal;font-feature-settings:normal;text-indent:0;text-align:start;text-decoration:none;text-decoration-line:none;text-decoration-style:solid;text-decoration-color:#000000;letter-spacing:normal;word-spacing:normal;text-transform:none;writing-mode:lr-tb;direction:ltr;text-orientation:mixed;dominant-baseline:auto;baseline-shift:baseline;text-anchor:start;white-space:normal;shape-padding:0;clip-rule:nonzero;display:inline;overflow:visible;visibility:visible;isolation:auto;mix-blend-mode:normal;color-interpolation:sRGB;color-interpolation-filters:linearRGB;solid-color:#000000;solid-opacity:1;vector-effect:none;fill:#ffffff;fill-opacity:1;fill-rule:nonzero;stroke:#ffffff;stroke-width:0.16667999;stroke-linecap:round;stroke-linejoin:round;stroke-miterlimit:4;stroke-dasharray:none;stroke-dashoffset:0;stroke-opacity:1;paint-order:normal;color-rendering:auto;image-rendering:auto;shape-rendering:auto;text-rendering:auto;enable-background:accumulate" />
      </g>
    </g>
  </g>
</svg>
