<svg id="SVGRoot" width="206px" height="206px" version="1.1" viewBox="0 0 206 206" xmlns="http://www.w3.org/2000/svg">
 <g transform="matrix(3.7795 0 0 3.7795 -5465.1 -1392.5)">
  <g transform="translate(456.64 -2.9271e-6)">
   <rect x="990.8" y="369.54" width="52.258" height="52.258" fill="#fff" stroke="#000" stroke-linecap="round" stroke-width=".5" style="paint-order:fill markers stroke"/>
   <text x="1016.7179" y="417.67203" font-family="sans-serif" font-size="6.35px" letter-spacing="0px" stroke-width=".26458" text-align="center" text-anchor="middle" word-spacing="0px" style="line-height:0.94999999" xml:space="preserve"><tspan x="1016.7179" y="417.67203" font-family="sans-serif" font-size="4.9389px" stroke-width=".26458" text-align="center" text-anchor="middle">Edytuj komentarz</tspan></text>
   <path d="m1006.1 394.93h10.07l8.5744 7.0354v-7.0354h3.0961c1.562 0 2.833-1.2932 2.833-2.8827v-14.614c0-1.5895-1.2701-2.8827-2.833-2.8827h-21.74c-1.5622 0-2.8332 1.2932-2.8332 2.8827v14.613c0 1.5904 1.271 2.8836 2.8332 2.8836zm-1.1202-17.497c0-.64488.5017-1.1699 1.1202-1.1699h21.74c.6165 0 1.1192.525 1.1192 1.1699v14.613c0 .64489-.5027 1.1699-1.1202 1.1699h-4.8087v5.1265l-6.2485-5.1265h-10.682c-.6185.00086-1.1202-.52411-1.1202-1.169z"/>
   <g transform="matrix(.15169 0 0 .15169 1009.3 376.72)">
    <g>
     <path d="m52.5 86.2c-10.6 0-20.7-4.3-28.1-11.6l11.1 2-27.7-30.6-1.7 41.3 8.5-10.1c9.3 11.3 23.2 18 37.9 18 10.7 0 20.9-3.4 29.5-9.8l-5.4-7.1c-7 5.1-15.3 7.9-24.1 7.9z"/>
     <path d="m85.9 23.8c-9.3-11.3-23.2-18-37.9-18-10.7 0-20.9 3.4-29.5 9.8l5.4 7.1c7-5.3 15.3-8 24.1-8 10.6 0 20.7 4.3 28.1 11.6l-11.1-2 27.7 30.7 1.7-41.3z"/>
    </g>
   </g>
  </g>
 </g>
</svg>
