<svg id="SVGRoot" width="208" height="208" version="1.1" viewBox="0 0 208 208" xmlns="http://www.w3.org/2000/svg">
 <g transform="translate(0,7)">
  <g transform="matrix(3.7795 0 0 3.7795 10.171 -6.7758)">
   <g transform="translate(-1.0884 -121.69)">
    <g transform="translate(1.6608 -59.209)">
     <g transform="translate(-.6443 -59.335)">
      <g transform="translate(-1396.8 269.89)">
       <g transform="translate(-57.972 -.024822)">
        <g transform="translate(1658.1 73.867)">
         <g transform="translate(-203.03 -103.33)">
          <flowRoot transform="matrix(.26458 0 0 .26458 -2.875 1.091)" fill="#000000" font-family="sans-serif" font-size="40px" letter-spacing="0px" word-spacing="0px" style="line-height:1.25" xml:space="preserve"><flowRegion><rect x="-85.582" y="-60.812" width="342.33" height="293.65"/></flowRegion><flowPara/></flowRoot>
          <g transform="translate(-1039.4 318.88)">
           <flowRoot transform="matrix(.26458 0 0 .26458 1036.5 -317.79)" fill="#000000" font-family="sans-serif" font-size="40px" letter-spacing="0px" word-spacing="0px" style="line-height:1.25" xml:space="preserve"><flowRegion><rect x="-105.21" y="-13.703" width="562.17" height="513.49"/></flowRegion><flowPara/></flowRoot>
           <g transform="translate(-66.134 .039287)">
            <g transform="translate(-66.173 .043409)">
             <flowRoot transform="matrix(.26458 0 0 .26458 1168.8 -317.87)" fill="#000000" font-family="sans-serif" font-size="40px" letter-spacing="0px" word-spacing="0px" style="line-height:1.25" xml:space="preserve"><flowRegion><rect x="-114.63" y="-91.434" width="675.23" height="522.91"/></flowRegion><flowPara/></flowRoot>
             <g transform="translate(-66.2 -.040316)">
              <g transform="translate(-65.918 -.60254)">
               <g transform="translate(-66.6 .14883)">
                <flowRoot fill="black" font-family="sans-serif" font-size="40px" letter-spacing="0px" word-spacing="0px" style="line-height:1.25" xml:space="preserve"><flowRegion><rect x="-24.34" y="-19.695" width="252.04" height="245.75"/></flowRegion><flowPara/></flowRoot>
                <g transform="translate(-68.678 -.48293)">
                 <flowRoot fill="black" font-family="sans-serif" font-size="40px" letter-spacing="0px" word-spacing="0px" style="line-height:1.25" xml:space="preserve"><flowRegion><rect x="-65.168" y="-26.762" width="382.37" height="335.26"/></flowRegion><flowPara/></flowRoot>
                 <g transform="translate(-63.347 .4912)">
                  <g transform="translate(529.82 -.18087)">
                   <g transform="translate(794.67 .06923)">
                    <g transform="translate(-198.36 .17569)">
                     <g transform="translate(-530.68 .043413)">
                      <g transform="translate(912.04 -.041317)">
                       <rect x="-6.4936" y="-317.37" width="52.917" height="52.917" fill="#ffec8e" stroke="#000" stroke-linecap="round" stroke-width=".5" style="paint-order:fill markers stroke"/>
                       <text x="19.777176" y="-268.99216" fill="#000000" font-family="sans-serif" font-size="6.35px" letter-spacing="0px" stroke-width=".26458" text-align="center" text-anchor="middle" word-spacing="0px" style="line-height:1.25" xml:space="preserve"><tspan x="19.777176" y="-268.99216" fill="#000000" font-family="sans-serif" class="svgT" letter-spacing=".5px" font-size="5.2px" stroke-width=".26458" text-align="center" text-anchor="middle">Homoglify ms</tspan></text>
                       <g transform="matrix(.30073 0 0 .2954 4.9284 -312.23)">
                        <path d="m92.2 10.5h-84.4c-3.7 0-6.8 3-6.8 6.8v65.5c0 3.7 3 6.8 6.8 6.8h84.4c3.7 0 6.8-3 6.8-6.8v-65.6c0-3.7-3.1-6.7-6.8-6.7zm-84.4 3.5h84.4c1.8 0 3.3 1.5 3.3 3.3v12.1h-91v-12.2c0-1.8 1.5-3.2 3.3-3.2zm84.4 72h-84.4c-1.8 0-3.3-1.5-3.3-3.3v-49.8h91v49.9c0 1.8-1.5 3.2-3.3 3.2zm-81.2-63.1c-.3-.3-.5-.8-.5-1.2s.2-.9.5-1.2c.7-.6 1.8-.6 2.5 0 .3.3.5.8.5 1.2s-.2.9-.5 1.2-.8.5-1.2.5-1-.2-1.3-.5zm9.4 0c-.3-.3-.5-.8-.5-1.2s.2-.9.5-1.2c.6-.6 1.8-.6 2.5 0 .3.3.5.8.5 1.2s-.2.9-.5 1.2-.8.5-1.2.5-1-.2-1.3-.5zm9.5 0c-.3-.3-.5-.8-.5-1.2s.2-.9.5-1.2c.6-.6 1.8-.6 2.5 0 .3.3.5.8.5 1.2s-.2.9-.5 1.2-.8.5-1.2.5-1-.2-1.3-.5zm51.1 35.4c.4.3.6.8.6 1.3s-.2 1-.6 1.3l-14.8 12.7c-.4.3-.8.4-1.2.4-.5 0-1-.2-1.3-.6-.6-.7-.5-1.8.2-2.5l13.3-11.3-13.3-11.2c-.7-.6-.8-1.7-.2-2.5.6-.7 1.7-.8 2.5-.2zm-44.9 12.6c.7.6.8 1.7.2 2.5-.3.4-.8.6-1.3.6-.4 0-.8-.1-1.1-.4l-14.9-12.6c-.4-.3-.6-.8-.6-1.3s.2-1 .6-1.3l14.8-12.6c.7-.6 1.8-.5 2.5.2s.5 1.8-.2 2.5l-13.3 11.2zm21.8-26.3-12.6 31.5c-.3.7-.9 1.1-1.6 1.1-.2 0-.4 0-.6-.1-.9-.4-1.3-1.4-1-2.3l12.6-31.5c.4-.9 1.4-1.3 2.3-1 .8.4 1.2 1.4.9 2.3z"/>
                       </g>
                      </g>
                     </g>
                    </g>
                   </g>
                  </g>
                 </g>
                </g>
               </g>
              </g>
             </g>
            </g>
           </g>
          </g>
         </g>
        </g>
       </g>
      </g>
     </g>
    </g>
   </g>
  </g>
 </g>
</svg>
