<svg id="SVGRoot" width="206px" height="206px" version="1.1" viewBox="0 0 206 206" xmlns="http://www.w3.org/2000/svg">
 <g transform="matrix(3.7795 0 0 3.7795 -1795.2 2502.6)">
  <flowRoot fill="black" font-family="sans-serif" font-size="40px" letter-spacing="0px" word-spacing="0px" style="line-height:1.25" xml:space="preserve"><flowRegion><rect x="-392.69" y="-63.57" width="758.02" height="397.52"/></flowRegion><flowPara/></flowRoot>
  <flowRoot fill="black" font-family="sans-serif" font-size="40px" letter-spacing="0px" word-spacing="0px" style="line-height:1.25" xml:space="preserve"><flowRegion><rect x="-251.87" y="-84.492" width="624.44" height="455.45"/></flowRegion><flowPara/></flowRoot>
  <flowRoot fill="black" font-family="sans-serif" font-size="40px" letter-spacing="0px" word-spacing="0px" style="line-height:1.25" xml:space="preserve"><flowRegion><rect x="-202.78" y="-50.695" width="473.96" height="281.64"/></flowRegion><flowPara/></flowRoot>
  <flowRoot fill="black" font-family="sans-serif" font-size="40px" letter-spacing="0px" word-spacing="0px" style="line-height:1.25" xml:space="preserve"><flowRegion><rect x="-86.906" y="-78.859" width="516.61" height="410.39"/></flowRegion><flowPara/></flowRoot>
  <flowRoot fill="black" font-family="sans-serif" font-size="40px" letter-spacing="0px" word-spacing="0px" style="line-height:1.25" xml:space="preserve"><flowRegion><rect x="-81.273" y="-32.188" width="309" height="322.68"/></flowRegion><flowPara/></flowRoot>
  <flowRoot fill="black" font-family="sans-serif" font-size="40px" letter-spacing="0px" word-spacing="0px" style="line-height:1.25" xml:space="preserve"><flowRegion><rect x="-90.93" y="-68.398" width="392.69" height="252.67"/></flowRegion><flowPara/></flowRoot>
  <g transform="translate(675.17 -.21291)">
   <flowRoot fill="black" font-family="sans-serif" font-size="40px" letter-spacing="0px" word-spacing="0px" style="line-height:1.25" xml:space="preserve"><flowRegion><rect x="-100.59" y="-53.109" width="462.7" height="369.35"/></flowRegion><flowPara/></flowRoot>
   <g transform="translate(57.194 .21291)">
    <rect x="-256.12" y="-660.87" width="52.396" height="52.396" fill="#db3b3b" stroke="#000" stroke-linecap="round" stroke-width=".52068" style="paint-order:fill markers stroke"/>
    <text x="-230.17055" y="-619.8811" fill="#ffffff" font-family="sans-serif" font-size="4.9389px" letter-spacing="0px" stroke-width=".26458" text-align="center" text-anchor="middle" word-spacing="0px" style="line-height:1.25" xml:space="preserve"><tspan x="-230.17055" y="-619.8811" text-align="center">Identyfikator</tspan><tspan x="-230.17055" y="-611.9436" text-align="center">dokumentu</tspan></text>
    <g transform="matrix(.077335 0 0 .077335 -249.75 -663.65)" fill="#fff" stroke="#fffff7" stroke-width="5.3574">
     <g fill="#fff" stroke="#fffff7" stroke-width="5.3574">
      <path d="m468.22 113.9h-423.5c-18.628 0-33.783 15.152-33.783 33.777v217.58c0 18.63 15.155 33.787 33.783 33.787h423.5c18.628 0 33.782-15.157 33.782-33.787v-217.58c0-18.624-15.154-33.776-33.782-33.776zm21.782 251.35c0 12.014-9.771 21.787-21.782 21.787h-423.5c-12.011 0-21.783-9.773-21.783-21.787v-217.58c0-12.008 9.772-21.777 21.783-21.777h423.5c12.011 0 21.782 9.769 21.782 21.776z"/>
      <path d="m190.66 170.96h-85.79c-23.49 0-42.6 19.113-42.6 42.606v85.795c0 23.486 19.11 42.594 42.6 42.594h85.79c23.493 0 42.605-19.107 42.605-42.594v-85.795c0-23.493-19.112-42.606-42.605-42.606zm30.605 128.4c0 16.869-13.729 30.594-30.605 30.594h-85.79c-16.873 0-30.6-13.725-30.6-30.594v-85.795c0-16.876 13.727-30.606 30.6-30.606h85.79c16.875 0 30.605 13.73 30.605 30.606z"/>
      <path d="m444.67 189.13h-163.63c-3.313 0-6 2.687-6 6s2.687 6 6 6h163.63c3.313 0 6-2.687 6-6s-2.687-6-6-6z"/>
      <path d="m444.67 250.43h-163.63c-3.313 0-6 2.687-6 6s2.687 6 6 6h163.63c3.313 0 6-2.687 6-6s-2.687-6-6-6z"/>
      <path d="m444.67 311.81h-163.63c-3.313 0-6 2.687-6 6s2.687 6 6 6h163.63c3.313 0 6-2.687 6-6s-2.687-6-6-6z"/>
     </g>
    </g>
   </g>
  </g>
 </g>
</svg>
