<svg id="SVGRoot" width="206px" height="206px" version="1.1" viewBox="0 0 206 206" xmlns="http://www.w3.org/2000/svg">
 <g transform="matrix(3.7795 0 0 3.7795 -5465.1 -1392.5)">
  <g transform="translate(-339.59 .29287)">
   <rect x="1786.6" y="369.25" width="52.258" height="52.258" fill="#fff" stroke="#000" stroke-linecap="round" stroke-width=".5" style="paint-order:fill markers stroke"/>
   <text x="1812.5999" y="406.25949" font-family="sans-serif" font-size="4.9389px" letter-spacing="0px" stroke-width=".26458" text-align="center" text-anchor="middle" word-spacing="0px" style="line-height:0.94999999" xml:space="preserve"><tspan x="1812.5999" y="406.25949" text-align="center">Idź do</tspan><tspan x="1812.5999" y="412.29199" text-align="center">następnego</tspan><tspan x="1812.5999" y="418.32449" text-align="center">komentarza</tspan></text>
   <g transform="translate(.1951)">
    <path d="m1812.9 383.75h4.6493l3.9589 3.2484v-3.2484h1.4295c.7212 0 1.3081-.59708 1.3081-1.331v-6.7474c0-.7339-.5864-1.331-1.3081-1.331h-10.038c-.7213 0-1.3081.59708-1.3081 1.331v6.747c0 .7343.5868 1.3314 1.3081 1.3314zm-.5172-8.0784c0-.29775.2317-.54015.5172-.54015h10.038c.2847 0 .5168.2424.5168.54015v6.747c0 .29776-.2321.54014-.5172.54014h-2.2203v2.367l-2.885-2.367h-4.932c-.2855 4e-4-.5172-.24198-.5172-.53974z"/>
    <path d="m1812.9 398.65h4.6493l3.9589 3.2484v-3.2484h1.4295c.7212 0 1.3081-.59708 1.3081-1.331v-6.7474c0-.7339-.5864-1.331-1.3081-1.331h-10.038c-.7213 0-1.3081.59708-1.3081 1.331v6.747c0 .7343.5868 1.3314 1.3081 1.3314zm-.5172-8.0784c0-.29775.2317-.54015.5172-.54015h10.038c.2847 0 .5168.2424.5168.54015v6.747c0 .29776-.2321.54014-.5172.54014h-2.2203v2.367l-2.885-2.367h-4.932c-.2855 4e-4-.5172-.24198-.5172-.53974z"/>
    <path d="m1803.5 392.47c-1.2938-2.8962-1.2853-6.3653.074-9.4361.9896-2.2351 2.5811-4.0789 4.5964-5.3353l.8537 1.7273c-1.6574 1.0149-2.9398 2.5209-3.7537 4.3591-.9804 2.2143-1.0948 4.687-.3877 6.8488l.6454-2.4875 3.2898 8.3772-8.0294-3.1303z" stroke-width=".21822"/>
   </g>
  </g>
 </g>
</svg>
