<?xml version="1.0" encoding="UTF-8" standalone="no"?>
<svg
   xmlns:dc="http://purl.org/dc/elements/1.1/"
   xmlns:cc="http://creativecommons.org/ns#"
   xmlns:rdf="http://www.w3.org/1999/02/22-rdf-syntax-ns#"
   xmlns:svg="http://www.w3.org/2000/svg"
   xmlns="http://www.w3.org/2000/svg"
   id="svg47"
   version="1.1"
   viewBox="0 0 52.758294 52.758296"
   height="199.40143"
   width="199.40143">
  <defs
     id="defs42">
    <pattern
       id="EMFhbasepattern"
       patternUnits="userSpaceOnUse"
       width="6"
       height="6"
       x="0"
       y="0" />
  </defs>
  <metadata
     id="metadata45">
    <rdf:RDF>
      <cc:Work
         rdf:about="">
        <dc:format>image/svg+xml</dc:format>
        <dc:type
           rdf:resource="http://purl.org/dc/dcmitype/StillImage" />
        <dc:title></dc:title>
      </cc:Work>
    </rdf:RDF>
  </metadata>
  <g
     id="g8556"
     transform="translate(49.836509,-375.23204)">
    <g
       id="g5305">
      <g
         id="g10595"
         transform="translate(-1892.9768,6.075917)">
        <rect
           style="fill:#ffffff;stroke:#000000;stroke-width:0.49999899;stroke-linecap:round;stroke-miterlimit:4;stroke-dasharray:none;stroke-opacity:1;paint-order:fill markers stroke"
           id="rect833-1-5-3-7-4-8-5-1-4-2-8-1-5-8-6-0-5-58-4-8-8-2-4-0"
           width="52.258293"
           x="1843.4695"
           y="369.25134"
           height="52.258293" />
        <text
           xml:space="preserve"
           style="font-size:6.3499999px;line-height:0.94999999;font-family:voestalpine;-inkscape-font-specification:voestalpine;text-align:center;letter-spacing:0px;word-spacing:0px;text-anchor:middle;stroke-width:0.26458299"
           x="1869.4955"
           y="408.45581"
           id="text898-7-3-6-8-3-3-0-66-7-8-8-0-8-3-4-2-6-22-3-3-4-7-0-2"><tspan
             id="tspan3280-8-2"
             x="1869.4955"
             y="408.45581"
             style="font-size:6.3499999px;text-align:center;text-anchor:middle;stroke-width:0.26458299">Idź do</tspan><tspan
             id="tspan3662"
             x="1869.4955"
             y="414.48831"
             style="font-size:6.3499999px;text-align:center;text-anchor:middle;stroke-width:0.26458299">poprzedniego</tspan><tspan
             id="tspan3664"
             x="1869.4955"
             y="420.52081"
             style="font-size:6.3499999px;text-align:center;text-anchor:middle;stroke-width:0.26458299">komentarza</tspan></text>
        <g
           transform="translate(2.1421875e-5)"
           id="g7088">
          <path
             style="fill:#000000;stroke:none;stroke-width:0.276815;stroke-miterlimit:4;stroke-dasharray:none"
             id="path2246-0-3-5-3"
             d="m 1870.0025,384.82759 h 4.6493 l 3.9589,3.24837 v -3.24837 h 1.4295 c 0.7212,0 1.3081,-0.59708 1.3081,-1.33098 v -6.74744 c 0,-0.7339 -0.5864,-1.33098 -1.3081,-1.33098 h -10.0377 c -0.7213,0 -1.3081,0.59708 -1.3081,1.33098 v 6.74704 c 0,0.7343 0.5868,1.33138 1.3081,1.33138 z m -0.5172,-8.07842 c 0,-0.29775 0.2317,-0.54015 0.5172,-0.54015 h 10.0377 c 0.2847,0 0.5168,0.2424 0.5168,0.54015 v 6.74704 c 0,0.29776 -0.2321,0.54014 -0.5172,0.54014 h -2.2203 v 2.36699 l -2.885,-2.36699 h -4.932 c -0.2855,4e-4 -0.5172,-0.24198 -0.5172,-0.53974 z" />
          <path
             d="m 1869.9684,399.73315 h 4.6493 l 3.9589,3.24837 v -3.24837 h 1.4295 c 0.7212,0 1.3081,-0.59708 1.3081,-1.33098 v -6.74744 c 0,-0.7339 -0.5864,-1.33098 -1.3081,-1.33098 h -10.0377 c -0.7213,0 -1.3081,0.59708 -1.3081,1.33098 v 6.74704 c 0,0.7343 0.5868,1.33138 1.3081,1.33138 z m -0.5172,-8.07842 c 0,-0.29775 0.2317,-0.54015 0.5172,-0.54015 h 10.0377 c 0.2847,0 0.5168,0.2424 0.5168,0.54015 v 6.74704 c 0,0.29776 -0.2321,0.54014 -0.5172,0.54014 h -2.2203 v 2.36699 l -2.885,-2.36699 h -4.932 c -0.2855,4e-4 -0.5172,-0.24198 -0.5172,-0.53974 z"
             id="path2246-0-3-1-6-4"
             style="fill:#000000;stroke:none;stroke-width:0.276815;stroke-miterlimit:4;stroke-dasharray:none" />
          <path
             d="m 1860.5603,382.82857 c -1.2938,2.89625 -1.2853,6.36532 0.074,9.43608 0.9896,2.23514 2.5811,4.07892 4.5964,5.33531 l 0.8537,-1.72729 c -1.6574,-1.01487 -2.9398,-2.52091 -3.7537,-4.35913 -0.9804,-2.21428 -1.0948,-4.68705 -0.3877,-6.84879 l 0.6454,2.48749 3.2898,-8.37722 -8.0294,3.13026 z"
             id="path2432-6-5-6"
             style="fill:#000000;stroke-width:0.218225" />
        </g>
      </g>
    </g>
  </g>
</svg>
