<svg id="SVGRoot" width="208" height="208" version="1.1" viewBox="0 0 208 208" xmlns="http://www.w3.org/2000/svg">
 <g transform="translate(0,7)">
  <g transform="matrix(3.7795 0 0 3.7795 10.171 -6.7758)">
   <g transform="translate(-1.0884 -121.69)">
    <g transform="translate(1.6608 -59.209)">
     <g transform="translate(-.6443 -59.335)">
      <g transform="translate(-1396.8 269.89)">
       <g transform="translate(-57.972 -.024822)">
        <g transform="translate(1658.1 73.867)">
         <g transform="translate(-203.03 -103.33)">
          <flowRoot transform="matrix(.26458 0 0 .26458 -2.875 1.091)" fill="#000000" font-family="sans-serif" font-size="40px" letter-spacing="0px" word-spacing="0px" style="line-height:1.25" xml:space="preserve"><flowRegion><rect x="-85.582" y="-60.812" width="342.33" height="293.65"/></flowRegion><flowPara/></flowRoot>
          <g transform="translate(-1039.4 318.88)">
           <flowRoot transform="matrix(.26458 0 0 .26458 1036.5 -317.79)" fill="#000000" font-family="sans-serif" font-size="40px" letter-spacing="0px" word-spacing="0px" style="line-height:1.25" xml:space="preserve"><flowRegion><rect x="-105.21" y="-13.703" width="562.17" height="513.49"/></flowRegion><flowPara/></flowRoot>
           <g transform="translate(-66.134 .039287)">
            <g transform="translate(-66.173 .043409)">
             <flowRoot transform="matrix(.26458 0 0 .26458 1168.8 -317.87)" fill="#000000" font-family="sans-serif" font-size="40px" letter-spacing="0px" word-spacing="0px" style="line-height:1.25" xml:space="preserve"><flowRegion><rect x="-114.63" y="-91.434" width="675.23" height="522.91"/></flowRegion><flowPara/></flowRoot>
             <g transform="translate(-66.2 -.040316)">
              <g transform="translate(-65.918 -.60254)">
               <g transform="translate(-66.6 .14883)">
                <flowRoot fill="black" font-family="sans-serif" font-size="40px" letter-spacing="0px" word-spacing="0px" style="line-height:1.25" xml:space="preserve"><flowRegion><rect x="-24.34" y="-19.695" width="252.04" height="245.75"/></flowRegion><flowPara/></flowRoot>
                <g transform="translate(-68.678 -.48293)">
                 <flowRoot fill="black" font-family="sans-serif" font-size="40px" letter-spacing="0px" word-spacing="0px" style="line-height:1.25" xml:space="preserve"><flowRegion><rect x="-65.168" y="-26.762" width="382.37" height="335.26"/></flowRegion><flowPara/></flowRoot>
                 <g transform="translate(-63.347 .4912)">
                  <g transform="translate(529.82 -.18087)">
                   <g transform="translate(794.67 .06923)">
                    <g transform="translate(-198.36 .17569)">
                     <g transform="translate(-530.68 .043413)">
                      <g transform="translate(912.04 -.041317)">
                       <g transform="translate(132.58 -.39794)">
                        <g transform="translate(-580.62 .35866)">
                         <g transform="translate(-264.6 -.1571)">
                          <g transform="translate(463.55 .097138)">
                           <g transform="translate(-397.36 .059959)">
                            <g transform="translate(66.026 -.30592)">
                             <g transform="translate(-264.69 -.093008)">
                              <g transform="translate(734.89 179.33)">
                               <g transform="translate(-205.07 -178.97)">
                                <g transform="translate(-1081.1 -686.85)">
                                 <flowRoot fill="black" font-family="sans-serif" font-size="40px" letter-spacing="0px" word-spacing="0px" style="line-height:1.25" xml:space="preserve"><flowRegion><rect x="21" y="-71" width="223" height="308"/></flowRegion><flowPara/></flowRoot>
                                 <g transform="translate(-112.28 .55746)">
                                  <flowRoot transform="matrix(.26458 0 0 .26458 1500.7 367.6)" fill="#000000" font-family="sans-serif" font-size="40px" letter-spacing="0px" word-spacing="0px" style="line-height:1.25" xml:space="preserve"><flowRegion><rect x="-6.364" y="-2.0107" width="231.22" height="230.87"/></flowRegion><flowPara/></flowRoot>
                                  <g transform="translate(1386.8 133.57)">
                                   <g transform="translate(-1180.5 267.04)">
                                    <g transform="translate(753.05 -.28062)">
                                     <g transform="translate(747.14 .093556)">
                                      <g transform="translate(-1962 -.093557)">
                                       <rect x="1757.3" y="-31.75" width="52.951" height="52.917" fill="#db3b3b" stroke="#000" stroke-linecap="round" stroke-width=".50016" style="paint-order:fill markers stroke"/>
                                       <g transform="matrix(.44006 0 0 .44006 1769.6 -26.986)" fill="#fff">
                                        <g fill="#fff">
                                         <path d="m56 3a1 1 0 00-1-1h-36c-.021 0-.04.011-.062.012a1 1 0 00-.259.052c-.032.011-.062.019-.093.033a1 1 0 00-.293.2l-10 10a1 1 0 00-.2.293c-.014.03-.022.062-.033.093a1 1 0 00-.052.259c0 .022-.012.041-.012.062v31.996h2v-31h9a1 1 0 001-1v-9h34.004v41h2zm-38 9h-6.586l6.586-6.586z"/>
                                         <path d="m56 48a1 1 0 00-1-1h-46a1 1 0 00-1 1v13a1 1 0 001 1h46a1 1 0 001-1zm-2 12h-44v-11h44z"/>
                                         <rect x="16" y="28" width="10" height="2"/>
                                         <rect x="16" y="40" width="6" height="2"/>
                                         <rect x="28" y="28" width="20" height="2"/>
                                         <rect x="38" y="34" width="10" height="2"/>
                                         <rect x="16" y="34" width="20" height="2"/>
                                         <rect x="32" y="22" width="16" height="2"/>
                                         <rect x="22" y="16" width="18" height="2"/>
                                         <rect x="16" y="22" width="14" height="2"/>
                                         <rect x="42" y="16" width="6" height="2"/>
                                         <rect x="24" y="40" width="24" height="2"/>
                                         <path d="m27 56.97a3.321 3.321 0 00.885-2.479 2.988 2.988 0 00-.841-2.285 3.36 3.36 0 00-2.389-.791h-2.219v6.425h2.078a3.4 3.4 0 002.486-.87zm-2.832-4.154h.5a1.293 1.293 0 011.061.427 2.042 2.042 0 01.35 1.31 2.22 2.22 0 01-.369 1.4 1.4 1.4 0 01-1.16.459h-.387z"/>
                                         <path d="m32.378 57.928a3.051 3.051 0 002.329-.844 4.229 4.229 0 000-4.931 3.044 3.044 0 00-2.324-.839 3.062 3.062 0 00-2.332.846 4.165 4.165 0 00.006 4.92 3.041 3.041 0 002.321.848zm.009-5.19a1.1 1.1 0 01.965.459 2.508 2.508 0 01.322 1.422 2.47 2.47 0 01-.319 1.41 1.113 1.113 0 01-.977.453q-1.3 0-1.3-1.863.004-1.881 1.309-1.881z"/>
                                         <path d="m39.881 57.928a4.453 4.453 0 001.819-.356v-1.472a8.073 8.073 0 01-.8.286 2.894 2.894 0 01-.826.118q-1.412 0-1.411-1.854a2.459 2.459 0 01.347-1.4 1.11 1.11 0 01.967-.508 2.5 2.5 0 01.765.115 5.932 5.932 0 01.711.282l.532-1.368a4.574 4.574 0 00-1.991-.453 3.263 3.263 0 00-1.658.407 2.682 2.682 0 00-1.081 1.163 3.883 3.883 0 00-.376 1.753 3.481 3.481 0 00.775 2.439 2.882 2.882 0 002.227.848z"/>
                                        </g>
                                       </g>
                                       <text transform="scale(1.0003 .99968)" x="1783.1212" y="10.061578" fill="#ffffff" font-family="sans-serif" font-size="4.9389px" letter-spacing="0px" stroke-width=".26467" text-anchor="middle" word-spacing="0px" style="line-height:1.25" xml:space="preserve"><tspan x="1783.1212" y="10.061578" text-align="center">Informacje</tspan><tspan x="1783.1212" y="18.001627" text-align="center">o dokumencie</tspan></text>
                                      </g>
                                     </g>
                                    </g>
                                   </g>
                                  </g>
                                 </g>
                                </g>
                               </g>
                              </g>
                             </g>
                            </g>
                           </g>
                          </g>
                         </g>
                        </g>
                       </g>
                      </g>
                     </g>
                    </g>
                   </g>
                  </g>
                 </g>
                </g>
               </g>
              </g>
             </g>
            </g>
           </g>
          </g>
         </g>
        </g>
       </g>
      </g>
     </g>
    </g>
   </g>
  </g>
 </g>
</svg>
