<svg id="SVGRoot" width="206px" height="206px" version="1.1" viewBox="0 0 206 206" xmlns="http://www.w3.org/2000/svg">
 <g transform="matrix(3.7795 0 0 3.7795 -1795.2 2502.6)">
  <flowRoot fill="black" font-family="sans-serif" font-size="40px" letter-spacing="0px" word-spacing="0px" style="line-height:1.25" xml:space="preserve"><flowRegion><rect x="-392.69" y="-63.57" width="758.02" height="397.52"/></flowRegion><flowPara/></flowRoot>
  <flowRoot fill="black" font-family="sans-serif" font-size="40px" letter-spacing="0px" word-spacing="0px" style="line-height:1.25" xml:space="preserve"><flowRegion><rect x="-251.87" y="-84.492" width="624.44" height="455.45"/></flowRegion><flowPara/></flowRoot>
  <flowRoot fill="black" font-family="sans-serif" font-size="40px" letter-spacing="0px" word-spacing="0px" style="line-height:1.25" xml:space="preserve"><flowRegion><rect x="-202.78" y="-50.695" width="473.96" height="281.64"/></flowRegion><flowPara/></flowRoot>
  <flowRoot fill="black" font-family="sans-serif" font-size="40px" letter-spacing="0px" word-spacing="0px" style="line-height:1.25" xml:space="preserve"><flowRegion><rect x="-86.906" y="-78.859" width="516.61" height="410.39"/></flowRegion><flowPara/></flowRoot>
  <g transform="translate(335.08 -2.9266e-6)">
   <rect x="141.16" y="-660.87" width="52.396" height="52.396" fill="#db3b3b" stroke="#000" stroke-linecap="round" stroke-width=".52068" style="paint-order:fill markers stroke"/>
   <text x="167.29863" y="-612.86243" font-family="sans-serif" class="svgT" letter-spacing=".5px" font-size="6.352px" stroke-width=".26458" text-align="center" text-anchor="middle" word-spacing="0px" style="line-height:1.25" xml:space="preserve"><tspan x="167.29863" y="-612.86243" fill="#ffffff" font-family="sans-serif" font-size="4.9389px" stroke-width=".26458" text-align="center" text-anchor="middle">Kanwa rysunku</tspan></text>
   <g transform="matrix(.054096 0 0 .054096 153.85 -654.71)" fill="#fff">
    <g fill="#fff">
     <path d="m481.5 259h-14.1v-209c0-3.3-2.7-6-6-6h-148.9v-26.6c0-3.3-2.7-6-6-6h-101c-3.3 0-6 2.7-6 6v26.6h-148.9c-3.3 0-6 2.7-6 6v209h-14.1c-3.3 0-6 2.7-6 6v35.1c0 3.3 2.7 6 6 6h168.8l-84.7 146.6c-1.7 2.9-.7 6.5 2.2 8.2l10.9 6.3h-7.4c-3.3 0-6 2.7-6 6s2.7 6 6 6h29.3.5.5 210.4.5.5 29.3c3.3 0 6-2.7 6-6s-2.7-6-6-6h-7.4l10.9-6.3c2.9-1.7 3.8-5.3 2.2-8.2l-84.7-146.6h168.8c3.3 0 6-2.7 6-6v-35.1c.4-3.3-2.3-6-5.6-6zm-270-235.6h89v20.6h-89zm-154.9 32.6h398.8v203h-6.1l-78.8-127.6c-1.1-1.8-3-2.8-5.1-2.8h-.1c-2.1 0-4.1 1.2-5.1 3l-73.7 127.4h-11.5l-62.4-108.2c-.9-1.6-2.6-2.7-4.4-2.9s-3.7.4-5 1.7l-109.5 109.4h-37.1zm378.6 203h-134.8l65.1-112.8zm-174 0h-150.6l95.4-95.4zm-48 47.1h26.6l-91.8 159-20-11.6zm45.1 0 38 65.9h-80.7l38-65.9zm-97.6 161.2 48.1-83.3h94.5l48.1 83.3zm223.2-13.8-20 11.6-91.8-159h26.6zm91.6-159.4h-439v-23.1h438.9v23.1z"/>
     <path d="m284.3 161.5c17.1 0 31-13.9 31-31s-13.9-30.9-31-30.9-31 13.9-31 30.9c0 17.1 13.9 31 31 31zm0-49.9c10.5 0 19 8.5 19 18.9 0 10.5-8.5 19-19 19s-19-8.5-19-19c0-10.4 8.5-18.9 19-18.9z"/>
     <path d="m352.9 488.6h-195.2c-3.3 0-6 2.7-6 6s2.7 6 6 6h195.2c3.3 0 6-2.7 6-6s-2.7-6-6-6z"/>
    </g>
   </g>
  </g>
 </g>
</svg>
