<?xml version="1.0" encoding="UTF-8" standalone="no"?>
<svg
   xmlns:osb="http://www.openswatchbook.org/uri/2009/osb"
   xmlns:dc="http://purl.org/dc/elements/1.1/"
   xmlns:cc="http://creativecommons.org/ns#"
   xmlns:rdf="http://www.w3.org/1999/02/22-rdf-syntax-ns#"
   xmlns:svg="http://www.w3.org/2000/svg"
   xmlns="http://www.w3.org/2000/svg"
   id="svg47"
   version="1.1"
   viewBox="0 0 52.758294 52.758296"
   height="199.40143"
   width="199.40143">
  <defs
     id="defs42">
    <pattern
       id="EMFhbasepattern"
       patternUnits="userSpaceOnUse"
       width="6"
       height="6"
       x="0"
       y="0" />
    <marker
       style="overflow:visible"
       id="Arrow1Mend-5-0"
       refX="0"
       refY="0"
       orient="auto">
      <path
         transform="matrix(-0.4,0,0,-0.4,-4,0)"
         style="fill:#000000;fill-opacity:1;fill-rule:evenodd;stroke:#000000;stroke-width:1.00000003pt;stroke-opacity:1"
         d="M 0,0 5,-5 -12.5,0 5,5 Z"
         id="path1146-3-3" />
    </marker>
    <marker
       style="overflow:visible"
       id="Arrow1Mend-5-3"
       refX="0"
       refY="0"
       orient="auto">
      <path
         transform="matrix(-0.4,0,0,-0.4,-4,0)"
         style="fill:#000000;fill-opacity:1;fill-rule:evenodd;stroke:#000000;stroke-width:1.00000003pt;stroke-opacity:1"
         d="M 0,0 5,-5 -12.5,0 5,5 Z"
         id="path1146-3-9" />
    </marker>
    <marker
       orient="auto"
       refY="0"
       refX="0"
       id="Arrow1Mend-5-0-4"
       style="overflow:visible">
      <path
         id="path1146-3-3-8"
         d="M 0,0 5,-5 -12.5,0 5,5 Z"
         style="fill:#ffffff;fill-opacity:1;fill-rule:evenodd;stroke:#ffffff;stroke-width:1.00000003pt;stroke-opacity:1"
         transform="matrix(-0.4,0,0,-0.4,-4,0)" />
    </marker>
    <marker
       orient="auto"
       refY="0"
       refX="0"
       id="Arrow1Mend-5-3-8"
       style="overflow:visible">
      <path
         id="path1146-3-9-5"
         d="M 0,0 5,-5 -12.5,0 5,5 Z"
         style="fill:#ffffff;fill-opacity:1;fill-rule:evenodd;stroke:#ffffff;stroke-width:1.00000003pt;stroke-opacity:1"
         transform="matrix(-0.4,0,0,-0.4,-4,0)" />
    </marker>
    <marker
       style="overflow:visible"
       id="Arrow1Mend"
       refX="0"
       refY="0"
       orient="auto">
      <path
         transform="matrix(-0.4,0,0,-0.4,-4,0)"
         style="fill:#000000;fill-opacity:1;fill-rule:evenodd;stroke:#000000;stroke-width:1.00000003pt;stroke-opacity:1"
         d="M 0,0 5,-5 -12.5,0 5,5 Z"
         id="path1146" />
    </marker>
    <marker
       orient="auto"
       refY="0"
       refX="0"
       id="Arrow1Mend-5"
       style="overflow:visible">
      <path
         id="path1146-3"
         d="M 0,0 5,-5 -12.5,0 5,5 Z"
         style="fill:#ffffff;fill-opacity:1;fill-rule:evenodd;stroke:#ffffff;stroke-width:1.00000003pt;stroke-opacity:1"
         transform="matrix(-0.4,0,0,-0.4,-4,0)" />
    </marker>
    <marker
       style="overflow:visible"
       id="Arrow1Mstart"
       refX="0"
       refY="0"
       orient="auto">
      <path
         transform="matrix(0.4,0,0,0.4,4,0)"
         style="fill:#000000;fill-opacity:1;fill-rule:evenodd;stroke:#000000;stroke-width:1.00000003pt;stroke-opacity:1"
         d="M 0,0 5,-5 -12.5,0 5,5 Z"
         id="path1143" />
    </marker>
    <marker
       orient="auto"
       refY="0"
       refX="0"
       id="Arrow1Mstart-1"
       style="overflow:visible">
      <path
         id="path1143-7"
         d="M 0,0 5,-5 -12.5,0 5,5 Z"
         style="fill:#ffffff;fill-opacity:1;fill-rule:evenodd;stroke:#ffffff;stroke-width:1.00000003pt;stroke-opacity:1"
         transform="matrix(0.4,0,0,0.4,4,0)" />
    </marker>
    <marker
       style="overflow:visible"
       id="Arrow1Lend"
       refX="0"
       refY="0"
       orient="auto">
      <path
         transform="matrix(-0.8,0,0,-0.8,-10,0)"
         style="fill:#000000;fill-opacity:1;fill-rule:evenodd;stroke:#000000;stroke-width:1.00000003pt;stroke-opacity:1"
         d="M 0,0 5,-5 -12.5,0 5,5 Z"
         id="path1140" />
    </marker>
    <marker
       style="overflow:visible"
       id="Arrow1Lstart"
       refX="0"
       refY="0"
       orient="auto">
      <path
         transform="matrix(0.8,0,0,0.8,10,0)"
         style="fill:#000000;fill-opacity:1;fill-rule:evenodd;stroke:#000000;stroke-width:1.00000003pt;stroke-opacity:1"
         d="M 0,0 5,-5 -12.5,0 5,5 Z"
         id="path1137" />
    </marker>
    <marker
       orient="auto"
       refY="0"
       refX="0"
       id="Arrow1Lend-5"
       style="overflow:visible">
      <path
         id="path1140-4"
         d="M 0,0 5,-5 -12.5,0 5,5 Z"
         style="fill:#ffffff;fill-opacity:1;fill-rule:evenodd;stroke:#ffffff;stroke-width:1.00000003pt;stroke-opacity:1"
         transform="matrix(-0.8,0,0,-0.8,-10,0)" />
    </marker>
    <marker
       orient="auto"
       refY="0"
       refX="0"
       id="Arrow1Lstart-93"
       style="overflow:visible">
      <path
         id="path1137-7"
         d="M 0,0 5,-5 -12.5,0 5,5 Z"
         style="fill:#ffffff;fill-opacity:1;fill-rule:evenodd;stroke:#ffffff;stroke-width:1.00000003pt;stroke-opacity:1"
         transform="matrix(0.8,0,0,0.8,10,0)" />
    </marker>
    <linearGradient
       id="linearGradient4460"
       osb:paint="solid">
      <stop
         style="stop-color:#db3b3b;stop-opacity:1;"
         offset="0"
         id="stop4458" />
    </linearGradient>
  </defs>
  <metadata
     id="metadata45">
    <rdf:RDF>
      <cc:Work
         rdf:about="">
        <dc:format>image/svg+xml</dc:format>
        <dc:type
           rdf:resource="http://purl.org/dc/dcmitype/StillImage" />
        <dc:title></dc:title>
      </cc:Work>
    </rdf:RDF>
  </metadata>
  <g
     id="g8556"
     transform="translate(49.836509,-375.23204)">
    <g
       id="g5305">
      <g
         id="g781"
         style="display:inline"
         transform="translate(-190.47524,1036.0744)">
        <rect
           style="fill:#db3b3b;fill-opacity:1;stroke:#000000;stroke-width:0.520679;stroke-linecap:round;stroke-miterlimit:4;stroke-dasharray:none;paint-order:fill markers stroke"
           id="rect835-2-0-2-8-1-5-6-8"
           width="52.395985"
           height="52.395985"
           x="141.16374"
           y="-660.87268" />
        <text
           xml:space="preserve"
           style="font-size:6.3499999px;line-height:1.25;font-family:voestalpine;-inkscape-font-specification:voestalpine;text-align:center;letter-spacing:0px;word-spacing:0px;text-anchor:middle;stroke-width:0.26458299"
           x="167.29863"
           y="-611.03052"
           id="text858-5-83-73-6"><tspan
             id="tspan921-84-3-0"
             x="167.29863"
             y="-611.03052"
             style="font-size:6.3499999px;text-align:center;text-anchor:middle;fill:#ffffff;fill-opacity:1;stroke-width:0.26458299">Kanwa rysunku</tspan></text>
        <g
           style="fill:#ffffff;fill-opacity:1"
           id="g1443"
           transform="matrix(0.05409596,0,0,0.05409596,153.85209,-654.70542)">
          <g
             id="g1429"
             style="fill:#ffffff;fill-opacity:1">
            <path
               id="path1423"
               d="M 481.5,259 H 467.4 V 50 c 0,-3.3 -2.7,-6 -6,-6 H 312.5 V 17.4 c 0,-3.3 -2.7,-6 -6,-6 h -101 c -3.3,0 -6,2.7 -6,6 V 44 H 50.6 c -3.3,0 -6,2.7 -6,6 V 259 H 30.5 c -3.3,0 -6,2.7 -6,6 v 35.1 c 0,3.3 2.7,6 6,6 h 168.8 l -84.7,146.6 c -1.7,2.9 -0.7,6.5 2.2,8.2 l 10.9,6.3 h -7.4 c -3.3,0 -6,2.7 -6,6 0,3.3 2.7,6 6,6 h 29.3 c 0.2,0 0.4,0 0.5,0 0.2,0 0.4,0 0.5,0 H 361 c 0.2,0 0.4,0 0.5,0 0.2,0 0.4,0 0.5,0 h 29.3 c 3.3,0 6,-2.7 6,-6 0,-3.3 -2.7,-6 -6,-6 h -7.4 l 10.9,-6.3 c 2.9,-1.7 3.8,-5.3 2.2,-8.2 L 312.3,306.1 h 168.8 c 3.3,0 6,-2.7 6,-6 V 265 c 0.4,-3.3 -2.3,-6 -5.6,-6 z M 211.5,23.4 h 89 V 44 h -89 z M 56.6,56 h 148.9 101 148.9 v 203 h -6.1 L 370.5,131.4 c -1.1,-1.8 -3,-2.8 -5.1,-2.8 0,0 -0.1,0 -0.1,0 -2.1,0 -4.1,1.2 -5.1,3 L 286.5,259 H 275 L 212.6,150.8 c -0.9,-1.6 -2.6,-2.7 -4.4,-2.9 -1.8,-0.2 -3.7,0.4 -5,1.7 L 93.7,259 H 56.6 Z M 435.2,259 H 300.4 l 65.1,-112.8 z m -174,0 H 110.6 L 206,163.6 Z m -48,47.1 h 26.6 l -91.8,159 -20,-11.6 z m 45.1,0 38,65.9 h -80.7 l 38,-65.9 z M 160.7,467.3 208.8,384 h 94.5 l 48.1,83.3 z m 223.2,-13.8 -20,11.6 -91.8,-159 h 26.6 z M 475.5,294.1 H 302.2 261.7 250.2 209.7 36.5 V 271 h 14.1 220.9 c 0,0 0,0 0,0 0,0 0,0 0,0 H 290 c 0,0 0,0 0,0 0,0 0,0 0,0 h 171.3 14.1 v 23.1 z"
               style="fill:#ffffff;fill-opacity:1" />
            <path
               id="path1425"
               d="m 284.3,161.5 c 17.1,0 31,-13.9 31,-31 0,-17.1 -13.9,-30.9 -31,-30.9 -17.1,0 -31,13.9 -31,30.9 0,17.1 13.9,31 31,31 z m 0,-49.9 c 10.5,0 19,8.5 19,18.9 0,10.5 -8.5,19 -19,19 -10.5,0 -19,-8.5 -19,-19 0,-10.4 8.5,-18.9 19,-18.9 z"
               style="fill:#ffffff;fill-opacity:1" />
            <path
               id="path1427"
               d="M 352.9,488.6 H 157.7 c -3.3,0 -6,2.7 -6,6 0,3.3 2.7,6 6,6 h 195.2 c 3.3,0 6,-2.7 6,-6 0,-3.3 -2.7,-6 -6,-6 z"
               style="fill:#ffffff;fill-opacity:1" />
          </g>
        </g>
      </g>
    </g>
  </g>
</svg>
