<svg id="SVGRoot" width="206px" height="206px" version="1.1" viewBox="0 0 206 206" xmlns="http://www.w3.org/2000/svg">
 <g transform="matrix(3.7795 0 0 3.7795 -1795.2 2502.6)">
  <flowRoot fill="black" font-family="sans-serif" font-size="40px" letter-spacing="0px" word-spacing="0px" style="line-height:1.25" xml:space="preserve"><flowRegion><rect x="-392.69" y="-63.57" width="758.02" height="397.52"/></flowRegion><flowPara/></flowRoot>
  <flowRoot fill="black" font-family="sans-serif" font-size="40px" letter-spacing="0px" word-spacing="0px" style="line-height:1.25" xml:space="preserve"><flowRegion><rect x="-251.87" y="-84.492" width="624.44" height="455.45"/></flowRegion><flowPara/></flowRoot>
  <flowRoot fill="black" font-family="sans-serif" font-size="40px" letter-spacing="0px" word-spacing="0px" style="line-height:1.25" xml:space="preserve"><flowRegion><rect x="-202.78" y="-50.695" width="473.96" height="281.64"/></flowRegion><flowPara/></flowRoot>
  <flowRoot fill="black" font-family="sans-serif" font-size="40px" letter-spacing="0px" word-spacing="0px" style="line-height:1.25" xml:space="preserve"><flowRegion><rect x="-86.906" y="-78.859" width="516.61" height="410.39"/></flowRegion><flowPara/></flowRoot>
  <flowRoot fill="black" font-family="sans-serif" font-size="40px" letter-spacing="0px" word-spacing="0px" style="line-height:1.25" xml:space="preserve"><flowRegion><rect x="-81.273" y="-32.188" width="309" height="322.68"/></flowRegion><flowPara/></flowRoot>
  <flowRoot fill="black" font-family="sans-serif" font-size="40px" letter-spacing="0px" word-spacing="0px" style="line-height:1.25" xml:space="preserve"><flowRegion><rect x="-90.93" y="-68.398" width="392.69" height="252.67"/></flowRegion><flowPara/></flowRoot>
  <g transform="translate(675.17 -.21291)">
   <flowRoot fill="black" font-family="sans-serif" font-size="40px" letter-spacing="0px" word-spacing="0px" style="line-height:1.25" xml:space="preserve"><flowRegion><rect x="-100.59" y="-53.109" width="462.7" height="369.35"/></flowRegion><flowPara/></flowRoot>
   <g transform="translate(57.194 .21291)">
    <flowRoot fill="black" font-family="sans-serif" font-size="40px" letter-spacing="0px" word-spacing="0px" style="line-height:1.25" xml:space="preserve"><flowRegion><rect x="-329.12" y="-12.07" width="696.05" height="259.91"/></flowRegion><flowPara/></flowRoot>
    <g transform="translate(-1495.1 -629.38)">
     <flowRoot fill="black" font-family="sans-serif" font-size="40px" letter-spacing="0px" word-spacing="0px" style="line-height:1.25" xml:space="preserve"><flowRegion><rect x="-306.59" y="-111.05" width="206" height="51.5"/></flowRegion><flowPara/></flowRoot>
     <g transform="translate(-172.09 .21291)">
      <rect x="1411" y="-31.75" width="52.951" height="52.917" fill="#db3b3b" stroke="#000" stroke-linecap="round" stroke-width=".50016" style="paint-order:fill markers stroke"/>
      <text transform="scale(1.0003 .99968)" x="1436.861" y="17.232069" fill="#ffffff" font-family="sans-serif" font-size="6.352px" class="svgT" letter-spacing=".5px"  stroke-width=".26467" word-spacing="0px" style="line-height:1.25" xml:space="preserve"><tspan x="1436.861" y="17.232069" fill="#ffffff" font-family="sans-serif" font-size="4.9389px" stroke-width=".26467" text-align="center" text-anchor="middle">Kanwa z ikonami</tspan></text>
      <g transform="matrix(.3227 0 0 .32249 1421.4 -28.5)" fill="#fff">
       <path d="m49.867 5.0429a2.9927 2.9968 0 00-2.9612 3.0589v2.9965h-33.914a2.9927 2.9968 0 00-.31171 0 2.9964 3.0006 0 10.31171 5.993h.99746v37.956h-.99746a2.9927 2.9968 0 00-.31171 0 2.9964 3.0006 0 10.31171 5.9929h22.318l-10.099 22.755a3.0004 3.0045 0 105.486 2.4346l11.159-25.189h5.0497v30.964a2.9927 2.9968 0 105.9848 0v-30.964h5.0497l11.159 25.189a3.0004 3.0045 0 005.486-2.4346l-10.099-22.755h22.318a2.9927 2.9968 0 100-5.9929h-.99746v-37.956h.99746a2.9927 2.9968 0 100-5.993h-33.914v-2.9965a2.9927 2.9968 0 00-3.0236-3.0589zm-29.893 12.048h59.848v37.956h-59.848z" color="#000000" fill="#fff" overflow="visible" style="text-indent:0;text-transform:none"/>
      </g>
      <g transform="matrix(.3211 0 0 .3211 1076.4 -.77458)" fill="#fff" stroke="#fff">
       <circle cx="1114.7" cy="-49.893" r="5.7815" stroke-linecap="round" stroke-width="2.5101" style="paint-order:fill markers stroke"/>
       <circle cx="1133.2" cy="-49.893" r="5.7815" stroke-linecap="round" stroke-width="2.5101" style="paint-order:fill markers stroke"/>
       <path d="m1103.7-49.893h41.199" stroke-width="1.165"/>
      </g>
     </g>
    </g>
   </g>
  </g>
 </g>
</svg>
