<svg id="SVGRoot" width="206px" height="206px" version="1.1" viewBox="0 0 206 206" xmlns="http://www.w3.org/2000/svg">
 <g transform="matrix(3.7795 0 0 3.7795 -1795.2 2502.6)">
  <flowRoot fill="black" font-family="sans-serif" font-size="40px" letter-spacing="0px" word-spacing="0px" style="line-height:1.25" xml:space="preserve"><flowRegion><rect x="-392.69" y="-63.57" width="758.02" height="397.52"/></flowRegion><flowPara/></flowRoot>
  <flowRoot fill="black" font-family="sans-serif" font-size="40px" letter-spacing="0px" word-spacing="0px" style="line-height:1.25" xml:space="preserve"><flowRegion><rect x="-251.87" y="-84.492" width="624.44" height="455.45"/></flowRegion><flowPara/></flowRoot>
  <flowRoot fill="black" font-family="sans-serif" font-size="40px" letter-spacing="0px" word-spacing="0px" style="line-height:1.25" xml:space="preserve"><flowRegion><rect x="-202.78" y="-50.695" width="473.96" height="281.64"/></flowRegion><flowPara/></flowRoot>
  <flowRoot fill="black" font-family="sans-serif" font-size="40px" letter-spacing="0px" word-spacing="0px" style="line-height:1.25" xml:space="preserve"><flowRegion><rect x="-86.906" y="-78.859" width="516.61" height="410.39"/></flowRegion><flowPara/></flowRoot>
  <flowRoot fill="black" font-family="sans-serif" font-size="40px" letter-spacing="0px" word-spacing="0px" style="line-height:1.25" xml:space="preserve"><flowRegion><rect x="-81.273" y="-32.188" width="309" height="322.68"/></flowRegion><flowPara/></flowRoot>
  <flowRoot fill="black" font-family="sans-serif" font-size="40px" letter-spacing="0px" word-spacing="0px" style="line-height:1.25" xml:space="preserve"><flowRegion><rect x="-90.93" y="-68.398" width="392.69" height="252.67"/></flowRegion><flowPara/></flowRoot>
  <g transform="translate(675.17 -.21291)">
   <flowRoot fill="black" font-family="sans-serif" font-size="40px" letter-spacing="0px" word-spacing="0px" style="line-height:1.25" xml:space="preserve"><flowRegion><rect x="-100.59" y="-53.109" width="462.7" height="369.35"/></flowRegion><flowPara/></flowRoot>
   <g transform="translate(57.194 .21291)">
    <flowRoot fill="black" font-family="sans-serif" font-size="40px" letter-spacing="0px" word-spacing="0px" style="line-height:1.25" xml:space="preserve"><flowRegion><rect x="-329.12" y="-12.07" width="696.05" height="259.91"/></flowRegion><flowPara/></flowRoot>
    <g transform="translate(-1495.1 -629.38)">
     <flowRoot fill="black" font-family="sans-serif" font-size="40px" letter-spacing="0px" word-spacing="0px" style="line-height:1.25" xml:space="preserve"><flowRegion><rect x="-306.59" y="-111.05" width="206" height="51.5"/></flowRegion><flowPara/></flowRoot>
     <g transform="translate(174.63 .21291)">
      <g transform="translate(229.39 -.31626)">
       <rect x="834.57" y="-31.75" width="52.917" height="52.917" fill="#db3b3b" stroke="#000" stroke-linecap="round" stroke-width=".5" style="paint-order:fill markers stroke"/>
       <text x="861.07007" y="8.6599503" fill="#ffffff" font-family="sans-serif" class="svgT" letter-spacing=".5px" font-size="5.2px"  stroke-width=".26458" text-anchor="middle" word-spacing="0px" style="line-height:1.25" xml:space="preserve"><tspan x="861.07007" y="8.6599503" text-align="center">Kasowanie</tspan><tspan x="861.07007" y="16.59745" text-align="center">ostatniej sekcji</tspan></text>
       <g transform="matrix(.45037 0 0 .45037 838.51 -34.577)" fill="#fff">
        <g fill="#fff">
         <path d="m71.001 25.962-1.8464 48.006c-.064101 1.6666-1.4858 3.0324-3.1544 3.0324h-32c-1.6713 0-3.0902-1.3648-3.1544-3.0324l-1.8464-48.006c-.02123-.55188-.48582-.98205-1.0377-.96083-.55188.02123-.98205.48582-.96083 1.0377l1.8464 48.006c.10545 2.7417 2.4071 4.9556 5.1529 4.9556h32c2.7425 0 5.0475-2.2144 5.1529-4.9556l1.8464-48.006c.02123-.55188-.40895-1.0165-.96083-1.0377-.55188-.02123-1.0165.40895-1.0377.96083z"/>
         <path d="m49 36v34c0 .55228.44772 1 1 1s1-.44772 1-1v-34c0-.55228-.44772-1-1-1s-1 .44772-1 1z"/>
         <path d="m38 36.029 1 34c.01624.55205.47692.9864 1.029.97017.55205-.01624.9864-.47692.97017-1.029l-1-34c-.01624-.55205-.47692-.9864-1.029-.97017-.55205.01624-.9864.47692-.97017 1.029z"/>
         <path d="m60 35.971-1 34c-.01624.55205.41812 1.0127.97017 1.029.55205.01624 1.0127-.41812 1.029-.97017l1-34c.01624-.55205-.41812-1.0127-.97017-1.029-.55205-.01624-1.0127.41812-1.029.97017z"/>
         <path d="m25 27h50c.55228 0 1-.44772 1-1s-.44772-1-1-1h-50c-.55228 0-1 .44772-1 1s.44772 1 1 1z"/>
         <path d="m40.928 26.371 1.0703-2.6757c.36086-.90215 1.5332-1.6957 2.5013-1.6957h11c.97354 0 2.1384.78866 2.5013 1.6957l1.0703 2.6757 1.857-.74278-1.0703-2.6757c-.66656-1.6664-2.5669-2.953-4.3582-2.953h-11c-1.7858 0-3.6936 1.2914-4.3582 2.953l-1.0703 2.6757z"/>
        </g>
       </g>
      </g>
     </g>
    </g>
   </g>
  </g>
 </g>
</svg>
