<?xml version="1.0" encoding="UTF-8" standalone="no"?>
<svg
   xmlns:dc="http://purl.org/dc/elements/1.1/"
   xmlns:cc="http://creativecommons.org/ns#"
   xmlns:rdf="http://www.w3.org/1999/02/22-rdf-syntax-ns#"
   xmlns:svg="http://www.w3.org/2000/svg"
   xmlns="http://www.w3.org/2000/svg"
   id="SVGRoot"
   version="1.1"
   viewBox="0 0 200 200"
   height="200px"
   width="200px">
  <defs
     id="defs1461" />
  <metadata
     id="metadata1464">
    <rdf:RDF>
      <cc:Work
         rdf:about="">
        <dc:format>image/svg+xml</dc:format>
        <dc:type
           rdf:resource="http://purl.org/dc/dcmitype/StillImage" />
        <dc:title></dc:title>
      </cc:Work>
    </rdf:RDF>
  </metadata>
  <g
     id="layer1">
    <g
       id="g1445"
       transform="matrix(3.7795276,0,0,3.7795276,-5893.7669,-1393.7577)">
      <rect
         height="52.258293"
         y="369.25134"
         x="1559.9036"
         width="52.258293"
         id="rect833-1-5-3-7-4-8-5-1-4-2-8-1-5-8-6-0-5-58-4-8-8"
         style="fill:#ffffff;stroke:#000000;stroke-width:0.49999899;stroke-linecap:round;stroke-miterlimit:4;stroke-dasharray:none;stroke-opacity:1;paint-order:fill markers stroke" />
      <text
         id="text898-7-3-6-8-3-3-0-66-7-8-8-0-8-3-4-2-6-22-3-3-4"
         y="418.77051"
         x="1586.3859"
         style="font-size:6.3499999px;line-height:0.94999999;font-family:voestalpine;-inkscape-font-specification:voestalpine;text-align:center;letter-spacing:0px;word-spacing:0px;text-anchor:middle;stroke-width:0.26458299"
         xml:space="preserve"><tspan
           style="font-size:6.3499999px;text-align:center;text-anchor:middle;stroke-width:0.26458299"
           y="418.77051"
           x="1586.3859"
           id="tspan2732-1-9-4">Wyświetl linijkę</tspan></text>
      <g
         transform="matrix(0.28622468,-0.28622468,-0.28622468,-0.28622468,1585.8244,417.17456)"
         id="g3276"
         style="fill:#000000">
        <path
           d="M 94.3,20.5 79.5,5.7 C 79,5.2 78.2,5.2 77.7,5.7 l -72,72 c -0.5,0.5 -0.5,1.3 0,1.8 L 17,90.7 c 0,0 0,0 0,0 0,0 0,0 0,0 l 3.5,3.5 c 0.2,0.2 0.6,0.4 0.9,0.4 0.3,0 0.6,-0.1 0.9,-0.4 l 72,-72 c 0.4,-0.4 0.4,-1.2 0,-1.7 z m -80.9,53.1 1.9,1.9 c 0.2,0.2 0.6,0.4 0.9,0.4 0.3,0 0.6,-0.1 0.9,-0.4 0.5,-0.5 0.5,-1.3 0,-1.8 l -1.9,-1.9 3.1,-3.1 3.9,3.9 c 0.2,0.2 0.6,0.4 0.9,0.4 0.3,0 0.6,-0.1 0.9,-0.4 0.5,-0.5 0.5,-1.3 0,-1.8 l -3.9,-3.9 3.1,-3.1 1.9,1.9 c 0.2,0.2 0.6,0.4 0.9,0.4 0.3,0 0.6,-0.1 0.9,-0.4 0.5,-0.5 0.5,-1.3 0,-1.8 L 25,62 l 3,-3 3.9,3.9 c 0.2,0.2 0.6,0.4 0.9,0.4 0.3,0 0.6,-0.1 0.9,-0.4 0.5,-0.5 0.5,-1.3 0,-1.8 l -3.9,-3.9 3.1,-3.1 1.9,1.9 c 0.2,0.2 0.6,0.4 0.9,0.4 0.3,0 0.6,-0.1 0.9,-0.4 0.5,-0.5 0.5,-1.3 0,-1.8 l -1.9,-1.9 3.1,-3.1 3.9,3.9 c 0.2,0.2 0.6,0.4 0.9,0.4 0.3,0 0.6,-0.1 0.9,-0.4 0.5,-0.5 0.5,-1.3 0,-1.8 l -3.9,-3.9 3.1,-3.1 1.9,1.9 c 0.2,0.2 0.6,0.4 0.9,0.4 0.3,0 0.6,-0.1 0.9,-0.4 0.5,-0.5 0.5,-1.3 0,-1.8 l -1.9,-1.9 3.1,-3.1 3.9,3.9 c 0.2,0.2 0.6,0.4 0.9,0.4 0.3,0 0.6,-0.1 0.9,-0.4 0.5,-0.5 0.5,-1.3 0,-1.8 l -3.9,-3.9 3.1,-3.1 1.9,1.9 c 0.2,0.2 0.6,0.4 0.9,0.4 0.3,0 0.6,-0.1 0.9,-0.4 0.5,-0.5 0.5,-1.3 0,-1.8 l -1.9,-1.9 3.1,-3.1 3.9,3.9 c 0.2,0.2 0.6,0.4 0.9,0.4 0.3,0 0.6,-0.1 0.9,-0.4 0.5,-0.5 0.5,-1.3 0,-1.8 L 59,28 62.1,24.9 64,26.8 c 0.2,0.2 0.6,0.4 0.9,0.4 0.3,0 0.6,-0.1 0.9,-0.4 0.5,-0.5 0.5,-1.3 0,-1.8 L 63.9,23.1 67,20 l 3.9,3.9 c 0.2,0.2 0.6,0.4 0.9,0.4 0.3,0 0.6,-0.1 0.9,-0.4 0.5,-0.5 0.5,-1.3 0,-1.8 l -3.9,-3.9 3.1,-3.1 1.9,1.9 c 0.2,0.2 0.6,0.4 0.9,0.4 0.3,0 0.6,-0.1 0.9,-0.4 0.5,-0.5 0.5,-1.3 0,-1.8 l -1.9,-1.9 5,-5 9.5,9.5 -70.3,70.3 -9.5,-9.5 z m 8,18 -1.8,-1.8 70.2,-70.2 1.8,1.8 z"
           id="path3265" />
      </g>
    </g>
  </g>
</svg>
