<svg id="SVGRoot" width="208" height="208" version="1.1" viewBox="0 0 208 208" xmlns="http://www.w3.org/2000/svg">
 <g transform="translate(0,7)">
  <g transform="matrix(3.7795 0 0 3.7795 10.171 -6.7758)">
   <g transform="translate(-1.0884 -121.69)">
    <g transform="translate(1.6608 -59.209)">
     <g transform="translate(-.6443 -59.335)">
      <g transform="translate(-1396.8 269.89)">
       <g transform="translate(-57.972 -.024822)">
        <g transform="translate(1658.1 73.867)">
         <g transform="translate(-203.03 -103.33)">
          <flowRoot transform="matrix(.26458 0 0 .26458 -2.875 1.091)" fill="#000000" font-family="sans-serif" font-size="40px" letter-spacing="0px" word-spacing="0px" style="line-height:1.25" xml:space="preserve"><flowRegion><rect x="-85.582" y="-60.812" width="342.33" height="293.65"/></flowRegion><flowPara/></flowRoot>
          <g transform="translate(-1039.4 318.88)">
           <flowRoot transform="matrix(.26458 0 0 .26458 1036.5 -317.79)" fill="#000000" font-family="sans-serif" font-size="40px" letter-spacing="0px" word-spacing="0px" style="line-height:1.25" xml:space="preserve"><flowRegion><rect x="-105.21" y="-13.703" width="562.17" height="513.49"/></flowRegion><flowPara/></flowRoot>
           <g transform="translate(-66.134 .039287)">
            <g transform="translate(-66.173 .043409)">
             <flowRoot transform="matrix(.26458 0 0 .26458 1168.8 -317.87)" fill="#000000" font-family="sans-serif" font-size="40px" letter-spacing="0px" word-spacing="0px" style="line-height:1.25" xml:space="preserve"><flowRegion><rect x="-114.63" y="-91.434" width="675.23" height="522.91"/></flowRegion><flowPara/></flowRoot>
             <g transform="translate(-66.2 -.040316)">
              <g transform="translate(-65.918 -.60254)">
               <g transform="translate(-66.6 .14883)">
                <flowRoot fill="black" font-family="sans-serif" font-size="40px" letter-spacing="0px" word-spacing="0px" style="line-height:1.25" xml:space="preserve"><flowRegion><rect x="-24.34" y="-19.695" width="252.04" height="245.75"/></flowRegion><flowPara/></flowRoot>
                <g transform="translate(-68.678 -.48293)">
                 <flowRoot fill="black" font-family="sans-serif" font-size="40px" letter-spacing="0px" word-spacing="0px" style="line-height:1.25" xml:space="preserve"><flowRegion><rect x="-65.168" y="-26.762" width="382.37" height="335.26"/></flowRegion><flowPara/></flowRoot>
                 <g transform="translate(-63.347 .4912)">
                  <g transform="translate(529.82 -.18087)">
                   <g transform="translate(794.67 .06923)">
                    <g transform="translate(-198.36 .17569)">
                     <g transform="translate(-530.68 .043413)">
                      <g transform="translate(912.04 -.041317)">
                       <g transform="translate(132.58 -.39794)">
                        <g transform="translate(-580.62 .35866)">
                         <g transform="translate(-264.6 -.1571)">
                          <g transform="translate(463.55 .097138)">
                           <g transform="translate(-397.36 .059959)">
                            <g transform="translate(66.026 -.30592)">
                             <g transform="translate(-264.69 -.093008)">
                              <g transform="translate(734.89 179.33)">
                               <g transform="translate(-205.07 -178.97)">
                                <g transform="translate(-1081.1 -686.85)">
                                 <flowRoot fill="black" font-family="sans-serif" font-size="40px" letter-spacing="0px" word-spacing="0px" style="line-height:1.25" xml:space="preserve"><flowRegion><rect x="21" y="-71" width="223" height="308"/></flowRegion><flowPara/></flowRoot>
                                 <g transform="translate(-112.28 .55746)">
                                  <g transform="translate(-396.77 -.26462)">
                                   <g transform="translate(167.68 .26462)">
                                    <g transform="translate(457.35 -.55746)">
                                     <g transform="translate(-285.78 .028294)">
                                      <rect x="1559.9" y="369.25" width="52.258" height="52.258" fill="#fff" stroke="#000" stroke-linecap="round" stroke-width=".5" style="paint-order:fill markers stroke"/>
                                      <text x="1586.3859" y="417.90833" font-family="sans-serif" font-size="6.35px" letter-spacing="0px" stroke-width=".26458" text-align="center" text-anchor="middle" word-spacing="0px" style="line-height:0.94999999" xml:space="preserve"><tspan x="1586.3859" y="417.90833" font-family="sans-serif" font-size="4.9389px" stroke-width=".26458" text-align="center" text-anchor="middle">Wyświetl linijkę</tspan></text>
                                      <g transform="matrix(.28622 -.28622 -.28622 -.28622 1585.8 417.17)">
                                       <path d="m94.3 20.5-14.8-14.8c-.5-.5-1.3-.5-1.8 0l-72 72c-.5.5-.5 1.3 0 1.8l11.3 11.2 3.5 3.5c.2.2.6.4.9.4s.6-.1.9-.4l72-72c.4-.4.4-1.2 0-1.7zm-80.9 53.1 1.9 1.9c.2.2.6.4.9.4s.6-.1.9-.4c.5-.5.5-1.3 0-1.8l-1.9-1.9 3.1-3.1 3.9 3.9c.2.2.6.4.9.4s.6-.1.9-.4c.5-.5.5-1.3 0-1.8l-3.9-3.9 3.1-3.1 1.9 1.9c.2.2.6.4.9.4s.6-.1.9-.4c.5-.5.5-1.3 0-1.8l-1.9-1.9 3-3 3.9 3.9c.2.2.6.4.9.4s.6-.1.9-.4c.5-.5.5-1.3 0-1.8l-3.9-3.9 3.1-3.1 1.9 1.9c.2.2.6.4.9.4s.6-.1.9-.4c.5-.5.5-1.3 0-1.8l-1.9-1.9 3.1-3.1 3.9 3.9c.2.2.6.4.9.4s.6-.1.9-.4c.5-.5.5-1.3 0-1.8l-3.9-3.9 3.1-3.1 1.9 1.9c.2.2.6.4.9.4s.6-.1.9-.4c.5-.5.5-1.3 0-1.8l-1.9-1.9 3.1-3.1 3.9 3.9c.2.2.6.4.9.4s.6-.1.9-.4c.5-.5.5-1.3 0-1.8l-3.9-3.9 3.1-3.1 1.9 1.9c.2.2.6.4.9.4s.6-.1.9-.4c.5-.5.5-1.3 0-1.8l-1.9-1.9 3.1-3.1 3.9 3.9c.2.2.6.4.9.4s.6-.1.9-.4c.5-.5.5-1.3 0-1.8l-4.1-3.7 3.1-3.1 1.9 1.9c.2.2.6.4.9.4s.6-.1.9-.4c.5-.5.5-1.3 0-1.8l-1.9-1.9 3.1-3.1 3.9 3.9c.2.2.6.4.9.4s.6-.1.9-.4c.5-.5.5-1.3 0-1.8l-3.9-3.9 3.1-3.1 1.9 1.9c.2.2.6.4.9.4s.6-.1.9-.4c.5-.5.5-1.3 0-1.8l-1.9-1.9 5-5 9.5 9.5-70.3 70.3-9.5-9.5zm8 18-1.8-1.8 70.2-70.2 1.8 1.8z"/>
                                      </g>
                                     </g>
                                    </g>
                                   </g>
                                  </g>
                                 </g>
                                </g>
                               </g>
                              </g>
                             </g>
                            </g>
                           </g>
                          </g>
                         </g>
                        </g>
                       </g>
                      </g>
                     </g>
                    </g>
                   </g>
                  </g>
                 </g>
                </g>
               </g>
              </g>
             </g>
            </g>
           </g>
          </g>
         </g>
        </g>
       </g>
      </g>
     </g>
    </g>
   </g>
  </g>
 </g>
</svg>
