<?xml version="1.0" encoding="UTF-8" standalone="no"?>
<svg
   xmlns:dc="http://purl.org/dc/elements/1.1/"
   xmlns:cc="http://creativecommons.org/ns#"
   xmlns:rdf="http://www.w3.org/1999/02/22-rdf-syntax-ns#"
   xmlns:svg="http://www.w3.org/2000/svg"
   xmlns="http://www.w3.org/2000/svg"
   id="svg47"
   version="1.1"
   viewBox="0 0 52.758294 52.758296"
   height="199.40143"
   width="199.40143">
  <defs
     id="defs42" />
  <metadata
     id="metadata45">
    <rdf:RDF>
      <cc:Work
         rdf:about="">
        <dc:format>image/svg+xml</dc:format>
        <dc:type
           rdf:resource="http://purl.org/dc/dcmitype/StillImage" />
        <dc:title></dc:title>
      </cc:Work>
    </rdf:RDF>
  </metadata>
  <g
     id="g6907"
     transform="translate(5.6299185,-67.950098)">
    <rect
       height="52.258293"
       y="68.328804"
       x="-5.2629337"
       width="52.258293"
       id="rect833-1-5-7"
       style="fill:#ffffff;stroke:#000000;stroke-width:0.49999899;stroke-linecap:round;stroke-miterlimit:4;stroke-dasharray:none;stroke-opacity:1;paint-order:fill markers stroke" />
    <text
       id="text898-7-3-3"
       y="118.01699"
       x="20.548117"
       style="font-size:6.3499999px;line-height:0.94999999;font-family:voestalpine;-inkscape-font-specification:voestalpine;text-align:center;letter-spacing:0px;word-spacing:0px;text-anchor:middle;stroke-width:0.26458299"
       xml:space="preserve"><tspan
         id="tspan900-6-1-0"
         style="font-size:6.3499999px;text-align:center;text-anchor:middle;stroke-width:0.26458299"
         y="118.01699"
         x="20.548117">Lock</tspan></text>
    <g
       style="fill:#000000"
       id="g1292"
       transform="matrix(0.58462243,0,0,0.58462243,7.419897,73.068621)">
      <g
         id="g1277"
         data-name="Key Lock">
        <path
           id="path1269"
           d="M 36.29,48 H 9.71 A 3.71,3.71 0 0 1 6,44.29 V 23.71 A 3.71,3.71 0 0 1 9.71,20 H 36.29 A 3.71,3.71 0 0 1 40,23.71 V 44.29 A 3.71,3.71 0 0 1 36.29,48 Z M 9.71,22 A 1.72,1.72 0 0 0 8,23.71 V 44.29 A 1.72,1.72 0 0 0 9.71,46 H 36.29 A 1.72,1.72 0 0 0 38,44.29 V 23.71 A 1.72,1.72 0 0 0 36.29,22 Z" />
        <path
           id="path1271"
           d="m 25.19,39.6 h -4.38 a 2.42,2.42 0 0 1 -2.34,-3 l 1,-4.06 A 5,5 0 1 1 28,29 4.94,4.94 0 0 1 26.52,32.54 l 1,4.06 a 2.42,2.42 0 0 1 -2.34,3 z M 23,26 a 3,3 0 0 0 -1.8,5.39 l 0.52,0.4 -1.32,5.29 a 0.41,0.41 0 0 0 0.08,0.36 0.39,0.39 0 0 0 0.32,0.16 h 4.38 a 0.39,0.39 0 0 0 0.32,-0.16 0.41,0.41 0 0 0 0.08,-0.36 l -1.32,-5.29 0.52,-0.4 A 3,3 0 0 0 23,26 Z" />
        <rect
           id="rect1273"
           height="2"
           width="32"
           y="42"
           x="7" />
        <path
           id="path1275"
           d="M 36,22 H 29.75 V 12 A 6.13,6.13 0 0 0 23.5,6 6.13,6.13 0 0 0 17.25,12 V 22 H 11 V 12 A 12.27,12.27 0 0 1 23.5,0 12.27,12.27 0 0 1 36,12 Z m -4.17,-2 h 2.09 V 12 A 10.23,10.23 0 0 0 23.5,2 10.23,10.23 0 0 0 13.08,12 v 8 h 2.09 v -8 a 8.18,8.18 0 0 1 8.33,-8 8.18,8.18 0 0 1 8.33,8 z" />
      </g>
    </g>
  </g>
</svg>
