<svg id="SVGRoot" width="205" height="203" version="1.1" viewBox="0 0 205 203" xmlns="http://www.w3.org/2000/svg">
 <g transform="translate(0,2)">
  <g transform="matrix(3.7795 0 0 3.7795 10.171 -6.7758)">
   <g transform="translate(-1.0884 -121.69)">
    <g transform="translate(1.6608 -59.209)">
     <g transform="translate(-.6443 -59.335)">
      <g transform="translate(-1396.8 269.89)">
       <g transform="translate(-57.972 -.024822)">
        <rect x="1453.3" y="-27.658" width="52.396" height="52.396" fill="#0082b4" stroke="#000" stroke-linecap="round" stroke-width=".52068" style="paint-order:fill markers stroke"/>
        <text x="1479.1055" y="21.10928" font-family="voestalpine" font-size="8.4667px" letter-spacing="0px" stroke-width=".26458" text-align="center" text-anchor="middle" word-spacing="0px" style="line-height:1.25" xml:space="preserve"><tspan x="1479.1055" y="21.10928" fill="#ffffff" font-family="sans-serif" font-size="4.9389px" stroke-width=".26458" text-align="center" text-anchor="middle">MAKRA</tspan></text>
        <g transform="matrix(.41802 0 0 .41802 1464.9 -25.235)" fill="#fff">
         <g fill="#fff">
          <path d="m48.763 30.675c-1.152 0-1.9897 1.4067-1.9897 4.0555 0 2.5289.77796 3.9655 1.9751 3.9655 1.3464 0 1.9897-1.5712 1.9897-4.055 0-2.3942-.61285-3.966-1.9751-3.966z"/>
          <path d="m11.966 30.675c-1.1526 0-1.9903 1.4067-1.9903 4.0555 0 2.5289.77795 3.9655 1.9751 3.9655 1.347 0 1.9903-1.5712 1.9903-4.055 0-2.3942-.61346-3.966-1.9751-3.966z"/>
          <path d="m35.007 17.152c-1.152 0-1.9897 1.4067-1.9897 4.0556 0 2.5289.77802 3.9654 1.9751 3.9654 1.3464 0 1.9897-1.5712 1.9897-4.055 0-2.3942-.61292-3.966-1.9751-3.966z"/>
          <path d="m19.647 30.675c-1.1526 0-1.9903 1.4067-1.9903 4.0555 0 2.5289.77795 3.9655 1.9751 3.9655 1.347 0 1.9903-1.5712 1.9903-4.055 0-2.3942-.61346-3.966-1.9751-3.966z"/>
          <path d="m19.647 17.152c-1.1526 0-1.9903 1.4067-1.9903 4.0556 0 2.5289.77795 3.9654 1.9751 3.9654 1.347 0 1.9903-1.5712 1.9903-4.055 0-2.3942-.61346-3.966-1.9751-3.966z"/>
          <path d="m11.966 17.152c-1.1526 0-1.9903 1.4067-1.9903 4.0556 0 2.5289.77795 3.9654 1.9751 3.9654 1.347 0 1.9903-1.5712 1.9903-4.055 0-2.3942-.61346-3.966-1.9751-3.966z"/>
          <path d="m58.049 17.152c-1.1514 0-1.9897 1.4067-1.9897 4.0556 0 2.5289.77856 3.9654 1.9751 3.9654 1.3464 0 1.9897-1.5712 1.9897-4.055 0-2.3942-.61292-3.966-1.9752-3.966z"/>
          <path d="m58.049 30.675c-1.1514 0-1.9897 1.4067-1.9897 4.0555 0 2.5289.77856 3.9655 1.9751 3.9655 1.3464 0 1.9897-1.5712 1.9897-4.055 0-2.3942-.61292-3.966-1.9752-3.966z"/>
          <path d="m63.46 4.965h-56.92c-2.5 0-4.54 2.04-4.54 4.54v33.69h66v-33.69c0-2.5-2.04-4.54-4.54-4.54zm-13.257 11.335h1.1222v9.7268h-1.272v-8.4998h-.02924l-1.6912.91321-.25464-1.0028zm-38.327 23.414c-1.9001 0-3.1874-1.7808-3.2173-4.998 0-3.2618 1.4067-5.0577 3.3818-5.0577 2.05 0 3.2173 1.8258 3.2173 4.9231 0 3.3075-1.2269 5.1327-3.3818 5.1327zm0-13.523c-1.9001 0-3.1874-1.7807-3.2173-4.998 0-3.2618 1.4067-5.0577 3.3818-5.0577 2.05 0 3.2173 1.8258 3.2173 4.9231 0 3.3075-1.2269 5.1327-3.3818 5.1327zm7.6805 13.523c-1.9001 0-3.1874-1.7808-3.2173-4.998 0-3.2618 1.4067-5.0577 3.3818-5.0577 2.05 0 3.2173 1.8258 3.2173 4.9231 0 3.3075-1.227 5.1327-3.3818 5.1327zm0-13.523c-1.9001 0-3.1874-1.7807-3.2173-4.998 0-3.2618 1.4067-5.0577 3.3818-5.0577 2.05 0 3.2173 1.8258 3.2173 4.9231 0 3.3075-1.227 5.1327-3.3818 5.1327zm5.4811-8.7539 2.1244-1.1374h1.1228v9.7268h-1.272v-8.4998h-.02991l-1.6912.91321zm3.5067 22.112h-1.2721v-8.4999h-.02924l-1.6912.91327-.25464-1.0028 2.125-1.1374h1.1222zm6.1793 0h-1.272v-8.4999h-.02924l-1.6912.91327-.25464-1.0028 2.1249-1.1374h1.1222v9.7268zm.19434-13.358c-1.9008 0-3.188-1.7807-3.2179-4.998 0-3.2618 1.4067-5.0577 3.3824-5.0577 2.0494 0 3.2167 1.8258 3.2167 4.9231 0 3.3075-1.227 5.1327-3.3812 5.1327zm7.123 13.358h-1.272v-8.4999h-.02985l-1.6912.91327-.25403-1.0028 2.1243-1.1374h1.1228zm1.6047-13.523h-1.272v-8.4998h-.02924l-1.6912.91321-.25464-1.0028 2.125-1.1374h1.1221v9.7268zm5.0286 13.687c-1.9008 0-3.188-1.7808-3.2179-4.998 0-3.2618 1.4067-5.0577 3.3824-5.0577 2.0494 0 3.2167 1.8258 3.2167 4.9231 0 3.3075-1.227 5.1327-3.3812 5.1327zm9.2858 0c-1.9008 0-3.1874-1.7808-3.2179-4.998 0-3.2618 1.4073-5.0577 3.3824-5.0577 2.0495 0 3.2167 1.8258 3.2167 4.9231 0 3.3075-1.2271 5.1327-3.3812 5.1327zm0-13.523c-1.9008 0-3.1874-1.7807-3.2179-4.998 0-3.2618 1.4073-5.0577 3.3824-5.0577 2.0495 0 3.2167 1.8258 3.2167 4.9231 0 3.3075-1.2271 5.1327-3.3812 5.1327z"/>
          <path d="m2 49.825c0 2.4969 2.043 4.54 4.54 4.54h17.71v5h-1.09c-2.43 0-4.23 1.84-4.49 4.57-.01996.27997.07001.56.26001.77002.19.20996.46002.32996.73999.32996h30.66c.27997 0 .54999-.12.73999-.32996.19-.21002.27997-.49005.26001-.77002-.26001-2.73-2.06-4.57-4.49-4.57h-1.09v-5h17.71c2.4971 0 4.54-2.043 4.54-4.54v-4.6299h-66zm32.06-1.05h1.88c.54999 0 1 .44995 1 1 0 .56-.45001 1-1 1h-1.88c-.54999 0-1-.44-1-1 0-.55005.45001-1 1-1z"/>
         </g>
        </g>
       </g>
      </g>
     </g>
    </g>
   </g>
  </g>
 </g>
</svg>
