<?xml version="1.0" encoding="UTF-8" standalone="no"?>
<svg
   xmlns:dc="http://purl.org/dc/elements/1.1/"
   xmlns:cc="http://creativecommons.org/ns#"
   xmlns:rdf="http://www.w3.org/1999/02/22-rdf-syntax-ns#"
   xmlns:svg="http://www.w3.org/2000/svg"
   xmlns="http://www.w3.org/2000/svg"
   id="SVGRoot"
   version="1.1"
   viewBox="0 0 200 200"
   height="200px"
   width="200px">
  <defs
     id="defs271" />
  <metadata
     id="metadata274">
    <rdf:RDF>
      <cc:Work
         rdf:about="">
        <dc:format>image/svg+xml</dc:format>
        <dc:type
           rdf:resource="http://purl.org/dc/dcmitype/StillImage" />
        <dc:title></dc:title>
      </cc:Work>
    </rdf:RDF>
  </metadata>
  <g
     id="layer1">
    <g
       id="g462"
       style="display:inline"
       transform="matrix(3.7795276,0,0,3.7795276,-4821.7373,107.5529)">
      <rect
         y="-27.584515"
         x="1276.5243"
         height="52.395985"
         width="52.395985"
         id="rect835-2-0-2-8-1-5-6-8-9-7-3-0-5-5-1-5-4-5-2-4-0-7-9"
         style="fill:#0082b4;fill-opacity:1;stroke:#000000;stroke-width:0.520679;stroke-linecap:round;stroke-miterlimit:4;stroke-dasharray:none;paint-order:fill markers stroke" />
      <text
         xml:space="preserve"
         style="font-size:8.46667004px;line-height:1.25;font-family:voestalpine;-inkscape-font-specification:voestalpine;text-align:center;letter-spacing:0px;word-spacing:0px;text-anchor:middle;stroke-width:0.26458299"
         x="1302.2893"
         y="23.288483"
         id="text858-5-83-73-7-0-7-0-7-9-81-0"><tspan
           id="tspan2108-0-1"
           x="1302.2893"
           y="23.288483"
           style="font-size:8.46667004px;text-align:center;text-anchor:middle;fill:#ffffff;fill-opacity:1;stroke-width:0.26458299">MAKRA</tspan></text>
      <g
         transform="matrix(0.41801989,0,0,0.41801989,1288.0915,-25.161746)"
         id="g2511"
         style="fill:#ffffff;fill-opacity:1">
        <g
           style="fill:#ffffff;fill-opacity:1"
           id="g2490">
          <path
             style="fill:#ffffff;fill-opacity:1"
             d="m 48.763245,30.675201 c -1.152039,0 -1.989686,1.406678 -1.989686,4.055542 0,2.528931 0.777955,3.965455 1.975098,3.965455 1.346375,0 1.989685,-1.571168 1.989685,-4.054993 0,-2.394226 -0.612854,-3.966004 -1.975097,-3.966004 z"
             id="path2470" />
          <path
             style="fill:#ffffff;fill-opacity:1"
             d="m 11.966186,30.675201 c -1.152648,0 -1.9902949,1.406678 -1.9902949,4.055542 0,2.528931 0.7779539,3.965455 1.9750979,3.965455 1.346985,0 1.990295,-1.571168 1.990295,-4.054993 0,-2.394226 -0.613464,-3.966004 -1.975098,-3.966004 z"
             id="path2472" />
          <path
             style="fill:#ffffff;fill-opacity:1"
             d="m 35.007019,17.152435 c -1.152039,0 -1.989746,1.406677 -1.989746,4.055603 0,2.52887 0.778015,3.965393 1.975098,3.965393 1.346374,0 1.989746,-1.571167 1.989746,-4.054992 0,-2.394226 -0.612915,-3.966004 -1.975098,-3.966004 z"
             id="path2474" />
          <path
             style="fill:#ffffff;fill-opacity:1"
             d="m 19.646667,30.675201 c -1.152648,0 -1.990295,1.406678 -1.990295,4.055542 0,2.528931 0.777954,3.965455 1.975098,3.965455 1.346985,0 1.990295,-1.571168 1.990295,-4.054993 0,-2.394226 -0.613464,-3.966004 -1.975098,-3.966004 z"
             id="path2476" />
          <path
             style="fill:#ffffff;fill-opacity:1"
             d="m 19.646667,17.152435 c -1.152648,0 -1.990295,1.406677 -1.990295,4.055603 0,2.52887 0.777954,3.965393 1.975098,3.965393 1.346985,0 1.990295,-1.571167 1.990295,-4.054992 0,-2.394226 -0.613464,-3.966004 -1.975098,-3.966004 z"
             id="path2478" />
          <path
             style="fill:#ffffff;fill-opacity:1"
             d="m 11.966186,17.152435 c -1.152648,0 -1.9902949,1.406677 -1.9902949,4.055603 0,2.52887 0.7779539,3.965393 1.9750979,3.965393 1.346985,0 1.990295,-1.571167 1.990295,-4.054992 0,-2.394226 -0.613464,-3.966004 -1.975098,-3.966004 z"
             id="path2480" />
          <path
             style="fill:#ffffff;fill-opacity:1"
             d="m 58.049011,17.152435 c -1.151428,0 -1.989685,1.406677 -1.989685,4.055603 0,2.52887 0.778565,3.965393 1.975098,3.965393 1.346374,0 1.989746,-1.571167 1.989746,-4.054992 0,-2.394226 -0.612915,-3.966004 -1.975159,-3.966004 z"
             id="path2482" />
          <path
             style="fill:#ffffff;fill-opacity:1"
             d="m 58.049011,30.675201 c -1.151428,0 -1.989685,1.406678 -1.989685,4.055542 0,2.528931 0.778565,3.965455 1.975098,3.965455 1.346374,0 1.989746,-1.571168 1.989746,-4.054993 0,-2.394226 -0.612915,-3.966004 -1.975159,-3.966004 z"
             id="path2484" />
          <path
             style="fill:#ffffff;fill-opacity:1"
             d="M 63.459961,4.9649963 H 6.539978 C 4.039978,4.9649963 2,7.0050354 2,9.5050354 V 43.195038 H 68 V 9.5050354 c 0,-2.5 -2.040039,-4.5400391 -4.540039,-4.5400391 z M 50.20343,16.29953 h 1.122193 v 9.726807 H 50.053589 V 17.52652 h -0.02924 L 48.33313,18.439728 48.078491,17.43692 Z M 11.876038,39.713592 c -1.9001469,0 -3.1874394,-1.780761 -3.2172856,-4.998046 0,-3.26178 1.4066776,-5.05774 3.3817746,-5.05774 2.050049,0 3.217286,1.825806 3.217286,4.923096 0,3.307495 -1.226929,5.13269 -3.381775,5.13269 z m 0,-13.522766 c -1.9001469,0 -3.1874394,-1.7807 -3.2172856,-4.998047 0,-3.261779 1.4066776,-5.057739 3.3817746,-5.057739 2.050049,0 3.217286,1.825806 3.217286,4.923096 0,3.307495 -1.226929,5.13269 -3.381775,5.13269 z m 7.680481,13.522766 c -1.900147,0 -3.187439,-1.780761 -3.217286,-4.998046 0,-3.26178 1.406678,-5.05774 3.381775,-5.05774 2.050049,0 3.217285,1.825806 3.217285,4.923096 0,3.307495 -1.226989,5.13269 -3.381774,5.13269 z m 0,-13.522766 c -1.900147,0 -3.187439,-1.7807 -3.217286,-4.998047 0,-3.261779 1.406678,-5.057739 3.381775,-5.057739 2.050049,0 3.217285,1.825806 3.217285,4.923096 0,3.307495 -1.226989,5.13269 -3.381774,5.13269 z m 5.48114,-8.753906 2.124389,-1.13739 h 1.122803 v 9.726807 H 27.012817 V 17.52652 h -0.02991 l -1.691162,0.913208 z m 3.506714,22.112183 h -1.272095 v -8.499878 h -0.02924 l -1.691223,0.913269 -0.254639,-1.002808 2.125,-1.13739 h 1.122193 z m 6.179321,0 H 33.45166 v -8.499878 h -0.02924 l -1.691223,0.913269 -0.254639,-1.002808 2.124939,-1.13739 h 1.122193 v 9.726807 z M 34.91803,26.190826 c -1.900757,0 -3.18805,-1.7807 -3.217896,-4.998047 0,-3.261779 1.406677,-5.057739 3.382386,-5.057739 2.049438,0 3.216735,1.825806 3.216735,4.923096 0,3.307495 -1.226989,5.13269 -3.381225,5.13269 z m 7.123047,13.358277 h -1.272034 v -8.499878 h -0.02985 l -1.691223,0.913269 -0.254029,-1.002808 2.124329,-1.13739 h 1.122803 z M 43.645752,26.026337 H 42.373718 V 17.52652 h -0.02924 l -1.691223,0.913208 -0.254638,-1.002808 2.125,-1.13739 h 1.122131 v 9.726807 z m 5.028564,13.687255 c -1.900756,0 -3.188049,-1.780761 -3.217895,-4.998046 0,-3.26178 1.406677,-5.05774 3.382385,-5.05774 2.049439,0 3.216675,1.825806 3.216675,4.923096 0,3.307495 -1.22699,5.13269 -3.381165,5.13269 z m 9.285767,0 c -1.900757,0 -3.187439,-1.780761 -3.217896,-4.998046 0,-3.26178 1.407288,-5.05774 3.382386,-5.05774 2.049499,0 3.216736,1.825806 3.216736,4.923096 0,3.307495 -1.227051,5.13269 -3.381226,5.13269 z m 0,-13.522766 c -1.900757,0 -3.187439,-1.7807 -3.217896,-4.998047 0,-3.261779 1.407288,-5.057739 3.382386,-5.057739 2.049499,0 3.216736,1.825806 3.216736,4.923096 0,3.307495 -1.227051,5.13269 -3.381226,5.13269 z"
             id="path2486" />
          <path
             style="fill:#ffffff;fill-opacity:1"
             d="m 2,49.825043 c 0,2.496948 2.0429688,4.539978 4.539978,4.539978 H 24.25 v 5 h -1.090027 c -2.429993,0 -4.22998,1.840027 -4.48999,4.570007 -0.01996,0.279968 0.07001,0.559998 0.26001,0.770019 0.190002,0.209961 0.460022,0.329957 0.73999,0.329957 h 30.660034 c 0.279968,0 0.549988,-0.119996 0.73999,-0.329957 0.190003,-0.210022 0.279969,-0.490051 0.26001,-0.770019 -0.26001,-2.729981 -2.059998,-4.570007 -4.48999,-4.570007 H 45.75 v -5 H 63.459961 C 65.957031,54.365021 68,52.321991 68,49.824982 V 45.195038 H 2 Z m 32.059998,-1.049988 h 1.880005 c 0.549987,0 1,0.449951 1,1 0,0.559998 -0.450013,1 -1,1 h -1.880005 c -0.549988,0 -1,-0.440002 -1,-1 0,-0.550049 0.450012,-1 1,-1 z"
             id="path2488" />
        </g>
      </g>
    </g>
  </g>
</svg>
