<svg id="SVGRoot" version="1.1" viewBox="0 0 205 205" xmlns="http://www.w3.org/2000/svg">
 <g transform="matrix(3.7795 0 0 3.7795 -209.65 -308.13)">
  <rect x="56.343" y="82.399" width="52.917" height="52.917" fill="#b9d4ff" stroke="#000" stroke-linecap="round" stroke-width=".5" style="paint-order:fill markers stroke"/>
  <text transform="scale(1.0125 .98768)" x="81.487617" y="125.43761" fill="#000000" font-family="sans-serif" font-size="5.6444px" letter-spacing="0px" stroke-width=".26132" text-align="center" text-anchor="middle" word-spacing="0px" style="line-height:1.04999995" xml:space="preserve"><tspan x="82.479805" y="125.43761" text-align="center">Ustaw nagłówek </tspan><tspan x="81.487617" y="132.02299" text-align="center">i stopkę</tspan></text>
  <g transform="matrix(.36102 0 0 .37768 64.938 85.433)">
   <g>
    <path d="m25.6 82.4c-0.9 0-1.7-0.2-2.5-0.5-1.5-0.7-2.7-2-3.3-3.6-0.5-1.6-0.4-3.4 0.4-4.9l7.7-14c1.8-3.3 5.3-5.3 9-5.3 1.4 0 2.8 0.3 4.1 0.8l15.2 6.6 10-23.8c-5.3-2.9-8.2-8.9-7-15.1 1.1-5.5 5.5-9.9 11-11 0.9-0.2 1.9-0.3 2.8-0.3 7.7 0 14 6.3 14 14 0 5.3-2.9 10-7.5 12.4 1.7 4.9 1.6 10.2-0.4 15l-7.3 17.3c-1.7 4.1-5.7 6.7-10.1 6.7-1.5 0-2.9-0.3-4.2-0.9l-20.2-8.5-6.3 11.8c-1 2-3.1 3.3-5.4 3.3zm11.4-23.9c-2.1 0-4 1.1-5.1 3l-7.7 14c-0.2 0.4-0.3 0.8-0.1 1.3 0.1 0.4 0.4 0.8 0.9 0.9 0.7 0.3 1.7 0 2.1-0.7l8.2-15.4 24 10.1c0.8 0.3 1.6 0.5 2.5 0.5 2.6 0 4.9-1.5 5.9-3.9l7.2-17.3c1.8-4.3 1.7-9.2-0.4-13.5l-1.1-2.3 2.5-0.8c4-1.3 6.6-4.9 6.6-9.1 0-5.3-4.3-9.5-9.5-9.5-0.6 0-1.3 0.1-1.9 0.2-3.7 0.7-6.7 3.7-7.4 7.4-0.9 4.8 1.7 9.4 6.2 10.9l2.3 0.8-13.5 32.3-19.4-8.4c-0.8-0.3-1.5-0.5-2.3-0.5z"/>
    <path d="m50.7 22.8-6-6c-0.4-0.4-1.1-0.1-1.1 0.4v2.5h-12.7c-0.5 0-0.9 0.4-0.9 0.9v5.2c0 0.5 0.4 0.9 0.9 0.9h12.7v2.5c0 0.5 0.7 0.8 1 0.4l6-6c0.3-0.3 0.3-0.6 0.1-0.8z"/>
    <path d="m19.1 58 6.4-6.4c0.3-0.3 0.1-0.7-0.3-0.7h-2.9v-12.7c0-0.5-0.4-0.9-0.9-0.9h-5.2c-0.5 0-0.9 0.4-0.9 0.9v12.7h-2.9c-0.4 0-0.6 0.5-0.3 0.7l6.4 6.4c0.1 0.2 0.4 0.2 0.6 0z"/>
   </g>
  </g>
 </g>
</svg>
