<?xml version="1.0" encoding="UTF-8" standalone="no"?>
<svg
   xmlns:dc="http://purl.org/dc/elements/1.1/"
   xmlns:cc="http://creativecommons.org/ns#"
   xmlns:rdf="http://www.w3.org/1999/02/22-rdf-syntax-ns#"
   xmlns:svg="http://www.w3.org/2000/svg"
   xmlns="http://www.w3.org/2000/svg"
   xmlns:sodipodi="http://sodipodi.sourceforge.net/DTD/sodipodi-0.dtd"
   xmlns:inkscape="http://www.inkscape.org/namespaces/inkscape"
   width="53.416668mm"
   height="53.416668mm"
   viewBox="0 0 53.416668 53.416668"
   version="1.1"
   id="svg109"
   inkscape:version="1.0 (4035a4fb49, 2020-05-01)"
   sodipodi:docname="NaglowekiStopka2.svg">
  <defs
     id="defs103" />
  <sodipodi:namedview
     id="base"
     pagecolor="#ffffff"
     bordercolor="#666666"
     borderopacity="1.0"
     inkscape:pageopacity="0.0"
     inkscape:pageshadow="2"
     inkscape:zoom="1.3160895"
     inkscape:cx="117.12367"
     inkscape:cy="251.42466"
     inkscape:document-units="mm"
     inkscape:current-layer="layer1"
     inkscape:document-rotation="0"
     showgrid="false"
     fit-margin-top="0"
     fit-margin-left="0"
     fit-margin-right="0"
     fit-margin-bottom="0"
     inkscape:window-width="986"
     inkscape:window-height="1008"
     inkscape:window-x="672"
     inkscape:window-y="0"
     inkscape:window-maximized="0" />
  <metadata
     id="metadata106">
    <rdf:RDF>
      <cc:Work
         rdf:about="">
        <dc:format>image/svg+xml</dc:format>
        <dc:type
           rdf:resource="http://purl.org/dc/dcmitype/StillImage" />
        <dc:title></dc:title>
      </cc:Work>
    </rdf:RDF>
  </metadata>
  <g
     inkscape:label="Warstwa 1"
     inkscape:groupmode="layer"
     id="layer1"
     transform="translate(-55.690476,-82.148812)">
    <rect
       style="fill:#c4c4c4;fill-opacity:1;stroke:#000000;stroke-width:0.499998;stroke-linecap:round;stroke-miterlimit:4;stroke-dasharray:none;stroke-opacity:1;paint-order:fill markers stroke"
       id="rect833-0-59"
       width="52.916668"
       height="52.916668"
       x="56.342552"
       y="82.398811"
       inkscape:export-xdpi="142.6521"
       inkscape:export-ydpi="142.6521" />
    <text
       xml:space="preserve"
       style="font-size:6.27179px;line-height:1.05;font-family:voestalpine;-inkscape-font-specification:voestalpine;text-align:center;letter-spacing:0px;word-spacing:0px;text-anchor:middle;fill:#ffffff;fill-opacity:1;stroke-width:0.261323;"
       x="81.487617"
       y="129.14409"
       id="text858-5-83-73-7-0-7-0-7-9-81-0-2-2-6"
       transform="scale(1.0124726,0.98768104)"
       inkscape:export-xdpi="142.6521"
       inkscape:export-ydpi="142.6521"><tspan
         sodipodi:role="line"
         x="81.487617"
         y="129.14409"
         style="font-size:6.27179px;text-align:center;text-anchor:middle;fill:#ffffff;fill-opacity:1;stroke-width:0.261323;"
         id="tspan176">Ustaw nagłówek </tspan><tspan
         id="tspan873"
         sodipodi:role="line"
         x="81.487617"
         y="135.72946"
         style="font-size:6.27179px;text-align:center;text-anchor:middle;fill:#ffffff;fill-opacity:1;stroke-width:0.261323;">i stopkę</tspan></text>
    <g
       style="fill:#ffffff;fill-opacity:1"
       id="g198"
       transform="matrix(0.36102418,0,0,0.37768459,64.938212,85.433053)">
      <g
         id="g184"
         style="fill:#ffffff;fill-opacity:1">
        <path
           id="path178"
           d="m 25.6,82.4 c -0.9,0 -1.7,-0.2 -2.5,-0.5 -1.5,-0.7 -2.7,-2 -3.3,-3.6 -0.5,-1.6 -0.4,-3.4 0.4,-4.9 l 7.7,-14 c 1.8,-3.3 5.3,-5.3 9,-5.3 1.4,0 2.8,0.3 4.1,0.8 l 15.2,6.6 10,-23.8 c -5.3,-2.9 -8.2,-8.9 -7,-15.1 1.1,-5.5 5.5,-9.9 11,-11 0.9,-0.2 1.9,-0.3 2.8,-0.3 7.7,0 14,6.3 14,14 0,5.3 -2.9,10 -7.5,12.4 1.7,4.9 1.6,10.2 -0.4,15 L 71.8,70 c -1.7,4.1 -5.7,6.7 -10.1,6.7 0,0 0,0 0,0 -1.5,0 -2.9,-0.3 -4.2,-0.9 L 37.3,67.3 31,79.1 c -1,2 -3.1,3.3 -5.4,3.3 z M 37,58.5 c -2.1,0 -4,1.1 -5.1,3 l -7.7,14 c -0.2,0.4 -0.3,0.8 -0.1,1.3 0.1,0.4 0.4,0.8 0.9,0.9 0.7,0.3 1.7,0 2.1,-0.7 l 8.2,-15.4 24,10.1 c 0.8,0.3 1.6,0.5 2.5,0.5 v 0 c 2.6,0 4.9,-1.5 5.9,-3.9 L 74.9,51 c 1.8,-4.3 1.7,-9.2 -0.4,-13.5 l -1.1,-2.3 2.5,-0.8 c 4,-1.3 6.6,-4.9 6.6,-9.1 0,-5.3 -4.3,-9.5 -9.5,-9.5 -0.6,0 -1.3,0.1 -1.9,0.2 -3.7,0.7 -6.7,3.7 -7.4,7.4 -0.9,4.8 1.7,9.4 6.2,10.9 L 72.2,35.1 58.7,67.4 39.3,59 C 38.5,58.7 37.8,58.5 37,58.5 Z"
           fill="#000000"
           style="fill:#ffffff;fill-opacity:1" />
        <path
           id="path180"
           d="m 50.7,22.8 -6,-6 c -0.4,-0.4 -1.1,-0.1 -1.1,0.4 v 2.5 H 30.9 c -0.5,0 -0.9,0.4 -0.9,0.9 v 5.2 c 0,0.5 0.4,0.9 0.9,0.9 h 12.7 v 2.5 c 0,0.5 0.7,0.8 1,0.4 l 6,-6 c 0.3,-0.3 0.3,-0.6 0.1,-0.8 z"
           fill="#000000"
           style="fill:#ffffff;fill-opacity:1" />
        <path
           id="path182"
           d="m 19.1,58 6.4,-6.4 c 0.3,-0.3 0.1,-0.7 -0.3,-0.7 H 22.3 V 38.2 c 0,-0.5 -0.4,-0.9 -0.9,-0.9 h -5.2 c -0.5,0 -0.9,0.4 -0.9,0.9 v 12.7 h -2.9 c -0.4,0 -0.6,0.5 -0.3,0.7 l 6.4,6.4 c 0.1,0.2 0.4,0.2 0.6,0 z"
           fill="#000000"
           style="fill:#ffffff;fill-opacity:1" />
      </g>
    </g>
  </g>
</svg>
