<?xml version="1.0" encoding="UTF-8" standalone="no"?>
<svg
   xmlns:dc="http://purl.org/dc/elements/1.1/"
   xmlns:cc="http://creativecommons.org/ns#"
   xmlns:rdf="http://www.w3.org/1999/02/22-rdf-syntax-ns#"
   xmlns:svg="http://www.w3.org/2000/svg"
   xmlns="http://www.w3.org/2000/svg"
   id="SVGRoot"
   version="1.1"
   viewBox="0 0 200 200"
   height="200px"
   width="200px">
  <defs
     id="defs827" />
  <metadata
     id="metadata830">
    <rdf:RDF>
      <cc:Work
         rdf:about="">
        <dc:format>image/svg+xml</dc:format>
        <dc:type
           rdf:resource="http://purl.org/dc/dcmitype/StillImage" />
        <dc:title></dc:title>
      </cc:Work>
    </rdf:RDF>
  </metadata>
  <g
     id="layer1">
    <g
       id="g1582"
       transform="matrix(3.7795276,0,0,3.7795276,-3962.1065,-1394.7709)">
      <rect
         style="fill:#ffffff;stroke:#000000;stroke-width:0.49999899;stroke-linecap:round;stroke-miterlimit:4;stroke-dasharray:none;stroke-opacity:1;paint-order:fill markers stroke"
         id="rect833-1-5-3-7-4-8-5-1-4-2-8-1-5-8-6-0-5-9"
         width="52.258293"
         x="1048.7688"
         y="369.54422"
         height="52.258293" />
      <text
         xml:space="preserve"
         style="font-size:6.3499999px;line-height:0.94999999;font-family:voestalpine;-inkscape-font-specification:voestalpine;text-align:center;letter-spacing:0px;word-spacing:0px;text-anchor:middle;stroke-width:0.26458299"
         x="1074.8351"
         y="413.1864"
         id="text898-7-3-6-8-3-3-0-66-7-8-8-0-8-3-4-2-6-2"><tspan
           x="1074.8351"
           y="413.1864"
           style="font-size:6.3499999px;text-align:center;text-anchor:middle;stroke-width:0.26458299"
           id="tspan2353-0">Następna zmiana</tspan><tspan
           id="tspan2496"
           x="1074.8351"
           y="419.2189"
           style="font-size:6.3499999px;text-align:center;text-anchor:middle;stroke-width:0.26458299">lub komentarz</tspan></text>
      <path
         d="m 1073.2867,384.06232 h 4.6493 l 3.9589,3.24837 v -3.24837 h 1.4295 c 0.7212,0 1.3081,-0.59708 1.3081,-1.33098 v -6.74744 c 0,-0.7339 -0.5864,-1.33098 -1.3081,-1.33098 h -10.0377 c -0.7213,0 -1.3081,0.59708 -1.3081,1.33098 v 6.74704 c 0,0.7343 0.5868,1.33138 1.3081,1.33138 z m -0.5172,-8.07842 c 0,-0.29775 0.2317,-0.54015 0.5172,-0.54015 h 10.0377 c 0.2847,0 0.5168,0.2424 0.5168,0.54015 v 6.74704 c 0,0.29776 -0.2321,0.54014 -0.5172,0.54014 h -2.2203 v 2.36699 l -2.885,-2.36699 h -4.932 c -0.2855,4e-4 -0.5172,-0.24198 -0.5172,-0.53974 z"
         id="path2246-0-3"
         style="fill:#000000;stroke:none;stroke-width:0.276815;stroke-miterlimit:4;stroke-dasharray:none" />
      <path
         style="fill:#000000;stroke-width:0.218225"
         id="path2432-6"
         d="m 1063.8445,392.78114 c -1.2938,-2.89625 -1.2853,-6.36532 0.074,-9.43608 0.9896,-2.23514 2.5811,-4.07892 4.5964,-5.33531 l 0.8537,1.72729 c -1.6574,1.01487 -2.9398,2.52091 -3.7537,4.35913 -0.9804,2.21428 -1.0948,4.68705 -0.3877,6.84879 l 0.6454,-2.48749 3.2898,8.37722 -8.0294,-3.13026 z" />
      <path
         id="path1811-3-7-2-5"
         d="m 1069.882,393.07709 h 18.781"
         style="fill:none;stroke:#000000;stroke-width:1.19883001;stroke-linecap:butt;stroke-linejoin:miter;stroke-miterlimit:4;stroke-dasharray:none;stroke-opacity:1" />
      <path
         style="fill:none;stroke:#000000;stroke-width:1.19883001;stroke-linecap:butt;stroke-linejoin:miter;stroke-miterlimit:4;stroke-dasharray:none;stroke-opacity:1"
         d="m 1069.882,396.83469 h 18.781"
         id="path1811-0-1-2-3-7" />
      <path
         style="fill:none;stroke:#000000;stroke-width:1.19883001;stroke-linecap:butt;stroke-linejoin:miter;stroke-miterlimit:4;stroke-dasharray:none;stroke-opacity:1"
         d="m 1069.882,400.5923 h 18.781"
         id="path1811-1-2-5-5-5" />
    </g>
  </g>
</svg>
