<svg id="SVGRoot" width="208" height="208" version="1.1" viewBox="0 0 208 208" xmlns="http://www.w3.org/2000/svg">
 <g transform="translate(0,7)">
  <g transform="matrix(3.7795 0 0 3.7795 10.171 -6.7758)">
   <g transform="translate(-1.0884 -121.69)">
    <g transform="translate(1.6608 -59.209)">
     <g transform="translate(-.6443 -59.335)">
      <g transform="translate(-1396.8 269.89)">
       <g transform="translate(-57.972 -.024822)">
        <g transform="translate(1658.1 73.867)">
         <g transform="translate(-203.03 -103.33)">
          <flowRoot transform="matrix(.26458 0 0 .26458 -2.875 1.091)" fill="#000000" font-family="sans-serif" font-size="40px" letter-spacing="0px" word-spacing="0px" style="line-height:1.25" xml:space="preserve"><flowRegion><rect x="-85.582" y="-60.812" width="342.33" height="293.65"/></flowRegion><flowPara/></flowRoot>
          <g transform="translate(-1039.4 318.88)">
           <flowRoot transform="matrix(.26458 0 0 .26458 1036.5 -317.79)" fill="#000000" font-family="sans-serif" font-size="40px" letter-spacing="0px" word-spacing="0px" style="line-height:1.25" xml:space="preserve"><flowRegion><rect x="-105.21" y="-13.703" width="562.17" height="513.49"/></flowRegion><flowPara/></flowRoot>
           <g transform="translate(-66.134 .039287)">
            <g transform="translate(-66.173 .043409)">
             <flowRoot transform="matrix(.26458 0 0 .26458 1168.8 -317.87)" fill="#000000" font-family="sans-serif" font-size="40px" letter-spacing="0px" word-spacing="0px" style="line-height:1.25" xml:space="preserve"><flowRegion><rect x="-114.63" y="-91.434" width="675.23" height="522.91"/></flowRegion><flowPara/></flowRoot>
             <g transform="translate(-66.2 -.040316)">
              <g transform="translate(-65.918 -.60254)">
               <g transform="translate(-66.6 .14883)">
                <flowRoot fill="black" font-family="sans-serif" font-size="40px" letter-spacing="0px" word-spacing="0px" style="line-height:1.25" xml:space="preserve"><flowRegion><rect x="-24.34" y="-19.695" width="252.04" height="245.75"/></flowRegion><flowPara/></flowRoot>
                <g transform="translate(-68.678 -.48293)">
                 <flowRoot fill="black" font-family="sans-serif" font-size="40px" letter-spacing="0px" word-spacing="0px" style="line-height:1.25" xml:space="preserve"><flowRegion><rect x="-65.168" y="-26.762" width="382.37" height="335.26"/></flowRegion><flowPara/></flowRoot>
                 <g transform="translate(-63.347 .4912)">
                  <g transform="translate(529.82 -.18087)">
                   <g transform="translate(794.67 .06923)">
                    <g transform="translate(-198.36 .17569)">
                     <g transform="translate(-530.68 .043413)">
                      <rect x="905.43" y="-317.37" width="52.917" height="52.917" fill="#ffec8e" stroke="#000" stroke-linecap="round" stroke-width=".5" style="paint-order:fill markers stroke"/>
                      <text x="931.47412" y="-276.95651" fill="#000000" font-family="sans-serif" font-size="4.9389px" letter-spacing="0px" stroke-width=".26458" text-align="center" text-anchor="middle" word-spacing="0px" style="line-height:1.25" xml:space="preserve"><tspan x="931.47412" y="-276.95651" text-align="center">Normalny</tspan><tspan x="931.47412" y="-269.01901" text-align="center"> pomiędzy ms</tspan></text>
                      <g transform="matrix(.39102 0 0 .39102 914.94 -313.22)" clip-rule="evenodd" fill-rule="evenodd" stroke-linejoin="round" stroke-miterlimit="1.4142">
                       <path d="m57.46 10.501c.621.012 1.241.051 1.857.13 1.2.152 2.383.44 3.518.856 2.335.855 4.46 2.254 6.176 4.053 1.581 1.659 2.807 3.65 3.569 5.812.403 1.143.676 2.33.814 3.534.063.55.094 1.101.105 1.654.065 10.238.001 20.476.001 30.713-.004.622-.035 1.243-.106 1.861-.138 1.204-.411 2.391-.814 3.534-.762 2.162-1.988 4.153-3.569 5.812-1.716 1.799-3.841 3.198-6.176 4.053-1.2.44-2.451.736-3.721.881-.55.063-1.101.094-1.654.105-10.238.065-20.476.001-30.713.001-.622-.004-1.243-.035-1.861-.106-1.204-.138-2.391-.411-3.534-.814-2.285-.805-4.378-2.129-6.09-3.842-1.713-1.712-3.037-3.805-3.842-6.09-.403-1.143-.676-2.33-.814-3.534-.063-.55-.094-1.101-.105-1.654-.065-10.238-.001-20.476-.001-30.713.004-.622.035-1.243.106-1.861.138-1.204.411-2.391.814-3.534.805-2.285 2.129-4.378 3.842-6.09 1.712-1.713 3.805-3.037 6.09-3.842 1.143-.403 2.33-.676 3.534-.814.55-.063 1.101-.094 1.654-.105 10.307-.065 20.613-.065 30.92 0zm-30.707 1.999c-.548.003-1.095.031-1.639.093-1.055.121-2.096.36-3.097.713-1.896.668-3.642 1.744-5.096 3.131-1.578 1.504-2.806 3.368-3.556 5.416-.365.995-.617 2.031-.75 3.082-.069.541-.103 1.085-.114 1.631-.065 10.289-.065 20.579 0 30.868.011.546.045 1.09.114 1.631.133 1.051.385 2.087.75 3.082.75 2.048 1.977 3.912 3.556 5.416 1.454 1.387 3.2 2.463 5.096 3.131 1.001.353 2.042.592 3.097.713.482.055.966.083 1.452.092 10.289.065 20.579.065 30.868 0 .546-.011 1.09-.045 1.631-.114 1.051-.133 2.087-.385 3.082-.75 2.048-.75 3.912-1.977 5.416-3.556 1.387-1.454 2.463-3.2 3.131-5.096.353-1.001.592-2.042.713-3.097.055-.482.083-.966.092-1.452.065-10.289.065-20.579 0-30.868-.009-.486-.037-.97-.092-1.452-.121-1.055-.36-2.096-.713-3.097-.668-1.896-1.744-3.642-3.131-5.096-1.504-1.579-3.368-2.806-5.416-3.556-.995-.365-2.031-.617-3.082-.75-.541-.069-1.085-.103-1.631-.114-10.227-.065-20.454-.001-30.681-.001zm22.496 36.5c.299.004.594.049.878.145.762.258 1.386.853 1.681 1.601.119.301.179.618.191.94.024 1.876.024 3.752 0 5.628-.011.3-.063.594-.167.877-.268.734-.851 1.331-1.578 1.617-.301.119-.617.179-.94.191-9.875.125-19.753.125-29.628 0-.323-.012-.639-.072-.94-.191-.727-.286-1.31-.883-1.578-1.617-.104-.283-.156-.577-.167-.877-.024-1.876-.024-3.752 0-5.628.011-.3.063-.594.167-.877.268-.734.851-1.331 1.578-1.617.301-.119.617-.179.94-.191 9.854-.124 19.709-.001 29.563-.001zm-29.486 2c-.091.001-.18.014-.266.046-.207.076-.375.244-.451.451-.029.077-.043.158-.046.24-.023 1.855-.115 3.714.002 5.565.026.286.209.54.478.646.082.032.169.048.257.052 9.854.124 19.73.621 29.565-.002.286-.026.54-.209.646-.478.032-.082.048-.169.052-.257.023-1.855.115-3.714-.002-5.565-.026-.286-.209-.54-.478-.646-.082-.032-.169-.048-.257-.052-9.832-.124-19.666 0-29.5 0zm44.551-14.499c.3.011.594.063.877.167.734.268 1.331.851 1.617 1.578.119.301.179.617.191.94.024 1.876.024 3.752 0 5.628-.011.3-.063.594-.167.877-.268.734-.851 1.331-1.578 1.617-.301.119-.617.179-.94.191-14.875.188-29.753.188-44.628 0-.323-.012-.639-.072-.94-.191-.727-.286-1.31-.883-1.578-1.617-.104-.283-.156-.577-.167-.877-.024-1.876-.024-3.752 0-5.628.011-.3.063-.594.167-.877.268-.734.851-1.331 1.578-1.617.301-.119.617-.179.94-.191 14.875-.189 29.753-.189 44.628 0zm-44.551 1.999c-.097.001-.192.016-.283.052-.2.079-.361.244-.434.445-.029.077-.043.158-.046.24-.023 1.855-.115 3.714.002 5.565.026.286.209.54.478.646.082.032.169.048.257.052 14.854.187 29.74.938 44.565-.002.286-.026.54-.209.646-.478.032-.082.048-.169.052-.257.023-1.855.115-3.714-.002-5.565-.026-.286-.209-.54-.478-.646-.082-.032-.169-.048-.257-.052-14.832-.188-29.666 0-44.5 0zm44.486-14.5c.299.004.594.049.878.145.762.258 1.386.853 1.681 1.601.119.301.179.617.191.94.024 1.876.024 3.752 0 5.628-.012.323-.072.639-.191.94-.286.727-.883 1.31-1.617 1.578-.283.104-.577.156-.877.167-14.875.189-29.753.189-44.628 0-.323-.012-.639-.072-.94-.191-.727-.286-1.31-.883-1.578-1.617-.104-.283-.156-.577-.167-.877-.024-1.876-.024-3.752 0-5.628.011-.3.063-.594.167-.877.268-.734.851-1.331 1.578-1.617.301-.119.617-.179.94-.191 14.853-.188 29.709-.001 44.563-.001zm-44.486 2c-.097.001-.192.016-.283.052-.2.079-.361.244-.434.445-.029.077-.043.158-.046.24-.023 1.855-.115 3.714.002 5.565.026.286.209.54.478.646.082.032.169.048.257.052 14.854.188 29.74.938 44.565-.002.286-.026.54-.209.646-.478.032-.082.048-.169.052-.257.023-1.855.115-3.714-.002-5.565-.026-.286-.209-.54-.478-.646-.082-.032-.169-.048-.257-.052-14.832-.187-29.666 0-44.5 0z" fill-rule="nonzero"/>
                      </g>
                      <rect x="920.7" y="-298.94" width="21.43" height="4.5765" fill="#ffec8e" fill-rule="evenodd" stroke="#ffec8e" stroke-linecap="round" stroke-width=".48113" style="paint-order:fill markers stroke"/>
                     </g>
                    </g>
                   </g>
                  </g>
                 </g>
                </g>
               </g>
              </g>
             </g>
            </g>
           </g>
          </g>
         </g>
        </g>
       </g>
      </g>
     </g>
    </g>
   </g>
  </g>
 </g>
</svg>
