<svg id="SVGRoot" width="208" height="208" version="1.1" viewBox="0 0 208 208" xmlns="http://www.w3.org/2000/svg">
 <g transform="translate(0,7)">
  <g transform="matrix(3.7795 0 0 3.7795 10.171 -6.7758)">
   <g transform="translate(-1.0884 -121.69)">
    <g transform="translate(1.6608 -59.209)">
     <g transform="translate(-.6443 -59.335)">
      <g transform="translate(-1396.8 269.89)">
       <g transform="translate(-57.972 -.024822)">
        <g transform="translate(1658.1 73.867)">
         <g transform="translate(-203.03 -103.33)">
          <flowRoot transform="matrix(.26458 0 0 .26458 -2.875 1.091)" fill="#000000" font-family="sans-serif" font-size="40px" letter-spacing="0px" word-spacing="0px" style="line-height:1.25" xml:space="preserve"><flowRegion><rect x="-85.582" y="-60.812" width="342.33" height="293.65"/></flowRegion><flowPara/></flowRoot>
          <g transform="translate(-1039.4 318.88)">
           <flowRoot transform="matrix(.26458 0 0 .26458 1036.5 -317.79)" fill="#000000" font-family="sans-serif" font-size="40px" letter-spacing="0px" word-spacing="0px" style="line-height:1.25" xml:space="preserve"><flowRegion><rect x="-105.21" y="-13.703" width="562.17" height="513.49"/></flowRegion><flowPara/></flowRoot>
           <g transform="translate(-66.134 .039287)">
            <g transform="translate(-66.173 .043409)">
             <flowRoot transform="matrix(.26458 0 0 .26458 1168.8 -317.87)" fill="#000000" font-family="sans-serif" font-size="40px" letter-spacing="0px" word-spacing="0px" style="line-height:1.25" xml:space="preserve"><flowRegion><rect x="-114.63" y="-91.434" width="675.23" height="522.91"/></flowRegion><flowPara/></flowRoot>
             <g transform="translate(-66.2 -.040316)">
              <g transform="translate(-65.918 -.60254)">
               <g transform="translate(-66.6 .14883)">
                <flowRoot fill="black" font-family="sans-serif" font-size="40px" letter-spacing="0px" word-spacing="0px" style="line-height:1.25" xml:space="preserve"><flowRegion><rect x="-24.34" y="-19.695" width="252.04" height="245.75"/></flowRegion><flowPara/></flowRoot>
                <g transform="translate(-68.678 -.48293)">
                 <flowRoot fill="black" font-family="sans-serif" font-size="40px" letter-spacing="0px" word-spacing="0px" style="line-height:1.25" xml:space="preserve"><flowRegion><rect x="-65.168" y="-26.762" width="382.37" height="335.26"/></flowRegion><flowPara/></flowRoot>
                 <g transform="translate(-63.347 .4912)">
                  <g transform="translate(529.82 -.18087)">
                   <g transform="translate(794.67 .06923)">
                    <g transform="translate(-198.36 .17569)">
                     <g transform="translate(-530.68 .043413)">
                      <g transform="translate(912.04 -.041317)">
                       <g transform="translate(132.58 -.39794)">
                        <g transform="translate(-580.62 .35866)">
                         <g transform="translate(-264.6 -.1571)">
                          <g transform="translate(463.55 .097138)">
                           <g transform="translate(-397.36 .059959)">
                            <g transform="translate(66.026 -.30592)">
                             <g transform="translate(-264.69 -.093008)">
                              <g transform="translate(734.89 179.33)">
                               <g transform="translate(-6.3354 -178.7)">
                                <rect x="109.98" y="-317.37" width="52.917" height="52.917" fill="#ffec8e" stroke="#000" stroke-linecap="round" stroke-width=".5" style="paint-order:fill markers stroke"/>
                                <text x="136.55345" y="-277.09021" fill="#000000" font-family="sans-serif" font-size="4.9389px" letter-spacing="0px" stroke-width=".26458" text-align="center" text-anchor="middle" word-spacing="0px" style="line-height:1.25" xml:space="preserve"><tspan x="136.55345" y="-277.09021" text-align="center">Normalny</tspan><tspan x="136.55345" y="-269.15271" text-align="center"> punktowany ms</tspan></text>
                                <g transform="matrix(.16364 0 0 .15246 123.2 -309.13)">
                                 <path transform="translate(-69.121 -81.167)" d="m86.329 81.167a17.208 17.208 0 1017.208 17.208 17.227 17.227 0 00-17.208-17.208zm0 27.533a10.325 10.325 0 1110.325-10.325 10.336 10.336 0 01-10.325 10.325z"/>
                                 <path transform="translate(-69.121 -81.167)" d="m124.19 101.82h103.25a3.4416 3.4416 0 100-6.8833h-103.25a3.4416 3.4416 0 000 6.8833z"/>
                                 <path transform="translate(-69.121 -81.167)" d="m86.329 132.79a17.208 17.208 0 1017.208 17.208 17.228 17.228 0 00-17.208-17.208zm0 27.533a10.325 10.325 0 1110.325-10.325 10.336 10.336 0 01-10.325 10.325z"/>
                                 <path transform="translate(-69.121 -81.167)" d="m227.44 146.56h-103.25a3.4416 3.4416 0 000 6.8833h103.25a3.4416 3.4416 0 100-6.8833z"/>
                                 <path transform="translate(-69.121 -81.167)" d="m86.329 184.42a17.208 17.208 0 1017.208 17.208 17.227 17.227 0 00-17.208-17.208zm0 27.533a10.325 10.325 0 1110.325-10.325 10.336 10.336 0 01-10.325 10.325z"/>
                                 <path transform="translate(-69.121 -81.167)" d="m227.44 198.18h-103.25a3.4417 3.4417 0 000 6.8833h103.25a3.4417 3.4417 0 100-6.8833z"/>
                                </g>
                               </g>
                              </g>
                             </g>
                            </g>
                           </g>
                          </g>
                         </g>
                        </g>
                       </g>
                      </g>
                     </g>
                    </g>
                   </g>
                  </g>
                 </g>
                </g>
               </g>
              </g>
             </g>
            </g>
           </g>
          </g>
         </g>
        </g>
       </g>
      </g>
     </g>
    </g>
   </g>
  </g>
 </g>
</svg>
