<svg id="SVGRoot" width="206px" height="206px" version="1.1" viewBox="0 0 206 206" xmlns="http://www.w3.org/2000/svg">
 <g transform="matrix(3.7795 0 0 3.7795 -1795.2 2502.6)">
  <flowRoot fill="black" font-family="sans-serif" font-size="40px" letter-spacing="0px" word-spacing="0px" style="line-height:1.25" xml:space="preserve"><flowRegion><rect x="-392.69" y="-63.57" width="758.02" height="397.52"/></flowRegion><flowPara/></flowRoot>
  <flowRoot fill="black" font-family="sans-serif" font-size="40px" letter-spacing="0px" word-spacing="0px" style="line-height:1.25" xml:space="preserve"><flowRegion><rect x="-251.87" y="-84.492" width="624.44" height="455.45"/></flowRegion><flowPara/></flowRoot>
  <flowRoot fill="black" font-family="sans-serif" font-size="40px" letter-spacing="0px" word-spacing="0px" style="line-height:1.25" xml:space="preserve"><flowRegion><rect x="-202.78" y="-50.695" width="473.96" height="281.64"/></flowRegion><flowPara/></flowRoot>
  <flowRoot fill="black" font-family="sans-serif" font-size="40px" letter-spacing="0px" word-spacing="0px" style="line-height:1.25" xml:space="preserve"><flowRegion><rect x="-86.906" y="-78.859" width="516.61" height="410.39"/></flowRegion><flowPara/></flowRoot>
  <flowRoot fill="black" font-family="sans-serif" font-size="40px" letter-spacing="0px" word-spacing="0px" style="line-height:1.25" xml:space="preserve"><flowRegion><rect x="-81.273" y="-32.188" width="309" height="322.68"/></flowRegion><flowPara/></flowRoot>
  <flowRoot fill="black" font-family="sans-serif" font-size="40px" letter-spacing="0px" word-spacing="0px" style="line-height:1.25" xml:space="preserve"><flowRegion><rect x="-90.93" y="-68.398" width="392.69" height="252.67"/></flowRegion><flowPara/></flowRoot>
  <g transform="translate(675.17 -.21291)">
   <flowRoot fill="black" font-family="sans-serif" font-size="40px" letter-spacing="0px" word-spacing="0px" style="line-height:1.25" xml:space="preserve"><flowRegion><rect x="-100.59" y="-53.109" width="462.7" height="369.35"/></flowRegion><flowPara/></flowRoot>
   <g transform="translate(57.194 .21291)">
    <flowRoot fill="black" font-family="sans-serif" font-size="40px" letter-spacing="0px" word-spacing="0px" style="line-height:1.25" xml:space="preserve"><flowRegion><rect x="-329.12" y="-12.07" width="696.05" height="259.91"/></flowRegion><flowPara/></flowRoot>
    <g transform="translate(-1495.1 -629.38)">
     <flowRoot fill="black" font-family="sans-serif" font-size="40px" letter-spacing="0px" word-spacing="0px" style="line-height:1.25" xml:space="preserve"><flowRegion><rect x="-306.59" y="-111.05" width="206" height="51.5"/></flowRegion><flowPara/></flowRoot>
     <flowRoot fill="black" font-family="sans-serif" font-size="40px" letter-spacing="0px" word-spacing="0px" style="line-height:1.25" xml:space="preserve"><flowRegion><rect x="-70.812" y="-36.211" width="362.91" height="283.25"/></flowRegion><flowPara/></flowRoot>
     <g transform="translate(538.4 -400.97)">
      <flowRoot fill="black" font-family="sans-serif" font-size="40px" letter-spacing="0px" word-spacing="0px" style="line-height:1.25" xml:space="preserve"><flowRegion><rect x="-138.41" y="-65.18" width="448.21" height="363.72"/></flowRegion><flowPara/></flowRoot>
      <flowRoot fill="black" font-family="sans-serif" font-size="40px" letter-spacing="0px" word-spacing="0px" style="line-height:1.25" xml:space="preserve"><flowRegion><rect x="-67.578" y="-8.4531" width="327.73" height="260.94"/></flowRegion><flowPara/></flowRoot>
      <g transform="translate(-380.28 455.78)">
       <g transform="translate(404.3 .10336)">
        <rect x="676.12" y="-86.664" width="52.632" height="52.632" fill="#b9d4ff" stroke="#000" stroke-linecap="round" stroke-width=".28429" style="paint-order:fill markers stroke"/>
        <text x="702.534" y="-45.06081" font-family="sans-serif" font-size="4.9389px" letter-spacing="0px" stroke-width=".26458" text-align="end" text-anchor="middle" word-spacing="0px" style="line-height:1.04999995" xml:space="preserve"><tspan x="702.534" y="-45.06081" text-align="center">Obróć obiekt</tspan><tspan x="702.534" y="-38.393311" text-align="center">w prawo o 90°</tspan></text>
        <g transform="translate(-4.009)">
         <g transform="matrix(.26458 0 0 .26458 686.4 -83.571)">
          <path d="m61.8 18.1-11.3-11.3-11.3 11.3 4.1 4.1-21.1 21.1-4.1-4.1-11.3 11.3 11.3 11.3 4.6-4.6 20.1 20.1-4.6 4.6 11.3 11.3 11.3-11.3-3.6-3.6 21.1-21.1 3.6 3.6 11.3-11.3-11.3-11.3-4.1 4.1-20.1-20.1zm8.8 31.4 4.6 4.6-21.1 21.1-4.6-4.6-3.6 3.6-20.1-20.1 3.6-3.6-4.1-4.1 21.1-21.1 4.1 4.1 4.1-4.1 20.1 20.1z"/>
         </g>
         <g transform="matrix(0 .29398 .29398 0 703.19 -83.788)">
          <path d="m19.548 26.786c.02863.57336.1488 1.1294.25623 1.6893l.32135 1.6833c.33984 2.2768 1.0802 4.4491 1.7297 6.6689 1.554 4.3267 3.4719 8.6252 6.1567 12.47 1.2136 2.0211 2.788 3.7681 4.2523 5.6296.77051.89416 1.6298 1.7064 2.4481 2.566l1.2474 1.274c.41962.42188.89447.77875 1.3411 1.1718l2.7371 2.3091c.96002.70764 1.9559 1.3713 2.9406 2.0592l1.4869 1.0231c.51477.30835 1.0448.59131 1.5687.88806l3.0797 1.7151-2.1991 5.1664c8.8623.16034 17.092-1.8262 23.926-5.1616-6.86-3.3523-12.341-8.0473-16.071-13.292l-2.199 5.1663-2.7608-1.0963c-.47376-.19177-.95648-.36945-1.4269-.57251l-1.3624-.70697c-.9071-.47705-1.8361-.92932-2.7406-1.4269l-2.6027-1.6826c-.42938-.28925-.88971-.54285-1.2975-.86212l-1.2195-.9679c-.80463-.65668-1.6603-1.2687-2.4371-1.9663-1.4764-1.4679-3.1021-2.8361-4.4008-4.4976-2.8555-3.1266-5.0823-6.7867-7.0424-10.599-.8523-1.9621-1.8196-3.9078-2.4037-5.9922l-.50781-1.5454c-.17059-.51605-.35492-1.0305-.44855-1.5648l-.70203-3.1911c-.26556-1.02-.35474-1.9316-.47156-2.7123-.117-.78064-.23206-1.4337-.34326-1.9576-.22254-1.0479-.42957-1.5797-.60962-1.5797-.18005-6.1e-5-.33344.53217-.44867 1.6124-.05762.5401-.10559 1.2171-.14215 2.0325-.03674.81531-.09186 1.7719.04327 2.8502z"/>
         </g>
        </g>
       </g>
      </g>
     </g>
    </g>
   </g>
  </g>
 </g>
</svg>
