<svg id="SVGRoot" width="206px" height="206px" version="1.1" viewBox="0 0 206 206" xmlns="http://www.w3.org/2000/svg">
 <g transform="matrix(3.7795 0 0 3.7795 -1795.2 2502.6)">
  <flowRoot fill="black" font-family="sans-serif" font-size="40px" letter-spacing="0px" word-spacing="0px" style="line-height:1.25" xml:space="preserve"><flowRegion><rect x="-392.69" y="-63.57" width="758.02" height="397.52"/></flowRegion><flowPara/></flowRoot>
  <flowRoot fill="black" font-family="sans-serif" font-size="40px" letter-spacing="0px" word-spacing="0px" style="line-height:1.25" xml:space="preserve"><flowRegion><rect x="-251.87" y="-84.492" width="624.44" height="455.45"/></flowRegion><flowPara/></flowRoot>
  <flowRoot fill="black" font-family="sans-serif" font-size="40px" letter-spacing="0px" word-spacing="0px" style="line-height:1.25" xml:space="preserve"><flowRegion><rect x="-202.78" y="-50.695" width="473.96" height="281.64"/></flowRegion><flowPara/></flowRoot>
  <flowRoot fill="black" font-family="sans-serif" font-size="40px" letter-spacing="0px" word-spacing="0px" style="line-height:1.25" xml:space="preserve"><flowRegion><rect x="-86.906" y="-78.859" width="516.61" height="410.39"/></flowRegion><flowPara/></flowRoot>
  <flowRoot fill="black" font-family="sans-serif" font-size="40px" letter-spacing="0px" word-spacing="0px" style="line-height:1.25" xml:space="preserve"><flowRegion><rect x="-81.273" y="-32.188" width="309" height="322.68"/></flowRegion><flowPara/></flowRoot>
  <flowRoot fill="black" font-family="sans-serif" font-size="40px" letter-spacing="0px" word-spacing="0px" style="line-height:1.25" xml:space="preserve"><flowRegion><rect x="-90.93" y="-68.398" width="392.69" height="252.67"/></flowRegion><flowPara/></flowRoot>
  <g transform="translate(675.17 -.21291)">
   <flowRoot fill="black" font-family="sans-serif" font-size="40px" letter-spacing="0px" word-spacing="0px" style="line-height:1.25" xml:space="preserve"><flowRegion><rect x="-100.59" y="-53.109" width="462.7" height="369.35"/></flowRegion><flowPara/></flowRoot>
   <g transform="translate(57.194 .21291)">
    <flowRoot fill="black" font-family="sans-serif" font-size="40px" letter-spacing="0px" word-spacing="0px" style="line-height:1.25" xml:space="preserve"><flowRegion><rect x="-329.12" y="-12.07" width="696.05" height="259.91"/></flowRegion><flowPara/></flowRoot>
    <g transform="translate(-1495.1 -629.38)">
     <g transform="translate(1385.8 1.3886e-5)">
      <rect x="-146.95" y="-31.75" width="52.917" height="52.917" fill="#db3b3b" stroke="#000" stroke-linecap="round" stroke-width=".5" style="paint-order:fill markers stroke"/>
      <g transform="matrix(.35199 0 0 .35199 -138.1 -31.679)" fill="#fff">
       <path d="m51.007 43.723c4.4126 0 8.0029-3.5903 8.0029-8.0029 0-4.4126-3.5903-8.0024-8.0029-8.0024s-8.0029 3.5898-8.0029 8.0024c0 4.4126 3.5903 8.0029 8.0029 8.0029zm0-14.005c3.3101 0 6.0029 2.6929 6.0029 6.0024 0 3.3101-2.6929 6.0029-6.0029 6.0029s-6.0029-2.6929-6.0029-6.0029c0-3.3096 2.6929-6.0024 6.0029-6.0024z"/>
       <path d="m35.069 38.14c-.28223.02978-.53858.17822-.70508.40771-.1665.22998-.22754.51953-.16797.79688.43604 2.0303 1.2314 3.9473 2.3633 5.6978.1543.23828.40186.3999.68213.44434.27686.04687.56592-.03125.78613-.20947.96924-.78174 2.3652-.7085 3.248.17383.88232.88281.95752 2.2793.17383 3.248-.17822.2207-.2544.50684-.20947.78662.04443.28027.20606.52832.44434.68213 1.7524 1.1323 3.6694 1.9277 5.6982 2.3628.27832.05859.56738-.002.79688-.16797.22949-.1665.37793-.42285.40772-.70508.13037-1.2402 1.1709-2.1753 2.4199-2.1753 1.249 0 2.2896.93506 2.4199 2.1753.02979.28223.17822.53857.40772.70508.17188.125.37793.19043.58691.19043.06982 0 .14014-.0073.20996-.02246 2.0293-.43506 3.9463-1.2305 5.6978-2.3628.23828-.1543.3999-.40186.44434-.68213.04492-.27978-.03125-.56592-.20947-.78613-.7832-.96924-.70801-2.3657.17432-3.2485.88232-.88232 2.2783-.95752 3.248-.17383.22022.17822.50635.25684.78613.20947.28027-.04443.52783-.20605.68213-.44434 1.1318-1.7505 1.9272-3.6675 2.3633-5.6978.05957-.27734-.0015-.5669-.16797-.79688-.1665-.22949-.42285-.37793-.70508-.40772-1.2402-.13037-2.1758-1.1709-2.1758-2.4204 0-1.249.93555-2.2896 2.1758-2.4199.28223-.02979.53857-.17822.70508-.40772.1665-.22998.22754-.51953.16797-.79688-.43604-2.0308-1.2314-3.9478-2.3633-5.6978-.1543-.23828-.40186-.3999-.68213-.44434-.27588-.0459-.56494.03174-.78613.20947-.96875.7832-2.3647.70801-3.248-.17432-.88232-.88281-.95752-2.2788-.17432-3.248.17822-.22021.25439-.50635.20947-.78613-.04443-.28027-.20605-.52783-.44434-.68213-1.7515-1.1323-3.6685-1.9277-5.6978-2.3628-.2793-.06104-.56738.0015-.79688.16797-.22949.1665-.37793.42285-.40772.70508-.13037 1.2402-1.1709 2.1753-2.4199 2.1753-1.249 0-2.2896-.93506-2.4199-2.1753-.02978-.28223-.17822-.53858-.40772-.70508-.229-.16602-.5166-.22705-.79688-.16797-2.0288.43506-3.9458 1.2305-5.6982 2.3628-.23828.15381-.3999.40186-.44434.68213-.04492.27979.03125.56592.20947.78662.78369.96875.7085 2.3647-.17383 3.2476-.88281.8833-2.2798.95654-3.248.17432-.22022-.17774-.50928-.25537-.78613-.20947-.28027.04443-.52783.20606-.68213.44434-1.1318 1.75-1.9272 3.667-2.3633 5.6978-.05957.27734.0015.56689.16797.79688.1665.22949.42285.37793.70508.40771 1.2402.13037 2.1753 1.1709 2.1753 2.4199 0 1.2495-.93506 2.29-2.1753 2.4204zm1.3164-6.5679c.32129-1.1353.77393-2.2256 1.3525-3.2578 1.6426.74268 3.6191.4209 4.9517-.91211 1.3325-1.3325 1.6538-3.3086.91211-4.9517 1.0327-.57861 2.123-1.0312 3.2578-1.3521.63672 1.688 2.2617 2.8589 4.1475 2.8589s3.5107-1.1709 4.1475-2.8589c1.1348.3208 2.2251.77344 3.2578 1.3521-.7417 1.6436-.42041 3.6191.91211 4.9517 1.3325 1.333 3.3086 1.6548 4.9517.91211.57861 1.0322 1.0312 2.1226 1.3525 3.2578-1.688.63672-2.8594 2.2617-2.8594 4.1475 0 1.8857 1.1709 3.5107 2.8594 4.148-.32129 1.1353-.77393 2.2251-1.3525 3.2578-1.6445-.74268-3.6196-.42139-4.9517.91162-1.3325 1.333-1.6538 3.3091-.91211 4.9521-1.0327.57861-2.123 1.0312-3.2578 1.352-.63672-1.688-2.2617-2.8589-4.1475-2.8589s-3.5107 1.1709-4.1475 2.8589c-1.1348-.3208-2.2251-.77344-3.2578-1.352.7417-1.6431.42041-3.6191-.91211-4.9521-1.333-1.333-3.3091-1.6533-4.9517-.91162-.57861-1.0322-1.0312-2.1226-1.3525-3.2583 1.688-.63672 2.8589-2.2612 2.8589-4.1475 0-1.8857-1.1709-3.5103-2.8589-4.1475z"/>
       <path d="m85.611 20.001c0-1.6553-1.3467-3.002-3.0024-3.002h-4.3101v-1.2852c0-3.1509-2.563-5.7144-5.7139-5.7144h-57.119c-.55225 0-1 .44775-1 1v78c0 .55225.44775 1 1 1h57.119c3.1509 0 5.7139-2.5635 5.7139-5.7144v-19.286h4.3101c1.6558 0 3.0024-1.3467 3.0024-3.0024v-7.4956c0-.77191-.30096-1.4696-.78149-2.002.48053-.53247.78149-1.2302.78149-2.0024v-7.4956c0-.77191-.30096-1.4696-.78149-2.002.48053-.53247.78149-1.2302.78149-2.0024v-7.4956c0-.77191-.30096-1.4696-.78149-2.002.48053-.53247.78149-1.2302.78149-2.0024zm-3.0024-1.002c.55274 0 1.0024.44971 1.0024 1.002v7.4956c0 .55274-.44971 1.0024-1.0024 1.0024h-4.3101v-9.5zm1.0024 12.502v7.4956c0 .55274-.44971 1.0024-1.0024 1.0024h-4.3101v-9.5h4.3101c.55274 0 1.0024.44971 1.0024 1.002zm0 11.5v7.4956c0 .55274-.44971 1.0024-1.0024 1.0024h-4.3101v-9.5h4.3101c.55274 0 1.0024.44971 1.0024 1.002zm-67.146-31.001h7.5v76h-7.5zm59.833 72.286c0 2.0483-1.666 3.7144-3.7139 3.7144h-46.619v-76h46.619c2.0479 0 3.7139 1.666 3.7139 3.7144zm7.3125-22.289c0 .55274-.44971 1.0024-1.0024 1.0024h-4.3101v-9.5h4.3101c.55274 0 1.0024.44971 1.0024 1.002z"/>
       <path d="m67.007 59.833h-32c-.55225 0-1 .44775-1 1v19.167c0 .55225.44775 1 1 1h32c.55225 0 1-.44775 1-1v-19.167c0-.55225-.44775-1-1-1zm-1 19.167h-30v-17.167h30z"/>
       <path d="m43.007 68h16c.55225 0 1-.44775 1-1s-.44775-1-1-1h-16c-.55225 0-1 .44775-1 1s.44775 1 1 1z"/>
       <path d="m43.007 74.666h16c.55225 0 1-.44775 1-1 0-.55225-.44775-1-1-1h-16c-.55225 0-1 .44775-1 1 0 .55225.44775 1 1 1z"/>
      </g>
      <text x="-120.42656" y="8.5565882" fill="#ffffff" font-family="sans-serif" class="svgT" letter-spacing=".5px" font-size="5.2px" stroke-width=".26458" text-anchor="middle" word-spacing="0px" style="line-height:1.25" xml:space="preserve"><tspan x="-119.5584" y="8.5565882" text-align="center">Obsługa </tspan><tspan x="-120.42656" y="16.494089" text-align="center">i eksploatacja</tspan></text>
     </g>
    </g>
   </g>
  </g>
 </g>
</svg>
