<?xml version="1.0" encoding="UTF-8" standalone="no"?>
<svg
   xmlns:dc="http://purl.org/dc/elements/1.1/"
   xmlns:cc="http://creativecommons.org/ns#"
   xmlns:rdf="http://www.w3.org/1999/02/22-rdf-syntax-ns#"
   xmlns:svg="http://www.w3.org/2000/svg"
   xmlns="http://www.w3.org/2000/svg"
   id="svg47"
   version="1.1"
   viewBox="0 0 52.758294 52.758296"
   height="199.40143"
   width="199.40143">
  <defs
     id="defs42">
    <pattern
       id="EMFhbasepattern"
       patternUnits="userSpaceOnUse"
       width="6"
       height="6"
       x="0"
       y="0" />
    <marker
       style="overflow:visible"
       id="Arrow1Mend-5-0"
       refX="0"
       refY="0"
       orient="auto">
      <path
         transform="matrix(-0.4,0,0,-0.4,-4,0)"
         style="fill:#000000;fill-opacity:1;fill-rule:evenodd;stroke:#000000;stroke-width:1.00000003pt;stroke-opacity:1"
         d="M 0,0 5,-5 -12.5,0 5,5 Z"
         id="path1146-3-3" />
    </marker>
    <marker
       style="overflow:visible"
       id="Arrow1Mend-5-3"
       refX="0"
       refY="0"
       orient="auto">
      <path
         transform="matrix(-0.4,0,0,-0.4,-4,0)"
         style="fill:#000000;fill-opacity:1;fill-rule:evenodd;stroke:#000000;stroke-width:1.00000003pt;stroke-opacity:1"
         d="M 0,0 5,-5 -12.5,0 5,5 Z"
         id="path1146-3-9" />
    </marker>
    <marker
       orient="auto"
       refY="0"
       refX="0"
       id="Arrow1Mend-5-0-4"
       style="overflow:visible">
      <path
         id="path1146-3-3-8"
         d="M 0,0 5,-5 -12.5,0 5,5 Z"
         style="fill:#ffffff;fill-opacity:1;fill-rule:evenodd;stroke:#ffffff;stroke-width:1.00000003pt;stroke-opacity:1"
         transform="matrix(-0.4,0,0,-0.4,-4,0)" />
    </marker>
    <marker
       orient="auto"
       refY="0"
       refX="0"
       id="Arrow1Mend-5-3-8"
       style="overflow:visible">
      <path
         id="path1146-3-9-5"
         d="M 0,0 5,-5 -12.5,0 5,5 Z"
         style="fill:#ffffff;fill-opacity:1;fill-rule:evenodd;stroke:#ffffff;stroke-width:1.00000003pt;stroke-opacity:1"
         transform="matrix(-0.4,0,0,-0.4,-4,0)" />
    </marker>
    <marker
       style="overflow:visible"
       id="Arrow1Mend"
       refX="0"
       refY="0"
       orient="auto">
      <path
         transform="matrix(-0.4,0,0,-0.4,-4,0)"
         style="fill:#000000;fill-opacity:1;fill-rule:evenodd;stroke:#000000;stroke-width:1.00000003pt;stroke-opacity:1"
         d="M 0,0 5,-5 -12.5,0 5,5 Z"
         id="path1146" />
    </marker>
    <marker
       orient="auto"
       refY="0"
       refX="0"
       id="Arrow1Mend-5"
       style="overflow:visible">
      <path
         id="path1146-3"
         d="M 0,0 5,-5 -12.5,0 5,5 Z"
         style="fill:#ffffff;fill-opacity:1;fill-rule:evenodd;stroke:#ffffff;stroke-width:1.00000003pt;stroke-opacity:1"
         transform="matrix(-0.4,0,0,-0.4,-4,0)" />
    </marker>
    <marker
       style="overflow:visible"
       id="Arrow1Mstart"
       refX="0"
       refY="0"
       orient="auto">
      <path
         transform="matrix(0.4,0,0,0.4,4,0)"
         style="fill:#000000;fill-opacity:1;fill-rule:evenodd;stroke:#000000;stroke-width:1.00000003pt;stroke-opacity:1"
         d="M 0,0 5,-5 -12.5,0 5,5 Z"
         id="path1143" />
    </marker>
    <marker
       orient="auto"
       refY="0"
       refX="0"
       id="Arrow1Mstart-1"
       style="overflow:visible">
      <path
         id="path1143-7"
         d="M 0,0 5,-5 -12.5,0 5,5 Z"
         style="fill:#ffffff;fill-opacity:1;fill-rule:evenodd;stroke:#ffffff;stroke-width:1.00000003pt;stroke-opacity:1"
         transform="matrix(0.4,0,0,0.4,4,0)" />
    </marker>
    <marker
       style="overflow:visible"
       id="Arrow1Lend"
       refX="0"
       refY="0"
       orient="auto">
      <path
         transform="matrix(-0.8,0,0,-0.8,-10,0)"
         style="fill:#000000;fill-opacity:1;fill-rule:evenodd;stroke:#000000;stroke-width:1.00000003pt;stroke-opacity:1"
         d="M 0,0 5,-5 -12.5,0 5,5 Z"
         id="path1140" />
    </marker>
    <marker
       style="overflow:visible"
       id="Arrow1Lstart"
       refX="0"
       refY="0"
       orient="auto">
      <path
         transform="matrix(0.8,0,0,0.8,10,0)"
         style="fill:#000000;fill-opacity:1;fill-rule:evenodd;stroke:#000000;stroke-width:1.00000003pt;stroke-opacity:1"
         d="M 0,0 5,-5 -12.5,0 5,5 Z"
         id="path1137" />
    </marker>
    <marker
       orient="auto"
       refY="0"
       refX="0"
       id="Arrow1Lend-5"
       style="overflow:visible">
      <path
         id="path1140-4"
         d="M 0,0 5,-5 -12.5,0 5,5 Z"
         style="fill:#ffffff;fill-opacity:1;fill-rule:evenodd;stroke:#ffffff;stroke-width:1.00000003pt;stroke-opacity:1"
         transform="matrix(-0.8,0,0,-0.8,-10,0)" />
    </marker>
    <marker
       orient="auto"
       refY="0"
       refX="0"
       id="Arrow1Lstart-93"
       style="overflow:visible">
      <path
         id="path1137-7"
         d="M 0,0 5,-5 -12.5,0 5,5 Z"
         style="fill:#ffffff;fill-opacity:1;fill-rule:evenodd;stroke:#ffffff;stroke-width:1.00000003pt;stroke-opacity:1"
         transform="matrix(0.8,0,0,0.8,10,0)" />
    </marker>
  </defs>
  <metadata
     id="metadata45">
    <rdf:RDF>
      <cc:Work
         rdf:about="">
        <dc:format>image/svg+xml</dc:format>
        <dc:type
           rdf:resource="http://purl.org/dc/dcmitype/StillImage" />
        <dc:title></dc:title>
      </cc:Work>
    </rdf:RDF>
  </metadata>
  <g
     id="g8556"
     transform="translate(49.836509,-375.23204)">
    <g
       id="g5305">
      <text
         id="text898-7-3-6-8-3-3-0-66-7-8-8-0-8-3-4-2-6-22-3-3-4-7-0-2-6-2"
         y="425.61624"
         x="-23.21401"
         style="font-size:6.3499999px;line-height:0.94999999;font-family:voestalpine;-inkscape-font-specification:voestalpine;text-align:center;letter-spacing:0px;word-spacing:0px;text-anchor:middle;fill:#ffffff;fill-opacity:1;stroke-width:0.26458299"
         xml:space="preserve"><tspan
           style="font-size:6.3499999px;text-align:center;text-anchor:middle;fill:#ffffff;fill-opacity:1;stroke-width:0.26458299"
           y="425.61624"
           x="-23.21401"
           id="tspan3280-8-2-3-8">Pokaż nagłówek</tspan></text>
      <g
         id="g3464"
         transform="translate(97.241595,406.95595)">
        <rect
           y="-31.749996"
           x="-146.94582"
           height="52.916668"
           width="52.916668"
           id="rect833-4"
           style="fill:#db3b3b;fill-opacity:1;stroke:#000000;stroke-width:0.49999899;stroke-linecap:round;stroke-miterlimit:4;stroke-dasharray:none;stroke-opacity:1;paint-order:fill markers stroke" />
        <g
           style="fill:#ffffff;fill-opacity:1"
           id="g1011"
           transform="matrix(0.35199032,0,0,0.35199032,-138.1004,-31.679129)">
          <path
             id="path985"
             d="m 51.006836,43.722656 c 4.412598,0 8.00293,-3.590332 8.00293,-8.002929 0,-4.412598 -3.590332,-8.002442 -8.00293,-8.002442 -4.412598,0 -8.00293,3.589844 -8.00293,8.002442 0,4.412597 3.590332,8.002929 8.00293,8.002929 z m 0,-14.005371 c 3.310058,0 6.00293,2.692871 6.00293,6.002442 0,3.310058 -2.692871,6.002929 -6.00293,6.002929 -3.310059,0 -6.00293,-2.692871 -6.00293,-6.002929 0,-3.309571 2.692871,-6.002442 6.00293,-6.002442 z"
             style="fill:#ffffff;fill-opacity:1" />
          <path
             id="path987"
             d="m 35.068848,38.140137 c -0.282227,0.02978 -0.538575,0.178222 -0.705078,0.407714 -0.166504,0.229981 -0.22754,0.519532 -0.167969,0.796875 0.436035,2.030274 1.231445,3.947266 2.363281,5.697754 0.154297,0.238282 0.401856,0.399903 0.682129,0.444336 0.276855,0.04687 0.565918,-0.03125 0.786133,-0.209472 0.969238,-0.781739 2.365234,-0.708496 3.248047,0.173828 0.882324,0.882812 0.957519,2.279297 0.173828,3.248047 -0.178223,0.220703 -0.254395,0.506835 -0.209473,0.786621 0.04443,0.280273 0.206055,0.52832 0.444336,0.682129 1.752441,1.132324 3.669433,1.927734 5.698242,2.362793 0.27832,0.05859 0.567383,-0.002 0.796875,-0.167969 0.229492,-0.166504 0.37793,-0.422852 0.407715,-0.705078 0.130371,-1.240235 1.170898,-2.175293 2.419922,-2.175293 1.249023,0 2.289551,0.935058 2.419922,2.175293 0.02979,0.282226 0.178222,0.538574 0.407715,0.705078 0.171875,0.125 0.377929,0.19043 0.586914,0.19043 0.06982,0 0.140136,-0.0073 0.209961,-0.02246 2.029296,-0.435059 3.946289,-1.230469 5.697753,-2.362793 0.238282,-0.154297 0.399903,-0.401856 0.444336,-0.682129 0.04492,-0.279785 -0.03125,-0.565918 -0.209472,-0.786133 -0.783203,-0.969238 -0.708008,-2.365723 0.174316,-3.248535 0.882324,-0.882324 2.27832,-0.95752 3.248047,-0.173828 0.220215,0.178222 0.506348,0.256836 0.786133,0.209472 0.280273,-0.04443 0.527832,-0.206054 0.682129,-0.444336 1.131836,-1.750488 1.927246,-3.66748 2.363281,-5.697753 0.05957,-0.277344 -0.0015,-0.566895 -0.167969,-0.796875 -0.166504,-0.229493 -0.422852,-0.37793 -0.705078,-0.407715 -1.240234,-0.130371 -2.175781,-1.170899 -2.175781,-2.42041 0,-1.249024 0.935547,-2.289551 2.175781,-2.419922 0.282227,-0.02979 0.538574,-0.178223 0.705078,-0.407715 0.166504,-0.229981 0.227539,-0.519531 0.167969,-0.796875 -0.436035,-2.030762 -1.231445,-3.947754 -2.363281,-5.697754 -0.154297,-0.238281 -0.401856,-0.399902 -0.682129,-0.444336 -0.275879,-0.0459 -0.564942,0.03174 -0.786133,0.209473 -0.96875,0.783203 -2.364746,0.708008 -3.248047,-0.174317 -0.882324,-0.882812 -0.957519,-2.278808 -0.174316,-3.248047 0.178222,-0.220214 0.254394,-0.506347 0.209472,-0.786132 -0.04443,-0.280274 -0.206054,-0.527832 -0.444336,-0.682129 -1.751464,-1.132324 -3.668457,-1.927735 -5.697753,-2.362793 -0.279297,-0.06104 -0.567383,0.0015 -0.796875,0.167969 -0.229493,0.166504 -0.37793,0.422851 -0.407715,0.705078 -0.130371,1.240234 -1.170899,2.175293 -2.419922,2.175293 -1.249024,0 -2.289551,-0.935059 -2.419922,-2.175293 -0.02978,-0.282227 -0.178223,-0.538575 -0.407715,-0.705079 -0.229004,-0.166015 -0.516601,-0.22705 -0.796875,-0.167968 -2.028808,0.435058 -3.945801,1.230468 -5.698242,2.362793 -0.238281,0.153808 -0.399902,0.401855 -0.444336,0.682128 -0.04492,0.279786 0.03125,0.565918 0.209473,0.786622 0.783691,0.96875 0.708496,2.364746 -0.173828,3.247558 -0.882813,0.883301 -2.279786,0.956543 -3.248047,0.174317 -0.220215,-0.177735 -0.509278,-0.255372 -0.786133,-0.209473 -0.280273,0.04443 -0.527832,0.206055 -0.682129,0.444336 -1.131836,1.75 -1.927246,3.666992 -2.363281,5.697754 -0.05957,0.277343 0.0015,0.566894 0.167969,0.796875 0.166504,0.229492 0.422851,0.377929 0.705078,0.407714 1.240234,0.130372 2.175293,1.170899 2.175293,2.419922 0,1.249512 -0.935059,2.29004 -2.175293,2.42041 z m 1.316406,-6.567871 c 0.321289,-1.135254 0.773926,-2.225586 1.352539,-3.257813 1.642578,0.742676 3.619141,0.420898 4.95166,-0.912109 1.33252,-1.33252 1.653809,-3.308594 0.91211,-4.95166 1.032714,-0.578614 2.123046,-1.03125 3.257812,-1.352051 0.636719,1.687988 2.261719,2.858886 4.147461,2.858886 1.885742,0 3.510742,-1.170898 4.147461,-2.858886 1.134765,0.320801 2.225098,0.773437 3.257812,1.352051 -0.741699,1.643554 -0.42041,3.61914 0.91211,4.95166 1.332519,1.333008 3.308594,1.654785 4.95166,0.912109 0.578613,1.032227 1.03125,2.122559 1.352539,3.257813 -1.687988,0.636718 -2.859375,2.261718 -2.859375,4.14746 0,1.885743 1.170899,3.510743 2.859375,4.14795 -0.321289,1.135254 -0.773926,2.225097 -1.352539,3.257812 -1.644531,-0.742676 -3.619629,-0.421387 -4.95166,0.911621 -1.33252,1.333008 -1.653809,3.309082 -0.91211,4.952149 -1.032714,0.578613 -2.123046,1.03125 -3.257812,1.35205 -0.636719,-1.687988 -2.261719,-2.858886 -4.147461,-2.858886 -1.885742,0 -3.510742,1.170898 -4.147461,2.858886 -1.134765,-0.3208 -2.225098,-0.773437 -3.257812,-1.35205 0.741699,-1.643067 0.42041,-3.619141 -0.91211,-4.952149 -1.333008,-1.333008 -3.309082,-1.65332 -4.95166,-0.911621 -0.578613,-1.032226 -1.03125,-2.122558 -1.352539,-3.258301 1.687988,-0.636718 2.858887,-2.26123 2.858887,-4.147461 0,-1.885742 -1.170899,-3.510253 -2.858887,-4.14746 z"
             style="fill:#ffffff;fill-opacity:1" />
          <path
             id="path989"
             d="m 85.61084,20.001465 c 0,-1.655274 -1.34668,-3.001953 -3.002442,-3.001953 H 78.29834 V 15.714356 C 78.29834,12.563477 75.735352,10 72.584473,10 H 15.465332 c -0.552246,0 -1,0.447754 -1,1 v 78 c 0,0.552246 0.447754,1 1,1 h 57.119141 c 3.150878,0 5.713867,-2.563477 5.713867,-5.714355 V 64.999512 h 4.310058 c 1.655762,0 3.002442,-1.34668 3.002442,-3.002442 v -7.495605 c 0,-0.771912 -0.300965,-1.469605 -0.781494,-2.002014 0.480529,-0.532471 0.781494,-1.230225 0.781494,-2.002381 v -7.495605 c 0,-0.771912 -0.300965,-1.469605 -0.781494,-2.002014 0.480529,-0.532471 0.781494,-1.230225 0.781494,-2.002381 v -7.495605 c 0,-0.771912 -0.300965,-1.469605 -0.781494,-2.002015 0.480529,-0.53247 0.781494,-1.230224 0.781494,-2.00238 z m -3.002442,-1.001953 c 0.552735,0 1.002442,0.449707 1.002442,1.001953 v 7.495605 c 0,0.552735 -0.449707,1.002442 -1.002442,1.002442 H 78.29834 v -9.5 z m 1.002442,12.501953 v 7.495605 c 0,0.552735 -0.449707,1.002442 -1.002442,1.002442 H 78.29834 v -9.5 h 4.310058 c 0.552735,0 1.002442,0.449707 1.002442,1.001953 z m 0,11.5 v 7.495605 c 0,0.552735 -0.449707,1.002442 -1.002442,1.002442 H 78.29834 v -9.5 h 4.310058 c 0.552735,0 1.002442,0.449707 1.002442,1.001953 z M 16.465332,12 h 7.5 v 76 h -7.5 z M 76.29834,84.285645 C 76.29834,86.333984 74.632324,88 72.584473,88 H 25.965332 V 12 h 46.619141 c 2.047851,0 3.713867,1.666016 3.713867,3.714356 z m 7.3125,-22.288575 c 0,0.552735 -0.449707,1.002442 -1.002442,1.002442 H 78.29834 v -9.5 h 4.310058 c 0.552735,0 1.002442,0.449707 1.002442,1.001953 z"
             style="fill:#ffffff;fill-opacity:1" />
          <path
             id="path991"
             d="m 67.006836,59.832519 h -32 c -0.552246,0 -1,0.447754 -1,1 v 19.166993 c 0,0.552246 0.447754,1 1,1 h 32 c 0.552246,0 1,-0.447754 1,-1 V 60.832519 c 0,-0.552246 -0.447754,-1 -1,-1 z m -1,19.166993 h -30 V 61.832519 h 30 z"
             style="fill:#ffffff;fill-opacity:1" />
          <path
             id="path993"
             d="m 43.006836,67.999512 h 16 c 0.552246,0 1,-0.447754 1,-1 0,-0.552246 -0.447754,-1 -1,-1 h -16 c -0.552246,0 -1,0.447754 -1,1 0,0.552246 0.447754,1 1,1 z"
             style="fill:#ffffff;fill-opacity:1" />
          <path
             id="path995"
             d="m 43.006836,74.666016 h 16 c 0.552246,0 1,-0.447754 1,-1 0,-0.552247 -0.447754,-1 -1,-1 h -16 c -0.552246,0 -1,0.447753 -1,1 0,0.552246 0.447754,1 1,1 z"
             style="fill:#ffffff;fill-opacity:1" />
        </g>
        <text
           id="text983-1"
           y="11.144867"
           x="-120.42656"
           style="font-size:6.3499999px;line-height:1.25;font-family:voestalpine;-inkscape-font-specification:voestalpine;letter-spacing:0px;word-spacing:0px;fill:#ffffff;fill-opacity:1;stroke-width:0.26458299"
           xml:space="preserve"><tspan
             style="font-size:6.3499999px;text-align:center;text-anchor:middle;fill:#ffffff;fill-opacity:1;stroke-width:0.26458299"
             y="11.144867"
             x="-119.66382"
             id="tspan981-3">Obsługa </tspan><tspan
             style="font-size:6.3499999px;text-align:center;text-anchor:middle;fill:#ffffff;fill-opacity:1;stroke-width:0.26458299"
             y="19.082367"
             x="-120.42656"
             id="tspan1031">i eksploatacja</tspan></text>
      </g>
    </g>
  </g>
</svg>
