<svg id="SVGRoot" width="206px" height="206px" version="1.1" viewBox="0 0 206 206" xmlns="http://www.w3.org/2000/svg">
 <g transform="matrix(3.7795 0 0 3.7795 -1795.2 2502.6)">
  <flowRoot fill="black" font-family="sans-serif" font-size="40px" letter-spacing="0px" word-spacing="0px" style="line-height:1.25" xml:space="preserve"><flowRegion><rect x="-392.69" y="-63.57" width="758.02" height="397.52"/></flowRegion><flowPara/></flowRoot>
  <flowRoot fill="black" font-family="sans-serif" font-size="40px" letter-spacing="0px" word-spacing="0px" style="line-height:1.25" xml:space="preserve"><flowRegion><rect x="-251.87" y="-84.492" width="624.44" height="455.45"/></flowRegion><flowPara/></flowRoot>
  <g transform="translate(-55.87 .2129)">
   <rect x="532.33" y="-660.87" width="52.396" height="52.396" fill="#db3b3b" stroke="#000" stroke-linecap="round" stroke-width=".52068" style="paint-order:fill markers stroke"/>
   <text x="558.61871" y="-612.15649" font-family="sans-serif" font-size="6.35px" letter-spacing="0px" stroke-width=".26458" text-align="center" text-anchor="middle" word-spacing="0px" style="line-height:1.25" xml:space="preserve"><tspan x="558.61871" y="-612.15649" fill="#ffffff" font-family="sans-serif" font-size="4.9389px" stroke-width=".26458" text-align="center" text-anchor="middle">Ostatnia strona</tspan></text>
   <g transform="translate(532.93 -1426.4)">
    <path transform="matrix(-.26458 0 0 -.26458 39.154 798.07)" d="m85 27.5c0-1.4-1.1-2.5-2.5-2.5h-7.5v-7.5c0-1.4-1.1-2.5-2.5-2.5h-7.5v-7.5c0-1.4-1.1-2.5-2.5-2.5h-45c-1.4 0-2.5 1.1-2.5 2.5v60c0 1.4 1.1 2.5 2.5 2.5h7.5v7.5c0 1.4 1.1 2.5 2.5 2.5h7.5v7.5c0 1.4 1.1 2.5 2.5 2.5h45c1.4 0 2.5-1.1 2.5-2.5zm-65 37.5v-55h40v55zm10 10v-5h32.5c1.4 0 2.5-1.1 2.5-2.5v-47.5h5v55zm50 10h-40v-5h32.5c1.4 0 2.5-1.1 2.5-2.5v-47.5h5z" fill="#fffffe"/>
    <g transform="matrix(-.075434 0 0 -.075434 32.618 792.31)" fill="#fff">
     <path d="m19.615 0v48.81l66.77-43.392v94.582l-66.77-43.392v43.392h-6v-100zm60.77 88.945v-72.473l-55.758 36.236z" fill="#fff"/>
    </g>
   </g>
  </g>
 </g>
</svg>
