<svg id="SVGRoot" width="206px" height="206px" version="1.1" viewBox="0 0 206 206" xmlns="http://www.w3.org/2000/svg">
 <g transform="matrix(3.7795 0 0 3.7795 -1795.2 2502.6)">
  <flowRoot fill="black" font-family="sans-serif" font-size="40px" letter-spacing="0px" word-spacing="0px" style="line-height:1.25" xml:space="preserve"><flowRegion><rect x="-392.69" y="-63.57" width="758.02" height="397.52"/></flowRegion><flowPara/></flowRoot>
  <flowRoot fill="black" font-family="sans-serif" font-size="40px" letter-spacing="0px" word-spacing="0px" style="line-height:1.25" xml:space="preserve"><flowRegion><rect x="-251.87" y="-84.492" width="624.44" height="455.45"/></flowRegion><flowPara/></flowRoot>
  <flowRoot fill="black" font-family="sans-serif" font-size="40px" letter-spacing="0px" word-spacing="0px" style="line-height:1.25" xml:space="preserve"><flowRegion><rect x="-202.78" y="-50.695" width="473.96" height="281.64"/></flowRegion><flowPara/></flowRoot>
  <g transform="translate(166.71 -.21291)">
   <g>
    <rect x="309.53" y="-660.87" width="52.396" height="52.396" fill="#db3b3b" stroke="#000" stroke-linecap="round" stroke-width=".52068" style="paint-order:fill markers stroke"/>
    <text x="335.66666" y="-620.58698" fill="#ffffff" font-family="sans-serif" font-size="4.9389px" letter-spacing="0px" stroke-width=".26458" text-align="center" text-anchor="middle" word-spacing="0px" style="line-height:1.25" xml:space="preserve"><tspan x="335.66666" y="-620.58698" text-align="center">Pierwsza strona</tspan><tspan x="335.66666" y="-612.64948" text-align="center">zwykła</tspan></text>
    <g transform="matrix(.41341 0 0 .41341 322.83 -654.09)" fill="#fff">
     <rect x="10.657" y="35.375" width="42.687" height="4"/>
     <rect x="19.165" y="24.625" width="25.671" height="4"/>
     <path d="m61 0h-58c-1.65 0-3 1.35-3 3v58c0 1.65 1.35 3 3 3h58c1.65 0 3-1.35 3-3v-58c0-1.65-1.35-3-3-3zm-1 60h-56v-56h56z"/>
    </g>
   </g>
  </g>
 </g>
</svg>
