<svg id="SVGRoot" width="208" height="208" version="1.1" viewBox="0 0 208 208" xmlns="http://www.w3.org/2000/svg">
 <g transform="translate(0,7)">
  <g transform="matrix(3.7795 0 0 3.7795 10.171 -6.7758)">
   <g transform="translate(-1.0884 -121.69)">
    <g transform="translate(1.6608 -59.209)">
     <g transform="translate(-.6443 -59.335)">
      <g transform="translate(-1396.8 269.89)">
       <g transform="translate(-57.972 -.024822)">
        <g transform="translate(1658.1 73.867)">
         <g transform="translate(-203.03 -103.33)">
          <flowRoot transform="matrix(.26458 0 0 .26458 -2.875 1.091)" fill="#000000" font-family="sans-serif" font-size="40px" letter-spacing="0px" word-spacing="0px" style="line-height:1.25" xml:space="preserve"><flowRegion><rect x="-85.582" y="-60.812" width="342.33" height="293.65"/></flowRegion><flowPara/></flowRoot>
          <g transform="translate(-1039.4 318.88)">
           <flowRoot transform="matrix(.26458 0 0 .26458 1036.5 -317.79)" fill="#000000" font-family="sans-serif" font-size="40px" letter-spacing="0px" word-spacing="0px" style="line-height:1.25" xml:space="preserve"><flowRegion><rect x="-105.21" y="-13.703" width="562.17" height="513.49"/></flowRegion><flowPara/></flowRoot>
           <g transform="translate(-66.134 .039287)">
            <g transform="translate(-66.173 .043409)">
             <flowRoot transform="matrix(.26458 0 0 .26458 1168.8 -317.87)" fill="#000000" font-family="sans-serif" font-size="40px" letter-spacing="0px" word-spacing="0px" style="line-height:1.25" xml:space="preserve"><flowRegion><rect x="-114.63" y="-91.434" width="675.23" height="522.91"/></flowRegion><flowPara/></flowRoot>
             <g transform="translate(-66.2 -.040316)">
              <g transform="translate(-65.918 -.60254)">
               <g transform="translate(-66.6 .14883)">
                <flowRoot fill="black" font-family="sans-serif" font-size="40px" letter-spacing="0px" word-spacing="0px" style="line-height:1.25" xml:space="preserve"><flowRegion><rect x="-24.34" y="-19.695" width="252.04" height="245.75"/></flowRegion><flowPara/></flowRoot>
                <g transform="translate(-68.678 -.48293)">
                 <flowRoot fill="black" font-family="sans-serif" font-size="40px" letter-spacing="0px" word-spacing="0px" style="line-height:1.25" xml:space="preserve"><flowRegion><rect x="-65.168" y="-26.762" width="382.37" height="335.26"/></flowRegion><flowPara/></flowRoot>
                 <g transform="translate(-63.347 .4912)">
                  <g transform="translate(529.82 -.18087)">
                   <g transform="translate(794.67 .06923)">
                    <g transform="translate(-198.36 .17569)">
                     <g transform="translate(-530.68 .043413)">
                      <g transform="translate(912.04 -.041317)">
                       <g transform="translate(132.58 -.39794)">
                        <g transform="translate(-580.62 .35866)">
                         <g transform="translate(-264.6 -.1571)">
                          <g transform="translate(463.55 .097138)">
                           <g transform="translate(-397.36 .059959)">
                            <g transform="translate(66.026 -.30592)">
                             <g transform="translate(-264.69 -.093008)">
                              <g transform="translate(734.89 179.33)">
                               <g transform="translate(-205.07 -178.97)">
                                <g transform="translate(-1081.1 -686.85)">
                                 <flowRoot fill="black" font-family="sans-serif" font-size="40px" letter-spacing="0px" word-spacing="0px" style="line-height:1.25" xml:space="preserve"><flowRegion><rect x="21" y="-71" width="223" height="308"/></flowRegion><flowPara/></flowRoot>
                                 <g transform="translate(-112.28 .55746)">
                                  <flowRoot transform="matrix(.26458 0 0 .26458 1500.7 367.6)" fill="#000000" font-family="sans-serif" font-size="40px" letter-spacing="0px" word-spacing="0px" style="line-height:1.25" xml:space="preserve"><flowRegion><rect x="-6.364" y="-2.0107" width="231.22" height="230.87"/></flowRegion><flowPara/></flowRoot>
                                  <g transform="translate(1386.8 133.57)">
                                   <g transform="translate(-1180.5 267.04)">
                                    <g transform="translate(753.05 -.28062)">
                                     <g>
                                      <rect x="542.45" y="-31.75" width="52.917" height="52.917" fill="#db3b3b" stroke="#000" stroke-linecap="round" stroke-width=".5" style="paint-order:fill markers stroke"/>
                                      <text x="568.61389" y="9.1274672" fill="#ffffff" font-family="sans-serif" font-size="4.9389px" letter-spacing="0px" stroke-width=".26458" text-anchor="middle" word-spacing="0px" style="line-height:1.25" xml:space="preserve"><tspan x="568.61389" y="9.1274672" text-align="center">Podrodziały</tspan><tspan x="568.61389" y="17.064968" text-align="center">dok. związanych</tspan></text>
                                      <g transform="matrix(.47796 0 0 .47796 557.96 -30.146)" fill="#fff" stroke="#fff" stroke-width=".71855">
                                       <path d="m9.47 38.5c1.38 0 2.5-1.12 2.5-2.5s-1.12-2.5-2.5-2.5-2.5 1.12-2.5 2.5 1.12 2.5 2.5 2.5zm0-4c.83 0 1.5.67 1.5 1.5s-.67 1.5-1.5 1.5-1.5-.67-1.5-1.5.67-1.5 1.5-1.5z"/>
                                       <path d="m9.47 29.5c.28 0 .5-.22.5-.5v-19c0-.28-.22-.5-.5-.5s-.5.22-.5.5v19c0 .28.22.5.5.5z"/>
                                       <path d="m17.47 38.5c1.38 0 2.5-1.12 2.5-2.5s-1.12-2.5-2.5-2.5-2.5 1.12-2.5 2.5 1.12 2.5 2.5 2.5zm0-4c.83 0 1.5.67 1.5 1.5s-.67 1.5-1.5 1.5-1.5-.67-1.5-1.5.67-1.5 1.5-1.5z"/>
                                       <path d="m17.47 29.5c.28 0 .5-.22.5-.5v-19c0-.28-.22-.5-.5-.5s-.5.22-.5.5v19c0 .28.22.5.5.5z"/>
                                       <path d="m43.01 41.58-12.54-37.98c-.09-.26-.37-.41-.63-.32l-7.6 2.51c-.12.04-.21.12-.27.23v-2.02c0-.28-.22-.5-.5-.5h-16c-.28 0-.5.22-.5.5v40c0 .28.22.5.5.5h16c.28 0 .5-.22.5-.5v-37.45l12.5 37.85c.04.13.13.23.25.29.07.04.15.05.22.05.05 0 .11-.01.16-.03l7.6-2.51c.25-.07.4-.36.31-.62zm-30.04 1.92h-7v-39h7zm8 0h-7v-39h7zm14.29.11-12.23-37.03 6.65-2.19 12.22 37.03z"/>
                                       <path d="m33.85 36.18c.21.63.65 1.15 1.25 1.45.35.18.74.27 1.12.27.26 0 .53-.04.79-.13.63-.21 1.15-.65 1.45-1.25s.35-1.27.14-1.91c-.21-.63-.65-1.15-1.25-1.45s-1.27-.35-1.91-.14c-.63.21-1.15.65-1.45 1.25s-.35 1.27-.14 1.91zm1.04-1.46c.18-.36.49-.62.87-.75.16-.05.31-.08.47-.08.63 0 1.22.4 1.43 1.03.13.38.1.79-.08 1.14-.18.36-.49.62-.87.75s-.79.1-1.14-.08c-.36-.18-.62-.49-.75-.87-.14-.37-.11-.78.07-1.14z"/>
                                       <path d="m27.92 10.23c-.26.09-.4.37-.32.63l5.96 18.04c.07.21.26.34.47.34.05 0 .1-.01.16-.03.26-.09.41-.37.32-.63l-5.96-18.04c-.09-.25-.37-.4-.63-.31z"/>
                                      </g>
                                     </g>
                                     <path d="m548.4-4.7961h41.01" fill="none" stroke="#fff" stroke-width="1.6"/>
                                     <path d="m548.4-.22838h41.01" fill="none" stroke="#fff" stroke-width="1.6"/>
                                    </g>
                                   </g>
                                  </g>
                                 </g>
                                </g>
                               </g>
                              </g>
                             </g>
                            </g>
                           </g>
                          </g>
                         </g>
                        </g>
                       </g>
                      </g>
                     </g>
                    </g>
                   </g>
                  </g>
                 </g>
                </g>
               </g>
              </g>
             </g>
            </g>
           </g>
          </g>
         </g>
        </g>
       </g>
      </g>
     </g>
    </g>
   </g>
  </g>
 </g>
</svg>
