<svg id="SVGRoot" width="206px" height="206px" version="1.1" viewBox="0 0 206 206" xmlns="http://www.w3.org/2000/svg">
 <g transform="matrix(3.7795 0 0 3.7795 -1795.2 2502.6)">
  <flowRoot fill="black" font-family="sans-serif" font-size="40px" letter-spacing="0px" word-spacing="0px" style="line-height:1.25" xml:space="preserve"><flowRegion><rect x="-392.69" y="-63.57" width="758.02" height="397.52"/></flowRegion><flowPara/></flowRoot>
  <flowRoot fill="black" font-family="sans-serif" font-size="40px" letter-spacing="0px" word-spacing="0px" style="line-height:1.25" xml:space="preserve"><flowRegion><rect x="-251.87" y="-84.492" width="624.44" height="455.45"/></flowRegion><flowPara/></flowRoot>
  <flowRoot fill="black" font-family="sans-serif" font-size="40px" letter-spacing="0px" word-spacing="0px" style="line-height:1.25" xml:space="preserve"><flowRegion><rect x="-202.78" y="-50.695" width="473.96" height="281.64"/></flowRegion><flowPara/></flowRoot>
  <flowRoot fill="black" font-family="sans-serif" font-size="40px" letter-spacing="0px" word-spacing="0px" style="line-height:1.25" xml:space="preserve"><flowRegion><rect x="-86.906" y="-78.859" width="516.61" height="410.39"/></flowRegion><flowPara/></flowRoot>
  <flowRoot fill="black" font-family="sans-serif" font-size="40px" letter-spacing="0px" word-spacing="0px" style="line-height:1.25" xml:space="preserve"><flowRegion><rect x="-81.273" y="-32.188" width="309" height="322.68"/></flowRegion><flowPara/></flowRoot>
  <flowRoot fill="black" font-family="sans-serif" font-size="40px" letter-spacing="0px" word-spacing="0px" style="line-height:1.25" xml:space="preserve"><flowRegion><rect x="-90.93" y="-68.398" width="392.69" height="252.67"/></flowRegion><flowPara/></flowRoot>
  <g transform="translate(675.17 -.21291)">
   <flowRoot fill="black" font-family="sans-serif" font-size="40px" letter-spacing="0px" word-spacing="0px" style="line-height:1.25" xml:space="preserve"><flowRegion><rect x="-100.59" y="-53.109" width="462.7" height="369.35"/></flowRegion><flowPara/></flowRoot>
   <g transform="translate(57.194 .21291)">
    <flowRoot fill="black" font-family="sans-serif" font-size="40px" letter-spacing="0px" word-spacing="0px" style="line-height:1.25" xml:space="preserve"><flowRegion><rect x="-329.12" y="-12.07" width="696.05" height="259.91"/></flowRegion><flowPara/></flowRoot>
    <g transform="translate(-1495.1 -629.38)">
     <g transform="translate(58.016 -.2129)">
      <rect x="1180.7" y="-31.75" width="52.917" height="52.917" fill="#db3b3b" stroke="#000" stroke-linecap="round" stroke-width=".5" style="paint-order:fill markers stroke"/>
      <g transform="matrix(.3211 0 0 .3211 846.12 15.098)" fill="#fff" stroke="#fff">
       <circle cx="1114.7" cy="-49.893" r="5.7815" stroke-linecap="round" stroke-width="2.5101" style="paint-order:fill markers stroke"/>
       <circle cx="1133.2" cy="-49.893" r="5.7815" stroke-linecap="round" stroke-width="2.5101" style="paint-order:fill markers stroke"/>
       <path d="m1103.7-49.893h41.199" stroke-width="1.165"/>
      </g>
      <text x="1207.0059" y="8.7695065" fill="#ffffff" font-family="sans-serif" font-size="4.9389px" letter-spacing="0px" stroke-width=".26458" text-anchor="middle" word-spacing="0px" style="line-height:1.25" xml:space="preserve"><tspan x="1207.0059" y="8.7695065" text-align="center">Podstawy kontroli</tspan><tspan x="1207.0059" y="16.707006" text-align="center">niezajętości</tspan></text>
      <g transform="matrix(.42907 0 0 .42907 1192.5 -26.558)" fill="#fff">
       <path transform="translate(-416,-183)" d="m430.73 187 2.7122 8.5918c.24593.77909.37108 1.5912.37108 2.4082 0 4.4183-3.5817 8-8 8h-7.5653c-1.1046 0-2-.89543-2-2s.89543-2 2-2h7.5653c2.2091 0 4-1.7909 4-4 0-.40849-.0626-.81457-.18554-1.2041l-3.0923-9.7959h-8.5363c-1.1046 0-2-.89543-2-2s.89543-2 2-2h22.5c14.023 0 27.562 7.6541 40.593 22.787 1.8753 2.1778 2.9067 4.9562 2.9067 7.8302v2.8826c0 4.6944-3.8056 8.5-8.5 8.5h-57.5c-1.1046 0-2-.89543-2-2s.89543-2 2-2h57.5c2.4853 0 4.5-2.0147 4.5-4.5v-2.8826c0-1.9159-.68761-3.7682-1.9378-5.2201-.7087-.82303-1.418-1.6221-2.1279-2.3973h-23.537c-3.4906 0-6.5782-2.2631-7.6289-5.5918l-4.2326-13.408zm14.086.27304 3.7663 11.931c.52538 1.6643 2.0692 2.7959 3.8145 2.7959h19.65c-8.9777-8.6765-18.052-13.563-27.23-14.727zm26.183 29.727c-1.6568 0-3-1.3432-3-3s1.3432-3 3-3 3 1.3432 3 3-1.3432 3-3 3zm-53 18c-1.1046 0-2-.89543-2-2s.89543-2 2-2h64c1.1046 0 2 .89543 2 2s-.89543 2-2 2z" fill="#fff"/>
      </g>
     </g>
    </g>
   </g>
  </g>
 </g>
</svg>
