<?xml version="1.0" encoding="UTF-8" standalone="no"?>
<svg
   xmlns:dc="http://purl.org/dc/elements/1.1/"
   xmlns:cc="http://creativecommons.org/ns#"
   xmlns:rdf="http://www.w3.org/1999/02/22-rdf-syntax-ns#"
   xmlns:svg="http://www.w3.org/2000/svg"
   xmlns="http://www.w3.org/2000/svg"
   id="svg47"
   version="1.1"
   viewBox="0 0 52.758294 52.758296"
   height="199.40143"
   width="199.40143">
  <defs
     id="defs42">
    <pattern
       id="EMFhbasepattern"
       patternUnits="userSpaceOnUse"
       width="6"
       height="6"
       x="0"
       y="0" />
  </defs>
  <metadata
     id="metadata45">
    <rdf:RDF>
      <cc:Work
         rdf:about="">
        <dc:format>image/svg+xml</dc:format>
        <dc:type
           rdf:resource="http://purl.org/dc/dcmitype/StillImage" />
        <dc:title></dc:title>
      </cc:Work>
    </rdf:RDF>
  </metadata>
  <g
     id="g8556"
     transform="translate(49.836509,-375.23204)">
    <g
       id="g5305">
      <g
         id="g9272"
         transform="translate(-582.35746,-52.146848)">
        <rect
           style="fill:#c4c4c4;fill-opacity:1;stroke:#000000;stroke-width:0.49999899;stroke-linecap:round;stroke-miterlimit:4;stroke-dasharray:none;stroke-opacity:1;paint-order:fill markers stroke"
           id="rect833-1-5-3-7-4-8-5-1-4-2-8-1-3-5"
           width="52.258293"
           x="532.81238"
           y="427.90878"
           height="52.258293" />
        <text
           xml:space="preserve"
           style="font-size:6.3499999px;line-height:0.94999999;font-family:voestalpine;-inkscape-font-specification:voestalpine;text-align:center;letter-spacing:0px;word-spacing:0px;text-anchor:middle;fill:#ffffff;fill-opacity:1;stroke-width:0.26458299"
           x="558.66486"
           y="471.49069"
           id="text898-7-3-6-8-3-3-0-66-7-8-8-0-5-9"><tspan
             x="558.66486"
             y="471.49069"
             style="font-size:6.3499999px;text-align:center;text-anchor:middle;fill:#ffffff;fill-opacity:1;stroke-width:0.26458299"
             id="tspan1636-7-4-2">Podziel komórkę:</tspan><tspan
             id="tspan1705-8-2"
             x="558.66486"
             y="477.52319"
             style="font-size:5.64444017px;text-align:center;text-anchor:middle;fill:#ffffff;fill-opacity:1;stroke-width:0.26458299">1 wiersz, 2 kolumny</tspan></text>
        <path
           style="fill:#c4c4c4;fill-opacity:1;stroke:#ffffff;stroke-width:0.49999899;stroke-miterlimit:4;stroke-dasharray:none;stroke-opacity:1"
           id="path1502-9-5-5-3-8-5-6-1-4-4"
           d="m 576.4873,433.27172 h -35.09158 c -1.44812,0 -2.62567,0.37807 -2.62567,0.84299 v 5.54218 c 0,0.46494 1.17755,0.84301 2.62567,0.84301 h 35.09158 c 1.44818,0 2.62573,-0.37807 2.62573,-0.84301 v -5.54218 c 0,-0.46588 -1.17755,-0.84299 -2.62573,-0.84299 z" />
        <g
           style="clip-rule:evenodd;fill:#ffffff;fill-opacity:1;fill-rule:evenodd;image-rendering:optimizeQuality;shape-rendering:geometricPrecision;text-rendering:geometricPrecision"
           id="g1225-72-7-7-9-7-2-1"
           transform="matrix(-32.393509,-1.3046802e-7,1.3046802e-7,-32.393509,562.69394,452.10652)">
          <polygon
             style="fill:#ffffff;fill-opacity:1"
             class="fil0"
             points="0.214819,0.159531 0.248433,0.125913 0.123807,0 0,0.123807 0.0336142,0.157421 0.100445,0.0905945 0.100445,0.306461 0.147984,0.306461 0.147984,0.092689 "
             id="polygon1212-2-61-0-7-1-6-9" />
        </g>
        <path
           d="m 576.4873,453.96516 h -35.09158 c -1.44812,0 -2.62567,0.37806 -2.62567,0.84299 v 5.54217 c 0,0.46495 1.17755,0.84302 2.62567,0.84302 h 35.09158 c 1.44818,0 2.62573,-0.37807 2.62573,-0.84302 v -5.54217 c 0,-0.46589 -1.17755,-0.84299 -2.62573,-0.84299 z"
           id="path1502-9-5-5-3-8-5-6-1-3-7-7"
           style="fill:#c4c4c4;fill-opacity:1;stroke:#ffffff;stroke-width:0.49999899;stroke-miterlimit:4;stroke-dasharray:none;stroke-opacity:1" />
        <path
           style="fill:none;stroke:#ffffff;stroke-width:0.49999899;stroke-linecap:butt;stroke-linejoin:miter;stroke-miterlimit:4;stroke-dasharray:none;stroke-opacity:1"
           d="m 558.68339,454.05713 v 7.06631"
           id="path1775-6" />
      </g>
    </g>
  </g>
</svg>
