<svg id="SVGRoot" width="206px" height="206px" version="1.1" viewBox="0 0 206 206" xmlns="http://www.w3.org/2000/svg">
 <g transform="matrix(3.7795 0 0 3.7795 -1460.4 331.89)">
  <rect x="387.75" y="-86.664" width="52.632" height="52.632" fill="#b9d4ff" stroke="#000" stroke-linecap="round" stroke-width=".28429" style="paint-order:fill markers stroke"/>
  <text x="413.77182" y="-45.203438" font-family="sans-serif" font-size="4.9389px" letter-spacing="0px" stroke-width=".26458" text-align="end" text-anchor="middle" word-spacing="0px" style="line-height:1.04999995" xml:space="preserve"><tspan x="413.77182" y="-45.203438" text-align="center">Podział strony</tspan><tspan x="413.77182" y="-38.535938" text-align="center">przed</tspan></text>
  <g stroke-width=".25369">
   <path d="m410.01-57.165v-1.0147h-10.147a1.0147 1.0147 0 01-1.0147-1.0147v-22.832a1.0147 1.0147 0 011.0147-1.0147h15.221a1.0147 1.0147 0 011.0148 1.0147v2.5369h1.0148v-2.5369a2.0318 2.0318 0 00-2.0295-2.0295h-15.221a2.0318 2.0318 0 00-2.0295 2.0295v22.832a2.0318 2.0318 0 002.0295 2.0295z"/>
   <path d="m426.24-64.775h-11.162a.50737.50737 0 000 1.0147h11.162a.50737.50737 0 000-1.0147z"/>
   <path d="m415.08-61.224h3.5516a.50737.50737 0 000-1.0147h-3.5516a.50737.50737 0 000 1.0147z"/>
   <path d="m419.14-60.209h-4.059a.5074.5074 0 00-.50737.50737v5.5811a.5074.5074 0 00.50737.50737h4.059a.5074.5074 0 00.50737-.50737v-5.5811a.5074.5074 0 00-.50737-.50737zm-.50737 5.5811h-3.0442v-4.5664h3.0442z"/>
   <path d="m428.27-78.474h-15.221a2.0318 2.0318 0 00-2.0295 2.0295v22.832a2.0318 2.0318 0 002.0295 2.0295h11.162l.00026 3.1e-5a1.0153 1.0153 0 00.1977-.01958c.0265-.0053.0513-.01583.0772-.02316a1.0075 1.0075 0 00.11209-.03406c.0308-.01269.0588-.03106.0882-.04675.029-.01545.0593-.02804.0869-.04641a1.014 1.014 0 00.15564-.12731l5.0737-5.0737a1.0102 1.0102 0 00.11472-.13991c.01-.01431.0185-.02917.0276-.04394a1.0072 1.0072 0 00.0625-.11707c.007-.01593.0146-.03148.021-.04777a1.0155 1.0155 0 00.0509-.16746l.00076-.0029a1.0142 1.0142 0 00.0176-.17837c.00014-.0068.002-.01329.002-.02012v-18.773a2.0318 2.0318 0 00-2.0294-2.0295zm-4.059 25.876v-5.0737h5.0737zm5.0737-6.0885h-5.0737a1.0147 1.0147 0 00-1.0147 1.0147v5.0737h-10.147a1.0147 1.0147 0 01-1.0148-1.0147v-22.832a1.0147 1.0147 0 011.0148-1.0147h15.221a1.0147 1.0147 0 011.0148 1.0147z"/>
   <path d="m415.08-73.908h6.0885a.50737.50737 0 000-1.0147h-6.0885a.50737.50737 0 000 1.0147z"/>
   <path d="m415.08-71.371h8.6254a.50737.50737 0 000-1.0147h-8.6254a.50737.50737 0 000 1.0147z"/>
   <path d="m426.24-69.849h-11.162a.50737.50737 0 000 1.0147h11.162a.50737.50737 0 000-1.0147z"/>
   <path d="m415.08-66.298h6.0885a.50737.50737 0 000-1.0147h-6.0885a.50737.50737 0 000 1.0147z"/>
  </g>
 </g>
</svg>
