<?xml version="1.0" encoding="UTF-8" standalone="no"?>
<svg
   xmlns:dc="http://purl.org/dc/elements/1.1/"
   xmlns:cc="http://creativecommons.org/ns#"
   xmlns:rdf="http://www.w3.org/1999/02/22-rdf-syntax-ns#"
   xmlns:svg="http://www.w3.org/2000/svg"
   xmlns="http://www.w3.org/2000/svg"
   id="svg47"
   version="1.1"
   viewBox="0 0 52.758294 52.758296"
   height="199.40143"
   width="199.40143">
  <defs
     id="defs42">
    <pattern
       id="EMFhbasepattern"
       patternUnits="userSpaceOnUse"
       width="6"
       height="6"
       x="0"
       y="0" />
  </defs>
  <metadata
     id="metadata45">
    <rdf:RDF>
      <cc:Work
         rdf:about="">
        <dc:format>image/svg+xml</dc:format>
        <dc:type
           rdf:resource="http://purl.org/dc/dcmitype/StillImage" />
        <dc:title></dc:title>
      </cc:Work>
    </rdf:RDF>
  </metadata>
  <g
     id="g8556"
     transform="translate(49.836509,-375.23204)">
    <g
       id="g5305">
      <g
         id="g9182"
         transform="translate(-521.8635,6.0476234)">
        <rect
           style="fill:#ffffff;stroke:#000000;stroke-width:0.49999899;stroke-linecap:round;stroke-miterlimit:4;stroke-dasharray:none;stroke-opacity:1;paint-order:fill markers stroke"
           id="rect833-1-5-3-7-4-8-5-1-4-2-8-1"
           width="52.258293"
           x="472.24283"
           y="369.54422"
           height="52.258293" />
        <text
           xml:space="preserve"
           style="font-size:6.3499999px;line-height:0.94999999;font-family:voestalpine;-inkscape-font-specification:voestalpine;text-align:center;letter-spacing:0px;word-spacing:0px;text-anchor:middle;stroke-width:0.26458299"
           x="498.27765"
           y="413.12613"
           id="text898-7-3-6-8-3-3-0-66-7-8-8-0"><tspan
             x="498.27765"
             y="413.12613"
             style="font-size:6.3499999px;text-align:center;text-anchor:middle;stroke-width:0.26458299"
             id="tspan1636-7">Podziel komórkę:</tspan><tspan
             id="tspan1705"
             x="498.27765"
             y="419.15863"
             style="font-size:4.93888998px;text-align:center;text-anchor:middle;stroke-width:0.26458299">2 wiersze, 1 kolumna</tspan></text>
        <g
           id="g5874">
          <path
             d="m 515.91774,374.90717 h -35.09158 c -1.44812,0 -2.62567,0.37807 -2.62567,0.84299 v 5.54218 c 0,0.46494 1.17755,0.84301 2.62567,0.84301 h 35.09158 c 1.44818,0 2.62573,-0.37807 2.62573,-0.84301 v -5.54218 c 0,-0.46588 -1.17755,-0.84299 -2.62573,-0.84299 z"
             id="path1502-9-5-5-3-8-5-6-1"
             style="fill:#ffffff;stroke:#000000;stroke-width:0.5;stroke-miterlimit:4;stroke-dasharray:none;stroke-opacity:1" />
          <g
             transform="matrix(-32.393509,-1.3046802e-7,1.3046802e-7,-32.393509,502.12439,393.74198)"
             id="g1225-72-7-7-9-7"
             style="clip-rule:evenodd;fill:#000000;fill-rule:evenodd;image-rendering:optimizeQuality;shape-rendering:geometricPrecision;text-rendering:geometricPrecision">
            <polygon
               id="polygon1212-2-61-0-7-1"
               points="0.248433,0.125913 0.123807,0 0,0.123807 0.0336142,0.157421 0.100445,0.0905945 0.100445,0.306461 0.147984,0.306461 0.147984,0.092689 0.214819,0.159531 "
               class="fil0" />
          </g>
          <path
             style="fill:#ffffff;stroke:#000000;stroke-width:0.5;stroke-miterlimit:4;stroke-dasharray:none;stroke-opacity:1"
             id="path1502-9-5-5-3-8-5-6-1-3"
             d="m 515.91774,395.60061 h -35.09158 c -1.44812,0 -2.62567,0.37807 -2.62567,0.84299 v 5.54218 c 0,0.46494 1.17755,0.84301 2.62567,0.84301 h 35.09158 c 1.44818,0 2.62573,-0.37807 2.62573,-0.84301 v -5.54218 c 0,-0.46588 -1.17755,-0.84299 -2.62573,-0.84299 z" />
          <path
             style="fill:none;stroke:#000000;stroke-width:0.5;stroke-linecap:butt;stroke-linejoin:miter;stroke-miterlimit:4;stroke-dasharray:none;stroke-opacity:1"
             d="m 478.23908,399.2817 h 40.19955"
             id="path1731" />
        </g>
      </g>
    </g>
  </g>
</svg>
