<?xml version="1.0" encoding="UTF-8" standalone="no"?>
<svg
   xmlns:dc="http://purl.org/dc/elements/1.1/"
   xmlns:cc="http://creativecommons.org/ns#"
   xmlns:rdf="http://www.w3.org/1999/02/22-rdf-syntax-ns#"
   xmlns:svg="http://www.w3.org/2000/svg"
   xmlns="http://www.w3.org/2000/svg"
   id="svg47"
   version="1.1"
   viewBox="0 0 52.758294 52.758296"
   height="199.40143"
   width="199.40143">
  <defs
     id="defs42">
    <pattern
       id="EMFhbasepattern"
       patternUnits="userSpaceOnUse"
       width="6"
       height="6"
       x="0"
       y="0" />
    <marker
       style="overflow:visible"
       id="Arrow1Mend-5-0"
       refX="0"
       refY="0"
       orient="auto">
      <path
         transform="matrix(-0.4,0,0,-0.4,-4,0)"
         style="fill:#000000;fill-opacity:1;fill-rule:evenodd;stroke:#000000;stroke-width:1.00000003pt;stroke-opacity:1"
         d="M 0,0 5,-5 -12.5,0 5,5 Z"
         id="path1146-3-3" />
    </marker>
    <marker
       style="overflow:visible"
       id="Arrow1Mend-5-3"
       refX="0"
       refY="0"
       orient="auto">
      <path
         transform="matrix(-0.4,0,0,-0.4,-4,0)"
         style="fill:#000000;fill-opacity:1;fill-rule:evenodd;stroke:#000000;stroke-width:1.00000003pt;stroke-opacity:1"
         d="M 0,0 5,-5 -12.5,0 5,5 Z"
         id="path1146-3-9" />
    </marker>
    <marker
       orient="auto"
       refY="0"
       refX="0"
       id="Arrow1Mend-5-0-4"
       style="overflow:visible">
      <path
         id="path1146-3-3-8"
         d="M 0,0 5,-5 -12.5,0 5,5 Z"
         style="fill:#ffffff;fill-opacity:1;fill-rule:evenodd;stroke:#ffffff;stroke-width:1.00000003pt;stroke-opacity:1"
         transform="matrix(-0.4,0,0,-0.4,-4,0)" />
    </marker>
    <marker
       orient="auto"
       refY="0"
       refX="0"
       id="Arrow1Mend-5-3-8"
       style="overflow:visible">
      <path
         id="path1146-3-9-5"
         d="M 0,0 5,-5 -12.5,0 5,5 Z"
         style="fill:#ffffff;fill-opacity:1;fill-rule:evenodd;stroke:#ffffff;stroke-width:1.00000003pt;stroke-opacity:1"
         transform="matrix(-0.4,0,0,-0.4,-4,0)" />
    </marker>
    <marker
       style="overflow:visible"
       id="Arrow1Mend"
       refX="0"
       refY="0"
       orient="auto">
      <path
         transform="matrix(-0.4,0,0,-0.4,-4,0)"
         style="fill:#000000;fill-opacity:1;fill-rule:evenodd;stroke:#000000;stroke-width:1.00000003pt;stroke-opacity:1"
         d="M 0,0 5,-5 -12.5,0 5,5 Z"
         id="path1146" />
    </marker>
    <marker
       orient="auto"
       refY="0"
       refX="0"
       id="Arrow1Mend-5"
       style="overflow:visible">
      <path
         id="path1146-3"
         d="M 0,0 5,-5 -12.5,0 5,5 Z"
         style="fill:#ffffff;fill-opacity:1;fill-rule:evenodd;stroke:#ffffff;stroke-width:1.00000003pt;stroke-opacity:1"
         transform="matrix(-0.4,0,0,-0.4,-4,0)" />
    </marker>
    <marker
       style="overflow:visible"
       id="Arrow1Mstart"
       refX="0"
       refY="0"
       orient="auto">
      <path
         transform="matrix(0.4,0,0,0.4,4,0)"
         style="fill:#000000;fill-opacity:1;fill-rule:evenodd;stroke:#000000;stroke-width:1.00000003pt;stroke-opacity:1"
         d="M 0,0 5,-5 -12.5,0 5,5 Z"
         id="path1143" />
    </marker>
    <marker
       orient="auto"
       refY="0"
       refX="0"
       id="Arrow1Mstart-1"
       style="overflow:visible">
      <path
         id="path1143-7"
         d="M 0,0 5,-5 -12.5,0 5,5 Z"
         style="fill:#ffffff;fill-opacity:1;fill-rule:evenodd;stroke:#ffffff;stroke-width:1.00000003pt;stroke-opacity:1"
         transform="matrix(0.4,0,0,0.4,4,0)" />
    </marker>
    <marker
       style="overflow:visible"
       id="Arrow1Lend"
       refX="0"
       refY="0"
       orient="auto">
      <path
         transform="matrix(-0.8,0,0,-0.8,-10,0)"
         style="fill:#000000;fill-opacity:1;fill-rule:evenodd;stroke:#000000;stroke-width:1.00000003pt;stroke-opacity:1"
         d="M 0,0 5,-5 -12.5,0 5,5 Z"
         id="path1140" />
    </marker>
    <marker
       style="overflow:visible"
       id="Arrow1Lstart"
       refX="0"
       refY="0"
       orient="auto">
      <path
         transform="matrix(0.8,0,0,0.8,10,0)"
         style="fill:#000000;fill-opacity:1;fill-rule:evenodd;stroke:#000000;stroke-width:1.00000003pt;stroke-opacity:1"
         d="M 0,0 5,-5 -12.5,0 5,5 Z"
         id="path1137" />
    </marker>
    <marker
       orient="auto"
       refY="0"
       refX="0"
       id="Arrow1Lend-5"
       style="overflow:visible">
      <path
         id="path1140-4"
         d="M 0,0 5,-5 -12.5,0 5,5 Z"
         style="fill:#ffffff;fill-opacity:1;fill-rule:evenodd;stroke:#ffffff;stroke-width:1.00000003pt;stroke-opacity:1"
         transform="matrix(-0.8,0,0,-0.8,-10,0)" />
    </marker>
    <marker
       orient="auto"
       refY="0"
       refX="0"
       id="Arrow1Lstart-93"
       style="overflow:visible">
      <path
         id="path1137-7"
         d="M 0,0 5,-5 -12.5,0 5,5 Z"
         style="fill:#ffffff;fill-opacity:1;fill-rule:evenodd;stroke:#ffffff;stroke-width:1.00000003pt;stroke-opacity:1"
         transform="matrix(0.8,0,0,0.8,10,0)" />
    </marker>
  </defs>
  <metadata
     id="metadata45">
    <rdf:RDF>
      <cc:Work
         rdf:about="">
        <dc:format>image/svg+xml</dc:format>
        <dc:type
           rdf:resource="http://purl.org/dc/dcmitype/StillImage" />
        <dc:title></dc:title>
      </cc:Work>
    </rdf:RDF>
  </metadata>
  <g
     id="g8556"
     transform="translate(49.836509,-375.23204)">
    <g
       id="g5305">
      <text
         id="text898-7-3-6-8-3-3-0-66-7-8-8-0-8-3-4-2-6-22-3-3-4-7-0-2-6-2"
         y="425.61624"
         x="-23.21401"
         style="font-size:6.3499999px;line-height:0.94999999;font-family:voestalpine;-inkscape-font-specification:voestalpine;text-align:center;letter-spacing:0px;word-spacing:0px;text-anchor:middle;fill:#ffffff;fill-opacity:1;stroke-width:0.26458299"
         xml:space="preserve"><tspan
           style="font-size:6.3499999px;text-align:center;text-anchor:middle;fill:#ffffff;fill-opacity:1;stroke-width:0.26458299"
           y="425.61624"
           x="-23.21401"
           id="tspan3280-8-2-3-8">Pokaż nagłówek</tspan></text>
      <g
         style="fill:#ffffff;fill-opacity:1;stroke:#ffffff;stroke-opacity:1"
         id="g3425-7-6"
         transform="matrix(0.43424404,0,0,-0.43424404,-44.80073,415.59384)">
        <rect
           id="rect3393-7-1"
           height="2"
           width="13.89"
           y="68.667"
           x="17.409"
           style="fill:#ffffff;fill-opacity:1;stroke:#ffffff;stroke-opacity:1" />
        <path
           id="path3395-1-7"
           d="M 85.235,77.833 H 14.106 c -2.998,0 -5.436,-2.438 -5.436,-5.436 V 23.27 c 0,-2.998 2.438,-5.436 5.436,-5.436 h 71.129 c 2.998,0 5.436,2.438 5.436,5.436 v 49.128 c -0.001,2.998 -2.438,5.435 -5.436,5.435 z m -71.129,-58 c -1.895,0 -3.436,1.541 -3.436,3.437 v 49.128 c 0,1.895 1.541,3.436 3.436,3.436 h 71.129 c 1.895,0 3.436,-1.541 3.436,-3.436 V 23.27 c 0,-1.896 -1.541,-3.437 -3.436,-3.437 z"
           style="fill:#ffffff;fill-opacity:1;stroke:#ffffff;stroke-opacity:1" />
        <rect
           id="rect3397-6-6"
           height="2"
           width="13.89"
           y="68.667"
           x="42.648998"
           style="fill:#ffffff;fill-opacity:1;stroke:#ffffff;stroke-opacity:1" />
        <rect
           id="rect3399-8-5"
           height="2"
           width="13.89"
           y="68.667"
           x="67.704002"
           style="fill:#ffffff;fill-opacity:1;stroke:#ffffff;stroke-opacity:1" />
        <rect
           id="rect3401-4-7"
           height="2"
           width="13.89"
           y="62.667"
           x="17.500999"
           style="fill:#ffffff;fill-opacity:1;stroke:#ffffff;stroke-opacity:1" />
        <rect
           id="rect3403-9-4"
           height="2"
           width="13.89"
           y="62.667"
           x="42.742001"
           style="fill:#ffffff;fill-opacity:1;stroke:#ffffff;stroke-opacity:1" />
        <rect
           id="rect3405-2-5"
           height="2"
           width="13.89"
           y="62.667"
           x="67.795998"
           style="fill:#ffffff;fill-opacity:1;stroke:#ffffff;stroke-opacity:1" />
        <rect
           id="rect3407-0-9"
           height="2"
           width="64.139"
           y="56.667"
           x="17.500999"
           style="fill:#ffffff;fill-opacity:1;stroke:#ffffff;stroke-opacity:1" />
      </g>
      <g
         id="g2015"
         transform="translate(-437.4454,462.06924)">
        <rect
           style="fill:#b9d4ff;fill-opacity:1;stroke:#000000;stroke-width:0.28429499;stroke-linecap:round;stroke-miterlimit:4;stroke-dasharray:none;stroke-opacity:1;paint-order:fill markers stroke"
           id="rect833-2-8-6-2-6-4"
           width="52.632374"
           height="52.63237"
           x="387.75107"
           y="-86.664398" />
        <g
           id="g1997">
          <text
             id="text837-2-5-3-5-4-2"
             y="-43.216072"
             x="413.77182"
             style="font-size:6.3499999px;line-height:1.04999995;font-family:voestalpine;-inkscape-font-specification:voestalpine;text-align:end;letter-spacing:0px;word-spacing:0px;text-anchor:end;stroke-width:0.26458299"
             xml:space="preserve"><tspan
               style="font-size:6.3499999px;text-align:center;text-anchor:middle;stroke-width:0.26458299"
               y="-43.216072"
               x="413.77182"
               id="tspan1783-4-2-7">Podział strony</tspan><tspan
               id="tspan3073"
               style="font-size:6.3499999px;text-align:center;text-anchor:middle;stroke-width:0.26458299"
               y="-36.548573"
               x="413.77182">przed</tspan></text>
          <g
             id="g3173">
            <path
               style="fill:#000000;stroke-width:0.25368699"
               d="m 410.00836,-57.164818 v -1.014747 h -10.14747 a 1.0147466,1.0147466 0 0 1 -1.01474,-1.014746 v -22.8318 a 1.0147466,1.0147466 0 0 1 1.01474,-1.014746 h 15.2212 a 1.0147466,1.0147466 0 0 1 1.01475,1.014746 v 2.536867 h 1.01475 v -2.536867 a 2.0317765,2.0317765 0 0 0 -2.0295,-2.029493 h -15.2212 a 2.0317765,2.0317765 0 0 0 -2.02949,2.029493 v 22.8318 a 2.0317993,2.0317993 0 0 0 2.02949,2.029493 z"
               id="path3089" />
            <g
               id="g3159">
              <path
                 id="path3101"
                 d="m 426.24431,-64.775418 h -11.16222 a 0.5073735,0.5073735 0 0 0 0,1.014747 h 11.16222 a 0.5073735,0.5073735 0 0 0 0,-1.014747 z"
                 style="fill:#000000;stroke-width:0.25368699" />
              <path
                 id="path3103"
                 d="m 415.08209,-61.223805 h 3.55162 a 0.50737332,0.50737332 0 0 0 0,-1.014746 h -3.55162 a 0.50737332,0.50737332 0 0 0 0,1.014746 z"
                 style="fill:#000000;stroke-width:0.25368699" />
              <path
                 id="path3105"
                 d="m 419.14108,-60.209058 h -4.05899 a 0.50739869,0.50739869 0 0 0 -0.50737,0.507373 v 5.581107 a 0.50739869,0.50739869 0 0 0 0.50737,0.507373 h 4.05899 a 0.50739869,0.50739869 0 0 0 0.50737,-0.507373 v -5.581107 a 0.50739869,0.50739869 0 0 0 -0.50737,-0.507373 z m -0.50737,5.581107 h -3.04424 v -4.56636 h 3.04424 z"
                 style="fill:#000000;stroke-width:0.25368699" />
              <path
                 id="path3091"
                 d="m 428.2738,-78.474497 h -15.2212 a 2.0317765,2.0317765 0 0 0 -2.02949,2.029493 v 22.831799 a 2.0317993,2.0317993 0 0 0 2.02949,2.029493 h 11.16168 l 2.6e-4,3.1e-5 a 1.015254,1.015254 0 0 0 0.1977,-0.01958 c 0.0265,-0.0053 0.0513,-0.01583 0.0772,-0.02316 a 1.0075191,1.0075191 0 0 0 0.11209,-0.03406 c 0.0308,-0.01269 0.0588,-0.03106 0.0882,-0.04675 0.029,-0.01545 0.0593,-0.02804 0.0869,-0.04641 a 1.0140008,1.0140008 0 0 0 0.15564,-0.127307 l 5.07373,-5.073733 a 1.0101803,1.0101803 0 0 0 0.11472,-0.139911 c 0.01,-0.01431 0.0185,-0.02917 0.0276,-0.04394 a 1.0072096,1.0072096 0 0 0 0.0625,-0.117073 c 0.007,-0.01593 0.0146,-0.03148 0.021,-0.04777 a 1.0155077,1.0155077 0 0 0 0.0509,-0.167459 l 7.6e-4,-0.0029 a 1.0142393,1.0142393 0 0 0 0.0176,-0.178372 c 1.4e-4,-0.0068 0.002,-0.01329 0.002,-0.02012 v -18.772785 a 2.0317765,2.0317765 0 0 0 -2.02941,-2.029493 z m -4.05899,25.876039 v -5.073733 h 5.07374 z m 5.07374,-6.08848 h -5.07374 a 1.0147466,1.0147466 0 0 0 -1.01474,1.014747 v 5.073733 H 413.0526 a 1.0147466,1.0147466 0 0 1 -1.01475,-1.014747 v -22.831799 a 1.0147466,1.0147466 0 0 1 1.01475,-1.014747 h 15.2212 a 1.0147466,1.0147466 0 0 1 1.01475,1.014747 z"
                 style="fill:#000000;stroke-width:0.25368699" />
              <path
                 id="path3093"
                 d="m 415.08209,-73.908138 h 6.08848 a 0.50737332,0.50737332 0 0 0 0,-1.014746 h -6.08848 a 0.50737332,0.50737332 0 0 0 0,1.014746 z"
                 style="fill:#000000;stroke-width:0.25368699" />
              <path
                 id="path3095"
                 d="m 415.08209,-71.371271 h 8.62535 a 0.5073735,0.5073735 0 0 0 0,-1.014747 h -8.62535 a 0.5073735,0.5073735 0 0 0 0,1.014747 z"
                 style="fill:#000000;stroke-width:0.25368699" />
              <path
                 id="path3097"
                 d="m 426.24431,-69.849151 h -11.16222 a 0.5073735,0.5073735 0 0 0 0,1.014747 h 11.16222 a 0.5073735,0.5073735 0 0 0 0,-1.014747 z"
                 style="fill:#000000;stroke-width:0.25368699" />
              <path
                 id="path3099"
                 d="m 415.08209,-66.297538 h 6.08848 a 0.50737332,0.50737332 0 0 0 0,-1.014746 h -6.08848 a 0.50737332,0.50737332 0 0 0 0,1.014746 z"
                 style="fill:#000000;stroke-width:0.25368699" />
            </g>
          </g>
        </g>
      </g>
    </g>
  </g>
</svg>
