<?xml version="1.0" encoding="UTF-8" standalone="no"?>
<svg
   xmlns:osb="http://www.openswatchbook.org/uri/2009/osb"
   xmlns:dc="http://purl.org/dc/elements/1.1/"
   xmlns:cc="http://creativecommons.org/ns#"
   xmlns:rdf="http://www.w3.org/1999/02/22-rdf-syntax-ns#"
   xmlns:svg="http://www.w3.org/2000/svg"
   xmlns="http://www.w3.org/2000/svg"
   id="svg47"
   version="1.1"
   viewBox="0 0 52.758294 52.758296"
   height="199.40143"
   width="199.40143">
  <defs
     id="defs42">
    <pattern
       id="EMFhbasepattern"
       patternUnits="userSpaceOnUse"
       width="6"
       height="6"
       x="0"
       y="0" />
    <marker
       style="overflow:visible"
       id="Arrow1Mend-5-0"
       refX="0"
       refY="0"
       orient="auto">
      <path
         transform="matrix(-0.4,0,0,-0.4,-4,0)"
         style="fill:#000000;fill-opacity:1;fill-rule:evenodd;stroke:#000000;stroke-width:1.00000003pt;stroke-opacity:1"
         d="M 0,0 5,-5 -12.5,0 5,5 Z"
         id="path1146-3-3" />
    </marker>
    <marker
       style="overflow:visible"
       id="Arrow1Mend-5-3"
       refX="0"
       refY="0"
       orient="auto">
      <path
         transform="matrix(-0.4,0,0,-0.4,-4,0)"
         style="fill:#000000;fill-opacity:1;fill-rule:evenodd;stroke:#000000;stroke-width:1.00000003pt;stroke-opacity:1"
         d="M 0,0 5,-5 -12.5,0 5,5 Z"
         id="path1146-3-9" />
    </marker>
    <marker
       orient="auto"
       refY="0"
       refX="0"
       id="Arrow1Mend-5-0-4"
       style="overflow:visible">
      <path
         id="path1146-3-3-8"
         d="M 0,0 5,-5 -12.5,0 5,5 Z"
         style="fill:#ffffff;fill-opacity:1;fill-rule:evenodd;stroke:#ffffff;stroke-width:1.00000003pt;stroke-opacity:1"
         transform="matrix(-0.4,0,0,-0.4,-4,0)" />
    </marker>
    <marker
       orient="auto"
       refY="0"
       refX="0"
       id="Arrow1Mend-5-3-8"
       style="overflow:visible">
      <path
         id="path1146-3-9-5"
         d="M 0,0 5,-5 -12.5,0 5,5 Z"
         style="fill:#ffffff;fill-opacity:1;fill-rule:evenodd;stroke:#ffffff;stroke-width:1.00000003pt;stroke-opacity:1"
         transform="matrix(-0.4,0,0,-0.4,-4,0)" />
    </marker>
    <marker
       style="overflow:visible"
       id="Arrow1Mend"
       refX="0"
       refY="0"
       orient="auto">
      <path
         transform="matrix(-0.4,0,0,-0.4,-4,0)"
         style="fill:#000000;fill-opacity:1;fill-rule:evenodd;stroke:#000000;stroke-width:1.00000003pt;stroke-opacity:1"
         d="M 0,0 5,-5 -12.5,0 5,5 Z"
         id="path1146" />
    </marker>
    <marker
       orient="auto"
       refY="0"
       refX="0"
       id="Arrow1Mend-5"
       style="overflow:visible">
      <path
         id="path1146-3"
         d="M 0,0 5,-5 -12.5,0 5,5 Z"
         style="fill:#ffffff;fill-opacity:1;fill-rule:evenodd;stroke:#ffffff;stroke-width:1.00000003pt;stroke-opacity:1"
         transform="matrix(-0.4,0,0,-0.4,-4,0)" />
    </marker>
    <marker
       style="overflow:visible"
       id="Arrow1Mstart"
       refX="0"
       refY="0"
       orient="auto">
      <path
         transform="matrix(0.4,0,0,0.4,4,0)"
         style="fill:#000000;fill-opacity:1;fill-rule:evenodd;stroke:#000000;stroke-width:1.00000003pt;stroke-opacity:1"
         d="M 0,0 5,-5 -12.5,0 5,5 Z"
         id="path1143" />
    </marker>
    <marker
       orient="auto"
       refY="0"
       refX="0"
       id="Arrow1Mstart-1"
       style="overflow:visible">
      <path
         id="path1143-7"
         d="M 0,0 5,-5 -12.5,0 5,5 Z"
         style="fill:#ffffff;fill-opacity:1;fill-rule:evenodd;stroke:#ffffff;stroke-width:1.00000003pt;stroke-opacity:1"
         transform="matrix(0.4,0,0,0.4,4,0)" />
    </marker>
    <marker
       style="overflow:visible"
       id="Arrow1Lend"
       refX="0"
       refY="0"
       orient="auto">
      <path
         transform="matrix(-0.8,0,0,-0.8,-10,0)"
         style="fill:#000000;fill-opacity:1;fill-rule:evenodd;stroke:#000000;stroke-width:1.00000003pt;stroke-opacity:1"
         d="M 0,0 5,-5 -12.5,0 5,5 Z"
         id="path1140" />
    </marker>
    <marker
       style="overflow:visible"
       id="Arrow1Lstart"
       refX="0"
       refY="0"
       orient="auto">
      <path
         transform="matrix(0.8,0,0,0.8,10,0)"
         style="fill:#000000;fill-opacity:1;fill-rule:evenodd;stroke:#000000;stroke-width:1.00000003pt;stroke-opacity:1"
         d="M 0,0 5,-5 -12.5,0 5,5 Z"
         id="path1137" />
    </marker>
    <marker
       orient="auto"
       refY="0"
       refX="0"
       id="Arrow1Lend-5"
       style="overflow:visible">
      <path
         id="path1140-4"
         d="M 0,0 5,-5 -12.5,0 5,5 Z"
         style="fill:#ffffff;fill-opacity:1;fill-rule:evenodd;stroke:#ffffff;stroke-width:1.00000003pt;stroke-opacity:1"
         transform="matrix(-0.8,0,0,-0.8,-10,0)" />
    </marker>
    <marker
       orient="auto"
       refY="0"
       refX="0"
       id="Arrow1Lstart-93"
       style="overflow:visible">
      <path
         id="path1137-7"
         d="M 0,0 5,-5 -12.5,0 5,5 Z"
         style="fill:#ffffff;fill-opacity:1;fill-rule:evenodd;stroke:#ffffff;stroke-width:1.00000003pt;stroke-opacity:1"
         transform="matrix(0.8,0,0,0.8,10,0)" />
    </marker>
    <linearGradient
       id="linearGradient4460"
       osb:paint="solid">
      <stop
         style="stop-color:#db3b3b;stop-opacity:1;"
         offset="0"
         id="stop4458" />
    </linearGradient>
  </defs>
  <metadata
     id="metadata45">
    <rdf:RDF>
      <cc:Work
         rdf:about="">
        <dc:format>image/svg+xml</dc:format>
        <dc:type
           rdf:resource="http://purl.org/dc/dcmitype/StillImage" />
        <dc:title></dc:title>
      </cc:Work>
    </rdf:RDF>
  </metadata>
  <g
     id="g8556"
     transform="translate(49.836509,-375.23204)">
    <g
       id="g5305">
      <g
         id="g5795"
         transform="translate(-1864.6166,406.95597)">
        <rect
           y="-31.749985"
           x="1815.0272"
           height="52.916668"
           width="52.950603"
           id="rect833-4-4-4-3-7-6-0-7-8-17-7-2"
           style="fill:#db3b3b;fill-opacity:1;stroke:#000000;stroke-width:0.50015801;stroke-linecap:round;stroke-miterlimit:4;stroke-dasharray:none;stroke-opacity:1;paint-order:fill markers stroke" />
        <text
           id="text983-1-5-6-98-2-6-5-2-3-2-7-2"
           y="18.008646"
           x="1840.8494"
           style="font-size:6.35203981px;line-height:1.25;font-family:voestalpine;-inkscape-font-specification:voestalpine;letter-spacing:0px;word-spacing:0px;fill:#ffffff;fill-opacity:1;stroke-width:0.26466799"
           xml:space="preserve"
           transform="scale(1.0003206,0.9996795)"><tspan
             style="font-size:6.35203981px;text-align:center;text-anchor:middle;fill:#ffffff;fill-opacity:1;stroke-width:0.26466799"
             y="18.008646"
             x="1840.8494"
             id="tspan3064-9-7">Podziękowania</tspan></text>
        <g
           style="fill:#ffffff;fill-opacity:1"
           id="g3307"
           transform="matrix(0.39653277,0,0,0.39653277,1821.7298,-35.042505)">
          <path
             id="path3281"
             d="M 25.521,69.28 C 25.314,68.266 24.724,67.394 23.86,66.823 23.224,66.402 22.485,66.18 21.726,66.18 c -1.308,0 -2.518,0.649 -3.237,1.74 l -1.775,2.686 c -1.179,1.782 -0.685,4.193 1.099,5.372 0.635,0.42 1.373,0.643 2.133,0.643 1.309,0 2.518,-0.651 3.238,-1.741 l 1.775,-2.687 c 0.568,-0.863 0.77,-1.897 0.562,-2.913 z"
             style="fill:#ffffff;fill-opacity:1" />
          <path
             id="path3283"
             d="m 34.356,72.657 c -0.208,-1.014 -0.798,-1.886 -1.661,-2.456 -0.638,-0.421 -1.374,-0.644 -2.134,-0.644 -1.308,0 -2.518,0.65 -3.238,1.74 l -3.173,4.989 c -0.573,0.868 -0.774,1.903 -0.566,2.917 0.208,1.015 0.798,1.888 1.662,2.457 0.636,0.421 1.374,0.644 2.132,0.644 1.309,0 2.52,-0.65 3.239,-1.739 l 3.174,-4.991 c 0.571,-0.868 0.772,-1.902 0.565,-2.917 z"
             style="fill:#ffffff;fill-opacity:1" />
          <path
             id="path3285"
             d="m 42.499,77.234 c -0.208,-1.015 -0.798,-1.888 -1.661,-2.459 -0.637,-0.419 -1.375,-0.641 -2.134,-0.641 -1.308,0 -2.518,0.649 -3.237,1.739 l -3.175,4.989 c -1.18,1.787 -0.688,4.196 1.096,5.374 0.637,0.422 1.375,0.643 2.134,0.643 1.308,0 2.519,-0.649 3.238,-1.739 l 3.173,-4.989 c 0.573,-0.869 0.774,-1.902 0.566,-2.917 z"
             style="fill:#ffffff;fill-opacity:1" />
          <path
             id="path3287"
             d="m 49.751,83.151 c -0.207,-1.015 -0.797,-1.888 -1.66,-2.457 -0.638,-0.421 -1.376,-0.643 -2.134,-0.643 -1.307,0 -2.518,0.649 -3.238,1.74 l -1.83,2.861 c -1.18,1.787 -0.687,4.197 1.097,5.376 0.636,0.419 1.374,0.643 2.133,0.643 1.309,0 2.518,-0.651 3.238,-1.74 l 1.829,-2.864 c 0.573,-0.866 0.774,-1.901 0.565,-2.916 z"
             style="fill:#ffffff;fill-opacity:1" />
          <path
             id="path3289"
             d="m 82.726,66.683 -34.318,-23.41 -5.797,1.299 -3.867,5.93 c -0.884,1.338 -2.368,2.137 -3.971,2.137 -0.931,0 -1.836,-0.272 -2.616,-0.789 -1.059,-0.698 -1.781,-1.769 -2.037,-3.013 -0.254,-1.244 -0.008,-2.513 0.691,-3.57 l 4.38,-6.861 c 1.253,-2.234 2.781,-4.108 4.546,-5.573 L 27.845,34.172 2.998,20.447 v 37.056 l 15.207,8.852 c 0.957,-0.913 2.198,-1.414 3.521,-1.414 1.004,0 1.977,0.293 2.816,0.848 1.141,0.753 1.92,1.905 2.193,3.244 0.059,0.295 0.094,0.594 0.101,0.897 0.959,-1.021 2.302,-1.611 3.726,-1.611 1.002,0 1.977,0.293 2.816,0.848 1.141,0.753 1.92,1.905 2.193,3.243 0.102,0.498 0.128,1 0.08,1.501 0.877,-0.659 1.939,-1.015 3.053,-1.015 1.003,0 1.978,0.292 2.816,0.847 1.139,0.751 1.918,1.902 2.192,3.244 0.163,0.798 0.135,1.607 -0.08,2.381 1.592,-0.814 3.616,-0.715 5.14,0.293 1.141,0.753 1.92,1.904 2.194,3.243 0.272,1.339 0.011,2.7 -0.739,3.834 l -0.019,0.03 0.194,0.123 5.483,3.777 c 0.689,0.523 1.498,0.797 2.35,0.797 1.226,0 2.352,-0.56 3.091,-1.533 1.292,-1.703 0.959,-4.139 -0.741,-5.431 l -6.244,-4.301 0.657,-1.081 8.891,6.122 c 0.689,0.523 1.498,0.796 2.35,0.796 1.225,0 2.353,-0.559 3.091,-1.532 1.293,-1.703 0.959,-4.14 -0.742,-5.432 l -9.554,-6.579 0.715,-1.173 10.925,7.521 c 0.688,0.522 1.499,0.796 2.35,0.796 1.226,0 2.352,-0.559 3.091,-1.531 1.292,-1.704 0.959,-4.14 -0.743,-5.433 l -11.588,-7.979 0.719,-1.179 13.423,9.243 c 0.688,0.522 1.499,0.796 2.351,0.796 0,0 0,0 0.001,0 1.224,0 2.351,-0.558 3.089,-1.531 1.264,-1.67 0.984,-4.016 -0.641,-5.341 z"
             style="fill:#ffffff;fill-opacity:1" />
          <path
             id="path3291"
             d="m 31.336,48.589 c 0.188,0.918 0.722,1.71 1.505,2.227 0.577,0.381 1.246,0.583 1.933,0.583 1.185,0 2.281,-0.59 2.935,-1.577 l 4.141,-6.348 6.812,-1.528 0.223,0.152 34.559,23.573 13.286,-8.605 V 26.622 L 76.788,33.308 76.64,33.292 53.277,30.568 c -0.152,-0.036 -1.262,-0.291 -2.916,-0.291 -3.433,0 -9.828,1.137 -14.105,8.766 l -4.402,6.897 c -0.524,0.79 -0.707,1.73 -0.518,2.649 z"
             style="fill:#ffffff;fill-opacity:1" />
        </g>
      </g>
    </g>
  </g>
</svg>
