<svg id="SVGRoot" width="206px" height="206px" version="1.1" viewBox="0 0 206 206" xmlns="http://www.w3.org/2000/svg">
 <g transform="matrix(3.7795 0 0 3.7795 -1795.2 2502.6)">
  <flowRoot fill="black" font-family="sans-serif" font-size="40px" letter-spacing="0px" word-spacing="0px" style="line-height:1.25" xml:space="preserve"><flowRegion><rect x="-392.69" y="-63.57" width="758.02" height="397.52"/></flowRegion><flowPara/></flowRoot>
  <flowRoot fill="black" font-family="sans-serif" font-size="40px" letter-spacing="0px" word-spacing="0px" style="line-height:1.25" xml:space="preserve"><flowRegion><rect x="-251.87" y="-84.492" width="624.44" height="455.45"/></flowRegion><flowPara/></flowRoot>
  <flowRoot fill="black" font-family="sans-serif" font-size="40px" letter-spacing="0px" word-spacing="0px" style="line-height:1.25" xml:space="preserve"><flowRegion><rect x="-202.78" y="-50.695" width="473.96" height="281.64"/></flowRegion><flowPara/></flowRoot>
  <flowRoot fill="black" font-family="sans-serif" font-size="40px" letter-spacing="0px" word-spacing="0px" style="line-height:1.25" xml:space="preserve"><flowRegion><rect x="-86.906" y="-78.859" width="516.61" height="410.39"/></flowRegion><flowPara/></flowRoot>
  <flowRoot fill="black" font-family="sans-serif" font-size="40px" letter-spacing="0px" word-spacing="0px" style="line-height:1.25" xml:space="preserve"><flowRegion><rect x="-81.273" y="-32.188" width="309" height="322.68"/></flowRegion><flowPara/></flowRoot>
  <flowRoot fill="black" font-family="sans-serif" font-size="40px" letter-spacing="0px" word-spacing="0px" style="line-height:1.25" xml:space="preserve"><flowRegion><rect x="-90.93" y="-68.398" width="392.69" height="252.67"/></flowRegion><flowPara/></flowRoot>
  <g transform="translate(675.17 -.21291)">
   <flowRoot fill="black" font-family="sans-serif" font-size="40px" letter-spacing="0px" word-spacing="0px" style="line-height:1.25" xml:space="preserve"><flowRegion><rect x="-100.59" y="-53.109" width="462.7" height="369.35"/></flowRegion><flowPara/></flowRoot>
   <g transform="translate(57.194 .21291)">
    <flowRoot fill="black" font-family="sans-serif" font-size="40px" letter-spacing="0px" word-spacing="0px" style="line-height:1.25" xml:space="preserve"><flowRegion><rect x="-329.12" y="-12.07" width="696.05" height="259.91"/></flowRegion><flowPara/></flowRoot>
    <g transform="translate(-1495.1 -629.38)">
     <g transform="translate(-576.36 .21291)">
      <rect x="1815" y="-31.75" width="52.951" height="52.917" fill="#db3b3b" stroke="#000" stroke-linecap="round" stroke-width=".50016" style="paint-order:fill markers stroke"/>
      <text transform="scale(1.0003 .99968)" x="1840.8494" y="16.301208" fill="#ffffff" font-family="sans-serif" font-size="6.352px" letter-spacing="0px" stroke-width=".26467" word-spacing="0px" style="line-height:1.25" xml:space="preserve"><tspan x="1840.8494" y="16.301208" fill="#ffffff" font-family="sans-serif" font-size="4.9389px" stroke-width=".26467" text-align="center" text-anchor="middle">Podziękowania</tspan></text>
      <g transform="matrix(.39653 0 0 .39653 1821.7 -35.043)" fill="#fff">
       <path d="m25.521 69.28c-.207-1.014-.797-1.886-1.661-2.457-.636-.421-1.375-.643-2.134-.643-1.308 0-2.518.649-3.237 1.74l-1.775 2.686c-1.179 1.782-.685 4.193 1.099 5.372.635.42 1.373.643 2.133.643 1.309 0 2.518-.651 3.238-1.741l1.775-2.687c.568-.863.77-1.897.562-2.913z"/>
       <path d="m34.356 72.657c-.208-1.014-.798-1.886-1.661-2.456-.638-.421-1.374-.644-2.134-.644-1.308 0-2.518.65-3.238 1.74l-3.173 4.989c-.573.868-.774 1.903-.566 2.917.208 1.015.798 1.888 1.662 2.457.636.421 1.374.644 2.132.644 1.309 0 2.52-.65 3.239-1.739l3.174-4.991c.571-.868.772-1.902.565-2.917z"/>
       <path d="m42.499 77.234c-.208-1.015-.798-1.888-1.661-2.459-.637-.419-1.375-.641-2.134-.641-1.308 0-2.518.649-3.237 1.739l-3.175 4.989c-1.18 1.787-.688 4.196 1.096 5.374.637.422 1.375.643 2.134.643 1.308 0 2.519-.649 3.238-1.739l3.173-4.989c.573-.869.774-1.902.566-2.917z"/>
       <path d="m49.751 83.151c-.207-1.015-.797-1.888-1.66-2.457-.638-.421-1.376-.643-2.134-.643-1.307 0-2.518.649-3.238 1.74l-1.83 2.861c-1.18 1.787-.687 4.197 1.097 5.376.636.419 1.374.643 2.133.643 1.309 0 2.518-.651 3.238-1.74l1.829-2.864c.573-.866.774-1.901.565-2.916z"/>
       <path d="m82.726 66.683-34.318-23.41-5.797 1.299-3.867 5.93c-.884 1.338-2.368 2.137-3.971 2.137-.931 0-1.836-.272-2.616-.789-1.059-.698-1.781-1.769-2.037-3.013-.254-1.244-.008-2.513.691-3.57l4.38-6.861c1.253-2.234 2.781-4.108 4.546-5.573l-11.892 1.339-24.847-13.725v37.056l15.207 8.852c.957-.913 2.198-1.414 3.521-1.414 1.004 0 1.977.293 2.816.848 1.141.753 1.92 1.905 2.193 3.244.059.295.094.594.101.897.959-1.021 2.302-1.611 3.726-1.611 1.002 0 1.977.293 2.816.848 1.141.753 1.92 1.905 2.193 3.243.102.498.128 1 .08 1.501.877-.659 1.939-1.015 3.053-1.015 1.003 0 1.978.292 2.816.847 1.139.751 1.918 1.902 2.192 3.244.163.798.135 1.607-.08 2.381 1.592-.814 3.616-.715 5.14.293 1.141.753 1.92 1.904 2.194 3.243.272 1.339.011 2.7-.739 3.834l-.019.03.194.123 5.483 3.777c.689.523 1.498.797 2.35.797 1.226 0 2.352-.56 3.091-1.533 1.292-1.703.959-4.139-.741-5.431l-6.244-4.301.657-1.081 8.891 6.122c.689.523 1.498.796 2.35.796 1.225 0 2.353-.559 3.091-1.532 1.293-1.703.959-4.14-.742-5.432l-9.554-6.579.715-1.173 10.925 7.521c.688.522 1.499.796 2.35.796 1.226 0 2.352-.559 3.091-1.531 1.292-1.704.959-4.14-.743-5.433l-11.588-7.979.719-1.179 13.423 9.243c.688.522 1.499.796 2.351.796h.001c1.224 0 2.351-.558 3.089-1.531 1.264-1.67.984-4.016-.641-5.341z"/>
       <path d="m31.336 48.589c.188.918.722 1.71 1.505 2.227.577.381 1.246.583 1.933.583 1.185 0 2.281-.59 2.935-1.577l4.141-6.348 6.812-1.528.223.152 34.559 23.573 13.286-8.605v-30.444l-19.942 6.686-.148-.016-23.363-2.724c-.152-.036-1.262-.291-2.916-.291-3.433 0-9.828 1.137-14.105 8.766l-4.402 6.897c-.524.79-.707 1.73-.518 2.649z"/>
      </g>
     </g>
    </g>
   </g>
  </g>
 </g>
</svg>
