<?xml version="1.0" encoding="UTF-8" standalone="no"?>
<svg
   xmlns:dc="http://purl.org/dc/elements/1.1/"
   xmlns:cc="http://creativecommons.org/ns#"
   xmlns:rdf="http://www.w3.org/1999/02/22-rdf-syntax-ns#"
   xmlns:svg="http://www.w3.org/2000/svg"
   xmlns="http://www.w3.org/2000/svg"
   id="SVGRoot"
   version="1.1"
   viewBox="0 0 200 200"
   height="200px"
   width="200px">
  <defs
     id="defs827" />
  <metadata
     id="metadata830">
    <rdf:RDF>
      <cc:Work
         rdf:about="">
        <dc:format>image/svg+xml</dc:format>
        <dc:type
           rdf:resource="http://purl.org/dc/dcmitype/StillImage" />
        <dc:title></dc:title>
      </cc:Work>
    </rdf:RDF>
  </metadata>
  <g
     id="layer1">
    <g
       id="g770"
       transform="matrix(3.7795276,0,0,3.7795276,298.08333,329.55649)">
      <g
         id="g758">
        <rect
           y="-86.664398"
           x="-78.246178"
           height="52.63237"
           width="52.632374"
           id="rect833"
           style="fill:#ffffff;fill-opacity:1;stroke:#000000;stroke-width:0.28429499;stroke-linecap:round;stroke-miterlimit:4;stroke-dasharray:none;stroke-opacity:1;paint-order:fill markers stroke" />
        <text
           id="text837"
           y="-36.548573"
           x="-76.732094"
           style="font-size:6.3499999px;line-height:1.04999995;font-family:voestalpine;-inkscape-font-specification:voestalpine;letter-spacing:0px;word-spacing:0px;stroke-width:0.26458299"
           xml:space="preserve"><tspan
             style="font-size:6.3499999px;stroke-width:0.26458299"
             y="-36.548573"
             x="-76.732094"
             id="tspan835">Pokaż adjustację</tspan></text>
        <g
           transform="matrix(0.72546077,0,0,0.72546077,-70.843295,-86.788389)"
           id="g862"
           style="fill:#000000">
          <g
             id="g847">
            <path
               d="m 14.3,20.5 c 0,0 0,0 0,0 4.7,-0.1 9.5,-0.2 14.2,-0.1 0.3,0 0.5,-0.2 0.5,-0.5 0,-0.3 -0.2,-0.5 -0.5,-0.5 -4.7,0 -9.5,0 -14.3,0.1 -0.3,0 -0.5,0.2 -0.5,0.5 0.1,0.2 0.3,0.5 0.6,0.5 z"
               id="path839" />
            <path
               d="m 28.5,40 c -4.7,0 -9.5,0 -14.3,0.1 -0.3,0 -0.5,0.2 -0.5,0.5 0,0.3 0.2,0.5 0.5,0.5 0,0 0,0 0,0 C 19,41 23.8,41 28.5,41 c 0,0 0,0 0,0 0.6,0 0.6,-1 0,-1 z"
               id="path841" />
            <path
               d="m 24.1,33.7 c 1.6,3.9 6.8,5.7 10.3,2.2 1.8,-1.8 2.2,-4.4 1.2,-6.9 C 32,20.3 21.4,27.2 24.1,33.7 Z m 0.5,-0.2 c -2.4,-5.9 7.2,-12.4 10.6,-4.4 3,7.4 -7.6,11.7 -10.6,4.4 z"
               id="path843" />
            <path
               d="m 39.6,44 c 0.7,0.8 1.5,1.7 2.5,2.6 0.5,0.4 1.1,0.7 1.7,0.7 0.7,0 1.4,-0.3 1.9,-0.9 0.9,-1 0.8,-2.5 -0.1,-3.5 -0.5,-0.5 -1,-0.9 -1.6,-1.4 -5.8,-5 -5,-5.8 -6,-5.1 l -0.6,-0.6 c 0,-0.1 0,-0.3 0,-0.4 1.1,-2.1 1.2,-4.7 0.2,-7.2 C 38.1,9.7 37.7,9.1 36.2,8.2 35.2,7.6 34.8,7.8 27.2,7.9 26.9,5.4 27.1,4.6 23.5,5 23.4,4.4 23.3,3.9 23,3.3 22.6,2.6 21.8,1.9 20.8,2 19,2.2 18.7,4.1 18.6,5.1 c -2.4,0 -3,1 -3,2.9 -7.9,0.2 -8.1,0.4 -8.3,0.5 -1.4,1 -0.8,3.8 -0.8,4.9 -0.6,8.2 0.1,9 -0.4,28.6 0,0.4 -0.1,0.9 -0.1,1.5 -0.1,1.3 -0.3,3 -0.1,4.2 0.5,3.1 1.2,2 16.2,2 2.7,0 5.6,0 8.6,0.1 1.5,0 3.5,0.3 5,0.1 2.2,-0.2 2.1,-1 1.9,-3.7 -0.1,-1.1 -0.2,-2.6 -0.3,-4.7 0.5,0.6 1.2,1.3 2,2.2 z m -3.1,-9 c -0.5,1.1 -1.3,1.9 -2.3,2.6 0,0 -0.1,0.1 -0.1,0.1 -4.5,2.8 -10.3,0.3 -11.4,-4.7 -0.9,-4.4 3,-9.2 7.6,-9.2 5.3,0 8.4,6.6 6.2,11.2 z m -0.2,2 c 0,0.4 0,0.8 0,1.1 l -0.1,0.1 -0.5,-0.5 c 0.2,-0.3 0.4,-0.5 0.6,-0.7 z M 21,3 c 0.5,0 1,0.4 1.2,0.8 0.2,0.4 0.3,0.9 0.4,1.3 -1.5,0.2 -2,0.2 -2.9,0.1 C 19.8,3.8 20.2,3.1 21,3 Z M 16.7,8.7 C 16.6,4.8 18,6.7 23,6.1 c 0.1,0 0.1,0 0.3,0 3,-0.4 2.6,-0.1 2.8,1.2 0.4,2.5 0.2,3.3 -0.1,3.7 -10.4,0.2 -9.4,0.9 -9.3,-2.3 z m 14,40.1 C 27.7,48.7 24.8,48.7 22.1,48.7 6.7,48.7 7.2,49.6 6.8,47.5 6.6,46.4 6.8,44.8 6.9,43.6 7,43 7.1,42.5 7.1,42.1 7.5,27.5 7,10.2 7.9,9.3 8.5,9.2 11.7,9.1 15.7,9 c 0,0.2 0,0.5 0,0.7 0,0.8 0,1.5 0.4,1.9 0.9,0.9 2.8,0.5 9.9,0.3 1.3,0 1.4,-1.8 1.3,-3 10.3,-0.1 9,-0.7 9.3,3.8 0.1,1.5 0.1,11 0,13.6 -2.2,-3.3 -5.8,-4.5 -9.5,-2.9 -4.3,0 -8.6,0 -12.9,0.1 -0.3,0 -0.5,0.2 -0.5,0.5 0,0.3 0.2,0.5 0.5,0.5 v 0 c 3.7,-0.1 7.4,-0.1 11.2,-0.1 -1.3,0.9 -2.1,1.9 -2.8,3.1 -2.8,0 -5.6,0.1 -8.4,0.1 -0.3,0 -0.5,0.2 -0.5,0.5 0,0.3 0.2,0.5 0.5,0.5 v 0 c 2.6,-0.1 5.3,-0.1 7.9,-0.1 -0.4,1 -0.6,2.1 -0.6,3.1 -2.5,0 -4.9,0 -7.3,0.1 -0.3,0 -0.5,0.2 -0.5,0.5 0,0.3 0.2,0.5 0.5,0.5 v 0 c 2.4,-0.1 4.9,-0.1 7.4,-0.1 0,0.2 0,0.3 0.1,0.5 0.2,1 0.6,1.9 1.1,2.7 -2.9,0 -5.7,0 -8.6,0.1 -0.3,0 -0.5,0.2 -0.5,0.5 0,0.3 0.2,0.5 0.5,0.5 v 0 c 3.1,-0.1 6.2,-0.1 9.3,-0.1 3.1,3.6 8.4,3.8 11.3,1.4 l 0.6,0.6 c -0.5,0.5 0.1,1 0.8,1.6 0,2.6 0.2,4.5 0.3,5.8 0.4,3.5 0.6,2.7 -5.8,2.6 z m 5.8,-9.4 1.8,-1.9 c 2.1,2.4 3.7,3.7 4.9,4.8 0.6,0.5 1.1,0.9 1.5,1.4 0.6,0.6 0.6,1.5 0.1,2.1 -0.5,0.6 -1.6,0.7 -2.2,0.1 -1.9,-1.8 -1.4,-1.8 -6.1,-6.5 z"
               id="path845" />
          </g>
        </g>
      </g>
    </g>
  </g>
</svg>
