<svg id="SVGRoot" width="206px" height="206px" version="1.1" viewBox="0 0 206 206" xmlns="http://www.w3.org/2000/svg">
 <g transform="matrix(3.7795 0 0 3.7795 -5465.1 -1392.5)">
  <g transform="translate(1525.4 456.13)">
   <rect x="-78.246" y="-86.664" width="52.632" height="52.632" fill="#fff" stroke="#000" stroke-linecap="round" stroke-width=".28429" style="paint-order:fill markers stroke"/>
   <text x="-73.319" y="-38.456009" font-family="voestalpine" font-size="6.35px" letter-spacing="0px" stroke-width=".26458" word-spacing="0px" style="line-height:1.04999995" xml:space="preserve"><tspan x="-76.000" y="-38.456009" font-family="sans-serif" class="svgT" letter-spacing=".5px" font-size="5.2px" stroke-width=".26458">Pokaż adjustację</tspan></text>
   <g transform="matrix(.72546 0 0 .72546 -70.843 -86.788)">
    <path d="m14.3 20.5c4.7-.1 9.5-.2 14.2-.1.3 0 .5-.2.5-.5s-.2-.5-.5-.5c-4.7 0-9.5 0-14.3.1-.3 0-.5.2-.5.5.1.2.3.5.6.5z"/>
    <path d="m28.5 40c-4.7 0-9.5 0-14.3.1-.3 0-.5.2-.5.5s.2.5.5.5c4.8-.1 9.6-.1 14.3-.1.6 0 .6-1 0-1z"/>
    <path d="m24.1 33.7c1.6 3.9 6.8 5.7 10.3 2.2 1.8-1.8 2.2-4.4 1.2-6.9-3.6-8.7-14.2-1.8-11.5 4.7zm.5-.2c-2.4-5.9 7.2-12.4 10.6-4.4 3 7.4-7.6 11.7-10.6 4.4z"/>
    <path d="m39.6 44c.7.8 1.5 1.7 2.5 2.6.5.4 1.1.7 1.7.7.7 0 1.4-.3 1.9-.9.9-1 .8-2.5-.1-3.5-.5-.5-1-.9-1.6-1.4-5.8-5-5-5.8-6-5.1l-.6-.6v-.4c1.1-2.1 1.2-4.7.2-7.2.5-18.5.1-19.1-1.4-20-1-.6-1.4-.4-9-.3-.3-2.5-.1-3.3-3.7-2.9-.1-.6-.2-1.1-.5-1.7-.4-.7-1.2-1.4-2.2-1.3-1.8.2-2.1 2.1-2.2 3.1-2.4 0-3 1-3 2.9-7.9.2-8.1.4-8.3.5-1.4 1-.8 3.8-.8 4.9-.6 8.2.1 9-.4 28.6 0 .4-.1.9-.1 1.5-.1 1.3-.3 3-.1 4.2.5 3.1 1.2 2 16.2 2 2.7 0 5.6 0 8.6.1 1.5 0 3.5.3 5 .1 2.2-.2 2.1-1 1.9-3.7-.1-1.1-.2-2.6-.3-4.7.5.6 1.2 1.3 2 2.2zm-3.1-9c-.5 1.1-1.3 1.9-2.3 2.6l-.1.1c-4.5 2.8-10.3.3-11.4-4.7-.9-4.4 3-9.2 7.6-9.2 5.3 0 8.4 6.6 6.2 11.2zm-.2 2v1.1l-.1.1-.5-.5c.2-.3.4-.5.6-.7zm-15.3-34c.5 0 1 .4 1.2.8s.3.9.4 1.3c-1.5.2-2 .2-2.9.1.1-1.4.5-2.1 1.3-2.2zm-4.3 5.7c-.1-3.9 1.3-2 6.3-2.6h.3c3-.4 2.6-.1 2.8 1.2.4 2.5.2 3.3-.1 3.7-10.4.2-9.4.9-9.3-2.3zm14 40.1c-3-.1-5.9-.1-8.6-.1-15.4 0-14.9.9-15.3-1.2-.2-1.1 0-2.7.1-3.9.1-.6.2-1.1.2-1.5.4-14.6-.1-31.9.8-32.8.6-.1 3.8-.2 7.8-.3v.7c0 .8 0 1.5.4 1.9.9.9 2.8.5 9.9.3 1.3 0 1.4-1.8 1.3-3 10.3-.1 9-.7 9.3 3.8.1 1.5.1 11 0 13.6-2.2-3.3-5.8-4.5-9.5-2.9-4.3 0-8.6 0-12.9.1-.3 0-.5.2-.5.5s.2.5.5.5c3.7-.1 7.4-.1 11.2-.1-1.3.9-2.1 1.9-2.8 3.1-2.8 0-5.6.1-8.4.1-.3 0-.5.2-.5.5s.2.5.5.5c2.6-.1 5.3-.1 7.9-.1-.4 1-.6 2.1-.6 3.1-2.5 0-4.9 0-7.3.1-.3 0-.5.2-.5.5s.2.5.5.5c2.4-.1 4.9-.1 7.4-.1 0 .2 0 .3.1.5.2 1 .6 1.9 1.1 2.7-2.9 0-5.7 0-8.6.1-.3 0-.5.2-.5.5s.2.5.5.5c3.1-.1 6.2-.1 9.3-.1 3.1 3.6 8.4 3.8 11.3 1.4l.6.6c-.5.5.1 1 .8 1.6 0 2.6.2 4.5.3 5.8.4 3.5.6 2.7-5.8 2.6zm5.8-9.4 1.8-1.9c2.1 2.4 3.7 3.7 4.9 4.8.6.5 1.1.9 1.5 1.4.6.6.6 1.5.1 2.1s-1.6.7-2.2.1c-1.9-1.8-1.4-1.8-6.1-6.5z"/>
   </g>
  </g>
 </g>
</svg>
