<?xml version="1.0" encoding="UTF-8" standalone="no"?>
<svg
   xmlns:dc="http://purl.org/dc/elements/1.1/"
   xmlns:cc="http://creativecommons.org/ns#"
   xmlns:rdf="http://www.w3.org/1999/02/22-rdf-syntax-ns#"
   xmlns:svg="http://www.w3.org/2000/svg"
   xmlns="http://www.w3.org/2000/svg"
   id="svg47"
   version="1.1"
   viewBox="0 0 52.758294 52.758296"
   height="199.40143"
   width="199.40143">
  <defs
     id="defs42">
    <pattern
       id="EMFhbasepattern"
       patternUnits="userSpaceOnUse"
       width="6"
       height="6"
       x="0"
       y="0" />
  </defs>
  <metadata
     id="metadata45">
    <rdf:RDF>
      <cc:Work
         rdf:about="">
        <dc:format>image/svg+xml</dc:format>
        <dc:type
           rdf:resource="http://purl.org/dc/dcmitype/StillImage" />
        <dc:title></dc:title>
      </cc:Work>
    </rdf:RDF>
  </metadata>
  <g
     id="g8556"
     transform="translate(49.836509,-375.23204)">
    <g
       id="g5305">
      <rect
         style="fill:#ffffff;stroke:#000000;stroke-width:0.49999902;stroke-linecap:round;stroke-miterlimit:4;stroke-dasharray:none;stroke-opacity:1;paint-order:fill markers stroke"
         id="rect833-1-5-3-7-4-8-5-1-4-2-8-1-5-8-6-0-5-58-4-8-8-2-6"
         width="52.258293"
         x="-49.545116"
         y="375.70541"
         height="52.258293" />
      <text
         xml:space="preserve"
         style="font-size:6.3499999px;line-height:0.94999999;font-family:voestalpine;-inkscape-font-specification:voestalpine;text-align:center;letter-spacing:0px;word-spacing:0px;text-anchor:middle;stroke-width:0.26458299"
         x="-23.062817"
         y="425.79312"
         id="text898-7-3-6-8-3-3-0-66-7-8-8-0-8-3-4-2-6-22-3-3-4-7-1"><tspan
           id="tspan3280-5"
           x="-23.062817"
           y="425.79312"
           style="font-size:6.3499999px;text-align:center;text-anchor:middle;stroke-width:0.26458299">Pokaż stopkę</tspan></text>
      <g
         style="fill:#000000"
         id="g3425"
         transform="matrix(0.43424404,0,0,0.43424404,-45.057778,374.06006)">
        <rect
           id="rect3393"
           height="2"
           width="13.89"
           y="68.667"
           x="17.409"
           style="fill:#000000;stroke:#000000" />
        <path
           id="path3395"
           d="M 85.235,77.833 H 14.106 c -2.998,0 -5.436,-2.438 -5.436,-5.436 V 23.27 c 0,-2.998 2.438,-5.436 5.436,-5.436 h 71.129 c 2.998,0 5.436,2.438 5.436,5.436 v 49.128 c -0.001,2.998 -2.438,5.435 -5.436,5.435 z m -71.129,-58 c -1.895,0 -3.436,1.541 -3.436,3.437 v 49.128 c 0,1.895 1.541,3.436 3.436,3.436 h 71.129 c 1.895,0 3.436,-1.541 3.436,-3.436 V 23.27 c 0,-1.896 -1.541,-3.437 -3.436,-3.437 z"
           style="fill:#000000;stroke:#000000" />
        <rect
           id="rect3397"
           height="2"
           width="13.89"
           y="68.667"
           x="42.648998"
           style="fill:#000000;stroke:#000000" />
        <rect
           id="rect3399"
           height="2"
           width="13.89"
           y="68.667"
           x="67.704002"
           style="fill:#000000;stroke:#000000" />
        <rect
           id="rect3401"
           height="2"
           width="13.89"
           y="62.667"
           x="17.500999"
           style="fill:#000000;stroke:#000000" />
        <rect
           id="rect3403"
           height="2"
           width="13.89"
           y="62.667"
           x="42.742001"
           style="fill:#000000;stroke:#000000" />
        <rect
           id="rect3405"
           height="2"
           width="13.89"
           y="62.667"
           x="67.795998"
           style="fill:#000000;stroke:#000000" />
        <rect
           id="rect3407"
           height="2"
           width="64.139"
           y="56.667"
           x="17.500999"
           style="fill:#000000;stroke:#000000" />
      </g>
    </g>
  </g>
</svg>
