<svg id="SVGRoot" width="208" height="208" version="1.1" viewBox="0 0 208 208" xmlns="http://www.w3.org/2000/svg">
 <g transform="translate(0,7)">
  <g transform="matrix(3.7795 0 0 3.7795 10.171 -6.7758)">
   <g transform="translate(-1.0884 -121.69)">
    <g transform="translate(1.6608 -59.209)">
     <g transform="translate(-.6443 -59.335)">
      <g transform="translate(-1396.8 269.89)">
       <g transform="translate(-57.972 -.024822)">
        <g transform="translate(1658.1 73.867)">
         <g transform="translate(-203.03 -103.33)">
          <flowRoot transform="matrix(.26458 0 0 .26458 -2.875 1.091)" fill="#000000" font-family="sans-serif" font-size="40px" letter-spacing="0px" word-spacing="0px" style="line-height:1.25" xml:space="preserve"><flowRegion><rect x="-85.582" y="-60.812" width="342.33" height="293.65"/></flowRegion><flowPara/></flowRoot>
          <g transform="translate(-1039.4 318.88)">
           <flowRoot transform="matrix(.26458 0 0 .26458 1036.5 -317.79)" fill="#000000" font-family="sans-serif" font-size="40px" letter-spacing="0px" word-spacing="0px" style="line-height:1.25" xml:space="preserve"><flowRegion><rect x="-105.21" y="-13.703" width="562.17" height="513.49"/></flowRegion><flowPara/></flowRoot>
           <g transform="translate(-66.134 .039287)">
            <g transform="translate(-66.173 .043409)">
             <flowRoot transform="matrix(.26458 0 0 .26458 1168.8 -317.87)" fill="#000000" font-family="sans-serif" font-size="40px" letter-spacing="0px" word-spacing="0px" style="line-height:1.25" xml:space="preserve"><flowRegion><rect x="-114.63" y="-91.434" width="675.23" height="522.91"/></flowRegion><flowPara/></flowRoot>
             <g transform="translate(-66.2 -.040316)">
              <g transform="translate(-65.918 -.60254)">
               <g transform="translate(-66.6 .14883)">
                <flowRoot fill="black" font-family="sans-serif" font-size="40px" letter-spacing="0px" word-spacing="0px" style="line-height:1.25" xml:space="preserve"><flowRegion><rect x="-24.34" y="-19.695" width="252.04" height="245.75"/></flowRegion><flowPara/></flowRoot>
                <g transform="translate(-68.678 -.48293)">
                 <flowRoot fill="black" font-family="sans-serif" font-size="40px" letter-spacing="0px" word-spacing="0px" style="line-height:1.25" xml:space="preserve"><flowRegion><rect x="-65.168" y="-26.762" width="382.37" height="335.26"/></flowRegion><flowPara/></flowRoot>
                 <g transform="translate(-63.347 .4912)">
                  <g transform="translate(529.82 -.18087)">
                   <g transform="translate(794.67 .06923)">
                    <g transform="translate(-198.36 .17569)">
                     <g transform="translate(-530.68 .043413)">
                      <g transform="translate(912.04 -.041317)">
                       <g transform="translate(132.58 -.39794)">
                        <g transform="translate(-580.62 .35866)">
                         <g transform="translate(-264.6 -.1571)">
                          <g transform="translate(463.55 .097138)">
                           <rect x="242.47" y="-317.37" width="52.917" height="52.917" fill="#ffec8e" stroke="#000" stroke-linecap="round" stroke-width=".5" style="paint-order:fill markers stroke"/>
                           <text x="268.73865" y="-267.9476" fill="#000000" font-family="sans-serif" font-size="6.35px" letter-spacing="0px" stroke-width=".26458" text-align="center" text-anchor="middle" word-spacing="0px" style="line-height:1.25" xml:space="preserve"><tspan x="268.73865" y="-267.9476" fill="#000000" font-family="sans-serif" class="svgT" letter-spacing=".5px" font-size="5.2px" stroke-width=".26458" text-align="center" text-anchor="middle">Pola tekstowe ms</tspan></text>
                           <g transform="matrix(.32559 0 0 .32559 252.65 -310.76)">
                            <path d="m13.764 70.322h17.09c.802 0 1.451-.65 1.451-1.451 0-.802-.65-1.451-1.451-1.451h-17.09c-1.623-.001-3.079-.654-4.144-1.716-1.063-1.065-1.716-2.521-1.716-4.144v-23.119c.001-1.623.654-3.079 1.716-4.144 1.065-1.063 2.521-1.716 4.144-1.716h17.09c.802 0 1.451-.65 1.451-1.451 0-.802-.65-1.451-1.451-1.451h-17.09c-4.841 0-8.763 3.922-8.764 8.762v23.118c.001 4.84 3.923 8.762 8.764 8.763z"/>
                            <path d="m90.38 65.703c-1.065 1.063-2.521 1.716-4.144 1.716h-30.88c-.802 0-1.452.65-1.452 1.452s.65 1.452 1.452 1.452h30.88c4.84-.001 8.762-3.923 8.763-8.763v-23.119c-.001-4.841-3.923-8.763-8.763-8.763h-30.88c-.802 0-1.452.65-1.452 1.452s.65 1.452 1.452 1.452h30.88c1.623.001 3.079.654 4.144 1.716 1.063 1.065 1.716 2.521 1.716 4.144v23.118c0 1.622-.653 3.078-1.716 4.143z"/>
                            <path d="m25.047 57.544c.802 0 1.452-.65 1.452-1.452v-10.161h4.355c.802 0 1.452-.65 1.452-1.452s-.65-1.452-1.452-1.452h-11.613c-.802 0-1.452.65-1.452 1.452s.65 1.452 1.452 1.452h4.355v10.161c0 .802.649 1.452 1.451 1.452z"/>
                            <path d="m48.234 7.904c.802 0 1.452-.65 1.452-1.452-.001-.802-.651-1.452-1.452-1.452h-10.161c-.802 0-1.452.65-1.452 1.452s.65 1.452 1.452 1.452h3.629v84.193h-3.629c-.802 0-1.452.65-1.452 1.452s.65 1.452 1.452 1.452h10.161c.802 0 1.452-.65 1.452-1.452s-.65-1.452-1.452-1.452h-3.629v-84.193z"/>
                           </g>
                          </g>
                         </g>
                        </g>
                       </g>
                      </g>
                     </g>
                    </g>
                   </g>
                  </g>
                 </g>
                </g>
               </g>
              </g>
             </g>
            </g>
           </g>
          </g>
         </g>
        </g>
       </g>
      </g>
     </g>
    </g>
   </g>
  </g>
 </g>
</svg>
