<?xml version="1.0" encoding="UTF-8" standalone="no"?>
<svg
   xmlns:dc="http://purl.org/dc/elements/1.1/"
   xmlns:cc="http://creativecommons.org/ns#"
   xmlns:rdf="http://www.w3.org/1999/02/22-rdf-syntax-ns#"
   xmlns:svg="http://www.w3.org/2000/svg"
   xmlns="http://www.w3.org/2000/svg"
   id="svg47"
   version="1.1"
   viewBox="0 0 52.758294 52.758296"
   height="199.40143"
   width="199.40143">
  <defs
     id="defs42">
    <pattern
       id="EMFhbasepattern"
       patternUnits="userSpaceOnUse"
       width="6"
       height="6"
       x="0"
       y="0" />
  </defs>
  <metadata
     id="metadata45">
    <rdf:RDF>
      <cc:Work
         rdf:about="">
        <dc:format>image/svg+xml</dc:format>
        <dc:type
           rdf:resource="http://purl.org/dc/dcmitype/StillImage" />
        <dc:title></dc:title>
      </cc:Work>
    </rdf:RDF>
  </metadata>
  <g
     id="g8556"
     transform="translate(49.836509,-375.23204)">
    <g
       id="g5305">
      <g
         id="g9095"
         transform="translate(-403.99434,-53.353069)">
        <rect
           height="52.258293"
           y="429.0961"
           x="354.58148"
           width="52.258293"
           id="rect833-1-5-3-7-4-8-5-1-4-2-3"
           style="fill:#c4c4c4;fill-opacity:1;stroke:#000000;stroke-width:0.49999899;stroke-linecap:round;stroke-miterlimit:4;stroke-dasharray:none;stroke-opacity:1;paint-order:fill markers stroke" />
        <text
           id="text898-7-3-6-8-3-3-0-66-7-8-2"
           y="472.67801"
           x="380.58783"
           style="font-size:6.3499999px;line-height:0.94999999;font-family:voestalpine;-inkscape-font-specification:voestalpine;text-align:center;letter-spacing:0px;word-spacing:0px;text-anchor:middle;fill:#ffffff;fill-opacity:1;stroke-width:0.26458299"
           xml:space="preserve"><tspan
             style="font-size:6.3499999px;text-align:center;text-anchor:middle;fill:#ffffff;fill-opacity:1;stroke-width:0.26458299"
             y="472.67801"
             x="380.58783"
             id="tspan1580-8">Powtórz nagłówki</tspan><tspan
             style="font-size:6.3499999px;text-align:center;text-anchor:middle;fill:#ffffff;fill-opacity:1;stroke-width:0.26458299"
             y="478.71051"
             x="380.58783"
             id="tspan1634-9">tabeli</tspan></text>
        <g
           style="fill:#ffffff;fill-opacity:1"
           id="g5776">
          <path
             d="m 397.84094,434.58232 h -7.78672 -0.71927 -8.26488 -0.71929 -8.26528 -0.71929 -7.7863 c -0.66145,0 -1.19787,0.5364 -1.19787,1.19785 v 5.07288 0.7193 5.55146 0.71928 5.55188 0.71887 5.0729 c 0,0.66185 0.53642,1.19785 1.19787,1.19785 h 7.7867 0.71929 8.26528 0.71929 8.26528 0.71929 7.7863 c 0.66145,0 1.19787,-0.536 1.19787,-1.19785 v -5.0733 -0.71889 -5.55146 -0.71928 -5.55146 -0.7193 -5.07288 c -2.6e-4,-0.66145 -0.53682,-1.19785 -1.19827,-1.19785 z m -17.49016,6.99003 v 5.55146 h -8.26528 v -5.55146 z m -8.26528,-0.7193 v -5.55146 h 8.26528 v 5.55146 z m 8.26528,6.99004 v 5.55188 h -8.26528 v -5.55188 z m 0,6.27035 v 5.55187 h -8.26528 v -5.55187 z m 8.98457,-6.27035 v 5.55188 h -8.26528 v -5.55188 z m -8.26528,-0.71928 v -5.55146 h 8.26528 v 5.55146 z m 8.26528,6.98963 v 5.55187 h -8.26528 v -5.55187 z m 0,-13.26039 h -8.26528 v -5.55146 h 8.26528 z m -26.23442,-5.07288 c 0,-0.26353 0.21382,-0.47735 0.47735,-0.47858 h 7.78833 v 5.55146 h -8.26568 z m 0,5.79218 h 8.26568 v 5.55146 h -8.26568 z m 0,6.27074 h 8.26568 v 5.55188 h -8.26568 z m 0,11.34324 v -5.07289 h 8.26568 v 5.55187 h -7.78833 c -0.26353,-10e-4 -0.47735,-0.21506 -0.47735,-0.47898 z m 35.21859,0 c 0,0.26351 -0.21344,0.47776 -0.47736,0.47898 h -7.78794 v -5.55187 h 8.2653 z m 0,-5.79136 h -8.2653 v -5.55188 h 8.2653 z m 0,-6.27116 h -8.2653 v -5.55146 h 8.2653 z m 0,-6.27076 h -8.2653 v -5.55146 h 7.78794 c 0.26352,0.001 0.47736,0.21505 0.47736,0.47858 z"
             id="path1492-9-6-4-6-9-2"
             style="fill:#ffffff;fill-opacity:1;stroke-width:0.40729699" />
          <path
             d="m 369.41664,436.65536 h -4.80651 c -0.19835,0 -0.35964,0.16129 -0.35964,0.35963 v 2.36437 c 0,0.19835 0.16129,0.35964 0.35964,0.35964 h 4.80651 c 0.19836,0 0.35965,-0.16129 0.35965,-0.35964 v -2.36437 c 0,-0.19875 -0.16129,-0.35963 -0.35965,-0.35963 z"
             id="path1502-9-5-5-3-8-8"
             style="fill:#ffffff;fill-opacity:1;stroke-width:0.40729699" />
          <path
             style="fill:#ffffff;fill-opacity:1;stroke-width:0.40729699"
             id="path1502-9-5-5-3-8-5-9"
             d="m 378.4113,436.65536 h -4.80651 c -0.19835,0 -0.35964,0.16129 -0.35964,0.35963 v 2.36437 c 0,0.19835 0.16129,0.35964 0.35964,0.35964 h 4.80651 c 0.19836,0 0.35965,-0.16129 0.35965,-0.35964 v -2.36437 c 0,-0.19875 -0.16129,-0.35963 -0.35965,-0.35963 z" />
          <path
             style="fill:#ffffff;fill-opacity:1;stroke-width:0.40729699"
             id="path1502-9-5-5-3-8-2-4"
             d="m 387.40595,436.65536 h -4.80651 c -0.19835,0 -0.35964,0.16129 -0.35964,0.35963 v 2.36437 c 0,0.19835 0.16129,0.35964 0.35964,0.35964 h 4.80651 c 0.19836,0 0.35965,-0.16129 0.35965,-0.35964 v -2.36437 c 0,-0.19875 -0.16129,-0.35963 -0.35965,-0.35963 z" />
          <path
             style="fill:#ffffff;fill-opacity:1;stroke-width:0.40729699"
             id="path1502-9-5-5-3-8-6-4"
             d="m 396.40065,436.65536 h -4.80651 c -0.19835,0 -0.35964,0.16129 -0.35964,0.35963 v 2.36437 c 0,0.19835 0.16129,0.35964 0.35964,0.35964 h 4.80651 c 0.19836,0 0.35965,-0.16129 0.35965,-0.35964 v -2.36437 c 0,-0.19875 -0.16129,-0.35963 -0.35965,-0.35963 z" />
        </g>
      </g>
    </g>
  </g>
</svg>
