<svg id="SVGRoot" width="206px" height="206px" version="1.1" viewBox="0 0 206 206" xmlns="http://www.w3.org/2000/svg">
 <g transform="matrix(3.7795 0 0 3.7795 -1795.2 2502.6)">
  <flowRoot fill="black" font-family="sans-serif" font-size="40px" letter-spacing="0px" word-spacing="0px" style="line-height:1.25" xml:space="preserve"><flowRegion><rect x="-392.69" y="-63.57" width="758.02" height="397.52"/></flowRegion><flowPara/></flowRoot>
  <flowRoot fill="black" font-family="sans-serif" font-size="40px" letter-spacing="0px" word-spacing="0px" style="line-height:1.25" xml:space="preserve"><flowRegion><rect x="-251.87" y="-84.492" width="624.44" height="455.45"/></flowRegion><flowPara/></flowRoot>
  <flowRoot fill="black" font-family="sans-serif" font-size="40px" letter-spacing="0px" word-spacing="0px" style="line-height:1.25" xml:space="preserve"><flowRegion><rect x="-202.78" y="-50.695" width="473.96" height="281.64"/></flowRegion><flowPara/></flowRoot>
  <flowRoot fill="black" font-family="sans-serif" font-size="40px" letter-spacing="0px" word-spacing="0px" style="line-height:1.25" xml:space="preserve"><flowRegion><rect x="-86.906" y="-78.859" width="516.61" height="410.39"/></flowRegion><flowPara/></flowRoot>
  <flowRoot fill="black" font-family="sans-serif" font-size="40px" letter-spacing="0px" word-spacing="0px" style="line-height:1.25" xml:space="preserve"><flowRegion><rect x="-81.273" y="-32.188" width="309" height="322.68"/></flowRegion><flowPara/></flowRoot>
  <flowRoot fill="black" font-family="sans-serif" font-size="40px" letter-spacing="0px" word-spacing="0px" style="line-height:1.25" xml:space="preserve"><flowRegion><rect x="-90.93" y="-68.398" width="392.69" height="252.67"/></flowRegion><flowPara/></flowRoot>
  <g transform="translate(675.17 -.21291)">
   <flowRoot fill="black" font-family="sans-serif" font-size="40px" letter-spacing="0px" word-spacing="0px" style="line-height:1.25" xml:space="preserve"><flowRegion><rect x="-100.59" y="-53.109" width="462.7" height="369.35"/></flowRegion><flowPara/></flowRoot>
   <g transform="translate(57.194 .21291)">
    <flowRoot fill="black" font-family="sans-serif" font-size="40px" letter-spacing="0px" word-spacing="0px" style="line-height:1.25" xml:space="preserve"><flowRegion><rect x="-329.12" y="-12.07" width="696.05" height="259.91"/></flowRegion><flowPara/></flowRoot>
    <g transform="translate(-1495.1 -629.38)">
     <flowRoot fill="black" font-family="sans-serif" font-size="40px" letter-spacing="0px" word-spacing="0px" style="line-height:1.25" xml:space="preserve"><flowRegion><rect x="-306.59" y="-111.05" width="206" height="51.5"/></flowRegion><flowPara/></flowRoot>
     <flowRoot fill="black" font-family="sans-serif" font-size="40px" letter-spacing="0px" word-spacing="0px" style="line-height:1.25" xml:space="preserve"><flowRegion><rect x="-70.812" y="-36.211" width="362.91" height="283.25"/></flowRegion><flowPara/></flowRoot>
     <g transform="translate(884.73 -401.39)">
      <rect x="354.58" y="369.54" width="52.258" height="52.258" fill="#fff" stroke="#000" stroke-linecap="round" stroke-width=".5" style="paint-order:fill markers stroke"/>
      <text x="380.58783" y="412.79776" font-family="sans-serif" class="svgT" letter-spacing=".5px" font-size="5.2px" stroke-width=".26458" text-align="center" text-anchor="middle" word-spacing="0px" style="line-height:0.94999999" xml:space="preserve"><tspan x="380.58783" y="412.79776" text-align="center">Powtórz nagłówki</tspan><tspan x="380.58783" y="418.83026" text-align="center">tabeli</tspan></text>
      <g stroke-width=".4073">
       <path d="m397.84 375.03h-34.261c-.66145 0-1.1979.5364-1.1979 1.1978v23.407c0 .66185.53642 1.1978 1.1979 1.1978h34.261c.66145 0 1.1979-.536 1.1979-1.1978v-23.407c-.00032-.66145-.53682-1.1978-1.1983-1.1978zm-17.49 6.99v5.5515h-8.2653v-5.5515zm-8.2653-.7193v-5.5515h8.2653v5.5515zm8.2653 6.99v5.5519h-8.2653v-5.5519zm0 6.2704v5.5519h-8.2653v-5.5519zm8.9846-6.2704v5.5519h-8.2653v-5.5519zm-8.2653-.71928v-5.5515h8.2653v5.5515zm8.2653 6.9896v5.5519h-8.2653v-5.5519zm0-13.26h-8.2653v-5.5515h8.2653zm-26.234-5.0729c0-.26353.21382-.47735.47735-.47858h7.7883v5.5515h-8.2657zm0 5.7922h8.2657v5.5515h-8.2657zm0 6.2707h8.2657v5.5519h-8.2657zm0 11.343v-5.0729h8.2657v5.5519h-7.7883c-.26353-.001-.47735-.21506-.47735-.47898zm35.219 0c0 .26351-.21344.47776-.47736.47898h-7.7879v-5.5519h8.2653zm0-5.7914h-8.2653v-5.5519h8.2653zm0-6.2712h-8.2653v-5.5515h8.2653zm0-6.2708h-8.2653v-5.5515h7.7879c.26352.001.47736.21505.47736.47858z"/>
       <path d="m369.42 377.1h-4.8065c-.19835 0-.35964.16129-.35964.35963v2.3644c0 .19835.16129.35964.35964.35964h4.8065c.19836 0 .35965-.16129.35965-.35964v-2.3644c0-.19875-.16129-.35963-.35965-.35963z"/>
       <path d="m378.41 377.1h-4.8065c-.19835 0-.35964.16129-.35964.35963v2.3644c0 .19835.16129.35964.35964.35964h4.8065c.19836 0 .35965-.16129.35965-.35964v-2.3644c0-.19875-.16129-.35963-.35965-.35963z"/>
       <path d="m387.41 377.1h-4.8065c-.19835 0-.35964.16129-.35964.35963v2.3644c0 .19835.16129.35964.35964.35964h4.8065c.19836 0 .35965-.16129.35965-.35964v-2.3644c0-.19875-.16129-.35963-.35965-.35963z"/>
       <path d="m396.4 377.1h-4.8065c-.19835 0-.35964.16129-.35964.35963v2.3644c0 .19835.16129.35964.35964.35964h4.8065c.19836 0 .35965-.16129.35965-.35964v-2.3644c0-.19875-.16129-.35963-.35965-.35963z"/>
      </g>
     </g>
    </g>
   </g>
  </g>
 </g>
</svg>
