<svg id="SVGRoot" width="206px" height="206px" version="1.1" viewBox="0 0 206 206" xmlns="http://www.w3.org/2000/svg">
 <g transform="matrix(3.7795 0 0 3.7795 -1795.2 2502.6)">
  <flowRoot fill="black" font-family="sans-serif" font-size="40px" letter-spacing="0px" word-spacing="0px" style="line-height:1.25" xml:space="preserve"><flowRegion><rect x="-392.69" y="-63.57" width="758.02" height="397.52"/></flowRegion><flowPara/></flowRoot>
  <flowRoot fill="black" font-family="sans-serif" font-size="40px" letter-spacing="0px" word-spacing="0px" style="line-height:1.25" xml:space="preserve"><flowRegion><rect x="-251.87" y="-84.492" width="624.44" height="455.45"/></flowRegion><flowPara/></flowRoot>
  <flowRoot fill="black" font-family="sans-serif" font-size="40px" letter-spacing="0px" word-spacing="0px" style="line-height:1.25" xml:space="preserve"><flowRegion><rect x="-202.78" y="-50.695" width="473.96" height="281.64"/></flowRegion><flowPara/></flowRoot>
  <flowRoot fill="black" font-family="sans-serif" font-size="40px" letter-spacing="0px" word-spacing="0px" style="line-height:1.25" xml:space="preserve"><flowRegion><rect x="-86.906" y="-78.859" width="516.61" height="410.39"/></flowRegion><flowPara/></flowRoot>
  <flowRoot fill="black" font-family="sans-serif" font-size="40px" letter-spacing="0px" word-spacing="0px" style="line-height:1.25" xml:space="preserve"><flowRegion><rect x="-81.273" y="-32.188" width="309" height="322.68"/></flowRegion><flowPara/></flowRoot>
  <flowRoot fill="black" font-family="sans-serif" font-size="40px" letter-spacing="0px" word-spacing="0px" style="line-height:1.25" xml:space="preserve"><flowRegion><rect x="-90.93" y="-68.398" width="392.69" height="252.67"/></flowRegion><flowPara/></flowRoot>
  <g transform="translate(675.17 -.21291)">
   <flowRoot fill="black" font-family="sans-serif" font-size="40px" letter-spacing="0px" word-spacing="0px" style="line-height:1.25" xml:space="preserve"><flowRegion><rect x="-100.59" y="-53.109" width="462.7" height="369.35"/></flowRegion><flowPara/></flowRoot>
   <g transform="translate(57.194 .21291)">
    <flowRoot fill="black" font-family="sans-serif" font-size="40px" letter-spacing="0px" word-spacing="0px" style="line-height:1.25" xml:space="preserve"><flowRegion><rect x="-329.12" y="-12.07" width="696.05" height="259.91"/></flowRegion><flowPara/></flowRoot>
    <g transform="translate(-1495.1 -629.38)">
     <g transform="translate(1328.7 .21292)">
      <rect x="-89.986" y="-31.75" width="52.917" height="52.917" fill="#db3b3b" stroke="#000" stroke-linecap="round" stroke-width=".5" style="paint-order:fill markers stroke"/>
      <text x="-63.730125" y="8.3702087" fill="#ffffff" font-family="sans-serif" font-size="4.9389px" letter-spacing="0px" stroke-width=".26458" text-anchor="middle" word-spacing="0px" style="line-height:1.25" xml:space="preserve"><tspan x="-63.730125" y="8.3702087" text-align="center">Przeznaczone</tspan><tspan x="-63.730125" y="16.307709" text-align="center">użytkowanie</tspan></text>
      <g transform="matrix(.45475 0 0 .45475 -78.308 -28.348)" fill="#fff">
       <g fill="#fff" data-name="17-Vote yes">
        <path d="m40 46a.987.987 0 01-.383-.076 1 1 0 01-.617-.924v-5h-10v-2h11a1 1 0 011 1v3.586l4.293-4.293a1 1 0 01.707-.293h14.586l1.414-1.414v-33.172l-1.414-1.414h-41.172l-1.414 1.414v33.172l1.414 1.414h1.586v2h-2a1 1 0 01-.707-.293l-2-2a1 1 0 01-.293-.707v-34a1 1 0 01.293-.707l2-2a1 1 0 01.707-.293h42a1 1 0 01.707.293l2 2a1 1 0 01.293.707v34a1 1 0 01-.293.707l-2 2a1 1 0 01-.707.293h-14.586l-5.707 5.707a1 1 0 01-.707.293z"/>
        <path d="m37 30a1 1 0 01-.707-.293l-8-8a1 1 0 010-1.414l4-4a1 1 0 011.414 0l3.293 3.293 9.293-9.293a1 1 0 011.414 0l4 4a1 1 0 010 1.414l-14 14a1 1 0 01-.707.293zm-6.586-9 6.586 6.586 12.586-12.586-2.586-2.586-9.293 9.293a1 1 0 01-1.414 0l-3.293-3.293z"/>
        <path d="m35 52h-9v-2h9a1 1 0 000-2h-6a1 1 0 01-.707-.293l-2-2a1 1 0 01-.293-.707v-3a2.686 2.686 0 00-2-2.846v2.846a1 1 0 01-.293.707l-4 4a1 1 0 01-.707.293h-3v-2h2.586l3.414-3.414v-3.586a1 1 0 011-1 4.821 4.821 0 015 5v2.586l1.414 1.414h5.586a3 3 0 010 6z"/>
        <path d="m37 56h-11v-2h11a1 1 0 000-2h-11v-2h11a3 3 0 010 6z"/>
        <path d="m35 60h-9v-2h9a1 1 0 000-2h-9v-2h9a3 3 0 010 6z"/>
        <path d="m33 64h-11a1.006 1.006 0 01-.555-.168l-2.745-1.832h-2.7v-2h3a1.006 1.006 0 01.555.168l2.745 1.832h10.7a1 1 0 000-2h-7v-2h7a3 3 0 010 6z"/>
        <path d="m16 64h-6a1 1 0 01-1-1v-12h2v11h4v-17h-4v4h-2v-5a1 1 0 011-1h6a1 1 0 011 1v19a1 1 0 01-1 1z"/>
        <rect x="1" y="45" width="9" height="2"/>
        <rect x="1" y="60" width="9" height="2"/>
       </g>
      </g>
     </g>
    </g>
   </g>
  </g>
 </g>
</svg>
