<svg id="SVGRoot" width="208" height="208" version="1.1" viewBox="0 0 208 208" xmlns="http://www.w3.org/2000/svg">
 <g transform="translate(0,7)">
  <g transform="matrix(3.7795 0 0 3.7795 10.171 -6.7758)">
   <g transform="translate(-1.0884 -121.69)">
    <g transform="translate(1.6608 -59.209)">
     <g transform="translate(-.6443 -59.335)">
      <g transform="translate(-1396.8 269.89)">
       <g transform="translate(-57.972 -.024822)">
        <g transform="translate(1658.1 73.867)">
         <g transform="translate(-203.03 -103.33)">
          <flowRoot transform="matrix(.26458 0 0 .26458 -2.875 1.091)" fill="#000000" font-family="sans-serif" font-size="40px" letter-spacing="0px" word-spacing="0px" style="line-height:1.25" xml:space="preserve"><flowRegion><rect x="-85.582" y="-60.812" width="342.33" height="293.65"/></flowRegion><flowPara/></flowRoot>
          <g transform="translate(-1039.4 318.88)">
           <flowRoot transform="matrix(.26458 0 0 .26458 1036.5 -317.79)" fill="#000000" font-family="sans-serif" font-size="40px" letter-spacing="0px" word-spacing="0px" style="line-height:1.25" xml:space="preserve"><flowRegion><rect x="-105.21" y="-13.703" width="562.17" height="513.49"/></flowRegion><flowPara/></flowRoot>
           <g transform="translate(-66.134 .039287)">
            <g transform="translate(-66.173 .043409)">
             <flowRoot transform="matrix(.26458 0 0 .26458 1168.8 -317.87)" fill="#000000" font-family="sans-serif" font-size="40px" letter-spacing="0px" word-spacing="0px" style="line-height:1.25" xml:space="preserve"><flowRegion><rect x="-114.63" y="-91.434" width="675.23" height="522.91"/></flowRegion><flowPara/></flowRoot>
             <g transform="translate(-66.2 -.040316)">
              <g transform="translate(-65.918 -.60254)">
               <g transform="translate(-66.6 .14883)">
                <flowRoot fill="black" font-family="sans-serif" font-size="40px" letter-spacing="0px" word-spacing="0px" style="line-height:1.25" xml:space="preserve"><flowRegion><rect x="-24.34" y="-19.695" width="252.04" height="245.75"/></flowRegion><flowPara/></flowRoot>
                <g transform="translate(-68.678 -.48293)">
                 <flowRoot fill="black" font-family="sans-serif" font-size="40px" letter-spacing="0px" word-spacing="0px" style="line-height:1.25" xml:space="preserve"><flowRegion><rect x="-65.168" y="-26.762" width="382.37" height="335.26"/></flowRegion><flowPara/></flowRoot>
                 <g transform="translate(-63.347 .4912)">
                  <g transform="translate(529.82 -.18087)">
                   <g transform="translate(794.67 .06923)">
                    <g transform="translate(-198.36 .17569)">
                     <g transform="translate(-530.68 .043413)">
                      <g transform="translate(912.04 -.041317)">
                       <g transform="translate(132.58 -.39794)">
                        <g transform="translate(-580.62 .35866)">
                         <g transform="translate(-264.6 -.1571)">
                          <g transform="translate(463.55 .097138)">
                           <g transform="translate(-397.36 .059959)">
                            <g transform="translate(66.026 -.30592)">
                             <g transform="translate(-264.69 -.093008)">
                              <g transform="translate(734.89 179.33)">
                               <g transform="translate(-205.07 -178.97)">
                                <g transform="translate(-1081.1 -686.85)">
                                 <flowRoot fill="black" font-family="sans-serif" font-size="40px" letter-spacing="0px" word-spacing="0px" style="line-height:1.25" xml:space="preserve"><flowRegion><rect x="21" y="-71" width="223" height="308"/></flowRegion><flowPara/></flowRoot>
                                 <g transform="translate(-112.28 .55746)">
                                  <g transform="translate(-396.77 -.26462)">
                                   <g transform="translate(167.68 .26462)">
                                    <g transform="translate(457.35 -.55746)">
                                     <g transform="translate(-285.78 .028294)">
                                      <rect x="1559.9" y="369.25" width="52.258" height="52.258" fill="#fff" stroke="#000" stroke-linecap="round" stroke-width=".5" style="paint-order:fill markers stroke"/>
                                      <g transform="translate(1619.4 134.73)">
                                       <g stroke="#000">
                                        <g fill="#008900" stroke-width=".34962px">
                                         <path d="m-47.381 241.94 3.7977 4.1596-1.1755 3.1692h-5.38z"/>
                                         <path d="m-49.809 254.08 5.6266.2559 1.4098 3.0721-3.8043 3.8043z"/>
                                         <path d="m-43.375 264.65 4.1596-3.7977 3.1692 1.1755v5.38z"/>
                                         <path d="m-31.842 267.47.49298-5.6108 3.1289-1.2789 3.6404 3.9613z"/>
                                         <path d="m-21.3 261.28-3.3552-4.524 1.4915-3.0333 5.3522.54686z"/>
                                         <path d="m-17.499 249.34-5.6324-.006-1.5449-3.0065 3.6315-3.9695z"/>
                                        </g>
                                        <path d="m-34.361 242.12-2.7728 4.4741-1.6791 3.2983.23988 3.2383 1.5592 2.039 4.7975.11994 2.039-1.919 1.474-2.6569-2.7933-5.379z" fill="#fff" stroke-width=".26458px"/>
                                       </g>
                                       <g transform="matrix(.35807 0 0 .35807 -51.819 236.39)">
                                        <path d="m28.3 55.8c-1.9-2.8-3.2-5.9-3.9-9.3-.2-.9-1-1.6-1.9-1.6h-18c-1.2 0-2.1 1-1.9 2.1 1.1 9 4.6 17.2 9.9 23.9.4.5.9.7 1.5.7.5 0 1-.2 1.4-.6l12.8-12.8c.6-.6.6-1.6.1-2.4zm-14 9c-3-4.5-5-9.5-6.1-14.8h11.8c.6 2.2 1.5 4.4 2.6 6.4z"/>
                                        <path d="m4.5 37.9h18.1c.9 0 1.7-.7 1.9-1.6.7-3.4 2-6.5 3.9-9.3.5-.8.5-1.8-.2-2.5l-12.9-12.8c-.4-.4-.9-.6-1.4-.6-.6 0-1.1.2-1.5.7-5.3 6.7-8.8 14.9-9.9 23.9-.1 1.2.8 2.2 2 2.2zm9.8-19.9 8.4 8.4c-1.1 2-2 4.2-2.6 6.4h-11.9c1.1-5.3 3.2-10.3 6.1-14.8z"/>
                                        <path d="m95.5 44.9h-18.1c-.9 0-1.7.7-1.9 1.6-.7 3.4-2 6.5-3.9 9.3-.5.8-.5 1.8.2 2.5l12.8 12.8c.4.4.9.6 1.4.6.6 0 1.1-.2 1.5-.7 5.3-6.7 8.8-14.9 9.9-23.9.2-1.2-.7-2.2-1.9-2.2zm-9.8 19.9-8.4-8.4c1.1-2 2-4.2 2.6-6.4h11.8c-1 5.3-3.1 10.3-6 14.8z"/>
                                        <path d="m44.9 66.9c-3.4-.7-6.5-2-9.3-3.9-.3-.2-.7-.3-1.1-.3-.5 0-1 .2-1.3.6l-12.9 12.8c-.8.8-.8 2.2.1 2.9 6.7 5.3 14.9 8.8 23.9 9.9h.2c1.1 0 1.9-.9 1.9-2v-18.1c.1-.9-.6-1.7-1.5-1.9zm-3.6 16.3c-5.3-1.1-10.3-3.2-14.8-6.1l8.4-8.4c2 1.1 4.2 2 6.4 2.6z"/>
                                        <path d="m75.5 36.3c.2.9 1 1.6 1.9 1.6h18.1c1.2 0 2.1-1 1.9-2.1-1.1-9-4.6-17.2-9.9-23.9-.4-.5-.9-.7-1.5-.7-.5 0-1 .2-1.4.6l-12.7 12.7c-.7.7-.7 1.7-.2 2.5 1.8 2.7 3.2 5.9 3.8 9.3zm10.2-18.3c3 4.5 5 9.5 6.1 14.8h-11.8c-.6-2.2-1.5-4.4-2.6-6.4z"/>
                                        <path d="m66.9 63.3c-.4-.4-.8-.6-1.3-.6-.4 0-.8.1-1.1.3-2.8 1.8-5.9 3.2-9.3 3.9-.9.2-1.6.9-1.6 1.9v18.1c0 1.1.9 2 1.9 2h.2c9-1.1 17.2-4.6 23.9-9.9.9-.7 1-2.1.1-2.9zm-8.2 19.9v-11.8c2.2-.6 4.4-1.5 6.4-2.6l8.4 8.4c-4.6 2.8-9.6 4.9-14.8 6z"/>
                                        <path d="m65.8 41.3c0-6.9-9-22.5-11.9-27.1-.8-1.4-2.3-2.2-3.9-2.2s-3.1.9-3.9 2.2c-2.8 4.6-11.9 20.2-11.9 27.1 0 8.7 7.1 15.7 15.8 15.7s15.8-7 15.8-15.7zm-15.8 10.8c-6 0-10.8-4.8-10.8-10.8 0-5.1 8-19.1 10.4-23.3l.4-.7.3.7c2.5 4.2 10.4 18.2 10.4 23.3.1 5.9-4.8 10.8-10.7 10.8z"/>
                                        <path d="m48.3 32c-.9-.5-2-.3-2.6.6-.2.3-5 8.1-1 14.2.4.5.9.8 1.5.8.4 0 .7-.1 1-.3.8-.6 1.1-1.7.5-2.6-2.7-4.1 1-10.1 1-10.1.8-1 .5-2.1-.4-2.6z"/>
                                       </g>
                                      </g>
                                      <text x="1586.3579" y="411.90234" font-family="voestalpine" class="svgT" letter-spacing=".5px" font-size="5.2px" stroke-width=".26458" text-align="center" text-anchor="middle" word-spacing="0px" style="line-height:0.94999999" xml:space="preserve"><tspan x="1586.3579" y="411.90234" text-align="center">Przywróć biały</tspan><tspan x="1586.3579" y="417.93484" font-family="sans-serif" text-align="center">kolor tła stylów</tspan></text>
                                     </g>
                                    </g>
                                   </g>
                                  </g>
                                 </g>
                                </g>
                               </g>
                              </g>
                             </g>
                            </g>
                           </g>
                          </g>
                         </g>
                        </g>
                       </g>
                      </g>
                     </g>
                    </g>
                   </g>
                  </g>
                 </g>
                </g>
               </g>
              </g>
             </g>
            </g>
           </g>
          </g>
         </g>
        </g>
       </g>
      </g>
     </g>
    </g>
   </g>
  </g>
 </g>
</svg>
