<?xml version="1.0" encoding="UTF-8" standalone="no"?>
<svg
   xmlns:dc="http://purl.org/dc/elements/1.1/"
   xmlns:cc="http://creativecommons.org/ns#"
   xmlns:rdf="http://www.w3.org/1999/02/22-rdf-syntax-ns#"
   xmlns:svg="http://www.w3.org/2000/svg"
   xmlns="http://www.w3.org/2000/svg"
   id="svg47"
   version="1.1"
   viewBox="0 0 52.758294 52.758296"
   height="199.40143"
   width="199.40143">
  <defs
     id="defs42">
    <pattern
       id="EMFhbasepattern"
       patternUnits="userSpaceOnUse"
       width="6"
       height="6"
       x="0"
       y="0" />
  </defs>
  <metadata
     id="metadata45">
    <rdf:RDF>
      <cc:Work
         rdf:about="">
        <dc:format>image/svg+xml</dc:format>
        <dc:type
           rdf:resource="http://purl.org/dc/dcmitype/StillImage" />
        <dc:title></dc:title>
      </cc:Work>
    </rdf:RDF>
  </metadata>
  <g
     id="g8556"
     transform="translate(49.836509,-375.23204)">
    <g
       id="g5305">
      <g
         id="g9882"
         transform="translate(-1209.025,5.9909267)">
        <rect
           style="fill:#ffffff;stroke:#000000;stroke-width:0.49999899;stroke-linecap:round;stroke-miterlimit:4;stroke-dasharray:none;stroke-opacity:1;paint-order:fill markers stroke"
           id="rect833-1-5-3-7-4-8-5-1-4-2-8-1-5-8-6-0-5-58"
           width="52.258293"
           x="1159.4609"
           y="369.54422"
           height="52.258293" />
        <text
           xml:space="preserve"
           style="font-size:6.3499999px;line-height:0.94999999;font-family:voestalpine;-inkscape-font-specification:voestalpine;text-align:center;letter-spacing:0px;word-spacing:0px;text-anchor:middle;stroke-width:0.26458299"
           x="1186.0513"
           y="413.1864"
           id="text898-7-3-6-8-3-3-0-66-7-8-8-0-8-3-4-2-6-22"><tspan
             x="1186.814"
             y="413.1864"
             style="font-size:6.3499999px;text-align:center;text-anchor:middle;stroke-width:0.26458299"
             id="tspan2353-8">Przygotuj </tspan><tspan
             id="tspan2732"
             x="1186.0513"
             y="419.2189"
             style="font-size:6.3499999px;text-align:center;text-anchor:middle;stroke-width:0.26458299">do druku</tspan></text>
        <g
           transform="matrix(0.33956852,0,0,0.33956852,1168.61,371.33308)"
           id="g2756"
           style="fill:#000000">
          <path
             d="M 72.09,8.47 H 27.91 a 5,5 0 0 0 -5,5 v 13.26 h -7.58 a 10,10 0 0 0 -10,10 v 27.64 a 10,10 0 0 0 10,10 h 8.55 v 12.16 a 5,5 0 0 0 5,5 h 42.25 a 5,5 0 0 0 5,-5 V 74.37 h 8.55 a 10,10 0 0 0 10,-10 V 36.73 a 10,10 0 0 0 -10,-10 H 77.09 V 13.47 a 5,5 0 0 0 -5,-5 z m -45.19,5 a 1,1 0 0 1 1,-1 h 44.19 a 1,1 0 0 1 1,1 V 26.73 H 26.91 Z m 45.23,73.06 a 1,1 0 0 1 -1,1 H 28.87 a 1,1 0 0 1 -1,-1 v -28.1 h 44.26 z m 18.55,-49.8 v 27.64 a 6,6 0 0 1 -6,6 H 76.13 V 56.43 a 2,2 0 0 0 -2,-2 H 25.87 a 2,2 0 0 0 -2,2 v 13.94 h -8.54 a 6,6 0 0 1 -6,-6 V 36.73 a 6,6 0 0 1 6,-6 h 69.35 a 6,6 0 0 1 6,6 z"
             id="path2736" />
          <path
             d="m 72.09,42.5 a 6.84,6.84 0 1 0 6.84,-6.84 6.85,6.85 0 0 0 -6.84,6.84 z m 6.84,-2.84 a 2.84,2.84 0 1 1 -2.84,2.84 2.84,2.84 0 0 1 2.84,-2.84 z"
             id="path2738" />
          <path
             d="M 63.83,66 H 36.17 a 2,2 0 0 0 0,4 h 27.66 a 2,2 0 0 0 0,-4 z"
             id="path2740" />
          <path
             d="M 63.83,76 H 36.17 a 2,2 0 0 0 0,4 h 27.66 a 2,2 0 0 0 0,-4 z"
             id="path2742" />
        </g>
      </g>
    </g>
  </g>
</svg>
