<svg id="SVGRoot" width="206px" height="206px" version="1.1" viewBox="0 0 206 206" xmlns="http://www.w3.org/2000/svg">
 <defs>
  <marker id="Arrow1Mend-5-0" overflow="visible" orient="auto">
   <path transform="matrix(-.4 0 0 -.4 -4 0)" d="m0 0 5-5-17.5 5 17.5 5z" fill-rule="evenodd" stroke="#000" stroke-width="1pt"/>
  </marker>
  <marker id="Arrow1Mend-5-3" overflow="visible" orient="auto">
   <path transform="matrix(-.4 0 0 -.4 -4 0)" d="m0 0 5-5-17.5 5 17.5 5z" fill-rule="evenodd" stroke="#000" stroke-width="1pt"/>
  </marker>
 </defs>
 <g transform="matrix(3.7795 0 0 3.7795 -5465.1 -1392.5)">
  <g transform="translate(1174.9 342.76)">
   <rect x="272.28" y="26.6" width="52.632" height="52.632" fill="#b9d4ff" stroke="#000" stroke-linecap="round" stroke-width=".28429" style="paint-order:fill markers stroke"/>
   <text x="298.70023" y="61.594791" font-family="sans-serif" class="svgT" letter-spacing=".5px" font-size="5.2px" stroke-width=".26458" text-align="end" text-anchor="middle" word-spacing="0px" style="line-height:1.04999995" xml:space="preserve"><tspan x="298.70023" y="61.594791" text-align="center">Przywróć</tspan><tspan x="298.70023" y="68.262291" text-align="center">domyślną</tspan><tspan x="298.70023" y="74.929787" text-align="center">interlinię</tspan></text>
   <g transform="translate(-.38082 112.32)" fill="none" stroke="#000" stroke-width="1.765">
    <path d="m278.92-74.599h32.884"/>
    <path d="m278.92-58.048h32.884"/>
   </g>
   <path d="m316.85 45.586v14.306" marker-end="url(#Arrow1Mend-5-0)" stroke="#000" stroke-width="1.3071"/>
   <path d="m316.85 45.586v-14.306" marker-end="url(#Arrow1Mend-5-3)" stroke="#000" stroke-width="1.3071"/>
  </g>
 </g>
</svg>
