<?xml version="1.0" encoding="UTF-8" standalone="no"?>
<svg
   xmlns:dc="http://purl.org/dc/elements/1.1/"
   xmlns:cc="http://creativecommons.org/ns#"
   xmlns:rdf="http://www.w3.org/1999/02/22-rdf-syntax-ns#"
   xmlns:svg="http://www.w3.org/2000/svg"
   xmlns="http://www.w3.org/2000/svg"
   id="svg47"
   version="1.1"
   viewBox="0 0 52.758294 52.758296"
   height="199.40143"
   width="199.40143">
  <defs
     id="defs42">
    <pattern
       id="EMFhbasepattern"
       patternUnits="userSpaceOnUse"
       width="6"
       height="6"
       x="0"
       y="0" />
  </defs>
  <metadata
     id="metadata45">
    <rdf:RDF>
      <cc:Work
         rdf:about="">
        <dc:format>image/svg+xml</dc:format>
        <dc:type
           rdf:resource="http://purl.org/dc/dcmitype/StillImage" />
        <dc:title></dc:title>
      </cc:Work>
    </rdf:RDF>
  </metadata>
  <g
     id="g8556"
     transform="translate(49.836509,-375.23204)">
    <g
       id="g5305">
      <text
         id="text898-7-3-6-8-3-3-0-66-7-8-8-0-8-3-4-2-6-22-3-3-4-7-0-2-6-2"
         y="425.61624"
         x="-23.21401"
         style="font-size:6.3499999px;line-height:0.94999999;font-family:voestalpine;-inkscape-font-specification:voestalpine;text-align:center;letter-spacing:0px;word-spacing:0px;text-anchor:middle;fill:#ffffff;fill-opacity:1;stroke-width:0.26458299"
         xml:space="preserve"><tspan
           style="font-size:6.3499999px;text-align:center;text-anchor:middle;fill:#ffffff;fill-opacity:1;stroke-width:0.26458299"
           y="425.61624"
           x="-23.21401"
           id="tspan3280-8-2-3-8">Pokaż nagłówek</tspan></text>
      <g
         style="fill:#ffffff;fill-opacity:1;stroke:#ffffff;stroke-opacity:1"
         id="g3425-7-6"
         transform="matrix(0.43424404,0,0,-0.43424404,-45.178706,415.78283)">
        <rect
           id="rect3393-7-1"
           height="2"
           width="13.89"
           y="68.667"
           x="17.409"
           style="fill:#ffffff;fill-opacity:1;stroke:#ffffff;stroke-opacity:1" />
        <path
           id="path3395-1-7"
           d="M 85.235,77.833 H 14.106 c -2.998,0 -5.436,-2.438 -5.436,-5.436 V 23.27 c 0,-2.998 2.438,-5.436 5.436,-5.436 h 71.129 c 2.998,0 5.436,2.438 5.436,5.436 v 49.128 c -0.001,2.998 -2.438,5.435 -5.436,5.435 z m -71.129,-58 c -1.895,0 -3.436,1.541 -3.436,3.437 v 49.128 c 0,1.895 1.541,3.436 3.436,3.436 h 71.129 c 1.895,0 3.436,-1.541 3.436,-3.436 V 23.27 c 0,-1.896 -1.541,-3.437 -3.436,-3.437 z"
           style="fill:#ffffff;fill-opacity:1;stroke:#ffffff;stroke-opacity:1" />
        <rect
           id="rect3397-6-6"
           height="2"
           width="13.89"
           y="68.667"
           x="42.648998"
           style="fill:#ffffff;fill-opacity:1;stroke:#ffffff;stroke-opacity:1" />
        <rect
           id="rect3399-8-5"
           height="2"
           width="13.89"
           y="68.667"
           x="67.704002"
           style="fill:#ffffff;fill-opacity:1;stroke:#ffffff;stroke-opacity:1" />
        <rect
           id="rect3401-4-7"
           height="2"
           width="13.89"
           y="62.667"
           x="17.500999"
           style="fill:#ffffff;fill-opacity:1;stroke:#ffffff;stroke-opacity:1" />
        <rect
           id="rect3403-9-4"
           height="2"
           width="13.89"
           y="62.667"
           x="42.742001"
           style="fill:#ffffff;fill-opacity:1;stroke:#ffffff;stroke-opacity:1" />
        <rect
           id="rect3405-2-5"
           height="2"
           width="13.89"
           y="62.667"
           x="67.795998"
           style="fill:#ffffff;fill-opacity:1;stroke:#ffffff;stroke-opacity:1" />
        <rect
           id="rect3407-0-9"
           height="2"
           width="64.139"
           y="56.667"
           x="17.500999"
           style="fill:#ffffff;fill-opacity:1;stroke:#ffffff;stroke-opacity:1" />
      </g>
      <g
         id="g158"
         transform="translate(-48.53592,312.72931)">
        <rect
           style="fill:#0082b4;fill-opacity:1;stroke:#000000;stroke-width:0.49999899;stroke-linecap:round;stroke-miterlimit:4;stroke-dasharray:none;stroke-opacity:1;paint-order:fill markers stroke"
           id="rect833-0"
           width="52.916668"
           height="52.916668"
           x="-1.2627853"
           y="62.646774" />
        <text
           xml:space="preserve"
           style="font-size:6.27179003px;line-height:1.04999995;font-family:voestalpine;-inkscape-font-specification:voestalpine;text-align:center;letter-spacing:0px;word-spacing:0px;text-anchor:middle;stroke-width:0.261323"
           x="24.743071"
           y="115.07741"
           id="text858-5-83-73-7-0-7-0-7-9-81-0-2-2"
           transform="scale(1.0124726,0.98768105)"><tspan
             x="24.743071"
             y="115.07741"
             style="font-size:6.27179003px;text-align:center;text-anchor:middle;fill:#ffffff;fill-opacity:1;stroke-width:0.261323"
             id="tspan901-0">RECENZJA</tspan></text>
        <g
           transform="matrix(0.32901108,0,0,0.32901108,8.4159835,63.490977)"
           id="g989"
           style="fill:#ffffff;fill-opacity:1">
          <path
             id="path975"
             overflow="visible"
             display="inline"
             visibility="visible"
             marker="none"
             d="m 50.822617,6.01165 c -0.126635,0.009 -0.252422,0.0298 -0.37509,0.0625 l -30.007259,8.99881 c -1.006675,0.29436 -1.654614,1.47788 -1.359989,2.48413 0.294623,1.00625 1.478674,1.65377 2.485261,1.35911 l 26.256351,-7.87396 -7.658102,22.2783 -3.750908,-3.7495 c -0.747625,-0.7227 -2.081802,-0.70788 -2.81318,0.0312 -1.116835,1.12364 -2.788577,2.56279 -5.063725,5.03058 -6.06259,6.57734 -8.732986,14.3679 -8.533314,22.4033 -3.26e-4,0.021 -3.26e-4,0.042 0,0.062 0.484719,8.2083 4.013027,14.6605 9.158465,18.9975 5.145438,4.3369 11.823427,6.6242 18.754537,6.9053 0.03125,8e-4 0.06253,8e-4 0.09377,0 14.863604,-0.1193 27.322737,-9.7678 30.288577,-22.9344 0.258057,0.824 0.52079,1.607 0.812697,2.5309 0.338303,1.083 1.720786,1.6955 2.750665,1.2186 0.627553,-0.2936 0.779223,-0.5297 1.094015,-0.8124 0.861214,-0.7457 1.618912,-1.5868 2.344317,-2.3747 -1.490012,8.886 -5.686401,15.7798 -11.596556,20.6223 -7.135601,5.8465 -16.591025,8.8155 -25.693715,8.7488 -0.01042,-1e-4 -0.02083,-1e-4 -0.03126,0 -9.209112,0.091 -17.932131,-4.2674 -24.380898,-10.6548 -6.440253,-6.3787 -10.499453,-14.7474 -10.596313,-22.3403 v -0.031 c 0.0052,-13.65029 3.057487,-19.97909 10.440025,-27.59007 1.737851,-1.79164 3.609296,-3.61928 4.969953,-4.93684 0.752855,-0.73622 0.767745,-2.0908 0.03126,-2.84337 -0.736489,-0.75258 -2.091583,-0.76746 -2.844438,-0.0312 -1.393689,1.34956 -3.258238,3.20143 -5.032467,5.03058 C 12.744114,34.66532 9,42.68329 9,57.00492 c 0.1019765,8.9618 4.698063,18.1654 11.784101,25.1841 7.078916,7.0117 16.75502,11.9042 27.225336,11.811 0.01053,-1e-4 0.02072,10e-5 0.03126,0 9.974163,0.066 20.249257,-3.1454 28.194321,-9.655 7.913748,-6.4841 13.433885,-16.336 13.784585,-29.1211 2.59e-4,-0.063 0,-0.1304 0,-0.1875 0,-0.4146 -0.0832,-0.7016 -0.187546,-0.9061 -0.245526,-0.528 -0.9769,-1.039 -1.500363,-1.1249 -1.046925,-0.1719 -1.20831,0.1539 -1.375332,0.25 -0.334044,0.1921 -0.378035,0.2654 -0.500121,0.3749 -0.244175,0.2189 -0.512918,0.4699 -0.812697,0.7812 -1.305066,1.3846 -2.473336,2.6537 -3.688392,3.937 -0.142626,-0.4269 -0.18653,-0.7517 -0.375091,-1.1874 -0.670414,-1.5491 -1.831102,-3.2401 -3.813423,-4.0307 -1.186399,-0.4805 -2.704226,0.5022 -2.750665,1.781 -0.478446,13.3846 -12.173939,23.9127 -26.91276,24.0906 h -0.125031 c -6.117612,-0.2722 -11.927348,-2.3212 -16.253932,-5.968 -4.342888,-3.6605 -7.280548,-8.9072 -7.720617,-16.0916 -2.63e-4,-0.01 2.51e-4,-0.021 0,-0.031 -6.55e-4,-0.011 6.42e-4,-0.02 0,-0.031 -0.161811,-7.085 2.081134,-13.68165 7.470557,-19.52867 1.538114,-1.66835 2.496732,-2.53869 3.532104,-3.53078 l 4.594862,4.59314 c 0.952614,0.9329 2.82947,0.50406 3.282044,-0.7499 L 52.885619,8.66805 C 53.32758,7.4122 52.149261,5.89524 50.82262,6.01215 Z m 28.97576,0 c -0.503374,0.0521 -0.983385,0.3034 -1.312818,0.68741 -12.160982,14.32986 -24.628379,28.75885 -35.039726,41.02586 -0.22564,0.2453 -0.294068,0.5862 -0.406348,0.8748 l -5.938937,17.7477 c -0.258188,0.7556 -0.0088,1.6574 0.600952,2.1732 0.609745,0.5157 1.540789,0.6123 2.243486,0.2327 l 17.004113,-8.9988 c 0.364859,-0.174 0.674576,-0.4615 0.875212,-0.8124 l 4.719892,-5.6555 c 0.746903,-0.7904 0.66367,-2.2094 -0.170519,-2.9071 -0.83419,-0.6978 -2.246162,-0.5294 -2.892722,0.345 l -3.71965,4.4681 -7.908163,-6.4679 27.756715,-32.46443 7.93942,6.34291 -18.06687,21.09096 c -0.679207,0.80166 -0.567523,2.1488 0.234432,2.82775 0.801954,0.67895 2.149602,0.56731 2.828809,-0.23434 L 92.551462,18.29127 C 93.23987,17.4857 93.119855,16.12105 92.301402,15.4479 L 81.267482,6.44909 C 80.860621,6.11842 80.319932,5.95742 79.798377,6.01165 Z m 0.468863,4.78062 7.876906,6.46789 -1.969226,2.31219 -7.970679,-6.37415 z m -34.289545,41.58825 6.439058,5.2493 -9.939905,5.2493 z"
             style="color:#000000;text-indent:0;text-transform:none;direction:ltr;baseline-shift:baseline;display:inline;overflow:visible;visibility:visible;fill:#ffffff;fill-opacity:1;fill-rule:nonzero;stroke:none;enable-background:accumulate" />
        </g>
      </g>
    </g>
  </g>
</svg>
