<svg id="SVGRoot" width="207" height="205" version="1.1" viewBox="0 0 207 205" xmlns="http://www.w3.org/2000/svg">
 <g transform="translate(0,4)">
  <g transform="matrix(3.7795 0 0 3.7795 9.3157 -237.17)">
   <rect x="-1.2628" y="62.647" width="52.917" height="52.917" fill="#0082b4" stroke="#000" stroke-linecap="round" stroke-width=".5" style="paint-order:fill markers stroke"/>
   <text transform="scale(1.0125 .98768)" x="24.743071" y="113.0261" font-family="sans-serif" class="svgT" letter-spacing=".5px" font-size="5.2px" stroke-width=".26132" text-align="center" text-anchor="middle" word-spacing="0px" style="line-height:1.04999995" xml:space="preserve"><tspan x="24.743071" y="113.0261" fill="#ffffff" font-family="sans-serif" font-size="4.9389px" stroke-width=".26132" text-align="center" text-anchor="middle">RECENZJA</tspan></text>
   <g transform="matrix(.32901 0 0 .32901 8.416 63.491)" fill="#fff">
    <path d="m50.823 6.0116c-.12664.009-.25242.0298-.37509.0625l-30.007 8.9988c-1.0067.29436-1.6546 1.4779-1.36 2.4841.29462 1.0062 1.4787 1.6538 2.4853 1.3591l26.256-7.874-7.6581 22.278-3.7509-3.7495c-.74762-.7227-2.0818-.70788-2.8132.0312-1.1168 1.1236-2.7886 2.5628-5.0637 5.0306-6.0626 6.5773-8.733 14.368-8.5333 22.403-.000326.021-.000326.042 0 .062.48472 8.2083 4.013 14.66 9.1585 18.998 5.1454 4.3369 11.823 6.6242 18.755 6.9053.03125 8e-4.06253 8e-4.09377 0 14.864-.1193 27.323-9.7678 30.289-22.934.25806.824.52079 1.607.8127 2.5309.3383 1.083 1.7208 1.6955 2.7507 1.2186.62755-.2936.77922-.5297 1.094-.8124.86121-.7457 1.6189-1.5868 2.3443-2.3747-1.49 8.886-5.6864 15.78-11.597 20.622-7.1356 5.8465-16.591 8.8155-25.694 8.7488-.01042-1e-4-.02083-1e-4-.03126 0-9.2091.091-17.932-4.2674-24.381-10.655-6.4403-6.3787-10.499-14.747-10.596-22.34v-.031c.0052-13.65 3.0575-19.979 10.44-27.59 1.7379-1.7916 3.6093-3.6193 4.97-4.9368.75286-.73622.76774-2.0908.03126-2.8434-.73649-.75258-2.0916-.76746-2.8444-.0312-1.3937 1.3496-3.2582 3.2014-5.0325 5.0306-7.8212 8.0623-11.565 16.08-11.565 30.402.10198 8.9618 4.6981 18.165 11.784 25.184 7.0789 7.0117 16.755 11.904 27.225 11.811.01053-1e-4.02072 1e-4.03126 0 9.9742.066 20.249-3.1454 28.194-9.655 7.9137-6.4841 13.434-16.336 13.785-29.121.000259-.063 0-.1304 0-.1875 0-.4146-.0832-.7016-.18755-.9061-.24553-.528-.9769-1.039-1.5004-1.1249-1.0469-.1719-1.2083.1539-1.3753.25-.33404.1921-.37804.2654-.50012.3749-.24418.2189-.51292.4699-.8127.7812-1.3051 1.3846-2.4733 2.6537-3.6884 3.937-.14263-.4269-.18653-.7517-.37509-1.1874-.67041-1.5491-1.8311-3.2401-3.8134-4.0307-1.1864-.4805-2.7042.5022-2.7507 1.781-.47845 13.385-12.174 23.913-26.913 24.091h-.12503c-6.1176-.2722-11.927-2.3212-16.254-5.968-4.3429-3.6605-7.2805-8.9072-7.7206-16.092-.000263-.01.000251-.021 0-.031-.000655-.011.000642-.02 0-.031-.16181-7.085 2.0811-13.682 7.4706-19.529 1.5381-1.6684 2.4967-2.5387 3.5321-3.5308l4.5949 4.5931c.95261.9329 2.8295.50406 3.282-.7499l10.002-28.996c.44196-1.2558-.73636-2.7728-2.063-2.6559zm28.976 0c-.50337.0521-.98338.3034-1.3128.68741-12.161 14.33-24.628 28.759-35.04 41.026-.22564.2453-.29407.5862-.40635.8748l-5.9389 17.748c-.25819.7556-.0088 1.6574.60095 2.1732.60974.5157 1.5408.6123 2.2435.2327l17.004-8.9988c.36486-.174.67458-.4615.87521-.8124l4.7199-5.6555c.7469-.7904.66367-2.2094-.17052-2.9071-.83419-.6978-2.2462-.5294-2.8927.345l-3.7196 4.4681-7.9082-6.4679 27.757-32.464 7.9394 6.3429-18.067 21.091c-.67921.80166-.56752 2.1488.23443 2.8278.80195.67895 2.1496.56731 2.8288-.23434l24.006-27.996c.68841-.80557.56839-2.1702-.25006-2.8434l-11.034-8.9988c-.40686-.33067-.94755-.49167-1.4691-.43744zm.46886 4.7806 7.8769 6.4679-1.9692 2.3122-7.9707-6.3742zm-34.29 41.588 6.4391 5.2493-9.9399 5.2493z" color="#000000" fill="#fff" overflow="visible" style="text-indent:0;text-transform:none"/>
   </g>
  </g>
 </g>
</svg>
