<svg id="SVGRoot" version="1.1" viewBox="0 0 205 205" xmlns="http://www.w3.org/2000/svg">
 <defs>
  <style type="text/css">.fil0 {fill:#000000}
    .fil1 {fill:#000000;fill-rule:nonzero}</style>
  <style type="text/css">.fil0 {fill:#000000}</style>
  <style type="text/css">.fil0 {fill:#000000}</style>
 </defs>
 <g>
  <rect x=".95209" y="1.0137" width="203.09" height="203.04" fill="#b9d4ff" stroke="#000" stroke-width="1.8881"/>
  <g transform="matrix(1.2457 0 0 1.2457 40.214 6.2131)">
   <path d="m38.041 19.866c11.221-4.455 23.594-2.251 32.484 5.054l-5.061-0.043-0.131 9.999 22.025 0.233 0.23-22.023-9.998-0.127-0.041 4.791c-11.676-10.018-28.219-13.125-43.197-7.179-19.196 7.618-30.069 27.823-25.858 48.043l9.789-2.039c-3.217-15.45 5.092-30.889 19.758-36.709zm53.461 21.514-9.789 2.042c3.225 15.455-5.084 30.895-19.758 36.714-11.172 4.435-23.484 2.268-32.363-4.963l4.893 0.095 0.293-9.995-22.025-0.526-0.518 22.021 9.994 0.288 0.096-4.936c7.701 6.663 17.533 10.319 27.654 10.319 5.232 0 10.541-0.974 15.664-3.007 19.203-7.617 30.08-27.825 25.859-48.052z"/>
  </g>
  <text x="155.25" y="162.01042" fill="#000000" font-family="sans-serif" font-size="21.333px" letter-spacing="0px" text-align="center" text-anchor="middle" word-spacing="0px" style="line-height:1.25" xml:space="preserve"><tspan x="105.91146" y="162.01042" fill="#000000" text-anchor="middle"><tspan x="102.16146" y="162.01042" text-align="center">Odśwież </tspan><tspan dx="7.5" text-align="center"/></tspan><tspan x="102.16146" y="188.67709"><tspan x="102.16146" fill="#000000" text-align="center" text-anchor="middle">dokument</tspan></tspan></text>
 </g>
 <style type="text/css">.st0{fill-rule:evenodd;clip-rule:evenodd;}</style>
</svg>
