<svg id="SVGRoot" width="206px" height="206px" version="1.1" viewBox="0 0 206 206" xmlns="http://www.w3.org/2000/svg">
 <g transform="matrix(3.7795 0 0 3.7795 -1795.2 2502.6)">
  <flowRoot fill="black" font-family="sans-serif" font-size="40px" letter-spacing="0px" word-spacing="0px" style="line-height:1.25" xml:space="preserve"><flowRegion><rect x="-392.69" y="-63.57" width="758.02" height="397.52"/></flowRegion><flowPara/></flowRoot>
  <flowRoot fill="black" font-family="sans-serif" font-size="40px" letter-spacing="0px" word-spacing="0px" style="line-height:1.25" xml:space="preserve"><flowRegion><rect x="-251.87" y="-84.492" width="624.44" height="455.45"/></flowRegion><flowPara/></flowRoot>
  <flowRoot fill="black" font-family="sans-serif" font-size="40px" letter-spacing="0px" word-spacing="0px" style="line-height:1.25" xml:space="preserve"><flowRegion><rect x="-202.78" y="-50.695" width="473.96" height="281.64"/></flowRegion><flowPara/></flowRoot>
  <flowRoot fill="black" font-family="sans-serif" font-size="40px" letter-spacing="0px" word-spacing="0px" style="line-height:1.25" xml:space="preserve"><flowRegion><rect x="-86.906" y="-78.859" width="516.61" height="410.39"/></flowRegion><flowPara/></flowRoot>
  <flowRoot fill="black" font-family="sans-serif" font-size="40px" letter-spacing="0px" word-spacing="0px" style="line-height:1.25" xml:space="preserve"><flowRegion><rect x="-81.273" y="-32.188" width="309" height="322.68"/></flowRegion><flowPara/></flowRoot>
  <flowRoot fill="black" font-family="sans-serif" font-size="40px" letter-spacing="0px" word-spacing="0px" style="line-height:1.25" xml:space="preserve"><flowRegion><rect x="-90.93" y="-68.398" width="392.69" height="252.67"/></flowRegion><flowPara/></flowRoot>
  <g transform="translate(675.17 -.21291)">
   <rect x="-199.14" y="-660.87" width="52.396" height="52.396" fill="#db3b3b" stroke="#000" stroke-linecap="round" stroke-width=".52068" style="paint-order:fill markers stroke"/>
   <text x="-173.01917" y="-612.67603" font-family="sans-serif" font-size="6.35px" letter-spacing="0px" stroke-width=".26458" text-align="center" text-anchor="middle" word-spacing="0px" style="line-height:1.25" xml:space="preserve"><tspan x="-173.01917" y="-612.67603" fill="#ffffff" font-family="sans-serif" class="svgT" letter-spacing=".5px" font-size="5.2px" stroke-width=".26458" text-align="center" text-anchor="middle">Rejestr zmian</tspan></text>
   <g transform="translate(-304.87 -629.84)" fill="#fff">
    <path d="m131.72-16.343h2.1158v2.1078c0 .16894.13676.30571.30571.30571h2.4135c.16894 0 .3057-.13676.3057-.30571v-2.1158h2.0997c.16894 0 .3057-.13676.3057-.3057v-2.4054c0-.16894-.13676-.3057-.3057-.3057h-2.1158v-2.1078c0-.16894-.13676-.3057-.3057-.3057h-2.4135c-.16895 0-.30571.13676-.30571.3057v2.1158h-2.0997c-.16894 0-.3057.13676-.3057.3057v2.4135c.008.1609.13676.29766.3057.29766zm.30571-2.4135h2.1078c.16894 0 .30571-.13676.30571-.3057v-2.1078h1.8101v2.1078c0 .16894.13677.3057.30571.3057h2.1158v1.8101h-2.1238c-.16894 0-.3057.13676-.3057.30571v2.1158h-1.8101v-2.1238c0-.16894-.13676-.30571-.3057-.30571h-2.1158v-1.8021z"/>
    <path d="m140.3-23.383h-16.09c-.16894 0-.29766.12872-.29766.29766v24.135c0 .16894.13676.30571.3057.30571h16.09c.16894 0 .3057-.13676.3057-.30571v-24.135c-.008-.16894-.1448-.29766-.31375-.29766zm-.29766 24.135h-15.486v-23.531h15.486z"/>
    <path d="m127.43-8.2985h9.6538c.16895 0 .30571-.13676.30571-.30571 0-.16894-.13676-.30571-.30571-.30571h-9.6538c-.16895 0-.30571.13676-.30571.30571 0 .16894.13676.30571.30571.30571z"/>
    <path d="m127.43-11.516h6.4359c.16895 0 .30571-.13676.30571-.3057s-.13676-.3057-.30571-.3057h-6.4359c-.16895 0-.30571.13676-.30571.3057s.13676.3057.30571.3057z"/>
    <path d="m127.43-5.0806h9.6538c.16895 0 .30571-.13676.30571-.30571s-.13676-.30571-.30571-.30571h-9.6538c-.16895 0-.30571.13676-.30571.30571s.13676.30571.30571.30571z"/>
    <path d="m127.43-1.8626h9.6538c.16895 0 .30571-.13676.30571-.30571 0-.16894-.13676-.30571-.30571-.30571h-9.6538c-.16895 0-.30571.13676-.30571.30571 0 .16894.13676.30571.30571.30571z"/>
   </g>
  </g>
 </g>
</svg>
