<?xml version="1.0" encoding="UTF-8" standalone="no"?>
<svg
   xmlns:dc="http://purl.org/dc/elements/1.1/"
   xmlns:cc="http://creativecommons.org/ns#"
   xmlns:rdf="http://www.w3.org/1999/02/22-rdf-syntax-ns#"
   xmlns:svg="http://www.w3.org/2000/svg"
   xmlns="http://www.w3.org/2000/svg"
   id="SVGRoot"
   version="1.1"
   viewBox="0 0 200 200"
   height="200px"
   width="200px">
  <defs
     id="defs827" />
  <metadata
     id="metadata830">
    <rdf:RDF>
      <cc:Work
         rdf:about="">
        <dc:format>image/svg+xml</dc:format>
        <dc:type
           rdf:resource="http://purl.org/dc/dcmitype/StillImage" />
        <dc:title></dc:title>
      </cc:Work>
    </rdf:RDF>
  </metadata>
  <g
     id="layer1">
    <g
       id="g752"
       transform="matrix(3.7795276,0,0,3.7795276,-3642.0868,329.18149)">
      <rect
         y="-86.664398"
         x="963.91815"
         height="52.63237"
         width="52.632374"
         id="rect833-2-8-6-2-6-4-8-1-7-4-6-9"
         style="fill:#b9d4ff;fill-opacity:1;stroke:#000000;stroke-width:0.28429499;stroke-linecap:round;stroke-miterlimit:4;stroke-dasharray:none;stroke-opacity:1;paint-order:fill markers stroke" />
      <text
         id="text837-2-5-3-5-4-2-1-6-9-68-0-7"
         y="-43.279572"
         x="990.20056"
         style="font-size:6.3499999px;line-height:1.04999995;font-family:voestalpine;-inkscape-font-specification:voestalpine;text-align:end;letter-spacing:0px;word-spacing:0px;text-anchor:end;stroke-width:0.26458299"
         xml:space="preserve"><tspan
           style="font-size:6.3499999px;text-align:center;text-anchor:middle;stroke-width:0.26458299"
           y="-43.279572"
           x="990.20056"
           id="tspan3555-7">Rozgrupuj</tspan><tspan
           id="tspan3602"
           style="font-size:6.3499999px;text-align:center;text-anchor:middle;stroke-width:0.26458299"
           y="-36.612072"
           x="990.20056">obiekty graficzne</tspan></text>
      <g
         transform="matrix(0.3437463,0.3437463,-0.3437463,0.3437463,990.23281,-102.12699)"
         id="g3882"
         style="fill:#000000">
        <g
           id="g3852">
          <path
             id="path3836"
             d="M 11.506,44.551 10.445,43.49 4.47,49.465 c -0.141,0.141 -0.22,0.332 -0.22,0.53 0,0.198 0.079,0.39 0.22,0.53 l 5.976,5.976 1.061,-1.062 -4.695,-4.694 h 15.992 v -1.5 H 6.811 Z" />
          <circle
             id="circle3838"
             r="7.4549999"
             cy="49.995998"
             cx="35.333" />
          <path
             id="path3840"
             d="m 95.529,49.465 -5.975,-5.975 -1.063,1.061 4.693,4.695 H 77.198 v 1.5 h 15.991 l -4.694,4.695 1.062,1.061 5.977,-5.977 c 0.289,-0.292 0.289,-0.767 -0.005,-1.06 z" />
          <circle
             id="circle3842"
             r="7.4549999"
             cy="49.995998"
             cx="64.667" />
          <path
             id="path3844"
             d="M 50.75,93.186 V 77.193 h -1.5 v 15.992 l -4.695,-4.695 -1.061,1.061 5.975,5.975 c 0.146,0.146 0.338,0.223 0.53,0.223 0.192,0 0.384,-0.073 0.53,-0.223 l 5.976,-5.975 -1.062,-1.061 z" />
          <circle
             id="circle3846"
             r="7.4549999"
             cy="64.662003"
             cx="50" />
          <path
             id="path3848"
             d="m 49.25,6.806 v 15.992 h 1.5 V 6.806 l 4.695,4.695 1.061,-1.061 -5.977,-5.975 c -0.28,-0.281 -0.778,-0.281 -1.063,0 l -5.975,5.976 1.061,1.061 z" />
          <circle
             id="circle3850"
             r="7.4549999"
             cy="35.328999"
             cx="50" />
        </g>
      </g>
    </g>
  </g>
</svg>
