<svg id="SVGRoot" width="208" height="208" version="1.1" viewBox="0 0 208 208" xmlns="http://www.w3.org/2000/svg">
 <g transform="translate(0,7)">
  <g transform="matrix(3.7795 0 0 3.7795 10.171 -6.7758)">
   <g transform="translate(-1.0884 -121.69)">
    <g transform="translate(1.6608 -59.209)">
     <g transform="translate(-.6443 -59.335)">
      <g transform="translate(-1396.8 269.89)">
       <g transform="translate(-57.972 -.024822)">
        <g transform="translate(1658.1 73.867)">
         <g transform="translate(-203.03 -103.33)">
          <flowRoot transform="matrix(.26458 0 0 .26458 -2.875 1.091)" fill="#000000" font-family="sans-serif" font-size="40px" letter-spacing="0px" word-spacing="0px" style="line-height:1.25" xml:space="preserve"><flowRegion><rect x="-85.582" y="-60.812" width="342.33" height="293.65"/></flowRegion><flowPara/></flowRoot>
          <g transform="translate(-1039.4 318.88)">
           <flowRoot transform="matrix(.26458 0 0 .26458 1036.5 -317.79)" fill="#000000" font-family="sans-serif" font-size="40px" letter-spacing="0px" word-spacing="0px" style="line-height:1.25" xml:space="preserve"><flowRegion><rect x="-105.21" y="-13.703" width="562.17" height="513.49"/></flowRegion><flowPara/></flowRoot>
           <g transform="translate(-66.134 .039287)">
            <g transform="translate(-66.173 .043409)">
             <flowRoot transform="matrix(.26458 0 0 .26458 1168.8 -317.87)" fill="#000000" font-family="sans-serif" font-size="40px" letter-spacing="0px" word-spacing="0px" style="line-height:1.25" xml:space="preserve"><flowRegion><rect x="-114.63" y="-91.434" width="675.23" height="522.91"/></flowRegion><flowPara/></flowRoot>
             <g transform="translate(-66.2 -.040316)">
              <g transform="translate(-65.918 -.60254)">
               <g transform="translate(-66.6 .14883)">
                <flowRoot fill="black" font-family="sans-serif" font-size="40px" letter-spacing="0px" word-spacing="0px" style="line-height:1.25" xml:space="preserve"><flowRegion><rect x="-24.34" y="-19.695" width="252.04" height="245.75"/></flowRegion><flowPara/></flowRoot>
                <g transform="translate(-68.678 -.48293)">
                 <flowRoot fill="black" font-family="sans-serif" font-size="40px" letter-spacing="0px" word-spacing="0px" style="line-height:1.25" xml:space="preserve"><flowRegion><rect x="-65.168" y="-26.762" width="382.37" height="335.26"/></flowRegion><flowPara/></flowRoot>
                 <g transform="translate(-63.347 .4912)">
                  <g transform="translate(529.82 -.18087)">
                   <g transform="translate(794.67 .06923)">
                    <g transform="translate(-198.36 .17569)">
                     <g transform="translate(-530.68 .043413)">
                      <g transform="translate(912.04 -.041317)">
                       <g transform="translate(132.58 -.39794)">
                        <g transform="translate(-580.62 .35866)">
                         <rect x="441.2" y="-317.37" width="52.917" height="52.917" fill="#ffec8e" stroke="#000" stroke-linecap="round" stroke-width=".5" style="paint-order:fill markers stroke"/>
                         <text x="467.46878" y="-268.92636" fill="#000000" font-family="sans-serif" font-size="6.35px" letter-spacing="0px" stroke-width=".26458" text-align="center" text-anchor="middle" word-spacing="0px" style="line-height:1.25" xml:space="preserve"><tspan x="467.46878" y="-268.92636" fill="#000000" font-family="sans-serif" font-size="4.9389px" stroke-width=".26458" text-align="center" text-anchor="middle">Rysunek ms</tspan></text>
                         <g transform="matrix(.06177 0 0 .06177 451.84 -310.11)">
                          <path d="m470.19 118.14v302.4c0 2.346-1.847 4.192-4.193 4.192h-419.86c-2.347 0-4.267-1.847-4.267-4.192v-302.4c0-2.271 1.92-4.194 4.267-4.194h419.86c2.347-.001 4.193 1.923 4.193 4.194zm-8.394 298.2v-294h-411.53v294z"/>
                          <path d="m444.74 136.56v230.36c0 2.347-1.922 4.193-4.27 4.193-1.631 0-3.055-.917-3.764-2.347l-61.437-106.43-81.905 141.91c-1.139 1.992-3.693 2.708-5.763 1.568-.424-.291-.847-.639-1.208-1.138l-91.786-119.6-120.02 120.1c-1.635 1.633-4.336 1.633-5.975 0-.777-.861-1.208-1.923-1.208-2.985v-265.64c0-2.347 1.923-4.271 4.197-4.271h368.87c2.348 0 4.27 1.924 4.27 4.271zm-8.463 214.73v-210.53h-360.48v251.27l116.68-116.6c1.852-1.431 4.479-1.069 5.899.777l90.869 118.46 82.337-142.56c.354-.716.854-1.354 1.638-1.708 1.986-1.208 4.549-.493 5.687 1.492z"/>
                          <path d="m507.94 347.3c2.562 2.631 4.055 6.116 4.055 10.025 0 3.986-1.563 7.541-4.193 10.165l-.146.07c-2.632 2.562-6.11 4.124-10.02 4.124-3.916 0-7.54-1.563-10.096-4.194l-.146-.139c-2.562-2.632-4.124-6.116-4.124-10.026 0-3.909 1.632-7.541 4.194-10.165l.146-.146c2.625-2.484 6.18-4.047 10.026-4.047 3.979 0 7.534 1.631 10.166 4.193zm-4.333 10.025c0-1.639-.639-3.125-1.708-4.193-1.07-1.14-2.632-1.777-4.264-1.777-1.639 0-3.132.638-4.201 1.708-1.063 1.138-1.776 2.624-1.776 4.263 0 1.64.714 3.124 1.776 4.194 1.069 1.069 2.563 1.777 4.201 1.777 1.632 0 3.193-.708 4.264-1.777 1.07-1.071 1.708-2.555 1.708-4.195z"/>
                          <path d="m442.18 451.54c2.277 0 4.194 1.847 4.194 4.193 0 2.278-1.917 4.194-4.194 4.194h-21.899c-2.271 0-4.124-1.916-4.124-4.194 0-2.347 1.854-4.193 4.124-4.193z"/>
                          <path d="m427.53 462.7c2.347 0 4.193 1.917 4.193 4.264 0 2.277-1.847 4.194-4.193 4.194h-46.64c-2.347 0-4.201-1.917-4.201-4.194 0-2.347 1.854-4.264 4.201-4.264z"/>
                          <path d="m403.71 53.231c1.992 1.139 2.632 3.694 1.5 5.756-.361.64-.931 1.14-1.5 1.493l-15.353 8.818c-1.992 1.208-4.554.5-5.687-1.5-1.139-1.985-.5-4.617 1.486-5.749l9.033-5.193-9.033-5.194c-1.986-1.208-2.625-3.763-1.486-5.756 1.133-1.993 3.694-2.632 5.687-1.563z"/>
                          <path d="m312.56 255.01c6.541 6.54 10.589 15.65 10.589 25.531 0 10.02-4.048 19.053-10.589 25.524-6.54 6.54-15.574 10.589-25.524 10.589-9.957 0-18.99-4.049-25.527-10.589-6.541-6.472-10.593-15.505-10.593-25.524 0-9.881 4.052-18.991 10.593-25.531l.284-.209c6.545-6.401 15.433-10.311 25.243-10.311 9.949 0 18.983 4.055 25.524 10.52zm2.201 25.531c0-7.61-3.125-14.505-8.173-19.553-4.979-4.979-11.88-8.104-19.553-8.104-7.541 0-14.365 2.986-19.344 7.889l-.209.215c-5.051 5.048-8.11 11.942-8.11 19.553 0 7.672 3.06 14.645 8.033 19.623 5.056 4.979 11.951 8.103 19.63 8.103 7.673 0 14.574-3.124 19.553-8.103 5.048-4.978 8.173-11.951 8.173-19.623z"/>
                          <path d="m202.99 29.339c.569 2.271-.712 4.548-2.985 5.187l-7.465 1.993c-2.208.646-4.555-.716-5.121-2.986-.642-2.201.712-4.548 2.986-5.117l7.468-1.992c2.201-.641 4.478.714 5.117 2.915z"/>
                          <path d="m192.54 47.469c.566 2.208-.715 4.555-2.989 5.124-2.204.569-4.479-.715-5.12-2.985l-1.99-7.257c-.565-2.277.781-4.548 2.989-5.117 2.271-.639 4.548.709 5.118 2.917z"/>
                          <path d="m186.78 25.93c.569 2.271-.781 4.541-2.986 5.11-2.2.646-4.548-.709-5.117-2.909l-1.92-7.041c-.569-2.201.781-4.548 2.985-5.117 2.274-.639 4.552.708 5.122 2.985z"/>
                          <path d="m182.09 34.956c.566 2.277-.712 4.548-2.989 5.117l-7.604 2.063c-2.277.639-4.555-.708-5.124-2.985-.639-2.208.715-4.479 2.916-5.125l7.68-2.055c2.205-.57 4.552.777 5.121 2.985z"/>
                          <path d="m152.3 477.2c1.989 2 3.27 4.764 3.27 7.825 0 3.132-1.28 5.825-3.27 7.895-2.063 1.986-4.836 3.264-7.896 3.264-3.055 0-5.828-1.277-7.891-3.264-1.989-2.069-3.271-4.763-3.271-7.895 0-3.062 1.281-5.825 3.271-7.825 2.063-2.056 4.836-3.264 7.891-3.264 3.06 0 5.833 1.208 7.896 3.264zm-5.121 7.825c0-.716-.357-1.424-.851-1.924-.5-.492-1.139-.776-1.924-.776-.781 0-1.419.284-1.916.776-.5.5-.784 1.208-.784 1.924 0 .784.284 1.493.784 1.924.497.493 1.135.847 1.916.847.785 0 1.424-.354 1.924-.847.493-.43.851-1.139.851-1.924z"/>
                          <polygon points="26.305 197.7 18.345 200.13 16.066 192.59 24.101 190.17"/>
                          <polygon points="20.615 207.66 12.581 210.08 10.308 202.54 18.345 200.13"/>
                          <polygon points="16.066 192.59 8.103 195 5.829 187.46 13.862 185.05"/>
                          <polygon points="10.308 202.54 2.273 204.89 0 197.42 8.033 195"/>
                         </g>
                        </g>
                       </g>
                      </g>
                     </g>
                    </g>
                   </g>
                  </g>
                 </g>
                </g>
               </g>
              </g>
             </g>
            </g>
           </g>
          </g>
         </g>
        </g>
       </g>
      </g>
     </g>
    </g>
   </g>
  </g>
 </g>
</svg>
