<svg id="SVGRoot" width="206px" height="206px" version="1.1" viewBox="0 0 206 206" xmlns="http://www.w3.org/2000/svg">
 <g transform="matrix(3.7795 0 0 3.7795 -1795.2 2502.6)">
  <flowRoot fill="black" font-family="sans-serif" font-size="40px" letter-spacing="0px" word-spacing="0px" style="line-height:1.25" xml:space="preserve"><flowRegion><rect x="-392.69" y="-63.57" width="758.02" height="397.52"/></flowRegion><flowPara/></flowRoot>
  <flowRoot fill="black" font-family="sans-serif" font-size="40px" letter-spacing="0px" word-spacing="0px" style="line-height:1.25" xml:space="preserve"><flowRegion><rect x="-251.87" y="-84.492" width="624.44" height="455.45"/></flowRegion><flowPara/></flowRoot>
  <flowRoot fill="black" font-family="sans-serif" font-size="40px" letter-spacing="0px" word-spacing="0px" style="line-height:1.25" xml:space="preserve"><flowRegion><rect x="-202.78" y="-50.695" width="473.96" height="281.64"/></flowRegion><flowPara/></flowRoot>
  <flowRoot fill="black" font-family="sans-serif" font-size="40px" letter-spacing="0px" word-spacing="0px" style="line-height:1.25" xml:space="preserve"><flowRegion><rect x="-86.906" y="-78.859" width="516.61" height="410.39"/></flowRegion><flowPara/></flowRoot>
  <flowRoot fill="black" font-family="sans-serif" font-size="40px" letter-spacing="0px" word-spacing="0px" style="line-height:1.25" xml:space="preserve"><flowRegion><rect x="-81.273" y="-32.188" width="309" height="322.68"/></flowRegion><flowPara/></flowRoot>
  <flowRoot fill="black" font-family="sans-serif" font-size="40px" letter-spacing="0px" word-spacing="0px" style="line-height:1.25" xml:space="preserve"><flowRegion><rect x="-90.93" y="-68.398" width="392.69" height="252.67"/></flowRegion><flowPara/></flowRoot>
  <g transform="translate(675.17 -.21291)">
   <flowRoot fill="black" font-family="sans-serif" font-size="40px" letter-spacing="0px" word-spacing="0px" style="line-height:1.25" xml:space="preserve"><flowRegion><rect x="-100.59" y="-53.109" width="462.7" height="369.35"/></flowRegion><flowPara/></flowRoot>
   <g transform="translate(57.194 .21291)">
    <flowRoot fill="black" font-family="sans-serif" font-size="40px" letter-spacing="0px" word-spacing="0px" style="line-height:1.25" xml:space="preserve"><flowRegion><rect x="-329.12" y="-12.07" width="696.05" height="259.91"/></flowRegion><flowPara/></flowRoot>
    <g transform="translate(-1495.1 -629.38)">
     <flowRoot fill="black" font-family="sans-serif" font-size="40px" letter-spacing="0px" word-spacing="0px" style="line-height:1.25" xml:space="preserve"><flowRegion><rect x="-306.59" y="-111.05" width="206" height="51.5"/></flowRegion><flowPara/></flowRoot>
     <g transform="translate(174.63 .21291)">
      <g transform="translate(345.33 -.21291)">
       <rect x="718.77" y="-31.75" width="52.917" height="52.917" fill="#db3b3b" stroke="#000" stroke-linecap="round" stroke-width=".5" style="paint-order:fill markers stroke"/>
       <text x="745.03125" y="16.520624" fill="#ffffff" font-family="sans-serif" font-size="6.35px" letter-spacing="0px" stroke-width=".26458" word-spacing="0px" style="line-height:1.25" xml:space="preserve"><tspan x="745.03125" y="16.520624" fill="#ffffff" font-family="sans-serif" class="svgT" letter-spacing=".5px" font-size="5.2px" stroke-width=".26458" text-align="center" text-anchor="middle">Ryzyko resztkowe</tspan></text>
       <g transform="matrix(.32012 0 0 .32012 729.2 -28.373)" fill="#fff">
        <g fill="#fff">
         <path d="m53.7 94.3c0 .9.7 1.6 1.6 1.6h15c.9 0 1.6-.7 1.6-1.6v-8.1h-18.2z"/>
         <path d="m96.9 39.4c-.5-.8-1.4-1.4-2.4-1.6-1.3-.2-2.6.3-3.4 1.4l-6.6 9.3c.2.2.3.4.4.6 1.8 2.6 1.6 6.1-.5 8.5l-.4.5c-2.7 3.1-5.7 6-8.8 8.6l-2.6 2.1c-.9.7-2.1.6-2.8-.3s-.6-2.1.3-2.8l2.6-2.1c3-2.4 5.8-5.2 8.4-8.1l.5-.5c.9-1 1-2.5.2-3.6-.5-.7-1.1-1.1-1.9-1.3-.8-.1-1.6 0-2.2.5l-14.6 10.1c-1.6 1.1-2.8 2.7-3.3 4.6l-5.3 17.1h18.8l12.6-7.7c2.2-1.3 3.8-3.5 4.4-5.9l7.1-26.5c.2-1.1.1-2.1-.5-2.9z"/>
         <path d="m40.2 65.2c-.6-1.8-1.7-3.5-3.3-4.6l-14.4-10c-.7-.5-1.4-.6-2.2-.5s-1.5.6-1.9 1.3c-.8 1.1-.7 2.6.2 3.6l.5.5c2.5 2.9 5.3 5.6 8.4 8.1l2.6 2.1c.4.3.7.8.7 1.3.1.5-.1 1-.4 1.5-.3.4-.8.7-1.3.7-.5.1-1-.1-1.5-.4l-2.6-2.1c-3.2-2.6-6.2-5.5-8.8-8.6l-.5-.5c-2.1-2.4-2.3-5.9-.5-8.5.1-.2.3-.4.4-.6l-6.6-9.3c-.8-1.1-2.1-1.6-3.4-1.4-1 .2-1.8.7-2.4 1.6-.5.8-.7 1.8-.4 2.8l7.1 26.5c.7 2.5 2.2 4.6 4.4 5.9l12.6 7.7h18.8z"/>
         <path d="m28 94.3c0 .9.7 1.6 1.6 1.6h15c.9 0 1.7-.7 1.7-1.6v-8.1h-18.3z"/>
         <path d="m72.6 30.5v-13.5c0-1.5-1.1-2.7-2.5-2.9-9.8-1.6-15.3-6.1-17.9-9.1-1.2-1.3-3.2-1.3-4.4 0-2.7 3.1-8.1 7.5-17.9 9.1-1.4.2-2.5 1.4-2.5 2.9v13.6c0 15.1 16.1 25.7 21.2 28.6.9.5 2 .5 2.9 0 5-3 21.1-13.6 21.1-28.7zm-22.6-13.8c2 0 3.6 1.7 3.5 3.7l-.7 13.7c-.1 1.5-1.3 2.7-2.8 2.7s-2.8-1.2-2.8-2.7l-.7-13.7c-.1-2 1.5-3.7 3.5-3.7zm0 30.5c-2.1 0-3.7-1.7-3.7-3.7 0-2.1 1.7-3.7 3.7-3.7 2.1 0 3.7 1.7 3.7 3.7s-1.6 3.7-3.7 3.7z"/>
        </g>
       </g>
      </g>
     </g>
    </g>
   </g>
  </g>
 </g>
</svg>
