<?xml version="1.0" encoding="UTF-8" standalone="no"?>
<svg
   xmlns:dc="http://purl.org/dc/elements/1.1/"
   xmlns:cc="http://creativecommons.org/ns#"
   xmlns:rdf="http://www.w3.org/1999/02/22-rdf-syntax-ns#"
   xmlns:svg="http://www.w3.org/2000/svg"
   xmlns="http://www.w3.org/2000/svg"
   id="svg47"
   version="1.1"
   viewBox="0 0 52.758294 52.758296"
   height="199.40143"
   width="199.40143">
  <defs
     id="defs42">
    <pattern
       id="EMFhbasepattern"
       patternUnits="userSpaceOnUse"
       width="6"
       height="6"
       x="0"
       y="0" />
  </defs>
  <metadata
     id="metadata45">
    <rdf:RDF>
      <cc:Work
         rdf:about="">
        <dc:format>image/svg+xml</dc:format>
        <dc:type
           rdf:resource="http://purl.org/dc/dcmitype/StillImage" />
        <dc:title></dc:title>
      </cc:Work>
    </rdf:RDF>
  </metadata>
  <g
     id="g8556"
     transform="translate(49.836509,-375.23204)">
    <g
       id="g5305">
      <g
         id="g9034"
         transform="translate(-344.82859,-53.748555)">
        <rect
           height="52.258293"
           y="429.60498"
           x="295.30243"
           width="52.258293"
           id="rect833-1-5-3-7-4-8-5-1-4-3-9"
           style="fill:#c4c4c4;fill-opacity:1;stroke:#000000;stroke-width:0.49999899;stroke-linecap:round;stroke-miterlimit:4;stroke-dasharray:none;stroke-opacity:1;paint-order:fill markers stroke" />
        <text
           id="text898-7-3-6-8-3-3-0-66-7-3-8"
           y="473.18689"
           x="321.50882"
           style="font-size:6.3499999px;line-height:0.94999999;font-family:voestalpine;-inkscape-font-specification:voestalpine;text-align:center;letter-spacing:0px;word-spacing:0px;text-anchor:middle;fill:#ffffff;fill-opacity:1;stroke-width:0.26458299"
           xml:space="preserve"><tspan
             id="tspan1937-5-4-4"
             style="font-size:6.3499999px;text-align:center;text-anchor:middle;fill:#ffffff;fill-opacity:1;stroke-width:0.26458299"
             y="473.18689"
             x="321.50882">Scal komórki</tspan><tspan
             style="font-size:6.3499999px;text-align:center;text-anchor:middle;fill:#ffffff;fill-opacity:1;stroke-width:0.26458299"
             y="479.21939"
             x="321.50882"
             id="tspan1519-3">tabeli</tspan></text>
        <g
           id="g5723">
          <path
             d="m 338.72612,435.60706 h -7.86137 -0.72617 -8.34411 -0.72619 -8.34452 -0.72618 -7.86095 c -0.66779,0 -1.20935,0.54155 -1.20935,1.20934 v 5.12151 0.7262 5.60468 0.72617 5.60511 0.72577 5.12152 c 0,0.6682 0.54156,1.20934 1.20935,1.20934 h 7.86136 0.72618 8.34452 0.72619 8.34452 0.72618 7.86095 c 0.66779,0 1.20935,-0.54114 1.20935,-1.20934 v -5.12193 -0.72578 -5.60469 -0.72617 -5.60468 -0.7262 -5.12151 c -2.6e-4,-0.66779 -0.54197,-1.20934 -1.20976,-1.20934 z m -17.65784,7.05705 v 5.60468 h -8.34452 v -5.60468 z m -8.34452,-0.7262 v -5.60468 h 8.34452 v 5.60468 z m 8.34452,7.05705 v 5.60511 h -8.34452 v -5.60511 z m 0,6.33047 v 5.6051 h -8.34452 v -5.6051 z m 9.07071,-6.33047 v 5.60511 h -8.34452 v -5.60511 z m -8.34452,-0.72617 v -5.60468 h 8.34452 v 5.60468 z m 8.34452,7.05664 v 5.6051 h -8.34452 v -5.6051 z m 0,-13.38752 h -8.34452 v -5.60468 h 8.34452 z m -26.48593,-5.12151 c 0,-0.26606 0.21587,-0.48193 0.48193,-0.48317 h 7.863 v 5.60468 h -8.34493 z m 0,5.84771 h 8.34493 v 5.60468 h -8.34493 z m 0,6.33085 h 8.34493 v 5.60511 h -8.34493 z m 0,11.45199 v -5.12152 h 8.34493 v 5.6051 h -7.863 c -0.26606,-10e-4 -0.48193,-0.21712 -0.48193,-0.48358 z m 35.55623,0 c 0,0.26604 -0.21548,0.48234 -0.48193,0.48358 h -7.86261 v -5.6051 h 8.34454 z m 0,-5.84688 h -8.34454 v -5.60511 h 8.34454 z m 0,-6.33128 h -8.34454 v -5.60468 h 8.34454 z m 0,-6.33088 h -8.34454 v -5.60468 h 7.86261 c 0.26604,10e-4 0.48193,0.21711 0.48193,0.48317 z"
             id="path1492-9-6-4-6-5-9"
             style="fill:#ffffff;fill-opacity:1;stroke-width:0.41120201" />
          <path
             d="M 320.40862,442.27431 H 304.2703 c -0.66597,0 -1.20753,0.32246 -1.20753,0.719 v 4.72688 c 0,0.39655 0.54156,0.71899 1.20753,0.71899 h 16.13832 c 0.66602,0 1.20757,-0.32244 1.20757,-0.71899 v -4.72688 c 0,-0.39734 -0.54155,-0.719 -1.20757,-0.719 z"
             id="path1502-9-5-5-3-4-1"
             style="fill:#ffffff;fill-opacity:1;stroke-width:1.05525005" />
          <text
             id="text1523-7"
             y="447.59033"
             x="308.06311"
             style="font-size:5.64444017px;line-height:1.25;font-family:voestalpine;-inkscape-font-specification:voestalpine;letter-spacing:0px;word-spacing:0px;fill:#c4c4c4;fill-opacity:1;stroke-width:0.26458299"
             xml:space="preserve"><tspan
               style="fill:#c4c4c4;fill-opacity:1;stroke-width:0.26458299"
               y="447.59033"
               x="308.06311"
               id="tspan1521-7">2:1</tspan></text>
        </g>
      </g>
    </g>
  </g>
</svg>
