<svg id="SVGRoot" width="206px" height="206px" version="1.1" viewBox="0 0 206 206" xmlns="http://www.w3.org/2000/svg">
 <g transform="matrix(3.7795 0 0 3.7795 -1795.2 2502.6)">
  <flowRoot fill="black" font-family="sans-serif" font-size="40px" letter-spacing="0px" word-spacing="0px" style="line-height:1.25" xml:space="preserve"><flowRegion><rect x="-392.69" y="-63.57" width="758.02" height="397.52"/></flowRegion><flowPara/></flowRoot>
  <flowRoot fill="black" font-family="sans-serif" font-size="40px" letter-spacing="0px" word-spacing="0px" style="line-height:1.25" xml:space="preserve"><flowRegion><rect x="-251.87" y="-84.492" width="624.44" height="455.45"/></flowRegion><flowPara/></flowRoot>
  <flowRoot fill="black" font-family="sans-serif" font-size="40px" letter-spacing="0px" word-spacing="0px" style="line-height:1.25" xml:space="preserve"><flowRegion><rect x="-202.78" y="-50.695" width="473.96" height="281.64"/></flowRegion><flowPara/></flowRoot>
  <flowRoot fill="black" font-family="sans-serif" font-size="40px" letter-spacing="0px" word-spacing="0px" style="line-height:1.25" xml:space="preserve"><flowRegion><rect x="-86.906" y="-78.859" width="516.61" height="410.39"/></flowRegion><flowPara/></flowRoot>
  <flowRoot fill="black" font-family="sans-serif" font-size="40px" letter-spacing="0px" word-spacing="0px" style="line-height:1.25" xml:space="preserve"><flowRegion><rect x="-81.273" y="-32.188" width="309" height="322.68"/></flowRegion><flowPara/></flowRoot>
  <flowRoot fill="black" font-family="sans-serif" font-size="40px" letter-spacing="0px" word-spacing="0px" style="line-height:1.25" xml:space="preserve"><flowRegion><rect x="-90.93" y="-68.398" width="392.69" height="252.67"/></flowRegion><flowPara/></flowRoot>
  <g transform="translate(675.17 -.21291)">
   <flowRoot fill="black" font-family="sans-serif" font-size="40px" letter-spacing="0px" word-spacing="0px" style="line-height:1.25" xml:space="preserve"><flowRegion><rect x="-100.59" y="-53.109" width="462.7" height="369.35"/></flowRegion><flowPara/></flowRoot>
   <g transform="translate(57.194 .21291)">
    <flowRoot fill="black" font-family="sans-serif" font-size="40px" letter-spacing="0px" word-spacing="0px" style="line-height:1.25" xml:space="preserve"><flowRegion><rect x="-329.12" y="-12.07" width="696.05" height="259.91"/></flowRegion><flowPara/></flowRoot>
    <g transform="translate(-1495.1 -629.38)">
     <flowRoot fill="black" font-family="sans-serif" font-size="40px" letter-spacing="0px" word-spacing="0px" style="line-height:1.25" xml:space="preserve"><flowRegion><rect x="-306.59" y="-111.05" width="206" height="51.5"/></flowRegion><flowPara/></flowRoot>
     <flowRoot fill="black" font-family="sans-serif" font-size="40px" letter-spacing="0px" word-spacing="0px" style="line-height:1.25" xml:space="preserve"><flowRegion><rect x="-70.812" y="-36.211" width="362.91" height="283.25"/></flowRegion><flowPara/></flowRoot>
     <g transform="translate(766.88 -400.75)">
      <g transform="translate(176.84 -.42581)">
       <rect x="295.3" y="369.54" width="52.258" height="52.258" fill="#fff" stroke="#000" stroke-linecap="round" stroke-width=".5" style="paint-order:fill markers stroke"/>
       <text transform="scale(1 1)" x="321.50912" y="412.58444" font-family="sans-serif" class="svgT" letter-spacing=".5px" font-size="5.2px" stroke-width=".26458" text-align="center" text-anchor="middle" word-spacing="0px" style="line-height:0.94999999" xml:space="preserve"><tspan x="321.50912" y="412.58444" text-align="center">Scal komórki</tspan><tspan x="321.50912" y="418.61694" text-align="center">tabeli</tspan></text>
       <path d="m338.73 375.55h-34.589c-.66779 0-1.2094.54155-1.2094 1.2093v23.631c0 .6682.54156 1.2093 1.2094 1.2093h34.59c.66779 0 1.2094-.54114 1.2094-1.2093v-23.631c-.00032-.66779-.54197-1.2093-1.2098-1.2093zm-17.658 7.057v5.6047h-8.3445v-5.6047zm-8.3445-.7262v-5.6047h8.3445v5.6047zm8.3445 7.057v5.6051h-8.3445v-5.6051zm0 6.3305v5.6051h-8.3445v-5.6051zm9.0707-6.3305v5.6051h-8.3445v-5.6051zm-8.3445-.72617v-5.6047h8.3445v5.6047zm8.3445 7.0566v5.6051h-8.3445v-5.6051zm0-13.388h-8.3445v-5.6047h8.3445zm-26.486-5.1215c0-.26606.21587-.48193.48193-.48317h7.863v5.6047h-8.3449zm0 5.8477h8.3449v5.6047h-8.3449zm0 6.3308h8.3449v5.6051h-8.3449zm0 11.452v-5.1215h8.3449v5.6051h-7.863c-.26606-.001-.48193-.21712-.48193-.48358zm35.556 0c0 .26604-.21548.48234-.48193.48358h-7.8626v-5.6051h8.3445zm0-5.8469h-8.3445v-5.6051h8.3445zm0-6.3313h-8.3445v-5.6047h8.3445zm0-6.3309h-8.3445v-5.6047h7.8626c.26604.001.48193.21711.48193.48317z" stroke-width=".4112"/>
       <path d="m320.41 382.21h-16.138c-.66597 0-1.2075.32246-1.2075.719v4.7269c0 .39655.54156.71899 1.2075.71899h16.138c.66602 0 1.2076-.32244 1.2076-.71899v-4.7269c0-.39734-.54155-.719-1.2076-.719z" stroke-width="1.0553"/>
       <text x="308.06311" y="387.52957" font-family="voestalpine" font-size="5.6444px" letter-spacing="0px" stroke-width=".26458" word-spacing="0px" style="line-height:1.25" xml:space="preserve"><tspan x="308.06311" y="387.52957" fill="#ffffff" stroke-width=".26458">2:1</tspan></text>
      </g>
     </g>
    </g>
   </g>
  </g>
 </g>
</svg>
