<svg id="SVGRoot" width="206px" height="206px" version="1.1" viewBox="0 0 206 206" xmlns="http://www.w3.org/2000/svg">
 <g transform="matrix(3.7795 0 0 3.7795 452.76 -252.8)">
  <rect x="-118.35" y="68.329" width="52.258" height="52.258" fill="#fff" stroke="#000" stroke-linecap="round" stroke-width=".5" style="paint-order:fill markers stroke"/>
  <text x="-92.13224" y="116.13725" font-family="sans-serif" font-size="6.35px" letter-spacing="0px" stroke-width=".26458" text-align="center" text-anchor="middle" word-spacing="0px" style="line-height:0.94999999" xml:space="preserve"><tspan x="-92.13224" y="116.13725" font-family="sans-serif"  class="svgT" letter-spacing=".5px" font-size="5.2px"  stroke-width=".26458" text-align="center" text-anchor="middle">Show Log</tspan></text>
  <g transform="matrix(.62225 0 0 .62225 -112.13 67.399)">
   <path d="m25.625 22.481a1.5 1.5 0 01-1.5 1.5h-7.925a1.5 1.5 0 010-3h7.926a1.5 1.5 0 011.499 1.5zm-1.5 6.463h-7.925a1.5 1.5 0 000 3h7.926a1.5 1.5 0 000-3zm15.75-4.963h7.925a1.5 1.5 0 000-3h-7.925a1.5 1.5 0 000 3zm0 7.963h7.925a1.5 1.5 0 000-3h-7.925a1.5 1.5 0 000 3zm22.2-13.656v32.424a1.5 1.5 0 01-1.5 1.5h-57.15a1.5 1.5 0 01-1.5-1.5v-32.424a1.5 1.5 0 013 0v30.924h25.853l-.53-.7a6.751 6.751 0 00-5.356-2.666h-16.652a1.5 1.5 0 01-1.5-1.5v-31.058a1.5 1.5 0 011.5-1.5h16.652a9.763 9.763 0 017.108 3.106 9.767 9.767 0 017.108-3.106h16.653a1.5 1.5 0 011.5 1.5v31.055a1.5 1.5 0 01-1.5 1.5h-16.653a6.749 6.749 0 00-5.356 2.667l-.53.7h25.853v-30.922a1.5 1.5 0 113 0zm-28.323-.833-.252.334v26.86a9.745 9.745 0 015.608-1.806h15.153v-28.055h-15.153a6.749 6.749 0 00-5.356 2.667zm-3.252 27.194v-26.86l-.252-.334a6.749 6.749 0 00-5.356-2.667h-15.152v28.055h15.152a9.745 9.745 0 015.608 1.806z"/>
  </g>
 </g>
</svg>
