<svg id="SVGRoot" width="206px" height="206px" version="1.1" viewBox="0 0 206 206" xmlns="http://www.w3.org/2000/svg">
 <g transform="matrix(3.7795 0 0 3.7795 -1795.2 2502.6)">
  <flowRoot fill="black" font-family="sans-serif" font-size="40px" letter-spacing="0px" word-spacing="0px" style="line-height:1.25" xml:space="preserve"><flowRegion><rect x="-392.69" y="-63.57" width="758.02" height="397.52"/></flowRegion><flowPara/></flowRoot>
  <flowRoot fill="black" font-family="sans-serif" font-size="40px" letter-spacing="0px" word-spacing="0px" style="line-height:1.25" xml:space="preserve"><flowRegion><rect x="-251.87" y="-84.492" width="624.44" height="455.45"/></flowRegion><flowPara/></flowRoot>
  <flowRoot fill="black" font-family="sans-serif" font-size="40px" letter-spacing="0px" word-spacing="0px" style="line-height:1.25" xml:space="preserve"><flowRegion><rect x="-202.78" y="-50.695" width="473.96" height="281.64"/></flowRegion><flowPara/></flowRoot>
  <flowRoot fill="black" font-family="sans-serif" font-size="40px" letter-spacing="0px" word-spacing="0px" style="line-height:1.25" xml:space="preserve"><flowRegion><rect x="-86.906" y="-78.859" width="516.61" height="410.39"/></flowRegion><flowPara/></flowRoot>
  <flowRoot fill="black" font-family="sans-serif" font-size="40px" letter-spacing="0px" word-spacing="0px" style="line-height:1.25" xml:space="preserve"><flowRegion><rect x="-81.273" y="-32.188" width="309" height="322.68"/></flowRegion><flowPara/></flowRoot>
  <flowRoot fill="black" font-family="sans-serif" font-size="40px" letter-spacing="0px" word-spacing="0px" style="line-height:1.25" xml:space="preserve"><flowRegion><rect x="-90.93" y="-68.398" width="392.69" height="252.67"/></flowRegion><flowPara/></flowRoot>
  <g transform="translate(675.17 -.21291)">
   <flowRoot fill="black" font-family="sans-serif" font-size="40px" letter-spacing="0px" word-spacing="0px" style="line-height:1.25" xml:space="preserve"><flowRegion><rect x="-100.59" y="-53.109" width="462.7" height="369.35"/></flowRegion><flowPara/></flowRoot>
   <g transform="translate(57.194 .21291)">
    <flowRoot fill="black" font-family="sans-serif" font-size="40px" letter-spacing="0px" word-spacing="0px" style="line-height:1.25" xml:space="preserve"><flowRegion><rect x="-329.12" y="-12.07" width="696.05" height="259.91"/></flowRegion><flowPara/></flowRoot>
    <g transform="translate(-1836.7 -629.38)">
     <rect x="1580.3" y="-31.75" width="52.951" height="52.917" fill="#db3b3b" stroke="#000" stroke-linecap="round" stroke-width=".50016" style="paint-order:fill markers stroke"/>
     <text transform="scale(1.0003 .99968)" x="1606.3315" y="16.611044" fill="#ffffff" font-family="voestalpine" font-size="6.352px" letter-spacing="0px" stroke-width=".26467" word-spacing="0px" style="line-height:1.25" xml:space="preserve"><tspan x="1606.3315" y="16.611044" fill="#ffffff" font-size="4.9389px" stroke-width=".26467" text-align="center" text-anchor="middle">Spis ilustracji</tspan></text>
     <rect x="1592.2" y="-25.354" width="29.23" height="3.8758" ry="1.7764" fill="#fff" style="paint-order:fill markers stroke"/>
     <g transform="matrix(.33495 0 0 .33495 1590.3 -25.55)" fill="#fff">
      <g fill="#fff" data-name="Olympus pen">
       <path d="m8.7535 65.711h65.318a4.7268 4.7268 0 004.7178-4.7183v-38.035a4.7263 4.7263 0 00-4.7178-4.7178h-65.318a4.7263 4.7263 0 00-4.7178 4.7178v38.035a4.7268 4.7268 0 004.7178 4.7183zm67.237-2.7988a2.7051 2.7051 0 01-1.919.79883h-65.318a2.7274 2.7274 0 01-2.7178-2.7183v-6.4932h16a.49982.49982 0 00.3963-.19513l9.618-12.503 10.36 12.517a.50006.50006 0 00.75843.01391l5.8596-6.5731 5.6278 6.5657a.49827.49827 0 00.37964.17462h21.754v6.4932a2.706 2.706 0 01-.79883 1.9194zm-69.156-41.874a2.7054 2.7054 0 011.919-.79865h65.318a2.727 2.727 0 012.7178 2.7178v30.542h-21.524l-5.8503-6.8254a.50005.50005 0 00-.75287-.0073l-5.853 6.5656-10.389-12.552a.5.5 0 00-.78149.014l-9.8499 12.805h-15.754v-30.542a2.7052 2.7052 0 01.79877-1.9192z"/>
       <path d="m83.836 29.439a.5.5 0 00-.5.5v36.404a3.2274 3.2274 0 01-3.2178 3.2182h-63.954a.5.5 0 100 1h63.954a4.2271 4.2271 0 004.2178-4.2183v-36.404a.5.5 0 00-.5-.5z"/>
       <path d="m94.5 77.042v-34.042a.5.5 0 00-1 0v34.042a3.2269 3.2269 0 01-3.2178 3.2178h-61.282a.5.5 0 000 1h61.282a4.2267 4.2267 0 004.2178-4.2178z"/>
       <path d="m88.918 37.5a.5.5 0 00-.5.5v33.692a3.2269 3.2269 0 01-3.2178 3.2178h-62.2a.5.5 0 000 1h62.2a4.2267 4.2267 0 004.2178-4.2178v-33.692a.5.5 0 00-.5-.5z"/>
       <path d="m63 38.5a6.5 6.5 0 10-6.5-6.4999 6.5004 6.5004 0 006.5 6.4999zm-3.889-10.389a5.4996 5.4996 0 11-1.611 3.889 5.4808 5.4808 0 011.611-3.889z"/>
      </g>
     </g>
    </g>
   </g>
  </g>
 </g>
</svg>
