<svg id="SVGRoot" width="208" height="208" version="1.1" viewBox="0 0 208 208" xmlns="http://www.w3.org/2000/svg">
 <g transform="translate(0,7)">
  <g transform="matrix(3.7795 0 0 3.7795 10.171 -6.7758)">
   <g transform="translate(-1.0884 -121.69)">
    <g transform="translate(1.6608 -59.209)">
     <g transform="translate(-.6443 -59.335)">
      <g transform="translate(-1396.8 269.89)">
       <g transform="translate(-57.972 -.024822)">
        <g transform="translate(1658.1 73.867)">
         <g transform="translate(-203.03 -103.33)">
          <flowRoot transform="matrix(.26458 0 0 .26458 -2.875 1.091)" fill="#000000" font-family="sans-serif" font-size="40px" letter-spacing="0px" word-spacing="0px" style="line-height:1.25" xml:space="preserve"><flowRegion><rect x="-85.582" y="-60.812" width="342.33" height="293.65"/></flowRegion><flowPara/></flowRoot>
          <g transform="translate(-1039.4 318.88)">
           <flowRoot transform="matrix(.26458 0 0 .26458 1036.5 -317.79)" fill="#000000" font-family="sans-serif" font-size="40px" letter-spacing="0px" word-spacing="0px" style="line-height:1.25" xml:space="preserve"><flowRegion><rect x="-105.21" y="-13.703" width="562.17" height="513.49"/></flowRegion><flowPara/></flowRoot>
           <g transform="translate(-66.134 .039287)">
            <g transform="translate(-66.173 .043409)">
             <flowRoot transform="matrix(.26458 0 0 .26458 1168.8 -317.87)" fill="#000000" font-family="sans-serif" font-size="40px" letter-spacing="0px" word-spacing="0px" style="line-height:1.25" xml:space="preserve"><flowRegion><rect x="-114.63" y="-91.434" width="675.23" height="522.91"/></flowRegion><flowPara/></flowRoot>
             <g transform="translate(-66.2 -.040316)">
              <g transform="translate(-65.918 -.60254)">
               <g transform="translate(-66.6 .14883)">
                <flowRoot fill="black" font-family="sans-serif" font-size="40px" letter-spacing="0px" word-spacing="0px" style="line-height:1.25" xml:space="preserve"><flowRegion><rect x="-24.34" y="-19.695" width="252.04" height="245.75"/></flowRegion><flowPara/></flowRoot>
                <g transform="translate(-68.678 -.48293)">
                 <flowRoot fill="black" font-family="sans-serif" font-size="40px" letter-spacing="0px" word-spacing="0px" style="line-height:1.25" xml:space="preserve"><flowRegion><rect x="-65.168" y="-26.762" width="382.37" height="335.26"/></flowRegion><flowPara/></flowRoot>
                 <g transform="translate(-63.347 .4912)">
                  <g transform="translate(529.82 -.18087)">
                   <g transform="translate(794.67 .06923)">
                    <g transform="translate(-198.36 .17569)">
                     <g transform="translate(-530.68 .043413)">
                      <g transform="translate(912.04 -.041317)">
                       <g transform="translate(132.58 -.39794)">
                        <g transform="translate(-580.62 .35866)">
                         <g transform="translate(-264.6 -.1571)">
                          <g transform="translate(463.55 .097138)">
                           <g transform="translate(-397.36 .059959)">
                            <g transform="translate(66.026 -.30592)">
                             <g transform="translate(-264.69 -.093008)">
                              <g transform="translate(734.89 179.33)">
                               <g transform="translate(-205.07 -178.97)">
                                <g transform="translate(-1081.1 -686.85)">
                                 <flowRoot fill="black" font-family="sans-serif" font-size="40px" letter-spacing="0px" word-spacing="0px" style="line-height:1.25" xml:space="preserve"><flowRegion><rect x="21" y="-71" width="223" height="308"/></flowRegion><flowPara/></flowRoot>
                                 <g transform="translate(-112.28 .55746)">
                                  <flowRoot transform="matrix(.26458 0 0 .26458 1500.7 367.6)" fill="#000000" font-family="sans-serif" font-size="40px" letter-spacing="0px" word-spacing="0px" style="line-height:1.25" xml:space="preserve"><flowRegion><rect x="-6.364" y="-2.0107" width="231.22" height="230.87"/></flowRegion><flowPara/></flowRoot>
                                  <g transform="translate(1386.8 133.57)">
                                   <g transform="translate(-1180.5 267.04)">
                                    <g transform="translate(753.05 -.28062)">
                                     <g transform="translate(747.14 .093556)">
                                      <rect x="-204.7" y="-31.75" width="52.917" height="52.917" fill="#db3b3b" stroke="#000" stroke-linecap="round" stroke-width=".5" style="paint-order:fill markers stroke"/>
                                      <text x="-181.89711" y="-23.188728" fill="#ffffff" font-family="sans-serif" font-size="6.25px" letter-spacing="0px" stroke-width=".29297" word-spacing="0px" style="line-height:1.25" xml:space="preserve"><tspan x="-181.89711" y="-23.188728" fill="#ffffff" font-family="sans-serif" stroke-width=".29297">WSU</tspan></text>
                                      <g transform="matrix(.46786 0 0 .46786 -200.92 -36.943)" fill="#fff">
                                       <g fill="#fff">
                                        <path d="m26.623 37.3c.293.293.677.439 1.061.439s.768-.146 1.061-.439l3.933-3.932h44.012c.828 0 1.5-.671 1.5-1.5s-.672-1.5-1.5-1.5h-44.013l-3.933-3.933c-.586-.586-1.535-.586-2.121 0l-4.372 4.372c-.281.281-.439.663-.439 1.061s.158.779.439 1.061zm6.132-4.011.037-.037c.032.014.007.026-.037.037zm.037-2.806-.037-.037c.044.011.069.023.037.037zm-5.108-.866 2.251 2.251-2.251 2.25-2.251-2.25z"/>
                                        <path d="m76.688 48.5h-44.011l-3.933-3.933c-.586-.586-1.535-.586-2.121 0l-4.372 4.372c-.586.585-.586 1.536 0 2.121l4.372 4.372c.293.293.677.439 1.061.439s.768-.146 1.061-.439l3.933-3.933h44.012c.828 0 1.5-.671 1.5-1.5s-.673-1.499-1.502-1.499zm-49.004 3.751-2.251-2.251 2.251-2.251 2.251 2.251z"/>
                                        <path d="m76.688 66.632h-44.011l-3.933-3.932c-.586-.586-1.535-.586-2.121 0l-4.372 4.372c-.281.281-.439.663-.439 1.061s.158.779.439 1.061l4.372 4.372c.293.293.677.439 1.061.439s.768-.146 1.061-.439l3.933-3.933h44.012c.828 0 1.5-.671 1.5-1.5s-.673-1.501-1.502-1.501zm-49.004 3.751-2.251-2.251 2.251-2.25 2.251 2.25z"/>
                                       </g>
                                      </g>
                                      <text x="-184.1474" y="-15.110612" fill="#ffffff" font-family="sans-serif" font-size="6.25px" letter-spacing="0px" stroke-width=".29297" word-spacing="0px" style="line-height:1.25" xml:space="preserve"><tspan x="-184.1474" y="-15.110612" fill="#ffffff" font-family="sans-serif" stroke-width=".29297">UniAS</tspan></text>
                                      <text x="-193.30298" y="16.983469" fill="#ffffff" font-family="sans-serif" font-size="6.35px" letter-spacing="0px" stroke-width=".26458" word-spacing="0px" style="line-height:1.25" xml:space="preserve"><tspan x="-193.30298" y="16.983469" fill="#ffffff" font-family="sans-serif" font-size="4.9389px" stroke-width=".26458">Spis skrótów</tspan></text>
                                     </g>
                                    </g>
                                   </g>
                                  </g>
                                 </g>
                                </g>
                               </g>
                              </g>
                             </g>
                            </g>
                           </g>
                          </g>
                         </g>
                        </g>
                       </g>
                      </g>
                     </g>
                    </g>
                   </g>
                  </g>
                 </g>
                </g>
               </g>
              </g>
             </g>
            </g>
           </g>
          </g>
         </g>
        </g>
       </g>
      </g>
     </g>
    </g>
   </g>
  </g>
 </g>
</svg>
