<svg id="SVGRoot" width="206px" height="206px" version="1.1" viewBox="0 0 206 206" xmlns="http://www.w3.org/2000/svg">
 <g transform="matrix(3.7795 0 0 3.7795 -1795.2 2502.6)">
  <flowRoot fill="black" font-family="sans-serif" font-size="40px" letter-spacing="0px" word-spacing="0px" style="line-height:1.25" xml:space="preserve"><flowRegion><rect x="-392.69" y="-63.57" width="758.02" height="397.52"/></flowRegion><flowPara/></flowRoot>
  <flowRoot fill="black" font-family="sans-serif" font-size="40px" letter-spacing="0px" word-spacing="0px" style="line-height:1.25" xml:space="preserve"><flowRegion><rect x="-251.87" y="-84.492" width="624.44" height="455.45"/></flowRegion><flowPara/></flowRoot>
  <flowRoot fill="black" font-family="sans-serif" font-size="40px" letter-spacing="0px" word-spacing="0px" style="line-height:1.25" xml:space="preserve"><flowRegion><rect x="-202.78" y="-50.695" width="473.96" height="281.64"/></flowRegion><flowPara/></flowRoot>
  <flowRoot fill="black" font-family="sans-serif" font-size="40px" letter-spacing="0px" word-spacing="0px" style="line-height:1.25" xml:space="preserve"><flowRegion><rect x="-86.906" y="-78.859" width="516.61" height="410.39"/></flowRegion><flowPara/></flowRoot>
  <flowRoot fill="black" font-family="sans-serif" font-size="40px" letter-spacing="0px" word-spacing="0px" style="line-height:1.25" xml:space="preserve"><flowRegion><rect x="-81.273" y="-32.188" width="309" height="322.68"/></flowRegion><flowPara/></flowRoot>
  <g transform="translate(447.73 -2.6078e-6)">
   <rect x="28.514" y="-660.87" width="52.396" height="52.396" fill="#db3b3b" stroke="#000" stroke-linecap="round" stroke-width=".52068" style="paint-order:fill markers stroke"/>
   <text x="54.829727" y="-620.82642" fill="#ffffff" font-family="sans-serif" font-size="4.9389px" letter-spacing="0px" stroke-width=".26458" text-align="center" text-anchor="middle" word-spacing="0px" style="line-height:1.25" xml:space="preserve"><tspan x="54.829727" y="-620.82642" text-align="center">Spis oznaczeń</tspan><tspan x="54.829727" y="-612.88892" text-align="center">graficznych</tspan></text>
   <rect x="38.671" y="-653.42" width="32.741" height="4.1427" ry="2.0713" fill="#fff" style="paint-order:fill markers stroke"/>
   <g transform="matrix(.26458 0 0 .26458 41.812 -649.94)" fill="#fff">
    <path d="m42 19h-18c-2.757 0-5 2.243-5 5v18c0 2.757 2.243 5 5 5h18c2.757 0 5-2.243 5-5v-18c0-2.757-2.243-5-5-5zm-9 20c-1.017 0-1.981-.19-2.853-.524l-3.147.524.402-2.409c-.877-1.002-1.402-2.242-1.402-3.591 0-3.314 3.134-6 7-6s7 2.686 7 6-3.134 6-7 6zm43 14h-18c-2.757 0-5 2.243-5 5v18c0 2.757 2.243 5 5 5h18c2.757 0 5-2.243 5-5v-18c0-2.757-2.243-5-5-5zm-3.624 14.416-7.599 5.066c-.332.221-.777-.017-.777-.416v-10.132c0-.399.445-.638.777-.416l7.599 5.066c.297.198.297.634 0 .832zm-30.376-14.416h-18c-2.757 0-5 2.243-5 5v18c0 2.757 2.243 5 5 5h18c2.757 0 5-2.243 5-5v-18c0-2.757-2.243-5-5-5zm-3 18c0 1.105-.895 2-2 2h-8c-1.105 0-2-.895-2-2v-6h12zm0-7h-12v-1c0-1.105.895-2 2-2h8c1.105 0 2 .895 2 2zm37-45h-18c-2.757 0-5 2.243-5 5v18c0 2.757 2.243 5 5 5h18c2.757 0 5-2.243 5-5v-18c0-2.757-2.243-5-5-5zm-2 18.5c0 .276-.224.5-.5.5h-13c-.276 0-.5-.224-.5-.5v-6.517l7 3.063 7-3.063zm0-7.608-7 3.062-7-3.062v-1.392c0-.276.224-.5.5-.5h13c.276 0 .5.224.5.5z" fill="#fff"/>
   </g>
  </g>
 </g>
</svg>
