<svg id="SVGRoot" width="206px" height="206px" version="1.1" viewBox="0 0 206 206" xmlns="http://www.w3.org/2000/svg">
 <g transform="matrix(3.7795 0 0 3.7795 -1795.2 2502.6)">
  <flowRoot fill="black" font-family="sans-serif" font-size="40px" letter-spacing="0px" word-spacing="0px" style="line-height:1.25" xml:space="preserve"><flowRegion><rect x="-392.69" y="-63.57" width="758.02" height="397.52"/></flowRegion><flowPara/></flowRoot>
  <flowRoot fill="black" font-family="sans-serif" font-size="40px" letter-spacing="0px" word-spacing="0px" style="line-height:1.25" xml:space="preserve"><flowRegion><rect x="-251.87" y="-84.492" width="624.44" height="455.45"/></flowRegion><flowPara/></flowRoot>
  <flowRoot fill="black" font-family="sans-serif" font-size="40px" letter-spacing="0px" word-spacing="0px" style="line-height:1.25" xml:space="preserve"><flowRegion><rect x="-202.78" y="-50.695" width="473.96" height="281.64"/></flowRegion><flowPara/></flowRoot>
  <flowRoot fill="black" font-family="sans-serif" font-size="40px" letter-spacing="0px" word-spacing="0px" style="line-height:1.25" xml:space="preserve"><flowRegion><rect x="-86.906" y="-78.859" width="516.61" height="410.39"/></flowRegion><flowPara/></flowRoot>
  <flowRoot fill="black" font-family="sans-serif" font-size="40px" letter-spacing="0px" word-spacing="0px" style="line-height:1.25" xml:space="preserve"><flowRegion><rect x="-81.273" y="-32.188" width="309" height="322.68"/></flowRegion><flowPara/></flowRoot>
  <flowRoot fill="black" font-family="sans-serif" font-size="40px" letter-spacing="0px" word-spacing="0px" style="line-height:1.25" xml:space="preserve"><flowRegion><rect x="-90.93" y="-68.398" width="392.69" height="252.67"/></flowRegion><flowPara/></flowRoot>
  <g transform="translate(617.45 -2.9063e-6)">
   <rect x="-141.42" y="-660.87" width="52.396" height="52.396" fill="#db3b3b" stroke="#000" stroke-linecap="round" stroke-width=".52068" style="paint-order:fill markers stroke"/>
   <text x="-115.14011" y="-612.86243" font-family="sans-serif" font-size="6.35px" letter-spacing="0px" stroke-width=".26458" text-align="center" text-anchor="middle" word-spacing="0px" style="line-height:1.25" xml:space="preserve"><tspan x="-115.14011" y="-612.86243" fill="#ffffff" font-family="sans-serif" font-size="4.9389px" stroke-width=".26458" text-align="center" text-anchor="middle">Spis treści</tspan></text>
   <g transform="matrix(1.7248 0 0 1.7248 -129.49 -655.46)" fill="#fff">
    <path d="m2.7271 1.0583a.25545.25545 0 00-.25443.25643v14.304a.25545.25545 0 00.25443.25642h11.477a.25545.25545 0 00.25642-.25642v-14.306a.25545.25545 0 00-.25642-.25443h-2.892zm.25494.51085h10.968v13.794h-10.968zm1.4497 1.0222c-.29757 0-.54679.24721-.54679.54478v.88451c0 .29757.24922.54478.54679.54478h3.7466c.29757 0 .5448-.24721.5448-.54478v-.88451c0-.29757-.24723-.54478-.5448-.54478zm0 .51086h3.7466c.0235 0 .03394.0105.03394.0339v.88451c0 .0234-.01047.0339-.03394.0339h-3.7466c-.02325 0-.03594-.0105-.03594-.0339v-.88451c0-.0234.01251-.0339.03594-.0339zm1.1519 3.9596a.25578.25578 0 00.02452.51086h5.7151a.25548.25548 0 000-.51086h-5.7151a.25545.25545 0 00-.02452 0zm0 2.8097a.25578.25578 0 00.02452.51085h5.7151a.25549.25549 0 000-.51085h-5.7151a.25545.25545 0 00-.02452 0zm0 2.8092a.25578.25578 0 00.02452.51085h5.7151a.25548.25548 0 000-.51085h-5.7151a.25545.25545 0 00-.02452 0z" color="#000000" color-rendering="auto" dominant-baseline="auto" fill="#fff" image-rendering="auto" shape-rendering="auto" solid-color="#000000" style="font-feature-settings:normal;font-variant-alternates:normal;font-variant-caps:normal;font-variant-ligatures:normal;font-variant-numeric:normal;font-variant-position:normal;isolation:auto;mix-blend-mode:normal;paint-order:normal;shape-padding:0;text-decoration-color:#000000;text-decoration-line:none;text-decoration-style:solid;text-indent:0;text-orientation:mixed;text-transform:none;white-space:normal"/>
   </g>
  </g>
 </g>
</svg>
