<svg id="SVGRoot" width="206px" height="206px" version="1.1" viewBox="0 0 206 206" xmlns="http://www.w3.org/2000/svg">
 <g transform="matrix(3.7795 0 0 3.7795 -1795.2 2502.6)">
  <flowRoot fill="black" font-family="sans-serif" font-size="40px" letter-spacing="0px" word-spacing="0px" style="line-height:1.25" xml:space="preserve"><flowRegion><rect x="-392.69" y="-63.57" width="758.02" height="397.52"/></flowRegion><flowPara/></flowRoot>
  <flowRoot fill="black" font-family="sans-serif" font-size="40px" letter-spacing="0px" word-spacing="0px" style="line-height:1.25" xml:space="preserve"><flowRegion><rect x="-251.87" y="-84.492" width="624.44" height="455.45"/></flowRegion><flowPara/></flowRoot>
  <flowRoot fill="black" font-family="sans-serif" font-size="40px" letter-spacing="0px" word-spacing="0px" style="line-height:1.25" xml:space="preserve"><flowRegion><rect x="-202.78" y="-50.695" width="473.96" height="281.64"/></flowRegion><flowPara/></flowRoot>
  <flowRoot fill="black" font-family="sans-serif" font-size="40px" letter-spacing="0px" word-spacing="0px" style="line-height:1.25" xml:space="preserve"><flowRegion><rect x="-86.906" y="-78.859" width="516.61" height="410.39"/></flowRegion><flowPara/></flowRoot>
  <flowRoot fill="black" font-family="sans-serif" font-size="40px" letter-spacing="0px" word-spacing="0px" style="line-height:1.25" xml:space="preserve"><flowRegion><rect x="-81.273" y="-32.188" width="309" height="322.68"/></flowRegion><flowPara/></flowRoot>
  <flowRoot fill="black" font-family="sans-serif" font-size="40px" letter-spacing="0px" word-spacing="0px" style="line-height:1.25" xml:space="preserve"><flowRegion><rect x="-90.93" y="-68.398" width="392.69" height="252.67"/></flowRegion><flowPara/></flowRoot>
  <g transform="translate(504.12 -2.9244e-6)">
   <rect x="-27.88" y="-660.87" width="52.396" height="52.396" fill="#db3b3b" stroke="#000" stroke-linecap="round" stroke-width=".52068" style="paint-order:fill markers stroke"/>
   <text x="-1.7494347" y="-612.86243" font-family="sans-serif" font-size="6.35px" letter-spacing="0px" stroke-width=".26458" text-align="center" text-anchor="middle" word-spacing="0px" style="line-height:1.25" xml:space="preserve"><tspan x="-1.7494339" y="-612.86243" fill="#ffffff" font-family="sans-serif" font-size="4.9389px" stroke-width=".26458" text-align="center" text-anchor="middle">Spis rysunków</tspan></text>
   <g transform="matrix(.70273 0 0 .70273 -12.597 -647.56)" fill="#fff">
    <path d="m27 2h-22a3 3 0 00-3 3v22a3 3 0 003 3h22a3 3 0 003-3v-22a3 3 0 00-3-3zm-22 2h22a1 1 0 011 1v13.83l-4.36-3.63a1 1 0 00-1.27 0l-4.3 3.44-6.37-6.37a1 1 0 00-1.31-.09l-6.39 4.82v-12a1 1 0 011-1zm22 24h-22a1 1 0 01-1-1v-7.5l6.91-5.18 10.38 10.36a1 1 0 001.41-1.41l-3.2-3.22 3.5-2.79 5 4.18v5.56a1 1 0 01-1 1z"/>
    <path d="m20.5 13a3.5 3.5 0 10-3.5-3.53 3.5 3.5 0 003.5 3.53zm0-5a1.5 1.5 0 11-1.5 1.47 1.5 1.5 0 011.5-1.47z"/>
   </g>
   <rect x="-17.723" y="-653.42" width="32.741" height="4.1427" ry="2.0713" fill="#fff" style="paint-order:fill markers stroke"/>
  </g>
 </g>
</svg>
