<svg id="SVGRoot" width="206px" height="206px" version="1.1" viewBox="0 0 206 206" xmlns="http://www.w3.org/2000/svg">
 <g transform="matrix(3.7795 0 0 3.7795 -1795.2 2502.6)">
  <rect x="476.46" y="-660.87" width="52.396" height="52.396" fill="#db3b3b" stroke="#000" stroke-linecap="round" stroke-width=".52068" style="paint-order:fill markers stroke"/>
  <text x="502.79269" y="-612.86243" font-family="sans-serif" font-size="6.35px" letter-spacing="0px" stroke-width=".26458" text-align="center" text-anchor="middle" word-spacing="0px" style="line-height:1.25" xml:space="preserve"><tspan x="502.79269" y="-612.86243" fill="#ffffff" font-family="sans-serif" class="svgT" letter-spacing=".5px" font-size="5.2px" stroke-width=".26458" text-align="center" text-anchor="middle">Stopka ostatnia</tspan></text>
  <g transform="translate(-278.79 -630.33)">
   <g transform="matrix(-.44097 0 0 -.44097 795.01 2.2571)" fill="#fff">
    <g fill="#fff">
     <path d="m0 0v58h60v-58zm58 56h-56v-54h56z"/>
     <path d="m30.71 27.79c-0.09-0.09-0.2-0.17-0.33-0.22-0.24-0.1-0.52-0.1-0.76 0-0.12 0.05-0.23 0.12-0.33 0.22l-8 8c-0.39 0.39-0.39 1.02 0 1.41 0.2 0.2 0.45 0.29 0.71 0.29s0.51-0.1 0.71-0.29l6.29-6.29v17.59c0 0.55 0.45 1 1 1s1-0.45 1-1v-17.59l6.29 6.29c0.2 0.2 0.45 0.29 0.71 0.29s0.51-0.1 0.71-0.29c0.39-0.39 0.39-1.02 0-1.41z"/>
    </g>
   </g>
   <g transform="matrix(.16562 0 0 .13073 771.01 -12.481)" fill="#feffff">
    <path d="m123.73 82.662c1.4079-0.0672 2.8868-0.7036 3.8913-1.8485 1.0082-1.1262 1.5463-2.6623 1.335-4.1218-0.1807-1.4669-1.1389-2.8924-2.7041-3.4784 1.8202-0.8329 2.6884-2.7262 2.4029-4.5024-0.2567-1.8364-1.7005-3.3162-3.3017-3.5003-1.6017-0.2416-3.0586 0.8242-3.3365 2.0751-0.3302 1.2552 0.378 2.3898 1.1696 2.7423 0.9897 0.4997 1.9564 0.1809 2.2814-0.3481 0.2471-0.3791-0.0903 0.0372-0.4422 0.2191-0.351 0.196-1.028 0.2625-1.701-0.1235-0.6765-0.349-1.2194-1.3334-0.9092-2.3799 0.2642-1.0367 1.5194-1.9036 2.8617-1.6674 1.3483 0.1826 2.569 1.4703 2.7704 3.0698 0.2662 1.5726-0.7027 3.4327-2.4327 3.9528-0.8419 0.2673-1.803 0.2111-2.672-0.1642-0.8697-0.3487-1.632-1.0202-2.2805-1.7916-1.1202-1.3621-1.8684-3.1124-2.0473-4.9629 0.0273-0.2728 0.0417-0.5484 0.0417-0.8263 0-0.2782-0.0145-0.5531-0.0417-0.8242 0.1797-1.8502 0.9326-3.6006 2.0494-4.9659 0.6463-0.7735 1.4067-1.4474 2.2754-1.7966 0.8686-0.3754 1.8299-0.4322 2.6723-0.1657 1.7308 0.5178 2.7009 2.3772 2.4358 3.9501-0.2003 1.6001-1.4198 2.8878-2.7682 3.0726-1.3426 0.2409-2.5945-0.6324-2.861-1.6683-0.3165-1.0455 0.2306-2.0299 0.9059-2.379 0.673-0.386 1.35-0.3195 1.701-0.1236 0.3661 0.1893 0.4888 0.3994 0.5195 0.3732 0.0987-0.0665-0.8198-1.279-2.3589-0.5021-0.7901 0.3522-1.5033 1.4878-1.166 2.7427 0.2792 1.247 1.7326 2.3215 3.3365 2.0745 1.6001-0.1863 3.0434-1.6667 3.2984-3.5034 0.2834-1.7714-0.5775-3.6659-2.4065-4.5002 0.1204-0.045 0.2408-0.0904 0.3575-0.1481 1.2366-0.5766 2.1709-1.8797 2.3498-3.3316 0.2113-1.4595-0.3268-2.9957-1.335-4.1218-1.8424-2.1-5.2308-2.5485-7.7116-0.673-1.5811 1.2807-2.9524 2.4374-4.1665 3.4683 0.0953-0.2151 0.1965-0.4287 0.2611-0.6514 0.5158-1.8155-0.1343-3.8872-1.5265-5.0668-1.7514-1.4847-4.2219-0.9787-5.1557 0.5121-0.7299 1.1059-0.2819 2.6138 0.6975 3.2308 0.7173 0.437 1.1868 0.2253 1.1609 0.1969 8e-3 -0.0833-0.429-0.0309-0.9484-0.4799-0.6491-0.5616-0.9825-1.7283-0.3449-2.5632 0.7436-1.0168 2.6064-1.381 3.9442-0.1577 1.2923 1.1733 1.7916 3.6693 0.2583 5.3845-0.7043 0.8624-1.7718 1.5174-2.9662 1.8287-1.9661 0.494-4.0397-0.0208-5.8471-0.9034-1.122-0.5343-22.756-13.837-24.824-14.788-1.8803-0.8517-3.976-1.2074-5.9903-1.012-2.0136 0.1887-3.9383 0.8953-5.5481 2.0291-1.7965 1.2477-3.1262 3.0038-3.9123 4.9345-0.7857-1.9294-2.1144-3.6846-3.9092-4.9321-3.215-2.2668-7.6153-2.7969-11.539-1.0208-1.8275 0.8386-23.992 14.39-24.826 14.788-1.8072 0.8826-3.8808 1.398-5.8474 0.9042-3.8663-1.0069-5.1362-5.009-2.7092-7.2132 1.8708-1.711 4.7693-0.3242 4.2244 1.6729-0.3737 1.4216-1.5832 1.4287-1.5732 1.5276-0.1233 0.1354 1.4476 0.2851 2.0709-1.3696 1.0395-2.521-2.7618-4.7799-5.3686-2.5699-1.4462 1.2257-2.2308 3.5394-1.2649 5.7179-1.2138-1.0308-2.585-2.1872-4.1657-3.4677-1.0202-0.7717-2.3928-1.2646-3.8198-1.1763-3.2404 0.1455-5.6355 3.053-5.2261 5.9681 0.1748 1.4499 1.1008 2.7553 2.3421 3.339 0.1161 0.0574 0.2349 0.1014 0.3536 0.1457-0.8044 0.3795-1.467 0.9869-1.89 1.7175-0.4909 0.8707-0.6523 1.8707-0.5055 2.7837 0.2577 1.8359 1.7022 3.3146 3.3032 3.4978 1.6015 0.2406 3.0574-0.8258 3.335-2.0765 0.3295-1.2551-0.3787-2.3893-1.1704-2.7416-0.9896-0.4993-1.956-0.1805-2.2811 0.3484-0.0625 0.096-0.0878 0.147-0.0773 0.1541 0.0307 0.0262 0.1534-0.1839 0.5194-0.3731 0.3509-0.196 1.0278-0.2626 1.7007 0.1232 0.6767 0.3487 1.2196 1.3328 0.9099 2.3793-0.2639 1.0365-1.5181 1.904-2.8604 1.6685-1.3481-0.1817-2.5694-1.4684-2.7718-3.0675-0.1155-0.7907 0.0396-1.6408 0.46-2.3681 0.4281-0.7219 1.1374-1.3203 1.9742-1.5919 0.8383-0.2736 1.8008-0.2048 2.6649 0.1652 0.8743 0.3627 1.62 1.0294 2.2768 1.8078 1.1406 1.3467 1.8863 3.0926 2.0592 4.9433-0.0285 0.2785-0.0444 0.5595-0.0444 0.843 0 0.2831 0.0147 0.5628 0.043 0.8385-0.174 1.8447-0.9157 3.5851-2.0518 4.9287-0.6596 0.7718-1.3956 1.468-2.2684 1.8126-1.8975 0.7943-3.7392 0.1068-4.6479-1.4156-0.434-0.7196-0.5726-1.5774-0.4689-2.3684 0.1904-1.5957 1.4217-2.8925 2.7627-3.0768 1.2537-0.1975 2.4902 0.4315 2.8588 1.6665 0.555 1.6863-1.2096 3.1847-2.5928 2.4999-0.3738-0.1819-0.4962-0.3907-0.523-0.3677-0.0153 0.0026 0.0645 0.2516 0.4516 0.4986 0.9181 0.599 2.3292 0.1368 2.915-1.029 0.2458-0.4832 0.3159-1.109 0.1468-1.7157-0.3898-1.472-1.8344-2.27-3.331-2.0702-1.6036 0.1912-3.0447 1.6697-3.2957 3.511-0.1336 0.9105 0.0095 1.9151 0.516 2.7817 0.4232 0.7263 1.0836 1.3302 1.8846 1.7078-0.119 0.0445-0.238 0.0891-0.3537 0.1469-1.2415 0.5835-2.1676 1.8886-2.3429 3.3386-0.2049 1.4508 0.3155 3.0054 1.3313 4.1229 1.8774 2.1428 5.3275 2.5018 7.7147 0.6719 1.5803-1.2837 2.9517-2.439 4.1657-3.4698-0.095 0.2143-0.196 0.4272-0.2606 0.649-0.19 0.6662-0.2161 1.341-0.1297 1.9707 0.1769 1.2604 0.7891 2.364 1.6541 3.0975 1.7605 1.4928 4.2275 0.9712 5.1566-0.5103 0.7303-1.1056 0.2822-2.6141-0.6969-3.2314-0.7174-0.4371-1.187-0.2254-1.161-0.197-0.0085 0.0833 0.4291 0.0309 0.9485 0.48 0.6493 0.5618 0.9825 1.7287 0.3445 2.5637-0.744 1.0161-2.6067 1.3802-3.9449 0.1564-2.4722-2.2462-1.1019-6.2215 2.7118-7.2131 2.8534-0.7156 5.325 0.5552 7.8151 2.0447 1.4287 0.8665 21.355 12.96 22.863 13.651 3.8782 1.7534 8.2944 1.2704 11.542-1.0243 1.6453-1.1634 3.0326-2.77 3.9015-4.9257 2.4984 6.1259 9.5622 8.6108 15.446 5.9476 2.0174-0.9259 23.952-14.372 24.826-14.788 1.8076-0.8826 3.8809-1.3979 5.8474-0.9042 5.7791 1.505 4.3261 8.4224 0.5091 7.9737-1.3138-0.1325-2.3747-1.1488-2.0242-2.4336 0.3759-1.43 1.5833-1.4287 1.5732-1.5276 0.1239-0.1357-1.4477-0.285-2.0709 1.3696-0.5656 1.3718 0.4103 3.0984 2.4095 3.421 2.0788 0.3803 4.2446-1.3228 4.6138-3.9479 0.0866-0.6296 0.0606-1.3043-0.1289-1.9706-0.0646-0.2223-0.1657-0.4358-0.261-0.6506 1.214 1.0309 2.5854 2.1876 4.1666 3.4684 1.02 0.7717 2.3928 1.2644 3.8198 1.1757zm-53.832-41.707c2.7224-1.9191 6.599-2.33 9.8332-0.8266 1.5612 0.7196 23.104 13.719 24.896 14.541 2.8513 1.3254 5.6017 1.3653 7.3802 0.7512 1.4714-0.4785 2.4123-1.3125 3.6455-2.219 1.4035-1.0744 3.0714-2.3512 4.9228-3.7685 2.0651-1.4679 4.6992-1.0431 6.1292 0.5773 0.7891 0.883 1.2026 2.0657 1.0555 3.1463-0.1247 1.0875-0.7769 2.0256-1.6605 2.4712-1.9049 0.996-3.975-0.4285-3.9992-1.8906-0.0669-1.2363 1.2415-2.1168 2.4359-1.6113 0.8417 0.3589 0.8948 1.0037 0.9899 0.9706 0.118-0.0038 0.115-0.8702-0.7703-1.3962-1.4895-0.9138-3.5091 0.2127-3.5255 2.035-0.0462 1.0066 0.5629 2.1751 1.8966 2.8827-0.1522 0.0467-0.3071 0.0848-0.4538 0.1469-1.0266 0.4094-1.8628 1.1555-2.5676 1.9891-0.855 1.0361-1.5103 2.2751-1.8933 3.6169-1.0999-3.2172-4.1463-5.5402-7.7318-5.5402h-20.268c1.4444-0.7276 2.2407-2.1547 2.3221-3.5735 0.1156-1.4701-0.5214-2.9679-1.601-4.0259-1.9756-1.9755-5.386-2.2018-7.739-0.1689-1.4054 1.299-2.6349 2.4783-3.729 3.5364 0.7556-2.0171 0.3329-3.8894-0.7917-5.1468-1.3171-1.5188-3.3412-1.9839-5.1274-1.3236-2.6918 0.9954-2.6795 3.583-2.4429 3.5214 0.1382 0.0039 0.1585-2.1579 2.6576-2.8724 1.2223-0.3819 3.0364-0.1457 4.159 1.3039 2.7989 3.4845-1.9304 9.1463-7.201 7.4891-2.5356-0.7853-4.6981-3.3661-4.8678-6.4073-0.2642-3.0202 1.2911-6.332 4.046-8.2079zm18.342 37.123c0.9161-0.4662 0.9777-1.3314 0.8597-1.343-0.0927-0.0393-0.1878 0.6007-1.051 0.9039-1.2207 0.4253-2.4735-0.5336-2.3256-1.7665 0.0586-0.7151 0.6177-1.4185 1.4374-1.7892 0.7957-0.3902 1.8319-0.351 2.6766 0.1634 0.8527 0.5021 1.4424 1.4808 1.4958 2.5741 0.0763 1.0879-0.4135 2.2411-1.2584 3.0707-1.535 1.526-4.1914 1.7738-6.1538 0.1766-5.8625-5.1273-6.8108-6.1469-8.9636-6.8962h11.746c-1.0504 0.5256-1.8273 1.5646-1.8482 2.6457-0.1028 1.8233 1.8418 3.0738 3.3852 2.2605zm-23.242-0.2781c-0.3182-0.7139-0.7086-1.389-1.1818-1.9869-0.9996-1.2797-2.3766-2.1604-3.8214-2.6412h9.9524c-2.1208 0.7267-3.9605 2.4317-4.9492 4.6281zm-14.247-1.8139c-1.3303 1.1634-2.9111 2.5461-4.6659 4.0808-0.819 0.6671-1.8828 1.099-3.0155 1.0896-2.6361 0.0015-4.5453-2.2103-4.3984-4.3323 0.0835-2.0915 2.1611-3.6498 4.1794-2.7359 0.8084 0.362 1.3749 1.0721 1.4308 1.785 0.0857 0.7187-0.3223 1.3387-0.8327 1.6269-0.51 0.3003-1.0858 0.2808-1.4932 0.1388-0.8631-0.3032-0.9582-0.943-1.0509-0.9038-0.0332 0.0033-0.0742 0.155 0.0116 0.4331 0.2958 0.8731 1.621 1.5081 2.8447 0.9449 0.7413-0.3164 1.4493-1.2085 1.3888-2.2943-0.0237-1.0812-0.7889-2.1174-1.8523-2.6469h11.706c-1.9904 0.6898-3.5125 2.1919-4.2526 2.8141zm-31.238-3.7196c-4.0036 0-7.2607-3.2571-7.2607-7.2607 0-1.9356 0.7556-3.7633 2.1263-5.1441 1.3711-1.3707 3.1945-2.1258 5.1344-2.1258h90.97c4.0089 0 7.2704 3.2615 7.2704 7.2699 0 1.9428-0.7585 3.7662-2.1364 5.1344-1.3716 1.3711-3.1945 2.1263-5.1339 2.1263zm22.249-20.347c-0.8793 0.4596-0.9945 1.3339-0.857 1.3475 0.0845 0.0389 0.1962-0.5973 1.0479-0.9084 1.2738-0.4199 2.473 0.5817 2.3313 1.7699-0.0599 0.7022-0.624 1.4199-1.4376 1.7822-0.8062 0.3734-1.8411 0.3714-2.6828-0.1493-0.844-0.4964-1.4395-1.4814-1.4902-2.5776-0.0667-1.0931 0.3949-2.2401 1.2516-3.0726 0.8441-0.8419 1.9974-1.2695 3.1339-1.2571 1.2454 0.0078 1.9945 0.4105 3.048 1.1208 1.8154 1.3249 3.274 2.8888 4.6227 4.0538 1.0702 0.9623 2.0697 1.6879 2.9227 2.1394 0.4392 0.2574 0.8989 0.4894 1.3961 0.6624h-11.761c8e-4 -4e-4 0.0017-7e-4 0.0017-7e-4 1.0628-0.5278 1.8328-1.5609 1.863-2.6486 0.0922-1.7999-1.8218-3.0716-3.3906-2.2617zm23.241 0.2904c0.9896 2.1926 2.8268 3.8948 4.945 4.6207h-9.891c2.1186-0.7257 3.9563-2.4279 4.946-4.6207zm18.918-2.2759c1.9584-1.5937 4.6147-1.3535 6.1538 0.1766 0.8449 0.8296 1.3347 1.9828 1.2584 3.0707-0.1123 2.2977-2.4076 3.6029-4.1724 2.7375-0.8197-0.3707-1.3787-1.0742-1.4374-1.7892-0.0862-0.7189 0.3218-1.3391 0.8322-1.6275 0.5099-0.3005 1.0859-0.2811 1.4934-0.1391 0.8633 0.3032 0.9583 0.9432 1.051 0.904 0.0332-0.0033 0.0742-0.155-0.0116-0.4332-0.2962-0.8735-1.6219-1.508-2.8453-0.9445-0.7413 0.3167-1.4492 1.2091-1.3881 2.2952 0.021 1.0813 0.798 2.1205 1.8489 2.6461h-11.758c2.1309-0.7286 2.9024-1.5852 8.9754-6.8966zm-74.035 8.8186c-0.7006-0.8241-1.5426-1.5787-2.558-1.9924-0.148-0.0622-0.3039-0.1011-0.4572-0.1482 0.0722-0.0363 0.1471-0.0693 0.2159-0.1097 1.0319-0.5964 1.7322-1.6841 1.6854-2.7678-0.0102-1.0876-0.7747-1.9319-1.5351-2.1994-1.2567-0.482-2.5388 0.2368-2.7775 1.1282-0.0674 0.2832-0.0166 0.4319 0.0167 0.433 0.0951 0.0332 0.1482-0.6116 0.9898-0.9705 0.3973-0.1683 0.9707-0.2253 1.4992 0.0414 0.5281 0.2543 0.9757 0.8466 0.9368 1.5695-0.0094 0.7151-0.5287 1.4606-1.3118 1.8744-0.7772 0.4126-1.8344 0.4858-2.6946 0.0211-0.8739-0.4418-1.5324-1.3871-1.6518-2.4786-0.2784-2.2028 1.5447-4.4543 4.1033-4.6104 1.1298-0.0836 2.2196 0.2779 3.0806 0.8901 5.932 4.541 7.736 6.1713 9.6985 6.2115 2.1676 0.4163 4.2731-0.0569 6.2508-0.9764 1.9481-0.8935 23.401-13.852 24.898-14.541 3.2347-1.5027 7.1116-1.0904 9.8334 0.8298 2.7543 1.877 4.3091 5.1894 4.0429 8.21-0.1712 3.0411-2.3356 5.6213-4.8718 6.4044-2.5613 0.8201-5.2992-0.2175-6.7514-1.9686-1.7039-2.0154-1.504-4.2548-0.4494-5.5246 0.9355-1.2034 2.6294-1.7594 4.1627-1.3058 1.2599 0.3802 1.9922 1.2162 2.2896 1.8398 0.3102 0.6327 0.2917 1.0397 0.3684 1.0376 0.2465 0.0641 0.2785-2.4792-2.4393-3.525-1.7712-0.6723-3.8775-0.1364-5.134 1.3229-1.0922 1.2031-1.544 3.2047-0.7984 5.1374-1.049-1.0842-2.2194-2.3384-3.755-3.5276-1.1973-0.8543-2.2062-1.399-3.706-1.4086-1.4086-0.0383-2.9287 0.5055-4.0043 1.585-1.0854 1.0494-1.7034 2.5676-1.592 4.0279 0.0808 1.4164 0.8692 2.837 2.3038 3.5688h-20.261c-2.1817 0-4.2324 0.8491-5.7759 2.3922-0.8912 0.8978-1.5422 1.966-1.9401 3.1253-0.3816-1.3397-1.0396-2.5772-1.9107-3.5955zm50.229 30.294c-2.7238 1.9128-6.5988 2.3345-9.8352 0.831-0.5901-0.2711-13.635-8.011-22.81-13.386-2.863-1.6423-6.0545-3.09-9.4742-1.9092-0.4872 0.1585-1.0669 0.4146-1.6861 0.8012-0.6281 0.3948-1.2441 0.892-1.9592 1.4177-1.4029 1.0745-3.0701 2.3516-4.9208 3.7691-2.1035 1.4853-4.7324 1.0138-6.1328-0.5744-0.8014-0.8863-1.1895-2.0606-1.0527-3.1476 0.1197-1.0914 0.7783-2.0367 1.6523-2.4782 1.7917-0.9554 3.9764 0.353 4.0084 1.8953 0.065 1.201-1.2027 2.1159-2.4415 1.6159-0.83-0.3659-0.9-1.0082-0.9869-0.975-0.037 0.0013-0.0874 0.1515-0.0147 0.4326 0.0737 0.2742 0.2988 0.674 0.7825 0.9683 1.5176 0.9126 3.5066-0.2407 3.5305-2.0385 0.0397-1.0878-0.6623-2.1686-1.6885-2.7635-0.0696-0.0424-0.1458-0.0769-0.2193-0.1148 0.158-0.0476 0.3184-0.0881 0.4708-0.1508 1.0326-0.406 1.8492-1.182 2.5545-1.9997 0.8677-1.0161 1.5227-2.2503 1.9033-3.5857 1.1032 3.2054 4.1417 5.5182 7.717 5.5182h20.261c-1.3715 0.6931-2.2168 2.1108-2.306 3.5778-0.222 2.8558 2.3053 5.6717 5.6078 5.6121 1.4295-0.0052 2.7668-0.5868 3.7343-1.4235 1.4044-1.2982 2.6336-2.4771 3.7272-3.5348-0.7676 2.0491-0.2981 3.9316 0.788 5.1501 1.2574 1.4615 3.3655 1.9951 5.1342 1.3239 2.7289-1.0497 2.6611-3.5829 2.4398-3.5251-0.1408-4e-3 -0.1013 2.1061-2.6585 2.8775-1.533 0.4533-3.2276-0.1025-4.1628-1.3066-1.3193-1.6322-0.9325-3.9222 0.4431-5.5386 0.7615-0.845 1.767-1.5833 2.9524-1.9458 2.6744-0.8646 5.605 0.2942 7.1335 2.3342 0.8563 1.1279 1.4406 2.5424 1.5455 4.0532 0.2425 3.0606-1.2334 6.2668-4.0372 8.2198zm44.512-13.712c-1.6954 0.7776-23.626 13.956-24.898 14.541-6.8588 3.1862-14.476-2.2296-13.876-9.0398 0.1712-3.0411 2.3356-5.6213 4.8718-6.4044 3.8939-1.2468 7.8842 1.7634 8.0051 4.8618 0.1047 2.0093-1.1581 3.5146-2.8583 3.965-1.9057 0.4858-3.7483-0.5053-4.3981-1.8677-0.3102-0.6326-0.2918-1.0397-0.3685-1.0375-0.0408-0.0107-0.1933 0.4082 0.0405 1.1703 0.4716 1.5885 2.5313 3.0151 4.913 2.5508 2.1431-0.4342 3.83-2.2941 3.7876-4.8271-0.0038-0.6198-0.1402-1.2388-0.3709-1.8352 1.092 1.0561 2.3189 2.2329 3.7208 3.5286 2.3517 2.0317 5.762 1.8078 7.739-0.1689 1.0796-1.058 1.7166-2.5558 1.601-4.0259-0.0838-1.4604-0.9311-2.8217-2.1276-3.4776-0.0629-0.0364-0.1294-0.063-0.1938-0.0955h20.268c2.1812 0 4.2319-0.8491 5.773-2.3902 0.9016-0.8954 1.5592-1.9676 1.9584-3.1356 0.3819 1.3404 1.0352 2.5791 1.8927 3.6122 0.7075 0.832 1.546 1.5749 2.5721 1.9829 0.1446 0.0612 0.2974 0.0986 0.4474 0.1448-0.0718 0.0382-0.1465 0.0725-0.2145 0.1156-1.0181 0.5921-1.7289 1.6827-1.6791 2.7656 0.01 1.0877 0.7744 1.9322 1.5348 2.1999 1.2569 0.4822 2.5391-0.2366 2.7777-1.1281 0.0674-0.2832 0.0166-0.4319-0.0167-0.433-0.0951-0.0332-0.1482 0.6116-0.9899 0.9705-0.3974 0.1683-0.9709 0.2252-1.4993-0.0415-0.5281-0.2545-0.9757-0.8468-0.9365-1.5697 0.0118-0.7174 0.5238-1.4558 1.3176-1.8792 1.6999-0.9759 4.0794 0.1687 4.3421 2.4598 0.1471 1.0806-0.2665 2.2634-1.0555 3.1463-1.4323 1.6232-4.0666 2.0433-6.1292 0.5774-1.8514-1.4173-3.5193-2.6941-4.9228-3.7685-1.0135-0.745-2.9341-2.4055-4.7763-2.4436-2.1426-0.4115-4.2417 0.0421-6.2513 0.9764z" fill="#feffff"/>
   </g>
  </g>
 </g>
</svg>
