<svg id="SVGRoot" width="206px" height="206px" version="1.1" viewBox="0 0 206 206" xmlns="http://www.w3.org/2000/svg">
 <g transform="matrix(3.7795 0 0 3.7795 -1795.2 2502.6)">
  <flowRoot fill="black" font-family="sans-serif" font-size="40px" letter-spacing="0px" word-spacing="0px" style="line-height:1.25" xml:space="preserve"><flowRegion><rect x="-392.69" y="-63.57" width="758.02" height="397.52"/></flowRegion><flowPara/></flowRoot>
  <g transform="translate(54.498 .2129)">
   <rect x="421.75" y="-660.87" width="52.396" height="52.396" fill="#db3b3b" stroke="#000" stroke-linecap="round" stroke-width=".52068" style="paint-order:fill markers stroke"/>
   <text x="448.07932" y="-613.07532" font-family="sans-serif" font-size="6.35px" letter-spacing="0px" stroke-width=".26458" text-align="center" text-anchor="middle" word-spacing="0px" style="line-height:1.25" xml:space="preserve"><tspan x="448.07932" y="-613.07532" fill="#ffffff" font-family="sans-serif" font-size="4.9389px" stroke-width=".26458" text-align="center" text-anchor="middle">Stopka zwykła</tspan></text>
   <g transform="matrix(-.44097 0 0 -.44097 461.5 -628.07)" fill="#fff">
    <g fill="#fff">
     <path d="m0 0v58h60v-58zm58 56h-56v-54h56z"/>
     <path d="m51 21v-12h-42v12zm-35.41-10 8 8h-4.17l-8-8zm7 0 8 8h-4.17l-8-8zm7 0 8 8h-4.17l-8-8zm7 0 8 8h-4.17l-8-8zm10.82 8-8-8h4.17l5.42 5.41v2.59zm1.59-5.41-2.59-2.59h2.59zm-38-0.18 5.59 5.59h-5.59z"/>
     <path d="m30.71 27.79c-0.09-0.09-0.2-0.17-0.33-0.22-0.24-0.1-0.52-0.1-0.76 0-0.12 0.05-0.23 0.12-0.33 0.22l-8 8c-0.39 0.39-0.39 1.02 0 1.41 0.2 0.2 0.45 0.29 0.71 0.29s0.51-0.1 0.71-0.29l6.29-6.29v17.59c0 0.55 0.45 1 1 1s1-0.45 1-1v-17.59l6.29 6.29c0.2 0.2 0.45 0.29 0.71 0.29s0.51-0.1 0.71-0.29c0.39-0.39 0.39-1.02 0-1.41z"/>
    </g>
   </g>
  </g>
 </g>
</svg>
