<?xml version="1.0" encoding="UTF-8" standalone="no"?>
<svg
   xmlns:osb="http://www.openswatchbook.org/uri/2009/osb"
   xmlns:dc="http://purl.org/dc/elements/1.1/"
   xmlns:cc="http://creativecommons.org/ns#"
   xmlns:rdf="http://www.w3.org/1999/02/22-rdf-syntax-ns#"
   xmlns:svg="http://www.w3.org/2000/svg"
   xmlns="http://www.w3.org/2000/svg"
   id="svg47"
   version="1.1"
   viewBox="0 0 52.758294 52.758296"
   height="199.40143"
   width="199.40143">
  <defs
     id="defs42">
    <pattern
       id="EMFhbasepattern"
       patternUnits="userSpaceOnUse"
       width="6"
       height="6"
       x="0"
       y="0" />
    <marker
       style="overflow:visible"
       id="Arrow1Mend-5-0"
       refX="0"
       refY="0"
       orient="auto">
      <path
         transform="matrix(-0.4,0,0,-0.4,-4,0)"
         style="fill:#000000;fill-opacity:1;fill-rule:evenodd;stroke:#000000;stroke-width:1.00000003pt;stroke-opacity:1"
         d="M 0,0 5,-5 -12.5,0 5,5 Z"
         id="path1146-3-3" />
    </marker>
    <marker
       style="overflow:visible"
       id="Arrow1Mend-5-3"
       refX="0"
       refY="0"
       orient="auto">
      <path
         transform="matrix(-0.4,0,0,-0.4,-4,0)"
         style="fill:#000000;fill-opacity:1;fill-rule:evenodd;stroke:#000000;stroke-width:1.00000003pt;stroke-opacity:1"
         d="M 0,0 5,-5 -12.5,0 5,5 Z"
         id="path1146-3-9" />
    </marker>
    <marker
       orient="auto"
       refY="0"
       refX="0"
       id="Arrow1Mend-5-0-4"
       style="overflow:visible">
      <path
         id="path1146-3-3-8"
         d="M 0,0 5,-5 -12.5,0 5,5 Z"
         style="fill:#ffffff;fill-opacity:1;fill-rule:evenodd;stroke:#ffffff;stroke-width:1.00000003pt;stroke-opacity:1"
         transform="matrix(-0.4,0,0,-0.4,-4,0)" />
    </marker>
    <marker
       orient="auto"
       refY="0"
       refX="0"
       id="Arrow1Mend-5-3-8"
       style="overflow:visible">
      <path
         id="path1146-3-9-5"
         d="M 0,0 5,-5 -12.5,0 5,5 Z"
         style="fill:#ffffff;fill-opacity:1;fill-rule:evenodd;stroke:#ffffff;stroke-width:1.00000003pt;stroke-opacity:1"
         transform="matrix(-0.4,0,0,-0.4,-4,0)" />
    </marker>
    <marker
       style="overflow:visible"
       id="Arrow1Mend"
       refX="0"
       refY="0"
       orient="auto">
      <path
         transform="matrix(-0.4,0,0,-0.4,-4,0)"
         style="fill:#000000;fill-opacity:1;fill-rule:evenodd;stroke:#000000;stroke-width:1.00000003pt;stroke-opacity:1"
         d="M 0,0 5,-5 -12.5,0 5,5 Z"
         id="path1146" />
    </marker>
    <marker
       orient="auto"
       refY="0"
       refX="0"
       id="Arrow1Mend-5"
       style="overflow:visible">
      <path
         id="path1146-3"
         d="M 0,0 5,-5 -12.5,0 5,5 Z"
         style="fill:#ffffff;fill-opacity:1;fill-rule:evenodd;stroke:#ffffff;stroke-width:1.00000003pt;stroke-opacity:1"
         transform="matrix(-0.4,0,0,-0.4,-4,0)" />
    </marker>
    <marker
       style="overflow:visible"
       id="Arrow1Mstart"
       refX="0"
       refY="0"
       orient="auto">
      <path
         transform="matrix(0.4,0,0,0.4,4,0)"
         style="fill:#000000;fill-opacity:1;fill-rule:evenodd;stroke:#000000;stroke-width:1.00000003pt;stroke-opacity:1"
         d="M 0,0 5,-5 -12.5,0 5,5 Z"
         id="path1143" />
    </marker>
    <marker
       orient="auto"
       refY="0"
       refX="0"
       id="Arrow1Mstart-1"
       style="overflow:visible">
      <path
         id="path1143-7"
         d="M 0,0 5,-5 -12.5,0 5,5 Z"
         style="fill:#ffffff;fill-opacity:1;fill-rule:evenodd;stroke:#ffffff;stroke-width:1.00000003pt;stroke-opacity:1"
         transform="matrix(0.4,0,0,0.4,4,0)" />
    </marker>
    <marker
       style="overflow:visible"
       id="Arrow1Lend"
       refX="0"
       refY="0"
       orient="auto">
      <path
         transform="matrix(-0.8,0,0,-0.8,-10,0)"
         style="fill:#000000;fill-opacity:1;fill-rule:evenodd;stroke:#000000;stroke-width:1.00000003pt;stroke-opacity:1"
         d="M 0,0 5,-5 -12.5,0 5,5 Z"
         id="path1140" />
    </marker>
    <marker
       style="overflow:visible"
       id="Arrow1Lstart"
       refX="0"
       refY="0"
       orient="auto">
      <path
         transform="matrix(0.8,0,0,0.8,10,0)"
         style="fill:#000000;fill-opacity:1;fill-rule:evenodd;stroke:#000000;stroke-width:1.00000003pt;stroke-opacity:1"
         d="M 0,0 5,-5 -12.5,0 5,5 Z"
         id="path1137" />
    </marker>
    <marker
       orient="auto"
       refY="0"
       refX="0"
       id="Arrow1Lend-5"
       style="overflow:visible">
      <path
         id="path1140-4"
         d="M 0,0 5,-5 -12.5,0 5,5 Z"
         style="fill:#ffffff;fill-opacity:1;fill-rule:evenodd;stroke:#ffffff;stroke-width:1.00000003pt;stroke-opacity:1"
         transform="matrix(-0.8,0,0,-0.8,-10,0)" />
    </marker>
    <marker
       orient="auto"
       refY="0"
       refX="0"
       id="Arrow1Lstart-93"
       style="overflow:visible">
      <path
         id="path1137-7"
         d="M 0,0 5,-5 -12.5,0 5,5 Z"
         style="fill:#ffffff;fill-opacity:1;fill-rule:evenodd;stroke:#ffffff;stroke-width:1.00000003pt;stroke-opacity:1"
         transform="matrix(0.8,0,0,0.8,10,0)" />
    </marker>
    <linearGradient
       id="linearGradient4460"
       osb:paint="solid">
      <stop
         style="stop-color:#db3b3b;stop-opacity:1;"
         offset="0"
         id="stop4458" />
    </linearGradient>
    <filter
       style="color-interpolation-filters:sRGB"
       id="filter1795"
       x="-1.2e-06"
       width="1.0000024"
       y="-1.2e-06"
       height="1.0000024">
      <feGaussianBlur
         stdDeviation="2.6197992e-05"
         id="feGaussianBlur1797" />
    </filter>
    <filter
       style="color-interpolation-filters:sRGB"
       id="filter1799"
       x="-3.5479752e-06"
       width="1.0000072"
       y="-2.6099544e-06"
       height="1.0000052">
      <feGaussianBlur
         stdDeviation="9.3523425e-05"
         id="feGaussianBlur1801" />
    </filter>
    <filter
       style="color-interpolation-filters:sRGB"
       id="filter1803"
       x="-1.3742178e-06"
       width="1.0000027"
       y="-1.0977388e-05"
       height="1.0000221">
      <feGaussianBlur
         stdDeviation="2.6197992e-05"
         id="feGaussianBlur1805" />
    </filter>
  </defs>
  <metadata
     id="metadata45">
    <rdf:RDF>
      <cc:Work
         rdf:about="">
        <dc:format>image/svg+xml</dc:format>
        <dc:type
           rdf:resource="http://purl.org/dc/dcmitype/StillImage" />
        <dc:title></dc:title>
      </cc:Work>
    </rdf:RDF>
  </metadata>
  <g
     id="g8556"
     transform="translate(49.836509,-375.23204)">
    <g
       id="g5305">
      <g
         id="g554"
         style="display:inline"
         transform="translate(263.92561,1036.868)">
        <rect
           style="fill:#db3b3b;fill-opacity:1;stroke:#000000;stroke-width:0.52068001;stroke-linecap:round;stroke-miterlimit:4;stroke-dasharray:none;paint-order:fill markers stroke;filter:url(#filter1795)"
           id="rect835"
           width="52.395985"
           height="52.395985"
           x="-313.23715"
           y="-660.87268" />
        <g
           style="fill:#ffffff;fill-opacity:1;stroke:#fffff7;stroke-width:2.07051992;stroke-miterlimit:4;stroke-dasharray:none;stroke-opacity:1;filter:url(#filter1799)"
           id="g854"
           transform="matrix(0.28012225,0,0,0.28012225,-300.71614,-654.86297)">
          <g
             id="g841"
             transform="translate(0,-952.36218)"
             style="fill:#ffffff;fill-opacity:1;stroke:#fffff7;stroke-width:2.07051992;stroke-miterlimit:4;stroke-dasharray:none;stroke-opacity:1">
            <path
               id="path837"
               overflow="visible"
               display="inline"
               visibility="visible"
               marker="none"
               d="m 19.140893,959.36411 a 0.98858204,0.98858204 0 0 0 -0.7722,0.98849 v 64.2514 a 0.98858204,0.98858204 0 0 0 0.1853,0.5869 l 14.8273,19.7697 a 0.98858204,0.98858204 0 0 0 0.8031,0.4016 h 46.4587 a 0.98858204,0.98858204 0 0 0 0.9885,-0.9885 v -84.0211 a 0.98858204,0.98858204 0 0 0 -0.9885,-0.98849 h -61.2859 a 0.98858204,0.98858204 0 0 0 -0.093,0 0.98858204,0.98858204 0 0 0 -0.1236,0 z m 1.2048,1.97697 h 59.309 v 82.04412 h -44.4818 v -18.8121 a 0.97064309,0.96675275 0 0 0 -0.9885,-0.9576 h -13.8387 z m 0.9576,64.22052 h 11.9235 v 15.8775 z"
               style="color:#000000;text-indent:0;text-transform:none;direction:ltr;baseline-shift:baseline;display:inline;overflow:visible;visibility:visible;fill:#ffffff;fill-opacity:1;fill-rule:evenodd;stroke:#fffff7;stroke-width:2.07051992;stroke-miterlimit:4;stroke-dasharray:none;stroke-opacity:1;enable-background:accumulate" />
            <path
               id="path839"
               overflow="visible"
               display="inline"
               visibility="visible"
               marker="none"
               d="m 35.067593,975.17985 a 0.98858204,0.98858204 0 0 0 -0.8957,0.98848 v 7.90782 a 0.98858204,0.98858204 0 0 0 0.9885,0.9885 h 29.6545 a 0.98858204,0.98858204 0 0 0 0.9884,-0.9885 v -7.90782 a 0.98858204,0.98858204 0 0 0 -0.9884,-0.98848 h -29.6545 a 0.98858204,0.98858204 0 0 0 -0.093,0 z m 1.0812,1.97696 h 27.6776 v 5.93094 h -27.6776 z"
               style="color:#000000;text-indent:0;text-transform:none;direction:ltr;baseline-shift:baseline;display:inline;overflow:visible;visibility:visible;fill:#ffffff;fill-opacity:1;fill-rule:evenodd;stroke:#fffff7;stroke-width:2.07051992;stroke-miterlimit:4;stroke-dasharray:none;stroke-opacity:1;enable-background:accumulate" />
          </g>
        </g>
        <text
           xml:space="preserve"
           style="font-size:6.3499999px;line-height:1.25;font-family:voestalpine;-inkscape-font-specification:voestalpine;letter-spacing:0px;word-spacing:0px;stroke-width:0.26458299;filter:url(#filter1803)"
           x="-310.11908"
           y="-611.03052"
           id="text858"><tspan
             id="tspan856"
             x="-310.11908"
             y="-611.03052"
             style="font-size:6.3499999px;fill:#ffffff;fill-opacity:1;stroke-width:0.26458299">Strona tytułowa</tspan></text>
      </g>
    </g>
  </g>
</svg>
