<svg id="SVGRoot" width="205" height="203" version="1.1" viewBox="0 0 205 203" xmlns="http://www.w3.org/2000/svg">
 <g transform="translate(0,2)">
  <g transform="matrix(3.7795 0 0 3.7795 10.171 -6.7758)">
   <g transform="translate(-1.0884 -121.69)">
    <g transform="translate(1.6608 -59.209)">
     <g transform="translate(-.6443 -59.335)">
      <g transform="translate(-1396.8 269.89)">
       <g transform="translate(-57.972 -.024822)">
        <g transform="translate(1658.1 73.867)">
         <g>
          <rect x="-205.07" y="-101.86" width="52.917" height="52.917" fill="#0082b4" stroke="#000" stroke-linecap="round" stroke-width=".5" style="paint-order:fill markers stroke"/>
          <text x="-178.87273" y="-60.77029" fill="#ffffff" font-family="sans-serif" class="svgT" letter-spacing=".5px" font-size="5.2px" stroke-width=".26458" text-anchor="middle" word-spacing="0px" style="line-height:1.25" xml:space="preserve"><tspan x="-178.87273" y="-60.77029" text-align="center">STRONA</tspan><tspan x="-178.87273" y="-52.83279" text-align="center"> GŁÓWNA</tspan></text>
          <g transform="matrix(1.8895 0 0 1.8895 -201.12 -104.9)" fill="#fff">
           <g fill="#fff">
            <path d="m6.934 12.202c-.341 0-.62.271-.62.612v6.025c0 .341.28.616.62.616h10.145c.34 0 .611-.275.611-.616v-6.025c0-.341-.271-.612-.611-.612-.341 0-.621.271-.621.612v5.409h-8.913v-5.409c0-.341-.279-.612-.611-.612z"/>
            <path d="m4.181 12.98c.236.236.63.236.865 0l6.951-6.946 6.96 6.946c.236.236.629.236.865 0 .24-.236.24-.629 0-.865l-7.374-7.383-.013-.009c-.24-.236-.63-.236-.87 0l-7.383 7.392c-.245.236-.245.629-.001.865z"/>
           </g>
          </g>
         </g>
         <rect x="-131.95" y="-55.38" width="2.0774" height=".41548" stroke-width=".26458"/>
        </g>
       </g>
      </g>
     </g>
    </g>
   </g>
  </g>
 </g>
</svg>
