<svg id="SVGRoot" width="206px" height="206px" version="1.1" viewBox="0 0 206 206" xmlns="http://www.w3.org/2000/svg">
 <defs>
  <filter id="filter1795" x="-1.2e-6" y="-1.2e-6" width="1" height="1" color-interpolation-filters="sRGB">
   <feGaussianBlur stdDeviation="2.6197992e-05"/>
  </filter>
  <filter id="filter1799" x="-3.548e-6" y="-2.61e-6" width="1" height="1" color-interpolation-filters="sRGB">
   <feGaussianBlur stdDeviation="9.3523425e-05"/>
  </filter>
  <filter id="filter1803" x="-1.3742e-6" y="-1.0977e-5" width="1" height="1" color-interpolation-filters="sRGB">
   <feGaussianBlur stdDeviation="2.6197992e-05"/>
  </filter>
 </defs>
 <g transform="matrix(3.7795 0 0 3.7795 -1795.2 2502.6)">
  <flowRoot fill="black" font-family="sans-serif" font-size="40px" letter-spacing="0px" word-spacing="0px" style="line-height:1.25" xml:space="preserve"><flowRegion><rect x="-392.69" y="-63.57" width="758.02" height="397.52"/></flowRegion><flowPara/></flowRoot>
  <flowRoot fill="black" font-family="sans-serif" font-size="40px" letter-spacing="0px" word-spacing="0px" style="line-height:1.25" xml:space="preserve"><flowRegion><rect x="-251.87" y="-84.492" width="624.44" height="455.45"/></flowRegion><flowPara/></flowRoot>
  <flowRoot fill="black" font-family="sans-serif" font-size="40px" letter-spacing="0px" word-spacing="0px" style="line-height:1.25" xml:space="preserve"><flowRegion><rect x="-202.78" y="-50.695" width="473.96" height="281.64"/></flowRegion><flowPara/></flowRoot>
  <flowRoot fill="black" font-family="sans-serif" font-size="40px" letter-spacing="0px" word-spacing="0px" style="line-height:1.25" xml:space="preserve"><flowRegion><rect x="-86.906" y="-78.859" width="516.61" height="410.39"/></flowRegion><flowPara/></flowRoot>
  <flowRoot fill="black" font-family="sans-serif" font-size="40px" letter-spacing="0px" word-spacing="0px" style="line-height:1.25" xml:space="preserve"><flowRegion><rect x="-81.273" y="-32.188" width="309" height="322.68"/></flowRegion><flowPara/></flowRoot>
  <flowRoot fill="black" font-family="sans-serif" font-size="40px" letter-spacing="0px" word-spacing="0px" style="line-height:1.25" xml:space="preserve"><flowRegion><rect x="-90.93" y="-68.398" width="392.69" height="252.67"/></flowRegion><flowPara/></flowRoot>
  <g transform="translate(675.17 -.21291)">
   <flowRoot fill="black" font-family="sans-serif" font-size="40px" letter-spacing="0px" word-spacing="0px" style="line-height:1.25" xml:space="preserve"><flowRegion><rect x="-100.59" y="-53.109" width="462.7" height="369.35"/></flowRegion><flowPara/></flowRoot>
   <g transform="translate(57.194 .21291)">
    <flowRoot fill="black" font-family="sans-serif" font-size="40px" letter-spacing="0px" word-spacing="0px" style="line-height:1.25" xml:space="preserve"><flowRegion><rect x="-329.12" y="-12.07" width="696.05" height="259.91"/></flowRegion><flowPara/></flowRoot>
    <g transform="translate(57.239 -.21291)">
     <rect x="-313.24" y="-660.87" width="52.396" height="52.396" fill="#db3b3b" filter="url(#filter1795)" stroke="#000" stroke-linecap="round" stroke-width=".52068" style="paint-order:fill markers stroke"/>
     <g transform="matrix(.28012 0 0 .28012 -300.72 -654.86)" fill="#fff" filter="url(#filter1799)" stroke="#fffff7" stroke-width="2.0705">
      <g transform="translate(0 -952.36)" fill="#fff" fill-rule="evenodd" stroke="#fffff7" stroke-width="2.0705">
       <path d="m19.141 959.36a.98858.98858 0 00-.7722.98849v64.251a.98858.98858 0 00.1853.5869l14.827 19.77a.98858.98858 0 00.8031.4016h46.459a.98858.98858 0 00.9885-.9885v-84.021a.98858.98858 0 00-.9885-.98849h-61.286a.98858.98858 0 00-.093 0 .98858.98858 0 00-.1236 0zm1.2048 1.977h59.309v82.044h-44.482v-18.812a.97064.96675 0 00-.9885-.9576h-13.839zm.9576 64.221h11.924v15.878z" color="#000000" overflow="visible" style="text-indent:0;text-transform:none"/>
       <path d="m35.068 975.18a.98858.98858 0 00-.8957.98848v7.9078a.98858.98858 0 00.9885.9885h29.654a.98858.98858 0 00.9884-.9885v-7.9078a.98858.98858 0 00-.9884-.98848h-29.654a.98858.98858 0 00-.093 0zm1.0812 1.977h27.678v5.9309h-27.678z" color="#000000" overflow="visible" style="text-indent:0;text-transform:none"/>
      </g>
     </g>
     <text x="-306.17682" y="-612.86249" filter="url(#filter1803)" font-family="sans-serif" font-size="6.35px" letter-spacing="0px" stroke-width=".26458" word-spacing="0px" style="line-height:1.25" xml:space="preserve"><tspan x="-306.17682" y="-612.86249" fill="#ffffff" font-family="sans-serif" font-size="4.9389px" stroke-width=".26458">Strona tytułowa</tspan></text>
    </g>
   </g>
  </g>
 </g>
</svg>
