<svg id="SVGRoot" width="205" height="203" version="1.1" viewBox="0 0 205 203" xmlns="http://www.w3.org/2000/svg">
 <g transform="translate(0,2)">
  <g transform="matrix(3.7795 0 0 3.7795 10.171 -6.7758)">
   <g transform="translate(-1.0884 -121.69)">
    <g transform="translate(1.6608 -59.209)">
     <g transform="translate(-.6443 -59.335)">
      <g transform="translate(144.82 343.03)">
       <rect x="-146.61" y="-101.21" width="52.917" height="52.917" fill="#0082b4" stroke="#000" stroke-linecap="round" stroke-width=".5" style="paint-order:fill markers stroke"/>
       <text x="-119.76649" y="-52.122395" fill="#ffffff" font-family="voestalpine" font-size="6.35px" letter-spacing="0px" stroke-width=".26458" word-spacing="0px" style="line-height:1.25" xml:space="preserve"><tspan x="-119.76649" y="-52.122395" fill="#ffffff" font-family="sans-serif" font-size="4.9389px" stroke-width=".26458" text-align="center" text-anchor="middle">STYLE</tspan></text>
       <g transform="matrix(.32995 0 0 .32995 -135.84 -95.615)" fill="#fff">
        <path d="m92 89c0 1.657-1.343 3-3 3h-63c-1.657 0-3-1.343-3-3s1.343-3 3-3h63c1.657 0 3 1.343 3 3z"/>
        <path d="m83 71c1.657 0 3 1.343 3 3s-1.343 3-3 3h-45c-1.657 0-3-1.343-3-3s1.343-3 3-3z"/>
        <path d="m85.953 8.023c-53.752-.57-74.953 14.532-74.953 62.977 0 .064.032.117.036.179-1.9 5.764-2.932 11.704-3.036 17.771-.026 1.655 1.292 3.021 2.95 3.05h.05c1.635 0 2.971-1.31 3-2.95.151-8.86 2.425-16.86 6.078-24.05 9.154-.076 22.011 1.125 33.939-3.179 3.763-1.358 1.808-6.478-2.033-5.643-7.797 1.697-18.925 1.41-26.284-.178 1.747-2.435 2.206-3.114 4.856-6.015 34.194.015 56.279-5.944 61.356-34.968.633-3.633-2.223-6.957-5.959-6.994zm-21.299 10.369c-17.082 7.385-31.109 17.823-42.083 31.316-.528.649-1.55.077-1.266-.711 6.476-17.962 19.568-29.731 43.059-31.764.702-.061.936.88.29 1.159z"/>
       </g>
      </g>
     </g>
    </g>
   </g>
  </g>
 </g>
</svg>
