<svg id="SVGRoot" width="208" height="208" version="1.1" viewBox="0 0 208 208" xmlns="http://www.w3.org/2000/svg">
 <g transform="translate(0,7)">
  <g transform="matrix(3.7795 0 0 3.7795 10.171 -6.7758)">
   <g transform="translate(-1.0884 -121.69)">
    <g transform="translate(1.6608 -59.209)">
     <g transform="translate(-.6443 -59.335)">
      <g transform="translate(-1396.8 269.89)">
       <g transform="translate(-57.972 -.024822)">
        <g transform="translate(1658.1 73.867)">
         <g transform="translate(-203.03 -103.33)">
          <flowRoot transform="matrix(.26458 0 0 .26458 -2.875 1.091)" fill="#000000" font-family="sans-serif" font-size="40px" letter-spacing="0px" word-spacing="0px" style="line-height:1.25" xml:space="preserve"><flowRegion><rect x="-85.582" y="-60.812" width="342.33" height="293.65"/></flowRegion><flowPara/></flowRoot>
          <g transform="translate(-1039.4 318.88)">
           <flowRoot transform="matrix(.26458 0 0 .26458 1036.5 -317.79)" fill="#000000" font-family="sans-serif" font-size="40px" letter-spacing="0px" word-spacing="0px" style="line-height:1.25" xml:space="preserve"><flowRegion><rect x="-105.21" y="-13.703" width="562.17" height="513.49"/></flowRegion><flowPara/></flowRoot>
           <g transform="translate(-66.134 .039287)">
            <g transform="translate(-66.173 .043409)">
             <flowRoot transform="matrix(.26458 0 0 .26458 1168.8 -317.87)" fill="#000000" font-family="sans-serif" font-size="40px" letter-spacing="0px" word-spacing="0px" style="line-height:1.25" xml:space="preserve"><flowRegion><rect x="-114.63" y="-91.434" width="675.23" height="522.91"/></flowRegion><flowPara/></flowRoot>
             <g transform="translate(-66.2 -.040316)">
              <g transform="translate(-65.918 -.60254)">
               <g transform="translate(-66.6 .14883)">
                <flowRoot fill="black" font-family="sans-serif" font-size="40px" letter-spacing="0px" word-spacing="0px" style="line-height:1.25" xml:space="preserve"><flowRegion><rect x="-24.34" y="-19.695" width="252.04" height="245.75"/></flowRegion><flowPara/></flowRoot>
                <g transform="translate(-68.678 -.48293)">
                 <flowRoot fill="black" font-family="sans-serif" font-size="40px" letter-spacing="0px" word-spacing="0px" style="line-height:1.25" xml:space="preserve"><flowRegion><rect x="-65.168" y="-26.762" width="382.37" height="335.26"/></flowRegion><flowPara/></flowRoot>
                 <g transform="translate(-63.347 .4912)">
                  <g transform="translate(529.82 -.18087)">
                   <g transform="translate(794.67 .06923)">
                    <g transform="translate(-198.36 .17569)">
                     <g transform="translate(-530.68 .043413)">
                      <g transform="translate(912.04 -.041317)">
                       <g transform="translate(132.58 -.39794)">
                        <g transform="translate(-580.62 .35866)">
                         <g transform="translate(-264.6 -.1571)">
                          <g transform="translate(463.55 .097138)">
                           <g transform="translate(-397.36 .059959)">
                            <rect x="639.93" y="-317.37" width="52.917" height="52.917" fill="#ffec8e" stroke="#000" stroke-linecap="round" stroke-width=".5" style="paint-order:fill markers stroke"/>
                            <text x="666.44989" y="-268.00757" fill="#000000" font-family="sans-serif" font-size="6.35px" letter-spacing="0px" stroke-width=".26458" text-align="center" text-anchor="middle" word-spacing="0px" style="line-height:1.25" xml:space="preserve"><tspan x="666.44989" y="-268.00757" fill="#000000" font-family="sans-serif" class="svgT" letter-spacing=".5px" font-size="5.2px" stroke-width=".26458" text-align="center" text-anchor="middle">Tabela ms</tspan></text>
                            <g transform="matrix(.31471 0 0 .31471 650.62 -314.23)">
                             <path d="m93.8 24.7h-78.6c-.7 0-1.4.6-1.4 1.4v59.6c0 .7.6 1.4 1.4 1.4h78.6c.7 0 1.4-.6 1.4-1.4v-59.7c-.1-.7-.7-1.3-1.4-1.3zm-50.6 43.8v-11.3h23.3v11.3zm23.2 2.7v13.1h-23.2v-13.1zm26-28.1v11.4h-23.3v-11.4zm-26 11.4h-23.2v-11.4h23.3v11.4zm-25.9 0h-24v-11.4h24zm-24 2.7h24v11.3h-24zm52.6 0h23.3v11.3h-23.3zm23.3-16.8h-49.2v-13h49.2zm-51.9-13v13h-24v-13zm-24 43.8h24v13.1h-24zm52.6 13.1v-13.1h23.3v13.1z"/>
                             <path d="m62.1 62h-14.9c-.7 0-1.4.6-1.4 1.4 0 .7.6 1.4 1.4 1.4h14.9c.7 0 1.4-.6 1.4-1.4s-.6-1.4-1.4-1.4z"/>
                             <path d="m47 79.1h14.9c.7 0 1.4-.6 1.4-1.4 0-.7-.6-1.4-1.4-1.4h-14.9c-.7 0-1.4.6-1.4 1.4s.6 1.4 1.4 1.4z"/>
                             <path d="m85 17.6c0-.7-.6-1.4-1.4-1.4h-77.2c-.7 0-1.4.6-1.4 1.4v58.3c0 .7.6 1.4 1.4 1.4s1.4-.6 1.4-1.4v-56.9h75.9c.6 0 1.3-.6 1.3-1.4z"/>
                            </g>
                           </g>
                          </g>
                         </g>
                        </g>
                       </g>
                      </g>
                     </g>
                    </g>
                   </g>
                  </g>
                 </g>
                </g>
               </g>
              </g>
             </g>
            </g>
           </g>
          </g>
         </g>
        </g>
       </g>
      </g>
     </g>
    </g>
   </g>
  </g>
 </g>
</svg>
