<svg id="SVGRoot" width="208" height="208" version="1.1" viewBox="0 0 208 208" xmlns="http://www.w3.org/2000/svg">
 <g transform="translate(0,7)">
  <g transform="matrix(3.7795 0 0 3.7795 10.171 -6.7758)">
   <g transform="translate(-1.0884 -121.69)">
    <g transform="translate(1.6608 -59.209)">
     <g transform="translate(-.6443 -59.335)">
      <g transform="translate(-1396.8 269.89)">
       <g transform="translate(-57.972 -.024822)">
        <g transform="translate(1658.1 73.867)">
         <g transform="translate(-203.03 -103.33)">
          <flowRoot transform="matrix(.26458 0 0 .26458 -2.875 1.091)" fill="#000000" font-family="sans-serif" font-size="40px" letter-spacing="0px" word-spacing="0px" style="line-height:1.25" xml:space="preserve"><flowRegion><rect x="-85.582" y="-60.812" width="342.33" height="293.65"/></flowRegion><flowPara/></flowRoot>
          <g transform="translate(-1039.4 318.88)">
           <flowRoot transform="matrix(.26458 0 0 .26458 1036.5 -317.79)" fill="#000000" font-family="sans-serif" font-size="40px" letter-spacing="0px" word-spacing="0px" style="line-height:1.25" xml:space="preserve"><flowRegion><rect x="-105.21" y="-13.703" width="562.17" height="513.49"/></flowRegion><flowPara/></flowRoot>
           <g transform="translate(-66.134 .039287)">
            <g transform="translate(-66.173 .043409)">
             <flowRoot transform="matrix(.26458 0 0 .26458 1168.8 -317.87)" fill="#000000" font-family="sans-serif" font-size="40px" letter-spacing="0px" word-spacing="0px" style="line-height:1.25" xml:space="preserve"><flowRegion><rect x="-114.63" y="-91.434" width="675.23" height="522.91"/></flowRegion><flowPara/></flowRoot>
             <g transform="translate(-66.2 -.040316)">
              <g transform="translate(-65.918 -.60254)">
               <g transform="translate(-66.6 .14883)">
                <flowRoot fill="black" font-family="sans-serif" font-size="40px" letter-spacing="0px" word-spacing="0px" style="line-height:1.25" xml:space="preserve"><flowRegion><rect x="-24.34" y="-19.695" width="252.04" height="245.75"/></flowRegion><flowPara/></flowRoot>
                <g transform="translate(-68.678 -.48293)">
                 <flowRoot fill="black" font-family="sans-serif" font-size="40px" letter-spacing="0px" word-spacing="0px" style="line-height:1.25" xml:space="preserve"><flowRegion><rect x="-65.168" y="-26.762" width="382.37" height="335.26"/></flowRegion><flowPara/></flowRoot>
                 <g transform="translate(-63.347 .4912)">
                  <g transform="translate(529.82 -.18087)">
                   <g transform="translate(794.67 .06923)">
                    <g transform="translate(-198.36 .17569)">
                     <g transform="translate(-530.68 .043413)">
                      <g transform="translate(912.04 -.041317)">
                       <g transform="translate(132.58 -.39794)">
                        <g transform="translate(-580.62 .35866)">
                         <g transform="translate(-264.6 -.1571)">
                          <g transform="translate(463.55 .097138)">
                           <g transform="translate(-397.36 .059959)">
                            <g transform="translate(66.026 -.30592)">
                             <g transform="translate(-264.69 -.093008)">
                              <g transform="translate(734.89 179.33)">
                               <g transform="translate(-205.07 -178.97)">
                                <g transform="translate(-1081.1 -686.85)">
                                 <flowRoot fill="black" font-family="sans-serif" font-size="40px" letter-spacing="0px" word-spacing="0px" style="line-height:1.25" xml:space="preserve"><flowRegion><rect x="21" y="-71" width="223" height="308"/></flowRegion><flowPara/></flowRoot>
                                 <g transform="translate(-112.28 .55746)">
                                  <flowRoot transform="matrix(.26458 0 0 .26458 1500.7 367.6)" fill="#000000" font-family="sans-serif" font-size="40px" letter-spacing="0px" word-spacing="0px" style="line-height:1.25" xml:space="preserve"><flowRegion><rect x="-6.364" y="-2.0107" width="231.22" height="230.87"/></flowRegion><flowPara/></flowRoot>
                                  <g transform="translate(1386.8 133.57)">
                                   <g transform="translate(-1180.5 267.04)">
                                    <g transform="translate(753.05 -.28062)">
                                     <g transform="translate(747.14 .093556)">
                                      <g transform="translate(-805.88 1.4967)">
                                       <g transform="translate(-1094.3 -1.5903)">
                                        <rect x="1695.4" y="-31.75" width="52.951" height="52.917" fill="#db3b3b" stroke="#000" stroke-linecap="round" stroke-width=".50016" style="paint-order:fill markers stroke"/>
                                        <g transform="translate(.29758)">
                                         <rect x="1701.6" y="-21.64" width="39.889" height="15.988" fill="none" stroke="#fff" stroke-linecap="round" style="paint-order:fill markers stroke"/>
                                         <path d="m1715-21.64v15.988" fill="none" stroke="#fff"/>
                                         <g transform="matrix(.11252 0 0 .11252 1702.8 -19.272)" fill="#fff">
                                          <path d="m93.21 74.042-34.126-59.11c-1.87-3.238-5.354-5.25-9.094-5.25s-7.224 2.012-9.094 5.25l-34.429 59.636c-1.869 3.238-1.869 7.261 0 10.5 1.87 3.238 5.354 5.25 9.094 5.25h68.879c5.79 0 10.5-4.71 10.5-10.5-.001-2.066-.598-4.06-1.73-5.776zm-8.771 9.275h-68.878c-1.246 0-2.408-.671-3.031-1.75-.623-1.08-.623-2.421 0-3.5l34.43-59.634c.623-1.08 1.785-1.75 3.031-1.75s2.408.671 3.031 1.75l34.184 59.208c.042.073.087.145.135.215.393.578.6 1.257.6 1.962-.002 1.929-1.572 3.499-3.502 3.499zm-34.439-19.387c2.16 0 3.912-1.751 3.912-3.912v-20.331c0-2.161-1.752-3.912-3.912-3.912s-3.912 1.751-3.912 3.912v20.331c0 2.161 1.752 3.912 3.912 3.912zm0 2.295c-1.32 0-2.601.53-3.54 1.46-.93.93-1.46 2.22-1.46 3.54 0 1.31.53 2.6 1.46 3.53.939.93 2.229 1.47 3.54 1.47 1.31 0 2.6-.54 3.53-1.47.939-.93 1.47-2.22 1.47-3.53 0-1.32-.53-2.61-1.47-3.54-.93-.931-2.22-1.46-3.53-1.46z" fill="#fff"/>
                                         </g>
                                        </g>
                                        <text transform="scale(1.0003 .99968)" x="1721.2834" y="10.061577" fill="#ffffff" font-family="sans-serif" class="svgT" letter-spacing=".5px" font-size="5.2px" stroke-width=".26467" text-anchor="middle" word-spacing="0px" style="line-height:1.25" xml:space="preserve"><tspan x="1721.2834" y="10.061577" text-align="center">Tabela</tspan><tspan x="1721.2834" y="18.001627" text-align="center">ostrzeżenie</tspan></text>
                                       </g>
                                      </g>
                                     </g>
                                    </g>
                                   </g>
                                  </g>
                                 </g>
                                </g>
                               </g>
                              </g>
                             </g>
                            </g>
                           </g>
                          </g>
                         </g>
                        </g>
                       </g>
                      </g>
                     </g>
                    </g>
                   </g>
                  </g>
                 </g>
                </g>
               </g>
              </g>
             </g>
            </g>
           </g>
          </g>
         </g>
        </g>
       </g>
      </g>
     </g>
    </g>
   </g>
  </g>
 </g>
</svg>
