<svg id="SVGRoot" width="208" height="208" version="1.1" viewBox="0 0 208 208" xmlns="http://www.w3.org/2000/svg">
 <g transform="translate(0,7)">
  <g transform="matrix(3.7795 0 0 3.7795 10.171 -6.7758)">
   <g transform="translate(-1.0884 -121.69)">
    <g transform="translate(1.6608 -59.209)">
     <g transform="translate(-.6443 -59.335)">
      <g transform="translate(-1396.8 269.89)">
       <g transform="translate(-57.972 -.024822)">
        <g transform="translate(1658.1 73.867)">
         <g transform="translate(-203.03 -103.33)">
          <flowRoot transform="matrix(.26458 0 0 .26458 -2.875 1.091)" fill="#000000" font-family="sans-serif" font-size="40px" letter-spacing="0px" word-spacing="0px" style="line-height:1.25" xml:space="preserve"><flowRegion><rect x="-85.582" y="-60.812" width="342.33" height="293.65"/></flowRegion><flowPara/></flowRoot>
          <g transform="translate(-1039.4 318.88)">
           <flowRoot transform="matrix(.26458 0 0 .26458 1036.5 -317.79)" fill="#000000" font-family="sans-serif" font-size="40px" letter-spacing="0px" word-spacing="0px" style="line-height:1.25" xml:space="preserve"><flowRegion><rect x="-105.21" y="-13.703" width="562.17" height="513.49"/></flowRegion><flowPara/></flowRoot>
           <g transform="translate(-66.134 .039287)">
            <g transform="translate(-66.173 .043409)">
             <flowRoot transform="matrix(.26458 0 0 .26458 1168.8 -317.87)" fill="#000000" font-family="sans-serif" font-size="40px" letter-spacing="0px" word-spacing="0px" style="line-height:1.25" xml:space="preserve"><flowRegion><rect x="-114.63" y="-91.434" width="675.23" height="522.91"/></flowRegion><flowPara/></flowRoot>
             <g transform="translate(-66.2 -.040316)">
              <g transform="translate(-65.918 -.60254)">
               <g transform="translate(-66.6 .14883)">
                <flowRoot fill="black" font-family="sans-serif" font-size="40px" letter-spacing="0px" word-spacing="0px" style="line-height:1.25" xml:space="preserve"><flowRegion><rect x="-24.34" y="-19.695" width="252.04" height="245.75"/></flowRegion><flowPara/></flowRoot>
                <g transform="translate(-68.678 -.48293)">
                 <flowRoot fill="black" font-family="sans-serif" font-size="40px" letter-spacing="0px" word-spacing="0px" style="line-height:1.25" xml:space="preserve"><flowRegion><rect x="-65.168" y="-26.762" width="382.37" height="335.26"/></flowRegion><flowPara/></flowRoot>
                 <g transform="translate(-63.347 .4912)">
                  <g transform="translate(529.82 -.18087)">
                   <g transform="translate(794.67 .06923)">
                    <g transform="translate(-198.36 .17569)">
                     <g transform="translate(-530.68 .043413)">
                      <g transform="translate(912.04 -.041317)">
                       <g transform="translate(132.58 -.39794)">
                        <g transform="translate(-580.62 .35866)">
                         <g transform="translate(-264.6 -.1571)">
                          <g transform="translate(463.55 .097138)">
                           <g transform="translate(-397.36 .059959)">
                            <g transform="translate(66.026 -.30592)">
                             <rect x="573.68" y="-317.37" width="52.917" height="52.917" fill="#ffec8e" stroke="#000" stroke-linecap="round" stroke-width=".5" style="paint-order:fill markers stroke"/>
                             <text x="600.0191" y="-276.57001" fill="#000000" font-family="sans-serif" class="svgT" letter-spacing=".5px" font-size="5.2px" stroke-width=".26458" text-align="center" text-anchor="middle" word-spacing="0px" style="line-height:1.25" xml:space="preserve"><tspan x="600.0191" y="-276.57001" text-align="center">Tabela</tspan><tspan x="600.0191" y="-268.63251" text-align="center">bez krawędzi ms</tspan></text>
                             <g transform="matrix(.30638 0 0 .30638 585.59 -311.72)">
                              <circle cx="47.5" cy="7.5" r="2.5"/>
                              <circle cx="47.5" cy="17.5" r="2.5"/>
                              <circle cx="47.5" cy="27.5" r="2.5"/>
                              <circle cx="47.5" cy="37.5" r="2.5"/>
                              <circle cx="47.5" cy="57.5" r="2.5"/>
                              <circle cx="47.5" cy="67.5" r="2.5"/>
                              <circle cx="47.5" cy="77.5" r="2.5"/>
                              <circle cx="57.5" cy="7.5" r="2.5"/>
                              <circle cx="67.5" cy="7.5" r="2.5"/>
                              <circle cx="77.5" cy="7.5" r="2.5"/>
                              <circle cx="87.5" cy="7.5" r="2.5"/>
                              <circle cx="87.5" cy="17.5" r="2.5"/>
                              <circle cx="87.5" cy="27.5" r="2.5"/>
                              <circle cx="87.5" cy="37.5" r="2.5"/>
                              <circle cx="87.5" cy="47.5" r="2.5"/>
                              <circle cx="87.5" cy="57.5" r="2.5"/>
                              <circle cx="87.5" cy="67.5" r="2.5"/>
                              <circle cx="87.5" cy="77.5" r="2.5"/>
                              <circle cx="87.5" cy="87.5" r="2.5"/>
                              <circle cx="77.5" cy="87.5" r="2.5"/>
                              <circle cx="67.5" cy="87.5" r="2.5"/>
                              <circle cx="57.5" cy="87.5" r="2.5"/>
                              <circle cx="47.5" cy="87.5" r="2.5"/>
                              <circle cx="37.5" cy="87.5" r="2.5"/>
                              <circle cx="27.5" cy="87.5" r="2.5"/>
                              <circle cx="17.5" cy="87.5" r="2.5"/>
                              <circle cx="7.5" cy="87.5" r="2.5"/>
                              <circle cx="7.5" cy="77.5" r="2.5"/>
                              <circle cx="7.5" cy="67.5" r="2.5"/>
                              <circle cx="7.5" cy="57.5" r="2.5"/>
                              <circle cx="7.5" cy="47.5" r="2.5"/>
                              <circle cx="17.5" cy="47.5" r="2.5"/>
                              <circle cx="27.5" cy="47.5" r="2.5"/>
                              <circle cx="37.5" cy="47.5" r="2.5"/>
                              <circle cx="47.5" cy="47.5" r="2.5"/>
                              <circle cx="57.5" cy="47.5" r="2.5"/>
                              <circle cx="67.5" cy="47.5" r="2.5"/>
                              <circle cx="77.5" cy="47.5" r="2.5"/>
                              <circle cx="7.5" cy="37.5" r="2.5"/>
                              <circle cx="7.5" cy="27.5" r="2.5"/>
                              <circle cx="7.5" cy="17.5" r="2.5"/>
                              <circle cx="7.5" cy="7.5" r="2.5"/>
                              <circle cx="17.5" cy="7.5" r="2.5"/>
                              <circle cx="27.5" cy="7.5" r="2.5"/>
                              <circle cx="37.5" cy="7.5" r="2.5"/>
                             </g>
                            </g>
                           </g>
                          </g>
                         </g>
                        </g>
                       </g>
                      </g>
                     </g>
                    </g>
                   </g>
                  </g>
                 </g>
                </g>
               </g>
              </g>
             </g>
            </g>
           </g>
          </g>
         </g>
        </g>
       </g>
      </g>
     </g>
    </g>
   </g>
  </g>
 </g>
</svg>
