<?xml version="1.0" encoding="UTF-8" standalone="no"?>
<svg
   xmlns:dc="http://purl.org/dc/elements/1.1/"
   xmlns:cc="http://creativecommons.org/ns#"
   xmlns:rdf="http://www.w3.org/1999/02/22-rdf-syntax-ns#"
   xmlns:svg="http://www.w3.org/2000/svg"
   xmlns="http://www.w3.org/2000/svg"
   id="SVGRoot"
   version="1.1"
   viewBox="0 0 200 200"
   height="200px"
   width="200px">
  <defs
     id="defs827" />
  <metadata
     id="metadata830">
    <rdf:RDF>
      <cc:Work
         rdf:about="">
        <dc:format>image/svg+xml</dc:format>
        <dc:type
           rdf:resource="http://purl.org/dc/dcmitype/StillImage" />
        <dc:title></dc:title>
      </cc:Work>
    </rdf:RDF>
  </metadata>
  <g
     id="layer1">
    <g
       id="g1462"
       transform="matrix(3.7795276,0,0,3.7795276,-6406.1018,122.62495)">
      <rect
         style="fill:#db3b3b;fill-opacity:1;stroke:#000000;stroke-width:0.50015801;stroke-linecap:round;stroke-miterlimit:4;stroke-dasharray:none;stroke-opacity:1;paint-order:fill markers stroke"
         id="rect833-4-4-4-3-7-6-0-7-8-17-7"
         width="52.950603"
         height="52.916668"
         x="1695.3938"
         y="-31.749987" />
      <g
         id="g3145"
         transform="translate(0.29758293)">
        <rect
           style="fill:none;fill-opacity:1;stroke:#ffffff;stroke-width:1;stroke-linecap:round;stroke-miterlimit:4;stroke-dasharray:none;stroke-opacity:1;paint-order:fill markers stroke"
           id="rect3066-2"
           width="39.888638"
           height="15.987754"
           x="1701.6272"
           y="-21.63999" />
        <path
           style="fill:none;stroke:#ffffff;stroke-width:1;stroke-linecap:butt;stroke-linejoin:miter;stroke-miterlimit:4;stroke-dasharray:none;stroke-opacity:1"
           d="M 1715.0309,-21.63999 V -5.6522359"
           id="path3068-0" />
        <g
           transform="matrix(0.11252373,0,0,0.11252373,1702.752,-19.272299)"
           id="g3139"
           style="fill:#ffffff;fill-opacity:1">
          <path
             style="fill:#ffffff;fill-opacity:1"
             d="M 93.21,74.042 59.084,14.932 c -1.87,-3.238 -5.354,-5.25 -9.094,-5.25 -3.74,0 -7.224,2.012 -9.094,5.25 L 6.467,74.568 c -1.869,3.238 -1.869,7.261 0,10.5 1.87,3.238 5.354,5.25 9.094,5.25 H 84.44 c 5.79,0 10.5,-4.71 10.5,-10.5 -0.001,-2.066 -0.598,-4.06 -1.73,-5.776 z m -8.771,9.275 H 15.561 c -1.246,0 -2.408,-0.671 -3.031,-1.75 -0.623,-1.08 -0.623,-2.421 0,-3.5 L 46.96,18.433 c 0.623,-1.08 1.785,-1.75 3.031,-1.75 1.246,0 2.408,0.671 3.031,1.75 l 34.184,59.208 c 0.042,0.073 0.087,0.145 0.135,0.215 0.393,0.578 0.6,1.257 0.6,1.962 -0.002,1.929 -1.572,3.499 -3.502,3.499 z M 50,63.93 c 2.16,0 3.912,-1.751 3.912,-3.912 V 39.687 c 0,-2.161 -1.752,-3.912 -3.912,-3.912 -2.16,0 -3.912,1.751 -3.912,3.912 v 20.331 c 0,2.161 1.752,3.912 3.912,3.912 z m 0,2.295 c -1.32,0 -2.601,0.53 -3.54,1.46 -0.93,0.93 -1.46,2.22 -1.46,3.54 0,1.31 0.53,2.6 1.46,3.53 0.939,0.93 2.229,1.47 3.54,1.47 1.31,0 2.6,-0.54 3.53,-1.47 0.939,-0.93 1.47,-2.22 1.47,-3.53 0,-1.32 -0.53,-2.61 -1.47,-3.54 -0.93,-0.931 -2.22,-1.46 -3.53,-1.46 z"
             id="path3128" />
        </g>
      </g>
      <text
         transform="scale(1.0003206,0.9996795)"
         xml:space="preserve"
         style="font-size:6.35203981px;line-height:1.25;font-family:voestalpine;-inkscape-font-specification:voestalpine;letter-spacing:0px;word-spacing:0px;fill:#ffffff;fill-opacity:1;stroke-width:0.26466799"
         x="1721.2834"
         y="11.097627"
         id="text983-1-5-6-98-2-6-5-2-3-2-7"><tspan
           id="tspan2495-3-9-0-4"
           x="1721.2834"
           y="11.097627"
           style="font-size:6.35203981px;text-align:center;text-anchor:middle;fill:#ffffff;fill-opacity:1;stroke-width:0.26466799">Tabela</tspan><tspan
           id="tspan3064-9"
           x="1721.2834"
           y="19.037676"
           style="font-size:6.35203981px;text-align:center;text-anchor:middle;fill:#ffffff;fill-opacity:1;stroke-width:0.26466799">ostrzeżenie</tspan></text>
    </g>
  </g>
</svg>
