<?xml version="1.0" encoding="UTF-8" standalone="no"?>
<svg
   xmlns:dc="http://purl.org/dc/elements/1.1/"
   xmlns:cc="http://creativecommons.org/ns#"
   xmlns:rdf="http://www.w3.org/1999/02/22-rdf-syntax-ns#"
   xmlns:svg="http://www.w3.org/2000/svg"
   xmlns="http://www.w3.org/2000/svg"
   id="SVGRoot"
   version="1.1"
   viewBox="0 0 200 200"
   height="200px"
   width="200px">
  <defs
     id="defs827" />
  <metadata
     id="metadata830">
    <rdf:RDF>
      <cc:Work
         rdf:about="">
        <dc:format>image/svg+xml</dc:format>
        <dc:type
           rdf:resource="http://purl.org/dc/dcmitype/StillImage" />
        <dc:title></dc:title>
      </cc:Work>
    </rdf:RDF>
  </metadata>
  <g
     id="layer1">
    <g
       id="g1433"
       transform="matrix(3.7795276,0,0,3.7795276,-6190.2147,120.5312)">
      <rect
         y="-31.749987"
         x="1638.1497"
         height="52.916668"
         width="52.950603"
         id="rect833-4-4-4-3-7-6-0-7-8-17"
         style="fill:#db3b3b;fill-opacity:1;stroke:#000000;stroke-width:0.50015801;stroke-linecap:round;stroke-miterlimit:4;stroke-dasharray:none;stroke-opacity:1;paint-order:fill markers stroke" />
      <text
         id="text983-1-5-6-98-2-6-5-2-3-2"
         y="11.097627"
         x="1664.1523"
         style="font-size:6.35203981px;line-height:1.25;font-family:voestalpine;-inkscape-font-specification:voestalpine;letter-spacing:0px;word-spacing:0px;fill:#ffffff;fill-opacity:1;stroke-width:0.26466799"
         xml:space="preserve"
         transform="scale(1.0003206,0.9996795)"><tspan
           style="font-size:6.35203981px;text-align:center;text-anchor:middle;fill:#ffffff;fill-opacity:1;stroke-width:0.26466799"
           y="11.097627"
           x="1664.1523"
           id="tspan2495-3-9-0">Tabela</tspan><tspan
           style="font-size:6.35203981px;text-align:center;text-anchor:middle;fill:#ffffff;fill-opacity:1;stroke-width:0.26466799"
           y="19.037676"
           x="1664.1523"
           id="tspan3064">informacja</tspan></text>
      <g
         id="g3151"
         transform="translate(0.20281191)">
        <rect
           y="-21.63999"
           x="1644.4778"
           height="15.987753"
           width="39.888638"
           id="rect3066"
           style="fill:none;fill-opacity:1;stroke:#ffffff;stroke-width:1;stroke-linecap:round;stroke-miterlimit:4;stroke-dasharray:none;stroke-opacity:1;paint-order:fill markers stroke" />
        <path
           id="path3068"
           d="M 1657.8816,-21.63999 V -5.652236"
           style="fill:none;stroke:#ffffff;stroke-width:1;stroke-linecap:butt;stroke-linejoin:miter;stroke-miterlimit:4;stroke-dasharray:none;stroke-opacity:1" />
        <g
           transform="matrix(0.01226726,0,0,0.01226726,1645.8741,-18.839274)"
           id="g3087"
           style="clip-rule:evenodd;fill:#ffffff;fill-opacity:1;fill-rule:evenodd;image-rendering:optimizeQuality;shape-rendering:geometricPrecision;text-rendering:geometricPrecision">
          <path
             style="fill:#ffffff;fill-opacity:1"
             id="path3074"
             d="M 228.96,40.51 H 617.7 c 103.7,0 188.46,84.75 188.46,188.45 V 617.7 c 0,103.71 -84.76,188.46 -188.46,188.46 H 228.96 C 125.25,806.16 40.51,721.41 40.51,617.7 V 228.96 c 0,-103.7 84.74,-188.45 188.45,-188.45 z M 372.34,330.14 H 474.32 V 664.23 H 372.34 Z m 50.99,-147.7 c 33.51,0 60.67,27.15 60.67,60.67 0,33.49 -27.16,60.66 -60.67,60.66 -33.5,0 -60.66,-27.17 -60.66,-60.66 0,-33.52 27.16,-60.67 60.66,-60.67 z M 617.7,97.72 H 228.96 c -72.13,0 -131.25,59.11 -131.25,131.24 V 617.7 c 0,72.13 59.12,131.25 131.25,131.25 H 617.7 c 72.13,0 131.24,-59.12 131.24,-131.25 V 228.96 C 748.94,156.83 689.83,97.72 617.7,97.72 Z"
             class="fil0" />
        </g>
      </g>
    </g>
  </g>
</svg>
