<svg id="SVGRoot" width="206px" height="206px" version="1.1" viewBox="0 0 206 206" xmlns="http://www.w3.org/2000/svg">
 <g transform="matrix(3.7795 0 0 3.7795 -1795.2 2502.6)">
  <flowRoot fill="black" font-family="sans-serif" font-size="40px" letter-spacing="0px" word-spacing="0px" style="line-height:1.25" xml:space="preserve"><flowRegion><rect x="-392.69" y="-63.57" width="758.02" height="397.52"/></flowRegion><flowPara/></flowRoot>
  <flowRoot fill="black" font-family="sans-serif" font-size="40px" letter-spacing="0px" word-spacing="0px" style="line-height:1.25" xml:space="preserve"><flowRegion><rect x="-251.87" y="-84.492" width="624.44" height="455.45"/></flowRegion><flowPara/></flowRoot>
  <flowRoot fill="black" font-family="sans-serif" font-size="40px" letter-spacing="0px" word-spacing="0px" style="line-height:1.25" xml:space="preserve"><flowRegion><rect x="-202.78" y="-50.695" width="473.96" height="281.64"/></flowRegion><flowPara/></flowRoot>
  <flowRoot fill="black" font-family="sans-serif" font-size="40px" letter-spacing="0px" word-spacing="0px" style="line-height:1.25" xml:space="preserve"><flowRegion><rect x="-86.906" y="-78.859" width="516.61" height="410.39"/></flowRegion><flowPara/></flowRoot>
  <flowRoot fill="black" font-family="sans-serif" font-size="40px" letter-spacing="0px" word-spacing="0px" style="line-height:1.25" xml:space="preserve"><flowRegion><rect x="-81.273" y="-32.188" width="309" height="322.68"/></flowRegion><flowPara/></flowRoot>
  <flowRoot fill="black" font-family="sans-serif" font-size="40px" letter-spacing="0px" word-spacing="0px" style="line-height:1.25" xml:space="preserve"><flowRegion><rect x="-90.93" y="-68.398" width="392.69" height="252.67"/></flowRegion><flowPara/></flowRoot>
  <g transform="translate(675.17 -.21291)">
   <flowRoot fill="black" font-family="sans-serif" font-size="40px" letter-spacing="0px" word-spacing="0px" style="line-height:1.25" xml:space="preserve"><flowRegion><rect x="-100.59" y="-53.109" width="462.7" height="369.35"/></flowRegion><flowPara/></flowRoot>
   <g transform="translate(57.194 .21291)">
    <flowRoot fill="black" font-family="sans-serif" font-size="40px" letter-spacing="0px" word-spacing="0px" style="line-height:1.25" xml:space="preserve"><flowRegion><rect x="-329.12" y="-12.07" width="696.05" height="259.91"/></flowRegion><flowPara/></flowRoot>
    <g transform="translate(-1495.1 -629.38)">
     <flowRoot fill="black" font-family="sans-serif" font-size="40px" letter-spacing="0px" word-spacing="0px" style="line-height:1.25" xml:space="preserve"><flowRegion><rect x="-306.59" y="-111.05" width="206" height="51.5"/></flowRegion><flowPara/></flowRoot>
     <g transform="translate(174.63 .21291)">
      <g transform="translate(405.56 -.21291)">
       <rect x="658.71" y="-31.75" width="52.917" height="52.917" fill="#db3b3b" stroke="#000" stroke-linecap="round" stroke-width=".5" style="paint-order:fill markers stroke"/>
       <text x="685.12207" y="16.494095" fill="#ffffff" font-family="sans-serif" font-size="6.35px" letter-spacing="0px" stroke-width=".26458" word-spacing="0px" style="line-height:1.25" xml:space="preserve"><tspan x="685.12207" y="16.494095" fill="#ffffff" font-family="sans-serif" font-size="4.9389px" stroke-width=".26458" text-align="center" text-anchor="middle">Tekst oryginalny</tspan></text>
       <g transform="matrix(.0367 0 0 .0367 669.63 -27.159)" clip-rule="evenodd" fill="#fff" fill-rule="evenodd" image-rendering="optimizeQuality" shape-rendering="geometricPrecision">
        <path class="fil0" d="m511.43 240.91v62.51h69.5v32.31h-69.5v46.02h69.5v32.31h-69.5v46.01h69.5v32.32h-69.5v52.89h120.06v-483.71h-337.1v162.71h94.19l58.04-151.31h28.68l68.38 167.94zm0 341.37v199.73h-411.11v-557.73h157.07v-199.72h411.11v557.72zm-92.23-358h85.37l-12.16-31.86h-61.82zm20.55-57.02h43.03c-7.5-19.62-15.26-39.21-21.93-59.13-5.62 20.08-13.61 39.64-21.1 59.13zm114.48 480.31c-34.44 43.48-27.41 115.69 17.56 151.3 46.54 36.86 114.45 28.98 151.31-17.56 31.78-40.13 30.79-97.04-1.85-136.02l14.49-18.31-89.44-7.96 28.24 85.25 14.19-17.93c11.34 20.16 9.45 45.37-5.08 63.72-19.74 24.93-55.69 29.1-80.62 9.37-24.9-19.73-29.07-55.73-9.36-80.62 9.83-12.42 23.8-19.68 38.37-21.38l-14.65-48.77c-22.22 2.57-44.71 15.59-63.16 38.91zm-203.96-331.54c-1.62 31.59-13.21 62.39-35.65 85.08 14.81 15.62 31.03 22.52 51.83 26.16l-4.56 26.12c-27.39-4.85-49.06-14.86-68.04-35.74-14.14 8.71-27.67 12.88-43.98 15.74l-4.55-26.11c12.25-2.14 22.09-4.84 33.02-11.22-12.07-21.5-16.51-43.4-17.1-67.89 8.81-.23 17.62-.43 26.42-.64.44 18.47 3.2 34.74 11.52 51.35 15.3-17.34 23.18-39.96 24.62-62.85h-81.34v-26.76h47.24v-16.57h32.36v16.57h47.23v26.76zm-162.39 343.77h235.98v32.31h-235.98zm0-78.33h235.98v32.32h-235.98zm0-78.33h235.98v32.31h-235.98zm286.55-241.85h-337.1v483.71h337.1z" fill="#fff"/>
       </g>
      </g>
     </g>
    </g>
   </g>
  </g>
 </g>
</svg>
