<svg id="SVGRoot" width="206px" height="206px" version="1.1" viewBox="0 0 206 206" xmlns="http://www.w3.org/2000/svg">
 <g transform="matrix(3.7795 0 0 3.7795 674.44 -254.41)">
  <rect x="-177.22" y="68.329" width="52.258" height="52.258" fill="#fff" stroke="#000" stroke-linecap="round" stroke-width=".5" style="paint-order:fill markers stroke"/>
  <text x="-151.26297" y="116.58959" font-family="sans-serif" font-size="6.35px" letter-spacing="0px" stroke-width=".26458" text-align="center" text-anchor="middle" word-spacing="0px" style="line-height:0.94999999" xml:space="preserve"><tspan x="-151.26297" y="116.58959" font-family="sans-serif" class="svgT" letter-spacing=".5px" font-size="5.2px" stroke-width=".26458" text-align="center" text-anchor="middle">Update</tspan></text>
  <g transform="matrix(.025838 0 0 .025838 -164.32 73.932)">
   <path d="m194.5 270.7c1.5-2 3-4 4.5-5.9-2.1 2.7-4.2 5.4-6.3 8.1 23.1-29.8 49.8-56.6 79.5-79.7l-8.1 6.3c30-23.1 62.9-42.4 97.8-57.2-3.2 1.3-6.4 2.7-9.6 4 35.8-15 73.4-25.2 111.9-30.4-3.5.5-7.1 1-10.6 1.4 38.7-5.1 77.9-5.1 116.6 0-3.5-.5-7.1-1-10.6-1.4 38.4 5.2 76 15.4 111.7 30.4-3.2-1.3-6.4-2.7-9.6-4 34.9 14.7 67.7 33.9 97.7 57l-8.1-6.3c29.7 23 56.5 49.8 79.5 79.5-2.1-2.7-4.2-5.4-6.3-8.1 23.1 30 42.3 62.8 57 97.7-1.3-3.2-2.7-6.4-4-9.6 15 35.7 25.2 73.3 30.4 111.7-.5-3.5-1-7.1-1.4-10.6 2.5 19.4 3.8 38.8 3.9 58.4 0 20.9 18.4 41 40 40s40-17.6 40-40c-.1-76.6-18.7-152.2-53.7-220.3-33.9-66-83.8-122.1-143.1-166.3-57.3-42.7-126-72.1-196.4-84.2-82.2-14.1-167.8-8.5-246.4 20.2-78 28.5-149 76.2-202.6 139.8-7.9 9.4-15.5 19.2-22.9 29.1-5.8 7.8-6.5 21.9-4 30.8 2.6 9.3 9.7 19.3 18.4 23.9 9.3 4.9 20.5 7.4 30.8 4 3.2-1.3 6.4-2.7 9.6-4 6.1-3.5 10.8-8.3 14.4-14.3z"/>
   <path d="m330 217.2h-61.9-98.9-23l40 40v-61.9-98.9-23c0-20.9-18.4-41-40-40-21.7 1-40 17.6-40 40v61.9 98.9 23c0 21.6 18.3 40 40 40h61.9 98.9 23c20.9 0 41-18.4 40-40-1-21.7-17.6-40-40-40z"/>
   <path d="m829.5 753.3c-1.5 2-3 4-4.5 5.9 2.1-2.7 4.2-5.4 6.3-8.1-23 29.8-49.8 56.6-79.5 79.7l8.1-6.3c-30 23.1-62.9 42.4-97.8 57.2 3.2-1.3 6.4-2.7 9.6-4-35.8 15-73.4 25.2-111.9 30.4 3.5-.5 7.1-1 10.6-1.4-38.7 5.1-77.9 5.1-116.6 0 3.5.5 7.1 1 10.6 1.4-38.4-5.2-76-15.4-111.7-30.4 3.2 1.3 6.4 2.7 9.6 4-34.9-14.7-67.7-33.9-97.7-57l8.1 6.3c-29.7-23-56.5-49.8-79.5-79.5 2.1 2.7 4.2 5.4 6.3 8.1-23.1-30-42.3-62.8-57-97.7 1.3 3.2 2.7 6.4 4 9.6-15-35.7-25.2-73.3-30.4-111.7.5 3.5 1 7.1 1.4 10.6-2.5-19.4-3.8-38.8-3.9-58.4 0-20.9-18.4-41-40-40s-40 17.6-40 40c.1 76.6 18.7 152.2 53.7 220.3 33.9 66 83.8 122.1 143.1 166.3 57.3 42.7 126 72.1 196.4 84.2 82.2 14.1 167.8 8.5 246.4-20.2 78-28.5 149-76.2 202.6-139.8 7.9-9.4 15.5-19.2 22.9-29.1 5.8-7.8 6.5-21.9 4-30.8-2.6-9.3-9.7-19.3-18.4-23.9-9.3-4.9-20.5-7.4-30.8-4-3.2 1.3-6.4 2.7-9.6 4-6.1 3.5-10.8 8.3-14.4 14.3z"/>
   <path d="m694 806.8h61.9 98.9 23l-40-40v61.9 98.9 23c0 20.9 18.4 41 40 40 21.7-1 40-17.6 40-40v-61.9-98.9-23c0-21.6-18.3-40-40-40h-61.9-98.9-23c-20.9 0-41 18.4-40 40 1 21.7 17.6 40 40 40z"/>
  </g>
 </g>
</svg>
