<svg id="SVGRoot" width="203" height="204" version="1.1" viewBox="0 0 203 204" xmlns="http://www.w3.org/2000/svg">
 <g transform="translate(0,3)">
  <g transform="matrix(3.7795 0 0 3.7795 10.171 -6.7758)">
   <g transform="translate(-1.0884 -121.69)">
    <rect x="-1.0394" y="123.5" width="52.917" height="52.917" fill="#0082b4" stroke="#000" stroke-linecap="round" stroke-width=".5" style="paint-order:fill markers stroke"/>
    <text transform="scale(1.0125 .98768)" x="25.209641" y="169.32033" fill="#ffffff" font-family="sans-serif" class="svgT" letter-spacing=".5px" font-size="5.2px" stroke-width=".26132" text-align="center" text-anchor="middle" word-spacing="0px" style="line-height:1.04999995" xml:space="preserve"><tspan x="25.209641" y="169.32033" text-align="center">USTAWIENIA</tspan><tspan x="25.209641" y="174.50616" text-align="center">DOKUMENTU</tspan></text>
    <g transform="matrix(.44176 0 0 .44176 3.3309 121.38)" fill="#fff">
     <path d="m50 20c-5.524 0-10 4.476-10 10s4.476 10 10 10 10-4.476 10-10-4.476-10-10-10zm0 13.333c-1.836 0-3.333-1.496-3.333-3.333s1.497-3.333 3.333-3.333 3.333 1.496 3.333 3.333-1.497 3.333-3.333 3.333z"/>
     <path d="m20 20c-5.524 0-10 4.476-10 10s4.476 10 10 10 10-4.476 10-10-4.476-10-10-10zm0 13.333c-1.836 0-3.333-1.496-3.333-3.333s1.497-3.333 3.333-3.333 3.333 1.496 3.333 3.333-1.497 3.333-3.333 3.333z"/>
     <path d="m80 20c-5.524 0-10 4.476-10 10s4.476 10 10 10 10-4.476 10-10-4.476-10-10-10zm0 13.333c-1.839 0-3.333-1.496-3.333-3.333s1.494-3.333 3.333-3.333 3.333 1.496 3.333 3.333-1.494 3.333-3.333 3.333z"/>
     <rect x="10" y="46.667" width="20" height="6.667"/>
     <rect x="10" y="60" width="13.333" height="6.667"/>
     <rect x="40" y="46.667" width="13.333" height="6.667"/>
     <rect x="40" y="60" width="20" height="6.667"/>
     <rect x="70" y="46.667" width="20" height="6.667"/>
     <rect x="70" y="60" width="20" height="6.667"/>
     <rect x="10" y="73.333" width="20" height="6.667"/>
     <rect x="40" y="73.333" width="13.333" height="6.667"/>
     <rect x="70" y="73.333" width="13.333" height="6.667"/>
    </g>
   </g>
  </g>
 </g>
</svg>
