<svg id="SVGRoot" width="208" height="208" version="1.1" viewBox="0 0 208 208" xmlns="http://www.w3.org/2000/svg">
 <g transform="translate(0,7)">
  <g transform="matrix(3.7795 0 0 3.7795 10.171 -6.7758)">
   <g transform="translate(-1.0884 -121.69)">
    <g transform="translate(1.6608 -59.209)">
     <g transform="translate(-.6443 -59.335)">
      <g transform="translate(-1396.8 269.89)">
       <g transform="translate(-57.972 -.024822)">
        <g transform="translate(1658.1 73.867)">
         <g transform="translate(-203.03 -103.33)">
          <flowRoot transform="matrix(.26458 0 0 .26458 -2.875 1.091)" fill="#000000" font-family="sans-serif" font-size="40px" letter-spacing="0px" word-spacing="0px" style="line-height:1.25" xml:space="preserve"><flowRegion><rect x="-85.582" y="-60.812" width="342.33" height="293.65"/></flowRegion><flowPara/></flowRoot>
          <g transform="translate(-1039.4 318.88)">
           <flowRoot transform="matrix(.26458 0 0 .26458 1036.5 -317.79)" fill="#000000" font-family="sans-serif" font-size="40px" letter-spacing="0px" word-spacing="0px" style="line-height:1.25" xml:space="preserve"><flowRegion><rect x="-105.21" y="-13.703" width="562.17" height="513.49"/></flowRegion><flowPara/></flowRoot>
           <g transform="translate(-66.134 .039287)">
            <g transform="translate(-66.173 .043409)">
             <flowRoot transform="matrix(.26458 0 0 .26458 1168.8 -317.87)" fill="#000000" font-family="sans-serif" font-size="40px" letter-spacing="0px" word-spacing="0px" style="line-height:1.25" xml:space="preserve"><flowRegion><rect x="-114.63" y="-91.434" width="675.23" height="522.91"/></flowRegion><flowPara/></flowRoot>
             <g transform="translate(-66.2 -.040316)">
              <g transform="translate(-65.918 -.60254)">
               <g transform="translate(-66.6 .14883)">
                <flowRoot fill="black" font-family="sans-serif" font-size="40px" letter-spacing="0px" word-spacing="0px" style="line-height:1.25" xml:space="preserve"><flowRegion><rect x="-24.34" y="-19.695" width="252.04" height="245.75"/></flowRegion><flowPara/></flowRoot>
                <g transform="translate(-68.678 -.48293)">
                 <flowRoot fill="black" font-family="sans-serif" font-size="40px" letter-spacing="0px" word-spacing="0px" style="line-height:1.25" xml:space="preserve"><flowRegion><rect x="-65.168" y="-26.762" width="382.37" height="335.26"/></flowRegion><flowPara/></flowRoot>
                 <g transform="translate(-63.347 .4912)">
                  <g transform="translate(529.82 -.18087)">
                   <g transform="translate(794.67 .06923)">
                    <g transform="translate(-198.36 .17569)">
                     <g transform="translate(-530.68 .043413)">
                      <g transform="translate(912.04 -.041317)">
                       <g transform="translate(132.58 -.39794)">
                        <g transform="translate(-580.62 .35866)">
                         <g transform="translate(-264.6 -.1571)">
                          <g transform="translate(463.55 .097138)">
                           <g transform="translate(-397.36 .059959)">
                            <g transform="translate(66.026 -.30592)">
                             <g transform="translate(-264.69 -.093008)">
                              <g transform="translate(734.89 179.33)">
                               <g transform="translate(-205.07 -178.97)">
                                <g transform="translate(-1081.1 -686.85)">
                                 <flowRoot fill="black" font-family="sans-serif" font-size="40px" letter-spacing="0px" word-spacing="0px" style="line-height:1.25" xml:space="preserve"><flowRegion><rect x="21" y="-71" width="223" height="308"/></flowRegion><flowPara/></flowRoot>
                                 <g transform="translate(-112.28 .55746)">
                                  <g transform="translate(-396.77 -.26462)">
                                   <g transform="translate(167.68 .26462)">
                                    <g transform="translate(457.35 -.55746)">
                                     <g transform="translate(452.66 .26458)">
                                      <g transform="translate(-200.71 456.02)">
                                       <rect x="1022" y="-86.664" width="52.632" height="52.632" fill="#b9d4ff" stroke="#000" stroke-linecap="round" stroke-width=".28429" style="paint-order:fill markers stroke"/>
                                       <text x="1048.124" y="-38.335087" font-family="sans-serif" font-size="6.35px" letter-spacing="0px" stroke-width=".26458" text-align="end" text-anchor="end" word-spacing="0px" style="line-height:1.04999995" xml:space="preserve"><tspan x="1048.124" y="-38.335087" font-family="sans-serif" class="svgT" letter-spacing=".5px" font-size="5.2px" stroke-width=".26458" text-align="center" text-anchor="middle">Ustaw czcionkę</tspan></text>
                                       <g transform="matrix(1.0732 0 0 1.0732 1031.1 -83.382)">
                                        <path d="m22 12.333c-.55273 0-1-.44727-1-1v-.33301h-10v.33301c0 .55273-.44727 1-1 1-.55273 0-1-.44727-1-1v-1.333c0-.55273.44727-1 1-1h12c.55273 0 1 .44727 1 1v1.333c0 .55273-.44727 1-1 1z"/>
                                        <path d="m16 23c-.55273 0-1-.44727-1-1v-12c0-.55273.44727-1 1-1s1 .44727 1 1v12c0 .55273-.44727 1-1 1z"/>
                                        <path d="m18.667 23h-5.334c-.55274 0-1-.44727-1-1s.44726-1 1-1h5.334c.55274 0 1 .44727 1 1s-.44726 1-1 1z"/>
                                        <path d="m4 8c-2.2061 0-4-1.7939-4-4s1.7939-4 4-4 4 1.7939 4 4-1.7939 4-4 4zm0-6c-1.1025 0-2 .89746-2 2s.89746 2 2 2 2-.89746 2-2-.89746-2-2-2z"/>
                                        <path d="m28 8c-2.2061 0-4-1.7939-4-4s1.7939-4 4-4 4 1.7939 4 4-1.7939 4-4 4zm0-6c-1.1025 0-2 .89746-2 2s.89746 2 2 2 2-.89746 2-2-.89746-2-2-2z"/>
                                        <path d="m4 32c-2.2061 0-4-1.7939-4-4s1.7939-4 4-4 4 1.7939 4 4-1.7939 4-4 4zm0-6c-1.1025 0-2 .89746-2 2s.89746 2 2 2 2-.89746 2-2-.89746-2-2-2z"/>
                                        <path d="m28 32c-2.2061 0-4-1.7939-4-4s1.7939-4 4-4 4 1.7939 4 4-1.7939 4-4 4zm0-6c-1.1025 0-2 .89746-2 2s.89746 2 2 2 2-.89746 2-2-.89746-2-2-2z"/>
                                        <path d="m25.038 29.377h-18.076c-.28711 0-.55957-.12305-.75-.33789-.18945-.21582-.27832-.50195-.24219-.78613 0-.0039.012695-.0957.013672-.10059.0068358-.049805.016601-.10059.016601-.15234 0-1.1025-.89746-2-2-2-.051758 0-.10254.0098-.15234.0166-.00488.000976-.09668.01367-.10059.01367-.28223.03516-.57129-.05273-.78613-.24219-.21484-.19043-.33789-.46289-.33789-.75v-18.076c0-.28711.12305-.55957.33789-.75.21484-.18945.50391-.27441.78613-.24219.00391 0 .095703.012695.10059.013672.049805.0068358.10059.016601.15234.016601 1.1025 0 2-.89746 2-2 0-.051758-.0097656-.10254-.016602-.15234-.0009765-.0048828-.013672-.09668-.013672-.10059-.036133-.28418.052734-.57031.24219-.78613.19043-.21484.46289-.33789.75-.33789h18.076c.28711 0 .55957.12305.75.33789.18945.21582.27832.50195.24219.78613 0 .00391-.0127.095703-.01367.10059-.006837.049805-.016603.10059-.016603.15234 0 1.1025.89746 2 2 2 .05176 0 .10254-.00977.15234-.016602.0049-.0009766.09668-.013672.10059-.013672.28223-.032227.57226.052734.78613.24219.21484.19043.33789.46289.33789.75v18.076c0 .28711-.12305.55957-.33789.75-.21387.18945-.50391.27734-.78613.24219-.0039 0-.0957-.0127-.10059-.01367-.049805-.006837-.10059-.016603-.15234-.016603-1.1025 0-2 .89746-2 2 0 .05176.0098.10254.0166.15234.000976.0049.01367.09668.01367.10059.03613.28418-.05273.57031-.24219.78613-.19043.21484-.46289.33789-.75.33789zm-17.087-2h16.098c.26758-1.708 1.6201-3.0605 3.3281-3.3281v-16.098c-1.708-.26758-3.0605-1.6201-3.3281-3.3281h-16.098c-.26758 1.708-1.6201 3.0605-3.3281 3.3281v16.098c1.708.26758 3.0605 1.6201 3.3281 3.3281z"/>
                                       </g>
                                      </g>
                                     </g>
                                    </g>
                                   </g>
                                  </g>
                                 </g>
                                </g>
                               </g>
                              </g>
                             </g>
                            </g>
                           </g>
                          </g>
                         </g>
                        </g>
                       </g>
                      </g>
                     </g>
                    </g>
                   </g>
                  </g>
                 </g>
                </g>
               </g>
              </g>
             </g>
            </g>
           </g>
          </g>
         </g>
        </g>
       </g>
      </g>
     </g>
    </g>
   </g>
  </g>
 </g>
</svg>
