<?xml version="1.0" encoding="UTF-8" standalone="no"?>
<svg
   xmlns:dc="http://purl.org/dc/elements/1.1/"
   xmlns:cc="http://creativecommons.org/ns#"
   xmlns:rdf="http://www.w3.org/1999/02/22-rdf-syntax-ns#"
   xmlns:svg="http://www.w3.org/2000/svg"
   xmlns="http://www.w3.org/2000/svg"
   id="svg47"
   version="1.1"
   viewBox="0 0 52.758294 52.758296"
   height="199.40143"
   width="199.40143">
  <defs
     id="defs42">
    <pattern
       id="EMFhbasepattern"
       patternUnits="userSpaceOnUse"
       width="6"
       height="6"
       x="0"
       y="0" />
  </defs>
  <metadata
     id="metadata45">
    <rdf:RDF>
      <cc:Work
         rdf:about="">
        <dc:format>image/svg+xml</dc:format>
        <dc:type
           rdf:resource="http://purl.org/dc/dcmitype/StillImage" />
        <dc:title></dc:title>
      </cc:Work>
    </rdf:RDF>
  </metadata>
  <g
     id="g8556"
     transform="translate(49.836509,-375.23204)">
    <g
       id="g5305">
      <text
         id="text898-7-3-6-8-3-3-0-66-7-8-8-0-8-3-4-2-6-22-3-3-4-7-0-2-6-2"
         y="425.61624"
         x="-23.21401"
         style="font-size:6.3499999px;line-height:0.94999999;font-family:voestalpine;-inkscape-font-specification:voestalpine;text-align:center;letter-spacing:0px;word-spacing:0px;text-anchor:middle;fill:#ffffff;fill-opacity:1;stroke-width:0.26458299"
         xml:space="preserve"><tspan
           style="font-size:6.3499999px;text-align:center;text-anchor:middle;fill:#ffffff;fill-opacity:1;stroke-width:0.26458299"
           y="425.61624"
           x="-23.21401"
           id="tspan3280-8-2-3-8">Pokaż nagłówek</tspan></text>
      <g
         style="fill:#ffffff;fill-opacity:1;stroke:#ffffff;stroke-opacity:1"
         id="g3425-7-6"
         transform="matrix(0.43424404,0,0,-0.43424404,-45.178706,415.78283)">
        <rect
           id="rect3393-7-1"
           height="2"
           width="13.89"
           y="68.667"
           x="17.409"
           style="fill:#ffffff;fill-opacity:1;stroke:#ffffff;stroke-opacity:1" />
        <path
           id="path3395-1-7"
           d="M 85.235,77.833 H 14.106 c -2.998,0 -5.436,-2.438 -5.436,-5.436 V 23.27 c 0,-2.998 2.438,-5.436 5.436,-5.436 h 71.129 c 2.998,0 5.436,2.438 5.436,5.436 v 49.128 c -0.001,2.998 -2.438,5.435 -5.436,5.435 z m -71.129,-58 c -1.895,0 -3.436,1.541 -3.436,3.437 v 49.128 c 0,1.895 1.541,3.436 3.436,3.436 h 71.129 c 1.895,0 3.436,-1.541 3.436,-3.436 V 23.27 c 0,-1.896 -1.541,-3.437 -3.436,-3.437 z"
           style="fill:#ffffff;fill-opacity:1;stroke:#ffffff;stroke-opacity:1" />
        <rect
           id="rect3397-6-6"
           height="2"
           width="13.89"
           y="68.667"
           x="42.648998"
           style="fill:#ffffff;fill-opacity:1;stroke:#ffffff;stroke-opacity:1" />
        <rect
           id="rect3399-8-5"
           height="2"
           width="13.89"
           y="68.667"
           x="67.704002"
           style="fill:#ffffff;fill-opacity:1;stroke:#ffffff;stroke-opacity:1" />
        <rect
           id="rect3401-4-7"
           height="2"
           width="13.89"
           y="62.667"
           x="17.500999"
           style="fill:#ffffff;fill-opacity:1;stroke:#ffffff;stroke-opacity:1" />
        <rect
           id="rect3403-9-4"
           height="2"
           width="13.89"
           y="62.667"
           x="42.742001"
           style="fill:#ffffff;fill-opacity:1;stroke:#ffffff;stroke-opacity:1" />
        <rect
           id="rect3405-2-5"
           height="2"
           width="13.89"
           y="62.667"
           x="67.795998"
           style="fill:#ffffff;fill-opacity:1;stroke:#ffffff;stroke-opacity:1" />
        <rect
           id="rect3407-0-9"
           height="2"
           width="64.139"
           y="56.667"
           x="17.500999"
           style="fill:#ffffff;fill-opacity:1;stroke:#ffffff;stroke-opacity:1" />
      </g>
      <g
         id="g212"
         transform="translate(-48.686776,251.59879)">
        <rect
           y="123.50095"
           x="-1.0394351"
           height="52.916668"
           width="52.916668"
           id="rect833-0-59"
           style="fill:#0082b4;fill-opacity:1;stroke:#000000;stroke-width:0.49999899;stroke-linecap:round;stroke-miterlimit:4;stroke-dasharray:none;stroke-opacity:1;paint-order:fill markers stroke" />
        <text
           transform="scale(1.0124726,0.98768104)"
           id="text858-5-83-73-7-0-7-0-7-9-81-0-2-2-6"
           y="170.75888"
           x="25.209641"
           style="font-size:6.27179003px;line-height:1.04999995;font-family:voestalpine;-inkscape-font-specification:voestalpine;text-align:center;letter-spacing:0px;word-spacing:0px;text-anchor:middle;stroke-width:0.261323"
           xml:space="preserve"><tspan
             id="tspan1140"
             style="font-size:6.27179003px;text-align:center;text-anchor:middle;fill:#ffffff;fill-opacity:1;stroke-width:0.261323"
             y="170.75888"
             x="25.209641">USTAWIENIA</tspan><tspan
             style="font-size:6.27179003px;text-align:center;text-anchor:middle;fill:#ffffff;fill-opacity:1;stroke-width:0.261323"
             y="177.34425"
             x="25.209641"
             id="tspan928">DOKUMENTU</tspan></text>
        <g
           transform="matrix(0.44175967,0,0,0.44175967,3.3309153,121.37761)"
           id="g1101"
           style="fill:#ffffff;fill-opacity:1">
          <path
             style="fill:#ffffff;fill-opacity:1"
             d="m 50,20 c -5.524,0 -10,4.476 -10,10 0,5.524 4.476,10 10,10 5.524,0 10,-4.476 10,-10 0,-5.524 -4.476,-10 -10,-10 z m 0,13.333 c -1.836,0 -3.333,-1.496 -3.333,-3.333 0,-1.837 1.497,-3.333 3.333,-3.333 1.836,0 3.333,1.496 3.333,3.333 0,1.837 -1.497,3.333 -3.333,3.333 z"
             id="path1057" />
          <path
             style="fill:#ffffff;fill-opacity:1"
             d="m 20,20 c -5.524,0 -10,4.476 -10,10 0,5.524 4.476,10 10,10 5.524,0 10,-4.476 10,-10 0,-5.524 -4.476,-10 -10,-10 z m 0,13.333 c -1.836,0 -3.333,-1.496 -3.333,-3.333 0,-1.837 1.497,-3.333 3.333,-3.333 1.836,0 3.333,1.496 3.333,3.333 0,1.837 -1.497,3.333 -3.333,3.333 z"
             id="path1059" />
          <path
             style="fill:#ffffff;fill-opacity:1"
             d="m 80,20 c -5.524,0 -10,4.476 -10,10 0,5.524 4.476,10 10,10 5.524,0 10,-4.476 10,-10 0,-5.524 -4.476,-10 -10,-10 z m 0,13.333 c -1.839,0 -3.333,-1.496 -3.333,-3.333 0,-1.837 1.494,-3.333 3.333,-3.333 1.839,0 3.333,1.496 3.333,3.333 0,1.837 -1.494,3.333 -3.333,3.333 z"
             id="path1061" />
          <rect
             style="fill:#ffffff;fill-opacity:1"
             x="10"
             y="46.667"
             width="20"
             height="6.6669998"
             id="rect1063" />
          <rect
             style="fill:#ffffff;fill-opacity:1"
             x="10"
             y="60"
             width="13.333"
             height="6.6669998"
             id="rect1065" />
          <rect
             style="fill:#ffffff;fill-opacity:1"
             x="40"
             y="46.667"
             width="13.333"
             height="6.6669998"
             id="rect1067" />
          <rect
             style="fill:#ffffff;fill-opacity:1"
             x="40"
             y="60"
             width="20"
             height="6.6669998"
             id="rect1069" />
          <rect
             style="fill:#ffffff;fill-opacity:1"
             x="70"
             y="46.667"
             width="20"
             height="6.6669998"
             id="rect1071" />
          <rect
             style="fill:#ffffff;fill-opacity:1"
             x="70"
             y="60"
             width="20"
             height="6.6669998"
             id="rect1073" />
          <rect
             style="fill:#ffffff;fill-opacity:1"
             x="10"
             y="73.333"
             width="20"
             height="6.6669998"
             id="rect1075" />
          <rect
             style="fill:#ffffff;fill-opacity:1"
             x="40"
             y="73.333"
             width="13.333"
             height="6.6669998"
             id="rect1077" />
          <rect
             style="fill:#ffffff;fill-opacity:1"
             x="70"
             y="73.333"
             width="13.333"
             height="6.6669998"
             id="rect1079" />
        </g>
      </g>
    </g>
  </g>
</svg>
