<svg id="SVGRoot" width="206px" height="206px" version="1.1" viewBox="0 0 206 206" xmlns="http://www.w3.org/2000/svg">
 <g transform="matrix(3.7795 0 0 3.7795 -1745.9 -886.33)">
  <rect x="462.96" y="235.42" width="52.258" height="52.258" fill="#fff" stroke="#000" stroke-linecap="round" stroke-width=".5" style="paint-order:fill markers stroke"/>
  <text x="488.84256" y="283.75845" font-family="sans-serif" font-size="6.35px" letter-spacing="0px" stroke-width=".26458" text-align="center" text-anchor="middle" word-spacing="0px" style="line-height:0.94999999" xml:space="preserve"><tspan x="488.84256" y="283.75845" font-family="sans-serif" font-size="4.9389px" stroke-width=".26458" text-align="center" text-anchor="middle">Ustaw marginesy</tspan></text>
  <text x="489.09174" y="286.74344" font-family="sans-serif" font-size="5.6444px" letter-spacing="0px" stroke-width=".26458" word-spacing="0px" style="line-height:1.25" xml:space="preserve"><tspan x="489.09174" y="286.74344" font-family="sans-serif" stroke-width=".26458"> </tspan></text>
  <g transform="matrix(1.8547 0 0 1.8547 474.25 240.86)">
   <path d="m2.416-.0058594a.50005.50005 0 00-.33789.16406l-.94336 1.0059a.50005.50005 0 00-.13477.31641v-1.4746h-1v16h4v-12h-3v-2.4766a.50005.50005 0 00.13477.31836l.94336 1.0078a.50022.50022 0 00.73047-.68359l-.15625-.16602h1.6973l-.15625.16602a.50022.50022 0 00.73047.68359l.94141-1.0078a.50005.50005 0 000-.68359l-.94141-1.0059a.50005.50005 0 00-.40234-.16406.50005.50005 0 00-.32812.8457l.15625.16602h-1.6973l.15625-.16602a.50005.50005 0 00-.39258-.8457zm6 0a.50005.50005 0 00-.33789.16406l-.94336 1.0059a.50005.50005 0 00-.13477.31641v-1.4746h-1v9.5h3v-5.5h-2v-2.4766a.50005.50005 0 00.13477.31836l.94336 1.0078a.50022.50022 0 10.73047-.68359l-.15625-.16602h1.6973l-.15625.16602a.50022.50022 0 00.73047.68359l.94141-1.0078a.50005.50005 0 000-.68359l-.94141-1.0059a.50005.50005 0 00-.40234-.16406.50005.50005 0 00-.32812.8457l.15625.16602h-1.6973l.15625-.16602a.50005.50005 0 00-.39258-.8457zm3.584.011719v9.5h4v-5.5h-3v-4zm-11 5h2v10h-2zm6 0h1v3.5h-1zm6 0h2v3.5h-2z" color="#000000" color-rendering="auto" image-rendering="auto" shape-rendering="auto" solid-color="#000000" style="isolation:auto;mix-blend-mode:normal;text-decoration-color:#000000;text-decoration-line:none;text-decoration-style:solid;text-indent:0;text-transform:none;white-space:normal"/>
  </g>
 </g>
</svg>
