<svg id="SVGRoot" width="206px" height="206px" version="1.1" viewBox="0 0 206 206" xmlns="http://www.w3.org/2000/svg">
 <g transform="matrix(3.7795 0 0 3.7795 -5465.1 -1392.5)">
  <g transform="translate(568.99 .31936)">
   <rect x="877.89" y="369.54" width="52.258" height="52.258" fill="#fff" stroke="#000" stroke-linecap="round" stroke-width=".5" style="paint-order:fill markers stroke"/>
   <text x="904.37592" y="418.298" font-family="sans-serif" font-size="6.35px" letter-spacing="0px" stroke-width=".26458" text-align="center" text-anchor="middle" word-spacing="0px" style="line-height:0.94999999" xml:space="preserve"><tspan x="904.37592" y="418.298" font-family="sans-serif" font-size="4.9389px" stroke-width=".26458" text-align="center" text-anchor="middle">Usuń komentarz</tspan></text>
   <path d="m886.48 395.59h7.8268l6.6646 5.4684v-5.4684h2.4064c1.2142 0 2.202-1.0052 2.202-2.2406v-11.359c0-1.2355-.98717-2.2406-2.202-2.2406h-16.898c-1.2142 0-2.202 1.0052-2.202 2.2406v11.358c0 1.2361.98784 2.2413 2.202 2.2413zm-.87068-13.599c0-.50124.39007-.90929.87068-.90929h16.898c.47927 0 .87002.40805.87002.90929v11.358c0 .50125-.39075.90929-.87069.90929h-3.7377v3.9846l-4.8567-3.9846h-8.3028c-.48061.00067-.87068-.40738-.87068-.90862z"/>
   <text x="897.50104" y="402.86057" font-family="sans-serif" font-size="38.585px" letter-spacing="0px" stroke-width=".66718" word-spacing="0px" style="line-height:1.25" xml:space="preserve"><tspan x="897.50104" y="402.86057" font-family="sans-serif" stroke-width=".66718">X</tspan></text>
  </g>
 </g>
</svg>
