<svg id="SVGRoot" width="206px" height="206px" version="1.1" viewBox="0 0 206 206" xmlns="http://www.w3.org/2000/svg">
 <g transform="matrix(3.7795 0 0 3.7795 -5465.1 -1392.5)">
  <g transform="translate(1045.2 133.98)">
   <rect x="401.82" y="235.25" width="52.258" height="52.258" fill="#fff" stroke="#000" stroke-linecap="round" stroke-width=".5" style="paint-order:fill markers stroke"/>
   <text x="427.90881" y="277.66278" font-family="sans-serif" font-size="4.9389px" letter-spacing="0px" stroke-width=".26458" text-align="center" text-anchor="middle" word-spacing="0px" style="line-height:0.94999999" xml:space="preserve"><tspan x="427.90881" y="277.66278" text-align="center">Usuń ostatnią</tspan><tspan x="427.90881" y="283.69528" text-align="center">sekcję</tspan></text>
   <text x="427.94724" y="286.57382" font-family="sans-serif" font-size="5.6444px" letter-spacing="0px" stroke-width=".26458" word-spacing="0px" style="line-height:1.25" xml:space="preserve"><tspan x="427.94724" y="286.57382" font-family="sans-serif" stroke-width=".26458"> </tspan></text>
   <g transform="matrix(.40452 0 0 .40452 407.72 234.71)">
    <path d="m50 10c-22.091 0-40 17.909-40 40 0 22.091 17.909 40 40 40s40-17.909 40-40c0-22.091-17.909-40-40-40zm0 37.156 12.719-12.719c.96794-.82871 1.7823-.6133 2.7407-.1454.97145.9086.57126 2.0939.10308 2.9579l-12.75 12.75 12.75 12.719c.76493.7381.7734 2.1143.0176 2.8617-.75579.7475-2.1318.7238-2.8614-.049l-12.719-12.719-12.719 12.719c-.72957.7731-2.1056.7968-2.8614.049-.75578-.7474-.74731-2.1236.0176-2.8617l12.75-12.719-12.75-12.75c-.78437-1.1678-.67664-1.9436.0369-2.9111 1.1603-.5567 1.9699-.3787 2.7468.064 4.2748 4.2229 8.5249 8.4997 12.779 12.754z" color="#000000" overflow="visible"/>
   </g>
  </g>
 </g>
</svg>
