<svg id="SVGRoot" width="206px" height="206px" version="1.1" viewBox="0 0 206 206" xmlns="http://www.w3.org/2000/svg">
 <g transform="matrix(3.7795 0 0 3.7795 -5465.1 -1392.5)">
  <g transform="translate(1623.7 134.19)">
   <rect x="-176.31" y="235.25" width="52.258" height="52.258" fill="#fff" stroke="#000" stroke-linecap="round" stroke-width=".5" style="paint-order:fill markers stroke"/>
   <text x="-150.35799" y="277.44989" font-family="sans-serif" font-size="4.9389px" letter-spacing="0px" stroke-width=".26458" text-align="center" text-anchor="middle" word-spacing="0px" style="line-height:0.94999999" xml:space="preserve"><tspan x="-150.35799" y="277.44989" text-align="center">Usuń wielokrotne</tspan><tspan x="-150.35799" y="283.48239" text-align="center">spacje i entery</tspan></text>
   <g transform="matrix(.69362 0 0 .69362 -184.87 219.75)" fill-rule="evenodd">
    <path d="m25 36.996v26.008c0 1.1063.89285 1.9961 2.0015 1.9961h45.997c1.1095 0 2.0015-.89164 2.0015-1.9961v-26.008c0-1.1063-.89285-1.9961-2.0015-1.9961h-45.997c-1.1095 0-2.0015.89164-2.0015 1.9961zm-2 0c0-2.2092 1.7876-3.9961 4.0015-3.9961h45.997c2.2117 0 4.0015 1.7837 4.0015 3.9961v26.008c0 2.2092-1.7876 3.9961-4.0015 3.9961h-45.997c-2.2117 0-4.0015-1.7837-4.0015-3.9961z" fill-rule="nonzero"/>
    <path transform="rotate(-90,40,50)" d="m40.873 41.875c-.49206-.48344-1.2861-.48552-1.7863.008l-7.7762 7.6719c-.94112.91753.47006 2.2933 1.4112 1.3758l5.9248-5.7758c.19642-.19149.35566-.11728.35566.15532v12.716c0 .53758.44661.97299.998.97299.5509 0 .998-.43541.998-.97299v-12.717c0-.27727.15525-.3507.35566-.15532l5.9248 5.7758c.94062.91753 2.3523-.45828 1.4112-1.3758z"/>
   </g>
  </g>
 </g>
</svg>
