<?xml version="1.0" encoding="UTF-8" standalone="no"?>
<svg
   xmlns:dc="http://purl.org/dc/elements/1.1/"
   xmlns:cc="http://creativecommons.org/ns#"
   xmlns:rdf="http://www.w3.org/1999/02/22-rdf-syntax-ns#"
   xmlns:svg="http://www.w3.org/2000/svg"
   xmlns="http://www.w3.org/2000/svg"
   id="svg47"
   version="1.1"
   viewBox="0 0 52.758294 52.758296"
   height="199.40143"
   width="199.40143">
  <defs
     id="defs42">
    <pattern
       id="EMFhbasepattern"
       patternUnits="userSpaceOnUse"
       width="6"
       height="6"
       x="0"
       y="0" />
  </defs>
  <metadata
     id="metadata45">
    <rdf:RDF>
      <cc:Work
         rdf:about="">
        <dc:format>image/svg+xml</dc:format>
        <dc:type
           rdf:resource="http://purl.org/dc/dcmitype/StillImage" />
        <dc:title></dc:title>
      </cc:Work>
    </rdf:RDF>
  </metadata>
  <g
     transform="translate(176.4917,-235.00174)"
     id="g7208">
    <rect
       style="fill:#ffffff;stroke:#000000;stroke-width:0.49999899;stroke-linecap:round;stroke-miterlimit:4;stroke-dasharray:none;stroke-opacity:1;paint-order:fill markers stroke"
       id="rect833-1-5-3-7"
       width="52.258293"
       x="-176.31366"
       y="235.24812"
       height="52.258293" />
    <text
       xml:space="preserve"
       style="font-size:6.3499999px;line-height:0.94999999;font-family:voestalpine;-inkscape-font-specification:voestalpine;text-align:center;letter-spacing:0px;word-spacing:0px;text-anchor:middle;stroke-width:0.26458299"
       x="-150.35799"
       y="279.37292"
       id="text898-7-3-6-8"><tspan
         x="-150.35799"
         y="279.37292"
         style="font-size:6.3499999px;text-align:center;text-anchor:middle;stroke-width:0.26458299"
         id="tspan900-6-1-6-3">Usuń wielokrotne</tspan><tspan
         x="-150.35799"
         y="285.40543"
         style="font-size:6.3499999px;text-align:center;text-anchor:middle;stroke-width:0.26458299"
         id="tspan1534">spacje i entery</tspan></text>
    <g
       id="g1359">
      <g
         transform="matrix(0.6936181,0,0,0.6936181,-184.86541,219.75124)"
         id="g1514"
         style="fill:none;fill-rule:evenodd;stroke:none;stroke-width:1">
        <path
           style="fill:#000000;fill-rule:nonzero"
           d="M 25,36.9961 V 63.0039 C 25,64.110218 25.89285,65 27.001482,65 H 72.998518 C 74.108018,65 75,64.108355 75,63.0039 V 36.9961 C 75,35.889782 74.10715,35 72.998518,35 H 27.001482 C 25.891981,35 25,35.891645 25,36.9961 Z m -2,0 C 23,34.786906 24.787581,33 27.001482,33 H 72.998518 C 75.210181,33 77,34.783669 77,36.9961 V 63.0039 C 77,65.213094 75.212419,67 72.998518,67 H 27.001482 C 24.789819,67 23,65.216331 23,63.0039 Z"
           id="path1510" />
        <path
           style="fill:#000000"
           d="m 40.872918,41.875351 c -0.492058,-0.483443 -1.286082,-0.485521 -1.786296,0.008 l -7.77619,7.671864 c -0.941116,0.917529 0.470058,2.293335 1.411174,1.375806 l 5.924766,-5.775815 c 0.196424,-0.191486 0.355657,-0.117284 0.355657,0.155325 v 12.716497 c 0,0.537577 0.446606,0.972989 0.998002,0.972989 0.550897,0 0.998002,-0.435412 0.998002,-0.972989 V 45.310514 c 0,-0.27727 0.155247,-0.350697 0.355657,-0.155325 l 5.924766,5.775815 c 0.940617,0.917529 2.35229,-0.458277 1.411174,-1.375806 z"
           transform="rotate(-90,40,50)"
           id="path1512" />
      </g>
    </g>
  </g>
</svg>
