<?xml version="1.0" encoding="UTF-8" standalone="no"?>
<svg
   xmlns:dc="http://purl.org/dc/elements/1.1/"
   xmlns:cc="http://creativecommons.org/ns#"
   xmlns:rdf="http://www.w3.org/1999/02/22-rdf-syntax-ns#"
   xmlns:svg="http://www.w3.org/2000/svg"
   xmlns="http://www.w3.org/2000/svg"
   id="svg47"
   version="1.1"
   viewBox="0 0 52.758294 52.758296"
   height="199.40143"
   width="199.40143">
  <defs
     id="defs42">
    <pattern
       id="EMFhbasepattern"
       patternUnits="userSpaceOnUse"
       width="6"
       height="6"
       x="0"
       y="0" />
  </defs>
  <metadata
     id="metadata45">
    <rdf:RDF>
      <cc:Work
         rdf:about="">
        <dc:format>image/svg+xml</dc:format>
        <dc:type
           rdf:resource="http://purl.org/dc/dcmitype/StillImage" />
        <dc:title></dc:title>
      </cc:Work>
    </rdf:RDF>
  </metadata>
  <g
     id="g8556"
     transform="translate(49.836509,-375.23204)">
    <g
       id="g5305">
      <g
         id="g9609"
         transform="translate(-927.4009,6.2555104)">
        <rect
           style="fill:#ffffff;stroke:#000000;stroke-width:0.49999899;stroke-linecap:round;stroke-miterlimit:4;stroke-dasharray:none;stroke-opacity:1;paint-order:fill markers stroke"
           id="rect833-1-5-3-7-4-8-5-1-4-2-8-1-5-8-6-0"
           width="52.258293"
           x="877.89362"
           y="369.54422"
           height="52.258293" />
        <text
           xml:space="preserve"
           style="font-size:6.3499999px;line-height:0.94999999;font-family:voestalpine;-inkscape-font-specification:voestalpine;text-align:center;letter-spacing:0px;word-spacing:0px;text-anchor:middle;stroke-width:0.26458299"
           x="904.37592"
           y="419.12305"
           id="text898-7-3-6-8-3-3-0-66-7-8-8-0-8-3-4-2"><tspan
             id="tspan1883-1-5"
             x="904.37592"
             y="419.12305"
             style="font-size:6.3499999px;text-align:center;text-anchor:middle;stroke-width:0.26458299">Usuń komentarz</tspan></text>
        <path
           d="m 886.485,395.59103 h 7.82683 l 6.66461,5.4684 v -5.4684 h 2.40636 c 1.21417,0 2.202,-1.00515 2.202,-2.24061 v -11.35884 c 0,-1.23546 -0.98717,-2.24061 -2.202,-2.24061 H 886.485 c -1.21417,0 -2.20201,1.00515 -2.20201,2.24061 v 11.35817 c 0,1.23613 0.98784,2.24128 2.20201,2.24128 z m -0.87068,-13.59945 c 0,-0.50124 0.39007,-0.90929 0.87068,-0.90929 h 16.8978 c 0.47927,0 0.87002,0.40805 0.87002,0.90929 v 11.35817 c 0,0.50125 -0.39075,0.90929 -0.87069,0.90929 h -3.73769 v 3.98465 l -4.85666,-3.98465 H 886.485 c -0.48061,6.7e-4 -0.87068,-0.40738 -0.87068,-0.90862 z"
           id="path2246"
           style="fill:#000000;stroke:none;stroke-width:0.46599999;stroke-miterlimit:4;stroke-dasharray:none" />
        <text
           id="text2318"
           y="402.86057"
           x="897.50104"
           style="font-size:38.5848999px;line-height:1.25;font-family:voestalpine;-inkscape-font-specification:voestalpine;letter-spacing:0px;word-spacing:0px;stroke:none;stroke-width:0.66718203;stroke-miterlimit:4;stroke-dasharray:none"
           xml:space="preserve"><tspan
             style="stroke:none;stroke-width:0.66718203;stroke-miterlimit:4;stroke-dasharray:none"
             y="402.86057"
             x="897.50104"
             id="tspan2316">X</tspan></text>
      </g>
    </g>
  </g>
</svg>
