<svg id="SVGRoot" width="206px" height="206px" version="1.1" viewBox="0 0 206 206" xmlns="http://www.w3.org/2000/svg">
 <g transform="matrix(3.7795 0 0 3.7795 -1795.2 2502.6)">
  <flowRoot fill="black" font-family="sans-serif" font-size="40px" letter-spacing="0px" word-spacing="0px" style="line-height:1.25" xml:space="preserve"><flowRegion><rect x="-392.69" y="-63.57" width="758.02" height="397.52"/></flowRegion><flowPara/></flowRoot>
  <flowRoot fill="black" font-family="sans-serif" font-size="40px" letter-spacing="0px" word-spacing="0px" style="line-height:1.25" xml:space="preserve"><flowRegion><rect x="-251.87" y="-84.492" width="624.44" height="455.45"/></flowRegion><flowPara/></flowRoot>
  <flowRoot fill="black" font-family="sans-serif" font-size="40px" letter-spacing="0px" word-spacing="0px" style="line-height:1.25" xml:space="preserve"><flowRegion><rect x="-202.78" y="-50.695" width="473.96" height="281.64"/></flowRegion><flowPara/></flowRoot>
  <flowRoot fill="black" font-family="sans-serif" font-size="40px" letter-spacing="0px" word-spacing="0px" style="line-height:1.25" xml:space="preserve"><flowRegion><rect x="-86.906" y="-78.859" width="516.61" height="410.39"/></flowRegion><flowPara/></flowRoot>
  <flowRoot fill="black" font-family="sans-serif" font-size="40px" letter-spacing="0px" word-spacing="0px" style="line-height:1.25" xml:space="preserve"><flowRegion><rect x="-81.273" y="-32.188" width="309" height="322.68"/></flowRegion><flowPara/></flowRoot>
  <flowRoot fill="black" font-family="sans-serif" font-size="40px" letter-spacing="0px" word-spacing="0px" style="line-height:1.25" xml:space="preserve"><flowRegion><rect x="-90.93" y="-68.398" width="392.69" height="252.67"/></flowRegion><flowPara/></flowRoot>
  <g transform="translate(675.17 -.21291)">
   <flowRoot fill="black" font-family="sans-serif" font-size="40px" letter-spacing="0px" word-spacing="0px" style="line-height:1.25" xml:space="preserve"><flowRegion><rect x="-100.59" y="-53.109" width="462.7" height="369.35"/></flowRegion><flowPara/></flowRoot>
   <g transform="translate(57.194 .21291)">
    <flowRoot fill="black" font-family="sans-serif" font-size="40px" letter-spacing="0px" word-spacing="0px" style="line-height:1.25" xml:space="preserve"><flowRegion><rect x="-329.12" y="-12.07" width="696.05" height="259.91"/></flowRegion><flowPara/></flowRoot>
    <g transform="translate(-1495.1 -629.38)">
     <flowRoot fill="black" font-family="sans-serif" font-size="40px" letter-spacing="0px" word-spacing="0px" style="line-height:1.25" xml:space="preserve"><flowRegion><rect x="-306.59" y="-111.05" width="206" height="51.5"/></flowRegion><flowPara/></flowRoot>
     <g transform="translate(174.63 .21291)">
      <g transform="translate(-57.663 -4.3913e-6)">
       <rect x="1121.7" y="-31.75" width="52.917" height="52.917" fill="#db3b3b" stroke="#000" stroke-linecap="round" stroke-width=".5" style="paint-order:fill markers stroke"/>
       <text x="1148.1432" y="16.494099" fill="#ffffff" font-family="sans-serif" font-size="6.35px" letter-spacing="0px" stroke-width=".26458" word-spacing="0px" style="line-height:1.25" xml:space="preserve"><tspan x="1148.1432" y="16.494099" fill="#ffffff" font-family="sans-serif" class="svgT" letter-spacing=".5px" font-size="5.2px" stroke-width=".26458" text-align="center" text-anchor="middle">Utylizacja</tspan></text>
       <g transform="matrix(.29579 0 0 .29579 1133.4 -26.87)" fill="#fff">
        <g fill="#fff">
         <path d="m86.7 59.9h-.1l-15.7-1.8c-.5-.1-.9-.4-1-.9s.1-1 .5-1.2l3.8-2.2-4.6-7.2c-.8-1.3-1.5-2.4-2.3-3.3-.4-.5-.3-1.2.2-1.6s1.2-.3 1.6.2c.8 1 1.6 2.1 2.4 3.5l5.2 8.2c.2.3.2.6.1.9s-.3.6-.5.7l-1.9 1.1 11.6 1.3 4.5-10-1.5.8c-.5.3-1.2.1-1.5-.4-1.3-2.2-2.8-4.6-3.8-6.2-.5-.7-1.2-1.1-2.1-1.1h-16.6c-3.7 0-5.8.9-7.6 3.4l-3.6 5.3 6.8 4c1.8 1 4 .5 5.1-1.2.3-.5 1-.7 1.6-.4.5.3.7 1 .4 1.6-1.8 2.8-5.3 3.6-8.2 2l-7.8-4.6c-.3-.2-.5-.4-.5-.7-.1-.3 0-.6.2-.9l4.2-6.4c2.3-3.1 5-4.3 9.4-4.3h16.5c1.6 0 3.1.8 4 2.1.9 1.4 2.2 3.4 3.3 5.3l3.6-2c.4-.2 1-.2 1.3.2.4.3.5.9.3 1.3l-6.3 13.9c-.2.4-.6.6-1 .6z" fill="#fff"/>
         <path d="m64.9 92.5c-.1 0-.1 0 0 0l-7.7-.5c-3.8-.4-6.3-2.1-8.5-6l-8.3-14.3c-.8-1.4-.9-3.1-.1-4.5.7-1.5 1.8-3.5 2.9-5.6l-3.5-2.1c-.4-.2-.6-.7-.5-1.2s.5-.8 1-.9l15.3-1.6c.5 0 1 .2 1.2.7l6.1 14.6c.2.4.1 1-.3 1.3s-.9.4-1.3.1l-3.8-2.2-3.9 7.7c-.8 1.4-1.3 2.7-1.8 3.8-.2.6-.9.9-1.4.7-.6-.2-.9-.9-.7-1.4.4-1.2 1.1-2.6 1.9-4.1l4.4-8.6c.1-.3.4-.5.7-.6s.6 0 .9.1l1.9 1.1-4.5-10.8-11.1 1.2 1.6.9c.5.3.7 1 .4 1.5-1.3 2.2-2.6 4.7-3.4 6.4-.4.8-.4 1.6.1 2.4l8.3 14.3c1.9 3.2 3.7 4.5 6.7 4.9l6.4.4.1-7.9c0-2.1-1.6-3.7-3.6-3.8-.6 0-1.1-.5-1.1-1.2 0-.6.5-1.1 1.2-1.1 3.3.1 5.8 2.8 5.8 6.1l-.1 9c0 .3-.1.6-.4.8-.4.3-.7.4-.9.4z" fill="#fff"/>
         <path d="m78.5 98.4c-.4 0-.7-.2-.9-.5l-9-12.8c-.3-.4-.3-.9 0-1.3l9.5-12.3c.3-.4.8-.5 1.3-.4.5.2.8.6.8 1.1v4.4l8.5-.4c.6 0 1.1.5 1.2 1.1 0 .6-.5 1.1-1.1 1.2l-9.7.5c-.3 0-.6-.1-.8-.3s-.3-.5-.4-.8v-2.3l-7 9.1 6.6 9.3v-1.7c0-.6.5-1.1 1.1-1.1 2.6 0 5.4-.1 7.3-.2.8 0 1.6-.5 2-1.2l8.3-14.3c1.8-3.5 2-5.7.8-8.5l-2.8-5.8-6.8 3.8c-1.8 1-2.4 3.2-1.5 5 .3.6.1 1.2-.5 1.5s-1.2.1-1.5-.5c-1.5-2.9-.5-6.4 2.4-8.1l7.9-4.4c.3-.2.6-.2.9-.1s.5.3.7.6l3.2 7c1.6 3.5 1.3 6.5-.9 10.3l-8.3 14.3c-.8 1.5-2.2 2.3-3.8 2.4s-4 .2-6.3.2l-.1 4.1c0 .5-.3.9-.8 1.1h-.3z" fill="#fff"/>
         <path d="m38.1 75.6h-20.8c-2.2 0-4.1-1.7-4.4-3.9l-6.5-51.9c-.1-.6.4-1.2 1-1.3s1.2.4 1.3 1l6.6 52c.1 1.1 1 1.9 2.1 1.9h20.8c.6 0 1.1.5 1.1 1.1s-.5 1.1-1.2 1.1z" fill="#fff"/>
         <path d="m61.5 33.4h-.2c-.6-.1-1-.7-1-1.3l1.7-12.6c.1-.6.6-1.1 1.3-1 .6.1 1 .7 1 1.3l-1.7 12.6c0 .6-.5 1-1.1 1z" fill="#fff"/>
         <path d="m64.7 20.8h-7.5c-.6 0-1.1-.5-1.1-1.1s.5-1.1 1.1-1.1h7.5c2.1 0 3.8-1.7 3.8-3.8s-1.7-3.8-3.8-3.8h-58.6c-2.1 0-3.8 1.7-3.8 3.8s1.7 3.8 3.8 3.8h29.3c.6 0 1.1.5 1.1 1.1s-.5 1.1-1.1 1.1h-29.3c-3.4 0-6.1-2.8-6.1-6.1s2.7-6.1 6.1-6.1h58.6c3.3 0 6.1 2.7 6.1 6.1-.1 3.3-2.8 6.1-6.1 6.1z" fill="#fff"/>
         <path d="m41.9 10.9c-.6 0-1.1-.5-1.1-1.1v-4.9c0-.6-.5-1.1-1.1-1.1h-8.6c-.6 0-1.1.5-1.1 1.1v4.8c0 .6-.5 1.1-1.1 1.1s-1.1-.5-1.1-1.1v-4.8c0-1.9 1.5-3.4 3.4-3.4h8.6c1.9 0 3.4 1.5 3.4 3.4v4.8c-.2.7-.7 1.2-1.3 1.2z" fill="#fff"/>
        </g>
       </g>
      </g>
     </g>
    </g>
   </g>
  </g>
 </g>
</svg>
