<?xml version="1.0" encoding="UTF-8" standalone="no"?>
<svg
   xmlns:dc="http://purl.org/dc/elements/1.1/"
   xmlns:cc="http://creativecommons.org/ns#"
   xmlns:rdf="http://www.w3.org/1999/02/22-rdf-syntax-ns#"
   xmlns:svg="http://www.w3.org/2000/svg"
   xmlns="http://www.w3.org/2000/svg"
   id="svg47"
   version="1.1"
   viewBox="0 0 52.758294 52.758296"
   height="199.40143"
   width="199.40143">
  <defs
     id="defs42">
    <pattern
       id="EMFhbasepattern"
       patternUnits="userSpaceOnUse"
       width="6"
       height="6"
       x="0"
       y="0" />
  </defs>
  <metadata
     id="metadata45">
    <rdf:RDF>
      <cc:Work
         rdf:about="">
        <dc:format>image/svg+xml</dc:format>
        <dc:type
           rdf:resource="http://purl.org/dc/dcmitype/StillImage" />
        <dc:title></dc:title>
      </cc:Work>
    </rdf:RDF>
  </metadata>
  <g
     transform="translate(118.57363,-234.86938)"
     id="g7264">
    <rect
       style="fill:#ffffff;stroke:#000000;stroke-width:0.49999899;stroke-linecap:round;stroke-miterlimit:4;stroke-dasharray:none;stroke-opacity:1;paint-order:fill markers stroke"
       id="rect833-1-5-3-5"
       width="52.258293"
       x="-118.22552"
       y="235.24811"
       height="52.258293" />
    <text
       xml:space="preserve"
       style="font-size:6.3499999px;line-height:0.94999999;font-family:voestalpine;-inkscape-font-specification:voestalpine;text-align:center;letter-spacing:0px;word-spacing:0px;text-anchor:middle;stroke-width:0.26458299"
       x="-92.3283"
       y="279.37292"
       id="text898-7-3-6-4"><tspan
         x="-92.3283"
         y="279.37292"
         style="font-size:6.3499999px;text-align:center;text-anchor:middle;stroke-width:0.26458299"
         id="tspan900-6-1-6-8">Uzupełnienie</tspan><tspan
         x="-92.3283"
         y="285.40543"
         style="font-size:6.3499999px;text-align:center;text-anchor:middle;stroke-width:0.26458299"
         id="tspan1577">pierwszej strony</tspan></text>
    <g
       style="fill:#000000"
       id="g1575"
       transform="matrix(0.47491014,0,0,0.47491014,-115.86563,229.67245)">
      <g
         id="g1560">
        <path
           id="path1552"
           d="M 83.7,25 H 16.3 c -2.8,0 -5,2.2 -5,5 v 40 c 0,2.8 2.2,5 5,5 h 67.5 c 2.8,0 5,-2.2 5,-5 V 30 c -0.1,-2.8 -2.3,-5 -5.1,-5 z m 0,45 H 16.3 V 30 h 67.5 v 40 z" />
        <path
           id="path1554"
           d="M 56.3,42.7 H 75 c 1.4,0 2.5,-1.1 2.5,-2.5 0,-1.4 -1.1,-2.5 -2.5,-2.5 H 56.3 c -1.4,0 -2.5,1.1 -2.5,2.5 0,1.4 1.1,2.5 2.5,2.5 z" />
        <path
           id="path1556"
           d="m 56.3,52.5 h 13.4 c 1.4,0 2.5,-1.1 2.5,-2.5 0,-1.4 -1.1,-2.5 -2.5,-2.5 H 56.3 c -1.4,0 -2.5,1.1 -2.5,2.5 0,1.4 1.1,2.5 2.5,2.5 z" />
        <path
           id="path1558"
           d="m 24.1,62.4 c 0,1.4 1.1,2.5 2.5,2.5 1.4,0 2.5,-1.1 2.5,-2.5 0,-4.2 3.4,-7.6 7.6,-7.6 4.2,0 7.6,3.4 7.6,7.6 0,1.4 1.1,2.5 2.5,2.5 1.4,0 2.5,-1.1 2.5,-2.5 0,-4.8 -2.7,-8.9 -6.7,-11 2,-1.7 3.3,-4.2 3.3,-7 0,-5.1 -4.1,-9.2 -9.2,-9.2 -5.1,0 -9.2,4.1 -9.2,9.2 0,2.8 1.3,5.3 3.3,7 -4,2.1 -6.7,6.3 -6.7,11 z M 36.6,40.2 c 2.3,0 4.2,1.9 4.2,4.2 0,2.3 -1.9,4.2 -4.2,4.2 -2.3,0 -4.2,-1.9 -4.2,-4.2 0,-2.3 1.9,-4.2 4.2,-4.2 z" />
      </g>
    </g>
  </g>
</svg>
