<svg id="SVGRoot" width="206px" height="206px" version="1.1" viewBox="0 0 206 206" xmlns="http://www.w3.org/2000/svg">
 <g transform="matrix(3.7795 0 0 3.7795 -1795.2 2502.6)">
  <flowRoot fill="black" font-family="sans-serif" font-size="40px" letter-spacing="0px" word-spacing="0px" style="line-height:1.25" xml:space="preserve"><flowRegion><rect x="-392.69" y="-63.57" width="758.02" height="397.52"/></flowRegion><flowPara/></flowRoot>
  <flowRoot fill="black" font-family="sans-serif" font-size="40px" letter-spacing="0px" word-spacing="0px" style="line-height:1.25" xml:space="preserve"><flowRegion><rect x="-251.87" y="-84.492" width="624.44" height="455.45"/></flowRegion><flowPara/></flowRoot>
  <flowRoot fill="black" font-family="sans-serif" font-size="40px" letter-spacing="0px" word-spacing="0px" style="line-height:1.25" xml:space="preserve"><flowRegion><rect x="-202.78" y="-50.695" width="473.96" height="281.64"/></flowRegion><flowPara/></flowRoot>
  <flowRoot fill="black" font-family="sans-serif" font-size="40px" letter-spacing="0px" word-spacing="0px" style="line-height:1.25" xml:space="preserve"><flowRegion><rect x="-86.906" y="-78.859" width="516.61" height="410.39"/></flowRegion><flowPara/></flowRoot>
  <flowRoot fill="black" font-family="sans-serif" font-size="40px" letter-spacing="0px" word-spacing="0px" style="line-height:1.25" xml:space="preserve"><flowRegion><rect x="-81.273" y="-32.188" width="309" height="322.68"/></flowRegion><flowPara/></flowRoot>
  <flowRoot fill="black" font-family="sans-serif" font-size="40px" letter-spacing="0px" word-spacing="0px" style="line-height:1.25" xml:space="preserve"><flowRegion><rect x="-90.93" y="-68.398" width="392.69" height="252.67"/></flowRegion><flowPara/></flowRoot>
  <g transform="translate(675.17 -.21291)">
   <flowRoot fill="black" font-family="sans-serif" font-size="40px" letter-spacing="0px" word-spacing="0px" style="line-height:1.25" xml:space="preserve"><flowRegion><rect x="-100.59" y="-53.109" width="462.7" height="369.35"/></flowRegion><flowPara/></flowRoot>
   <g transform="translate(57.194 .21291)">
    <flowRoot fill="black" font-family="sans-serif" font-size="40px" letter-spacing="0px" word-spacing="0px" style="line-height:1.25" xml:space="preserve"><flowRegion><rect x="-329.12" y="-12.07" width="696.05" height="259.91"/></flowRegion><flowPara/></flowRoot>
    <g transform="translate(-1495.1 -629.38)">
     <flowRoot fill="black" font-family="sans-serif" font-size="40px" letter-spacing="0px" word-spacing="0px" style="line-height:1.25" xml:space="preserve"><flowRegion><rect x="-306.59" y="-111.05" width="206" height="51.5"/></flowRegion><flowPara/></flowRoot>
     <flowRoot fill="black" font-family="sans-serif" font-size="40px" letter-spacing="0px" word-spacing="0px" style="line-height:1.25" xml:space="preserve"><flowRegion><rect x="-70.812" y="-36.211" width="362.91" height="283.25"/></flowRegion><flowPara/></flowRoot>
     <g transform="translate(538.4 -400.97)">
      <flowRoot fill="black" font-family="sans-serif" font-size="40px" letter-spacing="0px" word-spacing="0px" style="line-height:1.25" xml:space="preserve"><flowRegion><rect x="-138.41" y="-65.18" width="448.21" height="363.72"/></flowRegion><flowPara/></flowRoot>
      <flowRoot fill="black" font-family="sans-serif" font-size="40px" letter-spacing="0px" word-spacing="0px" style="line-height:1.25" xml:space="preserve"><flowRegion><rect x="-67.578" y="-8.4531" width="327.73" height="260.94"/></flowRegion><flowPara/></flowRoot>
      <g transform="translate(-380.28 455.78)">
       <flowRoot fill="black" font-family="sans-serif" font-size="40px" letter-spacing="0px" word-spacing="0px" style="line-height:1.25" xml:space="preserve"><flowRegion><rect x="-5.8594" y="-7.2813" width="339.45" height="326.95"/></flowRegion><flowPara/></flowRoot>
       <g transform="translate(-19.05 -58.755)">
        <rect x="1099.9" y="-27.585" width="52.396" height="52.396" fill="#0082b4" stroke="#000" stroke-linecap="round" stroke-width=".52068" style="paint-order:fill markers stroke"/>
        <g transform="matrix(1.1466 0 0 1.1466 1112.3 -24.291)" fill="#fff">
         <g fill="#fff">
          <path d="m23.413 23.801h-22.83c-.276 0-.5-.224-.5-.5v-22.599c0-.276.224-.5.5-.5l6.655-.003c3.426 0 6.853.006 10.278.031.59.004 1.287.286 1.733.703 1.441 1.343 2.831 2.771 4.001 3.989.31.323.642.856.645 1.386.025 4.672.021 9.343.019 14.015l-.002 2.978c.001.276-.223.5-.499.5zm-22.33-1h21.829v-.08-.015l.002-2.384c.003-4.669.007-9.339-.019-14.008-.001-.18-.161-.486-.365-.698-1.161-1.21-2.539-2.625-3.962-3.952-.263-.245-.718-.432-1.058-.434-3.424-.025-6.848-.031-10.271-.031l-6.156.003zm18.582-1.006h-15.406c-.276 0-.5-.224-.5-.5v-9.858c0-.276.224-.5.5-.5h15.406c.276 0 .5.224.5.5v9.858c0 .276-.223.5-.5.5zm-14.906-1h14.406v-8.858h-14.406zm12.601-11.45h-10.813c-.276 0-.5-.224-.5-.5v-6.782c0-.276.224-.5.5-.5h10.813c.276 0 .5.224.5.5v6.782c0 .276-.224.5-.5.5zm-10.313-1h9.813v-5.782h-9.813z"/>
          <path d="m15.326 7.464h-2.885c-.276 0-.5-.224-.5-.5v-3.643c0-.276.224-.5.5-.5h2.885c.276 0 .5.224.5.5v3.643c0 .276-.224.5-.5.5zm-2.385-1h1.885v-2.643h-1.885z"/>
          <path d="m17.511 13.742h-11.014c-.276 0-.5-.224-.5-.5s.224-.5.5-.5h11.014c.276 0 .5.224.5.5s-.223.5-.5.5z"/>
          <path d="m6.497 15.326c-.276 0-.5-.224-.5-.5 0-.275.224-.5.5-.5l11.014-.008c.276 0 .5.224.5.5 0 .275-.224.5-.5.5z"/>
          <path d="m17.511 16.92h-.002l-11.013-.036c-.275-.001-.499-.226-.498-.502.001-.275.225-.498.5-.498h.002l11.014.036c.275.001.499.226.498.502-.002.275-.225.498-.501.498z"/>
          <path d="m17.511 18.485-11.014-.006c-.276 0-.5-.225-.5-.5 0-.276.224-.5.5-.5l11.014.007c.276 0 .5.225.5.5 0 .276-.223.499-.5.499z"/>
          <path d="m17.511 20.062h-11.014c-.276 0-.5-.224-.5-.5s.224-.5.5-.5h11.014c.276 0 .5.224.5.5s-.223.5-.5.5z"/>
         </g>
        </g>
        <text x="1126.0963" y="12.493834" fill="#ffffff" font-family="sans-serif" font-size="4.9389px" letter-spacing="0px" stroke-width=".26458" text-align="center" text-anchor="middle" word-spacing="0px" style="line-height:1.04999995" xml:space="preserve"><tspan x="1126.9645" y="12.493834" text-align="center">Warstwa </tspan><tspan x="1126.0963" y="21.383835" text-align="center">Total Commander</tspan></text>
       </g>
      </g>
     </g>
    </g>
   </g>
  </g>
 </g>
</svg>
