<?xml version="1.0" encoding="UTF-8" standalone="no"?>
<svg
   xmlns:dc="http://purl.org/dc/elements/1.1/"
   xmlns:cc="http://creativecommons.org/ns#"
   xmlns:rdf="http://www.w3.org/1999/02/22-rdf-syntax-ns#"
   xmlns:svg="http://www.w3.org/2000/svg"
   xmlns="http://www.w3.org/2000/svg"
   id="SVGRoot"
   version="1.1"
   viewBox="0 0 200 200"
   height="200px"
   width="200px">
  <defs
     id="defs271" />
  <metadata
     id="metadata274">
    <rdf:RDF>
      <cc:Work
         rdf:about="">
        <dc:format>image/svg+xml</dc:format>
        <dc:type
           rdf:resource="http://purl.org/dc/dcmitype/StillImage" />
        <dc:title></dc:title>
      </cc:Work>
    </rdf:RDF>
  </metadata>
  <g
     id="layer1">
    <g
       id="g290"
       style="display:inline"
       transform="matrix(3.7795276,0,0,3.7795276,-4377.3251,107.3029)">
      <rect
         y="-27.584515"
         x="1158.7666"
         height="52.395985"
         width="52.395985"
         id="rect835-2-0-2-8-1-5-6-8-9-7-3-0-5-5-1-5-4-5-2-4-0"
         style="fill:#0082b4;fill-opacity:1;stroke:#000000;stroke-width:0.520679;stroke-linecap:round;stroke-miterlimit:4;stroke-dasharray:none;paint-order:fill markers stroke" />
      <text
         id="text858-5-83-73-7-0-7-0-7-9-8"
         y="14.330747"
         x="1185.7732"
         style="font-size:8.46667004px;line-height:1.04999995;font-family:voestalpine;-inkscape-font-specification:voestalpine;text-align:center;letter-spacing:0px;word-spacing:0px;text-anchor:middle;stroke-width:0.26458299"
         xml:space="preserve"><tspan
           id="tspan2529"
           style="font-size:8.46667004px;text-align:center;text-anchor:middle;fill:#ffffff;fill-opacity:1;stroke-width:0.26458299"
           y="14.330747"
           x="1186.7902">Warstwa </tspan><tspan
           id="tspan2572"
           style="font-size:8.46667004px;text-align:center;text-anchor:middle;fill:#ffffff;fill-opacity:1;stroke-width:0.26458299"
           y="23.220749"
           x="1185.7732">Keepass</tspan></text>
      <g
         transform="matrix(0.49509529,0,0,0.49509529,1169.1215,-26.374099)"
         id="g2371"
         style="fill:#ffffff;fill-opacity:1">
        <path
           style="fill:#ffffff;fill-opacity:1"
           id="path2357"
           d="M 32,7.46 A 24.54,24.54 0 1 0 56.54,32 24.57,24.57 0 0 0 32,7.46 Z m 13.34,28.59 a 1.5,1.5 0 0 1 -3,0 v -2.89 h -3.49 v 2.21 a 1.5,1.5 0 0 1 -3,0 v -2.21 h -6.99 a 5.21,5.21 0 1 1 0,-3 h 14.98 a 1.4981,1.4981 0 0 1 1.5,1.5 z M 26.08,31.66 a 2.21,2.21 0 1 1 -2.21,-2.21 2.2107,2.2107 0 0 1 2.21,2.21 z" />
      </g>
    </g>
  </g>
</svg>
