<svg id="SVGRoot" width="206px" height="206px" version="1.1" viewBox="0 0 206 206" xmlns="http://www.w3.org/2000/svg">
 <g transform="matrix(3.7795 0 0 3.7795 -4599.7 109.05)">
  <rect x="1217.8" y="-27.585" width="52.396" height="52.396" fill="#0082b4" stroke="#000" stroke-linecap="round" stroke-width=".52068" style="paint-order:fill markers stroke"/>
  <text x="1245.0255" y="12.464207" fill="#ffffff" font-family="sans-serif" font-size="4.9389px" letter-spacing="0px" stroke-width=".26458" text-align="center" text-anchor="middle" word-spacing="0px" style="line-height:1.04999995" xml:space="preserve"><tspan x="1245.8937" y="12.464207" text-align="center">Warstwa </tspan><tspan x="1245.0255" y="21.35421" text-align="center">SVN</tspan></text>
  <text x="1240.2559" y="-8.5272741" fill="#0082b4" font-family="voestalpine" font-size="5.6444px" letter-spacing="0px" stroke-width=".26458" word-spacing="0px" style="line-height:1.25" xml:space="preserve"><tspan x="1240.2559" y="-8.5272741" fill="#0082b4" stroke-width=".26458">EN</tspan></text>
  <g transform="matrix(.34476 0 0 .34476 1226.8 -27.769)" fill="#fff">
   <path d="m83.338 49.999c-2.464 0-4.591 1.351-5.745 3.333h-27.593v6.67h27.593c1.154 1.982 3.281 3.33 5.745 3.33 3.677 0 6.662-2.979 6.662-6.666 0-3.68-2.985-6.667-6.662-6.667z"/>
   <path d="m83.338 23.332c-2.464 0-4.591 1.351-5.745 3.334h-27.593v6.665h27.593c1.154 1.986 3.281 3.334 5.745 3.334 3.677 0 6.662-2.982 6.662-6.665 0-3.68-2.985-6.668-6.662-6.668z"/>
   <rect x="23.333" y="53.332" width="19.999" height="6.67"/>
   <rect x="23.333" y="66.666" width="19.999" height="6.668"/>
   <rect x="23.333" y="40" width="19.999" height="6.668"/>
   <rect x="23.333" y="26.666" width="19.999" height="6.665"/>
   <path d="m63.336 63.332c-2.464 0-4.588 1.354-5.745 3.334h-7.591v6.668h7.591c1.157 1.986 3.281 3.334 5.745 3.334 3.68 0 6.666-2.982 6.666-6.668 0-3.68-2.986-6.668-6.666-6.668z"/>
   <path d="m70.004 36.665c-2.464 0-4.591 1.351-5.745 3.334h-14.259v6.668h14.259c1.154 1.983 3.281 3.331 5.745 3.331 3.678 0 6.663-2.979 6.663-6.665 0-3.679-2.985-6.668-6.663-6.668z"/>
   <path d="m56.668 19.998c0-3.683-2.985-6.666-6.668-6.666h-33.335c-3.68 0-6.665 2.985-6.665 6.666v60.002c0 3.686 2.985 6.668 6.665 6.668h33.335c3.683 0 6.668-2.982 6.668-6.668h-40.003v-60.002z"/>
  </g>
 </g>
</svg>
