<?xml version="1.0" encoding="UTF-8" standalone="no"?>
<svg
   xmlns:dc="http://purl.org/dc/elements/1.1/"
   xmlns:cc="http://creativecommons.org/ns#"
   xmlns:rdf="http://www.w3.org/1999/02/22-rdf-syntax-ns#"
   xmlns:svg="http://www.w3.org/2000/svg"
   xmlns="http://www.w3.org/2000/svg"
   id="svg47"
   version="1.1"
   viewBox="0 0 52.758294 52.758296"
   height="199.40143"
   width="199.40143">
  <defs
     id="defs42" />
  <metadata
     id="metadata45">
    <rdf:RDF>
      <cc:Work
         rdf:about="">
        <dc:format>image/svg+xml</dc:format>
        <dc:type
           rdf:resource="http://purl.org/dc/dcmitype/StillImage" />
        <dc:title></dc:title>
      </cc:Work>
    </rdf:RDF>
  </metadata>
  <g
     transform="translate(176.41475,87.307472)"
     id="g6595">
    <rect
       style="fill:#0082b4;fill-opacity:1;stroke:#000000;stroke-width:0.5;stroke-linecap:round;stroke-miterlimit:4;stroke-dasharray:none;stroke-opacity:1;paint-order:fill markers stroke"
       id="rect833"
       width="52.258293"
       x="-176.16475"
       y="-87.057472"
       height="52.258293" />
    <g
       style="fill:#ffffff;fill-opacity:1;stroke:none;stroke-opacity:1"
       id="g878"
       transform="matrix(0.41764681,0,0,0.41764681,-171.00321,-86.078317)">
      <path
         style="fill:#ffffff;fill-opacity:1;stroke:none;stroke-opacity:1"
         id="path867"
         d="m 5.47,57.67 0.95,0.07 a 7.38,7.38 0 0 0 6.2,4.3 v 6.46 a 1,1 0 0 0 1,1 h 11.82 a 1,1 0 0 0 1,-1 4.23,4.23 0 0 0 0,-0.43 h 6.25 a 1,1 0 0 0 1,-1.18 10.27,10.27 0 0 0 -2.46,-4.39 c 8.72,0.39 17.84,0.54 23.92,-0.08 V 67 a 1,1 0 0 0 1,1 h 7.86 a 2.05,2.05 0 0 1 0,0.39 1,1 0 0 0 1,1.09 h 11.66 a 1,1 0 0 0 1,-1.05 8.43,8.43 0 0 0 -6,-7.32 l -0.15,-0.43 c -0.62,-1.77 -0.83,-2.36 4.27,-4.37 6.4,-2.52 25.88,-10.17 23.1,-20.48 A 6.92,6.92 0 0 0 93.56,30.49 C 87.86,29.23 79.14,33.74 72.61,41.25 A 13.31,13.31 0 0 0 67.49,41.1 C 66.17,37.22 59.8,22.19 38.35,23 16.55,23.84 11.76,42 10.94,46.26 H 10 C 9.32,46.33 3.3,47.07 1.14,50.15 A 4.19,4.19 0 0 0 0.5,53.64 5.48,5.48 0 0 0 5.47,57.67 Z M 31.23,66 h -5.58 a 5.6,5.6 0 0 0 -2.13,-2 13.11,13.11 0 0 1 0.06,-2 h 0.52 l 4.16,0.23 A 15.76,15.76 0 0 1 31.23,66 Z m 25.85,0 v -3.87 a 16.44,16.44 0 0 0 3.43,-0.82 h 0.06 A 33.68,33.68 0 0 1 63.31,66 Z m 36,-33.56 a 5,5 0 0 1 3.84,3.91 c 1.54,5.69 -5.83,11.78 -21.9,18.1 -5.9,2.32 -6.53,3.75 -5.43,6.89 0.1,0.27 0.2,0.56 0.29,0.88 a 1,1 0 0 0 0.72,0.68 6.4,6.4 0 0 1 4.86,4.58 h -9.59 a 7.53,7.53 0 0 0 -0.19,-0.78 1,1 0 0 0 0,-0.12 c -1.1,-3.57 -4.85,-8.49 -5.36,-9.14 a 1,1 0 0 0 -1.58,1.22 l 0.68,0.9 c -2.7,0.88 -10.81,2 -35.16,0.5 L 23,60 a 1.24,1.24 0 0 0 -0.91,0.4 4.55,4.55 0 0 0 -0.63,2.88 8.87,8.87 0 0 0 -1.18,-0.15 1.0015114,1.0015114 0 1 0 -0.11,2 c 2.42,0.13 3.45,1.27 3.89,2.2 a 1,1 0 0 0 0.07,0.14 h -9.5 v -6.36 a 1,1 0 0 0 -1,-1 5.88,5.88 0 0 1 -4.85,-2.22 c 4.19,0.25 10,0.5 16.43,0.5 17.35,0 39.68,-1.77 49.75,-10 l 0.14,-0.14 c 1.43,-1.73 1.66,-3.64 0.61,-5.09 a 4.32,4.32 0 0 0 -1.21,-1.1 c 5.96,-6.57 13.78,-10.67 18.59,-9.6 z M 38.42,25 c 20,-0.76 25.83,12.65 27.07,16.48 a 28,28 0 0 0 -3.68,1.16 C 53.61,45.83 22.55,46.22 12.96,46.26 13.84,41.8 18.37,25.78 38.42,25 Z M 2.79,51.31 c 1.38,-2 5.75,-2.85 7.39,-3 2.42,0 42.43,0.1 52.36,-3.76 4.41,-1.71 8,-1.87 10.05,-1.16 h 0.05 a 3,3 0 0 1 1.47,1 c 0.62,0.86 0.1,1.86 -0.47,2.57 -14.84,12 -59.26,9.39 -68,8.75 a 3.46,3.46 0 0 1 -3.16,-2.5 v 0 a 2.16,2.16 0 0 1 0.31,-1.9 z" />
    </g>
    <text
       xml:space="preserve"
       style="font-size:8.46667004px;line-height:0.94999999;font-family:voestalpine;-inkscape-font-specification:voestalpine;text-align:center;letter-spacing:0px;word-spacing:0px;text-anchor:middle;fill:#ffffff;fill-opacity:1;stroke:none;stroke-width:0.26458299;stroke-opacity:1"
       x="-148.17059"
       y="-44.377041"
       id="text898"><tspan
         id="tspan896"
         x="-148.17059"
         y="-44.377041"
         style="font-size:8.46667004px;text-align:center;text-anchor:middle;fill:#ffffff;fill-opacity:1;stroke:none;stroke-width:0.26458299;stroke-opacity:1">WARSTWA</tspan><tspan
         x="-148.17059"
         y="-36.333706"
         style="font-size:8.46667004px;text-align:center;text-anchor:middle;fill:#ffffff;fill-opacity:1;stroke:none;stroke-width:0.26458299;stroke-opacity:1"
         id="tspan900">SVN</tspan></text>
  </g>
</svg>
