<svg id="SVGRoot" width="208" height="208" version="1.1" viewBox="0 0 208 208" xmlns="http://www.w3.org/2000/svg">
 <g transform="translate(0,7)">
  <g transform="matrix(3.7795 0 0 3.7795 10.171 -6.7758)">
   <g transform="translate(-1.0884 -121.69)">
    <g transform="translate(1.6608 -59.209)">
     <g transform="translate(-.6443 -59.335)">
      <g transform="translate(-1396.8 269.89)">
       <g transform="translate(-57.972 -.024822)">
        <g transform="translate(1658.1 73.867)">
         <g transform="translate(-203.03 -103.33)">
          <flowRoot transform="matrix(.26458 0 0 .26458 -2.875 1.091)" fill="#000000" font-family="sans-serif" font-size="40px" letter-spacing="0px" word-spacing="0px" style="line-height:1.25" xml:space="preserve"><flowRegion><rect x="-85.582" y="-60.812" width="342.33" height="293.65"/></flowRegion><flowPara/></flowRoot>
          <g transform="translate(-1039.4 318.88)">
           <flowRoot transform="matrix(.26458 0 0 .26458 1036.5 -317.79)" fill="#000000" font-family="sans-serif" font-size="40px" letter-spacing="0px" word-spacing="0px" style="line-height:1.25" xml:space="preserve"><flowRegion><rect x="-105.21" y="-13.703" width="562.17" height="513.49"/></flowRegion><flowPara/></flowRoot>
           <g transform="translate(-66.134 .039287)">
            <g transform="translate(-66.173 .043409)">
             <flowRoot transform="matrix(.26458 0 0 .26458 1168.8 -317.87)" fill="#000000" font-family="sans-serif" font-size="40px" letter-spacing="0px" word-spacing="0px" style="line-height:1.25" xml:space="preserve"><flowRegion><rect x="-114.63" y="-91.434" width="675.23" height="522.91"/></flowRegion><flowPara/></flowRoot>
             <g transform="translate(-66.2 -.040316)">
              <g transform="translate(-65.918 -.60254)">
               <g transform="translate(-66.6 .14883)">
                <flowRoot fill="black" font-family="sans-serif" font-size="40px" letter-spacing="0px" word-spacing="0px" style="line-height:1.25" xml:space="preserve"><flowRegion><rect x="-24.34" y="-19.695" width="252.04" height="245.75"/></flowRegion><flowPara/></flowRoot>
                <g transform="translate(-68.678 -.48293)">
                 <flowRoot fill="black" font-family="sans-serif" font-size="40px" letter-spacing="0px" word-spacing="0px" style="line-height:1.25" xml:space="preserve"><flowRegion><rect x="-65.168" y="-26.762" width="382.37" height="335.26"/></flowRegion><flowPara/></flowRoot>
                 <g transform="translate(-63.347 .4912)">
                  <g transform="translate(529.82 -.18087)">
                   <g transform="translate(794.67 .06923)">
                    <g transform="translate(-198.36 .17569)">
                     <g transform="translate(-530.68 .043413)">
                      <g transform="translate(912.04 -.041317)">
                       <g transform="translate(132.58 -.39794)">
                        <g transform="translate(-580.62 .35866)">
                         <g transform="translate(-264.6 -.1571)">
                          <g transform="translate(463.55 .097138)">
                           <g transform="translate(-397.36 .059959)">
                            <g transform="translate(66.026 -.30592)">
                             <g transform="translate(-264.69 -.093008)">
                              <g transform="translate(734.89 179.33)">
                               <g transform="translate(-205.07 -178.97)">
                                <g transform="translate(-1081.1 -686.85)">
                                 <flowRoot fill="black" font-family="sans-serif" font-size="40px" letter-spacing="0px" word-spacing="0px" style="line-height:1.25" xml:space="preserve"><flowRegion><rect x="21" y="-71" width="223" height="308"/></flowRegion><flowPara/></flowRoot>
                                 <g transform="translate(-112.28 .55746)">
                                  <g transform="translate(-396.77 -.26462)">
                                   <g transform="translate(167.68 .26462)">
                                    <g transform="translate(457.35 -.55746)">
                                     <g transform="translate(452.66 .26458)">
                                      <g transform="translate(-797.14 .29285)">
                                       <rect x="1618.8" y="369.25" width="52.258" height="52.258" fill="#fff" stroke="#000" stroke-linecap="round" stroke-width=".5" style="paint-order:fill markers stroke"/>
                                       <text x="1645.2593" y="412.29202" font-family="sans-serif" font-size="4.9389px" letter-spacing="0px" stroke-width=".26458" text-align="center" text-anchor="middle" word-spacing="0px" style="line-height:0.94999999" xml:space="preserve"><tspan x="1645.2593" y="412.29202" text-align="center">Włącz lub wyłącz</tspan><tspan x="1645.2593" y="418.32452" text-align="center">linie siatki</tspan></text>
                                       <g transform="matrix(.35903 0 0 .35903 1626.5 370.71)">
                                        <g>
                                         <path d="m23 23v65h65v-65zm-1-1h67v67h-67z"/>
                                         <path d="m10 10v8h8v-8zm-1-1h10v10h-10z"/>
                                         <path d="m9.1464 9.8536c-.19526-.19526-.19526-.51184 0-.70711.19526-.19526.51184-.19526.70711 0l9 9c.19526.19526.19526.51184 0 .70711s-.51184.19526-.70711 0z"/>
                                         <polygon points="33 22 34 22 34 88.168 33 88.168"/>
                                         <polygon points="66 22 67 22 67 88.168 66 88.168"/>
                                         <polygon points="44 22 45 22 45 88.168 44 88.168"/>
                                         <polygon points="77 22 78 22 78 88.168 77 88.168"/>
                                         <polygon points="55 22 56 22 56 88.168 55 88.168"/>
                                         <polygon transform="matrix(0 -1 -1 0 89.084 89.084)" points="55 .5 56 .5 56 66.668 55 66.668"/>
                                         <polygon transform="matrix(0 -1 -1 0 133.08 133.08)" points="55 44.5 56 44.5 56 110.67 55 110.67"/>
                                         <polygon transform="matrix(0 -1 -1 0 111.08 111.08)" points="55 22.5 56 22.5 56 88.668 55 88.668"/>
                                         <polygon transform="matrix(0 -1 -1 0 100.08 100.08)" points="55 11.5 56 11.5 56 77.668 55 77.668"/>
                                         <polygon transform="matrix(0 -1 -1 0 122.58 122.58)" points="55.5 33.5 56.5 33.5 56.5 99.668 55.5 99.668"/>
                                         <polygon points="13 18.5 14 18.5 14 89 13 89"/>
                                         <polygon points="18 14 18 13 89 13 89 14"/>
                                         <polygon points="88 9 89 9 89 18 88 18"/>
                                         <polygon points="9 89 9 88 18 88 18 89"/>
                                        </g>
                                       </g>
                                      </g>
                                     </g>
                                    </g>
                                   </g>
                                  </g>
                                 </g>
                                </g>
                               </g>
                              </g>
                             </g>
                            </g>
                           </g>
                          </g>
                         </g>
                        </g>
                       </g>
                      </g>
                     </g>
                    </g>
                   </g>
                  </g>
                 </g>
                </g>
               </g>
              </g>
             </g>
            </g>
           </g>
          </g>
         </g>
        </g>
       </g>
      </g>
     </g>
    </g>
   </g>
  </g>
 </g>
</svg>
