<svg id="SVGRoot" width="206px" height="206px" version="1.1" viewBox="0 0 206 206" xmlns="http://www.w3.org/2000/svg">
 <g transform="matrix(3.7795 0 0 3.7795 -1795.2 2502.6)">
  <flowRoot fill="black" font-family="sans-serif" font-size="40px" letter-spacing="0px" word-spacing="0px" style="line-height:1.25" xml:space="preserve"><flowRegion><rect x="-392.69" y="-63.57" width="758.02" height="397.52"/></flowRegion><flowPara/></flowRoot>
  <flowRoot fill="black" font-family="sans-serif" font-size="40px" letter-spacing="0px" word-spacing="0px" style="line-height:1.25" xml:space="preserve"><flowRegion><rect x="-251.87" y="-84.492" width="624.44" height="455.45"/></flowRegion><flowPara/></flowRoot>
  <flowRoot fill="black" font-family="sans-serif" font-size="40px" letter-spacing="0px" word-spacing="0px" style="line-height:1.25" xml:space="preserve"><flowRegion><rect x="-202.78" y="-50.695" width="473.96" height="281.64"/></flowRegion><flowPara/></flowRoot>
  <flowRoot fill="black" font-family="sans-serif" font-size="40px" letter-spacing="0px" word-spacing="0px" style="line-height:1.25" xml:space="preserve"><flowRegion><rect x="-86.906" y="-78.859" width="516.61" height="410.39"/></flowRegion><flowPara/></flowRoot>
  <g transform="translate(278.73 -2.6575e-6)">
   <rect x="197.52" y="-660.87" width="52.396" height="52.396" fill="#db3b3b" stroke="#000" stroke-linecap="round" stroke-width=".52068" style="paint-order:fill markers stroke"/>
   <text x="223.92943" y="-611.9436" font-family="sans-serif" font-size="6.35px" letter-spacing="0px" stroke-width=".26458" text-align="center" text-anchor="middle" word-spacing="0px" style="line-height:1.25" xml:space="preserve"><tspan x="223.92943" y="-611.9436" fill="#ffffff" font-family="sans-serif" class="svgT" letter-spacing=".5px" font-size="5.2px" stroke-width=".26458" text-align="center" text-anchor="middle">Wskazówka</tspan></text>
   <g transform="matrix(.20671 0 0 .20671 210.82 -654.09)" fill="#fff">
    <g fill="#fff">
     <path d="m68.1 87c-2.6-.2-2.1-2.7-1.6-4.6l4.4-16.5c1.2-4.7-2.3-9.3-7.1-9.3-3.3 0-6.3 2.2-7.1 5.5-.6 2.4-5.7 23.4-5.8 23.5-.7 3-1.6 6.8-.3 9.7 2 4.5 8 3.2 11.7 2.1 2.5-.7 4.9-1.8 7.2-3.1 2.4-1.5 7.3-5.7 7.3-5.8l-.5-4.9c-2 1.6-5.6 3.6-8.2 3.4z"/>
     <path d="m69.9 29.6c-5.5-.3-10.9 4.6-11.1 10.2-.1 1.7.4 3.3 1.2 4.7 3.4 5.5 11.2 4.3 15.4.5 5.6-5 1.8-15-5.5-15.4z"/>
     <path d="m64 2.6c-33.9 0-61.4 27.5-61.4 61.4s27.6 61.4 61.4 61.4c33.9 0 61.4-27.6 61.4-61.4 0-33.9-27.5-61.4-61.4-61.4zm0 109.6c-26.6 0-48.2-21.6-48.2-48.2s21.6-48.2 48.2-48.2 48.2 21.6 48.2 48.2-21.6 48.2-48.2 48.2z"/>
    </g>
   </g>
  </g>
 </g>
</svg>
