<?xml version="1.0" encoding="UTF-8" standalone="no"?>
<svg
   xmlns:osb="http://www.openswatchbook.org/uri/2009/osb"
   xmlns:dc="http://purl.org/dc/elements/1.1/"
   xmlns:cc="http://creativecommons.org/ns#"
   xmlns:rdf="http://www.w3.org/1999/02/22-rdf-syntax-ns#"
   xmlns:svg="http://www.w3.org/2000/svg"
   xmlns="http://www.w3.org/2000/svg"
   id="svg47"
   version="1.1"
   viewBox="0 0 52.758294 52.758296"
   height="199.40143"
   width="199.40143">
  <defs
     id="defs42">
    <pattern
       id="EMFhbasepattern"
       patternUnits="userSpaceOnUse"
       width="6"
       height="6"
       x="0"
       y="0" />
    <marker
       style="overflow:visible"
       id="Arrow1Mend-5-0"
       refX="0"
       refY="0"
       orient="auto">
      <path
         transform="matrix(-0.4,0,0,-0.4,-4,0)"
         style="fill:#000000;fill-opacity:1;fill-rule:evenodd;stroke:#000000;stroke-width:1.00000003pt;stroke-opacity:1"
         d="M 0,0 5,-5 -12.5,0 5,5 Z"
         id="path1146-3-3" />
    </marker>
    <marker
       style="overflow:visible"
       id="Arrow1Mend-5-3"
       refX="0"
       refY="0"
       orient="auto">
      <path
         transform="matrix(-0.4,0,0,-0.4,-4,0)"
         style="fill:#000000;fill-opacity:1;fill-rule:evenodd;stroke:#000000;stroke-width:1.00000003pt;stroke-opacity:1"
         d="M 0,0 5,-5 -12.5,0 5,5 Z"
         id="path1146-3-9" />
    </marker>
    <marker
       orient="auto"
       refY="0"
       refX="0"
       id="Arrow1Mend-5-0-4"
       style="overflow:visible">
      <path
         id="path1146-3-3-8"
         d="M 0,0 5,-5 -12.5,0 5,5 Z"
         style="fill:#ffffff;fill-opacity:1;fill-rule:evenodd;stroke:#ffffff;stroke-width:1.00000003pt;stroke-opacity:1"
         transform="matrix(-0.4,0,0,-0.4,-4,0)" />
    </marker>
    <marker
       orient="auto"
       refY="0"
       refX="0"
       id="Arrow1Mend-5-3-8"
       style="overflow:visible">
      <path
         id="path1146-3-9-5"
         d="M 0,0 5,-5 -12.5,0 5,5 Z"
         style="fill:#ffffff;fill-opacity:1;fill-rule:evenodd;stroke:#ffffff;stroke-width:1.00000003pt;stroke-opacity:1"
         transform="matrix(-0.4,0,0,-0.4,-4,0)" />
    </marker>
    <marker
       style="overflow:visible"
       id="Arrow1Mend"
       refX="0"
       refY="0"
       orient="auto">
      <path
         transform="matrix(-0.4,0,0,-0.4,-4,0)"
         style="fill:#000000;fill-opacity:1;fill-rule:evenodd;stroke:#000000;stroke-width:1.00000003pt;stroke-opacity:1"
         d="M 0,0 5,-5 -12.5,0 5,5 Z"
         id="path1146" />
    </marker>
    <marker
       orient="auto"
       refY="0"
       refX="0"
       id="Arrow1Mend-5"
       style="overflow:visible">
      <path
         id="path1146-3"
         d="M 0,0 5,-5 -12.5,0 5,5 Z"
         style="fill:#ffffff;fill-opacity:1;fill-rule:evenodd;stroke:#ffffff;stroke-width:1.00000003pt;stroke-opacity:1"
         transform="matrix(-0.4,0,0,-0.4,-4,0)" />
    </marker>
    <marker
       style="overflow:visible"
       id="Arrow1Mstart"
       refX="0"
       refY="0"
       orient="auto">
      <path
         transform="matrix(0.4,0,0,0.4,4,0)"
         style="fill:#000000;fill-opacity:1;fill-rule:evenodd;stroke:#000000;stroke-width:1.00000003pt;stroke-opacity:1"
         d="M 0,0 5,-5 -12.5,0 5,5 Z"
         id="path1143" />
    </marker>
    <marker
       orient="auto"
       refY="0"
       refX="0"
       id="Arrow1Mstart-1"
       style="overflow:visible">
      <path
         id="path1143-7"
         d="M 0,0 5,-5 -12.5,0 5,5 Z"
         style="fill:#ffffff;fill-opacity:1;fill-rule:evenodd;stroke:#ffffff;stroke-width:1.00000003pt;stroke-opacity:1"
         transform="matrix(0.4,0,0,0.4,4,0)" />
    </marker>
    <marker
       style="overflow:visible"
       id="Arrow1Lend"
       refX="0"
       refY="0"
       orient="auto">
      <path
         transform="matrix(-0.8,0,0,-0.8,-10,0)"
         style="fill:#000000;fill-opacity:1;fill-rule:evenodd;stroke:#000000;stroke-width:1.00000003pt;stroke-opacity:1"
         d="M 0,0 5,-5 -12.5,0 5,5 Z"
         id="path1140" />
    </marker>
    <marker
       style="overflow:visible"
       id="Arrow1Lstart"
       refX="0"
       refY="0"
       orient="auto">
      <path
         transform="matrix(0.8,0,0,0.8,10,0)"
         style="fill:#000000;fill-opacity:1;fill-rule:evenodd;stroke:#000000;stroke-width:1.00000003pt;stroke-opacity:1"
         d="M 0,0 5,-5 -12.5,0 5,5 Z"
         id="path1137" />
    </marker>
    <marker
       orient="auto"
       refY="0"
       refX="0"
       id="Arrow1Lend-5"
       style="overflow:visible">
      <path
         id="path1140-4"
         d="M 0,0 5,-5 -12.5,0 5,5 Z"
         style="fill:#ffffff;fill-opacity:1;fill-rule:evenodd;stroke:#ffffff;stroke-width:1.00000003pt;stroke-opacity:1"
         transform="matrix(-0.8,0,0,-0.8,-10,0)" />
    </marker>
    <marker
       orient="auto"
       refY="0"
       refX="0"
       id="Arrow1Lstart-93"
       style="overflow:visible">
      <path
         id="path1137-7"
         d="M 0,0 5,-5 -12.5,0 5,5 Z"
         style="fill:#ffffff;fill-opacity:1;fill-rule:evenodd;stroke:#ffffff;stroke-width:1.00000003pt;stroke-opacity:1"
         transform="matrix(0.8,0,0,0.8,10,0)" />
    </marker>
    <linearGradient
       id="linearGradient4460"
       osb:paint="solid">
      <stop
         style="stop-color:#db3b3b;stop-opacity:1;"
         offset="0"
         id="stop4458" />
    </linearGradient>
  </defs>
  <metadata
     id="metadata45">
    <rdf:RDF>
      <cc:Work
         rdf:about="">
        <dc:format>image/svg+xml</dc:format>
        <dc:type
           rdf:resource="http://purl.org/dc/dcmitype/StillImage" />
        <dc:title></dc:title>
      </cc:Work>
    </rdf:RDF>
  </metadata>
  <g
     id="g8556"
     transform="translate(49.836509,-375.23204)">
    <g
       id="g5305">
      <g
         id="g808"
         style="display:inline"
         transform="translate(-246.83005,1036.4714)">
        <rect
           y="-660.87268"
           x="197.51851"
           height="52.395985"
           width="52.395985"
           id="rect835-2-0-2-8-1-5-6-8-9"
           style="fill:#db3b3b;fill-opacity:1;stroke:#000000;stroke-width:0.520679;stroke-linecap:round;stroke-miterlimit:4;stroke-dasharray:none;paint-order:fill markers stroke" />
        <text
           xml:space="preserve"
           style="font-size:6.3499999px;line-height:1.25;font-family:voestalpine;-inkscape-font-specification:voestalpine;text-align:center;letter-spacing:0px;word-spacing:0px;text-anchor:middle;stroke-width:0.26458299"
           x="223.92943"
           y="-609.9129"
           id="text858-5-83-73-1"><tspan
             id="tspan921-84-3-2"
             x="223.92943"
             y="-609.9129"
             style="font-size:6.3499999px;text-align:center;text-anchor:middle;fill:#ffffff;fill-opacity:1;stroke-width:0.26458299">Wskazówka</tspan></text>
        <g
           style="fill:#ffffff;fill-opacity:1"
           id="g1519"
           transform="matrix(0.20670573,0,0,0.20670573,210.81649,-654.08602)">
          <g
             id="g1505"
             style="fill:#ffffff;fill-opacity:1">
            <path
               id="path1499"
               d="m 68.1,87 c -2.6,-0.2 -2.1,-2.7 -1.6,-4.6 0,0 4.4,-16.5 4.4,-16.5 1.2,-4.7 -2.3,-9.3 -7.1,-9.3 -3.3,0 -6.3,2.2 -7.1,5.5 -0.6,2.4 -5.7,23.4 -5.8,23.5 -0.7,3 -1.6,6.8 -0.3,9.7 2,4.5 8,3.2 11.7,2.1 2.5,-0.7 4.9,-1.8 7.2,-3.1 2.4,-1.5 7.3,-5.7 7.3,-5.8 0,0 -0.5,-4.9 -0.5,-4.9 -2,1.6 -5.6,3.6 -8.2,3.4 z"
               style="fill:#ffffff;fill-opacity:1" />
            <path
               id="path1501"
               d="M 69.9,29.6 C 64.4,29.3 59,34.2 58.8,39.8 58.7,41.5 59.2,43.1 60,44.5 63.4,50 71.2,48.8 75.4,45 81,40 77.2,30 69.9,29.6 Z"
               style="fill:#ffffff;fill-opacity:1" />
            <path
               id="path1503"
               d="M 64,2.6 C 30.1,2.6 2.6,30.1 2.6,64 2.6,97.9 30.2,125.4 64,125.4 97.9,125.4 125.4,97.8 125.4,64 125.4,30.1 97.9,2.6 64,2.6 Z m 0,109.6 C 37.4,112.2 15.8,90.6 15.8,64 15.8,37.4 37.4,15.8 64,15.8 c 26.6,0 48.2,21.6 48.2,48.2 0,26.6 -21.6,48.2 -48.2,48.2 z"
               style="fill:#ffffff;fill-opacity:1" />
          </g>
        </g>
      </g>
    </g>
  </g>
</svg>
