<svg id="SVGRoot" version="1.1" viewBox="0 0 208 208" xmlns="http://www.w3.org/2000/svg">
 <g transform="translate(0,7)">
  <g transform="matrix(3.7795 0 0 3.7795 12.334 -690.48)">
   <flowRoot transform="matrix(.26458 0 0 .26458 -3.2213 182.16)" fill="#000000" font-family="sans-serif" font-size="40px" letter-spacing="0px" word-spacing="0px" style="line-height:1.25" xml:space="preserve"><flowRegion><rect x="-85.582" y="-60.812" width="342.33" height="293.65"/></flowRegion><flowPara/></flowRoot>
   <flowRoot transform="matrix(.26458 0 0 .26458 -3.2463 182.16)" fill="#000000" font-family="sans-serif" font-size="40px" letter-spacing="0px" word-spacing="0px" style="line-height:1.25" xml:space="preserve"><flowRegion><rect x="-105.21" y="-13.703" width="562.17" height="513.49"/></flowRegion><flowPara/></flowRoot>
   <flowRoot transform="matrix(.26458 0 0 .26458 -3.2533 182.16)" fill="#000000" font-family="sans-serif" font-size="40px" letter-spacing="0px" word-spacing="0px" style="line-height:1.25" xml:space="preserve"><flowRegion><rect x="-114.63" y="-91.434" width="675.23" height="522.91"/></flowRegion><flowPara/></flowRoot>
   <flowRoot transform="translate(-1370.8 499.54)" fill="#000000" font-family="sans-serif" font-size="40px" letter-spacing="0px" word-spacing="0px" style="line-height:1.25" xml:space="preserve"><flowRegion><rect x="-24.34" y="-19.695" width="252.04" height="245.75"/></flowRegion><flowPara/></flowRoot>
   <flowRoot transform="translate(-1439.4 499.05)" fill="#000000" font-family="sans-serif" font-size="40px" letter-spacing="0px" word-spacing="0px" style="line-height:1.25" xml:space="preserve"><flowRegion><rect x="-65.168" y="-26.762" width="382.37" height="335.26"/></flowRegion><flowPara/></flowRoot>
   <g transform="translate(4.6937 499.61)">
    <g transform="translate(-646.45 -.039283)">
     <flowRoot transform="translate(-749.94 -686.89)" fill="#000000" font-family="sans-serif" font-size="40px" letter-spacing="0px" word-spacing="0px" style="line-height:1.25" xml:space="preserve"><flowRegion><rect x="21" y="-71" width="223" height="308"/></flowRegion><flowPara/></flowRoot>
     <g transform="translate(-1259 -686.6)">
      <g transform="translate(167.68 .26462)">
       <g transform="translate(457.35 -.55746)">
        <g transform="translate(452.66 .26458)">
         <g transform="translate(-200.71,456.02)">
          <g transform="translate(982.25,-278.99)">
           <flowRoot fill="#000000" font-family="sans-serif" font-size="40px" letter-spacing="0px" word-spacing="0px" style="line-height:1.25" xml:space="preserve"><flowRegion><rect x="-78" y="-47" width="652" height="503"/></flowRegion><flowPara/></flowRoot>
           <g transform="translate(60.987,1.1523e-6)">
            <g transform="translate(57.841)">
             <g transform="translate(-236.4)">
              <g transform="translate(-57.885 .26458)">
               <rect x="215.15" y="192.03" width="52.701" height="52.701" fill="#b9d4ff" stroke="#000" stroke-linecap="round" stroke-width=".52917" style="paint-order:fill markers stroke"/>
               <path d="m255.78 193.76h-28.564c-1.5767 0-2.8564 1.2797-2.8564 2.8564v28.564c0 1.5767 1.2797 2.8564 2.8564 2.8564h28.564c1.5767 0 2.8564-1.2797 2.8564-2.8564v-28.564c0-1.5767-1.2797-2.8564-2.8564-2.8564zm0 31.42h-28.564v-28.564h28.564z" stroke-width="2.8564"/>
               <rect x="228.37" y="198.83" width="26.262" height="9.8482" stroke-width="3.2827"/>
               <text class="svgT" x="241.5786" y="233.82208" font-family="sans-serif" font-size="5.2px" letter-spacing=".5px" stroke-width=".26458" text-anchor="middle" word-spacing="0px" style="line-height:1.04999995" xml:space="preserve"><tspan font-size="5.6445px"/></text>
               <path d="m234.98 204.15c0.11614 6e-3 0.22877 0.0301 0.34219 0.0519l0.34097 0.0651c0.46118 0.0688 0.90121 0.2188 1.3508 0.35037 0.87641 0.31477 1.7471 0.70326 2.5259 1.2471 0.4094 0.24582 0.76327 0.56473 1.1403 0.86134 0.18112 0.15608 0.34565 0.33013 0.51977 0.49589l0.25806 0.25267c0.0855 0.085 0.15775 0.18119 0.23736 0.27166l0.46773 0.55442c0.14334 0.19446 0.27778 0.39619 0.41712 0.59565l0.20724 0.30119c0.0625 0.10427 0.11977 0.21163 0.17988 0.31775l0.34741 0.62383 1.0465-0.44545c0.0325 1.7952-0.36992 3.4622-1.0455 4.8464-0.67904-1.3896-1.6301-2.4998-2.6924-3.2553l1.0465-0.44543-0.22206-0.55923c-0.0388-0.096-0.0748-0.19375-0.11597-0.28903l-0.14321-0.27597c-0.0966-0.18374-0.18824-0.37192-0.28903-0.55514l-0.34083-0.5272c-0.0586-0.087-0.10996-0.18022-0.17463-0.26282l-0.19606-0.24702c-0.13301-0.16299-0.25698-0.33631-0.39829-0.49366-0.29734-0.29906-0.57448-0.62836-0.91103-0.89143-0.63333-0.57841-1.3747-1.0295-2.1469-1.4265-0.39744-0.17264-0.79156-0.36858-1.2138-0.48689l-0.31303-0.10286c-0.10453-0.0346-0.20874-0.0719-0.31697-0.0909l-0.64639-0.1422c-0.20661-0.0538-0.39126-0.0719-0.5494-0.0955-0.15813-0.0237-0.29041-0.047-0.39653-0.0695-0.21226-0.0451-0.31999-0.087-0.31999-0.12349-1e-5 -0.0365 0.1078-0.0675 0.32661-0.0909 0.1094-0.0117 0.24654-0.0214 0.4117-0.0288 0.16515-7e-3 0.35892-0.0186 0.57734 9e-3z" stroke-width=".20256"/>
               <text x="229.90924" y="205.23955" fill="#b9d4ff" font-family="voestalpine" font-size="5.6444px" letter-spacing="0px" stroke-width=".26458" word-spacing="0px" style="line-height:1.25" xml:space="preserve"><tspan x="229.90924" y="205.23955" fill="#b9d4ff" font-family="sans-serif" stroke-width=".26458">Figure 1</tspan></text>
               <text x="229.90924" y="219.48531" fill="#b9d4ff" font-family="voestalpine" font-size="5.6444px" letter-spacing="0px" stroke-width=".26458" word-spacing="0px" style="line-height:1.25" xml:space="preserve"><tspan x="229.90924" y="219.48531" fill="#000000" font-family="sans-serif" stroke-width=".26458"><tspan fill="#ff0000">Figure</tspan></tspan></text>
               <path d="m229.59 218h18.19" fill="none" stroke="#000" stroke-dasharray="1.58751158,0.52917053" stroke-width=".52917"/>
               <text x="248.496" y="219.48763" fill="#000000" font-family="sans-serif" font-size="5.6445px" letter-spacing="0px" stroke-width=".26459" word-spacing="0px" style="line-height:1.25" xml:space="preserve"><tspan x="248.496" y="219.48763" stroke-width=".26459">1</tspan></text>
              </g>
             </g>
            </g>
           </g>
          </g>
         </g>
        </g>
       </g>
      </g>
     </g>
     <text x="690.36255" y="-276.12204" fill="#000000" font-family="sans-serif" font-size="5.6445px" letter-spacing="0px" stroke-width=".26459" text-align="center" text-anchor="middle" word-spacing="0px" style="line-height:1.25" xml:space="preserve"><tspan x="666.87506" y="-276.12204" text-align="center"><tspan x="665.88287" y="-276.12204" stroke-width=".26459" text-align="center" text-anchor="middle">Wstaw odwołanie </tspan></tspan><tspan x="665.88287" y="-269.06644" text-align="center"><tspan x="665.88287" y="-269.06644" stroke-width=".26459" text-align="center" text-anchor="middle">bez etykiety</tspan></tspan></text>
    </g>
   </g>
  </g>
 </g>
</svg>
