<svg id="SVGRoot" width="206px" height="206px" version="1.1" viewBox="0 0 206 206" xmlns="http://www.w3.org/2000/svg">
 <g transform="matrix(3.7795 0 0 3.7795 -1795.2 2502.6)">
  <flowRoot fill="black" font-family="sans-serif" font-size="40px" letter-spacing="0px" word-spacing="0px" style="line-height:1.25" xml:space="preserve"><flowRegion><rect x="-392.69" y="-63.57" width="758.02" height="397.52"/></flowRegion><flowPara/></flowRoot>
  <flowRoot fill="black" font-family="sans-serif" font-size="40px" letter-spacing="0px" word-spacing="0px" style="line-height:1.25" xml:space="preserve"><flowRegion><rect x="-251.87" y="-84.492" width="624.44" height="455.45"/></flowRegion><flowPara/></flowRoot>
  <flowRoot fill="black" font-family="sans-serif" font-size="40px" letter-spacing="0px" word-spacing="0px" style="line-height:1.25" xml:space="preserve"><flowRegion><rect x="-202.78" y="-50.695" width="473.96" height="281.64"/></flowRegion><flowPara/></flowRoot>
  <flowRoot fill="black" font-family="sans-serif" font-size="40px" letter-spacing="0px" word-spacing="0px" style="line-height:1.25" xml:space="preserve"><flowRegion><rect x="-86.906" y="-78.859" width="516.61" height="410.39"/></flowRegion><flowPara/></flowRoot>
  <flowRoot fill="black" font-family="sans-serif" font-size="40px" letter-spacing="0px" word-spacing="0px" style="line-height:1.25" xml:space="preserve"><flowRegion><rect x="-81.273" y="-32.188" width="309" height="322.68"/></flowRegion><flowPara/></flowRoot>
  <flowRoot fill="black" font-family="sans-serif" font-size="40px" letter-spacing="0px" word-spacing="0px" style="line-height:1.25" xml:space="preserve"><flowRegion><rect x="-90.93" y="-68.398" width="392.69" height="252.67"/></flowRegion><flowPara/></flowRoot>
  <g transform="translate(675.17 -.21291)">
   <flowRoot fill="black" font-family="sans-serif" font-size="40px" letter-spacing="0px" word-spacing="0px" style="line-height:1.25" xml:space="preserve"><flowRegion><rect x="-100.59" y="-53.109" width="462.7" height="369.35"/></flowRegion><flowPara/></flowRoot>
   <g transform="translate(57.194 .21291)">
    <flowRoot fill="black" font-family="sans-serif" font-size="40px" letter-spacing="0px" word-spacing="0px" style="line-height:1.25" xml:space="preserve"><flowRegion><rect x="-329.12" y="-12.07" width="696.05" height="259.91"/></flowRegion><flowPara/></flowRoot>
    <g transform="translate(-1495.1 -629.38)">
     <flowRoot fill="black" font-family="sans-serif" font-size="40px" letter-spacing="0px" word-spacing="0px" style="line-height:1.25" xml:space="preserve"><flowRegion><rect x="-306.59" y="-111.05" width="206" height="51.5"/></flowRegion><flowPara/></flowRoot>
     <g transform="translate(1121.3 -401.18)">
      <rect x="118.14" y="369.54" width="52.258" height="52.258" fill="#fff" stroke="#000" stroke-linecap="round" stroke-width=".5" style="paint-order:fill markers stroke"/>
      <text x="144.32872" y="411.63953" font-family="sans-serif" font-size="4.9389px" letter-spacing="0px" stroke-width=".26458" text-align="center" text-anchor="middle" word-spacing="0px" style="line-height:0.94999999" xml:space="preserve"><tspan x="144.32872" y="411.63953" text-align="center">Wstaw wiersz</tspan><tspan x="144.32872" y="417.67203" text-align="center">powyżej</tspan></text>
      <g>
       <path d="m162.46 379.11h-28.846c-.55691 0-1.0086.45163-1.0086 1.0085v19.707c0 .55725.45164 1.0085 1.0086 1.0085h28.847c.55691 0 1.0086-.45129 1.0086-1.0085v-19.707c-.00027-.55691-.45198-1.0085-1.0089-1.0085zm-14.726 5.8853v4.6741h-6.959v-4.6741zm-6.959-.60562v-4.6741h6.959v4.6741zm6.959 5.8853v4.6744h-6.959v-4.6744zm0 5.2794v4.6744h-6.959v-4.6744zm7.5646-5.2794v4.6744h-6.959v-4.6744zm-6.959-.6056v-4.6741h6.959v4.6741zm6.959 5.885v4.6744h-6.959v-4.6744zm0-11.165h-6.959v-4.6741h6.959zm-22.088-4.2711c0-.22188.18003-.40191.40191-.40294h6.5574v4.6741h-6.9593zm0 4.8768h6.9593v4.6741h-6.9593zm0 5.2797h6.9593v4.6744h-6.9593zm0 9.5505v-4.2712h6.9593v4.6744h-6.5574c-.22188-.001-.40191-.18107-.40191-.40328zm29.652 0c0 .22186-.1797.40225-.40191.40328h-6.5571v-4.6744h6.959zm0-4.8761h-6.959v-4.6744h6.959zm0-5.28h-6.959v-4.6741h6.959zm0-5.2797h-6.959v-4.6741h6.5571c.22187.001.40191.18106.40191.40294z" stroke-width=".34293"/>
       <path d="m138.73 386.01h-4.0469c-.167 0-.3028.1358-.3028.3028v1.9907c0 .167.1358.3028.3028.3028h4.0469c.16701 0 .30281-.1358.30281-.3028v-1.9907c0-.16734-.1358-.3028-.30281-.3028z" stroke-width=".34293"/>
       <g transform="matrix(-9.1289e-8 22.666 -22.666 -9.1289e-8 132.2 381.58)" clip-rule="evenodd" fill-rule="evenodd" image-rendering="optimizeQuality" shape-rendering="geometricPrecision">
        <polygon class="fil0" points=".12381 0 0 .12381 .033614 .15742 .10044 .090594 .10044 .30646 .14798 .30646 .14798 .092689 .21482 .15953 .24843 .12591"/>
       </g>
      </g>
      <text x="124.2034" y="383.28302" font-family="voestalpine" font-size="11.171px" letter-spacing="0px" stroke-width=".52363" word-spacing="0px" style="line-height:1.25" xml:space="preserve"><tspan x="124.2034" y="383.28302" stroke-width=".52363">+</tspan></text>
     </g>
    </g>
   </g>
  </g>
 </g>
</svg>
