<svg id="SVGRoot" version="1.1" viewBox="0 0 208 208" xmlns="http://www.w3.org/2000/svg">
 <g transform="translate(0,7)">
  <g transform="matrix(3.7795 0 0 3.7795 10.171 -6.7758)">
   <g transform="translate(-1.0884 -121.69)">
    <g transform="translate(1.6608 -59.209)">
     <g transform="translate(-.6443 -59.335)">
      <g transform="translate(-1396.8 269.89)">
       <g transform="translate(-57.972 -.024822)">
        <g transform="translate(1658.1 73.867)">
         <g transform="translate(-203.03 -103.33)">
          <flowRoot transform="matrix(.26458 0 0 .26458 -2.875 1.091)" fill="#000000" font-family="sans-serif" font-size="40px" letter-spacing="0px" word-spacing="0px" style="line-height:1.25" xml:space="preserve"><flowRegion><rect x="-85.582" y="-60.812" width="342.33" height="293.65"/></flowRegion><flowPara/></flowRoot>
          <g transform="translate(-1039.4 318.88)">
           <flowRoot transform="matrix(.26458 0 0 .26458 1036.5 -317.79)" fill="#000000" font-family="sans-serif" font-size="40px" letter-spacing="0px" word-spacing="0px" style="line-height:1.25" xml:space="preserve"><flowRegion><rect x="-105.21" y="-13.703" width="562.17" height="513.49"/></flowRegion><flowPara/></flowRoot>
           <g transform="translate(-66.134 .039287)">
            <g transform="translate(-66.173 .043409)">
             <flowRoot transform="matrix(.26458 0 0 .26458 1168.8 -317.87)" fill="#000000" font-family="sans-serif" font-size="40px" letter-spacing="0px" word-spacing="0px" style="line-height:1.25" xml:space="preserve"><flowRegion><rect x="-114.63" y="-91.434" width="675.23" height="522.91"/></flowRegion><flowPara/></flowRoot>
             <g transform="translate(-66.2 -.040316)">
              <g transform="translate(-65.918 -.60254)">
               <g transform="translate(-66.6 .14883)">
                <flowRoot fill="black" font-family="sans-serif" font-size="40px" letter-spacing="0px" word-spacing="0px" style="line-height:1.25" xml:space="preserve"><flowRegion><rect x="-24.34" y="-19.695" width="252.04" height="245.75"/></flowRegion><flowPara/></flowRoot>
                <g transform="translate(-68.678 -.48293)">
                 <flowRoot fill="black" font-family="sans-serif" font-size="40px" letter-spacing="0px" word-spacing="0px" style="line-height:1.25" xml:space="preserve"><flowRegion><rect x="-65.168" y="-26.762" width="382.37" height="335.26"/></flowRegion><flowPara/></flowRoot>
                 <g transform="translate(-63.347 .4912)">
                  <g transform="translate(529.82 -.18087)">
                   <g transform="translate(794.67 .06923)">
                    <g transform="translate(-198.36 .17569)">
                     <g transform="translate(-530.68 .043413)">
                      <g transform="translate(912.04 -.041317)">
                       <g transform="translate(132.58 -.39794)">
                        <g transform="translate(-580.62 .35866)">
                         <g transform="translate(-264.6 -.1571)">
                          <g transform="translate(463.55 .097138)">
                           <g transform="translate(-397.36 .059959)">
                            <g transform="translate(66.026 -.30592)">
                             <g transform="translate(-264.69 -.093008)">
                              <g transform="translate(734.89 179.33)">
                               <g transform="translate(-205.07 -178.97)">
                                <g transform="translate(-1081.1 -686.85)">
                                 <flowRoot fill="black" font-family="sans-serif" font-size="40px" letter-spacing="0px" word-spacing="0px" style="line-height:1.25" xml:space="preserve"><flowRegion><rect x="21" y="-71" width="223" height="308"/></flowRegion><flowPara/></flowRoot>
                                 <g transform="translate(-112.28 .55746)">
                                  <g transform="translate(-396.77 -.26462)">
                                   <g transform="translate(167.68 .26462)">
                                    <g transform="translate(457.35 -.55746)">
                                     <g transform="translate(452.66 .26458)">
                                      <g transform="translate(-200.71 456.02)">
                                       <g transform="translate(982.25 -278.99)">
                                        <flowRoot fill="black" font-family="sans-serif" font-size="40px" letter-spacing="0px" word-spacing="0px" style="line-height:1.25" xml:space="preserve"><flowRegion><rect x="-78" y="-47" width="652" height="503"/></flowRegion><flowPara/></flowRoot>
                                        <g transform="translate(60.987 1.1523e-6)">
                                         <g transform="translate(57.841)">
                                          <g transform="translate(-236.4)">
                                           <g transform="translate(-57.885 .26458)">
                                            <g transform="translate(184.3 138.74)">
                                             <g transform="translate(-231.04 .26459)">
                                              <g transform="translate(173.51 -.26458)">
                                               <flowRoot fill="black" font-family="sans-serif" font-size="40px" letter-spacing="0px" word-spacing="0px" style="line-height:1.25" xml:space="preserve"><flowRegion><rect x="-252" y="-52" width="560" height="433"/></flowRegion><flowPara/></flowRoot>
                                               <g transform="translate(-115.23 .26458)">
                                                <rect x="203.88" y="53.024" width="52.701" height="52.701" fill="#b9d4ff" stroke="#000" stroke-linecap="round" stroke-width=".5" style="paint-order:fill markers stroke"/>
                                                <g transform="matrix(2.8564 0 0 2.8564 207.38 50.1)">
                                                 <path d="m13 2h-10c-0.552 0-1 0.448-1 1v10c0 0.552 0.448 1 1 1h10c0.552 0 1-0.448 1-1v-10c0-0.552-0.448-1-1-1zm0 11h-10v-10h10z"/>
                                                 <rect x="4" y="4" width="8" height="3"/>
                                                </g>
                                                <text class="svgT" x="230.2717" y="96.751572" font-family="sans-serif" font-size="5.2917px" letter-spacing="0px" stroke-width=".26458" text-anchor="middle" word-spacing="0px" style="line-height:1.04999995" xml:space="preserve"><tspan x="230.2717" y="96.751572" text-align="center">Wstaw numer</tspan><tspan x="230.2717" y="103.41908" text-align="center">elementu listy</tspan></text>
                                                <g transform="matrix(0 .20256 .20256 0 218.24 61.183)">
                                                 <path d="m19.548 26.786c0.02863 0.57336 0.1488 1.1294 0.25623 1.6893l0.32135 1.6833c0.33984 2.2768 1.0802 4.4491 1.7297 6.6689 1.554 4.3267 3.4719 8.6252 6.1567 12.47 1.2136 2.0211 2.788 3.7681 4.2523 5.6296 0.77051 0.89416 1.6298 1.7064 2.4481 2.566l1.2474 1.274c0.41962 0.42188 0.89447 0.77875 1.3411 1.1718l2.7371 2.3091c0.96002 0.70764 1.9559 1.3713 2.9406 2.0592l1.4869 1.0231c0.51477 0.30835 1.0448 0.59131 1.5687 0.88806l3.0797 1.7151-2.1991 5.1664c8.8623 0.16034 17.092-1.8262 23.926-5.1616-6.86-3.3523-12.341-8.0473-16.071-13.292l-2.199 5.1663-2.7608-1.0963c-0.47376-0.19177-0.95648-0.36945-1.4269-0.57251l-1.3624-0.70697c-0.9071-0.47705-1.8361-0.92932-2.7406-1.4269l-2.6027-1.6826c-0.42938-0.28925-0.88971-0.54285-1.2975-0.86212l-1.2195-0.9679c-0.80463-0.65668-1.6603-1.2687-2.4371-1.9663-1.4764-1.4679-3.1021-2.8361-4.4008-4.4976-2.8555-3.1266-5.0823-6.7867-7.0424-10.599-0.8523-1.9621-1.8196-3.9078-2.4037-5.9922l-0.50781-1.5454c-0.17059-0.51605-0.35492-1.0305-0.44855-1.5648l-0.70203-3.1911c-0.26556-1.02-0.35474-1.9316-0.47156-2.7123-0.117-0.78064-0.23206-1.4337-0.34326-1.9576-0.22254-1.0479-0.42957-1.5797-0.60962-1.5797-0.18005-6.1e-5 -0.33344 0.53217-0.44867 1.6124-0.05762 0.5401-0.10559 1.2171-0.14215 2.0325-0.03674 0.81531-0.09186 1.7719 0.04327 2.8502z"/>
                                                </g>
                                                <text x="219.87518" y="69.005463" fill="#b9d4ff" font-family="sans-serif" font-size="5.2px" letter-spacing=".5px" stroke-width=".26458" word-spacing="0px" style="line-height:1.25" xml:space="preserve"><tspan x="219.87518" y="67.619194" fill="#b9d4ff" stroke-width=".26458">a.</tspan></text>
                                                <text x="229.53247" y="81.27446" fill="#b9d4ff" font-family="sans-serif" font-size="5.2px" letter-spacing=".5px" stroke-width=".26458" word-spacing="0px" style="line-height:1.25" xml:space="preserve"><tspan x="229.53247" y="81.27446" fill="#000000" stroke-width=".26458">a.</tspan></text>
                                               </g>
                                              </g>
                                             </g>
                                            </g>
                                           </g>
                                          </g>
                                         </g>
                                        </g>
                                       </g>
                                      </g>
                                     </g>
                                    </g>
                                   </g>
                                  </g>
                                 </g>
                                </g>
                               </g>
                              </g>
                             </g>
                            </g>
                           </g>
                          </g>
                         </g>
                        </g>
                       </g>
                      </g>
                     </g>
                    </g>
                   </g>
                  </g>
                 </g>
                </g>
               </g>
              </g>
             </g>
            </g>
           </g>
          </g>
         </g>
        </g>
       </g>
      </g>
     </g>
    </g>
   </g>
  </g>
 </g>
</svg>
