<?xml version="1.0" encoding="UTF-8" standalone="no"?>
<svg
   xmlns:dc="http://purl.org/dc/elements/1.1/"
   xmlns:cc="http://creativecommons.org/ns#"
   xmlns:rdf="http://www.w3.org/1999/02/22-rdf-syntax-ns#"
   xmlns:svg="http://www.w3.org/2000/svg"
   xmlns="http://www.w3.org/2000/svg"
   id="SVGRoot"
   version="1.1"
   viewBox="0 0 200 200"
   height="200px"
   width="200px">
  <defs
     id="defs827" />
  <metadata
     id="metadata830">
    <rdf:RDF>
      <cc:Work
         rdf:about="">
        <dc:format>image/svg+xml</dc:format>
        <dc:type
           rdf:resource="http://purl.org/dc/dcmitype/StillImage" />
        <dc:title></dc:title>
      </cc:Work>
    </rdf:RDF>
  </metadata>
  <g
     id="layer1">
    <g
       id="g303"
       transform="matrix(3.7795276,0,0,3.7795276,-769.88904,-199.40626)">
      <rect
         y="53.024254"
         x="203.88181"
         height="52.701496"
         width="52.701496"
         id="rect833-9-8"
         style="fill:#b9d4ff;fill-opacity:1;stroke:#000000;stroke-width:0.49999899;stroke-linecap:round;stroke-miterlimit:4;stroke-dasharray:none;paint-order:fill markers stroke" />
      <g
         transform="matrix(2.8563586,0,0,2.8563586,207.38168,50.100281)"
         id="g866-0-0"
         style="fill:#000000">
        <g
           id="g853-3-02">
          <path
             d="M 13,2 H 3 C 2.448,2 2,2.448 2,3 v 10 c 0,0.552 0.448,1 1,1 h 10 c 0.552,0 1,-0.448 1,-1 V 3 C 14,2.448 13.552,2 13,2 Z m 0,11 H 3 V 3 h 10 z"
             id="path849-6-2" />
          <rect
             x="4"
             y="4"
             width="8"
             height="3"
             id="rect851-9-0" />
        </g>
      </g>
      <text
         id="text870-3-1"
         y="96.751572"
         x="230.2717"
         style="font-size:6.3499999px;line-height:1.04999995;font-family:voestalpine;-inkscape-font-specification:voestalpine;letter-spacing:0px;word-spacing:0px;stroke-width:0.26458299"
         xml:space="preserve"><tspan
           style="font-size:6.3499999px;text-align:center;text-anchor:middle;stroke-width:0.26458299"
           y="96.751572"
           x="230.2717"
           id="tspan868-7-2">Wstaw tekst</tspan><tspan
           id="tspan872-2-6"
           style="font-size:6.3499999px;text-align:center;text-anchor:middle;stroke-width:0.26458299"
           y="103.41908"
           x="230.2717">zakładki</tspan></text>
      <g
         transform="matrix(0,0.2025608,0.2025608,0,218.2414,61.183182)"
         id="g1011-3-5"
         style="fill:#000000">
        <path
           d="m 19.548149,26.785803 c 0.02863,0.573364 0.148804,1.129394 0.256226,1.68927 l 0.32135,1.683288 c 0.339844,2.276793 1.0802,4.449095 1.729675,6.668944 1.553955,4.326721 3.471924,8.625244 6.156738,12.470215 1.213623,2.021057 2.788025,3.768127 4.252259,5.629638 0.770507,0.894165 1.62976,1.706421 2.448059,2.56604 l 1.247436,1.273987 c 0.419617,0.421875 0.89447,0.778748 1.341065,1.171753 l 2.737121,2.309143 c 0.960022,0.707642 1.955872,1.371277 2.940552,2.059208 l 1.486878,1.023071 c 0.51477,0.30835 1.044799,0.591309 1.568664,0.888062 l 3.079651,1.715088 -2.199097,5.166443 c 8.862305,0.160339 17.091553,-1.826172 23.925721,-5.161621 -6.859986,-3.352295 -12.340943,-8.047307 -16.07074,-13.292424 l -2.199036,5.166321 -2.760803,-1.096252 c -0.473755,-0.191773 -0.956482,-0.369446 -1.426941,-0.57251 L 47.0205,57.436497 C 46.113396,56.959446 45.184441,56.507175 44.2799,56.009556 L 41.677239,54.327 c -0.429383,-0.289246 -0.88971,-0.542847 -1.297486,-0.862122 L 39.16021,52.496983 c -0.804627,-0.656678 -1.660278,-1.268677 -2.437134,-1.966309 -1.476379,-1.467896 -3.102051,-2.83606 -4.400818,-4.497559 -2.85553,-3.126587 -5.082275,-6.786682 -7.042419,-10.598999 -0.852295,-1.962097 -1.81958,-3.907774 -2.403748,-5.992185 l -0.507812,-1.54541 c -0.170594,-0.516053 -0.35492,-1.030518 -0.448548,-1.564759 l -0.702026,-3.191101 c -0.265564,-1.020019 -0.354736,-1.931579 -0.471558,-2.71228 -0.117004,-0.78064 -0.232055,-1.433655 -0.343261,-1.957642 -0.222535,-1.047851 -0.429566,-1.579651 -0.60962,-1.579712 -0.180053,-6.1e-5 -0.333435,0.532166 -0.448669,1.612366 -0.05762,0.5401 -0.105591,1.217102 -0.142151,2.032471 -0.03674,0.815307 -0.09186,1.771911 0.04327,2.850219 z"
           id="path1000-0-0" />
      </g>
      <text
         xml:space="preserve"
         style="font-size:5.64444017px;line-height:1.25;font-family:voestalpine;-inkscape-font-specification:voestalpine;letter-spacing:0px;word-spacing:0px;fill:#b9d4ff;fill-opacity:1;stroke-width:0.26458299"
         x="219.87518"
         y="67.619194"
         id="text916-1"><tspan
           id="tspan914-5"
           x="219.87518"
           y="67.619194"
           style="fill:#b9d4ff;fill-opacity:1;stroke-width:0.26458299">aaaaaa</tspan></text>
      <text
         id="text916-2-2"
         y="81.53904"
         x="219.87518"
         style="font-size:5.64444017px;line-height:1.25;font-family:voestalpine;-inkscape-font-specification:voestalpine;letter-spacing:0px;word-spacing:0px;fill:#b9d4ff;fill-opacity:1;stroke-width:0.26458299"
         xml:space="preserve"><tspan
           style="fill:#000000;fill-opacity:1;stroke-width:0.26458299"
           y="81.53904"
           x="219.87518"
           id="tspan914-3-9">aaaaaa</tspan></text>
    </g>
  </g>
</svg>
