<?xml version="1.0" encoding="UTF-8" standalone="no"?>
<svg
   xmlns:dc="http://purl.org/dc/elements/1.1/"
   xmlns:cc="http://creativecommons.org/ns#"
   xmlns:rdf="http://www.w3.org/1999/02/22-rdf-syntax-ns#"
   xmlns:svg="http://www.w3.org/2000/svg"
   xmlns="http://www.w3.org/2000/svg"
   id="svg47"
   version="1.1"
   viewBox="0 0 52.758294 52.758296"
   height="199.40143"
   width="199.40143">
  <defs
     id="defs42">
    <pattern
       id="EMFhbasepattern"
       patternUnits="userSpaceOnUse"
       width="6"
       height="6"
       x="0"
       y="0" />
  </defs>
  <metadata
     id="metadata45">
    <rdf:RDF>
      <cc:Work
         rdf:about="">
        <dc:format>image/svg+xml</dc:format>
        <dc:type
           rdf:resource="http://purl.org/dc/dcmitype/StillImage" />
        <dc:title></dc:title>
      </cc:Work>
    </rdf:RDF>
  </metadata>
  <g
     id="g8556"
     transform="translate(49.836509,-375.23204)">
    <g
       id="g5305">
      <g
         id="g8730"
         transform="translate(-108.22541,-52.226495)">
        <rect
           height="52.258293"
           y="427.79944"
           x="58.680305"
           width="52.258293"
           id="rect833-1-5-3-7-4-8-5-2-3"
           style="fill:#c4c4c4;fill-opacity:1;stroke:#000000;stroke-width:0.49999899;stroke-linecap:round;stroke-miterlimit:4;stroke-dasharray:none;stroke-opacity:1;paint-order:fill markers stroke" />
        <text
           id="text898-7-3-6-8-3-3-0-6-3"
           y="471.38135"
           x="84.883621"
           style="font-size:6.3499999px;line-height:0.94999999;font-family:voestalpine;-inkscape-font-specification:voestalpine;text-align:center;letter-spacing:0px;word-spacing:0px;text-anchor:middle;fill:#ffffff;fill-opacity:1;stroke-width:0.26458299"
           xml:space="preserve"><tspan
             style="font-size:6.3499999px;text-align:center;text-anchor:middle;fill:#ffffff;fill-opacity:1;stroke-width:0.26458299"
             y="471.38135"
             x="84.883621"
             id="tspan1396-8-7-1-8">Wstaw kolumnę</tspan><tspan
             style="font-size:6.3499999px;text-align:center;text-anchor:middle;fill:#ffffff;fill-opacity:1;stroke-width:0.26458299"
             y="477.41385"
             x="84.883621"
             id="tspan1701-9-7">z lewej</tspan></text>
        <g
           style="fill:#ffffff;fill-opacity:1"
           id="g5433">
          <path
             d="m 99.232408,438.55082 h -6.55606 -0.60561 -6.95866 -0.6056 -6.959007 -0.605607 -6.555721 c -0.556913,0 -1.008547,0.45163 -1.008547,1.00854 v 4.27114 0.60562 4.67408 0.6056 4.67444 0.60526 4.27115 c 0,0.55725 0.451634,1.00854 1.008547,1.00854 h 6.556063 0.605608 6.959004 0.60561 6.959 0.60561 6.55572 c 0.556915,0 1.008552,-0.45129 1.008552,-1.00854 v -4.27149 -0.60527 -4.67409 -0.6056 -4.67408 -0.60562 -4.27114 c -2.7e-4,-0.55691 -0.451977,-1.00854 -1.008902,-1.00854 z m -14.72593,5.8853 v 4.67408 h -6.959007 v -4.67408 z m -6.959007,-0.60562 v -4.67408 h 6.959007 v 4.67408 z m 6.959007,5.8853 v 4.67444 h -6.959007 v -4.67444 z m 0,5.27936 v 4.67443 h -6.959007 v -4.67443 z m 7.56461,-5.27936 v 4.67444 h -6.95901 v -4.67444 z m -6.95901,-0.6056 v -4.67408 h 6.95901 v 4.67408 z m 6.95901,5.88496 v 4.67443 h -6.95901 v -4.67443 z m 0,-11.16466 h -6.95901 v -4.67408 h 6.95901 z m -22.088227,-4.27114 c 0,-0.22188 0.180035,-0.40191 0.401909,-0.40294 h 6.557436 v 4.67408 h -6.959345 z m 0,4.87676 h 6.959345 v 4.67408 h -6.959345 z m 0,5.27968 h 6.959345 v 4.67444 h -6.959345 z m 0,9.55051 v -4.27115 h 6.959345 v 4.67443 H 70.38477 c -0.221874,-0.001 -0.401909,-0.18107 -0.401909,-0.40328 z m 29.652492,0 c 0,0.22186 -0.17969,0.40225 -0.401915,0.40328 h -6.55709 v -4.67443 h 6.959005 z m 0,-4.87607 h -6.959005 v -4.67444 h 6.959005 z m 0,-5.28004 h -6.959005 v -4.67408 h 6.959005 z m 0,-5.2797 h -6.959005 v -4.67408 h 6.55709 c 0.221885,10e-4 0.401915,0.18106 0.401915,0.40294 z"
             id="path1492-9-6-2-4"
             style="fill:#ffffff;fill-opacity:1;stroke-width:0.342926" />
          <path
             d="m 83.050408,440.02587 h -4.046873 c -0.167003,0 -0.302803,0.1358 -0.302803,0.3028 v 1.99069 c 0,0.167 0.1358,0.3028 0.302803,0.3028 h 4.046873 c 0.16701,0 0.30281,-0.1358 0.30281,-0.3028 v -1.99069 c 0,-0.16734 -0.1358,-0.3028 -0.30281,-0.3028 z"
             id="path1502-9-5-9-3"
             style="fill:#ffffff;fill-opacity:1;stroke-width:0.342926" />
          <g
             transform="matrix(-22.665859,0,0,-22.665859,80.002348,438.13871)"
             id="g1225-72-8-4"
             style="clip-rule:evenodd;fill:#ffffff;fill-opacity:1;fill-rule:evenodd;image-rendering:optimizeQuality;shape-rendering:geometricPrecision;text-rendering:geometricPrecision">
            <polygon
               style="fill:#ffffff;fill-opacity:1"
               id="polygon1212-2-6-9"
               points="0.100445,0.0905945 0.100445,0.306461 0.147984,0.306461 0.147984,0.092689 0.214819,0.159531 0.248433,0.125913 0.123807,0 0,0.123807 0.0336142,0.157421 "
               class="fil0" />
          </g>
          <text
             id="text1723-0-5"
             y="436.78891"
             x="78.670013"
             style="font-size:11.17070007px;line-height:1.25;font-family:voestalpine;-inkscape-font-specification:voestalpine;letter-spacing:0px;word-spacing:0px;fill:#ffffff;fill-opacity:1;stroke-width:0.52362603"
             xml:space="preserve"><tspan
               style="fill:#ffffff;fill-opacity:1;stroke-width:0.52362603"
               y="436.78891"
               x="78.670013"
               id="tspan1721-0-3">+</tspan></text>
        </g>
      </g>
    </g>
  </g>
</svg>
