<?xml version="1.0" encoding="UTF-8" standalone="no"?>
<svg
   xmlns:dc="http://purl.org/dc/elements/1.1/"
   xmlns:cc="http://creativecommons.org/ns#"
   xmlns:rdf="http://www.w3.org/1999/02/22-rdf-syntax-ns#"
   xmlns:svg="http://www.w3.org/2000/svg"
   xmlns="http://www.w3.org/2000/svg"
   id="svg47"
   version="1.1"
   viewBox="0 0 52.758294 52.758296"
   height="199.40143"
   width="199.40143">
  <defs
     id="defs42">
    <pattern
       id="EMFhbasepattern"
       patternUnits="userSpaceOnUse"
       width="6"
       height="6"
       x="0"
       y="0" />
  </defs>
  <metadata
     id="metadata45">
    <rdf:RDF>
      <cc:Work
         rdf:about="">
        <dc:format>image/svg+xml</dc:format>
        <dc:type
           rdf:resource="http://purl.org/dc/dcmitype/StillImage" />
        <dc:title></dc:title>
      </cc:Work>
    </rdf:RDF>
  </metadata>
  <g
     id="g8556"
     transform="translate(49.836509,-375.23204)">
    <g
       id="g5305">
      <g
         id="g8664"
         transform="translate(-50.550999,-51.765629)">
        <rect
           style="fill:#c4c4c4;fill-opacity:1;stroke:#000000;stroke-width:0.49999899;stroke-linecap:round;stroke-miterlimit:4;stroke-dasharray:none;stroke-opacity:1;paint-order:fill markers stroke"
           id="rect833-1-5-3-7-4-8-5-4"
           width="52.258293"
           x="1.024789"
           y="427.31967"
           height="52.258293" />
        <text
           xml:space="preserve"
           style="font-size:6.3499999px;line-height:0.94999999;font-family:voestalpine;-inkscape-font-specification:voestalpine;text-align:center;letter-spacing:0px;word-spacing:0px;text-anchor:middle;fill:#ffffff;fill-opacity:1;stroke-width:0.26458299"
           x="27.228102"
           y="470.90158"
           id="text898-7-3-6-8-3-3-0-9"><tspan
             id="tspan1396-8-7-7"
             x="27.228102"
             y="470.90158"
             style="font-size:6.3499999px;text-align:center;text-anchor:middle;fill:#ffffff;fill-opacity:1;stroke-width:0.26458299">Wstaw kolumnę</tspan><tspan
             id="tspan1701-5"
             x="27.228102"
             y="476.93408"
             style="font-size:6.3499999px;text-align:center;text-anchor:middle;fill:#ffffff;fill-opacity:1;stroke-width:0.26458299">z prawej</tspan></text>
        <g
           style="fill:#ffffff;fill-opacity:1"
           id="g5375">
          <path
             style="fill:#ffffff;fill-opacity:1;stroke-width:0.342926"
             id="path1492-9-6-23"
             d="M 41.576898,438.0711 H 35.020833 34.415226 27.456567 26.85096 19.891957 19.28635 12.730629 c -0.556913,0 -1.008547,0.45163 -1.008547,1.00854 v 4.27114 0.60562 4.67408 0.6056 4.67444 0.60526 4.27115 c 0,0.55725 0.451634,1.00854 1.008547,1.00854 h 6.556063 0.605608 6.959003 0.605607 6.959003 0.605608 6.555721 c 0.556911,0 1.008547,-0.45129 1.008547,-1.00854 v -4.27149 -0.60527 -4.67409 -0.6056 -4.67408 -0.60562 -4.27114 c -2.64e-4,-0.55691 -0.451977,-1.00854 -1.008891,-1.00854 z m -14.725938,5.8853 v 4.67408 h -6.959003 v -4.67408 z m -6.959003,-0.60562 v -4.67408 h 6.959003 v 4.67408 z m 6.959003,5.8853 v 4.67444 h -6.959003 v -4.67444 z m 0,5.27936 v 4.67443 h -6.959003 v -4.67443 z m 7.56461,-5.27936 v 4.67444 h -6.959003 v -4.67444 z m -6.959003,-0.6056 v -4.67408 h 6.959003 v 4.67408 z m 6.959003,5.88496 v 4.67443 h -6.959003 v -4.67443 z m 0,-11.16466 h -6.959003 v -4.67408 h 6.959003 z m -22.088223,-4.27114 c 0,-0.22188 0.180035,-0.40191 0.401909,-0.40294 h 6.557436 v 4.67408 h -6.959345 z m 0,4.87676 h 6.959345 v 4.67408 h -6.959345 z m 0,5.27968 h 6.959345 v 4.67444 h -6.959345 z m 0,9.55051 v -4.27115 h 6.959345 v 4.67443 h -6.557436 c -0.221874,-10e-4 -0.401909,-0.18107 -0.401909,-0.40328 z m 29.652491,0 c 0,0.22186 -0.179695,0.40225 -0.40191,0.40328 h -6.557095 v -4.67443 h 6.959005 z m 0,-4.87607 h -6.959005 v -4.67444 h 6.959005 z m 0,-5.28004 h -6.959005 v -4.67408 h 6.959005 z m 0,-5.2797 h -6.959005 v -4.67408 h 6.557095 c 0.221874,0.001 0.40191,0.18106 0.40191,0.40294 z" />
          <path
             style="fill:#ffffff;fill-opacity:1;stroke-width:0.342926"
             id="path1502-9-5-4"
             d="m 25.394894,439.54615 h -4.046873 c -0.167003,0 -0.302803,0.1358 -0.302803,0.3028 v 1.99069 c 0,0.167 0.1358,0.3028 0.302803,0.3028 h 4.046873 c 0.167005,0 0.302805,-0.1358 0.302805,-0.3028 v -1.99069 c 0,-0.16734 -0.1358,-0.3028 -0.302805,-0.3028 z" />
          <g
             style="clip-rule:evenodd;fill:#ffffff;fill-opacity:1;fill-rule:evenodd;image-rendering:optimizeQuality;shape-rendering:geometricPrecision;text-rendering:geometricPrecision"
             id="g1225-72-9"
             transform="matrix(-22.665859,0,0,-22.665859,30.262759,437.65898)">
            <polygon
               style="fill:#ffffff;fill-opacity:1"
               class="fil0"
               points="0.147984,0.306461 0.147984,0.092689 0.214819,0.159531 0.248433,0.125913 0.123807,0 0,0.123807 0.0336142,0.157421 0.100445,0.0905945 0.100445,0.306461 "
               id="polygon1212-2-2" />
          </g>
          <text
             xml:space="preserve"
             style="font-size:11.17070007px;line-height:1.25;font-family:voestalpine;-inkscape-font-specification:voestalpine;letter-spacing:0px;word-spacing:0px;fill:#ffffff;fill-opacity:1;stroke-width:0.52362603"
             x="28.930428"
             y="436.30914"
             id="text1723-9"><tspan
               id="tspan1721-8"
               x="28.930428"
               y="436.30914"
               style="fill:#ffffff;fill-opacity:1;stroke-width:0.52362603">+</tspan></text>
        </g>
      </g>
    </g>
  </g>
</svg>
