<svg id="SVGRoot" width="208" height="208" version="1.1" viewBox="0 0 208 208" xmlns="http://www.w3.org/2000/svg">
 <g transform="translate(0,7)">
  <g transform="matrix(3.7795 0 0 3.7795 10.171 -6.7758)">
   <g transform="translate(-1.0884 -121.69)">
    <g transform="translate(1.6608 -59.209)">
     <g transform="translate(-.6443 -59.335)">
      <g transform="translate(-1396.8 269.89)">
       <g transform="translate(-57.972 -.024822)">
        <g transform="translate(1658.1 73.867)">
         <g transform="translate(-203.03 -103.33)">
          <flowRoot transform="matrix(.26458 0 0 .26458 -2.875 1.091)" fill="#000000" font-family="sans-serif" font-size="40px" letter-spacing="0px" word-spacing="0px" style="line-height:1.25" xml:space="preserve"><flowRegion><rect x="-85.582" y="-60.812" width="342.33" height="293.65"/></flowRegion><flowPara/></flowRoot>
          <g transform="translate(-1039.4 318.88)">
           <flowRoot transform="matrix(.26458 0 0 .26458 1036.5 -317.79)" fill="#000000" font-family="sans-serif" font-size="40px" letter-spacing="0px" word-spacing="0px" style="line-height:1.25" xml:space="preserve"><flowRegion><rect x="-105.21" y="-13.703" width="562.17" height="513.49"/></flowRegion><flowPara/></flowRoot>
           <g transform="translate(-66.134 .039287)">
            <g transform="translate(-66.173 .043409)">
             <flowRoot transform="matrix(.26458 0 0 .26458 1168.8 -317.87)" fill="#000000" font-family="sans-serif" font-size="40px" letter-spacing="0px" word-spacing="0px" style="line-height:1.25" xml:space="preserve"><flowRegion><rect x="-114.63" y="-91.434" width="675.23" height="522.91"/></flowRegion><flowPara/></flowRoot>
             <g transform="translate(-66.2 -.040316)">
              <g transform="translate(-65.918 -.60254)">
               <g transform="translate(-66.6 .14883)">
                <flowRoot fill="black" font-family="sans-serif" font-size="40px" letter-spacing="0px" word-spacing="0px" style="line-height:1.25" xml:space="preserve"><flowRegion><rect x="-24.34" y="-19.695" width="252.04" height="245.75"/></flowRegion><flowPara/></flowRoot>
                <g transform="translate(-68.678 -.48293)">
                 <flowRoot fill="black" font-family="sans-serif" font-size="40px" letter-spacing="0px" word-spacing="0px" style="line-height:1.25" xml:space="preserve"><flowRegion><rect x="-65.168" y="-26.762" width="382.37" height="335.26"/></flowRegion><flowPara/></flowRoot>
                 <g transform="translate(-63.347 .4912)">
                  <g transform="translate(529.82 -.18087)">
                   <g transform="translate(794.67 .06923)">
                    <g transform="translate(-198.36 .17569)">
                     <g transform="translate(-530.68 .043413)">
                      <g transform="translate(912.04 -.041317)">
                       <g transform="translate(132.58 -.39794)">
                        <g transform="translate(-580.62 .35866)">
                         <g transform="translate(-264.6 -.1571)">
                          <g transform="translate(463.55 .097138)">
                           <g transform="translate(-397.36 .059959)">
                            <g transform="translate(66.026 -.30592)">
                             <g transform="translate(-264.69 -.093008)">
                              <g transform="translate(734.89 179.33)">
                               <rect x="103.43" y="-496.48" width="52.917" height="52.917" fill="#ffec8e" stroke="#000" stroke-linecap="round" stroke-width=".5" style="paint-order:fill markers stroke"/>
                               <text x="129.85907" y="-455.81927" fill="#000000" font-family="sans-serif" font-size="4.9389px" letter-spacing="0px" stroke-width=".26458" text-align="center" text-anchor="middle" word-spacing="0px" style="line-height:1.25" xml:space="preserve"><tspan x="130.72723" y="-455.81927" text-align="center">Wypunktowanie </tspan><tspan x="129.85907" y="-447.88177" text-align="center">referencji ms</tspan></text>
                               <g transform="matrix(.30639 0 0 .30639 116.02 -490.83)">
                                <path d="m83.344 17.968h-52c-1.104 0-2-.9-2-2s.896-2 2-2h52c1.1 0 2 .9 2 2s-.9 2-2 2z"/>
                                <path d="m83.344 41.968h-52c-1.104 0-2-.9-2-2s.896-2 2-2h52c1.1 0 2 .9 2 2s-.9 2-2 2z"/>
                                <path d="m83.344 65.968h-52c-1.104 0-2-.9-2-2s.896-2 2-2h52c1.1 0 2 .9 2 2s-.9 2-2 2z"/>
                                <path d="m83.344 89.968h-52c-1.104 0-2-.9-2-2s.896-2 2-2h52c1.1 0 2 .9 2 2s-.9 2-2 2z"/>
                                <path d="m17.34 27.968c-1.104 0-2-.9-2-2v-11.08l-.312.492c-.588.932-1.832 1.216-2.76.612-.932-.588-1.204-1.832-.608-2.76l4-6.276c.48-.748 1.396-1.084 2.248-.848.852.252 1.44 1.032 1.44 1.92v17.936c-.008 1.104-.904 2.004-2.008 2.004z"/>
                                <path d="m23.34 49.968h-10c-.832 0-1.58-.516-1.872-1.292s-.076-1.66.552-2.216c3.028-2.656 7.508-7.656 7.508-9.916 0-2.824-2.004-3.044-2.616-3.044-1.096 0-2.256 1.296-2.256 2.532 0 1.096-.896 2-2 2s-2-.904-2-2c0-3.484 2.924-6.532 6.256-6.532 3.188 0 6.616 2.204 6.616 7.044 0 3.008-2.796 6.716-5.292 9.424h5.104c1.104 0 2 .896 2 2 0 1.1-.896 2-2 2z"/>
                               </g>
                               <text transform="scale(1.1472 .87172)" x="101.37395" y="-545.45654" fill="#000000" font-family="sans-serif" font-size="9.7995px" letter-spacing="0px" stroke-width=".24499" word-spacing="0px" style="line-height:1.25" xml:space="preserve"><tspan x="101.37395" y="-545.45654" stroke-width=".24499">[]</tspan></text>
                               <text transform="scale(1.1472 .87172)" x="101.36613" y="-553.86206" fill="#000000" font-family="sans-serif" font-size="9.7995px" letter-spacing="0px" stroke-width=".24499" word-spacing="0px" style="line-height:1.25" xml:space="preserve"><tspan x="101.36613" y="-553.86206" stroke-width=".24499">[]</tspan></text>
                              </g>
                             </g>
                            </g>
                           </g>
                          </g>
                         </g>
                        </g>
                       </g>
                      </g>
                     </g>
                    </g>
                   </g>
                  </g>
                 </g>
                </g>
               </g>
              </g>
             </g>
            </g>
           </g>
          </g>
         </g>
        </g>
       </g>
      </g>
     </g>
    </g>
   </g>
  </g>
 </g>
</svg>
