<svg width="53.417mm" height="53.417mm" version="1.1" viewBox="0 0 53.417 53.417" xmlns="http://www.w3.org/2000/svg">
 <g transform="translate(-1.2619 -2.5167)">
  <g transform="matrix(.99999 0 0 .99999 -54.831 -80.976)">
   <g fill="#000000" font-family="sans-serif" letter-spacing="0px" word-spacing="0px">
    <text transform="scale(1.0125 .98768)" x="81.487617" y="125.43761" font-size="5.6444px" stroke-width=".26132" text-align="center" text-anchor="middle" style="line-height:1.04999995" xml:space="preserve"><tspan x="82.479805" y="125.43761" text-align="center"/></text>
    <g>
     <flowRoot transform="matrix(.26459 0 0 .26459 54.831 80.976)" font-size="21.333px" style="line-height:1.25" xml:space="preserve"><flowRegion font-size="21.333px"><rect x="13.637" y="133.08" width="184.35" height="239.91"/></flowRegion><flowPara/></flowRoot>
     <flowRoot transform="matrix(.26459 0 0 .26459 54.831 80.976)" font-size="21.333px" style="line-height:1.25" xml:space="preserve"><flowRegion font-size="21.333px"><rect x="16.162" y="134.09" width="174.25" height="215.16"/></flowRegion><flowPara/></flowRoot>
     <text x="68.32827" y="131.28694" font-size="5.6445px" stroke-width=".26459" style="line-height:1.25" xml:space="preserve"><tspan x="68.32827" y="136.43657" font-size="5.6445px" stroke-width=".26459"/></text>
    </g>
   </g>
   <rect x="56.343" y="83.743" width="52.917" height="52.917" fill="#b9d4ff" stroke="#000" stroke-linecap="round" stroke-width=".5" style="paint-order:fill markers stroke"/>
   <text transform="scale(1.0125 .98768)" x="81.487617" y="125.43761" fill="#000000" font-family="sans-serif" font-size="5.6444px" letter-spacing="0px" stroke-width=".26132" text-align="center" text-anchor="middle" word-spacing="0px" style="line-height:1.04999995" xml:space="preserve"><tspan x="82.479805" y="125.43761" text-align="center"> </tspan></text>
   <text x="60.791294" y="119.09373" fill="#000000" font-family="sans-serif" font-size="5.6445px" letter-spacing="0px" stroke-width=".26459" word-spacing="0px" style="line-height:1.25" xml:space="preserve"><tspan x="60.918808" y="119.09373"><tspan x="60.918808" y="119.09373" font-size="5.6445px" stroke-width=".26459"> Sprawdź znaki</tspan></tspan><tspan x="62.048809" y="126.14935"><tspan x="62.048809" y="126.14935" font-size="5.6445px" stroke-width=".26459">interpunkcyjne </tspan></tspan><tspan x="69.010704" y="133.20496"><tspan x="69.010704" y="133.20496" font-size="5.6445px" stroke-width=".26459">w listach</tspan></tspan></text>
   <g transform="matrix(.27561 0 0 .27561 66.926 85.653)">
    <path d="m83.344 17.968h-52c-1.104 0-2-0.9-2-2s0.896-2 2-2h52c1.1 0 2 0.9 2 2s-0.9 2-2 2z"/>
    <path d="m83.344 41.968h-52c-1.104 0-2-0.9-2-2s0.896-2 2-2h52c1.1 0 2 0.9 2 2s-0.9 2-2 2z"/>
    <path d="m83.344 65.968h-52c-1.104 0-2-0.9-2-2s0.896-2 2-2h52c1.1 0 2 0.9 2 2s-0.9 2-2 2z"/>
    <path d="m83.344 89.968h-52c-1.104 0-2-0.9-2-2s0.896-2 2-2h52c1.1 0 2 0.9 2 2s-0.9 2-2 2z"/>
    <path d="m17.34 27.968c-1.104 0-2-0.9-2-2v-11.08l-0.312 0.492c-0.588 0.932-1.832 1.216-2.76 0.612-0.932-0.588-1.204-1.832-0.608-2.76l4-6.276c0.48-0.748 1.396-1.084 2.248-0.848 0.852 0.252 1.44 1.032 1.44 1.92v17.936c-8e-3 1.104-0.904 2.004-2.008 2.004z"/>
    <path d="m23.34 49.968h-10c-0.832 0-1.58-0.516-1.872-1.292s-0.076-1.66 0.552-2.216c3.028-2.656 7.508-7.656 7.508-9.916 0-2.824-2.004-3.044-2.616-3.044-1.096 0-2.256 1.296-2.256 2.532 0 1.096-0.896 2-2 2s-2-0.904-2-2c0-3.484 2.924-6.532 6.256-6.532 3.188 0 6.616 2.204 6.616 7.044 0 3.008-2.796 6.716-5.292 9.424h5.104c1.104 0 2 0.896 2 2 0 1.1-0.896 2-2 2z"/>
   </g>
   <flowRoot fill="black" font-family="sans-serif" font-size="40px" letter-spacing="0px" word-spacing="0px" style="line-height:1.25" xml:space="preserve"><flowRegion><rect x="57.402" y="131.24" width="91.464" height="49.201"/></flowRegion><flowPara/></flowRoot>
  </g>
 </g>
</svg>
