<svg id="SVGRoot" width="208" height="208" version="1.1" viewBox="0 0 208 208" xmlns="http://www.w3.org/2000/svg">
 <g transform="translate(0,7)">
  <g transform="matrix(3.7795 0 0 3.7795 10.171 -6.7758)">
   <g transform="translate(-1.0884 -121.69)">
    <g transform="translate(1.6608 -59.209)">
     <g transform="translate(-.6443 -59.335)">
      <g transform="translate(-1396.8 269.89)">
       <g transform="translate(-57.972 -.024822)">
        <g transform="translate(1658.1 73.867)">
         <g transform="translate(-203.03 -103.33)">
          <flowRoot transform="matrix(.26458 0 0 .26458 -2.875 1.091)" fill="#000000" font-family="sans-serif" font-size="40px" letter-spacing="0px" word-spacing="0px" style="line-height:1.25" xml:space="preserve"><flowRegion><rect x="-85.582" y="-60.812" width="342.33" height="293.65"/></flowRegion><flowPara/></flowRoot>
          <g transform="translate(-1039.4 318.88)">
           <flowRoot transform="matrix(.26458 0 0 .26458 1036.5 -317.79)" fill="#000000" font-family="sans-serif" font-size="40px" letter-spacing="0px" word-spacing="0px" style="line-height:1.25" xml:space="preserve"><flowRegion><rect x="-105.21" y="-13.703" width="562.17" height="513.49"/></flowRegion><flowPara/></flowRoot>
           <g transform="translate(-66.134 .039287)">
            <g transform="translate(-66.173 .043409)">
             <flowRoot transform="matrix(.26458 0 0 .26458 1168.8 -317.87)" fill="#000000" font-family="sans-serif" font-size="40px" letter-spacing="0px" word-spacing="0px" style="line-height:1.25" xml:space="preserve"><flowRegion><rect x="-114.63" y="-91.434" width="675.23" height="522.91"/></flowRegion><flowPara/></flowRoot>
             <g transform="translate(-66.2 -.040316)">
              <g transform="translate(-65.918 -.60254)">
               <g transform="translate(-66.6 .14883)">
                <flowRoot fill="black" font-family="sans-serif" font-size="40px" letter-spacing="0px" word-spacing="0px" style="line-height:1.25" xml:space="preserve"><flowRegion><rect x="-24.34" y="-19.695" width="252.04" height="245.75"/></flowRegion><flowPara/></flowRoot>
                <g transform="translate(-68.678 -.48293)">
                 <flowRoot fill="black" font-family="sans-serif" font-size="40px" letter-spacing="0px" word-spacing="0px" style="line-height:1.25" xml:space="preserve"><flowRegion><rect x="-65.168" y="-26.762" width="382.37" height="335.26"/></flowRegion><flowPara/></flowRoot>
                 <g transform="translate(-63.347 .4912)">
                  <g transform="translate(529.82 -.18087)">
                   <g transform="translate(794.67 .06923)">
                    <g transform="translate(-198.36 .17569)">
                     <g transform="translate(-530.68 .043413)">
                      <g transform="translate(912.04 -.041317)">
                       <g transform="translate(132.58 -.39794)">
                        <g transform="translate(-580.62 .35866)">
                         <g transform="translate(-264.6 -.1571)">
                          <g transform="translate(463.55 .097138)">
                           <g transform="translate(-397.36 .059959)">
                            <g transform="translate(66.026 -.30592)">
                             <g transform="translate(-264.69 -.093008)">
                              <g transform="translate(734.89 179.33)">
                               <g transform="translate(-205.07 -178.97)">
                                <g transform="translate(-1081.1 -686.85)">
                                 <flowRoot fill="black" font-family="sans-serif" font-size="40px" letter-spacing="0px" word-spacing="0px" style="line-height:1.25" xml:space="preserve"><flowRegion><rect x="21" y="-71" width="223" height="308"/></flowRegion><flowPara/></flowRoot>
                                 <g transform="translate(-112.28 .55746)">
                                  <g transform="translate(-396.77 -.26462)">
                                   <g transform="translate(167.68 .26462)">
                                    <g transform="translate(457.35 -.55746)">
                                     <g transform="translate(452.66 .26458)">
                                      <g transform="translate(-200.71 456.02)">
                                       <g transform="translate(982.25 -278.99)">
                                        <rect x="39.753" y="192.33" width="52.632" height="52.632" fill="#87deaa" stroke="#000" stroke-linecap="round" stroke-width=".28429" style="paint-order:fill markers stroke"/>
                                        <text x="66.008461" y="233.9994" font-family="sans-serif" class="svgT" letter-spacing=".5px" font-size="5.2px" stroke-width=".26458" text-align="end" text-anchor="middle" word-spacing="0px" style="line-height:1.04999995" xml:space="preserve"><tspan x="66.876625" y="233.9994" text-align="center">Wyświetl panel </tspan><tspan x="66.008461" y="240.6669" text-align="center">stosowania stylów</tspan></text>
                                        <path d="m53.529 222.02h33.045l-7.9929-13.844h-33.018l7.9098 13.901" fill="none" stroke="#000" stroke-width=".26458px"/>
                                        <g transform="matrix(61.69 0 0 61.69 63.41 200.2)" clip-rule="evenodd" fill-rule="evenodd" image-rendering="optimizeQuality" shape-rendering="geometricPrecision">
                                         <path class="fil0" d="m.24559.23671c.01615-.047382-.0038032-.069662-.037839-.090072-.002484-.001488.007457.032855.004815.031414-.012756-.00698-.00027166-.034174-.064001-.060142-.001937-.00079135.003874.023426.002075.022622-.02876-.047323-.014622-.0043032-.055749-.049595-.0032402-.0018268.0043308.017048.0011181.015122-.011677-.021335-.024268-.019725-.054056-.05219-.0023347-.0022796.002689.020386.00024804.017969-.017918-.032115-.019248-.023882-.042201-.071836.0023937.097143.022701.096907.051662.12804.001374.002315-.023071-.01187-.021618-.009583.039122.061473.056792.040863.072009.056524.001591.001638-.029201-.003563-.027583-.001965.071981.07108.075639.034595.10557.049229.004417.002161-.017886.012099-.013512.013882.027406.011177.043394.01878.064564.011784.003831.003921-.009347.007146-.014516.013925.00152-.0003189.01591-.0015.015681-.001217-.001134.001417-.006004.01417-.006221.014528-.00018505.00029528.010102-.011095.011618-.011858.00021653-.00011024.003366.017173.003595.017059.00012204-5.906e-5.003004-.022469.004847-.020504.019583.020827.051194.054871.06252.060276-.006461-.023327-.03304-.050587-.049812-.067166-.001264-.001035.018784-.014776.019839-.01563-7.087e-5-5.906e-5-.017453.002732-.019051.002595-.0005197-.00037008.010591-.014307.010181-.013827-.002283.002681-.012591.005402-.013307.004374-.00029922-.001776-.00034647-.013772-.00041733-.013827-.00014174-.00011418-.007099.022776-.010457.020068zm-.019929-.002165c-.023792-.021059-.16556-.11804-.18883-.14997.035934.041068.14584.096726.20577.1576.017516.013811.037461.032434.046044.053324-.002658.001098-.050957-.050316-.062985-.060958z"/>
                                         <path class="fil1" d="m.30958.32232c-.072001-.0082009-.097178-.0081182-.16822-.043351-.070446-.034938-.096895-.047678-.10369-.033973-.0033504.006756.013744.020272.014532.0288.0021378.023343-.022276.023248-.035902.01989l-.0016536.006724c.021973.005417.046469-.005138.044445-.027237-.00069686-.007575-.017701-.020087-.015209-.025114.0050867-.010256.028949.004654.094415.037122.075796.037595.093891.040571.17128.037139z"/>
                                        </g>
                                       </g>
                                      </g>
                                     </g>
                                    </g>
                                   </g>
                                  </g>
                                 </g>
                                </g>
                               </g>
                              </g>
                             </g>
                            </g>
                           </g>
                          </g>
                         </g>
                        </g>
                       </g>
                      </g>
                     </g>
                    </g>
                   </g>
                  </g>
                 </g>
                </g>
               </g>
              </g>
             </g>
            </g>
           </g>
          </g>
         </g>
        </g>
       </g>
      </g>
     </g>
    </g>
   </g>
  </g>
 </g>
</svg>
