<svg id="SVGRoot" width="208" height="208" version="1.1" viewBox="0 0 208 208" xmlns="http://www.w3.org/2000/svg">
 <g transform="translate(0,7)">
  <g transform="matrix(3.7795 0 0 3.7795 10.171 -6.7758)">
   <g transform="translate(-1.0884 -121.69)">
    <g transform="translate(1.6608 -59.209)">
     <g transform="translate(-.6443 -59.335)">
      <g transform="translate(-1396.8 269.89)">
       <g transform="translate(-57.972 -.024822)">
        <g transform="translate(1658.1 73.867)">
         <g transform="translate(-203.03 -103.33)">
          <flowRoot transform="matrix(.26458 0 0 .26458 -2.875 1.091)" fill="#000000" font-family="sans-serif" font-size="40px" letter-spacing="0px" word-spacing="0px" style="line-height:1.25" xml:space="preserve"><flowRegion><rect x="-85.582" y="-60.812" width="342.33" height="293.65"/></flowRegion><flowPara/></flowRoot>
          <g transform="translate(-1039.4 318.88)">
           <flowRoot transform="matrix(.26458 0 0 .26458 1036.5 -317.79)" fill="#000000" font-family="sans-serif" font-size="40px" letter-spacing="0px" word-spacing="0px" style="line-height:1.25" xml:space="preserve"><flowRegion><rect x="-105.21" y="-13.703" width="562.17" height="513.49"/></flowRegion><flowPara/></flowRoot>
           <g transform="translate(-66.134 .039287)">
            <g transform="translate(-66.173 .043409)">
             <flowRoot transform="matrix(.26458 0 0 .26458 1168.8 -317.87)" fill="#000000" font-family="sans-serif" font-size="40px" letter-spacing="0px" word-spacing="0px" style="line-height:1.25" xml:space="preserve"><flowRegion><rect x="-114.63" y="-91.434" width="675.23" height="522.91"/></flowRegion><flowPara/></flowRoot>
             <g transform="translate(-66.2 -.040316)">
              <g transform="translate(-65.918 -.60254)">
               <g transform="translate(-66.6 .14883)">
                <flowRoot fill="black" font-family="sans-serif" font-size="40px" letter-spacing="0px" word-spacing="0px" style="line-height:1.25" xml:space="preserve"><flowRegion><rect x="-24.34" y="-19.695" width="252.04" height="245.75"/></flowRegion><flowPara/></flowRoot>
                <g transform="translate(-68.678 -.48293)">
                 <flowRoot fill="black" font-family="sans-serif" font-size="40px" letter-spacing="0px" word-spacing="0px" style="line-height:1.25" xml:space="preserve"><flowRegion><rect x="-65.168" y="-26.762" width="382.37" height="335.26"/></flowRegion><flowPara/></flowRoot>
                 <g transform="translate(-63.347 .4912)">
                  <g transform="translate(529.82 -.18087)">
                   <g transform="translate(794.67 .06923)">
                    <g transform="translate(-198.36 .17569)">
                     <g transform="translate(-530.68 .043413)">
                      <g transform="translate(912.04 -.041317)">
                       <g transform="translate(132.58 -.39794)">
                        <g transform="translate(-580.62 .35866)">
                         <g transform="translate(-264.6 -.1571)">
                          <g transform="translate(463.55 .097138)">
                           <g transform="translate(-397.36 .059959)">
                            <g transform="translate(66.026 -.30592)">
                             <g transform="translate(-264.69 -.093008)">
                              <g transform="translate(734.89 179.33)">
                               <g transform="translate(-205.07 -178.97)">
                                <g transform="translate(-1081.1 -686.85)">
                                 <flowRoot fill="black" font-family="sans-serif" font-size="40px" letter-spacing="0px" word-spacing="0px" style="line-height:1.25" xml:space="preserve"><flowRegion><rect x="21" y="-71" width="223" height="308"/></flowRegion><flowPara/></flowRoot>
                                 <g transform="translate(-112.28 .55746)">
                                  <g transform="translate(-396.77 -.26462)">
                                   <g transform="translate(167.68 .26462)">
                                    <g transform="translate(457.35 -.55746)">
                                     <g transform="translate(452.66 .26458)">
                                      <g transform="translate(-200.71 456.02)">
                                       <g transform="translate(982.25 -278.99)">
                                        <flowRoot fill="black" font-family="sans-serif" font-size="40px" letter-spacing="0px" word-spacing="0px" style="line-height:1.25" xml:space="preserve"><flowRegion><rect x="-78" y="-47" width="652" height="503"/></flowRegion><flowPara/></flowRoot>
                                        <g transform="translate(60.987 1.1523e-6)">
                                         <g transform="translate(57.841)">
                                          <g transform="translate(-236.4)">
                                           <g transform="translate(-57.885 .26458)">
                                            <rect x="214.93" y="192.33" width="52.632" height="52.632" fill="#87deaa" stroke="#000" stroke-linecap="round" stroke-width=".28429" style="paint-order:fill markers stroke"/>
                                            <text x="241.45518" y="229.57309" font-family="sans-serif" font-size="4.9389px" letter-spacing="0px" stroke-width=".26458" text-align="end" text-anchor="middle" word-spacing="0px" style="line-height:1.04999995" xml:space="preserve"><tspan x="241.45518" y="229.57309" text-align="center">Wyświetl panel</tspan><tspan x="241.45518" y="236.24059" text-align="center">formatowania</tspan><tspan x="241.45518" y="242.9081" text-align="center">kształtu</tspan></text>
                                            <g transform="matrix(.48346 0 0 .48346 225.77 193.44)">
                                             <rect x="13" y="38" width="2" height="2"/>
                                             <rect x="9" y="38" width="2" height="2"/>
                                             <rect x="5" y="38" width="2" height="2"/>
                                             <path d="m60.748 39.718c-1.124-.899-2.397-1.587-3.748-2.048v-1.67c0-1.654-1.346-3-3-3 0-1.103.897-2 2-2h3c2.206 0 4-1.794 4-4s-1.794-4-4-4h-10c-1.103 0-2-.897-2-2v-10c0-1.103.897-2 2-2h7c2.206 0 4-1.794 4-4s-1.794-4-4-4h-23c-2.206 0-4 1.794-4 4v.101c-2.279.465-4 2.485-4 4.899v4h-19c-2.757 0-5 2.243-5 5v20c0 2.757 2.243 5 5 5h10v4h-4v2h20v-2h-4v-4h10c2.757 0 5-2.243 5-5v-20c0-2.757-2.243-5-5-5h-3v-4c0-2.414-1.721-4.434-4-4.899v-.101c0-1.103.897-2 2-2h23c1.103 0 2 .897 2 2s-.897 2-2 2h-7c-2.206 0-4 1.794-4 4v10c0 2.206 1.794 4 4 4h10c1.103 0 2 .897 2 2s-.897 2-2 2h-3c-2.206 0-4 1.794-4 4-1.654 0-3 1.346-3 3v1.67c-1.351.461-2.624 1.149-3.748 2.048-1.431 1.145-2.252 2.852-2.252 4.685v5.11c0 6.105 3.892 11.505 9.684 13.436l.316.105.316-.105c5.792-1.931 9.684-7.33 9.684-13.436v-5.11c0-1.832-.821-3.54-2.252-4.685zm-28.616-12.718-2.132 3.197-2.132-3.197zm.868-2h-2v-12h2zm-4 0h-2v-12h2zm9 17h-18v2h6v4h-8v-6h-12c-1.654 0-3-1.346-3-3v-3h11.697l3 2h23.303v1c0 1.654-1.346 3-3 3zm0-26c1.654 0 3 1.346 3 3v17h-22.697l-3-2h-12.303v-15c0-1.654 1.346-3 3-3h19v10.303l5 7.5 5-7.5v-10.303zm-5-6v1h-6v-1c0-1.654 1.346-3 3-3s3 1.346 3 3zm28 34.403v.597h-5c0-1.103-.897-2-2-2v-3.947c2 .195 3.923.966 5.499 2.227.954.763 1.501 1.902 1.501 3.123zm-.279 7.678c-.438-.05-.894-.081-1.389-.081-2.387 0-3.644.58-4.753 1.092-1.057.487-1.969.908-3.916.908-1.946 0-2.857-.421-3.912-.908-.425-.196-.861-.397-1.369-.574-.247-.966-.382-1.973-.382-3.005v-2.513h5v2c0 1.103.897 2 2 2h2c1.103 0 2-.897 2-2v-2h5v2.513c0 .877-.1 1.735-.279 2.568zm-6.721-7.081.001 4h-2.001v-4zm-3-9c0-.551.449-1 1-1h2c.551 0 1 .449 1 1v1.167c-.659-.108-1.328-.167-2-.167s-1.341.059-2 .167zm-4.499 5.279c1.576-1.26 3.499-2.031 5.499-2.226v3.947c-1.103 0-2 .897-2 2h-5v-.597c0-1.221.547-2.36 1.501-3.124zm6.499 19.662c-2.927-1.065-5.255-3.177-6.629-5.825 1.009.449 2.227.884 4.292.884 2.387 0 3.644-.58 4.753-1.092 1.056-.487 1.968-.908 3.916-.908.283 0 .541.017.798.035-1.262 3.152-3.813 5.699-7.13 6.906z"/>
                                             <path d="m19.792 22.601c.138-.919-.157-1.866-.842-2.551s-1.628-.98-2.55-.842c-.553-.748-1.431-1.208-2.4-1.208s-1.847.46-2.399 1.208c-.918-.138-1.865.157-2.55.842s-.98 1.631-.842 2.551c-.749.552-1.209 1.43-1.209 2.399s.46 1.847 1.208 2.399c-.138.919.157 1.865.842 2.55.686.686 1.634.98 2.55.842.553.749 1.431 1.209 2.4 1.209s1.847-.46 2.399-1.208c.916.137 1.865-.157 2.55-.842s.98-1.631.842-2.55c.749-.553 1.209-1.431 1.209-2.4s-.46-1.847-1.208-2.399zm-1.498 3.345-1.148.356.559 1.064c.206.392.138.861-.169 1.169-.308.308-.776.375-1.168.169l-1.064-.561-.356 1.149c-.133.424-.513.708-.948.708s-.815-.284-.946-.707l-.356-1.149-1.064.561c-.391.205-.861.138-1.168-.169-.307-.308-.375-.777-.169-1.169l.559-1.064-1.148-.356c-.424-.132-.708-.512-.708-.947s.284-.815.707-.946l1.149-.357-.561-1.064c-.206-.392-.138-.861.169-1.168s.777-.376 1.169-.169l1.064.559.356-1.148c.132-.423.512-.707.947-.707s.815.284.946.706l.356 1.148 1.064-.559c.391-.208.861-.138 1.169.169.307.308.375.777.169 1.168l-.561 1.064 1.149.357c.424.132.708.512.708.947s-.284.815-.706.946z"/>
                                             <path d="m14 22c-1.654 0-3 1.346-3 3s1.346 3 3 3 3-1.346 3-3-1.346-3-3-3zm0 4c-.551 0-1-.449-1-1s.449-1 1-1 1 .449 1 1-.449 1-1 1z"/>
                                            </g>
                                           </g>
                                          </g>
                                         </g>
                                        </g>
                                       </g>
                                      </g>
                                     </g>
                                    </g>
                                   </g>
                                  </g>
                                 </g>
                                </g>
                               </g>
                              </g>
                             </g>
                            </g>
                           </g>
                          </g>
                         </g>
                        </g>
                       </g>
                      </g>
                     </g>
                    </g>
                   </g>
                  </g>
                 </g>
                </g>
               </g>
              </g>
             </g>
            </g>
           </g>
          </g>
         </g>
        </g>
       </g>
      </g>
     </g>
    </g>
   </g>
  </g>
 </g>
</svg>
