<svg id="SVGRoot" width="208" height="208" version="1.1" viewBox="0 0 208 208" xmlns="http://www.w3.org/2000/svg">
 <g transform="translate(0,7)">
  <g transform="matrix(3.7795 0 0 3.7795 10.171 -6.7758)">
   <g transform="translate(-1.0884 -121.69)">
    <g transform="translate(1.6608 -59.209)">
     <g transform="translate(-.6443 -59.335)">
      <g transform="translate(-1396.8 269.89)">
       <g transform="translate(-57.972 -.024822)">
        <g transform="translate(1658.1 73.867)">
         <g transform="translate(-203.03 -103.33)">
          <flowRoot transform="matrix(.26458 0 0 .26458 -2.875 1.091)" fill="#000000" font-family="sans-serif" font-size="40px" letter-spacing="0px" word-spacing="0px" style="line-height:1.25" xml:space="preserve"><flowRegion><rect x="-85.582" y="-60.812" width="342.33" height="293.65"/></flowRegion><flowPara/></flowRoot>
          <g transform="translate(-1039.4 318.88)">
           <flowRoot transform="matrix(.26458 0 0 .26458 1036.5 -317.79)" fill="#000000" font-family="sans-serif" font-size="40px" letter-spacing="0px" word-spacing="0px" style="line-height:1.25" xml:space="preserve"><flowRegion><rect x="-105.21" y="-13.703" width="562.17" height="513.49"/></flowRegion><flowPara/></flowRoot>
           <g transform="translate(-66.134 .039287)">
            <g transform="translate(-66.173 .043409)">
             <flowRoot transform="matrix(.26458 0 0 .26458 1168.8 -317.87)" fill="#000000" font-family="sans-serif" font-size="40px" letter-spacing="0px" word-spacing="0px" style="line-height:1.25" xml:space="preserve"><flowRegion><rect x="-114.63" y="-91.434" width="675.23" height="522.91"/></flowRegion><flowPara/></flowRoot>
             <g transform="translate(-66.2 -.040316)">
              <g transform="translate(-65.918 -.60254)">
               <g transform="translate(-66.6 .14883)">
                <flowRoot fill="black" font-family="sans-serif" font-size="40px" letter-spacing="0px" word-spacing="0px" style="line-height:1.25" xml:space="preserve"><flowRegion><rect x="-24.34" y="-19.695" width="252.04" height="245.75"/></flowRegion><flowPara/></flowRoot>
                <g transform="translate(-68.678 -.48293)">
                 <flowRoot fill="black" font-family="sans-serif" font-size="40px" letter-spacing="0px" word-spacing="0px" style="line-height:1.25" xml:space="preserve"><flowRegion><rect x="-65.168" y="-26.762" width="382.37" height="335.26"/></flowRegion><flowPara/></flowRoot>
                 <g transform="translate(-63.347 .4912)">
                  <g transform="translate(529.82 -.18087)">
                   <g transform="translate(794.67 .06923)">
                    <g transform="translate(-198.36 .17569)">
                     <g transform="translate(-530.68 .043413)">
                      <g transform="translate(912.04 -.041317)">
                       <g transform="translate(132.58 -.39794)">
                        <g transform="translate(-580.62 .35866)">
                         <g transform="translate(-264.6 -.1571)">
                          <g transform="translate(463.55 .097138)">
                           <g transform="translate(-397.36 .059959)">
                            <g transform="translate(66.026 -.30592)">
                             <g transform="translate(-264.69 -.093008)">
                              <g transform="translate(734.89 179.33)">
                               <g transform="translate(-205.07 -178.97)">
                                <g transform="translate(-1081.1 -686.85)">
                                 <flowRoot fill="black" font-family="sans-serif" font-size="40px" letter-spacing="0px" word-spacing="0px" style="line-height:1.25" xml:space="preserve"><flowRegion><rect x="21" y="-71" width="223" height="308"/></flowRegion><flowPara/></flowRoot>
                                 <g transform="translate(-112.28 .55746)">
                                  <g transform="translate(-396.77 -.26462)">
                                   <g transform="translate(167.68 .26462)">
                                    <g transform="translate(457.35 -.55746)">
                                     <g transform="translate(452.66 .26458)">
                                      <g transform="translate(-200.71 456.02)">
                                       <g transform="translate(982.25 -278.99)">
                                        <flowRoot fill="black" font-family="sans-serif" font-size="40px" letter-spacing="0px" word-spacing="0px" style="line-height:1.25" xml:space="preserve"><flowRegion><rect x="-78" y="-47" width="652" height="503"/></flowRegion><flowPara/></flowRoot>
                                        <g transform="translate(60.987 1.1523e-6)">
                                         <g transform="translate(57.841)">
                                          <g transform="translate(-236.4)">
                                           <rect x="157.57" y="192.33" width="52.632" height="52.632" fill="#87deaa" stroke="#000" stroke-linecap="round" stroke-width=".28429" style="paint-order:fill markers stroke"/>
                                           <text x="183.99501" y="229.42201" font-family="sans-serif" font-size="4.9389px" letter-spacing="0px" stroke-width=".26458" text-align="end" text-anchor="middle" word-spacing="0px" style="line-height:1.04999995" xml:space="preserve"><tspan x="183.99501" y="229.42201" text-align="center">Wyświetl okno</tspan><tspan x="183.99501" y="236.08951" text-align="center">podglądu</tspan><tspan x="183.99501" y="242.75702" text-align="center">grafiki</tspan></text>
                                           <g transform="matrix(.58923 0 0 .58923 168.57 193.7)">
                                            <path d="m49 41.5h-46c-.27637 0-.5-.22363-.5-.5v-38c0-.27637.22363-.5.5-.5h46c.27637 0 .5.22363.5.5v38c0 .27637-.22363.5-.5.5zm-45.5-1h45v-37h-45z"/>
                                            <path d="m49 49.5h-46c-.27637 0-.5-.22363-.5-.5v-8c0-.27637.22363-.5.5-.5h46c.27637 0 .5.22363.5.5v8c0 .27637-.22363.5-.5.5zm-45.5-1h45v-7h-45z"/>
                                            <path d="m47.195 41.5h-42.391c-.16797 0-.32422-.08398-.41699-.22363-.092773-.14062-.1084-.31738-.042969-.47168l9.5977-22.599c.07617-.18066.25098-.29883.44629-.30469.17871-.01855.37598.10352.46289.28027l6.5508 13.376 3.7061-7.5674c.16797-.34375.73047-.34375.89844 0l4.1484 8.4707 6.9932-14.279c.08594-.17676.25195-.29785.46289-.28027.19531.0059.37012.12402.44629.30469l9.5977 22.599c.06543.1543.0498.33106-.04297.47168-.092773.13965-.24902.22363-.41699.22363zm-41.635-1h40.879l-8.874-20.896-6.9609 14.213c-.16797.34375-.73047.34375-.89844 0l-4.1484-8.4707-3.7061 7.5674c-.16797.34375-.73047.34375-.89844 0l-6.5186-13.31z"/>
                                            <path d="m25.101 18.396c-2.4814 0-4.5-2.0186-4.5-4.5s2.0186-4.5 4.5-4.5 4.5 2.0186 4.5 4.5-2.0186 4.5-4.5 4.5zm0-8c-1.9297 0-3.5 1.5703-3.5 3.5 0 1.9297 1.5703 3.5 3.5 3.5 1.9297 0 3.5-1.5703 3.5-3.5 0-1.9297-1.5703-3.5-3.5-3.5z"/>
                                            <rect x="19" y="44.5" width="2" height="1"/>
                                            <rect x="23" y="44.5" width="2" height="1"/>
                                            <rect x="27" y="44.5" width="2" height="1"/>
                                            <rect x="31" y="44.5" width="2" height="1"/>
                                           </g>
                                          </g>
                                         </g>
                                        </g>
                                       </g>
                                      </g>
                                     </g>
                                    </g>
                                   </g>
                                  </g>
                                 </g>
                                </g>
                               </g>
                              </g>
                             </g>
                            </g>
                           </g>
                          </g>
                         </g>
                        </g>
                       </g>
                      </g>
                     </g>
                    </g>
                   </g>
                  </g>
                 </g>
                </g>
               </g>
              </g>
             </g>
            </g>
           </g>
          </g>
         </g>
        </g>
       </g>
      </g>
     </g>
    </g>
   </g>
  </g>
 </g>
</svg>
