<?xml version="1.0" encoding="UTF-8" standalone="no"?>
<svg
   xmlns:dc="http://purl.org/dc/elements/1.1/"
   xmlns:cc="http://creativecommons.org/ns#"
   xmlns:rdf="http://www.w3.org/1999/02/22-rdf-syntax-ns#"
   xmlns:svg="http://www.w3.org/2000/svg"
   xmlns="http://www.w3.org/2000/svg"
   id="svg47"
   version="1.1"
   viewBox="0 0 52.758294 52.758296"
   height="199.40143"
   width="199.40143">
  <defs
     id="defs42">
    <pattern
       id="EMFhbasepattern"
       patternUnits="userSpaceOnUse"
       width="6"
       height="6"
       x="0"
       y="0" />
  </defs>
  <metadata
     id="metadata45">
    <rdf:RDF>
      <cc:Work
         rdf:about="">
        <dc:format>image/svg+xml</dc:format>
        <dc:type
           rdf:resource="http://purl.org/dc/dcmitype/StillImage" />
        <dc:title></dc:title>
      </cc:Work>
    </rdf:RDF>
  </metadata>
  <g
     id="g8556"
     transform="translate(49.836509,-375.23204)">
    <g
       id="g5305">
      <g
         id="g9657"
         transform="translate(-983.54156,6.0854208)">
        <rect
           height="52.258293"
           y="369.54422"
           x="934.05316"
           width="52.258293"
           id="rect833-1-5-3-7-4-8-5-1-4-2-8-1-5-8-6-0-5"
           style="fill:#ffffff;stroke:#000000;stroke-width:0.49999899;stroke-linecap:round;stroke-miterlimit:4;stroke-dasharray:none;stroke-opacity:1;paint-order:fill markers stroke" />
        <text
           id="text898-7-3-6-8-3-3-0-66-7-8-8-0-8-3-4-2-6"
           y="413.1864"
           x="960.53546"
           style="font-size:6.3499999px;line-height:0.94999999;font-family:voestalpine;-inkscape-font-specification:voestalpine;text-align:center;letter-spacing:0px;word-spacing:0px;text-anchor:middle;stroke-width:0.26458299"
           xml:space="preserve"><tspan
             style="font-size:6.3499999px;text-align:center;text-anchor:middle;stroke-width:0.26458299"
             y="413.1864"
             x="960.53546"
             id="tspan1883-1-5-0">Zaakceptuj</tspan><tspan
             id="tspan2353"
             style="font-size:6.3499999px;text-align:center;text-anchor:middle;stroke-width:0.26458299"
             y="419.2189"
             x="960.53546">zmianę</tspan></text>
        <g
           transform="matrix(0.52809833,0,0,0.52809833,934.96052,361.95951)"
           id="g2372"
           style="fill:#000000">
          <g
             id="g2359">
            <path
               d="m 75.8,42.8 -5.4,-3.3 c -0.3,-0.2 -0.5,-0.6 -0.6,-1 l -0.1,-6 c 0,-1.3 -0.6,-2.5 -1.6,-3.3 -1,-0.8 -2.3,-1.2 -3.5,-1 l -6.2,0.9 C 58,29.2 57.6,29 57.4,28.7 l -4.1,-4.6 v 0 c -0.9,-1 -2.1,-1.5 -3.4,-1.5 -1.3,0 -2.5,0.5 -3.4,1.5 l -4.1,4.6 c -0.3,0.3 -0.7,0.4 -1,0.4 L 35.3,28 c -1.3,-0.2 -2.6,0.2 -3.5,1 -1,0.8 -1.6,2.1 -1.6,3.3 l -0.1,6 c 0,0.4 -0.2,0.8 -0.6,1 l -5.4,3.3 c -1.1,0.7 -1.9,1.8 -2.1,3.1 -0.2,1.3 0.2,2.6 1,3.6 l 3.8,4.6 c 0.3,0.3 0.3,0.7 0.2,1.1 l -2,6 c -0.4,1.2 -0.3,2.6 0.4,3.7 0.7,1.1 1.8,1.9 3.1,2.1 l 5.9,1 c 0.4,0.1 0.8,0.4 0.9,0.7 l 2.2,5.8 c 0.5,1.2 1.4,2.2 2.7,2.7 0.5,0.2 1,0.3 1.5,0.3 0.8,0 1.6,-0.2 2.2,-0.6 l 5.3,-3.1 c 0.4,-0.2 0.8,-0.2 1.2,0 l 5.3,3.1 c 1.1,0.7 2.5,0.8 3.8,0.3 1.2,-0.4 2.2,-1.4 2.7,-2.7 l 2.2,-5.8 c 0.1,-0.4 0.5,-0.7 0.9,-0.7 l 5.9,-1 c 1.3,-0.2 2.4,-1 3.1,-2.1 0.7,-1.1 0.8,-2.5 0.4,-3.7 l -2,-6 c -0.1,-0.4 -0.1,-0.8 0.2,-1.1 l 3.8,-4.6 c 0.8,-1 1.2,-2.3 1,-3.6 0,-1.1 -0.8,-2.2 -1.9,-2.9 z m -1.4,4.5 -3.9,4.7 c -1,1.2 -1.3,2.8 -0.8,4.3 l 2,6 c 0.2,0.4 0,0.8 -0.1,1 -0.1,0.2 -0.3,0.5 -0.8,0.6 l -5.9,1 c -1.6,0.3 -2.9,1.4 -3.4,2.8 l -2.2,5.8 c -0.2,0.4 -0.5,0.6 -0.7,0.7 -0.2,0.1 -0.6,0.1 -1,-0.1 L 52.3,71 c -1.4,-0.8 -3.1,-0.8 -4.5,0 l -5.3,3.1 c -0.4,0.2 -0.8,0.2 -1,0.1 C 41.3,74.1 41,74 40.8,73.5 L 38.6,67.7 C 38,66.2 36.7,65.1 35.2,64.8 l -5.9,-1 c -0.5,-0.1 -0.7,-0.4 -0.8,-0.6 -0.1,-0.2 -0.3,-0.5 -0.1,-1 l 2,-6 c 0.5,-1.5 0.2,-3.1 -0.8,-4.3 l -3.8,-4.6 c -0.3,-0.4 -0.3,-0.7 -0.3,-0.9 0,-0.2 0.1,-0.6 0.5,-0.8 l 5.4,-3.3 c 1.3,-0.8 2.1,-2.2 2.1,-3.7 l 0.1,-6 c 0,-0.5 0.3,-0.7 0.4,-0.9 0.1,-0.1 0.4,-0.3 0.8,-0.3 0.1,0 0.1,0 0.2,0 l 6.2,0.9 c 1.5,0.2 3,-0.3 4,-1.5 l 4.1,-4.6 c 0.3,-0.3 0.7,-0.4 0.9,-0.4 0.2,0 0.6,0.1 0.9,0.4 l 4.1,4.6 c 1,1.1 2.5,1.7 4,1.5 l 6.2,-0.9 c 0.5,-0.1 0.8,0.1 0.9,0.3 0.1,0.1 0.4,0.4 0.4,0.9 l 0.1,6 c 0,1.5 0.8,2.9 2.1,3.7 l 5.4,3.3 c 0.4,0.2 0.5,0.6 0.5,0.8 -0.2,0.2 -0.1,0.6 -0.4,0.9 z"
               id="path2355" />
            <path
               d="M 59,41.6 46,56.5 41,50.9 C 40.4,50.2 39.3,50.2 38.7,50.8 38,51.4 38,52.5 38.6,53.1 l 6.3,7 c 0.3,0.4 0.8,0.5 1.2,0.5 0,0 0,0 0,0 0.5,0 0.9,-0.2 1.2,-0.6 L 61.6,43.7 C 62.2,43 62.1,42 61.4,41.4 60.7,40.8 59.6,40.9 59,41.6 Z"
               id="path2357" />
          </g>
        </g>
      </g>
    </g>
  </g>
</svg>
