<svg id="SVGRoot" width="206px" height="206px" version="1.1" viewBox="0 0 206 206" xmlns="http://www.w3.org/2000/svg">
 <g transform="matrix(3.7795 0 0 3.7795 -5465.1 -1392.5)">
  <g transform="translate(513.15 -.21291)">
   <rect x="934.05" y="369.54" width="52.258" height="52.258" fill="#fff" stroke="#000" stroke-linecap="round" stroke-width=".5" style="paint-order:fill markers stroke"/>
   <text x="960.53546" y="411.86691" font-family="sans-serif" font-size="4.9389px" letter-spacing="0px" stroke-width=".26458" text-align="center" text-anchor="middle" word-spacing="0px" style="line-height:0.94999999" xml:space="preserve"><tspan x="960.53546" y="411.86691" text-align="center">Zaakceptuj</tspan><tspan x="960.53546" y="417.89941" text-align="center">zmianę</tspan></text>
   <g transform="matrix(.5281 0 0 .5281 934.96 361.96)">
    <path d="m75.8 42.8-5.4-3.3c-.3-.2-.5-.6-.6-1l-.1-6c0-1.3-.6-2.5-1.6-3.3s-2.3-1.2-3.5-1l-6.2.9c-.4.1-.8-.1-1-.4l-4.1-4.6c-.9-1-2.1-1.5-3.4-1.5s-2.5.5-3.4 1.5l-4.1 4.6c-.3.3-.7.4-1 .4l-6.1-1.1c-1.3-.2-2.6.2-3.5 1-1 .8-1.6 2.1-1.6 3.3l-.1 6c0 .4-.2.8-.6 1l-5.4 3.3c-1.1.7-1.9 1.8-2.1 3.1s.2 2.6 1 3.6l3.8 4.6c.3.3.3.7.2 1.1l-2 6c-.4 1.2-.3 2.6.4 3.7s1.8 1.9 3.1 2.1l5.9 1c.4.1.8.4.9.7l2.2 5.8c.5 1.2 1.4 2.2 2.7 2.7.5.2 1 .3 1.5.3.8 0 1.6-.2 2.2-.6l5.3-3.1c.4-.2.8-.2 1.2 0l5.3 3.1c1.1.7 2.5.8 3.8.3 1.2-.4 2.2-1.4 2.7-2.7l2.2-5.8c.1-.4.5-.7.9-.7l5.9-1c1.3-.2 2.4-1 3.1-2.1s.8-2.5.4-3.7l-2-6c-.1-.4-.1-.8.2-1.1l3.8-4.6c.8-1 1.2-2.3 1-3.6 0-1.1-.8-2.2-1.9-2.9zm-1.4 4.5-3.9 4.7c-1 1.2-1.3 2.8-.8 4.3l2 6c.2.4 0 .8-.1 1s-.3.5-.8.6l-5.9 1c-1.6.3-2.9 1.4-3.4 2.8l-2.2 5.8c-.2.4-.5.6-.7.7s-.6.1-1-.1l-5.3-3.1c-1.4-.8-3.1-.8-4.5 0l-5.3 3.1c-.4.2-.8.2-1 .1s-.5-.2-.7-.7l-2.2-5.8c-.6-1.5-1.9-2.6-3.4-2.9l-5.9-1c-.5-.1-.7-.4-.8-.6s-.3-.5-.1-1l2-6c.5-1.5.2-3.1-.8-4.3l-3.8-4.6c-.3-.4-.3-.7-.3-.9s.1-.6.5-.8l5.4-3.3c1.3-.8 2.1-2.2 2.1-3.7l.1-6c0-.5.3-.7.4-.9.1-.1.4-.3.8-.3h.2l6.2.9c1.5.2 3-.3 4-1.5l4.1-4.6c.3-.3.7-.4.9-.4s.6.1.9.4l4.1 4.6c1 1.1 2.5 1.7 4 1.5l6.2-.9c.5-.1.8.1.9.3.1.1.4.4.4.9l.1 6c0 1.5.8 2.9 2.1 3.7l5.4 3.3c.4.2.5.6.5.8-.2.2-.1.6-.4.9z"/>
    <path d="m59 41.6-13 14.9-5-5.6c-.6-.7-1.7-.7-2.3-.1-.7.6-.7 1.7-.1 2.3l6.3 7c.3.4.8.5 1.2.5.5 0 .9-.2 1.2-.6l14.3-16.3c.6-.7.5-1.7-.2-2.3s-1.8-.5-2.4.2z"/>
   </g>
  </g>
 </g>
</svg>
