<svg id="SVGRoot" width="206px" height="206px" version="1.1" viewBox="0 0 206 206" xmlns="http://www.w3.org/2000/svg">
 <defs>
  <marker id="Arrow1Mstart" overflow="visible" orient="auto">
   <path transform="matrix(.4 0 0 .4 4 0)" d="m0 0 5-5-17.5 5 17.5 5z" fill-rule="evenodd" stroke="#000" stroke-width="1pt"/>
  </marker>
  <marker id="Arrow2Mend" overflow="visible" orient="auto">
   <path transform="scale(-.6)" d="m8.7186 4.0337-10.926-4.0177 10.926-4.0177c-1.7455 2.3721-1.7354 5.6175-6e-7 8.0354z" fill-rule="evenodd" stroke="#000" stroke-linejoin="round" stroke-width=".625"/>
  </marker>
 </defs>
 <g transform="matrix(3.7795 0 0 3.7795 -800.74 332.7)">
  <rect x="213.23" y="-86.664" width="52.632" height="52.632" fill="#b9d4ff" stroke="#000" stroke-linecap="round" stroke-width=".28429" style="paint-order:fill markers stroke"/>
  <text x="239.71074" y="-44.497536" font-family="sans-serif" font-size="4.9389px" letter-spacing="0px" stroke-width=".26458" text-align="end" text-anchor="middle" word-spacing="0px" style="line-height:1.04999995" xml:space="preserve"><tspan x="239.71074" y="-44.497536" text-align="center">Zachowaj</tspan><tspan x="239.71074" y="-37.830036" text-align="center">wiersze razem</tspan></text>
  <g fill="none" stroke="#000">
   <path d="m218.16-77.056h32.884" stroke-width="1.765"/>
   <path d="m218.16-60.505h32.884" stroke-width="1.765"/>
   <path d="m253.78-77.228c1.9819.5339 3.7714 1.7561 4.9897 3.408 1.2184 1.6519 1.8575 3.7225 1.7823 5.7737-.067 1.8274-.69685 3.6302-1.7823 5.1019-1.0854 1.4716-2.6218 2.6058-4.3479 3.2096" marker-end="url(#Arrow2Mend)" marker-start="url(#Arrow1Mstart)" stroke-width=".729"/>
  </g>
 </g>
</svg>
