<svg id="SVGRoot" width="206px" height="206px" version="1.1" viewBox="0 0 206 206" xmlns="http://www.w3.org/2000/svg">
 <g transform="matrix(3.7795 0 0 3.7795 -5465.1 -1392.5)">
  <rect x="1446.9" y="369.44" width="52.258" height="52.258" fill="#fff" stroke="#000" stroke-linecap="round" stroke-width=".5" style="paint-order:fill markers stroke"/>
  <text x="1473.4171" y="406.84113" font-family="sans-serif" font-size="4.9389px" letter-spacing="0px" stroke-width=".26458" text-align="center" text-anchor="middle" word-spacing="0px" style="line-height:0.94999999" xml:space="preserve"><tspan x="1473.4171" y="406.84113" text-align="center">Zacznij dokument</tspan><tspan x="1473.4171" y="412.20334" text-align="center">od strony parzystej</tspan><tspan x="1473.4171" y="417.56555" text-align="center">lub nieparzystej</tspan></text>
  <path d="m1471 399.76v-20.432l-5.2999-4.7885h-12.018c-.4416 0-.8136.37192-.8136.81358v24.407c0 .44166.372.81358.8136.81358h16.504c.4417 0 .8136-.37192.8136-.81358zm-5.1139-23.803 3.5796 3.2311h-3.324c-.1395 0-.2556-.11622-.2556-.25569zm-12.088 23.687v-24.175h11.158v3.4635c0 .65086.5347 1.1855 1.1855 1.1855h3.9285v19.526z" stroke-width=".23245"/>
  <rect x="1457.5" y="379.73" width="10.856" height="16.962" fill="#fff" stroke="#000" stroke-linecap="round" stroke-width=".5" style="paint-order:fill markers stroke"/>
  <path d="m1493.1 399.88v-20.432l-5.2999-4.7885h-12.018c-.4416 0-.8136.37192-.8136.81358v24.407c0 .44166.372.81358.8136.81358h16.504c.4417 0 .8136-.37192.8136-.81358zm-5.1139-23.803 3.5796 3.2311h-3.324c-.1395 0-.2556-.11622-.2556-.25569zm-12.088 23.687v-24.175h11.158v3.4635c0 .65086.5347 1.1855 1.1855 1.1855h3.9285v19.526z" stroke-width=".23245"/>
  <rect x="1477.9" y="379.84" width="10.856" height="16.962" fill="#fff" stroke="#000" stroke-linecap="round" stroke-width=".5" style="paint-order:fill markers stroke"/>
 </g>
</svg>
