<?xml version="1.0" encoding="UTF-8" standalone="no"?>
<svg
   xmlns:dc="http://purl.org/dc/elements/1.1/"
   xmlns:cc="http://creativecommons.org/ns#"
   xmlns:rdf="http://www.w3.org/1999/02/22-rdf-syntax-ns#"
   xmlns:svg="http://www.w3.org/2000/svg"
   xmlns="http://www.w3.org/2000/svg"
   id="svg47"
   version="1.1"
   viewBox="0 0 52.758294 52.758296"
   height="199.40143"
   width="199.40143">
  <defs
     id="defs42">
    <pattern
       id="EMFhbasepattern"
       patternUnits="userSpaceOnUse"
       width="6"
       height="6"
       x="0"
       y="0" />
  </defs>
  <metadata
     id="metadata45">
    <rdf:RDF>
      <cc:Work
         rdf:about="">
        <dc:format>image/svg+xml</dc:format>
        <dc:type
           rdf:resource="http://purl.org/dc/dcmitype/StillImage" />
        <dc:title></dc:title>
      </cc:Work>
    </rdf:RDF>
  </metadata>
  <g
     id="g8556"
     transform="translate(49.836509,-375.23204)">
    <g
       id="g5305">
      <g
         id="g10156"
         transform="translate(-1496.3668,6.0854209)">
        <rect
           height="52.258293"
           y="369.54422"
           x="1446.9348"
           width="52.258293"
           id="rect833-1-5-3-7-4-8-5-1-4-2-8-1-5-8-6-0-5-58-6"
           style="fill:#ffffff;stroke:#000000;stroke-width:0.49999899;stroke-linecap:round;stroke-miterlimit:4;stroke-dasharray:none;stroke-opacity:1;paint-order:fill markers stroke" />
        <text
           id="text898-7-3-6-8-3-3-0-66-7-8-8-0-8-3-4-2-6-22-0"
           y="409.28516"
           x="1473.4171"
           style="font-size:5.64444017px;line-height:0.94999999;font-family:voestalpine;-inkscape-font-specification:voestalpine;text-align:center;letter-spacing:0px;word-spacing:0px;text-anchor:middle;stroke-width:0.26458299"
           xml:space="preserve"><tspan
             style="font-size:5.64444017px;text-align:center;text-anchor:middle;stroke-width:0.26458299"
             y="409.28516"
             x="1473.4171"
             id="tspan2732-2">Zacznij dokument</tspan><tspan
             id="tspan3016"
             style="font-size:5.64444017px;text-align:center;text-anchor:middle;stroke-width:0.26458299"
             y="414.64737"
             x="1473.4171">od strony parzystej</tspan><tspan
             id="tspan3020"
             style="font-size:5.64444017px;text-align:center;text-anchor:middle;stroke-width:0.26458299"
             y="420.00958"
             x="1473.4171">lub nieparzystej</tspan></text>
        <path
           style="fill:#000000;stroke-width:0.23245201"
           d="m 1470.993,399.86655 v -20.43247 l -5.2999,-4.7885 h -12.0178 c -0.4416,0 -0.8136,0.37192 -0.8136,0.81358 v 24.40739 c 0,0.44166 0.372,0.81358 0.8136,0.81358 h 16.5041 c 0.4417,0 0.8136,-0.37192 0.8136,-0.81358 z m -5.1139,-23.80302 3.5796,3.23107 h -3.324 c -0.1395,0 -0.2556,-0.11622 -0.2556,-0.25569 z m -12.0875,23.6868 v -24.17495 h 11.1576 v 3.46353 c 0,0.65086 0.5347,1.18551 1.1855,1.18551 h 3.9285 v 19.52591 z"
           id="path1977-5" />
        <rect
           y="379.83432"
           x="1457.5237"
           height="16.96184"
           width="10.855577"
           id="rect3069"
           style="fill:#ffffff;stroke:#000000;stroke-width:0.5;stroke-linecap:round;stroke-miterlimit:4;stroke-dasharray:none;stroke-dashoffset:0;stroke-opacity:1;paint-order:fill markers stroke" />
        <path
           id="path1977-5-9"
           d="M 1493.1133,399.98277 V 379.5503 l -5.2999,-4.7885 h -12.0178 c -0.4416,0 -0.8136,0.37192 -0.8136,0.81358 v 24.40739 c 0,0.44166 0.372,0.81358 0.8136,0.81358 h 16.5041 c 0.4417,0 0.8136,-0.37192 0.8136,-0.81358 z m -5.1139,-23.80302 3.5796,3.23107 h -3.324 c -0.1395,0 -0.2556,-0.11622 -0.2556,-0.25569 z m -12.0875,23.6868 V 375.6916 h 11.1576 v 3.46353 c 0,0.65086 0.5347,1.18551 1.1855,1.18551 h 3.9285 v 19.52591 z"
           style="fill:#000000;stroke-width:0.23245201" />
        <rect
           style="fill:#ffffff;stroke:#000000;stroke-width:0.49999899;stroke-linecap:round;stroke-miterlimit:4;stroke-dasharray:none;stroke-dashoffset:0;stroke-opacity:1;paint-order:fill markers stroke"
           id="rect3069-5"
           width="10.855577"
           height="16.96184"
           x="1477.9479"
           y="379.95053" />
      </g>
    </g>
  </g>
</svg>
