<svg id="SVGRoot" width="206px" height="206px" version="1.1" viewBox="0 0 206 206" xmlns="http://www.w3.org/2000/svg">
 <g transform="matrix(3.7795 0 0 3.7795 -1795.2 2502.6)">
  <flowRoot fill="black" font-family="sans-serif" font-size="40px" letter-spacing="0px" word-spacing="0px" style="line-height:1.25" xml:space="preserve"><flowRegion><rect x="-392.69" y="-63.57" width="758.02" height="397.52"/></flowRegion><flowPara/></flowRoot>
  <flowRoot fill="black" font-family="sans-serif" font-size="40px" letter-spacing="0px" word-spacing="0px" style="line-height:1.25" xml:space="preserve"><flowRegion><rect x="-251.87" y="-84.492" width="624.44" height="455.45"/></flowRegion><flowPara/></flowRoot>
  <flowRoot fill="black" font-family="sans-serif" font-size="40px" letter-spacing="0px" word-spacing="0px" style="line-height:1.25" xml:space="preserve"><flowRegion><rect x="-202.78" y="-50.695" width="473.96" height="281.64"/></flowRegion><flowPara/></flowRoot>
  <flowRoot fill="black" font-family="sans-serif" font-size="40px" letter-spacing="0px" word-spacing="0px" style="line-height:1.25" xml:space="preserve"><flowRegion><rect x="-86.906" y="-78.859" width="516.61" height="410.39"/></flowRegion><flowPara/></flowRoot>
  <flowRoot fill="black" font-family="sans-serif" font-size="40px" letter-spacing="0px" word-spacing="0px" style="line-height:1.25" xml:space="preserve"><flowRegion><rect x="-81.273" y="-32.188" width="309" height="322.68"/></flowRegion><flowPara/></flowRoot>
  <flowRoot fill="black" font-family="sans-serif" font-size="40px" letter-spacing="0px" word-spacing="0px" style="line-height:1.25" xml:space="preserve"><flowRegion><rect x="-90.93" y="-68.398" width="392.69" height="252.67"/></flowRegion><flowPara/></flowRoot>
  <g transform="translate(675.17 -.21291)">
   <flowRoot fill="black" font-family="sans-serif" font-size="40px" letter-spacing="0px" word-spacing="0px" style="line-height:1.25" xml:space="preserve"><flowRegion><rect x="-100.59" y="-53.109" width="462.7" height="369.35"/></flowRegion><flowPara/></flowRoot>
   <g transform="translate(57.194 .21291)">
    <flowRoot fill="black" font-family="sans-serif" font-size="40px" letter-spacing="0px" word-spacing="0px" style="line-height:1.25" xml:space="preserve"><flowRegion><rect x="-329.12" y="-12.07" width="696.05" height="259.91"/></flowRegion><flowPara/></flowRoot>
    <g transform="translate(-1495.1 -629.38)">
     <g transform="translate(-693.42 2.9187e-6)">
      <rect x="1932.3" y="-31.75" width="52.951" height="52.917" fill="#db3b3b" stroke="#000" stroke-linecap="round" stroke-width=".50016" style="paint-order:fill markers stroke"/>
      <text transform="scale(1.0003 .99968)" x="1958.1321" y="16.526241" fill="#ffffff" font-family="voestalpine" font-size="6.352px" letter-spacing="0px" stroke-width=".26467" word-spacing="0px" style="line-height:1.25" xml:space="preserve"><tspan x="1958.1321" y="16.526241" fill="#ffffff" font-family="sans-serif" class="svgT" letter-spacing=".5px" font-size="5.2px" stroke-width=".26467" text-align="center" text-anchor="middle">Zakres dostawy</tspan></text>
      <g transform="matrix(.38275 0 0 .38275 1939.6 -31.484)" fill="#fff">
       <g fill="#fff">
        <path d="m95.8 28.5-29.1-9.5c-.5-.2-1-.2-1.6 0l-29.1 9.5c-1 .3-1.7 1.3-1.7 2.4v38.2c0 1.1.7 2 1.7 2.4l29.1 9.5c.3.1.5.1.8.1s.5 0 .8-.1l29.1-9.6c1-.3 1.7-1.3 1.7-2.4v-38.1c0-1.1-.7-2-1.7-2.4zm-32.4 46.7-24.1-7.9v-33l9.6 3.1v18.7c0 1.4 1.1 2.5 2.5 2.5s2.5-1.1 2.5-2.5v-17l9.6 3.1v33zm2.5-37.4-6.8-2.2 4.8-1.7c1.3-.5 2-1.9 1.5-3.2s-1.9-1.9-3.2-1.5l-10.7 3.9-6.7-2.2 21.1-6.9 21.1 6.9zm26.6 29.5-9.6 3.1v-10.8c0-1.4-1.1-2.5-2.5-2.5s-2.4 1.1-2.4 2.5v12.5l-9.6 3.1v-33l24.1-7.9z"/>
        <path d="m22.7 33.6h-17.7c-1.4 0-2.5 1.1-2.5 2.5s1.1 2.5 2.5 2.5h17.7c1.4 0 2.5-1.1 2.5-2.5-.1-1.4-1.2-2.5-2.5-2.5z"/>
        <path d="m22.7 47.5h-17.7c-1.4 0-2.5 1.1-2.5 2.5s1.1 2.5 2.5 2.5h17.7c1.4 0 2.5-1.1 2.5-2.5s-1.2-2.5-2.5-2.5z"/>
        <path d="m22.7 61.4h-17.7c-1.4 0-2.5 1.1-2.5 2.5s1.1 2.5 2.5 2.5h17.7c1.4 0 2.5-1.1 2.5-2.5s-1.2-2.5-2.5-2.5z"/>
       </g>
      </g>
     </g>
    </g>
   </g>
  </g>
 </g>
</svg>
