<svg id="SVGRoot" width="206px" height="206px" version="1.1" viewBox="0 0 206 206" xmlns="http://www.w3.org/2000/svg">
 <g transform="matrix(3.7795 0 0 3.7795 -1795.2 2502.6)">
  <flowRoot fill="black" font-family="sans-serif" font-size="40px" letter-spacing="0px" word-spacing="0px" style="line-height:1.25" xml:space="preserve"><flowRegion><rect x="-392.69" y="-63.57" width="758.02" height="397.52"/></flowRegion><flowPara/></flowRoot>
  <flowRoot fill="black" font-family="sans-serif" font-size="40px" letter-spacing="0px" word-spacing="0px" style="line-height:1.25" xml:space="preserve"><flowRegion><rect x="-251.87" y="-84.492" width="624.44" height="455.45"/></flowRegion><flowPara/></flowRoot>
  <flowRoot fill="black" font-family="sans-serif" font-size="40px" letter-spacing="0px" word-spacing="0px" style="line-height:1.25" xml:space="preserve"><flowRegion><rect x="-202.78" y="-50.695" width="473.96" height="281.64"/></flowRegion><flowPara/></flowRoot>
  <flowRoot fill="black" font-family="sans-serif" font-size="40px" letter-spacing="0px" word-spacing="0px" style="line-height:1.25" xml:space="preserve"><flowRegion><rect x="-86.906" y="-78.859" width="516.61" height="410.39"/></flowRegion><flowPara/></flowRoot>
  <g transform="translate(222.04 -.21291)">
   <rect x="254.2" y="-660.87" width="52.396" height="52.396" fill="#db3b3b" stroke="#000" stroke-linecap="round" stroke-width=".52068" style="paint-order:fill markers stroke"/>
   <text x="280.47281" y="-611.73071" font-family="sans-serif" font-size="6.35px" letter-spacing="0px" stroke-width=".26458" text-align="center" text-anchor="middle" word-spacing="0px" style="line-height:1.25" xml:space="preserve"><tspan x="280.47281" y="-611.73071" fill="#ffffff" font-family="sans-serif" font-size="4.9389px" stroke-width=".26458" text-align="center" text-anchor="middle">Zastrzeżenie</tspan></text>
   <g transform="matrix(.45803 0 0 .45803 266.07 -655.51)" fill="#fff">
    <path d="m59.4 47.05-21.39-37.04a6.891 6.891 0 00-6.354-3.461c-.116 0-.232.014-.347.024a6.862 6.862 0 00-5.319 3.437l-21.385 37.04a6.94 6.94 0 006.01 10.41h42.77a6.925 6.925 0 006.015-10.41zm-2.6 5.44a3.9 3.9 0 01-3.412 1.97h-42.773a3.9 3.9 0 01-3.415-1.97 3.9 3.9 0 010-3.94l21.388-37.04a3.94 3.94 0 016.824 0l21.388 37.04a3.9 3.9 0 010 3.94zm-21.229-26.216c-.053 3.692-1.57 9.687-2.61 13.382a1 1 0 01-1.923 0c-1.059-3.762-2.611-9.9-2.611-13.577a3.575 3.575 0 014.135-3.53 3.662 3.662 0 013.009 3.725zm-1.2 18.847a2.376 2.376 0 11-2.371-2.376 2.376 2.376 0 012.376 2.376z" fill="#fff"/>
   </g>
  </g>
 </g>
</svg>
