<svg id="SVGRoot" width="206px" height="206px" version="1.1" viewBox="0 0 206 206" xmlns="http://www.w3.org/2000/svg">
 <g transform="matrix(3.7795 0 0 3.7795 -3421.1 332.7)">
  <rect x="906.3" y="-86.664" width="52.632" height="52.632" fill="#b9d4ff" stroke="#000" stroke-linecap="round" stroke-width=".28429" style="paint-order:fill markers stroke"/>
  <text x="932.83087" y="-45.41634" font-family="sans-serif" font-size="4.9389px" letter-spacing="0px" stroke-width=".26458" text-align="end" text-anchor="middle" word-spacing="0px" style="line-height:1.04999995" xml:space="preserve"><tspan x="932.83087" y="-45.41634" text-align="center">Zastosuj styl</tspan><tspan x="932.83087" y="-38.74884" text-align="center">ponownie</tspan></text>
  <g transform="matrix(.39449 0 0 .39449 912.89 -86.872)" clip-rule="evenodd" fill-rule="evenodd" stroke-linejoin="round" stroke-miterlimit="1.4142">
   <path d="m32.889 56.474c7.805 1.377 15.345 2.479 20.487 6.281 1.329.982 2.329 2.081 3.111 3.581.205.392.364 1.08.704 1.467.727.825 2.804.991 4.345 1.174 9.065 1.075 18.511-.676 24.067-4.227.821 5.064-1.723 8.659-4.226 11.036-5.329 5.058-14.35 6.525-24.244 6.986-.907.042-1.886-.101-2.759.058-.727.133-1.502.532-2.172.822-2.088.905-4.223 1.75-7.162 1.82-3.86.093-7.367-.431-10.977-.939-3.329-.469-6.615-1.382-9.862-2.113-3.242-.731-6.449-1.508-9.568-2.348-.336-2.738 1.274-4.266 3.816-4.286 1.828-.013 4.281.731 6.456 1.233.95.219 1.944.486 3.053.764 1.04.259 3.624 1.357 3.698-.236.048-1.017-1.45-1.215-2.524-1.467-1.209-.283-2.249-.519-3.229-.764-1.925-.48-4.453-1.25-6.515-1.408-1.745-.134-3.005.158-3.933.645-.576.303-1.183 1.222-1.702 1.291-.359.048-1.65-.401-2.114-.528-.729-.199-1.431-.388-1.937-.645-.42-2.746 1.272-4.559 4.109-4.344 1.476.111 3.045.6 4.638.94 3.789.806 7.604 1.621 11.564 2.406 1.216.241 2.935.828 2.935-.587 0-.898-1.152-1.014-2.172-1.233-4.693-1.006-9.25-1.871-13.971-2.876-1.852-.394-4.008-.874-5.753-.177-.62.249-1.076.783-1.702.823-.573-1.586.734-2.723 1.82-3.229 4.774 1.085 11.776 1.201 17.199 2.289.746.15 1.687.396 2.642.588 1.096.219 3.276.984 3.346-.471.071-1.501-2.237-1.032-3.112-1.467-.193-1.078-.373-2.169-.528-3.287 3.063.648 6.518 1.354 9.92 2.055 1.179.242 3.9 1.355 3.816-.411-.044-.926-1.245-.957-2.289-1.175-2.085-.433-3.523-.793-5.635-1.232-.914-.19-2.169-.257-2.818-.587-.998-.506-1.901-3.315-1.526-4.813.145-.584.391-1.01.704-1.409zm-13.149-12.269c.615-2.809 1.704-5.145 3.052-7.22 1.937 4.306 2.875 9.305 3.933 14.381 1.054 5.054 2.016 10.311 2.818 15.498-6.922-.644-15.478-1.506-21.566-3.122 1.014-4.471 1.933-6.434 4.19-9.206-1.626-2.84-3.629-6.786-3.639-11.27-.003-1.492.205-3.301.763-4.638.42-1.007 1.262-1.973 1.996-2.759.761-.816 1.667-1.546 2.583-2.172.014-.064.117-.04.117-.117 1.285 4.174 3.31 7.608 5.753 10.625zm-8.277-10.684c2.049-4.292 3.335-9.85 6.633-12.914 3.376-3.136 7.921-4.96 13.678-5.753 6.031-.83 12.412-.085 17.727 1.057 5.435 1.167 10.135 2.861 14.558 4.873 8.623 3.918 16.659 9.685 22.131 16.788 2.64 3.426 5.62 7.916 5.87 13.618.143 3.236-.772 5.494-1.82 7.926-.96 2.227-1.833 4.399-2.876 6.808-1.017-8.717-5.534-14.397-10.566-19.43-4.906-4.905-11.258-9.017-17.846-12.092-6.592-3.077-14.418-5.78-23.422-6.516-9.902-.81-18.706 1.062-24.008 5.577.031.122-.229.124-.059.058z"/>
  </g>
 </g>
</svg>
