<?xml version="1.0" encoding="UTF-8" standalone="no"?>
<svg
   xmlns:dc="http://purl.org/dc/elements/1.1/"
   xmlns:cc="http://creativecommons.org/ns#"
   xmlns:rdf="http://www.w3.org/1999/02/22-rdf-syntax-ns#"
   xmlns:svg="http://www.w3.org/2000/svg"
   xmlns="http://www.w3.org/2000/svg"
   id="svg47"
   version="1.1"
   viewBox="0 0 52.758294 52.758296"
   height="199.40143"
   width="199.40143">
  <defs
     id="defs42">
    <pattern
       id="EMFhbasepattern"
       patternUnits="userSpaceOnUse"
       width="6"
       height="6"
       x="0"
       y="0" />
  </defs>
  <metadata
     id="metadata45">
    <rdf:RDF>
      <cc:Work
         rdf:about="">
        <dc:format>image/svg+xml</dc:format>
        <dc:type
           rdf:resource="http://purl.org/dc/dcmitype/StillImage" />
        <dc:title></dc:title>
      </cc:Work>
    </rdf:RDF>
  </metadata>
  <g
     id="g8556"
     transform="translate(49.836509,-375.23204)">
    <g
       id="g5305">
      <g
         id="g8963"
         transform="translate(-287.54664,-53.261591)">
        <rect
           height="52.258293"
           y="428.75894"
           x="237.92595"
           width="52.258293"
           id="rect833-1-5-3-7-4-8-5-1-4-7-3"
           style="fill:#c4c4c4;fill-opacity:1;stroke:#000000;stroke-width:0.49999899;stroke-linecap:round;stroke-miterlimit:4;stroke-dasharray:none;stroke-opacity:1;paint-order:fill markers stroke" />
        <text
           id="text898-7-3-6-8-3-3-0-66-7-5-1"
           y="472.34085"
           x="264.25616"
           style="font-size:6.3499999px;line-height:0.94999999;font-family:voestalpine;-inkscape-font-specification:voestalpine;text-align:center;letter-spacing:0px;word-spacing:0px;text-anchor:middle;fill:#ffffff;fill-opacity:1;stroke:none;stroke-width:0.26458299;stroke-opacity:1"
           xml:space="preserve"><tspan
             id="tspan1937-5-3-5"
             style="font-size:6.3499999px;text-align:center;text-anchor:middle;fill:#ffffff;fill-opacity:1;stroke:none;stroke-width:0.26458299;stroke-opacity:1"
             y="472.34085"
             x="264.25616">Zaznacz całą</tspan><tspan
             style="font-size:6.3499999px;text-align:center;text-anchor:middle;fill:#ffffff;fill-opacity:1;stroke:none;stroke-width:0.26458299;stroke-opacity:1"
             y="478.37335"
             x="264.25616"
             id="tspan1296-1">tabelę</tspan></text>
        <rect
           y="435.43173"
           x="247.49596"
           height="24.074017"
           width="33.118282"
           id="rect880-2-7-2-1-3-8-3-3-9-4-4"
           style="fill:none;stroke:#ffffff;stroke-width:0.34300101;stroke-linecap:round;stroke-miterlimit:4;stroke-dasharray:1.029, 1.029;stroke-dashoffset:0;stroke-opacity:1;paint-order:fill markers stroke" />
        <path
           style="fill:#ffffff;fill-opacity:1;stroke-width:0.342926"
           id="path1492-9-6-4-6-8-0"
           d="m 278.51996,436.64389 h -6.55607 -0.6056 -6.95866 -0.60561 -6.959 -0.60561 -6.55573 c -0.5569,0 -1.00854,0.45163 -1.00854,1.00854 v 4.27114 0.60562 4.67408 0.6056 4.67444 0.60526 4.27115 c 0,0.55725 0.45164,1.00854 1.00854,1.00854 h 6.55607 0.60561 6.95899 0.60561 6.95901 0.60561 6.55572 c 0.55691,0 1.00854,-0.45129 1.00854,-1.00854 v -4.27149 -0.60527 -4.67409 -0.6056 -4.67408 -0.60562 -4.27114 c -2.6e-4,-0.55691 -0.45198,-1.00854 -1.00888,-1.00854 z m -14.72594,5.8853 v 4.67408 h -6.959 v -4.67408 z m -6.959,-0.60562 v -4.67408 h 6.959 v 4.67408 z m 6.959,5.8853 v 4.67444 h -6.959 v -4.67444 z m 0,5.27936 v 4.67443 h -6.959 v -4.67443 z m 7.5646,-5.27936 v 4.67444 h -6.95899 v -4.67444 z m -6.95899,-0.6056 v -4.67408 h 6.95899 v 4.67408 z m 6.95899,5.88496 v 4.67443 h -6.95899 v -4.67443 z m 0,-11.16466 h -6.95899 v -4.67408 h 6.95899 z m -22.08822,-4.27114 c 0,-0.22188 0.18004,-0.40191 0.40191,-0.40294 h 6.55744 v 4.67408 h -6.95935 z m 0,4.87676 h 6.95935 v 4.67408 h -6.95935 z m 0,5.27968 h 6.95935 v 4.67444 h -6.95935 z m 0,9.55051 v -4.27115 h 6.95935 v 4.67443 h -6.55744 c -0.22187,-10e-4 -0.40191,-0.18107 -0.40191,-0.40328 z m 29.6525,0 c 0,0.22186 -0.1797,0.40225 -0.40191,0.40328 h -6.5571 v -4.67443 h 6.95901 z m 0,-4.87607 h -6.95901 v -4.67444 h 6.95901 z m 0,-5.28004 h -6.95901 v -4.67408 h 6.95901 z m 0,-5.2797 h -6.95901 v -4.67408 h 6.5571 c 0.22186,0.001 0.40191,0.18106 0.40191,0.40294 z" />
        <path
           style="fill:#ffffff;fill-opacity:1;stroke-width:0.342926"
           id="path1502-9-5-5-3-1-00"
           d="m 254.79049,443.58277 h -4.04687 c -0.167,0 -0.3028,0.1358 -0.3028,0.3028 v 1.99069 c 0,0.167 0.1358,0.3028 0.3028,0.3028 h 4.04687 c 0.167,0 0.3028,-0.1358 0.3028,-0.3028 v -1.99069 c 0,-0.16734 -0.1358,-0.3028 -0.3028,-0.3028 z" />
        <path
           d="m 254.79049,438.20741 h -4.04687 c -0.167,0 -0.3028,0.1358 -0.3028,0.3028 v 1.99069 c 0,0.167 0.1358,0.3028 0.3028,0.3028 h 4.04687 c 0.167,0 0.3028,-0.1358 0.3028,-0.3028 v -1.99069 c 0,-0.16734 -0.1358,-0.3028 -0.3028,-0.3028 z"
           id="path1502-9-5-5-3-1-7-6"
           style="fill:#ffffff;fill-opacity:1;stroke-width:0.342926" />
        <path
           d="m 254.79049,448.95811 h -4.04687 c -0.167,0 -0.3028,0.1358 -0.3028,0.3028 v 1.99069 c 0,0.167 0.1358,0.3028 0.3028,0.3028 h 4.04687 c 0.167,0 0.3028,-0.1358 0.3028,-0.3028 v -1.99069 c 0,-0.16734 -0.1358,-0.3028 -0.3028,-0.3028 z"
           id="path1502-9-5-5-3-1-71-6"
           style="fill:#ffffff;fill-opacity:1;stroke-width:0.342926" />
        <path
           d="m 254.79049,454.33346 h -4.04687 c -0.167,0 -0.3028,0.1358 -0.3028,0.3028 v 1.99069 c 0,0.167 0.1358,0.3028 0.3028,0.3028 h 4.04687 c 0.167,0 0.3028,-0.1358 0.3028,-0.3028 v -1.99069 c 0,-0.16734 -0.1358,-0.3028 -0.3028,-0.3028 z"
           id="path1502-9-5-5-3-1-0-88"
           style="fill:#ffffff;fill-opacity:1;stroke-width:0.342926" />
        <path
           d="m 262.42332,443.58277 h -4.04687 c -0.167,0 -0.3028,0.1358 -0.3028,0.3028 v 1.99069 c 0,0.167 0.1358,0.3028 0.3028,0.3028 h 4.04687 c 0.167,0 0.3028,-0.1358 0.3028,-0.3028 v -1.99069 c 0,-0.16734 -0.1358,-0.3028 -0.3028,-0.3028 z"
           id="path1502-9-5-5-3-1-8-6"
           style="fill:#ffffff;fill-opacity:1;stroke-width:0.342926" />
        <path
           style="fill:#ffffff;fill-opacity:1;stroke-width:0.342926"
           id="path1502-9-5-5-3-1-7-7-1"
           d="m 262.42332,438.20741 h -4.04687 c -0.167,0 -0.3028,0.1358 -0.3028,0.3028 v 1.99069 c 0,0.167 0.1358,0.3028 0.3028,0.3028 h 4.04687 c 0.167,0 0.3028,-0.1358 0.3028,-0.3028 v -1.99069 c 0,-0.16734 -0.1358,-0.3028 -0.3028,-0.3028 z" />
        <path
           style="fill:#ffffff;fill-opacity:1;stroke-width:0.342926"
           id="path1502-9-5-5-3-1-71-4-6"
           d="m 262.42332,448.95811 h -4.04687 c -0.167,0 -0.3028,0.1358 -0.3028,0.3028 v 1.99069 c 0,0.167 0.1358,0.3028 0.3028,0.3028 h 4.04687 c 0.167,0 0.3028,-0.1358 0.3028,-0.3028 v -1.99069 c 0,-0.16734 -0.1358,-0.3028 -0.3028,-0.3028 z" />
        <path
           style="fill:#ffffff;fill-opacity:1;stroke-width:0.342926"
           id="path1502-9-5-5-3-1-0-8-0"
           d="m 262.42332,454.33346 h -4.04687 c -0.167,0 -0.3028,0.1358 -0.3028,0.3028 v 1.99069 c 0,0.167 0.1358,0.3028 0.3028,0.3028 h 4.04687 c 0.167,0 0.3028,-0.1358 0.3028,-0.3028 v -1.99069 c 0,-0.16734 -0.1358,-0.3028 -0.3028,-0.3028 z" />
        <path
           d="m 269.92893,443.58277 h -4.04687 c -0.167,0 -0.3028,0.1358 -0.3028,0.3028 v 1.99069 c 0,0.167 0.1358,0.3028 0.3028,0.3028 h 4.04687 c 0.167,0 0.3028,-0.1358 0.3028,-0.3028 v -1.99069 c 0,-0.16734 -0.1358,-0.3028 -0.3028,-0.3028 z"
           id="path1502-9-5-5-3-1-86-3"
           style="fill:#ffffff;fill-opacity:1;stroke-width:0.342926" />
        <path
           style="fill:#ffffff;fill-opacity:1;stroke-width:0.342926"
           id="path1502-9-5-5-3-1-7-79-9"
           d="m 269.92893,438.20741 h -4.04687 c -0.167,0 -0.3028,0.1358 -0.3028,0.3028 v 1.99069 c 0,0.167 0.1358,0.3028 0.3028,0.3028 h 4.04687 c 0.167,0 0.3028,-0.1358 0.3028,-0.3028 v -1.99069 c 0,-0.16734 -0.1358,-0.3028 -0.3028,-0.3028 z" />
        <path
           style="fill:#ffffff;fill-opacity:1;stroke-width:0.342926"
           id="path1502-9-5-5-3-1-71-9-9"
           d="m 269.92893,448.95811 h -4.04687 c -0.167,0 -0.3028,0.1358 -0.3028,0.3028 v 1.99069 c 0,0.167 0.1358,0.3028 0.3028,0.3028 h 4.04687 c 0.167,0 0.3028,-0.1358 0.3028,-0.3028 v -1.99069 c 0,-0.16734 -0.1358,-0.3028 -0.3028,-0.3028 z" />
        <path
           style="fill:#ffffff;fill-opacity:1;stroke-width:0.342926"
           id="path1502-9-5-5-3-1-0-7-2"
           d="m 269.92893,454.33346 h -4.04687 c -0.167,0 -0.3028,0.1358 -0.3028,0.3028 v 1.99069 c 0,0.167 0.1358,0.3028 0.3028,0.3028 h 4.04687 c 0.167,0 0.3028,-0.1358 0.3028,-0.3028 v -1.99069 c 0,-0.16734 -0.1358,-0.3028 -0.3028,-0.3028 z" />
        <path
           d="m 277.77378,443.58277 h -4.04687 c -0.167,0 -0.3028,0.1358 -0.3028,0.3028 v 1.99069 c 0,0.167 0.1358,0.3028 0.3028,0.3028 h 4.04687 c 0.167,0 0.3028,-0.1358 0.3028,-0.3028 v -1.99069 c 0,-0.16734 -0.1358,-0.3028 -0.3028,-0.3028 z"
           id="path1502-9-5-5-3-1-06-1"
           style="fill:#ffffff;fill-opacity:1;stroke-width:0.342926" />
        <path
           style="fill:#ffffff;fill-opacity:1;stroke-width:0.342926"
           id="path1502-9-5-5-3-1-7-78-6"
           d="m 277.77378,438.20741 h -4.04687 c -0.167,0 -0.3028,0.1358 -0.3028,0.3028 v 1.99069 c 0,0.167 0.1358,0.3028 0.3028,0.3028 h 4.04687 c 0.167,0 0.3028,-0.1358 0.3028,-0.3028 v -1.99069 c 0,-0.16734 -0.1358,-0.3028 -0.3028,-0.3028 z" />
        <path
           style="fill:#ffffff;fill-opacity:1;stroke-width:0.342926"
           id="path1502-9-5-5-3-1-71-46-2"
           d="m 277.77378,448.95811 h -4.04687 c -0.167,0 -0.3028,0.1358 -0.3028,0.3028 v 1.99069 c 0,0.167 0.1358,0.3028 0.3028,0.3028 h 4.04687 c 0.167,0 0.3028,-0.1358 0.3028,-0.3028 v -1.99069 c 0,-0.16734 -0.1358,-0.3028 -0.3028,-0.3028 z" />
        <path
           style="fill:#ffffff;fill-opacity:1;stroke-width:0.342926"
           id="path1502-9-5-5-3-1-0-3-7"
           d="m 277.77378,454.33346 h -4.04687 c -0.167,0 -0.3028,0.1358 -0.3028,0.3028 v 1.99069 c 0,0.167 0.1358,0.3028 0.3028,0.3028 h 4.04687 c 0.167,0 0.3028,-0.1358 0.3028,-0.3028 v -1.99069 c 0,-0.16734 -0.1358,-0.3028 -0.3028,-0.3028 z" />
      </g>
    </g>
  </g>
</svg>
