<?xml version="1.0" encoding="UTF-8" standalone="no"?>
<svg
   xmlns:dc="http://purl.org/dc/elements/1.1/"
   xmlns:cc="http://creativecommons.org/ns#"
   xmlns:rdf="http://www.w3.org/1999/02/22-rdf-syntax-ns#"
   xmlns:svg="http://www.w3.org/2000/svg"
   xmlns="http://www.w3.org/2000/svg"
   id="svg47"
   version="1.1"
   viewBox="0 0 52.758294 52.758296"
   height="199.40143"
   width="199.40143">
  <defs
     id="defs42">
    <pattern
       id="EMFhbasepattern"
       patternUnits="userSpaceOnUse"
       width="6"
       height="6"
       x="0"
       y="0" />
  </defs>
  <metadata
     id="metadata45">
    <rdf:RDF>
      <cc:Work
         rdf:about="">
        <dc:format>image/svg+xml</dc:format>
        <dc:type
           rdf:resource="http://purl.org/dc/dcmitype/StillImage" />
        <dc:title></dc:title>
      </cc:Work>
    </rdf:RDF>
  </metadata>
  <g
     id="g8556"
     transform="translate(49.836509,-375.23204)">
    <g
       id="g5305">
      <g
         id="g9517"
         transform="translate(-750.06059,-51.713602)">
        <rect
           height="52.258293"
           y="427.39993"
           x="700.66669"
           width="52.258293"
           id="rect833-1-5-3-7-4-8-5-1-4-2-8-1-5-6-3"
           style="fill:#c4c4c4;fill-opacity:1;stroke:#000000;stroke-width:0.49999899;stroke-linecap:round;stroke-miterlimit:4;stroke-dasharray:none;stroke-opacity:1;paint-order:fill markers stroke" />
        <text
           id="text898-7-3-6-8-3-3-0-66-7-8-8-0-8-5-9"
           y="466.1843"
           x="726.67139"
           style="font-size:6.3499999px;line-height:0.94999999;font-family:voestalpine;-inkscape-font-specification:voestalpine;text-align:center;letter-spacing:0px;word-spacing:0px;text-anchor:middle;fill:#ffffff;fill-opacity:1;stroke-width:0.26458299"
           xml:space="preserve"><tspan
             id="tspan1807-8-6"
             style="font-size:6.3499999px;text-align:center;text-anchor:middle;fill:#ffffff;fill-opacity:1;stroke-width:0.26458299"
             y="466.1843"
             x="727.43414">Zezwalaj na </tspan><tspan
             style="font-size:6.3499999px;text-align:center;text-anchor:middle;fill:#ffffff;fill-opacity:1;stroke-width:0.26458299"
             y="472.2168"
             x="726.67139"
             id="tspan2094-9">dzielenie wierszy</tspan><tspan
             style="font-size:6.3499999px;text-align:center;text-anchor:middle;fill:#ffffff;fill-opacity:1;stroke-width:0.26458299"
             y="478.2493"
             x="726.67139"
             id="tspan2220-8">między stronami</tspan></text>
        <path
           style="fill:#fffff2;fill-opacity:1;stroke-width:0.206706"
           d="m 735.31208,436.24085 h -5.43636 l 0.64079,0.57878 v 0.24804 h 4.13411 v 3.07992 c 0,0.57878 0.47543,1.0542 1.0542,1.0542 h 3.49333 v 17.36328 h -14.4694 v -1.65365 h -0.82682 v 1.757 c 0,0.39274 0.33073,0.72347 0.72347,0.72347 h 14.6761 c 0.39274,0 0.72347,-0.33073 0.72347,-0.72347 v -18.16943 z m 0.16537,3.90674 v -2.64583 l 3.18327,2.87321 h -2.9559 c -0.12402,0 -0.22737,-0.10336 -0.22737,-0.22738 z"
           id="path1975-3" />
        <path
           style="fill:#ffffff;fill-opacity:1;stroke-width:0.206706"
           d="M 729.68969,455.36113 V 437.1917 l -4.71289,-4.25814 h -10.68669 c -0.39274,0 -0.72347,0.33073 -0.72347,0.72347 v 21.7041 c 0,0.39274 0.33073,0.72347 0.72347,0.72347 h 14.67611 c 0.39274,0 0.72347,-0.33073 0.72347,-0.72347 z m -4.54753,-21.16667 3.18327,2.87321 h -2.95589 c -0.12403,0 -0.22738,-0.10335 -0.22738,-0.22737 z m -10.7487,21.06332 v -21.4974 h 9.92188 v 3.07992 c 0,0.57877 0.47542,1.0542 1.0542,1.0542 h 3.49332 v 17.36328 z"
           id="path1977-6" />
        <path
           style="fill:#ffffff;fill-opacity:1;stroke-width:0.206706"
           d="m 726.3824,447.35051 h -9.50847 c -0.22737,0 -0.41341,0.18604 -0.41341,0.41341 0,0.22738 0.18604,0.41341 0.41341,0.41341 h 9.50847 c 0.22737,0 0.41341,-0.18603 0.41341,-0.41341 0,-0.22737 -0.18604,-0.41341 -0.41341,-0.41341 z"
           id="path1979-8" />
        <path
           style="fill:#ffffff;fill-opacity:1;stroke-width:0.206706"
           d="m 726.3824,449.41757 h -9.50847 c -0.22737,0 -0.41341,0.18603 -0.41341,0.41341 0,0.22738 0.18604,0.41341 0.41341,0.41341 h 9.50847 c 0.22737,0 0.41341,-0.18603 0.41341,-0.41341 0,-0.22738 -0.18604,-0.41341 -0.41341,-0.41341 z"
           id="path1981-4" />
        <path
           style="fill:#ffffff;fill-opacity:1;stroke-width:0.206706"
           d="m 726.3824,451.48463 h -9.50847 c -0.22737,0 -0.41341,0.18603 -0.41341,0.41341 0,0.22737 0.18604,0.41341 0.41341,0.41341 h 9.50847 c 0.22737,0 0.41341,-0.18604 0.41341,-0.41341 0,-0.22738 -0.18604,-0.41341 -0.41341,-0.41341 z"
           id="path1983-2" />
        <path
           style="fill:#ffffff;fill-opacity:1;stroke-width:0.206706"
           d="m 726.3824,453.55168 h -9.50847 c -0.22737,0 -0.41341,0.18604 -0.41341,0.41342 0,0.22737 0.18604,0.41341 0.41341,0.41341 h 9.50847 c 0.22737,0 0.41341,-0.18604 0.41341,-0.41341 0,-0.22738 -0.18604,-0.41342 -0.41341,-0.41342 z"
           id="path1985-8" />
        <path
           style="fill:#ffffff;fill-opacity:1;stroke:none;stroke-width:0.206706;stroke-opacity:1"
           d="m 737.13109,441.83597 c 0,-0.22738 -0.18603,-0.41342 -0.41341,-0.41342 h -6.20117 v 0.82683 h 6.20117 c 0.22738,0 0.41341,-0.18604 0.41341,-0.41341 z"
           id="path1987-9" />
        <path
           style="fill:#ffffff;fill-opacity:1;stroke:none;stroke-width:0.206706;stroke-opacity:1"
           d="m 730.51651,444.31643 h 6.20117 c 0.22738,0 0.41341,-0.18603 0.41341,-0.41341 0,-0.22737 -0.18603,-0.41341 -0.41341,-0.41341 h -6.20117 z"
           id="path1989-7" />
        <path
           style="fill:#ffffff;fill-opacity:1;stroke:none;stroke-width:0.206706;stroke-opacity:1"
           d="m 730.51651,446.38349 h 6.20117 c 0.22738,0 0.41341,-0.18603 0.41341,-0.41341 0,-0.22738 -0.18603,-0.41341 -0.41341,-0.41341 h -6.20117 z"
           id="path1991-9" />
        <path
           style="fill:#ffffff;fill-opacity:1;stroke:none;stroke-width:0.206706;stroke-opacity:1"
           d="m 730.51651,448.45055 h 6.20117 c 0.22738,0 0.41341,-0.18604 0.41341,-0.41341 0,-0.22738 -0.18603,-0.41341 -0.41341,-0.41341 h -6.20117 z"
           id="path1993-8" />
        <rect
           style="fill:none;stroke:#ffffff;stroke-width:0.49999899;stroke-linecap:round;stroke-miterlimit:4;stroke-dasharray:none;stroke-dashoffset:0;stroke-opacity:1;paint-order:fill markers stroke"
           id="rect2025-6"
           width="11.753956"
           height="9.715004"
           x="715.67206"
           y="445.91614"
           ry="0.81721115" />
        <rect
           style="fill:none;fill-opacity:1;stroke:#ffffff;stroke-width:0.49588999;stroke-linecap:round;stroke-miterlimit:4;stroke-dasharray:none;stroke-dashoffset:0;stroke-opacity:1;paint-order:fill markers stroke"
           id="rect2042-9"
           width="8.7229872"
           height="9.0966635"
           x="729.34448"
           y="440.96936"
           ry="0.85845739" />
      </g>
    </g>
  </g>
</svg>
