<svg id="SVGRoot" width="206px" height="206px" version="1.1" viewBox="0 0 206 206" xmlns="http://www.w3.org/2000/svg">
 <g transform="matrix(3.7795 0 0 3.7795 -1795.2 2502.6)">
  <flowRoot fill="black" font-family="sans-serif" font-size="40px" letter-spacing="0px" word-spacing="0px" style="line-height:1.25" xml:space="preserve"><flowRegion><rect x="-392.69" y="-63.57" width="758.02" height="397.52"/></flowRegion><flowPara/></flowRoot>
  <flowRoot fill="black" font-family="sans-serif" font-size="40px" letter-spacing="0px" word-spacing="0px" style="line-height:1.25" xml:space="preserve"><flowRegion><rect x="-251.87" y="-84.492" width="624.44" height="455.45"/></flowRegion><flowPara/></flowRoot>
  <flowRoot fill="black" font-family="sans-serif" font-size="40px" letter-spacing="0px" word-spacing="0px" style="line-height:1.25" xml:space="preserve"><flowRegion><rect x="-202.78" y="-50.695" width="473.96" height="281.64"/></flowRegion><flowPara/></flowRoot>
  <flowRoot fill="black" font-family="sans-serif" font-size="40px" letter-spacing="0px" word-spacing="0px" style="line-height:1.25" xml:space="preserve"><flowRegion><rect x="-86.906" y="-78.859" width="516.61" height="410.39"/></flowRegion><flowPara/></flowRoot>
  <flowRoot fill="black" font-family="sans-serif" font-size="40px" letter-spacing="0px" word-spacing="0px" style="line-height:1.25" xml:space="preserve"><flowRegion><rect x="-81.273" y="-32.188" width="309" height="322.68"/></flowRegion><flowPara/></flowRoot>
  <flowRoot fill="black" font-family="sans-serif" font-size="40px" letter-spacing="0px" word-spacing="0px" style="line-height:1.25" xml:space="preserve"><flowRegion><rect x="-90.93" y="-68.398" width="392.69" height="252.67"/></flowRegion><flowPara/></flowRoot>
  <g transform="translate(675.17 -.21291)">
   <flowRoot fill="black" font-family="sans-serif" font-size="40px" letter-spacing="0px" word-spacing="0px" style="line-height:1.25" xml:space="preserve"><flowRegion><rect x="-100.59" y="-53.109" width="462.7" height="369.35"/></flowRegion><flowPara/></flowRoot>
   <g transform="translate(57.194 .21291)">
    <flowRoot fill="black" font-family="sans-serif" font-size="40px" letter-spacing="0px" word-spacing="0px" style="line-height:1.25" xml:space="preserve"><flowRegion><rect x="-329.12" y="-12.07" width="696.05" height="259.91"/></flowRegion><flowPara/></flowRoot>
    <g transform="translate(-1495.1 -629.38)">
     <flowRoot fill="black" font-family="sans-serif" font-size="40px" letter-spacing="0px" word-spacing="0px" style="line-height:1.25" xml:space="preserve"><flowRegion><rect x="-306.59" y="-111.05" width="206" height="51.5"/></flowRegion><flowPara/></flowRoot>
     <flowRoot fill="black" font-family="sans-serif" font-size="40px" letter-spacing="0px" word-spacing="0px" style="line-height:1.25" xml:space="preserve"><flowRegion><rect x="-70.812" y="-36.211" width="362.91" height="283.25"/></flowRegion><flowPara/></flowRoot>
     <g transform="translate(538.4 -400.97)">
      <rect x="700.67" y="369.54" width="52.258" height="52.258" fill="#fff" stroke="#000" stroke-linecap="round" stroke-width=".5" style="paint-order:fill markers stroke"/>
      <text x="726.67139" y="405.40857" font-family="sans-serif" font-size="4.9389px" letter-spacing="0px" stroke-width=".26458" text-align="center" text-anchor="middle" word-spacing="0px" style="line-height:0.94999999" xml:space="preserve"><tspan x="727.53955" y="405.40857" text-align="center">Zezwalaj na </tspan><tspan x="726.67139" y="411.44107" text-align="center">dzielenie wierszy</tspan><tspan x="726.67139" y="417.47357" text-align="center">między stronami</tspan></text>
      <g transform="translate(2e-5 -2.1167)">
       <g stroke-width=".20671">
        <path d="m735.31 378.39h-5.4364l.64079.57878v.24804h4.1341v3.0799c0 .57878.47543 1.0542 1.0542 1.0542h3.4933v17.363h-14.469v-1.6536h-.82682v1.757c0 .39274.33073.72347.72347.72347h14.676c.39274 0 .72347-.33073.72347-.72347v-18.169zm.16537 3.9067v-2.6458l3.1833 2.8732h-2.9559c-.12402 0-.22737-.10336-.22737-.22738z"/>
        <path d="m729.69 397.51v-18.169l-4.7129-4.2581h-10.687c-.39274 0-.72347.33073-.72347.72347v21.704c0 .39274.33073.72347.72347.72347h14.676c.39274 0 .72347-.33073.72347-.72347zm-4.5475-21.167 3.1833 2.8732h-2.9559c-.12403 0-.22738-.10335-.22738-.22737zm-10.749 21.063v-21.497h9.9219v3.0799c0 .57877.47542 1.0542 1.0542 1.0542h3.4933v17.363z"/>
        <path d="m726.38 389.49h-9.5085c-.22737 0-.41341.18604-.41341.41341 0 .22738.18604.41341.41341.41341h9.5085c.22737 0 .41341-.18603.41341-.41341 0-.22737-.18604-.41341-.41341-.41341z"/>
        <path d="m726.38 391.56h-9.5085c-.22737 0-.41341.18603-.41341.41341s.18604.41341.41341.41341h9.5085c.22737 0 .41341-.18603.41341-.41341s-.18604-.41341-.41341-.41341z"/>
        <path d="m726.38 393.63h-9.5085c-.22737 0-.41341.18603-.41341.41341 0 .22737.18604.41341.41341.41341h9.5085c.22737 0 .41341-.18604.41341-.41341 0-.22738-.18604-.41341-.41341-.41341z"/>
        <path d="m726.38 395.7h-9.5085c-.22737 0-.41341.18604-.41341.41342 0 .22737.18604.41341.41341.41341h9.5085c.22737 0 .41341-.18604.41341-.41341 0-.22738-.18604-.41342-.41341-.41342z"/>
        <path d="m737.13 383.98c0-.22738-.18603-.41342-.41341-.41342h-6.2012v.82683h6.2012c.22738 0 .41341-.18604.41341-.41341z"/>
        <path d="m730.52 386.46h6.2012c.22738 0 .41341-.18603.41341-.41341 0-.22737-.18603-.41341-.41341-.41341h-6.2012z"/>
        <path d="m730.52 388.53h6.2012c.22738 0 .41341-.18603.41341-.41341s-.18603-.41341-.41341-.41341h-6.2012z"/>
        <path d="m730.52 390.59h6.2012c.22738 0 .41341-.18604.41341-.41341 0-.22738-.18603-.41341-.41341-.41341h-6.2012z"/>
       </g>
       <rect x="715.67" y="388.06" width="11.754" height="9.715" ry=".81721" fill="none" stroke="#000" stroke-linecap="round" stroke-width=".5" style="paint-order:fill markers stroke"/>
       <rect x="729.34" y="383" width="9.3158" height="8.6596" ry=".81721" fill="none" stroke="#000" stroke-linecap="round" stroke-width=".5" style="paint-order:fill markers stroke"/>
      </g>
     </g>
    </g>
   </g>
  </g>
 </g>
</svg>
