<svg id="SVGRoot" width="206px" height="206px" version="1.1" viewBox="0 0 206 206" xmlns="http://www.w3.org/2000/svg">
 <g transform="matrix(3.7795 0 0 3.7795 -5036 -1391.7)">
  <rect x="1333.6" y="369.54" width="52.258" height="52.258" fill="#fff" stroke="#000" stroke-linecap="round" stroke-width=".5" style="paint-order:fill markers stroke"/>
  <text x="1359.6356" y="412.37195" font-family="sans-serif" class="svgT" letter-spacing=".5px" font-size="5.2px" stroke-width=".26458" text-align="center" text-anchor="middle" word-spacing="0px" style="line-height:0.94999999" xml:space="preserve"><tspan x="1359.6356" y="412.37195" text-align="center">Zmień język</tspan><tspan x="1359.6356" y="418.40445" text-align="center">dokumentu</tspan></text>
  <g transform="matrix(.50755 0 0 .50755 1343.4 372.53)">
   <path d="m55.63 22.75h-16.69v-11.69a6.32 6.32 0 00-6.31-6.31h-24.26a6.32 6.32 0 00-6.31 6.31v15.17a6.17 6.17 0 001.08 3.52c2.31 4.5 13.31 11.25 13.42 11.35a1 1 0 00.52.15 1 1 0 00.64-.24 1 1 0 00.28-1.13 43.82 43.82 0 01-2-7.35h9.06v11.7a6.31 6.31 0 006.31 6.3h16.63a43.82 43.82 0 01-2 7.35 1 1 0 00.28 1.12 1 1 0 00.64.24 1 1 0 00.52-.15c.11-.07 11.11-6.85 13.42-11.35a6.17 6.17 0 001.08-3.52v-15.16a6.32 6.32 0 00-6.31-6.31zm-34.14 7.78h-6.68a1 1 0 00-.76.35 1 1 0 00-.23.81 54.29 54.29 0 001.39 6.14c-3.46-2.34-8.91-6.36-10.27-8.95a1.28 1.28 0 00-.11-.2 4.24 4.24 0 01-.77-2.45v-15.17a4.32 4.32 0 014.31-4.31h24.26a4.32 4.32 0 014.31 4.31v11.69h-5.57a6.31 6.31 0 00-4.91 2.35 8.83 8.83 0 01-4.1-1 12.53 12.53 0 003.12-7.61h1.26a1 1 0 100-2h-5.2v-3.16a1 1 0 10-2 0v3.13h-5.21a1 1 0 100 2h9.14a10.47 10.47 0 01-2.59 6.26l-.16.15a10.39 10.39 0 01-2.5-3.87 1.0019 1.0019 0 00-1.87.72 12.46 12.46 0 002.72 4.34 9.81 9.81 0 01-4.71 1.05 1 1 0 100 2 11.5 11.5 0 006.37-1.69 10.34 10.34 0 004.67 1.58 6.12 6.12 0 00-.34 2v1.47zm38.45 13.7a4.24 4.24 0 01-.77 2.45.69.69 0 00-.1.19c-1.36 2.59-6.82 6.62-10.28 9a54.29 54.29 0 001.39-6.14 1 1 0 00-.23-.81 1 1 0 00-.76-.35h-17.82a4.31 4.31 0 01-4.31-4.3v-15.21a4.32 4.32 0 014.31-4.31h24.26a4.32 4.32 0 014.31 4.31zm-15.47-15.38a.91.91 0 00-.15-.23s0-.07-.07-.1a1.05 1.05 0 00-.11-.07 1 1 0 00-.21-.14.9.9 0 00-.16 0 1.55 1.55 0 00-.21 0 1.19 1.19 0 00-.26.05h-.11a1.13 1.13 0 00-.26.16l-.07.05-.08.12a1.53 1.53 0 00-.14.21l-6 15a1 1 0 00.56 1.3.94.94 0 00.37.07 1 1 0 00.93-.63l1.74-4.37h6.65l1.75 4.37a1 1 0 00.93.63 1 1 0 00.37-.07 1 1 0 00.56-1.3zm-3.47 9.37 2.53-6.31 2.52 6.31z"/>
  </g>
 </g>
</svg>
