<svg id="SVGRoot" width="206px" height="206px" version="1.1" viewBox="0 0 206 206" xmlns="http://www.w3.org/2000/svg">
 <g transform="matrix(3.7795 0 0 3.7795 -5465.1 -1392.5)">
  <g transform="translate(1272.2 133.87)">
   <rect x="175.38" y="235.25" width="52.258" height="52.258" fill="#fff" stroke="#000" stroke-linecap="round" stroke-width=".5" style="paint-order:fill markers stroke"/>
   <text x="201.57967" y="277.78369" font-family="sans-serif" class="svgT" letter-spacing=".5px" font-size="5.2px" stroke-width=".26458" text-align="center" text-anchor="middle" word-spacing="0px" style="line-height:0.94999999" xml:space="preserve"><tspan x="201.57967" y="277.78369" text-align="center">Zmień odsyłacze</tspan><tspan x="201.57967" y="283.81619" text-align="center">na hiperłącza</tspan></text>
   <text x="201.50665" y="286.57382" font-family="sans-serif" font-size="5.6444px" letter-spacing="0px" stroke-width=".26458" word-spacing="0px" style="line-height:1.25" xml:space="preserve"><tspan x="201.50665" y="286.57382" font-family="sans-serif" stroke-width=".26458"> </tspan></text>
   <g transform="matrix(.078511 0 0 .078511 188.28 240.86)" clip-rule="evenodd" fill-rule="evenodd" image-rendering="optimizeQuality" shape-rendering="geometricPrecision">
    <path class="fil0" d="m9 177c-5 0-9-4-9-8 0-94 75-169 169-169 93 0 168 75 168 169 0 93-75 168-168 168-64 0-122-35-150-92-3-4-1-9 3-11s9 0 12 4c26 50 78 82 135 82 83 0 151-68 151-151 0-84-68-152-151-152-81 0-147 63-152 143h155l-30-26c-4-3-4-8-1-12 3-3 8-4 12-1l47 41c4 4 4 10 0 13l-47 41c-4 3-9 2-12-1-3-4-3-9 1-12l30-26z"/>
   </g>
  </g>
 </g>
</svg>
