<?xml version="1.0" encoding="UTF-8" standalone="no"?>
<svg
   xmlns:dc="http://purl.org/dc/elements/1.1/"
   xmlns:cc="http://creativecommons.org/ns#"
   xmlns:rdf="http://www.w3.org/1999/02/22-rdf-syntax-ns#"
   xmlns:svg="http://www.w3.org/2000/svg"
   xmlns="http://www.w3.org/2000/svg"
   id="svg47"
   version="1.1"
   viewBox="0 0 52.758294 52.758296"
   height="199.40143"
   width="199.40143">
  <defs
     id="defs42">
    <pattern
       id="EMFhbasepattern"
       patternUnits="userSpaceOnUse"
       width="6"
       height="6"
       x="0"
       y="0" />
  </defs>
  <metadata
     id="metadata45">
    <rdf:RDF>
      <cc:Work
         rdf:about="">
        <dc:format>image/svg+xml</dc:format>
        <dc:type
           rdf:resource="http://purl.org/dc/dcmitype/StillImage" />
        <dc:title></dc:title>
      </cc:Work>
    </rdf:RDF>
  </metadata>
  <g
     id="g8556"
     transform="translate(49.836509,-375.23204)">
    <g
       id="g5305">
      <g
         id="g10055"
         transform="translate(-1383.0968,6.047623)">
        <rect
           height="52.258293"
           y="369.54422"
           x="1333.5515"
           width="52.258293"
           id="rect833-1-5-3-7-4-8-5-1-4-2-8-1-5-8-6-0-5-58-7"
           style="fill:#ffffff;stroke:#000000;stroke-width:0.49999899;stroke-linecap:round;stroke-miterlimit:4;stroke-dasharray:none;stroke-opacity:1;paint-order:fill markers stroke" />
        <text
           id="text898-7-3-6-8-3-3-0-66-7-8-8-0-8-3-4-2-6-22-9"
           y="413.1864"
           x="1359.6356"
           style="font-size:6.3499999px;line-height:0.94999999;font-family:voestalpine;-inkscape-font-specification:voestalpine;text-align:center;letter-spacing:0px;word-spacing:0px;text-anchor:middle;stroke-width:0.26458299"
           xml:space="preserve"><tspan
             style="font-size:6.3499999px;text-align:center;text-anchor:middle;stroke-width:0.26458299"
             y="413.1864"
             x="1359.6356"
             id="tspan2732-3">Zmień język</tspan><tspan
             id="tspan2928"
             style="font-size:6.3499999px;text-align:center;text-anchor:middle;stroke-width:0.26458299"
             y="419.2189"
             x="1359.6356">dokumentu</tspan></text>
        <g
           transform="matrix(0.50755115,0,0,0.50755115,1343.439,372.52713)"
           id="g2946"
           style="fill:#000000">
          <path
             id="path2932"
             d="M 55.63,22.75 H 38.94 V 11.06 A 6.32,6.32 0 0 0 32.63,4.75 H 8.37 a 6.32,6.32 0 0 0 -6.31,6.31 v 15.17 a 6.17,6.17 0 0 0 1.08,3.52 C 5.45,34.25 16.45,41 16.56,41.1 a 1,1 0 0 0 0.52,0.15 1,1 0 0 0 0.64,-0.24 1,1 0 0 0 0.28,-1.13 43.82,43.82 0 0 1 -2,-7.35 h 9.06 v 11.7 a 6.31,6.31 0 0 0 6.31,6.3 H 48 a 43.82,43.82 0 0 1 -2,7.35 1,1 0 0 0 0.28,1.12 1,1 0 0 0 0.64,0.24 1,1 0 0 0 0.52,-0.15 c 0.11,-0.07 11.11,-6.85 13.42,-11.35 a 6.17,6.17 0 0 0 1.08,-3.52 V 29.06 a 6.32,6.32 0 0 0 -6.31,-6.31 z m -34.14,7.78 h -6.68 a 1,1 0 0 0 -0.76,0.35 1,1 0 0 0 -0.23,0.81 54.29,54.29 0 0 0 1.39,6.14 C 11.75,35.49 6.3,31.47 4.94,28.88 A 1.28,1.28 0 0 0 4.83,28.68 4.24,4.24 0 0 1 4.06,26.23 V 11.06 A 4.32,4.32 0 0 1 8.37,6.75 h 24.26 a 4.32,4.32 0 0 1 4.31,4.31 v 11.69 h -5.57 a 6.31,6.31 0 0 0 -4.91,2.35 8.83,8.83 0 0 1 -4.1,-1 12.53,12.53 0 0 0 3.12,-7.61 h 1.26 a 1,1 0 1 0 0,-2 h -5.2 v -3.16 a 1,1 0 1 0 -2,0 v 3.13 h -5.21 a 1,1 0 1 0 0,2 h 9.14 a 10.47,10.47 0 0 1 -2.59,6.26 l -0.16,0.15 a 10.39,10.39 0 0 1 -2.5,-3.87 1.0019107,1.0019107 0 0 0 -1.87,0.72 12.46,12.46 0 0 0 2.72,4.34 9.81,9.81 0 0 1 -4.71,1.05 v 0 a 1,1 0 1 0 0,2 11.5,11.5 0 0 0 6.37,-1.69 10.34,10.34 0 0 0 4.67,1.58 6.12,6.12 0 0 0 -0.34,2 v 1.47 z m 38.45,13.7 a 4.24,4.24 0 0 1 -0.77,2.45 0.69,0.69 0 0 0 -0.1,0.19 c -1.36,2.59 -6.82,6.62 -10.28,9 a 54.29,54.29 0 0 0 1.39,-6.14 1,1 0 0 0 -0.23,-0.81 1,1 0 0 0 -0.76,-0.35 H 31.37 a 4.31,4.31 0 0 1 -4.31,-4.3 V 29.06 a 4.32,4.32 0 0 1 4.31,-4.31 h 24.26 a 4.32,4.32 0 0 1 4.31,4.31 z M 44.47,28.85 v 0 a 0.91,0.91 0 0 0 -0.15,-0.23 c 0,0 0,-0.07 -0.07,-0.1 a 1.05,1.05 0 0 0 -0.11,-0.07 1,1 0 0 0 -0.21,-0.14 v 0 a 0.9,0.9 0 0 0 -0.16,0 1.55,1.55 0 0 0 -0.21,0 1.19,1.19 0 0 0 -0.26,0.05 h -0.11 v 0 a 1.13,1.13 0 0 0 -0.26,0.16 l -0.07,0.05 -0.08,0.12 a 1.53,1.53 0 0 0 -0.14,0.21 v 0 l -6,15 a 1,1 0 0 0 0.56,1.3 0.94,0.94 0 0 0 0.37,0.07 1,1 0 0 0 0.93,-0.63 l 1.74,-4.37 h 6.65 l 1.75,4.37 a 1,1 0 0 0 0.93,0.63 1,1 0 0 0 0.37,-0.07 1,1 0 0 0 0.56,-1.3 z m -3.47,9.37 2.53,-6.31 2.52,6.31 z" />
        </g>
      </g>
    </g>
  </g>
</svg>
