<?xml version="1.0" encoding="UTF-8" standalone="no"?>
<svg
   xmlns:dc="http://purl.org/dc/elements/1.1/"
   xmlns:cc="http://creativecommons.org/ns#"
   xmlns:rdf="http://www.w3.org/1999/02/22-rdf-syntax-ns#"
   xmlns:svg="http://www.w3.org/2000/svg"
   xmlns="http://www.w3.org/2000/svg"
   id="svg47"
   version="1.1"
   viewBox="0 0 52.758294 52.758296"
   height="199.40143"
   width="199.40143">
  <defs
     id="defs42">
    <pattern
       id="EMFhbasepattern"
       patternUnits="userSpaceOnUse"
       width="6"
       height="6"
       x="0"
       y="0" />
  </defs>
  <metadata
     id="metadata45">
    <rdf:RDF>
      <cc:Work
         rdf:about="">
        <dc:format>image/svg+xml</dc:format>
        <dc:type
           rdf:resource="http://purl.org/dc/dcmitype/StillImage" />
        <dc:title></dc:title>
      </cc:Work>
    </rdf:RDF>
  </metadata>
  <g
     id="g7778"
     transform="translate(-175.21843,-234.79379)">
    <rect
       height="52.258293"
       y="235.24811"
       x="175.3775"
       width="52.258293"
       id="rect833-1-5-3-0-1-8-8"
       style="fill:#ffffff;stroke:#000000;stroke-width:0.49999899;stroke-linecap:round;stroke-miterlimit:4;stroke-dasharray:none;stroke-opacity:1;paint-order:fill markers stroke" />
    <text
       id="text898-7-3-6-3-6-38-1"
       y="279.33481"
       x="201.57967"
       style="font-size:6.3499999px;line-height:0.94999999;font-family:voestalpine;-inkscape-font-specification:voestalpine;text-align:center;letter-spacing:0px;word-spacing:0px;text-anchor:middle;stroke-width:0.26458299"
       xml:space="preserve"><tspan
         style="font-size:6.3499999px;text-align:center;text-anchor:middle;stroke-width:0.26458299"
         y="279.33481"
         x="201.57967"
         id="tspan1075-0">Zmień odsyłacze</tspan><tspan
         id="tspan1143"
         style="font-size:6.3499999px;text-align:center;text-anchor:middle;stroke-width:0.26458299"
         y="285.36731"
         x="201.57967">na hiperłącza</tspan></text>
    <text
       xml:space="preserve"
       style="font-size:5.64444017px;line-height:1.25;font-family:voestalpine;-inkscape-font-specification:voestalpine;letter-spacing:0px;word-spacing:0px;stroke-width:0.26458299"
       x="201.50665"
       y="286.57382"
       id="text1732-9-9"><tspan
         id="tspan1730-7-6"
         x="201.50665"
         y="286.57382"
         style="stroke-width:0.26458299"> </tspan></text>
    <g
       transform="matrix(0.07851137,0,0,0.07851137,188.27748,240.85919)"
       id="g1139"
       style="clip-rule:evenodd;fill:#000000;fill-rule:evenodd;image-rendering:optimizeQuality;shape-rendering:geometricPrecision;text-rendering:geometricPrecision">
      <path
         id="path1126"
         d="M 9,177 C 4,177 0,173 0,169 0,75 75,0 169,0 c 93,0 168,75 168,169 0,93 -75,168 -168,168 -64,0 -122,-35 -150,-92 -3,-4 -1,-9 3,-11 4,-2 9,0 12,4 26,50 78,82 135,82 83,0 151,-68 151,-151 C 320,85 252,17 169,17 88,17 22,80 17,160 h 155 l -30,-26 c -4,-3 -4,-8 -1,-12 3,-3 8,-4 12,-1 l 47,41 c 4,4 4,10 0,13 l -47,41 c -4,3 -9,2 -12,-1 -3,-4 -3,-9 1,-12 l 30,-26 z"
         class="fil0" />
    </g>
  </g>
</svg>
