<?xml version="1.0" encoding="UTF-8" standalone="no"?>
<svg
   xmlns:dc="http://purl.org/dc/elements/1.1/"
   xmlns:cc="http://creativecommons.org/ns#"
   xmlns:rdf="http://www.w3.org/1999/02/22-rdf-syntax-ns#"
   xmlns:svg="http://www.w3.org/2000/svg"
   xmlns="http://www.w3.org/2000/svg"
   id="svg47"
   version="1.1"
   viewBox="0 0 52.758294 52.758296"
   height="199.40143"
   width="199.40143">
  <defs
     id="defs42">
    <pattern
       id="EMFhbasepattern"
       patternUnits="userSpaceOnUse"
       width="6"
       height="6"
       x="0"
       y="0" />
  </defs>
  <metadata
     id="metadata45">
    <rdf:RDF>
      <cc:Work
         rdf:about="">
        <dc:format>image/svg+xml</dc:format>
        <dc:type
           rdf:resource="http://purl.org/dc/dcmitype/StillImage" />
        <dc:title></dc:title>
      </cc:Work>
    </rdf:RDF>
  </metadata>
  <g
     id="g8314"
     transform="translate(-582.06562,-234.90718)">
    <rect
       height="52.258293"
       y="235.24812"
       x="582.37592"
       width="52.258293"
       id="rect833-1-5-3-0-1-8-8-4-0-2-8"
       style="fill:#ffffff;stroke:#000000;stroke-width:0.49999899;stroke-linecap:round;stroke-miterlimit:4;stroke-dasharray:none;stroke-opacity:1;paint-order:fill markers stroke" />
    <text
       id="text898-7-3-6-3-6-38-1-0-0-1-5"
       y="279.40186"
       x="608.37415"
       style="font-size:6.3499999px;line-height:0.94999999;font-family:voestalpine;-inkscape-font-specification:voestalpine;text-align:center;letter-spacing:0px;word-spacing:0px;text-anchor:middle;stroke-width:0.26458299"
       xml:space="preserve"><tspan
         id="tspan1502-3-34"
         style="font-size:5.99723005px;text-align:center;text-anchor:middle;stroke-width:0.26458299"
         y="279.40186"
         x="608.37415">Zamień spację</tspan><tspan
         id="tspan1689"
         style="font-size:5.99723005px;text-align:center;text-anchor:middle;stroke-width:0.26458299"
         y="285.43436"
         x="608.37415">na twardą spację</tspan></text>
    <text
       xml:space="preserve"
       style="font-size:5.64444017px;line-height:1.25;font-family:voestalpine;-inkscape-font-specification:voestalpine;letter-spacing:0px;word-spacing:0px;stroke-width:0.26458299"
       x="608.50507"
       y="286.57382"
       id="text1732-9-9-0-5-5-6"><tspan
         id="tspan1730-7-6-0-8-2-24"
         x="608.50507"
         y="286.57382"
         style="stroke-width:0.26458299"> </tspan></text>
    <g
       transform="matrix(0.02072414,-0.03589525,0.03589525,0.02072414,582.9663,258.77828)"
       id="g1708"
       style="clip-rule:evenodd;fill:#000000;fill-rule:evenodd;image-rendering:optimizeQuality;shape-rendering:geometricPrecision;text-rendering:geometricPrecision">
      <path
         id="path1695"
         d="M 544.2,239.28 388.4,60.3 C 364.14,40.79 339.88,40.28 315.62,60.62 L 160.18,239.28 v 469.84 c 0,20.7 16.93,37.62 37.62,37.62 h 154.39 154.4 c 20.69,0 37.61,-16.92 37.61,-37.62 z M 686.49,293.69 530.67,114.71 C 507.13,95.77 483.6,94.74 460.05,113.27 l 98.69,113.37 4.74,5.44 v 7.2 469.84 c 0,15.68 -6.39,29.9 -16.69,40.2 l -0.04,-0.03 c -10.35,10.32 -24.56,16.72 -40.16,16.72 l -154.4,0.02 h -49.63 c 1.29,19.53 17.67,35.12 37.52,35.12 h 154.4 154.4 c 20.68,0 37.61,-16.92 37.61,-37.62 z M 352.19,142.51 c 54.01,0 97.77,43.77 97.77,97.77 0,53.99 -43.76,97.77 -97.77,97.77 -53.98,0 -97.77,-43.78 -97.77,-97.77 0,-54 43.79,-97.77 97.77,-97.77 z m 0,38.55 c -32.7,0 -59.21,26.51 -59.21,59.22 0,32.7 26.51,59.21 59.21,59.21 32.71,0 59.22,-26.51 59.22,-59.21 0,-32.71 -26.51,-59.22 -59.22,-59.22 z"
         class="fil0" />
    </g>
  </g>
</svg>
