<svg id="SVGRoot" width="206px" height="206px" version="1.1" viewBox="0 0 206 206" xmlns="http://www.w3.org/2000/svg">
 <g transform="matrix(3.7795 0 0 3.7795 -5465.1 -1392.5)">
  <g transform="translate(864.61 134.19)">
   <rect x="582.38" y="235.25" width="52.258" height="52.258" fill="#fff" stroke="#000" stroke-linecap="round" stroke-width=".5" style="paint-order:fill markers stroke"/>
   <text x="608.37415" y="277.44989" font-family="sans-serif" class="svgT" letter-spacing=".5px" font-size="5.2px" stroke-width=".26458" text-align="center" text-anchor="middle" word-spacing="0px" style="line-height:0.94999999" xml:space="preserve"><tspan x="608.37415" y="277.44989" text-align="center">Zamień spację</tspan><tspan x="608.37415" y="283.48239" text-align="center">na twardą spację</tspan></text>
   <text x="608.50507" y="286.57382" font-family="sans-serif" font-size="5.6444px" letter-spacing="0px" stroke-width=".26458" word-spacing="0px" style="line-height:1.25" xml:space="preserve"><tspan x="608.50507" y="286.57382" font-family="sans-serif" stroke-width=".26458"> </tspan></text>
   <g transform="matrix(.020724 -.035895 .035895 .020724 582.97 258.78)" clip-rule="evenodd" fill-rule="evenodd" image-rendering="optimizeQuality" shape-rendering="geometricPrecision">
    <path class="fil0" d="m544.2 239.28-155.8-178.98c-24.26-19.51-48.52-20.02-72.78.32l-155.44 178.66v469.84c0 20.7 16.93 37.62 37.62 37.62h308.79c20.69 0 37.61-16.92 37.61-37.62zm142.29 54.41-155.82-178.98c-23.54-18.94-47.07-19.97-70.62-1.44l98.69 113.37 4.74 5.44v477.04c0 15.68-6.39 29.9-16.69 40.2l-.04-.03c-10.35 10.32-24.56 16.72-40.16 16.72l-154.4.02h-49.63c1.29 19.53 17.67 35.12 37.52 35.12h308.8c20.68 0 37.61-16.92 37.61-37.62zm-334.3-151.18c54.01 0 97.77 43.77 97.77 97.77 0 53.99-43.76 97.77-97.77 97.77-53.98 0-97.77-43.78-97.77-97.77 0-54 43.79-97.77 97.77-97.77zm0 38.55c-32.7 0-59.21 26.51-59.21 59.22 0 32.7 26.51 59.21 59.21 59.21 32.71 0 59.22-26.51 59.22-59.21 0-32.71-26.51-59.22-59.22-59.22z"/>
   </g>
  </g>
 </g>
</svg>
