<?xml version="1.0" encoding="UTF-8" standalone="no"?>
<svg
   xmlns:dc="http://purl.org/dc/elements/1.1/"
   xmlns:cc="http://creativecommons.org/ns#"
   xmlns:rdf="http://www.w3.org/1999/02/22-rdf-syntax-ns#"
   xmlns:svg="http://www.w3.org/2000/svg"
   xmlns="http://www.w3.org/2000/svg"
   id="svg47"
   version="1.1"
   viewBox="0 0 52.758294 52.758296"
   height="199.40143"
   width="199.40143">
  <defs
     id="defs42">
    <pattern
       id="EMFhbasepattern"
       patternUnits="userSpaceOnUse"
       width="6"
       height="6"
       x="0"
       y="0" />
  </defs>
  <metadata
     id="metadata45">
    <rdf:RDF>
      <cc:Work
         rdf:about="">
        <dc:format>image/svg+xml</dc:format>
        <dc:type
           rdf:resource="http://purl.org/dc/dcmitype/StillImage" />
        <dc:title></dc:title>
      </cc:Work>
    </rdf:RDF>
  </metadata>
  <g
     id="g8556"
     transform="translate(49.836509,-375.23204)">
    <g
       id="g5305">
      <g
         id="g9125"
         transform="translate(-463.96143,6.142117)">
        <rect
           height="52.258293"
           y="369.54422"
           x="414.35962"
           width="52.258293"
           id="rect833-1-5-3-7-4-8-5-1-4-2-8"
           style="fill:#ffffff;stroke:#000000;stroke-width:0.49999899;stroke-linecap:round;stroke-miterlimit:4;stroke-dasharray:none;stroke-opacity:1;paint-order:fill markers stroke" />
        <text
           id="text898-7-3-6-8-3-3-0-66-7-8-8"
           y="413.12613"
           x="440.25064"
           style="font-size:6.3499999px;line-height:0.94999999;font-family:voestalpine;-inkscape-font-specification:voestalpine;text-align:center;letter-spacing:0px;word-spacing:0px;text-anchor:middle;stroke-width:0.26458299"
           xml:space="preserve"><tspan
             style="font-size:6.3499999px;text-align:center;text-anchor:middle;stroke-width:0.26458299"
             y="413.12613"
             x="440.25064"
             id="tspan1580-6">Zmień kolor</tspan><tspan
             id="tspan1636"
             style="font-size:6.3499999px;text-align:center;text-anchor:middle;stroke-width:0.26458299"
             y="419.15863"
             x="441.0134">komórki tabeli </tspan></text>
        <g
           transform="translate(-1.0238419e-5)"
           id="g5818">
          <path
             d="m 432.34301,383.72733 h -11.26666 c -0.46494,0 -0.84301,0.37807 -0.84301,0.84299 v 5.54218 c 0,0.46494 0.37807,0.84301 0.84301,0.84301 h 11.26666 c 0.46497,0 0.84304,-0.37807 0.84304,-0.84301 v -5.54218 c 0,-0.46588 -0.37807,-0.84299 -0.84304,-0.84299 z"
             id="path1502-9-5-5-3-8-3"
             style="fill:#000000;stroke-width:0.95472097" />
          <path
             style="fill:#ffffff;stroke:#000000;stroke-width:0.95472097;stroke-opacity:1"
             id="path1502-9-5-5-3-8-5-6"
             d="m 459.4238,383.72733 h -11.26667 c -0.46494,0 -0.84301,0.37807 -0.84301,0.84299 v 5.54218 c 0,0.46494 0.37807,0.84301 0.84301,0.84301 h 11.26667 c 0.46496,0 0.84303,-0.37807 0.84303,-0.84301 v -5.54218 c 0,-0.46588 -0.37807,-0.84299 -0.84303,-0.84299 z" />
          <g
             style="clip-rule:evenodd;fill:#000000;fill-rule:evenodd;image-rendering:optimizeQuality;shape-rendering:geometricPrecision;text-rendering:geometricPrecision"
             id="g1225-72-7-7-9"
             transform="matrix(-1.5734621e-7,39.067012,-39.067012,-1.5734621e-7,445.97671,382.48865)">
            <polygon
               class="fil0"
               points="0.0336142,0.157421 0.100445,0.0905945 0.100445,0.306461 0.147984,0.306461 0.147984,0.092689 0.214819,0.159531 0.248433,0.125913 0.123807,0 0,0.123807 "
               id="polygon1212-2-61-0-7" />
          </g>
        </g>
      </g>
    </g>
  </g>
</svg>
